<svg xmlns="http://www.w3.org/2000/svg" width="42.559" height="81.874" viewBox="0 0 42.559 81.874">
    <defs>
        <style>
            .prefix__cls-1{fill:#f2c7b2;stroke:#bf6947;stroke-linecap:round;stroke-linejoin:round;stroke-width:2px}.prefix__cls-2{fill:#bf6947}.prefix__cls-3{fill:#f3d0be}.prefix__cls-5{fill:#f3ba8a}.prefix__cls-13,.prefix__cls-5{opacity:.5}.prefix__cls-12,.prefix__cls-13,.prefix__cls-5,.prefix__cls-9{mix-blend-mode:multiply;isolation:isolate}.prefix__cls-6,.prefix__cls-9{fill:#e0dbe5}.prefix__cls-7{fill:#b2aec4}.prefix__cls-10{fill:#fff}.prefix__cls-11,.prefix__cls-12,.prefix__cls-13{fill:#d1d0d0}.prefix__cls-12{opacity:.3}
        </style>
    </defs>
    <g id="prefix__Group_3582" data-name="Group 3582" transform="translate(-7469.22 -6452.537)">
        <path id="prefix__Path_9272" d="M7490.82 6475.162h10.23l-.426-8.739.02.1.373 1.864.646 3.23.656 3.281.25 1.25c.062.311.141.617.224.921.121.441.254.88.366 1.326.195.777.36 1.561.536 2.342q.489 2.169.931 4.347c.167.817.37 1.644.47 2.473s-.126.943-.773 1.705-.362 1.47-1.3 3.323.22 3.131.7 2.116a18.051 18.051 0 0 1 1.5-2.05 5.055 5.055 0 0 1-.4 2.478 2.508 2.508 0 0 0-.713 1.563c-.076.827.456 1.649.845 1.716s.694-.455.694-.455a7.447 7.447 0 0 0 1.7-1 2.309 2.309 0 0 0 1.662-.515c.869-.143 1.544-2.023 1.735-3.515s0-2.067-.965-4.042a7.561 7.561 0 0 1-1.061-5.05c.018-.331.021-.662.013-.993a33.257 33.257 0 0 0-.617-5.075c-.146-.8-.306-1.606-.472-2.407a15.539 15.539 0 0 1-.416-3.174s-1.279-10.443-1.918-11.509a6.709 6.709 0 0 0-3.623-2.771c-1.229-.205-7.9-.14-8.672-1.117.107-1.259.221-3.057.221-3.057l-2.6-.188h-.279l-2.6.188s.114 1.8.222 3.057c-.77.977-7.442.912-8.672 1.117a6.709 6.709 0 0 0-3.623 2.771c-.639 1.066-1.918 11.509-1.918 11.509a15.539 15.539 0 0 1-.416 3.174c-.166.8-.326 1.6-.472 2.407a33.2 33.2 0 0 0-.617 5.075c-.008.331 0 .662.013.993a7.561 7.561 0 0 1-1.061 5.05c-.965 1.975-1.154 2.556-.965 4.042s.866 3.372 1.735 3.515a2.31 2.31 0 0 0 1.662.515 7.454 7.454 0 0 0 1.7 1s.311.521.694.455.921-.889.844-1.716a2.5 2.5 0 0 0-.712-1.563 5.055 5.055 0 0 1-.4-2.478 18 18 0 0 1 1.5 2.05c.479 1.015 1.642-.257.7-2.116s-.646-2.55-1.3-3.323-.866-.882-.772-1.705.3-1.655.47-2.473q.445-2.178.931-4.347c.176-.781.341-1.565.536-2.342.112-.446.244-.884.366-1.326.083-.3.162-.611.224-.921l.25-1.25.656-3.281.646-3.23.373-1.864.02-.1-.426 8.739h10.87z" class="prefix__cls-1" data-name="Path 9272"/>
        <g id="prefix__Group_3570" data-name="Group 3570" transform="translate(7476.971 6494.109)">
            <g id="prefix__Group_3566" data-name="Group 3566" transform="translate(14.788)">
                <path id="prefix__Path_9273" d="M7574.718 6646.856a50.155 50.155 0 0 1 1.656 5 28.539 28.539 0 0 0-2.528 7.484c-1.126 5.543-1.76 8.357-1.76 8.357a3.694 3.694 0 0 0 1.4 2.884c1.437 1.054 3.152-.23 3.937-2.259s5.33-9.985 6.253-11.614 1.944-3.437 1.653-5.356-.976-4.886-.976-4.886a8.332 8.332 0 0 0-4.782-1.864c-2.652-.027-4.853 2.254-4.853 2.254z" class="prefix__cls-1" data-name="Path 9273" transform="translate(-7571.941 -6644.449)"/>
                <path id="prefix__Path_9274" d="M7574.039 6670.552a1.906 1.906 0 0 1-1.173-.406 3.828 3.828 0 0 1-1.458-3c.013-.055.647-2.906 1.769-8.378a24.158 24.158 0 0 1 2.242-6.827 2.611 2.611 0 0 0 .269-.636 42.064 42.064 0 0 0-1.643-4.94l-.032-.082.065-.066a7.779 7.779 0 0 1 4.922-2.317h.047a8.419 8.419 0 0 1 4.875 1.908l.034.028.01.043c.008.033.688 3 .977 4.9.291 1.968-.751 3.821-1.667 5.45l-.332.575c-1.285 2.271-5.2 9.19-5.921 11.017-.651 1.667-1.816 2.731-2.984 2.731zm-2.349-3.378a3.63 3.63 0 0 0 1.341 2.742 1.719 1.719 0 0 0 1.008.351c1.029 0 2.123-1.019 2.711-2.549.725-1.854 4.516-8.537 5.941-11.055l.324-.576c.9-1.589 1.918-3.394 1.637-5.258-.267-1.76-.867-4.441-.958-4.83a8.22 8.22 0 0 0-4.658-1.8H7579a7.449 7.449 0 0 0-4.649 2.16 41.487 41.487 0 0 1 1.629 4.958 2.176 2.176 0 0 1-.3.756 24.075 24.075 0 0 0-2.221 6.75c-1.116 5.478-1.755 8.329-1.763 8.356z" class="prefix__cls-2" data-name="Path 9274" transform="translate(-7571.407 -6643.903)"/>
            </g>
            <path id="prefix__Path_9275" d="M7585.328 6656.024c-.058-.406-.137-.861-.23-1.322a5.247 5.247 0 0 1-.29 1.755 2.887 2.887 0 0 1-3.825 1.946c-1.689-.794-2.479-2.84-3.167-4.447a11.6 11.6 0 0 0-1.6-3.2 3.473 3.473 0 0 0-.286-.22 8.653 8.653 0 0 0-1.211.993 50.185 50.185 0 0 1 1.656 4.995 28.539 28.539 0 0 0-2.528 7.485c-1.126 5.543-1.76 8.357-1.76 8.357a3.694 3.694 0 0 0 1.4 2.884c1.437 1.054 3.152-.23 3.937-2.259s5.33-9.985 6.253-11.614 1.942-3.433 1.651-5.353z" class="prefix__cls-3" data-name="Path 9275" transform="translate(-7557.153 -6649.126)"/>
            <path id="prefix__Path_9276" fill="#edb9a3" d="M7578.271 6688.579a3 3 0 0 1-1.442-1.031 2.9 2.9 0 0 1-.516-2.8c.277-.768.7-1.492.962-2.26a3.356 3.356 0 0 0-.019-2.286c-.31-.444-.628-.883-.891-1.338a26.768 26.768 0 0 0-2.52 7.435c-1.126 5.544-1.76 8.357-1.76 8.357a3.694 3.694 0 0 0 1.4 2.884c1.437 1.053 3.152-.23 3.937-2.259.417-1.069 1.886-3.806 3.317-6.383a3.339 3.339 0 0 1-2.468-.319z" data-name="Path 9276" transform="translate(-7557.153 -6671.416)"/>
            <path id="prefix__Path_9277" d="M7613.324 6686.734a2.447 2.447 0 0 1-1.1-.231 3.511 3.511 0 0 1-.437-.252c.43.839 1.013.849 1.537.483z" class="prefix__cls-5" data-name="Path 9277" transform="translate(-7588.393 -6677.226)"/>
            <path id="prefix__Path_9278" d="M7612.756 6685.843a1.158 1.158 0 0 1-1.113-.137c-.041-.033-.121-.011-.106.049.085.269.5.411.745.45s.625.061.661-.251a.127.127 0 0 0-.187-.111z" class="prefix__cls-2" data-name="Path 9278" transform="translate(-7588.194 -6676.784)"/>
            <path id="prefix__Path_9279" d="M7592.654 6677.105a14.053 14.053 0 0 1-1.45-3.06c-.028-.06-.1-.044-.093.017a5.014 5.014 0 0 0 1.472 3.109c.038.029.099-.022.071-.066z" class="prefix__cls-2" data-name="Path 9279" transform="translate(-7572.123 -6667.592)"/>
            <g id="prefix__Group_3567" data-name="Group 3567" transform="translate(12.059 20.891)">
                <path id="prefix__Path_9280" d="M7563.437 6746.1a3.667 3.667 0 0 1 3.266-1.217c1.881.417 1.881 2.177 1.834 3.1a6.071 6.071 0 0 0 1.779 4.512c1.67 1.739 2.251 2.583 2.369 3.405s-.1 2.155-.773 2.512-5.315 1.568-8.047-.241-3.374-5.5-3.5-6.668a10.294 10.294 0 0 0-.705-3.421 2.831 2.831 0 0 1 .192-3.1c.8-1.4 1.892-2.73 2.637-2.292l-.172.795a6.458 6.458 0 0 0 1.12 2.615z" class="prefix__cls-6" data-name="Path 9280" transform="translate(-7559.145 -6742.46)"/>
                <path id="prefix__Path_9281" d="M7567.194 6758.753a7.052 7.052 0 0 1-3.951-1c-2.917-1.936-3.476-5.982-3.564-6.771l-.019-.192a9.719 9.719 0 0 0-.666-3.18 2.939 2.939 0 0 1 .2-3.235c.523-.916 1.532-2.451 2.442-2.451a.708.708 0 0 1 .39.11l.09.049-.184.866a6.384 6.384 0 0 0 .968 2.391 3.894 3.894 0 0 1 2.64-1.2 3.194 3.194 0 0 1 .647.071c2.1.45 1.985 2.55 1.952 3.24a5.85 5.85 0 0 0 1.741 4.409c1.667 1.75 2.282 2.627 2.407 3.487s-.1 2.26-.852 2.654a11.523 11.523 0 0 1-4.241.752zm-5.561-16.537c-.543 0-1.387.882-2.19 2.309a2.664 2.664 0 0 0-.192 2.95 10.162 10.162 0 0 1 .7 3.29l.014.186c.084.773.625 4.693 3.443 6.569a6.8 6.8 0 0 0 3.786.942 11.5 11.5 0 0 0 4.1-.712c.605-.319.817-1.591.705-2.363-.119-.8-.705-1.629-2.328-3.328a6.139 6.139 0 0 1-1.826-4.622c.052-1.092-.061-2.583-1.729-2.939a2.554 2.554 0 0 0-.579-.071 3.763 3.763 0 0 0-2.539 1.228l-.111.138-.107-.143a6.509 6.509 0 0 1-1.146-2.67v-.027l.151-.719a1.282 1.282 0 0 0-.151-.017z" class="prefix__cls-7" data-name="Path 9281" transform="translate(-7558.601 -6741.926)"/>
            </g>
            <path id="prefix__Path_9282" d="M7564.24 6767.209c-2.89-1.924-2.89-6.739-3.608-8.856a16.629 16.629 0 0 0-1.01-2.3 2.653 2.653 0 0 0 .053 2.609 10.321 10.321 0 0 1 .705 3.422c.12 1.163.772 4.858 3.5 6.668s7.375.608 8.046.241a1.36 1.36 0 0 0 .576-.74 11.084 11.084 0 0 1-8.262-1.044z" class="prefix__cls-7" data-name="Path 9282" transform="translate(-7547.097 -6732.149)"/>
            <g id="prefix__Group_3568" data-name="Group 3568" transform="translate(1.26 5.346)">
                <path id="prefix__Path_9283" d="M7508.734 6670.928a19.671 19.671 0 0 1 .971 4.041 46.524 46.524 0 0 0 1.582 11.351c1.584 6.4 3.106 10.637 3.106 10.637l4.11-.159s-.165-7.824-.259-11.778c-.1-3.937-.263-12.31-.038-13.412s-2.553-1.65-4.724-1.908a9.342 9.342 0 0 0-4.748 1.228z" class="prefix__cls-1" data-name="Path 9283" transform="translate(-7508.563 -6669.524)"/>
                <path id="prefix__Path_9284" d="M7513.665 6696.568l-.033-.1c-.019-.039-1.543-4.315-3.111-10.654a47.48 47.48 0 0 1-1.584-11.093l-.006-.285a20.4 20.4 0 0 0-.957-4l-.039-.115.1-.055a10.1 10.1 0 0 1 4.3-1.283 3.626 3.626 0 0 1 .548.033c2.646.318 4.228.812 4.7 1.464a.73.73 0 0 1 .145.613c-.191.944-.107 7.8.033 13.385.1 3.9.258 11.7.263 11.772v.144zm-5.382-26.111a18.265 18.265 0 0 1 .932 3.975l.011.286a46.657 46.657 0 0 0 1.576 11.026c1.431 5.791 2.829 9.854 3.067 10.528l3.853-.148c-.02-1.08-.165-8.021-.252-11.629-.052-2.029-.283-12.211-.033-13.451a.463.463 0 0 0-.09-.384c-.409-.581-2.013-1.052-4.5-1.359-.165-.011-.343-.022-.515-.022a9.864 9.864 0 0 0-4.049 1.178z" class="prefix__cls-2" data-name="Path 9284" transform="translate(-7507.935 -6668.987)"/>
            </g>
            <path id="prefix__Path_9285" d="M7518.244 6687.681c-.1-3.937-.263-12.31-.038-13.412.1-.515-.456-.915-1.305-1.217.085.329.169.664.23 1 .291 1.5.469 3.234-.468 4.551a3.052 3.052 0 0 1-4.546.389c-1.667-1.458-1.642-3.745-2.347-5.7a.115.115 0 0 1 .052-.148.571.571 0 0 1-.058-.06c-.62.269-1.031.5-1.031.5a19.66 19.66 0 0 1 .971 4.042 46.524 46.524 0 0 0 1.582 11.35c1.584 6.4 3.106 10.637 3.106 10.637l4.11-.159s-.164-7.819-.258-11.773zm-.512 5.04c.151.11.013.361-.146.257-.008-.011-.008-.011-.013-.011a11.21 11.21 0 0 1-.428 1.333c-.066.175-.343.093-.277-.071a10.06 10.06 0 0 0 .447-1.447c-1.048-.746-2.038-1.568-3.14-2.238-1.9.411-2.412-2.193-2.6-3.564a25 25 0 0 1-.2-3.027c-.006-1.167.014-2.582 1.135-3.268a1.537 1.537 0 0 1 .723-.164 5.071 5.071 0 0 0 1.421-.225c.507-.165 1.323-.511 1.839-.132a1.811 1.811 0 0 1 .647 1.256c.112.784.188 1.573.31 2.352.428 2.856.845 5.921.216 8.79a.75.75 0 0 0-.005.115c.024.011.044.038.071.044z" class="prefix__cls-3" data-name="Path 9285" transform="translate(-7507.303 -6666.839)"/>
            <path id="prefix__Path_9286" fill="#edb99d" d="M7549.291 6677.082c.192 2.215-.132 4.513-.071 6.712.019.806.052 1.622.1 2.429.126.9.244 1.8.375 2.709a1.6 1.6 0 0 1 .027.192c.053.06.113.115.173.175-.014-.362-.022-.69-.022-1.009-.1-3.936-.263-12.31-.038-13.412.093-.428-.283-.779-.9-1.053a12.778 12.778 0 0 1 .331 2.653c.011.204.02.401.025.604z" data-name="Path 9286" transform="translate(-7538.937 -6667.448)"/>
            <path id="prefix__Path_9287" d="M7530.623 6773.24a8.231 8.231 0 0 1-3.2-1.5 5.1 5.1 0 0 1-.456-.51c1.009 3.509 1.773 5.643 1.773 5.643l4.11-.159s-.025-1.113-.058-2.709c-.725-.26-1.442-.529-2.169-.765z" class="prefix__cls-5" data-name="Path 9287" transform="translate(-7521.647 -6744.092)"/>
            <path id="prefix__Path_9288" d="M7511.153 6687.1c-.033-.274-.052-.543-.071-.812-.088-1.256.348-2.473.335-3.724a16.592 16.592 0 0 0-.851-3.767 41.547 41.547 0 0 0-1.127-4.025c-.726-.027-.047 1.229.053 1.618a19.138 19.138 0 0 1 .4 2.127c.244 2.012.249 4.046.539 6.059.236 1.678.606 3.334.968 4.979-.054-.815-.166-1.637-.246-2.455z" class="prefix__cls-3" data-name="Path 9288" transform="translate(-7507.598 -6668.194)"/>
            <path id="prefix__Path_9289" d="M7527.039 6703.287a1.119 1.119 0 0 0 1.294.236 2.17 2.17 0 0 0 .554-.593 3.245 3.245 0 0 1-2.2-.472 1.157 1.157 0 0 0 .352.829z" class="prefix__cls-5" data-name="Path 9289" transform="translate(-7521.433 -6689.979)"/>
            <path id="prefix__Path_9290" d="M7529.663 6703.413c-.211-.1-.444-.154-.653-.248-.247-.1-.463-.246-.7-.334-.143-.055-.23.11-.184.225.206.516 1.022.554 1.478.565.105 0 .171-.16.059-.208z" class="prefix__cls-2" data-name="Path 9290" transform="translate(-7522.552 -6690.264)"/>
            <g id="prefix__Group_3569" data-name="Group 3569" transform="translate(0 27.559)">
                <path id="prefix__Path_9291" d="M7509.274 6775.256a3.319 3.319 0 0 1 3.951-.049s.526-.187.5-1.058a1.375 1.375 0 0 1 1.2 1.223 17.708 17.708 0 0 0 .634 3.108c.356 1.086 1.346 5.423.4 6.811s-7.459 1.3-10.177.652-3.369-1.9-2.988-3.438 2-3.059 3.035-4.238a5.385 5.385 0 0 0 1.47-2.862c.065-.68.192-1.255.765-1.447a4.956 4.956 0 0 1 1.21 1.298z" class="prefix__cls-6" data-name="Path 9291" transform="translate(-7502.552 -6773.798)"/>
                <path id="prefix__Path_9292" d="M7510.127 6785.954a23.7 23.7 0 0 1-4.906-.455 4.356 4.356 0 0 1-2.882-1.649 2.469 2.469 0 0 1-.211-1.969 9.561 9.561 0 0 1 2.479-3.641c.2-.225.4-.445.586-.658a5.208 5.208 0 0 0 1.434-2.781c.072-.674.2-1.349.87-1.573l.073-.017.058.043a5.869 5.869 0 0 1 1.167 1.207 3.942 3.942 0 0 1 2.064-.647 3.043 3.043 0 0 1 1.848.636.941.941 0 0 0 .342-.883l-.008-.164.165.017a1.545 1.545 0 0 1 1.332 1.349q.072.395.121.756a12.975 12.975 0 0 0 .5 2.325c.37 1.107 1.365 5.483.4 6.937-.721 1.052-4.038 1.167-5.432 1.167zm-2.612-12.419c-.408.17-.526.592-.6 1.294a5.466 5.466 0 0 1-1.5 2.944c-.187.213-.39.433-.6.658a9.5 9.5 0 0 0-2.4 3.521 2.185 2.185 0 0 0 .178 1.743 4.11 4.11 0 0 0 2.7 1.519 23.057 23.057 0 0 0 4.842.461c2.77 0 4.755-.407 5.186-1.054.9-1.338-.08-5.642-.43-6.684a13.748 13.748 0 0 1-.507-2.369c-.039-.235-.072-.493-.118-.751a1.283 1.283 0 0 0-.916-1.086 1.113 1.113 0 0 1-.6 1.031l-.079.022-.061-.049a2.754 2.754 0 0 0-1.741-.637 3.721 3.721 0 0 0-2.025.686l-.146.109-.071-.165a4.611 4.611 0 0 0-1.112-1.193z" class="prefix__cls-7" data-name="Path 9292" transform="translate(-7502.021 -6773.212)"/>
            </g>
            <path id="prefix__Path_9293" d="M7505.737 6813.62a4.033 4.033 0 0 1-2.7-2.72 4.3 4.3 0 0 0-.244.674c-.381 1.536.271 2.786 2.988 3.438s9.242.746 10.177-.652a3.363 3.363 0 0 0 .395-1.793c-1.678 1.727-8.11 1.64-10.616 1.053z" class="prefix__cls-7" data-name="Path 9293" transform="translate(-7502.552 -6775.308)"/>
            <path id="prefix__Path_9294" d="M7533.066 6776.737a4.356 4.356 0 0 0-2.209.378 3.208 3.208 0 0 0-1.207 1.415.067.067 0 0 0 .1.088 8.742 8.742 0 0 0 .806-.762 2.847 2.847 0 0 1 2.084-.687 3.309 3.309 0 0 1 2.83 1.558.042.042 0 0 0 .079-.027 2.783 2.783 0 0 0-2.483-1.963z" class="prefix__cls-7" data-name="Path 9294" transform="translate(-7523.754 -6748.415)"/>
            <path id="prefix__Path_9295" d="M7580.625 6752.417a2.708 2.708 0 0 0-3.476 2.482c.009.077.112.1.132.028a3.042 3.042 0 0 1 1.365-1.9 5.264 5.264 0 0 1 1.979-.542c.019-.003.033-.052 0-.068z" class="prefix__cls-7" data-name="Path 9295" transform="translate(-7561.135 -6729.156)"/>
            <path id="prefix__Path_9296" d="M7572.685 6755.9a3.457 3.457 0 0 0-.713-1.513c.461.993.54 2.007-.916 2.2a6.836 6.836 0 0 1-6.563-3.2c-1.16-1.8-1.839-5.5.323-7.156a3.368 3.368 0 0 1 3.106-.674 2.285 2.285 0 0 0-1.22-.669 3.667 3.667 0 0 0-3.266 1.217 6.458 6.458 0 0 1-1.115-2.616l.172-.795c-.746-.438-1.84.889-2.637 2.292a2.831 2.831 0 0 0-.192 3.1 10.294 10.294 0 0 1 .705 3.421c.121 1.163.773 4.858 3.5 6.668s7.376.608 8.047.241.895-1.694.769-2.516z" class="prefix__cls-9" data-name="Path 9296" transform="translate(-7547.086 -6721.569)"/>
            <path id="prefix__Path_9297" d="M7572.407 6757.408a6.971 6.971 0 0 1-3.66.187 6.569 6.569 0 0 1-5.573-4.146c-.74-2.166-1.009-5.352.349-7.348a3.171 3.171 0 0 1 .309-.384 3.352 3.352 0 0 0-.4.384 6.458 6.458 0 0 1-1.115-2.616l.172-.795c-.746-.438-1.84.889-2.637 2.292a2.831 2.831 0 0 0-.192 3.1 10.294 10.294 0 0 1 .705 3.421c.121 1.163.773 4.858 3.5 6.668s7.376.608 8.047.241a1.687 1.687 0 0 0 .7-1.124z" class="prefix__cls-9" data-name="Path 9297" transform="translate(-7547.086 -6721.569)"/>
            <path id="prefix__Path_9298" d="M7515.559 6778.48a17.708 17.708 0 0 1-.634-3.108 1.375 1.375 0 0 0-1.2-1.223 1.083 1.083 0 0 1-.39.992 3.413 3.413 0 0 1 .678.745 7.9 7.9 0 0 1 .99 6.048c-1.4 4.754-15.162 2.227-8.423-3.279a16.091 16.091 0 0 0 2.092-2.626 5.114 5.114 0 0 1 1.332-1.18 3.851 3.851 0 0 0-.732.406 4.956 4.956 0 0 0-1.209-1.3c-.573.192-.7.768-.765 1.447a5.385 5.385 0 0 1-1.47 2.862c-1.037 1.179-2.646 2.693-3.035 4.238s.271 2.786 2.988 3.438 9.242.746 10.177-.652-.043-5.722-.399-6.808z" class="prefix__cls-9" data-name="Path 9298" transform="translate(-7502.552 -6746.239)"/>
            <path id="prefix__Path_9299" d="M7516.035 6799.76a3.939 3.939 0 0 1-.74 2.939c-1.233 1.4-4.03 1.732-5.883 1.661-1.887-.072-4.562-.515-5.4-2.309-.541-1.135.455-2.555.981-3.526a8.682 8.682 0 0 0-2.2 3.312c-.381 1.536.271 2.786 2.988 3.438s9.242.746 10.177-.651c.631-.933.397-3.154.077-4.864z" class="prefix__cls-9" data-name="Path 9299" transform="translate(-7502.552 -6765.571)"/>
        </g>
        <g id="prefix__Group_3577" data-name="Group 3577" transform="translate(7476.615 6484.552)">
            <path id="prefix__Path_9300" d="M7587.679 6664.074c.153.433.31.889.456 1.321a.135.135 0 0 1 .079-.005q-.288-.65-.535-1.316z" class="prefix__cls-5" data-name="Path 9300" transform="translate(-7569.067 -6650.218)"/>
            <g id="prefix__Group_3571" data-name="Group 3571" transform="translate(.3)">
                <path id="prefix__Path_9301" d="M7505.975 6601.408a2.9 2.9 0 0 0-3.356 1.442c-.573 1.267.409.784.173 2.588a40.005 40.005 0 0 0 .165 8.91l.071.833a13.352 13.352 0 0 0 7.948 1.93c4.781-.291 5.144-1.853 5.144-1.853a24.166 24.166 0 0 1-.889-4.359 11 11 0 0 1 .508-3.531s.647.164 1.253 2.446a30.158 30.158 0 0 0 1.82 5.2 10.113 10.113 0 0 1 6.357-3.492c4.523-.839 6.043.192 6.114.313s-.8-2.956-1.492-5.582-.841-4.715-1.853-5.1-7.7-.937-11.863-1.372-8.234 1.919-10.1 1.627z" class="prefix__cls-10" data-name="Path 9301" transform="translate(-7502.292 -6599.587)"/>
                <path id="prefix__Path_9302" d="M7509.579 6616.75a13.531 13.531 0 0 1-7.163-1.974l-.059-.033-.073-.916a40.23 40.23 0 0 1-.17-8.937 1.9 1.9 0 0 0-.191-1.393c-.179-.334-.264-.575.032-1.233a2.8 2.8 0 0 1 2.736-1.59 5.574 5.574 0 0 1 .779.065 2.174 2.174 0 0 0 .336.022 12.4 12.4 0 0 0 2.929-.636 20.842 20.842 0 0 1 5.752-1.063c.367 0 .724.016 1.066.049 1.022.109 2.205.225 3.405.334a79.13 79.13 0 0 1 8.493 1.047c.825.313 1.1 1.563 1.491 3.3.127.57.271 1.223.455 1.9.277 1.053.582 2.171.845 3.125.686 2.506.686 2.506.625 2.589l-.044.06-.153-.006-.047-.07a4.889 4.889 0 0 0-2.815-.57 17.584 17.584 0 0 0-3.145.323 9.987 9.987 0 0 0-6.26 3.433l-.111.159-.127-.154a30.734 30.734 0 0 1-1.853-5.247 4.7 4.7 0 0 0-1.029-2.27 11.01 11.01 0 0 0-.441 3.312 23.632 23.632 0 0 0 .888 4.32v.072c-.019.065-.441 1.672-5.282 1.962-.287.02-.586.02-.869.02zm-6.944-2.172a13.366 13.366 0 0 0 6.944 1.887c.277 0 .567-.011.85-.027 4.2-.252 4.923-1.492 5.007-1.711a23.43 23.43 0 0 1-.877-4.348 10.9 10.9 0 0 1 .507-3.592l.047-.131.126.044c.071.022.751.258 1.359 2.555a33.06 33.06 0 0 0 1.709 4.974 10.512 10.512 0 0 1 6.3-3.366 17.123 17.123 0 0 1 3.2-.33 6.411 6.411 0 0 1 2.725.466c-.121-.439-.336-1.256-.567-2.1-.257-.959-.568-2.089-.844-3.131-.184-.68-.329-1.338-.455-1.914-.37-1.646-.634-2.83-1.313-3.093a82.075 82.075 0 0 0-8.422-1.025c-1.215-.115-2.388-.23-3.411-.335-.33-.032-.677-.055-1.034-.055a20.524 20.524 0 0 0-5.667 1.059 12.584 12.584 0 0 1-3.014.647 2.108 2.108 0 0 1-.384-.028 4.33 4.33 0 0 0-.731-.066 2.537 2.537 0 0 0-2.474 1.425c-.257.576-.178.724-.046.971a2.125 2.125 0 0 1 .225 1.574 40.33 40.33 0 0 0 .172 8.867z" class="prefix__cls-11" data-name="Path 9302" transform="translate(-7501.76 -6599.061)"/>
            </g>
            <g id="prefix__Group_3572" data-name="Group 3572" transform="translate(21.89 .828)">
                <path id="prefix__Path_9303" d="M7609.542 6608.652c-.543-2.271-.754-4.015-1.664-4.359a25.946 25.946 0 0 0-3.85-.576 8.385 8.385 0 0 0 5.514 4.935z" class="prefix__cls-11" data-name="Path 9303" transform="translate(-7603.822 -6603.552)"/>
                <path id="prefix__Path_9304" d="M7608.985 6608.263l-.244-.083a8.481 8.481 0 0 1-5.612-5.022l-.066-.214.225.027a24.19 24.19 0 0 1 3.876.576c.825.313 1.1 1.563 1.491 3.3.085.367.173.757.271 1.168zm-5.5-4.984a8.232 8.232 0 0 0 5.1 4.55c-.073-.318-.145-.625-.205-.916-.37-1.65-.634-2.835-1.313-3.1a23.992 23.992 0 0 0-3.582-.534z" class="prefix__cls-11" data-name="Path 9304" transform="translate(-7603.063 -6602.944)"/>
            </g>
            <g id="prefix__Group_3573" data-name="Group 3573" transform="translate(.3 .986)">
                <path id="prefix__Path_9305" d="M7502.824 6609.061c2.352.532 4.589-1.141 5.8-3.142.23-.373.428-.756.62-1.145a9.021 9.021 0 0 1-3.273.6 2.9 2.9 0 0 0-3.356 1.442c-.532 1.175.285.847.209 2.245z" class="prefix__cls-11" data-name="Path 9305" transform="translate(-7502.291 -6604.542)"/>
                <path id="prefix__Path_9306" d="M7503.176 6608.448a4.257 4.257 0 0 1-.916-.093l-.121-.033.008-.121a1.62 1.62 0 0 0-.224-1.064c-.179-.334-.264-.575.032-1.233a2.8 2.8 0 0 1 2.736-1.59 5.5 5.5 0 0 1 .779.065 2.176 2.176 0 0 0 .336.022 12.113 12.113 0 0 0 2.868-.62l.31-.094-.137.3c-.219.438-.422.812-.628 1.146-.976 1.605-2.809 3.315-5.043 3.315zm-.732-.351a4.052 4.052 0 0 0 .732.071c2.115 0 3.865-1.646 4.8-3.18.154-.252.3-.532.455-.839a8.118 8.118 0 0 1-3.008.516 4.282 4.282 0 0 0-.731-.066 2.536 2.536 0 0 0-2.474 1.426c-.257.576-.178.725-.046.971a1.938 1.938 0 0 1 .271 1.104z" class="prefix__cls-11" data-name="Path 9306" transform="translate(-7501.76 -6603.688)"/>
            </g>
            <g id="prefix__Group_3574" data-name="Group 3574" transform="translate(11.849 7.232)">
                <path id="prefix__Path_9307" d="M7560.407 6634.025a2.285 2.285 0 0 0-1.623-.335c-.738.126-1.385.614-2.116.686a.042.042 0 0 0-.014.082c.482.214.943-.049 1.417-.191a5.192 5.192 0 0 1 2.3-.121c.069.016.088-.083.036-.121z" class="prefix__cls-11" data-name="Path 9307" transform="translate(-7556.48 -6633.514)"/>
                <path id="prefix__Path_9308" d="M7556.508 6634.161a1.094 1.094 0 0 1-.444-.088.2.2 0 0 1-.112-.2.187.187 0 0 1 .172-.158 3.787 3.787 0 0 0 1.074-.34 4.4 4.4 0 0 1 1.036-.34 2.39 2.39 0 0 1 1.714.346.231.231 0 0 1 .094.241.21.21 0 0 1-.192.154 8.416 8.416 0 0 0-1-.077 4.06 4.06 0 0 0-1.267.191c-.093.028-.184.055-.282.088a2.356 2.356 0 0 1-.793.183zm2.142-.877a2.185 2.185 0 0 0-.367.026 4.059 4.059 0 0 0-.971.335c-.138.05-.282.115-.428.165a3.422 3.422 0 0 0 .33-.1c.1-.038.2-.065.29-.1a4.588 4.588 0 0 1 1.352-.2c.179 0 .356.017.559.033a1.917 1.917 0 0 0-.766-.159z" class="prefix__cls-11" data-name="Path 9308" transform="translate(-7555.95 -6632.993)"/>
            </g>
            <path id="prefix__Path_9309" d="M7519.992 6605.082a9.355 9.355 0 0 1 6.852-.033c2.6 1.2 2.936 4.156 4.34 6.355-.244-.921-.864-3.164-1.394-5.149-.7-2.621-.841-4.715-1.853-5.1s-7.7-.937-11.863-1.372-8.233 1.919-10.1 1.623a2.9 2.9 0 0 0-3.356 1.442c-.573 1.267.409.784.173 2.588a40.005 40.005 0 0 0 .165 8.91l.071.833a11.084 11.084 0 0 0 2.407 1.163c-.071-.323-.146-.647-.21-.965-.766-3.69-1.234-9.678 3.626-10.67a3.514 3.514 0 0 1 3.57 1.151 6.468 6.468 0 0 1 1.22 3.613c.179 1.947.235 4.984 1.714 6.6.68-.428.765-.812.765-.812a24.166 24.166 0 0 1-.889-4.359 11 11 0 0 1 .508-3.531s.647.164 1.253 2.446a30.158 30.158 0 0 0 1.82 5.2 7.708 7.708 0 0 1 1.778-1.639 23.194 23.194 0 0 1-1.211-2.369c-.812-1.862-1.939-4.944.614-5.925z" class="prefix__cls-12" data-name="Path 9309" transform="translate(-7501.992 -6599.587)"/>
            <path id="prefix__Path_9310" d="M7568.13 6639.867a12.341 12.341 0 0 1-1.008-2.819c-.14-.712-.053-1.848-.793-2.253a2.266 2.266 0 0 0-1.45-.231c-.014.006-.019.022-.033.039a1.244 1.244 0 0 1 .038.165c.16.088.7.493 1.215 2.435a30.138 30.138 0 0 0 1.821 5.2 6.587 6.587 0 0 1 1.014-1.047 10.362 10.362 0 0 1-.804-1.489z" class="prefix__cls-13" data-name="Path 9310" transform="translate(-7551.101 -6626.976)"/>
            <path id="prefix__Path_9311" d="M7503.422 6609.528c-.1-1.294-.065-2.769 1.044-3.646 3.39-2.676 8.217-2.8 12.308-2.282 2.684.346 5.373.817 8.033.115 1.014-.273 2.929-.816 3.825-1.831a1.357 1.357 0 0 0-.693-.729c-1.015-.391-7.7-.937-11.863-1.372s-8.233 1.919-10.1 1.623a2.9 2.9 0 0 0-3.356 1.442c-.573 1.267.409.784.173 2.588a40.005 40.005 0 0 0 .165 8.91l.071.833a9.372 9.372 0 0 0 1.228.674c-.055-.142-.107-.3-.153-.444a28.349 28.349 0 0 1-.682-5.881z" class="prefix__cls-13" data-name="Path 9311" transform="translate(-7501.992 -6599.587)"/>
            <g id="prefix__Group_3575" data-name="Group 3575" transform="translate(15.971 10.615)">
                <path id="prefix__Path_9312" d="M7576 6653.645a12.218 12.218 0 0 1 7.077-3.778c4.332-.745 5.612.055 5.949.39s.625 1.393.4 1.59-3.073-1.042-6.4.022a17.447 17.447 0 0 0-6.062 3.2c-.48.38-1.155-1.062-.964-1.424z" class="prefix__cls-10" data-name="Path 9312" transform="translate(-7575.82 -6649.411)"/>
                <path id="prefix__Path_9313" d="M7576.253 6654.734c-.3 0-.54-.329-.659-.531-.224-.374-.4-.916-.257-1.168a12.374 12.374 0 0 1 7.175-3.855 19.658 19.658 0 0 1 3.166-.313c1.886 0 2.632.461 2.91.746a2.435 2.435 0 0 1 .526 1.448.445.445 0 0 1-.123.345.289.289 0 0 1-.187.056 4.213 4.213 0 0 1-.652-.1 13.484 13.484 0 0 0-2.777-.33 9.3 9.3 0 0 0-2.835.434 17.348 17.348 0 0 0-6.023 3.174.392.392 0 0 1-.264.094zm9.425-5.576a18.961 18.961 0 0 0-3.112.313 12.02 12.02 0 0 0-6.972 3.7 1.384 1.384 0 0 0 .244.888c.146.236.311.39.415.39a.124.124 0 0 0 .088-.039 17.593 17.593 0 0 1 6.1-3.219 9.614 9.614 0 0 1 2.929-.449 13.534 13.534 0 0 1 2.837.34 5.6 5.6 0 0 0 .592.1s0-.005.008-.005a2.1 2.1 0 0 0-.43-1.36c-.192-.198-.845-.659-2.699-.659z" class="prefix__cls-11" data-name="Path 9313" transform="translate(-7575.287 -6648.867)"/>
            </g>
            <path id="prefix__Path_9314" d="M7581.351 6655.116a4.4 4.4 0 0 1-2.276.74 1.312 1.312 0 0 1-.891-.537 8.737 8.737 0 0 0-2.188 1.864c-.187.362.488 1.8.968 1.42a17.437 17.437 0 0 1 6.062-3.2c3.325-1.064 6.188.165 6.4-.022.1-.088.091-.34.039-.619a9.835 9.835 0 0 0-8.114.354z" class="prefix__cls-12" data-name="Path 9314" transform="translate(-7559.849 -6642.334)"/>
            <path id="prefix__Path_9315" d="M7581.674 6662.352c-1.088.345-2.52 1.179-3.687.724a1.542 1.542 0 0 1-.713-.62 6.366 6.366 0 0 0-1.278 1.212c-.187.362.488 1.8.968 1.42a17.129 17.129 0 0 1 4.875-2.791c-.053.016-.113.033-.165.055z" class="prefix__cls-12" data-name="Path 9315" transform="translate(-7559.849 -6648.819)"/>
            <g id="prefix__Group_3576" data-name="Group 3576" transform="translate(0 13.521)">
                <path id="prefix__Path_9316" d="M7503.978 6665.1c1.088.412 4.669 1.349 6.958.806a10.088 10.088 0 0 0 3.5-1.463c.56-.346.653.043.888.762s.292 1.267-.9 1.776a15.489 15.489 0 0 1-7.4.921c-3.233-.412-5.424-1.07-5.777-1.75s-.346-2.856.353-2.928l.113.5s.134.587 2.265 1.376z" class="prefix__cls-10" data-name="Path 9316" transform="translate(-7500.878 -6663.071)"/>
                <path id="prefix__Path_9317" d="M7508.306 6667.592a15.161 15.161 0 0 1-1.819-.115c-1.586-.2-5.344-.79-5.893-1.826a4.014 4.014 0 0 1 .008-2.769.6.6 0 0 1 .469-.367l.132-.011.131.631s.2.532 2.168 1.267a17.963 17.963 0 0 0 5.291.965 6.437 6.437 0 0 0 1.583-.176 9.361 9.361 0 0 0 3.292-1.337l.171-.1a.8.8 0 0 1 .416-.153c.361 0 .488.383.645.9l.04.093c.236.746.324 1.4-.983 1.958a15.573 15.573 0 0 1-5.651 1.04zm-7.322-4.732a.427.427 0 0 0-.123.159 3.631 3.631 0 0 0 0 2.495c.255.488 1.873 1.19 5.658 1.678a14.583 14.583 0 0 0 1.787.109 15.475 15.475 0 0 0 5.539-1.02c1.1-.472 1.036-.91.82-1.6l-.042-.1c-.131-.45-.222-.7-.367-.7a.582.582 0 0 0-.266.109l-.171.1a10.077 10.077 0 0 1-3.378 1.381 7.329 7.329 0 0 1-1.647.164 18.187 18.187 0 0 1-5.39-.971c-2.144-.8-2.333-1.408-2.347-1.474z" class="prefix__cls-11" data-name="Path 9317" transform="translate(-7500.351 -6662.503)"/>
            </g>
            <path id="prefix__Path_9318" d="M7503.982 6665.105a.005.005 0 0 1 0-.006c-2.131-.789-2.256-1.371-2.256-1.371l-.113-.5c-.7.071-.718 2.243-.353 2.928.315.609 2.083 1.19 4.748 1.6a3.213 3.213 0 0 1-2.026-2.651z" class="prefix__cls-12" data-name="Path 9318" transform="translate(-7500.878 -6649.55)"/>
            <path id="prefix__Path_9319" d="M7502.64 6664.508c-.844-.472-.918-.779-.918-.779l-.113-.5c-.7.071-.718 2.243-.353 2.928.23.439 1.22.861 2.75 1.218a4.918 4.918 0 0 1-1.366-2.867z" class="prefix__cls-12" data-name="Path 9319" transform="translate(-7500.878 -6649.55)"/>
            <path id="prefix__Path_9320" d="M7556.632 6669.228c-.235-.718-.328-1.107-.888-.762-.22.131-.482.313-.839.5.356 1.174-.315 2.067-1.393 2.7a13.156 13.156 0 0 0 2.224-.664c1.187-.507 1.129-1.045.896-1.774z" class="prefix__cls-12" data-name="Path 9320" transform="translate(-7542.182 -6653.573)"/>
        </g>
        <path id="prefix__Path_9321" d="M7603 6771.856c-.276-1.393-1.867-2.238-2.618-3.34a6.218 6.218 0 0 1-.952-2.264 16.222 16.222 0 0 0-.29-2.227.091.091 0 0 0-.178.039 5.028 5.028 0 0 1 0 1.107c.008.3.041.625.079.933a5.836 5.836 0 0 0 .76 2.248c.778 1.365 2.182 2.193 2.923 3.608a.15.15 0 0 0 .276-.104z" class="prefix__cls-10" data-name="Path 9321" transform="translate(-101.331 -244.261)"/>
        <path id="prefix__Path_9322" d="M7524.033 6804.145a6.118 6.118 0 0 1-2.778 1.08 11.063 11.063 0 0 1-2.769-.176 5.659 5.659 0 0 1-2.275-.871 1.51 1.51 0 0 1-.6-1.47c.027-.449.318-.784.39-1.211a.038.038 0 0 0-.072-.022c-.135.428-.482.729-.6 1.184a1.663 1.663 0 0 0 .065 1.081 3.2 3.2 0 0 0 2.065 1.475c2.163.724 4.985.779 6.748-.822a.155.155 0 0 0-.174-.248z" class="prefix__cls-10" data-name="Path 9322" transform="translate(-35.478 -273.764)"/>
        <path id="prefix__Path_9323" d="M7557.862 6810.716a.116.116 0 0 0-.192-.076.852.852 0 0 0-.25.5.135.135 0 0 0 .17.137.152.152 0 0 0 .131-.175 1.637 1.637 0 0 0 .141-.386z" class="prefix__cls-10" data-name="Path 9323" transform="translate(-68.642 -280.972)"/>
        <g id="prefix__Group_3580" data-name="Group 3580" transform="translate(7476.99 6456.658)">
            <g id="prefix__Group_3579" data-name="Group 3579">
                <g id="prefix__Group_3578" data-name="Group 3578">
                    <path id="prefix__Path_9324" d="M7527.206 6471.765c-.177-1.232-1.16-1.568-2.378-2.114s-2.427-1.232-2.662-.142a47.443 47.443 0 0 1-3.645 8.026c-1.429 2.5-1.961 3.076-3.557-.1a67.549 67.549 0 0 1-3.464-8.3 7.507 7.507 0 0 0-5.3 1.132s-.011 0-.011.006a39.136 39.136 0 0 1-.688 7.756c-1 5.582-1.616 9.2-1.616 9.2a69.376 69.376 0 0 0-1.1 13.149s4.222 3.96 13.245 3.549 12.849-3.137 13.2-5.043-1.624-11.655-1.624-11.655-2.054-5.634-.4-15.464z" class="prefix__cls-10" data-name="Path 9324" transform="translate(-7502.621 -6468.769)"/>
                    <path id="prefix__Path_9325" fill="#abaaa5" d="M7514.227 6503.521c-8.087 0-12-3.562-12.042-3.6a.157.157 0 0 1-.048-.127 69.488 69.488 0 0 1 1.1-13.19c0-.034.632-3.669 1.615-9.2a39.7 39.7 0 0 0 .686-7.716.165.165 0 0 1 .083-.162 6.709 6.709 0 0 1 4.232-1.2c.352 0 .729.014 1.14.041a.159.159 0 0 1 .117.108 69.734 69.734 0 0 0 3.468 8.288c.741 1.468 1.229 2.1 1.65 2.1.479 0 .989-.835 1.664-2.014a47.881 47.881 0 0 0 3.63-7.964.764.764 0 0 1 .792-.707 4.791 4.791 0 0 1 1.712.572l.612.276c1.08.478 2.016.889 2.187 2.114a.076.076 0 0 1 0 .06c-1.624 9.662.378 15.311.4 15.365.089.438 1.973 9.837 1.63 11.756-.406 2.215-4.755 4.781-13.323 5.171-.438.022-.879.029-1.305.029zm-11.815-3.818c.475.4 4.326 3.5 11.815 3.5.42 0 .86-.014 1.292-.034a27.249 27.249 0 0 0 9.8-1.946c1.858-.848 3.076-1.953 3.261-2.962.329-1.852-1.6-11.487-1.624-11.582-.009-.026-2.044-5.75-.412-15.5-.16-1.023-.929-1.366-2-1.838l-.612-.275a4.785 4.785 0 0 0-1.615-.553.483.483 0 0 0-.523.451 46.279 46.279 0 0 1-3.666 8.073c-.749 1.306-1.28 2.154-1.9 2.154-.543 0-1.073-.626-1.893-2.255a67.15 67.15 0 0 1-3.445-8.234c-.377-.021-.715-.04-1.037-.04a6.539 6.539 0 0 0-4.032 1.117 40.005 40.005 0 0 1-.695 7.7c-.983 5.521-1.609 9.157-1.615 9.2a69.488 69.488 0 0 0-1.1 13.021z" data-name="Path 9325" transform="translate(-7502.109 -6468.18)"/>
                </g>
            </g>
            <path id="prefix__Path_9326" fill="#d5d2c7" d="M7527.606 6487.223s-2.055-5.628-.4-15.458c-.177-1.232-1.16-1.568-2.378-2.114s-2.427-1.232-2.662-.142a47.443 47.443 0 0 1-3.645 8.026c-1.429 2.5-1.961 3.076-3.557-.1a67.549 67.549 0 0 1-3.464-8.3 7.507 7.507 0 0 0-5.3 1.132s-.011 0-.011.006a39.136 39.136 0 0 1-.688 7.756c-.269 1.482-.5 2.822-.709 3.986.577-2.639 2.449-10.786 3.611-11.19 2.532-.889 2.347.768 5.151 6.834s3 7.063 6 1.326 2.8-7.494 4.683-7.278-.186 4.188.749 9.924 1.124 5.952-1.87 9.925.187 1.326 1.678-.437 1.4-.026 2.255 4.41c.661 3.414-1.312 7.164-12.735 6.949-8.434-.545-10.784-1.381-10.593-6.753.143-4.127.344-8.322.435-10.039-.18 1-.269 1.542-.269 1.542a69.376 69.376 0 0 0-1.1 13.149s4.222 3.96 13.245 3.549 12.849-3.137 13.2-5.043-1.626-11.66-1.626-11.66z" data-name="Path 9326" transform="translate(-7502.621 -6468.769)" style="mix-blend-mode:multiply;isolation:isolate"/>
        </g>
        <g id="prefix__Group_3581" data-name="Group 3581" transform="translate(7471.117 6489.18)">
            <path id="prefix__Path_9327" d="M7495.6 6634.729c-.244-.883-.021-1.814-.291-2.692a.062.062 0 0 0-.121.016 10.05 10.05 0 0 0 .108 2.5 8.276 8.276 0 0 0 1.1 2.062c.02.044.072.016.072-.022-.129-.679-.683-1.184-.868-1.864z" class="prefix__cls-2" data-name="Path 9327" transform="translate(-7490.772 -6629.602)"/>
            <path id="prefix__Path_9328" d="M7479.341 6638.755c-.582-.422-.456-1.058-.724-1.639a14.325 14.325 0 0 0-1.064-1.562 3.564 3.564 0 0 1-.2-1.733 6.59 6.59 0 0 0-.159-1.409.043.043 0 0 0-.085.006c0 1.168-.4 2.473.238 3.509.2.33.48.609.7.921a3.092 3.092 0 0 1 .456 1.289c-.37-.307-.792-.543-1.148-.872a3.135 3.135 0 0 1-1.048-1.722 9.862 9.862 0 0 1-.172-1.936 3.012 3.012 0 0 0-.174-1.267c-.033-.065-.15-.021-.123.05.362 1.168-.2 2.522.264 3.7a3.941 3.941 0 0 0 .764 1.2 2.915 2.915 0 0 1-1.186-.642 3.144 3.144 0 0 1-.752-2.013 7.872 7.872 0 0 0-.277-2.7.053.053 0 0 0-.1.038c.263 1.3-.225 2.665.276 3.937a2.356 2.356 0 0 0 2.13 1.694.123.123 0 0 0 .124-.1 3.9 3.9 0 0 0 1.411.845.072.072 0 0 0 .066-.005.783.783 0 0 0 .731.553.08.08 0 0 0 .052-.142z" class="prefix__cls-2" data-name="Path 9328" transform="translate(-7474.553 -6629.538)"/>
            <path id="prefix__Path_9329" d="M7481.666 6642.574a2.5 2.5 0 0 0-.712-1.563 5.679 5.679 0 0 1-.45-2.149 4.371 4.371 0 0 0-.08.817 5.767 5.767 0 0 0 .478 1.716c.123.39.362 1.3-.1 1.58-.315.186-.663-.4-.8-.587a11.331 11.331 0 0 0-.929-.954.676.676 0 0 1-.085.608c-.384.548-1.028-.3-1.378-.872a1.962 1.962 0 0 1-.094.323.506.506 0 0 1-.605.33 1.275 1.275 0 0 1-.653-.746 1.106 1.106 0 0 1 .006.137 7.971 7.971 0 0 0 .642 1.206 2.35 2.35 0 0 0 1.521.411 7.454 7.454 0 0 0 1.7 1s.311.521.694.455.921-.886.845-1.712z" class="prefix__cls-5" data-name="Path 9329" transform="translate(-7475.893 -6635.006)"/>
            <path id="prefix__Path_9330" d="M7498.625 6624.232c-.937-1.853-.646-2.55-1.3-3.322-.046-.05-.08-.094-.121-.138a.08.08 0 0 1 0 .055 3.634 3.634 0 0 1 .37 1.448 4.162 4.162 0 0 1-.041 1.53c-.258.674-.713.422-1.034.027-.013.158-.041.313-.068.472a16.214 16.214 0 0 1 1.5 2.045c.475 1.014 1.637-.257.694-2.117z" class="prefix__cls-5" data-name="Path 9330" transform="translate(-7491.765 -6620.772)"/>
        </g>
    </g>
</svg>
