<svg xmlns="http://www.w3.org/2000/svg" width="37.781" height="85.165" viewBox="0 0 37.781 85.165">
    <defs>
        <style>
            .prefix__cls-1{fill:#fff}.prefix__cls-2{fill:#b8b7b5}.prefix__cls-3{fill:#8c5029}.prefix__cls-5{fill:#4d1907}.prefix__cls-11,.prefix__cls-21,.prefix__cls-6,.prefix__cls-8{mix-blend-mode:multiply;isolation:isolate}.prefix__cls-7,.prefix__cls-8{fill:#d9d7cf}.prefix__cls-9{fill:#fbc397}.prefix__cls-10{fill:#a53e2c}.prefix__cls-11{fill:#e7b799;opacity:.7}.prefix__cls-12{fill:#3c5a6d}.prefix__cls-13{fill:#2e4c5b}.prefix__cls-21{opacity:.5}.prefix__cls-15{fill:#1c3850}.prefix__cls-16{fill:#0f2433}.prefix__cls-19{fill:#ce3527}.prefix__cls-20{fill:#811719}.prefix__cls-22{fill:#2d6283;fill-rule:evenodd}.prefix__cls-23{fill:#644e57}
        </style>
    </defs>
    <g id="prefix__Group_3565" data-name="Group 3565" transform="translate(-6713.714 -6445.433)">
        <g id="prefix__Group_3526" data-name="Group 3526" transform="translate(6714.195 6514.323)">
            <g id="prefix__Group_3520" data-name="Group 3520" transform="translate(0 5.717)">
                <path id="prefix__Path_9186" d="M6723.034 6799.67c-4.419.383-5.906-.615-6.4-1.284a1.839 1.839 0 0 0 .746 1.953c.825.4 10.6 2.419 19.27-3a8.34 8.34 0 0 0 .065-1.565c-3.015 2.254-7.803 3.389-13.681 3.896z" class="prefix__cls-1" data-name="Path 9186" transform="translate(-6716.476 -6795.63)"/>
                <path id="prefix__Path_9187" d="M6722.6 6800.66a18.97 18.97 0 0 1-5.793-.717 1.963 1.963 0 0 1-.818-2.084.138.138 0 0 1 .1-.12.135.135 0 0 1 .148.047c.372.49 1.434 1.314 4.464 1.314.561 0 1.17-.03 1.808-.09 6.417-.55 10.871-1.815 13.607-3.865a.149.149 0 0 1 .155-.018.162.162 0 0 1 .079.12 9.567 9.567 0 0 1-.072 1.588.126.126 0 0 1-.065.1 25.805 25.805 0 0 1-13.613 3.725zm-6.354-2.443a1.529 1.529 0 0 0 .686 1.481 19.338 19.338 0 0 0 5.668.681 25.516 25.516 0 0 0 13.41-3.644 7.266 7.266 0 0 0 .06-1.207c-2.8 1.989-7.227 3.219-13.529 3.757a18.285 18.285 0 0 1-1.838.089c-2.603.001-3.857-.574-4.46-1.157z" class="prefix__cls-2" data-name="Path 9187" transform="translate(-6715.967 -6795.115)"/>
            </g>
            <g id="prefix__Group_3523" data-name="Group 3523" transform="translate(.019)">
                <g id="prefix__Group_3521" data-name="Group 3521" transform="translate(5.181)">
                    <path id="prefix__Path_9188" d="M6754.572 6768.98c-1.5 2.06-3.242 4.712-9.766 3.367a7.644 7.644 0 0 1-3.84 1.936 10.5 10.5 0 0 1 1.858 4.253c5.579-.531 10.137-1.666 13.045-3.84-.06-2.342-.663-5.596-1.297-5.716z" class="prefix__cls-3" data-name="Path 9188" transform="translate(-6740.833 -6768.839)"/>
                    <path id="prefix__Path_9189" fill="#603813" d="M6742.332 6778.154a.137.137 0 0 1-.137-.114 10.436 10.436 0 0 0-1.828-4.192.129.129 0 0 1-.011-.138.118.118 0 0 1 .107-.089 7.463 7.463 0 0 0 3.751-1.9.124.124 0 0 1 .125-.03 16.487 16.487 0 0 0 3.185.359c3.773 0 5.13-1.871 6.337-3.519l.107-.149a.126.126 0 0 1 .143-.06c.83.167 1.351 3.9 1.411 5.847a.158.158 0 0 1-.06.12c-2.7 2.019-6.989 3.279-13.122 3.864zm-1.606-4.295a10.7 10.7 0 0 1 1.714 4c5.967-.573 10.154-1.81 12.8-3.752-.077-2.5-.681-5.13-1.11-5.477l-.037.06c-1.182 1.619-2.651 3.632-6.569 3.632a16.141 16.141 0 0 1-3.167-.353 7.74 7.74 0 0 1-3.632 1.89z" data-name="Path 9189" transform="translate(-6740.34 -6768.319)"/>
                </g>
                <g id="prefix__Group_3522" data-name="Group 3522" transform="translate(0 5.301)">
                    <path id="prefix__Path_9190" d="M6721.519 6793.873c-2.372.162-3.513-.292-4.354 1.427a4.74 4.74 0 0 0-.466 1.565c.5.669 1.982 1.667 6.4 1.284.216-.018.414-.042.633-.06a10.494 10.494 0 0 0-1.857-4.253c-.117.019-.231.026-.356.037z" class="prefix__cls-1" data-name="Path 9190" transform="translate(-6716.561 -6793.693)"/>
                    <path id="prefix__Path_9191" d="M6720.769 6797.841c-2.993 0-4.207-.776-4.684-1.421a.136.136 0 0 1-.03-.1 4.841 4.841 0 0 1 .484-1.619c.686-1.421 1.6-1.433 3.1-1.451.406-.005.853-.012 1.367-.054.115 0 .227-.024.354-.036a.125.125 0 0 1 .125.054 10.614 10.614 0 0 1 1.87 4.312.121.121 0 0 1-.019.113.152.152 0 0 1-.1.054l-.2.019c-.143.018-.28.03-.424.035a18.278 18.278 0 0 1-1.843.094zm-4.434-1.546c.4.5 1.488 1.272 4.434 1.272.561 0 1.17-.029 1.809-.089l.424-.036.054-.006a10.525 10.525 0 0 0-1.738-3.984l-.3.036c-.507.03-.968.036-1.367.042-1.5.017-2.247.03-2.862 1.3a4.746 4.746 0 0 0-.454 1.464z" class="prefix__cls-2" data-name="Path 9191" transform="translate(-6716.055 -6793.164)"/>
                </g>
            </g>
            <g id="prefix__Group_3524" data-name="Group 3524" transform="translate(5.334 .141)">
                <path id="prefix__Path_9192" d="M6754.572 6768.98c-1.5 2.06-3.242 4.712-9.766 3.367a7.8 7.8 0 0 1-.741.6 10.228 10.228 0 0 0 6.464.705c1.811-.556 2.651-.646 3.028.143s-.292 2.037-5.489 3.2-4.551.657-4.873-.549a8.251 8.251 0 0 0-1.147-2.432 5.569 5.569 0 0 1-1.082.269 10.5 10.5 0 0 1 1.858 4.253c5.579-.531 10.137-1.666 13.045-3.84-.06-2.342-.663-5.596-1.297-5.716z" class="prefix__cls-5" data-name="Path 9192" transform="translate(-6740.966 -6768.98)"/>
            </g>
            <g id="prefix__Group_3525" class="prefix__cls-6" data-name="Group 3525" transform="translate(.142 5.857)">
                <path id="prefix__Path_9193" d="M6736.726 6795.77c-3.015 2.258-7.8 3.393-13.678 3.9-4.42.383-5.906-.615-6.4-1.284a3.214 3.214 0 0 0 .042.914c1.277.478 4.856 1.475 10.5.454 1.254-.245 1.823.119 2.055.6a23.9 23.9 0 0 0 7.419-3.023 8.34 8.34 0 0 0 .062-1.561z" class="prefix__cls-7" data-name="Path 9193" transform="translate(-6716.63 -6795.77)"/>
            </g>
        </g>
        <g id="prefix__Group_3531" data-name="Group 3531" transform="translate(6729.474 6521.399)">
            <g id="prefix__Group_3527" data-name="Group 3527" transform="translate(0 5.025)">
                <path id="prefix__Path_9194" d="M6793.8 6828.13c-5.524.3-5.459-1.846-5.333-2.431a4.71 4.71 0 0 0-.246 1.493c0 1.194.915 2.4 6.387 2.4 4.641-.263 7.228-1.385 7.357-2.867.013-.192.03-.376.05-.562-1.106 1.161-3.115 1.698-8.215 1.967z" class="prefix__cls-1" data-name="Path 9194" transform="translate(-6788.085 -6825.557)"/>
                <path id="prefix__Path_9195" d="M6794.1 6829.206c-5.783 0-6.523-1.355-6.523-2.539a4.825 4.825 0 0 1 .251-1.541.155.155 0 0 1 .173-.09.144.144 0 0 1 .1.162 1.427 1.427 0 0 0 .292 1.2c.676.83 2.372 1.2 4.893 1.068 4.886-.263 7.013-.765 8.118-1.923a.145.145 0 0 1 .167-.03.13.13 0 0 1 .072.137c-.012.185-.03.37-.049.555-.143 1.648-2.866 2.742-7.477 3zm-6.207-3.13a3.943 3.943 0 0 0-.035.591c0 1.045.7 2.258 6.242 2.258 6.51-.364 7.173-2.186 7.22-2.736 0-.066.007-.131.012-.2-1.219 1.038-3.422 1.5-8.028 1.75-2.646.144-4.377-.25-5.13-1.17a1.669 1.669 0 0 1-.274-.493z" class="prefix__cls-2" data-name="Path 9195" transform="translate(-6787.58 -6825.032)"/>
            </g>
            <path id="prefix__Path_9196" d="M6789.812 6828.667a1.613 1.613 0 0 1 .568-.77c-2.05-.543-2-1.773-1.911-2.2a4.71 4.71 0 0 0-.246 1.493c0 .669.287 1.344 1.494 1.8a1.972 1.972 0 0 1 .095-.323z" class="prefix__cls-8" data-name="Path 9196" transform="translate(-6788.085 -6820.532)"/>
            <path id="prefix__Path_9197" d="M6835.422 6829.421a.969.969 0 0 1 .246.455 3.247 3.247 0 0 1 .053.89c2.114-.52 3.285-1.338 3.375-2.323.012-.192.029-.376.049-.562-.694.733-1.751 1.212-3.723 1.54z" class="prefix__cls-8" data-name="Path 9197" transform="translate(-6825.214 -6822.248)"/>
            <g id="prefix__Group_3530" data-name="Group 3530" transform="translate(.212)">
                <g id="prefix__Group_3528" data-name="Group 3528" transform="translate(0 2.29)">
                    <path id="prefix__Path_9198" d="M6794.32 6812.89a8.668 8.668 0 0 0-4.349 1.393 4.823 4.823 0 0 0-.722 1.338c-.127.584-.191 2.729 5.333 2.43 4.2-.221 6.313-.627 7.538-1.415-1.068-2.63-4.789-3.829-7.8-3.746z" class="prefix__cls-1" data-name="Path 9198" transform="translate(-6789.078 -6812.743)"/>
                    <path id="prefix__Path_9199" d="M6793.1 6817.69c-2.091 0-3.488-.4-4.14-1.2a1.653 1.653 0 0 1-.346-1.422 4.548 4.548 0 0 1 .746-1.4c.007-.013.024-.03.037-.03a8.887 8.887 0 0 1 4.419-1.421c2.98-.079 6.815 1.122 7.926 3.834a.138.138 0 0 1-.053.174c-1.274.812-3.4 1.218-7.6 1.432-.346.029-.689.033-.989.033zm-3.531-3.828a4.54 4.54 0 0 0-.686 1.278 1.418 1.418 0 0 0 .3 1.177c.585.711 1.935 1.1 3.919 1.1.305 0 .639-.018.974-.029 4.038-.215 6.127-.592 7.364-1.332-1.1-2.516-4.761-3.626-7.616-3.554a8.613 8.613 0 0 0-4.257 1.36z" class="prefix__cls-2" data-name="Path 9199" transform="translate(-6788.573 -6812.217)"/>
                </g>
                <g id="prefix__Group_3529" data-name="Group 3529" transform="translate(.757)">
                    <path id="prefix__Path_9200" d="M6805.978 6802.416c-1.6.807-6.678 1.922-9.856-.263a8.407 8.407 0 0 1-2.319 2.682 4.817 4.817 0 0 0-1.045 1 8.671 8.671 0 0 1 4.349-1.392c3.01-.083 6.731 1.116 7.8 3.745a3.3 3.3 0 0 0 .676-.55 12.41 12.41 0 0 1 .524-2.938 2.756 2.756 0 0 0-.129-2.284z" class="prefix__cls-3" data-name="Path 9200" transform="translate(-6792.622 -6802.01)"/>
                    <path id="prefix__Path_9201" d="M6804.408 6807.813c-.012 0-.035-.012-.042-.012a.177.177 0 0 1-.095-.084c-1.045-2.592-4.761-3.727-7.659-3.661a8.625 8.625 0 0 0-4.277 1.373.135.135 0 0 1-.178-.023.143.143 0 0 1-.007-.179 5.778 5.778 0 0 1 1.065-1.034 8.581 8.581 0 0 0 2.287-2.634.131.131 0 0 1 .083-.071.116.116 0 0 1 .114.024 8.262 8.262 0 0 0 4.694 1.254 12.617 12.617 0 0 0 5.024-1 .113.113 0 0 1 .107-.005c.036.005.06.035.083.078a2.92 2.92 0 0 1 .132 2.4 12.411 12.411 0 0 0-.519 2.892.091.091 0 0 1-.037.083 3.537 3.537 0 0 1-.7.573.118.118 0 0 1-.075.026zm-7.527-4.038c2.873 0 6.434 1.153 7.592 3.686a3.5 3.5 0 0 0 .483-.407 11.934 11.934 0 0 1 .521-2.933 2.482 2.482 0 0 0-.079-2.043 13.3 13.3 0 0 1-5 .962 4.013 4.013 0 0 0-7.012 1.38 3.858 3.858 0 0 0-.394.323 8.473 8.473 0 0 1 3.619-.968z" class="prefix__cls-3" data-name="Path 9201" transform="translate(-6792.122 -6801.482)"/>
                </g>
                <path id="prefix__Path_9202" d="M6815.273 6802.416c-1.6.807-6.678 1.922-9.855-.263a7.623 7.623 0 0 1-.843 1.248 1.754 1.754 0 0 1 .6.113 21.475 21.475 0 0 0 4.743.759 12.4 12.4 0 0 0 2.933-.179c.43-.048 1.212-.161 1.517.269a1.5 1.5 0 0 1-.215 1.649c-.466.542-1.1-.025-1.529-.306a3.886 3.886 0 0 0-1.87-.508 5.827 5.827 0 0 1 3.446 2.993 3.3 3.3 0 0 0 .676-.55 12.41 12.41 0 0 1 .524-2.938 2.756 2.756 0 0 0-.127-2.287z" class="prefix__cls-5" data-name="Path 9202" transform="translate(-6801.16 -6802.01)"/>
            </g>
        </g>
        <g id="prefix__Group_3532" data-name="Group 3532" transform="translate(6713.714 6482.1)">
            <path id="prefix__Path_9203" d="M6716.1 6617.975a21.974 21.974 0 0 0-1.5 2.676 4.864 4.864 0 0 0 .646 4.348c.776 1.673 1.225 1.953 1.624 1.989.414.042 1.422-7.8 1.422-7.8z" class="prefix__cls-9" data-name="Path 9203" transform="translate(-6714.22 -6617.829)"/>
            <path id="prefix__Path_9204" d="M6716.376 6626.592h-.013c-.489-.054-.973-.418-1.732-2.049a5.048 5.048 0 0 1-.661-4.492 22.512 22.512 0 0 1 1.517-2.705.136.136 0 0 1 .185-.036l2.191 1.218a.132.132 0 0 1 .072.139c-1.022 7.889-1.41 7.925-1.559 7.925zm-.735-8.972a21.04 21.04 0 0 0-1.409 2.545 4.756 4.756 0 0 0 .616 4.2.25.25 0 0 1 .029.036c.711 1.548 1.128 1.846 1.457 1.905a57.469 57.469 0 0 0 1.314-7.58z" class="prefix__cls-10" data-name="Path 9204" transform="translate(-6713.714 -6617.289)"/>
        </g>
        <path id="prefix__Path_9205" d="M6716.116 6617.975s-.382.578-.788 1.289a1.122 1.122 0 0 1 1-.078c1.045.407.855 1.895.359 2.665a1.75 1.75 0 0 1-2.312.382 4.34 4.34 0 0 0 .89 2.766c.776 1.673 1.225 1.953 1.624 1.989.414.042 1.422-7.8 1.422-7.8z" class="prefix__cls-11" data-name="Path 9205" transform="translate(-.518 -135.729)"/>
        <g id="prefix__Group_3536" data-name="Group 3536" transform="translate(6714.822 6481.248)">
            <g id="prefix__Group_3533" data-name="Group 3533" transform="translate(18.655 38.263)">
                <path id="prefix__Path_9206" d="M6811.833 6795.393c-2.623-.048-3.853-.95-4.211-1.762 0 0-.592-.311-.634.693s.167 1.51.543 1.755 4.392 1.72 7.4.669c2.562-1.165 2.933-1.248 2.891-2.09s-.329-1.708-1-1.213c-.479 1.637-2.36 1.99-4.989 1.948z" class="prefix__cls-12" data-name="Path 9206" transform="translate(-6806.846 -6793.159)"/>
                <path id="prefix__Path_9207" d="M6811.982 6796.737a12.816 12.816 0 0 1-5.035-1.062c-.454-.306-.644-.9-.6-1.882.03-.759.376-.872.574-.872a.63.63 0 0 1 .264.06.157.157 0 0 1 .06.072c.167.382.948 1.619 4.085 1.672h.4c2.749 0 4.075-.55 4.457-1.839a.146.146 0 0 1 .047-.072.754.754 0 0 1 .448-.18c.651 0 .758 1.141.783 1.494.04.854-.317 1.015-2.307 1.923l-.668.305a7.6 7.6 0 0 1-2.508.381zm-5.065-3.536c-.22 0-.287.328-.3.6-.035.873.12 1.392.479 1.637a12.589 12.589 0 0 0 4.886 1.021 7.244 7.244 0 0 0 2.4-.371l.658-.287c1.988-.914 2.172-1.015 2.137-1.661-.035-.728-.244-1.23-.5-1.23a.459.459 0 0 0-.245.1c-.543 1.757-2.688 2-4.708 2-.129 0-.262 0-.4-.006-3.173-.047-4.085-1.319-4.313-1.792a.4.4 0 0 0-.094-.012z" class="prefix__cls-13" data-name="Path 9207" transform="translate(-6806.338 -6792.633)"/>
            </g>
            <path id="prefix__Path_9208" fill="#3c5a6d" d="M6817.823 6794.658c-.035-.836-.329-1.708-1-1.213-.483 1.637-2.364 1.989-4.993 1.947s-3.853-.95-4.212-1.762c0 0-.591-.311-.633.693-.005.083-.005.167-.005.244a5.584 5.584 0 0 1 2.217.812 4.744 4.744 0 0 0 2.15.454 9.378 9.378 0 0 1 2-.089c.693.161.723.692.628 1.255a5.567 5.567 0 0 0 .956-.252c2.563-1.164 2.934-1.247 2.892-2.089z" data-name="Path 9208" transform="translate(-6788.19 -6754.896)" style="isolation:isolate;mix-blend-mode:multiply" opacity="0.5"/>
            <g id="prefix__Group_3534" data-name="Group 3534">
                <path id="prefix__Path_9209" d="M6748.072 6638.264c-.626-.991-.065-1.177.55-1.8s0-1.117-.86-1.547c-.878-.435.364-3.53 1.1-6.259a55.02 55.02 0 0 0 1.309-7.269c-3.693-1.69-5.848-5.448-6.631-7.043-7.46-.639-18.206-.62-21.348 1.667a54.736 54.736 0 0 0-2.514 11.248c-.461 4.277.19 4.456 1.517 7.024s4.5 10.239 6.295 14.264c0 0 .526 1.284 3.86 1.04a7.391 7.391 0 0 0 6.432-3.667 14.414 14.414 0 0 0-.873-3.2c-1.235-3.094-4.641-10.034-5.7-10.59.244-1.487 0-1.923-.628-2.168 1.8-5.322 2.611-8.3 3.352-8.362s1.11 6.94 1.671 10.781 1.369 8.237 1.8 10.6c.209 1.111.354 1.977.449 2.831a24.1 24.1 0 0 1 .172 3.064 37.891 37.891 0 0 0 .8 3.7c.359.812 1.589 1.715 4.212 1.762s4.509-.311 4.993-1.948c.336-5.187 1.333-12.02.042-14.128z" class="prefix__cls-15" data-name="Path 9209" transform="translate(-6719.401 -6613.839)"/>
                <path id="prefix__Path_9210" d="M6742.946 6653.938c-.129 0-.262 0-.4-.006-3.31-.06-4.158-1.421-4.337-1.846a33.887 33.887 0 0 1-.818-3.727 26.414 26.414 0 0 0-.12-2.712 7.5 7.5 0 0 1-6.4 3.542c-.28.018-.554.03-.811.03-2.683 0-3.167-1.111-3.185-1.159-.638-1.422-1.433-3.285-2.281-5.25-1.553-3.614-3.153-7.359-4.021-9.008-.2-.411-.4-.764-.579-1.081-.913-1.642-1.332-2.389-.943-6.014a55.32 55.32 0 0 1 2.526-11.283.121.121 0 0 1 .047-.066c2.449-1.78 9.21-2.061 13.033-2.061 2.736 0 5.639.137 8.4.371a.128.128 0 0 1 .114.077c.759 1.535 2.9 5.292 6.57 6.983a.152.152 0 0 1 .084.137 57.61 57.61 0 0 1-1.314 7.293c-.167.621-.364 1.259-.556 1.887-.584 1.93-1.195 3.925-.626 4.206.758.382 1.122.711 1.183 1.081a.758.758 0 0 1-.28.687c-.109.107-.216.208-.312.286-.466.425-.681.616-.227 1.338 1.04 1.7.646 6.261.262 10.668-.1 1.194-.2 2.419-.275 3.548-.534 1.829-2.691 2.079-4.734 2.079zm-9.508-33.025c.591 0 .837 1.917 1.326 6.625.155 1.5.316 3.064.489 4.27.581 3.979 1.429 8.62 1.8 10.6.2 1.129.364 2.007.461 2.843a25.466 25.466 0 0 1 .16 3.082 35.281 35.281 0 0 0 .8 3.65c.157.382.938 1.619 4.075 1.672h.4c2.749 0 4.075-.55 4.457-1.84.065-1.1.172-2.329.274-3.519.376-4.372.766-8.893-.227-10.494-.574-.925-.2-1.267.281-1.7a3.989 3.989 0 0 0 .292-.275.541.541 0 0 0 .209-.454c-.042-.263-.377-.543-1.033-.872-.778-.395-.216-2.222.484-4.54.19-.621.387-1.26.561-1.882a58.158 58.158 0 0 0 1.284-7.138c-3.638-1.726-5.783-5.417-6.576-7.006-2.724-.232-5.6-.352-8.3-.352-6.494 0-11.045.693-12.831 1.977a54.82 54.82 0 0 0-2.5 11.176c-.389 3.542-.005 4.216.908 5.847.179.317.371.669.586 1.094.866 1.66 2.472 5.405 4.025 9.019.843 1.972 1.649 3.829 2.277 5.256.013.006.459.991 2.933.991.25 0 .519-.017.788-.035a7.205 7.205 0 0 0 6.295-3.566 13.713 13.713 0 0 0-.854-3.112c-1.291-3.231-4.641-10-5.633-10.519a.132.132 0 0 1-.072-.149c.257-1.565-.071-1.828-.537-2.013a.132.132 0 0 1-.072-.173c.341-1.04.651-1.989.932-2.837 1.26-3.83 1.833-5.567 2.532-5.627zm-2.569 10.609c1.225.9 4.594 7.884 5.675 10.608.13.3.245.627.347.944-.037-.2-.072-.406-.115-.621-.369-1.984-1.224-6.619-1.8-10.6-.18-1.225-.334-2.784-.5-4.295-.274-2.628-.638-6.218-1.033-6.373-.5.048-1.207 2.192-2.274 5.436-.276.824-.568 1.732-.908 2.717.662.32.817.893.608 2.184z" class="prefix__cls-16" data-name="Path 9210" transform="translate(-6718.904 -6613.298)"/>
            </g>
            <g id="prefix__Group_3535" data-name="Group 3535" transform="translate(.282 .147)" style="isolation:isolate;mix-blend-mode:multiply" opacity="0.4">
                <path id="prefix__Path_9211" d="M6744.089 6614.347c-7.46-.639-18.206-.62-21.348 1.667a54.716 54.716 0 0 0-2.515 11.248s2.2-6.5 3.22-5.3 2.6.281 3.063-1.2 1.3-1.213 2.98-.466 7.157.741 10.22-.932c.651 3.338.741 4.271 1.947 3.154s3.447-4.36 4.744-3.339 1.893 2.383 1.768 6.1c.99-3.722 2.107-3.6 2.107-1.118 0 .09.007.174.012.257.167-.968.312-2 .431-3.034-3.691-1.684-5.846-5.442-6.629-7.037z" class="prefix__cls-15" data-name="Path 9211" transform="translate(-6720.227 -6613.986)"/>
                <path id="prefix__Path_9212" d="M6749.855 6677.8c-1.668-.46-2.134-5.572-2.324-8.267s-1.576-7.621.656-7.065 3.968.1.461-.651c-2.832-.609-3.536-5.669-3.722-8.924s-.46-6.225.465-7.149c-1.392.645-3.618.549-6.312.836 2.228.74.467 2.969-.657 6.4-1.393 4.32-5.847 4.66-7.9 4.468 4.833 2.229 7.993-2.138 7.432-1.116s-2.318 2.043.28 1.4 5.853 8.541 5.668 10.226c-.18 1.667 1.953 1.3 1.021 3.059-3.028 2.963-7.161 2.306-9.122 1.762.12.258.228.521.335.753 0 0 .526 1.284 3.86 1.039a7.387 7.387 0 0 0 6.432-3.667 14.392 14.392 0 0 0-.873-3.2c-1.234-3.094-4.641-10.034-5.7-10.59.244-1.487 0-1.923-.628-2.169 1.8-5.321 2.611-8.3 3.352-8.361s1.11 6.94 1.671 10.781 1.369 8.236 1.8 10.6c.209 1.111.354 1.978.448 2.832a24.1 24.1 0 0 1 .172 3.063c.491 2.694.8 3.7.8 3.7.359.812 1.589 1.714 4.212 1.762s4.51-.311 4.993-1.947c.013-.209.018-.412.035-.622-2.041 1.887-5.333 1.474-6.855 1.047z" class="prefix__cls-15" data-name="Path 9212" transform="translate(-6728.328 -6638.97)"/>
            </g>
        </g>
        <g id="prefix__Group_3540" data-name="Group 3540" transform="translate(6720.228 6446.604)">
            <g id="prefix__Group_3537" data-name="Group 3537" transform="translate(7.827)">
                <path id="prefix__Path_9213" d="M6786.4 6457.016c-.012-.455.334-.986 1.11-1.822a3.224 3.224 0 0 0 .359-3.6 10.94 10.94 0 0 1-5.215.042c.047.532.114 1.308.167 2.438-.329.346-.788.872-1.23 1.428.479 1.429 1.895 4.387 4.809 1.514z" class="prefix__cls-9" data-name="Path 9213" transform="translate(-6781.451 -6451.453)"/>
                <path id="prefix__Path_9214" d="M6783.614 6457.833c-1.506 0-2.324-1.768-2.681-2.819a.164.164 0 0 1 .029-.137c.442-.544.878-1.045 1.188-1.386-.042-.956-.095-1.75-.16-2.371a.166.166 0 0 1 .047-.12.151.151 0 0 1 .13-.03 10.809 10.809 0 0 0 5.149-.048.167.167 0 0 1 .162.078 3.375 3.375 0 0 1-.384 3.751c-.775.836-1.092 1.337-1.075 1.733a.13.13 0 0 1-.047.095 3.552 3.552 0 0 1-2.358 1.254zm-2.39-2.831c.34.985 1.093 2.55 2.39 2.55a3.273 3.273 0 0 0 2.127-1.124c.01-.471.339-1 1.145-1.863a3.043 3.043 0 0 0 .384-3.339 11.249 11.249 0 0 1-4.983.06c.06.6.1 1.362.145 2.252a.132.132 0 0 1-.037.1c-.305.33-.729.814-1.171 1.362z" class="prefix__cls-10" data-name="Path 9214" transform="translate(-6780.928 -6450.921)"/>
            </g>
            <path id="prefix__Path_9215" fill="#f3d7c7" d="M6786.4 6457.016c-.012-.455.334-.986 1.11-1.822a3.224 3.224 0 0 0 .359-3.6 10.94 10.94 0 0 1-5.215.042c.047.532.114 1.308.167 2.438-.329.346-.788.872-1.23 1.428.479 1.429 1.895 4.387 4.809 1.514z" data-name="Path 9215" transform="translate(-6773.624 -6451.453)" style="isolation:isolate;mix-blend-mode:multiply"/>
            <path id="prefix__Path_9216" d="M6786.615 6454.214a8.637 8.637 0 0 0 5.019-.263c.159-.047.326-.107.494-.167a3.734 3.734 0 0 0-.34-2.186 10.94 10.94 0 0 1-5.215.042c.047.532.114 1.308.168 2.438a1.338 1.338 0 0 0-.126.136z" class="prefix__cls-11" data-name="Path 9216" transform="translate(-6777.542 -6451.453)"/>
            <g id="prefix__Group_3538" data-name="Group 3538" transform="translate(6.911 3.906)">
                <path id="prefix__Path_9217" d="M6779.7 6474.506a3.655 3.655 0 0 0 4.1-1.774 2.577 2.577 0 0 0-.359-.489 1.277 1.277 0 0 1-.411-.824c-2.916 2.873-4.332-.084-4.809-1.512-.329.4-.658.806-.915 1.171a3.631 3.631 0 0 0 2.394 3.428z" class="prefix__cls-1" data-name="Path 9217" transform="translate(-6777.163 -6469.763)"/>
                <path id="prefix__Path_9218" d="M6780.114 6474.242a3.423 3.423 0 0 1-.975-.132 3.772 3.772 0 0 1-2.5-3.561.182.182 0 0 1 .03-.09c.25-.34.567-.752.92-1.182a.133.133 0 0 1 .232.047c.334.986 1.087 2.629 2.419 2.629a3.316 3.316 0 0 0 2.162-1.165.146.146 0 0 1 .149-.036.14.14 0 0 1 .1.133 1.136 1.136 0 0 0 .371.728 3.471 3.471 0 0 1 .382.515.136.136 0 0 1-.005.143 3.948 3.948 0 0 1-3.285 1.971zm-3.2-3.656a3.485 3.485 0 0 0 2.307 3.256 2.985 2.985 0 0 0 .89.125 3.658 3.658 0 0 0 3-1.773 2.632 2.632 0 0 0-.3-.383 1.85 1.85 0 0 1-.407-.645 3.331 3.331 0 0 1-2.167 1.068c-1.4 0-2.2-1.522-2.6-2.586-.259.34-.511.664-.72.938z" class="prefix__cls-2" data-name="Path 9218" transform="translate(-6776.637 -6469.229)"/>
            </g>
            <path id="prefix__Path_9219" d="M6783.44 6472.243a1.277 1.277 0 0 1-.411-.824c-2.916 2.873-4.332-.084-4.809-1.512-.329.4-.658.806-.915 1.171a4.41 4.41 0 0 0 .149.985 1.418 1.418 0 0 1 .209-.269c.042-.042.137-.119.185-.042a2.519 2.519 0 0 0 2.013 1.4 6.134 6.134 0 0 0 2.289-.6c.065-.023.1-.012.125.048a1.847 1.847 0 0 1-.377 1.785 4.094 4.094 0 0 0 1.9-1.654 2.577 2.577 0 0 0-.358-.488z" class="prefix__cls-8" data-name="Path 9219" transform="translate(-6770.251 -6465.856)"/>
            <g id="prefix__Group_3539" data-name="Group 3539" transform="translate(0 5.083)">
                <path id="prefix__Path_9220" d="M6761.253 6497.578a56.912 56.912 0 0 1-2.02-14.885c.035-2.992-.4-4.719-.943-5.645a3.42 3.42 0 0 1-6.494-1.654 7.975 7.975 0 0 0-.556.836.863.863 0 0 1-.878.561c-2.651 3.763-3.11 7.156-3.631 10.639s-1.457 9.879-1.761 12.866a35.094 35.094 0 0 0 .208 6.738c2.8 3.01 8.375 6.128 14.671 1.785a32.751 32.751 0 0 1 .591-5.477c.502-1.923 1.619-3.034.813-5.764z" class="prefix__cls-1" data-name="Path 9220" transform="translate(-6744.743 -6475.256)"/>
                <path id="prefix__Path_9221" d="M6753.006 6510.59a11.99 11.99 0 0 1-8.435-3.978.152.152 0 0 1-.029-.077 34.823 34.823 0 0 1-.2-6.762c.269-2.777 1.1-8.362 1.636-12.065l.149-.968c.509-3.5.992-6.8 3.621-10.537a.118.118 0 0 1 .137-.054.764.764 0 0 0 .733-.49 6.954 6.954 0 0 1 .568-.86.131.131 0 0 1 .149-.047.136.136 0 0 1 .1.126 3.5 3.5 0 0 0 2.307 3.3 2.984 2.984 0 0 0 .891.125 3.663 3.663 0 0 0 3.04-1.846.15.15 0 0 1 .119-.066.173.173 0 0 1 .125.066c.663 1.129.992 3.106.955 5.722a56.577 56.577 0 0 0 2.013 14.849 5.955 5.955 0 0 1-.321 4.433 11.777 11.777 0 0 0-.484 1.4 33.24 33.24 0 0 0-.591 5.442.152.152 0 0 1-.048.113 11.322 11.322 0 0 1-6.435 2.174zm-8.2-4.14a11.684 11.684 0 0 0 8.2 3.859 10.977 10.977 0 0 0 6.212-2.079 32.269 32.269 0 0 1 .586-5.436 13.065 13.065 0 0 1 .489-1.428 5.709 5.709 0 0 0 .323-4.265 56.838 56.838 0 0 1-2.02-14.927 11.923 11.923 0 0 0-.817-5.37 3.9 3.9 0 0 1-3.147 1.774 3.424 3.424 0 0 1-.976-.132 3.69 3.69 0 0 1-2.466-3.171 4.643 4.643 0 0 0-.322.514 1.041 1.041 0 0 1-.933.632h-.012c-2.55 3.656-3.022 6.917-3.524 10.357l-.143.974c-.543 3.7-1.368 9.282-1.643 12.042a34.211 34.211 0 0 0 .198 6.656z" class="prefix__cls-2" data-name="Path 9221" transform="translate(-6744.244 -6474.745)"/>
            </g>
        </g>
        <g id="prefix__Group_3541" data-name="Group 3541" transform="translate(6738.824 6481.619)">
            <path id="prefix__Path_9222" d="M6838.7 6622.719a28.98 28.98 0 0 0 .244-5.991 37.428 37.428 0 0 0-6.875-1.051c.78 1.594 2.931 5.351 6.631 7.042z" class="prefix__cls-9" data-name="Path 9222" transform="translate(-6831.925 -6615.54)"/>
            <path id="prefix__Path_9223" d="M6838.175 6622.363a.171.171 0 0 1-.055-.012c-3.751-1.727-5.937-5.549-6.708-7.12a.148.148 0 0 1 .018-.137.133.133 0 0 1 .119-.06 36.607 36.607 0 0 1 6.918 1.057.137.137 0 0 1 .09.119 30.175 30.175 0 0 1-.239 6.021.15.15 0 0 1-.072.113.137.137 0 0 1-.071.019zm-6.4-7.031c.836 1.619 2.891 5.035 6.29 6.679a29.613 29.613 0 0 0 .227-5.681 36.732 36.732 0 0 0-6.521-.998z" class="prefix__cls-10" data-name="Path 9223" transform="translate(-6831.402 -6615.034)"/>
        </g>
        <path id="prefix__Path_9224" d="M6835.358 6617.4c.017-.09.111-.233.227-.186 1.135.471 2.509.609 3.422 1.284a13.6 13.6 0 0 0-.065-1.768 37.428 37.428 0 0 0-6.875-1.051c.782 1.595 2.938 5.352 6.631 7.042.04-.359.088-.729.125-1.081-2.092-.821-3.931-2.2-3.465-4.24z" class="prefix__cls-11" data-name="Path 9224" transform="translate(-93.101 -133.921)"/>
        <g id="prefix__Group_3544" data-name="Group 3544" transform="translate(6714.704 6446.106)">
            <g id="prefix__Group_3542" data-name="Group 3542" transform="translate(8.078)">
                <path id="prefix__Path_9225" d="M6763.189 6449.79a10.123 10.123 0 0 1-1.619-.543 20.106 20.106 0 0 1-3.125 2.024c-1.779.979-1.594 1.47-1.594 2.384v.919l.083 1.4 2.33-1.052.514 1.3a.861.861 0 0 0 .877-.561 25.312 25.312 0 0 1 2.7-3.435c-.055-1.126-.119-1.904-.166-2.436z" class="prefix__cls-19" data-name="Path 9225" transform="translate(-6756.712 -6449.107)"/>
                <path id="prefix__Path_9226" d="M6759.352 6455.85a.637.637 0 0 1-.095-.006.113.113 0 0 1-.107-.089l-.455-1.16-2.2 1a.1.1 0 0 1-.119-.012.12.12 0 0 1-.071-.107l-.089-1.4v-1.165c-.024-.884.053-1.386 1.666-2.275a19.951 19.951 0 0 0 3.1-2.008.164.164 0 0 1 .149-.024 9.183 9.183 0 0 0 1.594.538.127.127 0 0 1 .1.119c.065.634.12 1.458.162 2.449a.134.134 0 0 1-.037.1 26.511 26.511 0 0 0-2.668 3.411 1.042 1.042 0 0 1-.93.629zm-.585-1.583c.025 0 .037.013.06.018a.121.121 0 0 1 .072.072l.472 1.219a.8.8 0 0 0 .663-.49 25.671 25.671 0 0 1 2.676-3.429c-.043-.907-.09-1.672-.15-2.275a10.42 10.42 0 0 1-1.462-.489 21.071 21.071 0 0 1-3.083 1.982c-1.548.854-1.541 1.267-1.519 2.025v1.158l.073 1.2 2.138-.974c.024-.005.049-.017.06-.017z" class="prefix__cls-20" data-name="Path 9226" transform="translate(-6756.214 -6448.59)"/>
            </g>
            <g id="prefix__Group_3543" data-name="Group 3543" transform="translate(0 5.33)">
                <path id="prefix__Path_9227" d="M6727.158 6475.62l-.082-1.4a31.288 31.288 0 0 0-3.412 2.862c-1.731 1.666-1.923 3.834-2.174 6.94-.245 3.087-.741 7.831-.741 7.831a1.742 1.742 0 0 0-.327 2.3c-.407.723-.514 3.059-.813 4.486-.407 1.983-1.07 4.336-.155 5.49a3.069 3.069 0 0 0 1.749.722 3.134 3.134 0 0 0-.1.854.066.066 0 0 1 .018-.006 8.26 8.26 0 0 0 1.117 1.96 14.634 14.634 0 0 1 .74 3.017 1.136 1.136 0 0 0 1.028.925c.322 0 .7-3.458.811-5.489a35.075 35.075 0 0 1-.208-6.738c.3-2.986 1.255-9.378 1.762-12.866s.979-6.875 3.631-10.639l-.514-1.3z" class="prefix__cls-19" data-name="Path 9227" transform="translate(-6718.856 -6474.078)"/>
                <path id="prefix__Path_9228" d="M6723.5 6511.231a1.291 1.291 0 0 1-1.165-1.039c-.024-.149-.06-.346-.114-.585a10.16 10.16 0 0 0-.6-2.389c-.078-.107-.155-.245-.25-.383a6.624 6.624 0 0 1-.885-1.552.2.2 0 0 1-.018-.09 3.021 3.021 0 0 1 .055-.717 3.461 3.461 0 0 1-1.668-.746c-.86-1.1-.435-3.053-.035-4.94.06-.233.1-.46.149-.687.107-.531.2-1.194.28-1.833a10.7 10.7 0 0 1 .514-2.616 1.873 1.873 0 0 1 .354-2.378c.053-.52.507-4.892.733-7.782.247-3.083.424-5.3 2.212-7.03a31.322 31.322 0 0 1 3.434-2.868.152.152 0 0 1 .143-.012.134.134 0 0 1 .078.12l.072 1.206 2.138-.974a.11.11 0 0 1 .119 0 .118.118 0 0 1 .072.072l.509 1.3a.128.128 0 0 1-.012.132c-2.593 3.679-3.077 6.958-3.579 10.422l-.143.974c-.543 3.7-1.369 9.283-1.643 12.042a34.8 34.8 0 0 0 .2 6.708c0 .066-.312 5.645-.95 5.645zm-2.765-6.1a.083.083 0 0 0 .017.024 5.906 5.906 0 0 0 .836 1.523c.1.143.192.281.264.388a10.564 10.564 0 0 1 .651 2.491c.042.233.078.43.107.573a1.011 1.011 0 0 0 .848.818 23.642 23.642 0 0 0 .71-5.37 35.051 35.051 0 0 1-.2-6.732c.269-2.777 1.1-8.362 1.636-12.065l.149-.967c.508-3.477.985-6.768 3.578-10.483l-.423-1.087-2.2 1a.106.106 0 0 1-.12-.011.121.121 0 0 1-.071-.107l-.072-1.16a35.242 35.242 0 0 0-3.2 2.7c-1.708 1.649-1.881 3.835-2.12 6.858-.252 3.058-.747 7.789-.747 7.836a.125.125 0 0 1-.049.09 1.6 1.6 0 0 0-.3 2.108.134.134 0 0 1 .017.156 9.618 9.618 0 0 0-.524 2.586c-.084.651-.174 1.326-.281 1.857-.047.227-.1.46-.149.7-.376 1.731-.8 3.7-.035 4.682a2.991 2.991 0 0 0 1.636.657.132.132 0 0 1 .114.053.128.128 0 0 1 .03.126 2.819 2.819 0 0 0-.103.757z" class="prefix__cls-20" data-name="Path 9228" transform="translate(-6718.351 -6473.571)"/>
            </g>
        </g>
        <g id="prefix__Group_3547" data-name="Group 3547" transform="translate(6732.866 6445.433)">
            <g id="prefix__Group_3545" data-name="Group 3545">
                <path id="prefix__Path_9229" d="M6804.936 6452.2c.686.066 1.888 2.067 3.123 2.145 1.421-2.293 2.885-4.168 3.13-4.814-.053-1.481-2.6-3.477-2.6-3.477a11.127 11.127 0 0 1-3 1.184 3.224 3.224 0 0 1-.359 3.6c-1.182 1.272-1.374 1.839-.806 2.527-.014-.485.033-1.22.512-1.165z" class="prefix__cls-19" data-name="Path 9229" transform="translate(-6803.978 -6445.919)"/>
                <path id="prefix__Path_9230" d="M6807.556 6453.993a3.958 3.958 0 0 1-2.115-1.35c-.4-.4-.783-.771-1.028-.794a.225.225 0 0 0-.167.054 1.583 1.583 0 0 0-.18.961.149.149 0 0 1-.089.138.139.139 0 0 1-.16-.048c-.681-.824-.287-1.523.811-2.706a3.062 3.062 0 0 0 .329-3.439.237.237 0 0 1 .012-.126.145.145 0 0 1 .09-.078 11.912 11.912 0 0 0 2.962-1.146.133.133 0 0 1 .155 0c.107.083 2.6 2.043 2.653 3.578a.205.205 0 0 1-.007.054 12.961 12.961 0 0 1-1.23 1.946c-.551.8-1.242 1.8-1.918 2.886a.127.127 0 0 1-.118.07zm-3.177-2.425h.06c.346.036.718.406 1.194.872a3.984 3.984 0 0 0 1.853 1.266c.663-1.057 1.325-2.036 1.869-2.83a14.725 14.725 0 0 0 1.189-1.864c-.078-1.26-2.061-2.933-2.461-3.268a12.6 12.6 0 0 1-2.8 1.1 3.3 3.3 0 0 1-.454 3.59c-.96 1.027-1.195 1.541-1.038 1.965a1.145 1.145 0 0 1 .25-.687.446.446 0 0 1 .337-.144z" class="prefix__cls-20" data-name="Path 9230" transform="translate(-6803.476 -6445.433)"/>
            </g>
            <g id="prefix__Group_3546" data-name="Group 3546" transform="translate(.304 3.467)">
                <path id="prefix__Path_9231" d="M6821.485 6474.49c-1.541-4.337-2.843-6.57-9.169-12.144-.245.646-1.708 2.521-3.13 4.815-1.235-.078-2.437-2.079-3.123-2.145-.479-.054-.526.682-.514 1.159.036.037.073.084.107.12.7.746 1.35 2.507 1.3 6.134a56.916 56.916 0 0 0 2.02 14.885c.806 2.729-.312 3.841-.813 5.764a32.806 32.806 0 0 0-.591 5.477 22.252 22.252 0 0 0 .813 3.918 21.913 21.913 0 0 0 2.03-2.8c.835-1.434 1.678-1.959 1.713-2.729a1.792 1.792 0 0 1 1.374-1.488 2.566 2.566 0 0 1 .347-1.488c1.75.765 3.709 1.631 5.16 1.512.294-.292 2.319-2.509 4.092-7.729 1.18-3.967.123-8.184-1.616-13.261z" class="prefix__cls-19" data-name="Path 9231" transform="translate(-6805.41 -6462.205)"/>
                <path id="prefix__Path_9232" d="M6807.879 6502.094a.111.111 0 0 1-.037 0 .134.134 0 0 1-.1-.1 21.868 21.868 0 0 1-.812-3.961 32.944 32.944 0 0 1 .586-5.513 13.029 13.029 0 0 1 .489-1.428 5.707 5.707 0 0 0 .323-4.264 56.8 56.8 0 0 1-2.02-14.928c.055-4.025-.771-5.5-1.267-6.026-.042-.048-.077-.09-.112-.138a.117.117 0 0 1-.03-.077 1.611 1.611 0 0 1 .262-1.166.455.455 0 0 1 .395-.142c.347.034.718.405 1.194.871a3.992 3.992 0 0 0 1.854 1.267c.663-1.057 1.324-2.037 1.868-2.831a14.262 14.262 0 0 0 1.206-1.882.133.133 0 0 1 .1-.09.127.127 0 0 1 .119.03c6.445 5.692 7.7 7.974 9.211 12.2 1.84 5.394 2.753 9.5 1.605 13.35-1.756 5.185-3.738 7.395-4.114 7.789a.189.189 0 0 1-.091.042c-1.443.112-3.392-.723-5.111-1.476a2.41 2.41 0 0 0-.27 1.29.128.128 0 0 1-.1.144c-.46.167-1.242.562-1.278 1.367a2.555 2.555 0 0 1-.74 1.4 10.731 10.731 0 0 0-.991 1.4 21.031 21.031 0 0 1-2.05 2.818.129.129 0 0 1-.089.054zm-2.7-36.5c.025.029.048.06.067.083.639.681 1.4 2.317 1.337 6.229a56.582 56.582 0 0 0 2.013 14.85 5.953 5.953 0 0 1-.322 4.433 11.885 11.885 0 0 0-.483 1.4 33.241 33.241 0 0 0-.591 5.441 20.494 20.494 0 0 0 .733 3.633 22 22 0 0 0 1.853-2.581 11.047 11.047 0 0 1 1.016-1.439 2.371 2.371 0 0 0 .681-1.23 1.855 1.855 0 0 1 1.361-1.583 2.792 2.792 0 0 1 .371-1.451.146.146 0 0 1 .18-.065c1.7.746 3.619 1.595 5.046 1.511.354-.383 2.312-2.622 4.02-7.646 1.118-3.762.2-7.829-1.611-13.164-1.481-4.15-2.718-6.415-8.99-11.964a20.872 20.872 0 0 1-1.152 1.769c-.551.8-1.242 1.8-1.918 2.885a.113.113 0 0 1-.119.071 3.951 3.951 0 0 1-2.114-1.35c-.4-.4-.783-.771-1.027-.794a.227.227 0 0 0-.168.054 1.418 1.418 0 0 0-.179.908z" class="prefix__cls-20" data-name="Path 9232" transform="translate(-6804.901 -6461.682)"/>
            </g>
        </g>
        <g id="prefix__Group_3548" data-name="Group 3548" transform="translate(6716.267 6456.878)">
            <path id="prefix__Path_9233" d="M6726.379 6527.012a6.465 6.465 0 0 1 .042-.675c.023-.221.065-.442.1-.668l.055-.335.077-.328.167-.664.018.054a12.711 12.711 0 0 1-1.022-1.152.6.6 0 0 1-.13-.4.649.649 0 0 1 .172-.383 3.968 3.968 0 0 1 .579-.525 6.194 6.194 0 0 0 .586-.478.5.5 0 0 0 .137-.275l.007-.167-.007-.191c-.022-.514-.035-1.021-.047-1.529l-.023-1.523c-.012-.514 0-1.015 0-1.529l.011-1.524.089-1.535c.037-.514.055-1.021.127-1.522s.148-1.01.232-1.523c.154-1 .352-2 .568-3s.435-1.983.722-2.968c.145-.484.287-.974.461-1.458a8.5 8.5 0 0 1 .621-1.4 8.277 8.277 0 0 0-.562 1.416c-.149.5-.281.98-.406 1.47s-.234.991-.341 1.488-.209.991-.3 1.493c-.185.991-.359 2-.514 3-.083.508-.155 1-.22 1.505s-.09 1.009-.114 1.517l-.078 1.517-.024 1.53c-.005.508-.018 1.009-.01 1.523l.01 1.518.03 1.522v.187l-.01.208a.737.737 0 0 1-.2.389 4.88 4.88 0 0 1-.608.478 3.8 3.8 0 0 0-.568.49.562.562 0 0 0-.149.286.631.631 0 0 0 .1.312 4.711 4.711 0 0 0 .477.579l.5.58a.07.07 0 0 1 .012.036v.018l-.185.651-.1.316-.064.334a5.938 5.938 0 0 0-.12.664 6.389 6.389 0 0 0-.098.671z" class="prefix__cls-20" data-name="Path 9233" transform="translate(-6725.679 -6500.838)"/>
            <path id="prefix__Path_9234" d="M6738.808 6499.077s.01.042.041.126c.012.071.049.191.077.328a9.62 9.62 0 0 1 .2.985c.018.186.048.365.065.538s.047.322.053.465a3.834 3.834 0 0 1 .037.466s-.084-.167-.185-.43a2.922 2.922 0 0 1-.15-.454c-.037-.18-.066-.359-.1-.538a4.257 4.257 0 0 1-.06-.544c0-.179-.012-.34 0-.477a3.356 3.356 0 0 1 .022-.465z" class="prefix__cls-20" data-name="Path 9234" transform="translate(-6735.981 -6499.077)"/>
            <path id="prefix__Path_9235" d="M6731.252 6609.348a1.136 1.136 0 0 1 .234.192 2.382 2.382 0 0 1 .2.238 3.13 3.13 0 0 1 .185.293 2.136 2.136 0 0 1 .15.311c.035.107.065.2.09.293a1.457 1.457 0 0 1 .052.293 2.5 2.5 0 0 1-.19-.228c-.114-.137-.222-.34-.346-.531a6.007 6.007 0 0 1-.274-.579c-.037-.084-.05-.162-.072-.209s-.029-.073-.029-.073z" class="prefix__cls-20" data-name="Path 9235" transform="translate(-6730.063 -6585.821)"/>
        </g>
        <g id="prefix__Group_3549" data-name="Group 3549" transform="translate(6740.85 6455.917)">
            <path id="prefix__Path_9236" d="M6843.365 6569.769a.734.734 0 0 1-.281-.524 3.052 3.052 0 0 1-.018-.3c.007-.108.024-.2.03-.3a4.676 4.676 0 0 1 .162-.6c.053-.2.113-.388.167-.579l.656-2.33c.217-.776.432-1.559.676-2.33.132-.381.251-.77.389-1.151.077-.186.142-.377.219-.574a2.756 2.756 0 0 1 .137-.28 1.229 1.229 0 0 1 .18-.287v.174a2.839 2.839 0 0 1-.347-.437 1.363 1.363 0 0 1-.113-.257.786.786 0 0 1-.065-.287.72.72 0 0 1 .018-.28.59.59 0 0 1 .1-.274.7.7 0 0 1 .179-.228.956.956 0 0 1 .24-.161.943.943 0 0 1 .149-.035.21.21 0 0 1 .078-.013l.065.006a1.019 1.019 0 0 1 .264.03 5.045 5.045 0 0 1 .526.131 8.777 8.777 0 0 1 .99.377c-.34-.107-.674-.216-1.015-.293a5.062 5.062 0 0 0-.508-.095c-.088-.007-.173-.007-.257-.007h-.118c-.037.007-.072.03-.114.041a.745.745 0 0 0-.4.783 1.532 1.532 0 0 0 .494.824.108.108 0 0 1 .013.149l-.013.024c-.041.071-.095.131-.137.221s-.077.173-.112.27a5.879 5.879 0 0 0-.209.566c-.132.371-.251.759-.376 1.146l-.693 2.318c-.232.771-.472 1.547-.729 2.312l-.215.573a3.707 3.707 0 0 0-.174.567 2.687 2.687 0 0 0-.06.292c-.005.1-.01.192-.01.293a.754.754 0 0 0 .232.525z" class="prefix__cls-20" data-name="Path 9236" transform="translate(-6842.603 -6545.023)"/>
            <path id="prefix__Path_9237" d="M6848.733 6512.583s-.2-.783-.455-1.972c-.132-.585-.287-1.284-.436-2.031s-.312-1.529-.466-2.324c-.072-.4-.149-.8-.22-1.183-.08-.412-.1-.788-.144-1.17-.018-.192-.048-.371-.053-.562v-.531c0-.358-.019-.693 0-1s.035-.58.053-.824c.012-.126.024-.24.029-.347s.035-.2.055-.293c.06-.346.107-.543.107-.543s-.025.2-.06.555c-.007.09-.013.179-.03.287v.355c0 .245 0 .525-.007.824s.03.627.049.974c.011.167.018.346.03.525s.041.364.065.556c.06.371.078.776.167 1.146.078.389.149.789.232 1.183.149.794.294 1.589.424 2.335s.256 1.452.354 2.049c.198 1.197.306 1.991.306 1.991z" class="prefix__cls-20" data-name="Path 9237" transform="translate(-6845.659 -6498.69)"/>
            <path id="prefix__Path_9238" d="M6840.9 6494.571s.072.292.18.717c.052.214.119.465.179.728s.143.55.215.831c.042.144.089.28.13.424s.079.268.115.4c.107.251.2.49.262.7.192.383.317.663.317.663a1.715 1.715 0 0 1-.13-.155c-.079-.107-.2-.251-.329-.436-.107-.2-.227-.431-.341-.687-.048-.131-.107-.269-.15-.4-.041-.15-.1-.281-.137-.431a8.24 8.24 0 0 1-.185-.854 4.932 4.932 0 0 1-.1-.758 5.4 5.4 0 0 1-.026-.742z" class="prefix__cls-20" data-name="Path 9238" transform="translate(-6840.896 -6494.571)"/>
        </g>
        <path id="prefix__Path_9239" d="M6760.591 6466.744a.645.645 0 0 1 .049-.12.423.423 0 0 1 .262-.251.349.349 0 0 1 .274.054.688.688 0 0 1 .191.2 1.4 1.4 0 0 1 .143.221c.048.077.09.155.132.227a8.417 8.417 0 0 1 .424.884 3.077 3.077 0 0 1 .142.43s-.118-.13-.279-.346a9.118 9.118 0 0 1-.526-.825c-.042-.077-.083-.161-.12-.239s-.077-.167-.112-.214a.658.658 0 0 0-.127-.167.194.194 0 0 0-.119-.072.384.384 0 0 0-.245.132.692.692 0 0 0-.089.086z" class="prefix__cls-20" data-name="Path 9239" transform="translate(-36.875 -16.466)"/>
        <g id="prefix__Group_3550" data-name="Group 3550" transform="translate(6715.149 6481.349)">
            <path id="prefix__Path_9240" d="M6721.118 6614.391c-.037.884-.037 1.726 1.648 1.576a3.107 3.107 0 0 1 .1-.854 3.067 3.067 0 0 1-1.748-.722z" class="prefix__cls-19" data-name="Path 9240" transform="translate(-6720.967 -6614.258)"/>
            <path id="prefix__Path_9241" d="M6721.876 6615.633a1.5 1.5 0 0 1-1.124-.353 1.875 1.875 0 0 1-.3-1.379.146.146 0 0 1 .227-.108 2.837 2.837 0 0 0 1.661.688.131.131 0 0 1 .114.053.128.128 0 0 1 .03.125 2.837 2.837 0 0 0-.1.812.13.13 0 0 1-.12.144c-.15.012-.275.018-.388.018zm-1.159-1.458a1.235 1.235 0 0 0 .24.908 1.456 1.456 0 0 0 1.152.263 2.956 2.956 0 0 1 .055-.586 3.1 3.1 0 0 1-1.447-.585z" class="prefix__cls-20" data-name="Path 9241" transform="translate(-6720.441 -6613.769)"/>
        </g>
        <g id="prefix__Group_3551" data-name="Group 3551" transform="translate(6741.114 6480.522)">
            <path id="prefix__Path_9242" d="M6843.152 6610.552a2.556 2.556 0 0 0-.347 1.488c.012 0 .036-.018.055-.023 0 0 3.177 1.583 5.339 1.045.072-.741.072-.949.072-.949a.568.568 0 0 0 .041-.048c-1.452.118-3.412-.749-5.16-1.513z" class="prefix__cls-19" data-name="Path 9242" transform="translate(-6842.654 -6610.412)"/>
            <path id="prefix__Path_9243" d="M6846.7 6612.795a11.582 11.582 0 0 1-4.361-1.146h-.005a.138.138 0 0 1-.12-.013.135.135 0 0 1-.065-.107 2.774 2.774 0 0 1 .364-1.559.146.146 0 0 1 .18-.065c1.719.758 3.674 1.618 5.1 1.511a.144.144 0 0 1 .137.077.167.167 0 0 1-.025.156h-.005c0 .107-.012.37-.066.907a.144.144 0 0 1-.107.125 4.1 4.1 0 0 1-1.027.114zm-4.284-1.415a11.65 11.65 0 0 0 4.284 1.135 4.239 4.239 0 0 0 .86-.084c.035-.394.047-.614.053-.734a13.726 13.726 0 0 1-4.916-1.48 2.631 2.631 0 0 0-.285 1.163z" class="prefix__cls-20" data-name="Path 9243" transform="translate(-6842.136 -6609.896)"/>
        </g>
        <g id="prefix__Group_3553" data-name="Group 3553" transform="translate(6722.399 6513.191)">
            <g id="prefix__Group_3552" data-name="Group 3552">
                <path id="prefix__Path_9244" d="M6759.326 6767.329c-3.334.245-3.859-1.04-3.859-1.04-.674.371-.31 1.363.126 2.043s4.767 1.176 6.385.562a8.583 8.583 0 0 0 3.906-2.98 10.128 10.128 0 0 0-.125-2.252 7.388 7.388 0 0 1-6.433 3.667z" class="prefix__cls-12" data-name="Path 9244" transform="translate(-6754.951 -6763.522)"/>
                <path id="prefix__Path_9245" d="M6759.269 6768.807c-1.571 0-3.943-.316-4.324-.908a2.592 2.592 0 0 1-.491-1.714.826.826 0 0 1 .419-.525.127.127 0 0 1 .191.071c.013 0 .459.985 2.933.985.25 0 .519-.018.788-.035a7.217 7.217 0 0 0 6.332-3.608.117.117 0 0 1 .142-.054.127.127 0 0 1 .107.113 9.734 9.734 0 0 1 .12 2.294l-.017.048a8.648 8.648 0 0 1-3.973 3.034 6.829 6.829 0 0 1-2.227.299zm-4.373-2.832a.547.547 0 0 0-.167.275 2.186 2.186 0 0 0 .454 1.5c.22.353 2.1.771 4.085.771a6.27 6.27 0 0 0 2.127-.274 8.468 8.468 0 0 0 3.816-2.885 10.193 10.193 0 0 0-.072-1.846 7.47 7.47 0 0 1-6.332 3.446c-.28.018-.554.03-.811.03-2.131-.001-2.879-.7-3.096-1.017z" class="prefix__cls-13" data-name="Path 9245" transform="translate(-6754.422 -6763.012)"/>
            </g>
        </g>
        <g id="prefix__Group_3554" class="prefix__cls-21" data-name="Group 3554" transform="translate(6722.544 6513.33)">
            <path id="prefix__Path_9246" d="M6765.764 6763.661a7.389 7.389 0 0 1-6.432 3.667c-3.334.245-3.86-1.04-3.86-1.04-.4.222-.429.664-.3 1.13.675-.162 1.871.388 2.593.448a7.445 7.445 0 0 0 2.746-.18 3.21 3.21 0 0 1 1.888-.281 1.051 1.051 0 0 1 .7.957 7.833 7.833 0 0 0 2.794-2.449 10.128 10.128 0 0 0-.129-2.252z" class="prefix__cls-12" data-name="Path 9246" transform="translate(-6755.101 -6763.661)"/>
        </g>
        <path id="prefix__Path_9247" d="M6845.616 6643.981c-.139 1.379-.294 2.753-.443 4.127-.07.681-.179 1.368-.268 2.055l-.276 2.055c-.083.692-.215 1.367-.327 2.048l-.359 2.049-.185 1.017c-.06.34-.12.681-.162 1.015a2.882 2.882 0 0 0-.013.979c.067.263.407.418.676.657.013.006.013.018.023.018a.528.528 0 0 1 .072.371 1.281 1.281 0 0 1-.1.3 4.91 4.91 0 0 1-.3.49 5.21 5.21 0 0 0-.551.92c-.053.161-.04.269.072.322a1.471 1.471 0 0 1 .442.419 3.626 3.626 0 0 1 .46 1.051 11.715 11.715 0 0 1 .364 2.21c.035.37.047.746.072 1.117s.005.747 0 1.117l-.067 2.216-.137 2.216c-.036.741-.1 1.481-.16 2.216l-.186 2.21.114-2.216c.035-.734.072-1.476.1-2.216l.088-2.21.02-2.222c.005-.371 0-.735-.013-1.105s-.042-.734-.072-1.1a12.716 12.716 0 0 0-.369-2.162 3.362 3.362 0 0 0-.431-.974 1.078 1.078 0 0 0-.359-.334.394.394 0 0 1-.227-.3.726.726 0 0 1 .037-.341 4.922 4.922 0 0 1 .574-.991 3.522 3.522 0 0 0 .262-.461c.084-.149.125-.316.065-.382l.025.023c-.133-.107-.257-.209-.407-.316a.925.925 0 0 1-.347-.478 2.863 2.863 0 0 1 .013-1.081c.042-.347.107-.693.167-1.034l.192-1.021.364-2.03.191-1.016c.071-.346.113-.687.173-1.027l.3-2.043c.107-.692.215-1.374.312-2.055.198-1.362.402-2.73.581-4.103z" class="prefix__cls-16" data-name="Path 9247" transform="translate(-101.788 -156.187)"/>
        <g id="prefix__Group_3555" data-name="Group 3555" transform="translate(6725.43 6497.369)">
            <path id="prefix__Path_9248" d="M6769.2 6688.855a2.533 2.533 0 0 1-.012.311 3.294 3.294 0 0 1-.143.646 4.157 4.157 0 0 1-.251.6 2.062 2.062 0 0 1-.173.262 2.186 2.186 0 0 1 .012-.31 3.447 3.447 0 0 1 .405-1.249 3.047 3.047 0 0 1 .162-.26z" class="prefix__cls-16" data-name="Path 9248" transform="translate(-6768.625 -6688.855)"/>
        </g>
        <g id="prefix__Group_3556" data-name="Group 3556" transform="translate(6714.621 6486.104)">
            <path id="prefix__Path_9249" d="M6722.491 6636.058a1.391 1.391 0 0 0-.03.161c-.024.1-.042.238-.065.405s-.042.371-.067.58a2.838 2.838 0 0 1 0 .322c0 .107-.005.222-.005.329.03.46.036.914.042 1.26.01.168 0 .322 0 .412.01.107.018.167.018.167a.8.8 0 0 1-.065-.148 1.649 1.649 0 0 0-.054-.18 2.286 2.286 0 0 1-.055-.233c-.035-.173-.07-.37-.1-.591s-.042-.442-.067-.67c.007-.238.03-.478.042-.7.018-.113.055-.215.073-.311s.06-.186.089-.274a3.472 3.472 0 0 1 .167-.389c.046-.088.077-.14.077-.14z" class="prefix__cls-10" data-name="Path 9249" transform="translate(-6721.172 -6636.058)"/>
            <path id="prefix__Path_9250" d="M6718.19 6638.324s.023.18.041.448.02.622.02.968c-.013.173-.013.346-.02.514s0 .316-.01.454c-.007.06 0 .119 0 .173v.143a.912.912 0 0 1-.007.126l-.047-.114a.906.906 0 0 0-.047-.137c-.012-.048-.042-.107-.06-.179-.018-.131-.055-.293-.072-.46a3.634 3.634 0 0 1-.018-.52 5.185 5.185 0 0 1 .035-.525 2.927 2.927 0 0 1 .072-.454 3.4 3.4 0 0 1 .113-.437z" class="prefix__cls-10" data-name="Path 9250" transform="translate(-6717.965 -6637.841)"/>
        </g>
        <path id="prefix__Path_9251" d="M6722.725 6663.21c.042-.114-.072-.09-.107-.006a28.873 28.873 0 0 0-1.272 3.972 5.9 5.9 0 0 0 .357 3.6c.042.113.222-.125.2-.2-.131-.567-.334-1.117-.431-1.69a5.647 5.647 0 0 1 .149-2.054 27.387 27.387 0 0 1 1.104-3.622z" class="prefix__cls-22" data-name="Path 9251" transform="translate(-5.895 -171.252)"/>
        <path id="prefix__Path_9252" d="M6734.368 6692.92a4 4 0 0 1-4.9.938c-.055-.03-.145.107-.09.149 1.642 1.237 3.811.431 5.041-.967.057-.048.044-.216-.051-.12z" class="prefix__cls-22" data-name="Path 9252" transform="translate(-12.306 -194.661)"/>
        <path id="prefix__Path_9253" d="M6739.947 6723.691c-2.024-1.35-2.705-4.014-3.681-6.134-.519-1.135-1.109-2.246-1.641-3.387-.287-.609-.533-1.231-.8-1.845a10.723 10.723 0 0 1-.788-1.93c-.007-.059-.085.03-.079.072a14.312 14.312 0 0 0 1.207 3.279c.556 1.392 1.249 2.723 1.87 4.085.549 1.225 1.021 2.509 1.624 3.7a4.536 4.536 0 0 0 2.14 2.4c.101.04.244-.174.148-.24z" class="prefix__cls-22" data-name="Path 9253" transform="translate(-15.137 -208.414)"/>
        <path id="prefix__Path_9254" d="M6819.882 6718.649a5.958 5.958 0 0 1-4.158-.071c-.06-.024-.137.113-.089.138a4.968 4.968 0 0 0 4.217.107c.06-.023.125-.204.03-.174z" class="prefix__cls-22" data-name="Path 9254" transform="translate(-80.164 -214.865)"/>
        <path id="prefix__Path_9255" d="M6843.083 6656.346c-.24 2.1-.287 4.211-.461 6.308a41.159 41.159 0 0 1-1.058 6.039c-.035.173.138.077.174-.018a19.893 19.893 0 0 0 1.093-5.508c.2-2.293.209-4.6.382-6.9.012-.113-.13.013-.13.079z" class="prefix__cls-22" data-name="Path 9255" transform="translate(-100.567 -165.816)"/>
        <path id="prefix__Path_9256" d="M6840.991 6725.471a5.863 5.863 0 0 0-.524-.747c-.294-.382-.12-.472.119-.848a1.9 1.9 0 0 0 .257-1.278c-.007-.06-.079.023-.079.054.072 1.278-1.187 1.421-.369 2.5a8.017 8.017 0 0 1 1.237 5.524c-.012.174.2-.023.209-.119a7.965 7.965 0 0 0-.85-5.086z" class="prefix__cls-22" data-name="Path 9256" transform="translate(-99.434 -218.013)"/>
        <path id="prefix__Path_9257" d="M6847.018 6763c-.007-.107-.127.013-.127.079-.01.865.067 1.726.024 2.592-.042.949-.2 1.875-.154 2.819.005.179.2-.024.2-.119a42.23 42.23 0 0 0 .057-5.371z" class="prefix__cls-22" data-name="Path 9257" transform="translate(-104.653 -249.774)"/>
        <g id="prefix__Group_3557" class="prefix__cls-6" data-name="Group 3557" transform="translate(6729.823 6523.967)">
            <path id="prefix__Path_9258" d="M6796.285 6813.52c1.118.317 2.061.867 2.181 1.8.287 2.108-6.846 3.309-9.128.567a1.773 1.773 0 0 1-.088.233c-.127.585-.191 2.729 5.333 2.431 4.2-.221 6.313-.627 7.538-1.416-.843-2.074-3.339-3.245-5.836-3.615z" class="prefix__cls-7" data-name="Path 9258" transform="translate(-6789.215 -6813.52)"/>
        </g>
        <g id="prefix__Group_3558" class="prefix__cls-6" data-name="Group 3558" transform="translate(6714.351 6519.768)">
            <path id="prefix__Path_9259" d="M6721.876 6793.837c-.118.019-.232.025-.357.036-.491.036-.92.042-1.314.048a2.146 2.146 0 0 1 1.554.908c.789 1.482-1.578 3.13-4.982 1.589a3.618 3.618 0 0 0-.078.448c.5.669 1.982 1.667 6.4 1.284.216-.018.414-.042.633-.06a10.494 10.494 0 0 0-1.856-4.253z" class="prefix__cls-7" data-name="Path 9259" transform="translate(-6716.698 -6793.837)"/>
        </g>
        <g id="prefix__Group_3559" class="prefix__cls-21" data-name="Group 3559" transform="translate(6722.97 6446.246)">
            <path id="prefix__Path_9260" d="M6763.385 6449.79a10.107 10.107 0 0 1-1.619-.543 20.085 20.085 0 0 1-3 1.959h.1a7.258 7.258 0 0 0 2.376-.6c.836-.473.873.352.915 1.11s-1.184 1.7-1.668 2.454-1.027-.632-1.624-1.313-.83-.155-.431.8c.346.843.539.753-1.337 1.774l.035.544 2.329-1.052.514 1.3a.862.862 0 0 0 .878-.561 25.22 25.22 0 0 1 2.7-3.435c-.053-1.127-.121-1.905-.168-2.437z" class="prefix__cls-23" data-name="Path 9260" transform="translate(-6757.095 -6449.247)"/>
        </g>
        <g id="prefix__Group_3560" class="prefix__cls-21" data-name="Group 3560" transform="translate(6733.002 6445.565)">
            <path id="prefix__Path_9261" d="M6806.44 6451.99c-.741-.6.376-1.392.6-2.377s.282-1.523 1.583-1.947a1.585 1.585 0 0 1 1.858.371l.048-.019a12.3 12.3 0 0 0-1.94-1.965 11.127 11.127 0 0 1-3 1.184 3.224 3.224 0 0 1-.359 3.6c-1.182 1.272-1.374 1.839-.806 2.527-.012-.478.035-1.213.514-1.16.686.066 1.888 2.067 3.123 2.145.1-.149.187-.3.281-.454a25.6 25.6 0 0 0-1.902-1.905z" class="prefix__cls-23" data-name="Path 9261" transform="translate(-6804.114 -6446.052)"/>
        </g>
        <g id="prefix__Group_3561" class="prefix__cls-21" data-name="Group 3561" transform="translate(6714.93 6451.574)">
            <path id="prefix__Path_9262" d="M6726.7 6486.5c.521-3.482.98-6.875 3.632-10.639l-.514-1.3-2.329 1.051-.083-1.4s-.8.562-1.863 1.458c.591 1.159 1.481 1.194 2.562.657 1.3-.657.185.926-1.022 4.366s-1.863 9.2-2.609 14.682-.084 9.2-.274 11.712-.551 1.027-1.3-.651-.646-2.042-.646-2.042l.735.837s.192-2.331-.735-3.262.084-1.852.831-.46 0-1.3.185-7.347c.179-6.033 1.386-10.124 2.414-15.142-1.212.747-1.392 2.138-1.487 1.488s-.276-1.858-.276-1.858a10.042 10.042 0 0 0-.19 3.811c.376 1.577-1.112 5.758-1.673 10.125s.2 6.414-.836 7.442c-1.015 1.021-.925.741-.556 1.667a2.667 2.667 0 0 1 .372 2.138 2.068 2.068 0 0 1-1.625-.52 2 2 0 0 0 .371.807 3.065 3.065 0 0 0 1.749.722 3.116 3.116 0 0 0-.1.854.062.062 0 0 1 .018-.006 8.277 8.277 0 0 0 1.117 1.96 14.6 14.6 0 0 1 .741 3.017 1.135 1.135 0 0 0 1.027.925c.322 0 .7-3.458.811-5.489a35.05 35.05 0 0 1-.208-6.738c.302-2.983 1.252-9.374 1.761-12.865z" class="prefix__cls-23" data-name="Path 9262" transform="translate(-6719.411 -6474.216)"/>
        </g>
        <g id="prefix__Group_3562" class="prefix__cls-21" data-name="Group 3562" transform="translate(6733.308 6449.042)">
            <path id="prefix__Path_9263" d="M6821.879 6489.763c-1.576 3.256-2.6 4.647-4.641 3.62s-1.768-1.3-1.027-3.8.658-4.653 1.309-4.182 2.132.46.733-.37-1.3-1.488.372-1.207 2.8.274.376-.472-1.948-3.16-2.509-7.436-.843-6.689 1.117-6.5 4.461 6.97 4.461 6.97l.048.019c-.2-.621-.412-1.261-.634-1.905a19.481 19.481 0 0 0-4.038-7.163c.646 1.488-1.529.514-2.443 1.7-.926 1.213-.831 3.542-1.021 2.418a30.084 30.084 0 0 0-1.117-3.619 7.42 7.42 0 0 0 0 3.434 46.253 46.253 0 0 1 1.307 5.395c.646 3.351.831 6.134-.28 4.551s-.185 1.212.741 2.789.089 2.885-.925 5.668-1.028 4-2.5 5.394a14.4 14.4 0 0 0-2.61 4.175 46.65 46.65 0 0 1 .651-5.943c.466-2.138.748-4.653 1.857-3.07s1.853 2.509 0-1.762c-2.042-5.024-2.878-14.873-3.254-17.567s0-3.345 1.4-2.509 2.6-2.6 3.436-3.811c.567-.818 1.123-.741 1.432-.609-.543-.508-1.14-1.045-1.8-1.619-.245.646-1.708 2.521-3.13 4.815-1.235-.078-2.437-2.079-3.123-2.145-.479-.054-.526.682-.514 1.159.036.037.073.084.107.12.7.746 1.35 2.507 1.3 6.134a56.916 56.916 0 0 0 2.02 14.885c.806 2.729-.312 3.841-.813 5.764a32.806 32.806 0 0 0-.591 5.477 22.252 22.252 0 0 0 .813 3.918 21.913 21.913 0 0 0 2.03-2.8c.835-1.434 1.678-1.959 1.713-2.729a1.792 1.792 0 0 1 1.374-1.488 2.566 2.566 0 0 1 .347-1.488c1.75.765 3.709 1.631 5.16 1.512.294-.292 2.319-2.509 4.092-7.729.048-.186.1-.364.137-.544-.532.937-1.011 1.822-1.363 2.55z" class="prefix__cls-23" data-name="Path 9263" transform="translate(-6805.548 -6462.346)"/>
        </g>
        <g id="prefix__Group_3563" data-name="Group 3563" transform="translate(6715.718 6455.162)">
            <path id="prefix__Path_9264" d="M6732.4 6491.083c-.586.949-1.35 1.6-1.5 2.783-.257 2.007-.292 4.038-.377 6.063 0 .28.317-.023.334-.18.09-1.547.162-3.087.234-4.641a8.532 8.532 0 0 1 1.385-3.984c.049-.088-.015-.13-.076-.041z" class="prefix__cls-1" data-name="Path 9264" transform="translate(-6728.942 -6491.034)"/>
            <path id="prefix__Path_9265" d="M6724.675 6544.17c-.012-.054-.095.036-.095.084.119 1.517.209 2.126-.985 3.53-.072.078-.185.221-.161.341a7.034 7.034 0 0 1 .418 2.968c-.227 1.2-.543 2.377-.74 3.579-.06.3.262.089.3-.09.472-2.276 1.392-4.313.37-6.5-.053-.107.723-.956.855-1.2a5.138 5.138 0 0 0 .038-2.712z" class="prefix__cls-1" data-name="Path 9265" transform="translate(-6723.104 -6532.82)"/>
            <path id="prefix__Path_9266" d="M6865.711 6503.967c-.671-1.481-1.769-4.342-3.424-5.005-.042-.012-.095.078-.06.1 1.411.706 2.349 3.273 3 4.611a32.852 32.852 0 0 1 2.252 7.12c.029.138.2-.071.191-.154a25.162 25.162 0 0 0-1.959-6.672z" class="prefix__cls-1" data-name="Path 9266" transform="translate(-6832.535 -6497.269)"/>
            <path id="prefix__Path_9267" d="M6879.009 6560.8a16.467 16.467 0 0 1-2.11 7.149c-.13.263.157.312.27.1a13.649 13.649 0 0 0 2.032-7.347c-.013-.161-.192.013-.192.098z" class="prefix__cls-1" data-name="Path 9267" transform="translate(-6844.06 -6545.786)"/>
            <path id="prefix__Path_9268" d="M6824.376 6520.837a43.11 43.11 0 0 1-4.676-19.693c0-.079-.1.005-.1.054-.036 6.8 1.045 14.018 4.492 19.967.087.15.361-.191.284-.328z" class="prefix__cls-1" data-name="Path 9268" transform="translate(-6799.013 -6498.962)"/>
            <path id="prefix__Path_9269" d="M6825.359 6593.234a8.823 8.823 0 0 0-1.075 5.334c.012.25.3-.03.3-.173.064-1.7-.025-3.579.92-5.071.096-.156-.042-.245-.145-.09z" class="prefix__cls-1" data-name="Path 9269" transform="translate(-6802.686 -6571.365)"/>
        </g>
        <g id="prefix__Group_3564" class="prefix__cls-6" data-name="Group 3564" transform="translate(6720.363 6451.825)">
            <path id="prefix__Path_9270" d="M6761.253 6497.578a56.912 56.912 0 0 1-2.02-14.885c.035-2.992-.4-4.719-.943-5.645a3.42 3.42 0 0 1-6.494-1.654 7.975 7.975 0 0 0-.556.836.863.863 0 0 1-.878.561c-2.651 3.763-3.11 7.156-3.631 10.639s-1.457 9.879-1.761 12.866a35.094 35.094 0 0 0 .208 6.738c2.8 3.01 8.375 6.128 14.671 1.785a32.751 32.751 0 0 1 .591-5.477c.502-1.923 1.619-3.034.813-5.764zm-2.616 6.039c-.372 2.974-.5 4.468-4.212 5.579s-7.933-1.983-7.933-2.729-.125-2.724 2.354-1.607.746.119-1.367-1.739c-2.1-1.856.13-6.934.626-14.622.5-7.8 2.479-9.79 2.479-9.79 1.362 2.969 4.085 4.342 5.95 1.989s.494 4.211 1.856 9.294.622 10.656.248 13.625z" class="prefix__cls-7" data-name="Path 9270" transform="translate(-6744.878 -6475.395)"/>
        </g>
        <path id="prefix__Path_9271" fill="#ef4d50" d="M6764.637 6507.751a22.511 22.511 0 0 0 .537 6.965c.878 2.879 2.329-2.324 2.766-4.462s.979-2.5 1.416 1.1.429 1.528 1.05.364c.6-1.159 2.761 11.624-2.639 12.048s-5.758-7.09-4.785-12.591 1.892-5.019 1.655-3.424z" data-name="Path 9271" transform="translate(-38.423 -48.179)" style="mix-blend-mode:color-dodge;isolation:isolate"/>
    </g>
</svg>
