<svg xmlns="http://www.w3.org/2000/svg" width="51.259" height="85.383" viewBox="0 0 51.259 85.383">
    <defs>
        <style>
            .prefix__cls-1{fill:#f8d4b2}.prefix__cls-2{fill:#bf6947}.prefix__cls-17,.prefix__cls-3{fill:#f3ba8a}.prefix__cls-13,.prefix__cls-15,.prefix__cls-18,.prefix__cls-3{opacity:.5}.prefix__cls-12,.prefix__cls-13,.prefix__cls-15,.prefix__cls-17,.prefix__cls-3,.prefix__cls-6,.prefix__cls-9{mix-blend-mode:multiply;isolation:isolate}.prefix__cls-4{fill:#dc2127}.prefix__cls-5{fill:#84171b}.prefix__cls-15,.prefix__cls-6{fill:#ab1f24}.prefix__cls-7,.prefix__cls-9{fill:#e0dbe5}.prefix__cls-8{fill:#b2aec4}.prefix__cls-10,.prefix__cls-18{fill:#fff}.prefix__cls-11,.prefix__cls-12,.prefix__cls-13{fill:#d1d0d0}.prefix__cls-12{opacity:.3}.prefix__cls-17{opacity:.4}
        </style>
    </defs>
    <g id="prefix__Group_3612" data-name="Group 3612" transform="translate(-8145.027 -9684.452)">
        <g id="prefix__Group_3608" data-name="Group 3608" transform="translate(8145.027 9684.452)">
            <g id="prefix__Group_3589" data-name="Group 3589" transform="translate(7.55 43.005)">
                <g id="prefix__Group_3583" data-name="Group 3583" transform="translate(15.549)">
                    <path id="prefix__Path_9331" d="M8199.987 9783.713a52.54 52.54 0 0 1 1.741 5.252c-.028.554-1.47 2.042-2.658 7.87s-1.85 8.787-1.85 8.787a3.882 3.882 0 0 0 1.47 3.032c1.511 1.108 3.314-.242 4.141-2.375s5.6-10.5 6.576-12.212 2.043-3.614 1.736-5.633-1.025-5.136-1.025-5.136a8.766 8.766 0 0 0-5.028-1.962c-2.79-.022-5.103 2.377-5.103 2.377z" class="prefix__cls-1" data-name="Path 9331" transform="translate(-8197.068 -9781.182)"/>
                    <path id="prefix__Path_9332" d="M8199.646 9809.009a2 2 0 0 1-1.232-.426 4.029 4.029 0 0 1-1.534-3.16c.014-.058.682-3.056 1.86-8.811a25.4 25.4 0 0 1 2.357-7.177 2.855 2.855 0 0 0 .283-.669 44.385 44.385 0 0 0-1.728-5.194l-.035-.086.07-.07a8.175 8.175 0 0 1 5.175-2.427h.049a8.835 8.835 0 0 1 5.124 2.007l.035.028.011.046c.01.034.726 3.154 1.028 5.149.3 2.069-.791 4.018-1.754 5.731l-.349.6c-1.353 2.388-5.472 9.664-6.227 11.584-.679 1.757-1.904 2.875-3.133 2.875zm-2.47-3.551a3.824 3.824 0 0 0 1.409 2.883 1.812 1.812 0 0 0 1.061.368c1.081 0 2.232-1.071 2.853-2.681.761-1.948 4.747-8.976 6.246-11.623l.341-.605c.942-1.671 2.018-3.569 1.722-5.529-.281-1.85-.912-4.671-1.008-5.079a8.642 8.642 0 0 0-4.9-1.9h-.039a7.839 7.839 0 0 0-4.89 2.271 43.477 43.477 0 0 1 1.712 5.213 2.261 2.261 0 0 1-.319.795 25.352 25.352 0 0 0-2.336 7.1c-1.172 5.761-1.844 8.758-1.854 8.787z" class="prefix__cls-2" data-name="Path 9332" transform="translate(-8196.879 -9780.989)"/>
                </g>
                <path id="prefix__Path_9333" d="M8211.144 9790.092c-.061-.426-.144-.9-.241-1.388a5.515 5.515 0 0 1-.3 1.845c-.589 1.625-2.31 2.854-4.022 2.045-1.775-.835-2.605-2.984-3.329-4.675a12.182 12.182 0 0 0-1.685-3.361c-.1-.08-.2-.161-.3-.23a9.164 9.164 0 0 0-1.275 1.044 52.456 52.456 0 0 1 1.741 5.252c-.028.553-1.47 2.041-2.658 7.871s-1.85 8.785-1.85 8.785a3.882 3.882 0 0 0 1.47 3.032c1.511 1.108 3.314-.241 4.141-2.374s5.6-10.5 6.576-12.212 2.038-3.615 1.732-5.634z" class="prefix__cls-3" data-name="Path 9333" transform="translate(-8181.52 -9782.84)"/>
                <path id="prefix__Path_9334" d="M8203.724 9808.787a3.151 3.151 0 0 1-1.517-1.084 3.047 3.047 0 0 1-.541-2.938c.291-.809.734-1.569 1.011-2.376a3.517 3.517 0 0 0-.02-2.4c-.324-.468-.659-.929-.937-1.406a28.164 28.164 0 0 0-2.65 7.817c-1.185 5.829-1.85 8.786-1.85 8.786a3.882 3.882 0 0 0 1.47 3.032c1.511 1.107 3.314-.241 4.141-2.374.438-1.125 1.982-4 3.487-6.712a3.5 3.5 0 0 1-2.594-.345z" class="prefix__cls-3" data-name="Path 9334" transform="translate(-8181.52 -9790.743)"/>
                <path id="prefix__Path_9335" d="M8218.809 9802.8a2.58 2.58 0 0 1-1.158-.243 3.583 3.583 0 0 1-.457-.265c.451.88 1.068.887 1.615.508z" class="prefix__cls-3" data-name="Path 9335" transform="translate(-8192.595 -9792.801)"/>
                <path id="prefix__Path_9336" d="M8218.35 9802.17a1.219 1.219 0 0 1-1.17-.145c-.044-.034-.128-.012-.111.052.089.283.521.433.783.474s.656.063.7-.267a.134.134 0 0 0-.202-.114z" class="prefix__cls-2" data-name="Path 9336" transform="translate(-8192.524 -9792.646)"/>
                <path id="prefix__Path_9337" d="M8208.413 9799.389a14.844 14.844 0 0 1-1.524-3.217c-.028-.063-.11-.046-.1.018a5.274 5.274 0 0 0 1.548 3.269c.043.034.106-.024.076-.07z" class="prefix__cls-2" data-name="Path 9337" transform="translate(-8186.826 -9789.386)"/>
                <g id="prefix__Group_3584" data-name="Group 3584" transform="translate(15.549 12.938)">
                    <path id="prefix__Path_9338" d="M8202.032 9815.69c-1.422-.76-2.137-2.541-2.487-4.186-.162.623-.321 1.3-.475 2.059-1.185 5.829-1.85 8.787-1.85 8.787a3.882 3.882 0 0 0 1.47 3.032c1.511 1.106 3.314-.242 4.141-2.375.458-1.177 2.115-4.25 3.675-7.062a6.806 6.806 0 0 1-4.474-.255z" class="prefix__cls-4" data-name="Path 9338" transform="translate(-8197.068 -9810.848)"/>
                    <path id="prefix__Path_9339" d="M8199.646 9825.113a2.027 2.027 0 0 1-1.232-.426 4.03 4.03 0 0 1-1.534-3.161c.014-.057.682-3.055 1.86-8.81.143-.72.3-1.417.47-2.058l.16-.629.13.629c.458 2.087 1.272 3.472 2.422 4.081a6.571 6.571 0 0 0 4.367.243l.33-.075-.163.3c-2.066 3.714-3.3 6.077-3.675 7.035-.681 1.758-1.906 2.871-3.135 2.871zm-2.47-3.552a3.824 3.824 0 0 0 1.409 2.883 1.806 1.806 0 0 0 1.061.369c1.081 0 2.232-1.071 2.853-2.681.365-.939 1.551-3.229 3.533-6.792a6.551 6.551 0 0 1-4.256-.328 5.555 5.555 0 0 1-2.42-3.685c-.119.473-.221.951-.326 1.447-1.172 5.76-1.844 8.758-1.854 8.786z" class="prefix__cls-5" data-name="Path 9339" transform="translate(-8196.879 -9810.03)"/>
                </g>
                <path id="prefix__Path_9340" d="M8200.737 9822.206a2.334 2.334 0 0 1-.285-2.109 11.9 11.9 0 0 1 .764-2.514 2.227 2.227 0 0 1 1.033-1.177 7.707 7.707 0 0 1 .95-.312 4.065 4.065 0 0 1-1.167-.4c-1.422-.76-2.137-2.541-2.487-4.186-.162.623-.321 1.3-.475 2.059-1.185 5.829-1.85 8.787-1.85 8.787a3.882 3.882 0 0 0 1.47 3.032c1.511 1.106 3.314-.242 4.141-2.375.068-.174.167-.408.29-.669a1.829 1.829 0 0 1-2.384-.136z" class="prefix__cls-6" data-name="Path 9340" transform="translate(-8181.52 -9797.91)"/>
                <path id="prefix__Path_9341" d="M8198.552 9824.039c-.66-.6-.464-1.8-.207-2.732.3-1.072.456-2.19.781-3.264a5.5 5.5 0 0 1 1.242-2.5 1.093 1.093 0 0 1 1.1-.243 6.842 6.842 0 0 1-1.928-3.8c-.162.623-.321 1.3-.475 2.059-1.185 5.829-1.85 8.787-1.85 8.787a3.979 3.979 0 0 0 1.2 2.825 2.584 2.584 0 0 1 .137-1.132z" class="prefix__cls-6" data-name="Path 9341" transform="translate(-8181.52 -9797.91)"/>
                <g id="prefix__Group_3585" data-name="Group 3585" transform="translate(12.68 21.967)">
                    <path id="prefix__Path_9342" d="M8195.144 9834.316a3.854 3.854 0 0 1 3.434-1.281c1.977.439 1.977 2.291 1.928 3.26a6.385 6.385 0 0 0 1.871 4.744c1.755 1.828 2.366 2.715 2.49 3.58s-.1 2.266-.813 2.641-5.589 1.648-8.461-.254-3.547-5.787-3.674-7.01a10.824 10.824 0 0 0-.741-3.6 2.976 2.976 0 0 1 .2-3.258c.837-1.475 1.988-2.869 2.772-2.41l-.181.838a6.8 6.8 0 0 0 1.175 2.75z" class="prefix__cls-7" data-name="Path 9342" transform="translate(-8190.63 -9830.487)"/>
                    <path id="prefix__Path_9343" d="M8199.475 9847.992a7.419 7.419 0 0 1-4.155-1.049c-3.067-2.036-3.654-6.291-3.747-7.12l-.021-.2a10.2 10.2 0 0 0-.7-3.343 3.092 3.092 0 0 1 .207-3.4c.551-.964 1.611-2.578 2.568-2.578a.75.75 0 0 1 .41.116l.095.051-.193.911a6.731 6.731 0 0 0 1.019 2.514 4.091 4.091 0 0 1 2.775-1.263 3.37 3.37 0 0 1 .68.075c2.206.473 2.088 2.682 2.053 3.407a6.157 6.157 0 0 0 1.831 4.636c1.754 1.84 2.4 2.762 2.531 3.666s-.1 2.377-.9 2.791a12.118 12.118 0 0 1-4.453.786zm-5.848-17.39c-.57 0-1.457.93-2.3 2.428a2.8 2.8 0 0 0-.2 3.1 10.686 10.686 0 0 1 .735 3.46l.015.194c.089.814.656 4.937 3.621 6.908a7.145 7.145 0 0 0 3.981.992 12.1 12.1 0 0 0 4.313-.75c.636-.335.858-1.673.74-2.485-.124-.836-.74-1.712-2.447-3.5a6.453 6.453 0 0 1-1.92-4.861c.054-1.147-.064-2.715-1.819-3.09a2.688 2.688 0 0 0-.608-.074 3.953 3.953 0 0 0-2.67 1.291l-.117.144-.113-.149a6.848 6.848 0 0 1-1.205-2.809v-.028l.159-.755a1.05 1.05 0 0 0-.165-.018z" class="prefix__cls-8" data-name="Path 9343" transform="translate(-8190.438 -9830.298)"/>
                </g>
                <path id="prefix__Path_9344" d="M8195.979 9849.138c-3.038-2.024-3.038-7.086-3.793-9.312a17.532 17.532 0 0 0-1.062-2.421 2.791 2.791 0 0 0 .056 2.744 10.813 10.813 0 0 1 .74 3.6c.128 1.223.813 5.108 3.676 7.011s7.756.641 8.462.254a1.44 1.44 0 0 0 .6-.777 11.66 11.66 0 0 1-8.679-1.099z" class="prefix__cls-8" data-name="Path 9344" transform="translate(-8177.954 -9812.272)"/>
                <g id="prefix__Group_3586" data-name="Group 3586" transform="translate(1.325 5.621)">
                    <path id="prefix__Path_9345" d="M8165.353 9795.272a20.7 20.7 0 0 1 1.021 4.249 48.934 48.934 0 0 0 1.663 11.936c1.666 6.728 3.266 11.185 3.266 11.185l4.322-.167s-.174-8.228-.271-12.385c-.1-4.14-.276-12.943-.041-14.1s-2.684-1.735-4.967-2.007-4.993 1.289-4.993 1.289z" class="prefix__cls-1" data-name="Path 9345" transform="translate(-8165.173 -9793.796)"/>
                    <path id="prefix__Path_9346" d="M8170.975 9822.607l-.033-.1c-.021-.041-1.624-4.537-3.272-11.2a49.942 49.942 0 0 1-1.666-11.665l-.007-.3a21.436 21.436 0 0 0-1.006-4.2l-.04-.12.1-.058a10.617 10.617 0 0 1 4.52-1.35 3.861 3.861 0 0 1 .576.035c2.782.334 4.445.853 4.938 1.539a.769.769 0 0 1 .152.646c-.2.991-.112 8.2.034 14.074.105 4.1.272 12.3.277 12.378v.151zm-5.658-27.455a19.235 19.235 0 0 1 .98 4.18l.011.3a49.04 49.04 0 0 0 1.658 11.593c1.5 6.089 2.976 10.361 3.225 11.071l4.051-.156c-.021-1.136-.173-8.436-.265-12.229-.055-2.132-.3-12.838-.034-14.143a.483.483 0 0 0-.095-.4c-.431-.611-2.116-1.108-4.731-1.43-.172-.012-.36-.025-.542-.025a10.361 10.361 0 0 0-4.258 1.239z" class="prefix__cls-2" data-name="Path 9346" transform="translate(-8164.951 -9793.606)"/>
                </g>
                <path id="prefix__Path_9347" d="M8175.353 9811.034c-.1-4.14-.276-12.943-.041-14.1.11-.542-.478-.962-1.372-1.28.091.347.179.7.242 1.056.306 1.574.493 3.4-.492 4.786a3.21 3.21 0 0 1-4.78.409c-1.753-1.534-1.726-3.938-2.468-5.991a.12.12 0 0 1 .056-.155.547.547 0 0 1-.062-.063c-.65.282-1.083.524-1.083.524a20.7 20.7 0 0 1 1.021 4.249 48.929 48.929 0 0 0 1.663 11.936c1.666 6.728 3.266 11.185 3.266 11.185l4.322-.167s-.175-8.232-.272-12.389zm-.539 5.3c.158.116.014.381-.153.271-.009-.012-.009-.012-.014-.012a11.967 11.967 0 0 1-.449 1.4c-.07.185-.36.1-.292-.075a10.425 10.425 0 0 0 .47-1.521c-1.1-.784-2.142-1.648-3.3-2.354-2 .434-2.537-2.3-2.732-3.746a26.2 26.2 0 0 1-.208-3.183c-.006-1.229.015-2.716 1.194-3.436a1.624 1.624 0 0 1 .761-.175 5.334 5.334 0 0 0 1.493-.234c.533-.174 1.393-.537 1.935-.14a1.909 1.909 0 0 1 .681 1.32c.117.825.2 1.655.325 2.474.449 3 .889 6.227.229 9.242a.648.648 0 0 0-.007.121c.018.014.037.041.066.047z" class="prefix__cls-3" data-name="Path 9347" transform="translate(-8163.849 -9789.119)"/>
                <path id="prefix__Path_9348" d="M8185.949 9799.465c.2 2.33-.138 4.746-.074 7.058.02.848.055 1.706.11 2.554.132.946.256 1.9.395 2.849a1.766 1.766 0 0 1 .028.2c.056.063.118.121.182.185-.015-.382-.023-.727-.023-1.062-.1-4.14-.276-12.944-.04-14.1.1-.45-.3-.818-.95-1.106a13.367 13.367 0 0 1 .348 2.79c.01.212.02.419.024.632z" class="prefix__cls-3" data-name="Path 9348" transform="translate(-8175.063 -9789.336)"/>
                <path id="prefix__Path_9349" d="M8178.371 9847.155a8.663 8.663 0 0 1-3.37-1.58 5.381 5.381 0 0 1-.479-.536c1.061 3.689 1.864 5.934 1.864 5.934l4.322-.167-.062-2.849c-.756-.271-1.511-.557-2.275-.802z" class="prefix__cls-3" data-name="Path 9349" transform="translate(-8168.933 -9816.506)"/>
                <path id="prefix__Path_9350" d="M8167.69 9809.479c-.035-.287-.055-.57-.075-.853-.093-1.32.366-2.6.353-3.915a17.4 17.4 0 0 0-.895-3.962 43.743 43.743 0 0 0-1.185-4.231c-.764-.027-.05 1.292.055 1.7a19.752 19.752 0 0 1 .424 2.237c.257 2.116.262 4.255.567 6.371.248 1.765.638 3.506 1.018 5.235-.06-.861-.178-1.723-.262-2.582z" class="prefix__cls-3" data-name="Path 9350" transform="translate(-8163.952 -9789.6)"/>
                <path id="prefix__Path_9351" d="M8174.751 9811.314a1.178 1.178 0 0 0 1.361.25 2.334 2.334 0 0 0 .582-.623 3.418 3.418 0 0 1-2.31-.5 1.208 1.208 0 0 0 .367.873z" class="prefix__cls-3" data-name="Path 9351" transform="translate(-8168.857 -9797.323)"/>
                <g id="prefix__Group_3587" data-name="Group 3587" transform="translate(3.759 22.139)">
                    <path id="prefix__Path_9352" d="M8170.93 9831.358c.068.276.129.554.2.843 1.667 6.728 3.267 11.185 3.267 11.185l4.322-.168s-.16-7.431-.264-11.732a10.9 10.9 0 0 1-3.473.778 7.044 7.044 0 0 1-4.052-.906z" class="prefix__cls-4" data-name="Path 9352" transform="translate(-8170.7 -9831.059)"/>
                    <path id="prefix__Path_9353" d="M8174 9843.168l-.034-.1c-.021-.042-1.623-4.538-3.271-11.2-.064-.242-.119-.473-.167-.7l-.119-.473.306.167a6.8 6.8 0 0 0 3.961.889 11.064 11.064 0 0 0 3.434-.767l.207-.087.006.225c.1 4.3.256 11.728.256 11.728v.15zm-3.133-11.89l.123.509c1.5 6.089 2.976 10.36 3.226 11.069l4.05-.155c-.014-1.05-.152-7.4-.241-11.363a11.984 11.984 0 0 1-3.329.709 7.115 7.115 0 0 1-3.824-.769z" class="prefix__cls-5" data-name="Path 9353" transform="translate(-8170.413 -9830.686)"/>
                </g>
                <path id="prefix__Path_9354" d="M8178.454 9831.485c-.126.053-.266.11-.4.162a13.178 13.178 0 0 1-.478 5.356c-.527 1.435-1.92 2.283-3.335 1.285-1.963-1.39-1.8-4.3-2.35-6.481a6.812 6.812 0 0 1-.957-.449c.068.276.129.554.2.843 1.667 6.728 3.267 11.185 3.267 11.185l4.322-.168s-.166-7.431-.269-11.733z" class="prefix__cls-6" data-name="Path 9354" transform="translate(-8166.941 -9808.919)"/>
                <path id="prefix__Path_9355" d="M8176.73 9811.249c-.221-.109-.467-.161-.686-.26-.259-.1-.487-.26-.738-.352-.149-.057-.241.115-.193.236.218.542 1.075.582 1.555.593.111.001.182-.166.062-.217z" class="prefix__cls-2" data-name="Path 9355" transform="translate(-8169.253 -9797.424)"/>
                <g id="prefix__Group_3588" data-name="Group 3588" transform="translate(0 28.978)">
                    <path id="prefix__Path_9356" d="M8169.231 9847.777a3.49 3.49 0 0 1 4.155-.051s.554-.2.527-1.113a1.443 1.443 0 0 1 1.259 1.286 18.764 18.764 0 0 0 .666 3.269c.375 1.142 1.416 5.7.424 7.16s-7.844 1.366-10.7.687-3.543-2-3.143-3.616 2.1-3.216 3.19-4.456a5.649 5.649 0 0 0 1.546-3.009c.068-.715.2-1.32.8-1.522a5.219 5.219 0 0 1 1.276 1.365z" class="prefix__cls-7" data-name="Path 9356" transform="translate(-8162.164 -9846.244)"/>
                    <path id="prefix__Path_9357" d="M8170.5 9859.436a24.974 24.974 0 0 1-5.16-.479 4.582 4.582 0 0 1-3.029-1.735 2.6 2.6 0 0 1-.222-2.069 10.065 10.065 0 0 1 2.6-3.829c.212-.235.425-.468.618-.691a5.477 5.477 0 0 0 1.507-2.924c.076-.709.208-1.418.914-1.653l.078-.018.061.046a6.153 6.153 0 0 1 1.228 1.27 4.134 4.134 0 0 1 2.171-.681 3.2 3.2 0 0 1 1.943.667.986.986 0 0 0 .359-.928l-.009-.172.173.017a1.625 1.625 0 0 1 1.4 1.419q.075.415.128.8a13.5 13.5 0 0 0 .524 2.444c.389 1.164 1.436 5.765.418 7.292-.75 1.101-4.238 1.224-5.702 1.224zm-2.747-13.06c-.431.179-.554.622-.632 1.361a5.749 5.749 0 0 1-1.579 3.1c-.2.225-.41.455-.632.691a9.989 9.989 0 0 0-2.525 3.7 2.3 2.3 0 0 0 .188 1.834 4.328 4.328 0 0 0 2.836 1.6 24.333 24.333 0 0 0 5.092.484c2.912 0 5-.427 5.451-1.107.949-1.407-.083-5.933-.452-7.028a14.464 14.464 0 0 1-.533-2.492c-.041-.246-.076-.518-.125-.788a1.346 1.346 0 0 0-.962-1.142 1.173 1.173 0 0 1-.631 1.084l-.084.023-.064-.052a2.889 2.889 0 0 0-1.83-.67 3.907 3.907 0 0 0-2.13.722l-.153.114-.074-.173a4.872 4.872 0 0 0-1.162-1.261z" class="prefix__cls-8" data-name="Path 9357" transform="translate(-8161.976 -9846.036)"/>
                </g>
                <path id="prefix__Path_9358" d="M8165.512 9867.855a4.244 4.244 0 0 1-2.837-2.86 4.556 4.556 0 0 0-.256.709c-.4 1.615.285 2.93 3.143 3.615s9.717.783 10.7-.686a3.54 3.54 0 0 0 .415-1.886c-1.766 1.816-8.529 1.726-11.165 1.108z" class="prefix__cls-8" data-name="Path 9358" transform="translate(-8162.164 -9827.572)"/>
                <path id="prefix__Path_9359" d="M8179.472 9847.817a4.588 4.588 0 0 0-2.322.4 3.361 3.361 0 0 0-1.27 1.487.071.071 0 0 0 .1.092 9.14 9.14 0 0 0 .848-.8 3 3 0 0 1 2.191-.721 3.477 3.477 0 0 1 2.975 1.638.045.045 0 0 0 .084-.029 2.926 2.926 0 0 0-2.606-2.067z" class="prefix__cls-8" data-name="Path 9359" transform="translate(-8169.679 -9818.038)"/>
                <path id="prefix__Path_9360" d="M8203.425 9835.669a2.847 2.847 0 0 0-3.655 2.611c.009.08.118.1.138.029a3.2 3.2 0 0 1 1.437-2 5.55 5.55 0 0 1 2.081-.571c.019-.001.033-.051-.001-.069z" class="prefix__cls-8" data-name="Path 9360" transform="translate(-8182.931 -9811.212)"/>
                <path id="prefix__Path_9361" d="M8204.866 9844.619a3.642 3.642 0 0 0-.749-1.592c.483 1.043.567 2.111-.963 2.313a7.187 7.187 0 0 1-6.9-3.367c-1.22-1.9-1.935-5.783.34-7.523a3.541 3.541 0 0 1 3.267-.711 2.413 2.413 0 0 0-1.282-.7 3.854 3.854 0 0 0-3.434 1.281 6.8 6.8 0 0 1-1.174-2.75l.181-.838c-.784-.459-1.935.936-2.772 2.41a2.976 2.976 0 0 0-.2 3.258 10.824 10.824 0 0 1 .741 3.6c.127 1.223.813 5.107 3.674 7.01s7.756.641 8.461.254.944-1.78.81-2.645z" class="prefix__cls-9" data-name="Path 9361" transform="translate(-8177.951 -9808.521)"/>
                <path id="prefix__Path_9362" d="M8204.575 9846.205a7.327 7.327 0 0 1-3.85.2c-2.578-.381-5-1.787-5.859-4.359-.777-2.275-1.061-5.627.366-7.725a3.281 3.281 0 0 1 .325-.4 3.334 3.334 0 0 0-.414.4 6.8 6.8 0 0 1-1.174-2.75l.181-.838c-.784-.459-1.935.936-2.772 2.41a2.976 2.976 0 0 0-.2 3.258 10.824 10.824 0 0 1 .741 3.6c.127 1.223.813 5.107 3.674 7.01s7.756.641 8.461.254a1.77 1.77 0 0 0 .735-1.182c-.069.034-.143.081-.214.122z" class="prefix__cls-9" data-name="Path 9362" transform="translate(-8177.951 -9808.521)"/>
                <path id="prefix__Path_9363" d="M8175.838 9851.168a18.764 18.764 0 0 1-.666-3.269 1.443 1.443 0 0 0-1.259-1.286 1.14 1.14 0 0 1-.411 1.043 3.606 3.606 0 0 1 .714.784 8.3 8.3 0 0 1 1.04 6.358c-1.471 5-15.942 2.342-8.855-3.446a16.96 16.96 0 0 0 2.2-2.761 5.37 5.37 0 0 1 1.4-1.241 4.031 4.031 0 0 0-.771.427 5.219 5.219 0 0 0-1.271-1.366c-.6.2-.735.808-.8 1.522a5.649 5.649 0 0 1-1.546 3.009c-1.089 1.24-2.781 2.832-3.19 4.456s.285 2.93 3.143 3.616 9.717.784 10.7-.687-.053-6.017-.428-7.159z" class="prefix__cls-9" data-name="Path 9363" transform="translate(-8162.164 -9817.267)"/>
                <path id="prefix__Path_9364" d="M8176.34 9860.067a4.145 4.145 0 0 1-.778 3.09c-1.3 1.476-4.237 1.822-6.187 1.748-1.983-.077-4.8-.542-5.68-2.428-.567-1.194.479-2.687 1.032-3.708a9.128 9.128 0 0 0-2.309 3.482c-.4 1.614.285 2.93 3.143 3.615s9.717.783 10.7-.686c.662-.98.416-3.315.079-5.113z" class="prefix__cls-9" data-name="Path 9364" transform="translate(-8162.164 -9824.119)"/>
            </g>
            <g id="prefix__Group_3596" data-name="Group 3596" transform="translate(7.175 32.956)">
                <path id="prefix__Path_9365" d="M8205.065 9791.135c.16.455.325.934.479 1.39a.139.139 0 0 1 .084-.006q-.303-.685-.563-1.384z" class="prefix__cls-3" data-name="Path 9365" transform="translate(-8185.495 -9776.565)"/>
                <g id="prefix__Group_3590" data-name="Group 3590" transform="translate(.316)">
                    <path id="prefix__Path_9366" d="M8165.9 9760.53a3.048 3.048 0 0 0-3.528 1.516c-.6 1.332.43.825.182 2.722a42.134 42.134 0 0 0 .173 9.369l.075.877a14.041 14.041 0 0 0 8.357 2.028c5.026-.3 5.408-1.948 5.408-1.948a25.386 25.386 0 0 1-.935-4.583 11.565 11.565 0 0 1 .532-3.713s.682.172 1.318 2.571a31.823 31.823 0 0 0 1.914 5.471s1.929-2.785 6.685-3.674 6.354.2 6.429.33-.839-3.108-1.568-5.87-.885-4.958-1.948-5.361-8.1-.985-12.475-1.441-8.652 2.018-10.619 1.706z" class="prefix__cls-10" data-name="Path 9366" transform="translate(-8162.033 -9758.617)"/>
                    <path id="prefix__Path_9367" d="M8170.065 9777.03a14.225 14.225 0 0 1-7.532-2.075l-.061-.035-.078-.963a42.286 42.286 0 0 1-.179-9.4 1.991 1.991 0 0 0-.2-1.465c-.187-.351-.277-.6.034-1.3a2.943 2.943 0 0 1 2.877-1.671 5.791 5.791 0 0 1 .819.067 2.267 2.267 0 0 0 .354.023 13.1 13.1 0 0 0 3.078-.668 21.89 21.89 0 0 1 6.048-1.118c.387 0 .762.017 1.122.051 1.075.115 2.317.237 3.581.352a83.082 83.082 0 0 1 8.93 1.1c.868.329 1.159 1.644 1.568 3.471.133.6.285 1.286.479 2 .291 1.106.611 2.283.889 3.286.721 2.635.721 2.635.656 2.722l-.046.063-.161-.006-.05-.074a5.131 5.131 0 0 0-2.96-.6 18.4 18.4 0 0 0-3.306.34c-4.635.864-6.57 3.573-6.583 3.608l-.116.167-.134-.161a32.242 32.242 0 0 1-1.948-5.517 4.958 4.958 0 0 0-1.082-2.388 11.534 11.534 0 0 0-.463 3.482 24.673 24.673 0 0 0 .933 4.543v.075c-.02.069-.463 1.759-5.554 2.064-.303.027-.617.027-.915.027zm-7.3-2.283a14.055 14.055 0 0 0 7.3 1.983c.292 0 .6-.012.894-.028 4.42-.265 5.175-1.568 5.264-1.8a24.7 24.7 0 0 1-.922-4.572 11.441 11.441 0 0 1 .533-3.775l.049-.14.134.047c.074.023.789.272 1.429 2.688a34.618 34.618 0 0 0 1.8 5.229 11.052 11.052 0 0 1 6.627-3.54 18.064 18.064 0 0 1 3.364-.345 6.778 6.778 0 0 1 2.865.488c-.128-.461-.354-1.319-.6-2.207-.27-1.009-.6-2.2-.887-3.292-.193-.715-.346-1.408-.479-2.013-.39-1.729-.666-2.976-1.381-3.252a86.355 86.355 0 0 0-8.856-1.077c-1.276-.121-2.511-.244-3.585-.353-.347-.034-.712-.059-1.088-.059a21.615 21.615 0 0 0-5.958 1.113 13.249 13.249 0 0 1-3.168.682 2.136 2.136 0 0 1-.4-.03 4.631 4.631 0 0 0-.77-.068 2.665 2.665 0 0 0-2.6 1.5c-.271.605-.187.762-.049 1.021a2.23 2.23 0 0 1 .237 1.654 42.3 42.3 0 0 0 .181 9.323z" class="prefix__cls-11" data-name="Path 9367" transform="translate(-8161.844 -9758.432)"/>
                </g>
                <g id="prefix__Group_3591" data-name="Group 3591" transform="translate(23.017 .87)">
                    <path id="prefix__Path_9368" d="M8219.087 9765.963c-.571-2.389-.793-4.222-1.75-4.585a27.453 27.453 0 0 0-4.048-.6 8.819 8.819 0 0 0 5.798 5.185z" class="prefix__cls-11" data-name="Path 9368" transform="translate(-8213.072 -9760.601)"/>
                    <path id="prefix__Path_9369" d="M8219.031 9765.977l-.258-.086a8.919 8.919 0 0 1-5.9-5.281l-.07-.225.237.028a25.374 25.374 0 0 1 4.076.605c.867.329 1.159 1.644 1.568 3.471.089.386.182.8.284 1.229zm-5.784-5.24a8.656 8.656 0 0 0 5.361 4.785c-.076-.335-.151-.656-.216-.963-.389-1.735-.665-2.98-1.38-3.257a25.275 25.275 0 0 0-3.765-.566z" class="prefix__cls-11" data-name="Path 9369" transform="translate(-8212.803 -9760.385)"/>
                </g>
                <g id="prefix__Group_3592" data-name="Group 3592" transform="translate(.316 1.037)">
                    <path id="prefix__Path_9370" d="M8162.592 9765.813c2.474.559 4.825-1.2 6.1-3.3.242-.391.45-.795.651-1.2a9.479 9.479 0 0 1-3.441.633 3.049 3.049 0 0 0-3.529 1.518c-.56 1.224.3.878.219 2.349z" class="prefix__cls-11" data-name="Path 9370" transform="translate(-8162.032 -9761.063)"/>
                    <path id="prefix__Path_9371" d="M8163.332 9765.764a4.444 4.444 0 0 1-.963-.1l-.128-.034.009-.126a1.7 1.7 0 0 0-.235-1.12c-.187-.352-.277-.6.034-1.3a2.943 2.943 0 0 1 2.877-1.673 5.8 5.8 0 0 1 .819.069 2.392 2.392 0 0 0 .354.023 12.686 12.686 0 0 0 3.015-.652l.326-.1-.144.311c-.23.462-.444.854-.661 1.206-1.026 1.699-2.954 3.496-5.303 3.496zm-.771-.369a4.311 4.311 0 0 0 .771.076c2.225 0 4.064-1.729 5.047-3.345.162-.265.32-.559.479-.882a8.524 8.524 0 0 1-3.162.542 4.533 4.533 0 0 0-.77-.069 2.665 2.665 0 0 0-2.6 1.5c-.271.605-.187.761-.049 1.021a2.02 2.02 0 0 1 .285 1.157z" class="prefix__cls-11" data-name="Path 9371" transform="translate(-8161.844 -9760.76)"/>
                </g>
                <g id="prefix__Group_3593" data-name="Group 3593" transform="translate(12.46 7.604)">
                    <path id="prefix__Path_9372" d="M8193.421 9776.222a2.391 2.391 0 0 0-1.706-.351c-.776.132-1.456.645-2.226.72a.044.044 0 0 0-.015.086c.508.225.992-.052 1.491-.2a5.439 5.439 0 0 1 2.421-.127c.069.016.091-.088.035-.128z" class="prefix__cls-11" data-name="Path 9372" transform="translate(-8189.292 -9775.686)"/>
                    <path id="prefix__Path_9373" d="M8189.69 9776.729a1.176 1.176 0 0 1-.468-.093.207.207 0 0 1-.116-.214.2.2 0 0 1 .181-.167 3.966 3.966 0 0 0 1.13-.358 4.585 4.585 0 0 1 1.09-.356 2.513 2.513 0 0 1 1.8.363.243.243 0 0 1 .1.253.223.223 0 0 1-.2.163 8.708 8.708 0 0 0-1.047-.082 4.244 4.244 0 0 0-1.331.2c-.1.029-.193.057-.3.092a2.449 2.449 0 0 1-.839.199zm2.252-.924a2.314 2.314 0 0 0-.386.029 4.219 4.219 0 0 0-1.021.353c-.145.051-.3.12-.45.172.118-.029.228-.068.346-.109s.207-.069.306-.1a4.854 4.854 0 0 1 1.421-.214c.188 0 .375.019.589.035a2.032 2.032 0 0 0-.805-.165z" class="prefix__cls-11" data-name="Path 9373" transform="translate(-8189.104 -9775.501)"/>
                </g>
                <path id="prefix__Path_9374" d="M8180.644 9764.393a9.838 9.838 0 0 1 7.205-.033c2.738 1.256 3.087 4.368 4.563 6.682-.257-.97-.909-3.327-1.466-5.415-.74-2.755-.885-4.958-1.948-5.361s-8.1-.985-12.475-1.441-8.656 2.019-10.619 1.707a3.048 3.048 0 0 0-3.528 1.516c-.6 1.332.43.825.182 2.722a42.134 42.134 0 0 0 .173 9.369l.075.877a11.685 11.685 0 0 0 2.531 1.222c-.075-.34-.153-.68-.223-1.015-.8-3.88-1.3-10.176 3.814-11.22a3.7 3.7 0 0 1 3.753 1.211 6.789 6.789 0 0 1 1.282 3.8c.188 2.047.249 5.241 1.8 6.937.716-.449.806-.854.806-.854a25.386 25.386 0 0 1-.935-4.583 11.565 11.565 0 0 1 .532-3.713s.682.172 1.318 2.571a31.823 31.823 0 0 0 1.914 5.471 8.122 8.122 0 0 1 1.871-1.724 23.918 23.918 0 0 1-1.274-2.491c-.85-1.963-2.036-5.203.649-6.235z" class="prefix__cls-12" data-name="Path 9374" transform="translate(-8161.716 -9758.617)"/>
                <path id="prefix__Path_9375" d="M8197.032 9781.881a13 13 0 0 1-1.062-2.963c-.147-.75-.055-1.943-.833-2.37a2.386 2.386 0 0 0-1.524-.242c-.015.006-.021.023-.035.04a1.328 1.328 0 0 1 .04.174c.168.093.736.519 1.277 2.561a31.68 31.68 0 0 0 1.914 5.47 6.926 6.926 0 0 1 1.067-1.1 10.758 10.758 0 0 1-.844-1.57z" class="prefix__cls-13" data-name="Path 9375" transform="translate(-8179.125 -9768.327)"/>
                <path id="prefix__Path_9376" d="M8163.22 9769.068c-.1-1.36-.067-2.911 1.1-3.833 3.564-2.814 8.64-2.947 12.941-2.4 2.822.364 5.65.859 8.446.121 1.066-.288 3.08-.859 4.021-1.926a1.431 1.431 0 0 0-.729-.767c-1.065-.409-8.1-.985-12.475-1.441s-8.656 2.019-10.619 1.707a3.048 3.048 0 0 0-3.528 1.516c-.6 1.332.43.825.182 2.722a42.134 42.134 0 0 0 .173 9.369l.075.877a9.947 9.947 0 0 0 1.291.709c-.058-.15-.112-.317-.16-.467a29.833 29.833 0 0 1-.718-6.187z" class="prefix__cls-13" data-name="Path 9376" transform="translate(-8161.716 -9758.617)"/>
                <g id="prefix__Group_3594" data-name="Group 3594" transform="translate(16.793 11.161)">
                    <path id="prefix__Path_9377" d="M8199.206 9788.129a12.852 12.852 0 0 1 7.44-3.973c4.555-.783 5.9.059 6.256.409s.657 1.465.423 1.674-3.231-1.1-6.729.022a18.354 18.354 0 0 0-6.373 3.36c-.504.405-1.214-1.111-1.017-1.492z" class="prefix__cls-10" data-name="Path 9377" transform="translate(-8199.021 -9783.678)"/>
                    <path id="prefix__Path_9378" d="M8199.848 9789.655c-.312 0-.569-.346-.693-.56-.235-.393-.418-.963-.271-1.228a13.007 13.007 0 0 1 7.544-4.055 20.8 20.8 0 0 1 3.33-.328c1.983 0 2.768.484 3.059.784a2.562 2.562 0 0 1 .553 1.522.466.466 0 0 1-.129.362.294.294 0 0 1-.2.059 4.425 4.425 0 0 1-.687-.109 14.218 14.218 0 0 0-2.92-.347 9.758 9.758 0 0 0-2.98.456 18.238 18.238 0 0 0-6.333 3.338.417.417 0 0 1-.273.106zm9.91-5.864a19.914 19.914 0 0 0-3.272.329 12.642 12.642 0 0 0-7.331 3.886 1.451 1.451 0 0 0 .256.934c.153.249.327.41.438.41a.133.133 0 0 0 .092-.04 18.434 18.434 0 0 1 6.419-3.385 10.1 10.1 0 0 1 3.079-.473 14.173 14.173 0 0 1 2.983.357 5.859 5.859 0 0 0 .623.1h.008a2.2 2.2 0 0 0-.452-1.431c-.208-.203-.894-.687-2.843-.687z" class="prefix__cls-11" data-name="Path 9378" transform="translate(-8198.831 -9783.485)"/>
                </g>
                <path id="prefix__Path_9379" d="M8204.836 9787.211a4.619 4.619 0 0 1-2.394.778 1.38 1.38 0 0 1-.937-.564 9.221 9.221 0 0 0-2.3 1.959c-.2.382.513 1.9 1.018 1.494a18.334 18.334 0 0 1 6.373-3.361c3.5-1.118 6.508.173 6.729-.022.1-.093.1-.357.042-.651a10.343 10.343 0 0 0-8.531.367z" class="prefix__cls-12" data-name="Path 9379" transform="translate(-8182.228 -9773.771)"/>
                <path id="prefix__Path_9380" d="M8205.177 9790.3c-1.146.363-2.65 1.239-3.878.761a1.625 1.625 0 0 1-.751-.651 6.74 6.74 0 0 0-1.342 1.274c-.2.381.513 1.9 1.018 1.493a18 18 0 0 1 5.125-2.935c-.054.017-.118.034-.172.058z" class="prefix__cls-12" data-name="Path 9380" transform="translate(-8182.228 -9776.07)"/>
                <g id="prefix__Group_3595" data-name="Group 3595" transform="translate(0 14.217)">
                    <path id="prefix__Path_9381" d="M8164.581 9792.681c1.145.432 4.909 1.418 7.317.847a10.58 10.58 0 0 0 3.684-1.539c.588-.363.687.046.934.8s.306 1.332-.942 1.867a16.294 16.294 0 0 1-7.78.97c-3.4-.434-5.7-1.125-6.074-1.84s-.363-3 .372-3.079l.118.531s.13.611 2.371 1.443z" class="prefix__cls-10" data-name="Path 9381" transform="translate(-8161.322 -9790.547)"/>
                    <path id="prefix__Path_9382" d="M8169.5 9795.7a15.874 15.874 0 0 1-1.912-.121c-1.668-.214-5.62-.83-6.2-1.92a4.209 4.209 0 0 1 .009-2.911.637.637 0 0 1 .493-.387l.139-.012.138.663s.214.559 2.281 1.332a18.9 18.9 0 0 0 5.563 1.014 6.768 6.768 0 0 0 1.663-.184 9.86 9.86 0 0 0 3.462-1.406l.18-.1a.835.835 0 0 1 .438-.161c.38 0 .514.4.678.945l.043.1c.247.785.339 1.472-1.035 2.06a16.4 16.4 0 0 1-5.94 1.088zm-7.7-4.976a.455.455 0 0 0-.129.167 3.818 3.818 0 0 0 0 2.623c.268.514 1.969 1.251 5.949 1.765a15.3 15.3 0 0 0 1.879.116 16.256 16.256 0 0 0 5.824-1.073c1.153-.5 1.09-.957.862-1.678l-.044-.1c-.138-.472-.233-.731-.386-.731a.611.611 0 0 0-.279.115l-.18.1a10.582 10.582 0 0 1-3.552 1.453 7.692 7.692 0 0 1-1.731.173 19.157 19.157 0 0 1-5.669-1.021c-2.252-.841-2.452-1.482-2.467-1.552z" class="prefix__cls-11" data-name="Path 9382" transform="translate(-8161.135 -9790.346)"/>
                </g>
                <path id="prefix__Path_9383" d="M8164.586 9792.687a.006.006 0 0 1-.006-.006c-2.24-.832-2.372-1.441-2.372-1.441l-.118-.531c-.735.076-.756 2.358-.372 3.079.332.641 2.191 1.251 4.993 1.684a3.378 3.378 0 0 1-2.125-2.785z" class="prefix__cls-12" data-name="Path 9383" transform="translate(-8161.322 -9776.329)"/>
                <path id="prefix__Path_9384" d="M8163.174 9792.058c-.888-.5-.966-.818-.966-.818l-.118-.531c-.735.076-.756 2.358-.372 3.079.242.461 1.283.905 2.892 1.28a5.165 5.165 0 0 1-1.436-3.01z" class="prefix__cls-12" data-name="Path 9384" transform="translate(-8161.322 -9776.329)"/>
                <path id="prefix__Path_9385" d="M8191.157 9794.215c-.247-.755-.345-1.164-.933-.8-.23.139-.508.329-.883.531.375 1.232-.331 2.173-1.465 2.836a13.851 13.851 0 0 0 2.339-.7c1.249-.534 1.185-1.101.942-1.867z" class="prefix__cls-12" data-name="Path 9385" transform="translate(-8175.963 -9777.755)"/>
            </g>
            <g id="prefix__Group_3598" data-name="Group 3598" transform="translate(0 18.104)">
                <g id="prefix__Group_3597" data-name="Group 3597">
                    <path id="prefix__Path_9386" d="M8149.378 9725.862a17.571 17.571 0 0 1-.5 3.794c-.557 2.635-1.47 7.039-1.312 9.772a7.95 7.95 0 0 1-1.115 5.31c-1.015 2.076-1.214 2.687-1.015 4.249s.911 3.547 1.825 3.7a2.424 2.424 0 0 0 1.746.543 7.849 7.849 0 0 0 1.79 1.056s.326.547.73.479.968-.935.888-1.8a2.627 2.627 0 0 0-.75-1.644 5.311 5.311 0 0 1-.418-2.606 19.208 19.208 0 0 1 1.577 2.156c.5 1.066 1.727-.271.734-2.226s-.68-2.681-1.366-3.494-.911-.928-.812-1.792 2-10.1 2.711-11.969 1.165-2.429.555-3.547-5.363-3.343-5.268-1.981z" class="prefix__cls-1" data-name="Path 9386" transform="translate(-8145.213 -9725.279)"/>
                    <path id="prefix__Path_9387" d="M8151.268 9754.731a1.061 1.061 0 0 1-.758-.5 8.4 8.4 0 0 1-1.738-1.038 2.6 2.6 0 0 1-1.77-.553c-1.062-.237-1.728-2.457-1.905-3.811-.2-1.615.011-2.262 1.026-4.343a7.774 7.774 0 0 0 1.095-5.24c-.153-2.831.8-7.369 1.323-9.809a17.1 17.1 0 0 0 .5-3.764.517.517 0 0 1 .127-.387.767.767 0 0 1 .588-.2c1.3 0 4.336 1.558 4.834 2.479.542.98.292 1.591-.193 2.79-.111.261-.23.555-.349.883-.706 1.845-2.6 11.076-2.7 11.935-.075.692.05.836.548 1.407.069.085.147.178.23.276a3 3 0 0 1 .594 1.361 9.206 9.206 0 0 0 .793 2.155 2.612 2.612 0 0 1 .159 2.439.706.706 0 0 1-.577.386c-.138 0-.4-.063-.588-.461a5.673 5.673 0 0 0-.992-1.4c-.123-.144-.251-.276-.346-.4a5.74 5.74 0 0 0 .43 2.087l.13.162a2.581 2.581 0 0 1 .646 1.557c.1.911-.484 1.879-1 1.971a.535.535 0 0 1-.107.018zm-2.406-1.851l.049.041a7.7 7.7 0 0 0 1.741 1.026l.055.017.035.053c.068.114.316.449.573.4a1.67 1.67 0 0 0 .758-1.644 2.255 2.255 0 0 0-.591-1.4l-.13-.167a6.112 6.112 0 0 1-.468-2.779l.044-.086.1-.011a.174.174 0 0 1 .16.1 4.039 4.039 0 0 0 .541.709 5.759 5.759 0 0 1 1.041 1.46c.089.184.2.287.316.287a.422.422 0 0 0 .314-.236 2.3 2.3 0 0 0-.167-2.145 9.315 9.315 0 0 1-.813-2.22 2.834 2.834 0 0 0-.533-1.239c-.083-.1-.167-.19-.236-.271a1.717 1.717 0 0 1-.608-1.645c.095-.858 2.009-10.141 2.71-12 .133-.34.251-.635.354-.894.479-1.183.681-1.678.217-2.525-.453-.824-3.4-2.324-4.572-2.324a.508.508 0 0 0-.36.093c-.021.018-.055.063-.04.173a17.865 17.865 0 0 1-.515 3.84c-.478 2.254-1.469 6.942-1.317 9.727a8.082 8.082 0 0 1-1.108 5.362c-1.021 2.081-1.214 2.664-1.021 4.191.207 1.613.922 3.431 1.7 3.563l.05.012.028.029a2.364 2.364 0 0 0 1.638.5z" class="prefix__cls-2" data-name="Path 9387" transform="translate(-8145.028 -9725.091)"/>
                </g>
                <path id="prefix__Path_9388" d="M8158.387 9777.874c-.257-.928-.021-1.908-.3-2.83a.065.065 0 0 0-.127.017 10.525 10.525 0 0 0 .113 2.63 8.647 8.647 0 0 0 1.158 2.167c.021.046.075.018.075-.023-.143-.715-.726-1.245-.919-1.961z" class="prefix__cls-2" data-name="Path 9388" transform="translate(-8152.182 -9752.765)"/>
                <path id="prefix__Path_9389" d="M8152.594 9782.151c-.611-.443-.479-1.111-.761-1.723a15.2 15.2 0 0 0-1.119-1.644 3.764 3.764 0 0 1-.208-1.822 6.815 6.815 0 0 0-.167-1.481.045.045 0 0 0-.089 0c0 1.229-.424 2.6.25 3.69.208.347.5.641.736.968a3.26 3.26 0 0 1 .479 1.356c-.39-.323-.833-.571-1.209-.917a3.3 3.3 0 0 1-1.1-1.811 10.386 10.386 0 0 1-.181-2.035 3.147 3.147 0 0 0-.183-1.331c-.035-.07-.158-.023-.129.052.38 1.228-.209 2.651.276 3.892a4.119 4.119 0 0 0 .8 1.262 3.071 3.071 0 0 1-1.247-.674 3.3 3.3 0 0 1-.79-2.116 8.267 8.267 0 0 0-.292-2.836.056.056 0 0 0-.1.039c.276 1.367-.236 2.8.29 4.14a2.48 2.48 0 0 0 2.241 1.782.131.131 0 0 0 .13-.1 4.08 4.08 0 0 0 1.484.888.07.07 0 0 0 .069 0 .823.823 0 0 0 .769.582.085.085 0 0 0 .051-.161z" class="prefix__cls-2" data-name="Path 9389" transform="translate(-8146.432 -9752.742)"/>
                <path id="prefix__Path_9390" d="M8155.067 9731.381c.706-1.874 1.165-2.429.554-3.547s-5.359-3.338-5.264-1.972a10.96 10.96 0 0 1-.139 1.713l.1-.018a1.84 1.84 0 0 1 1.989 1.494 7.237 7.237 0 0 1-.207 3.336c-.375 1.506-.889 2.964-1.317 4.452a12.743 12.743 0 0 0-.646 5.628 4.154 4.154 0 0 0 1.208 2.214 3.446 3.446 0 0 1 1.124 1.677c.084.692-.5 1.165-.867 1.666a3.4 3.4 0 0 0-.6 2c0 .347.069.98-.3 1.177a.171.171 0 0 1-.158 0 1.113 1.113 0 0 1-.4-.911 12.806 12.806 0 0 0-.084-2.041 1.47 1.47 0 0 1-.095.254 4.888 4.888 0 0 0-.437.979c-.1.5-.061.969-.125 1.472a.149.149 0 0 1-.256.1 1.654 1.654 0 0 1-.216-1.441 3.377 3.377 0 0 0-.13-1.665 3.612 3.612 0 0 0-.271 1.78c-.009.352.125 1.044-.167 1.315-.271.236-.493.045-.617-.2-.659-.668.035-2.38-.424-3.245a9.779 9.779 0 0 0 .174 4.531 1.243 1.243 0 0 0 .749.553 2.424 2.424 0 0 0 1.746.543 7.872 7.872 0 0 0 1.79 1.056s.327.547.73.479.969-.935.888-1.8a2.632 2.632 0 0 0-.749-1.644 5.328 5.328 0 0 1-.419-2.606 19.193 19.193 0 0 1 1.578 2.156c.5 1.066 1.726-.271.733-2.226s-.679-2.681-1.365-3.494-.911-.928-.812-1.792 1.987-10.101 2.702-11.973z" class="prefix__cls-3" data-name="Path 9390" transform="translate(-8146.192 -9725.279)"/>
                <path id="prefix__Path_9391" d="M8154.1 9782.356a2.632 2.632 0 0 0-.749-1.644 6 6 0 0 1-.474-2.26 4.7 4.7 0 0 0-.084.858 6.116 6.116 0 0 0 .5 1.806c.129.409.38 1.372-.107 1.66-.331.2-.7-.421-.839-.618a11.8 11.8 0 0 0-.977-1 .713.713 0 0 1-.09.64c-.4.577-1.08-.312-1.449-.917a2.168 2.168 0 0 1-.1.34.531.531 0 0 1-.637.347 1.332 1.332 0 0 1-.687-.784 1.233 1.233 0 0 1 .006.145 8.272 8.272 0 0 0 .674 1.267 2.461 2.461 0 0 0 1.6.434 7.872 7.872 0 0 0 1.79 1.056s.327.548.73.479.979-.938.893-1.809z" class="prefix__cls-3" data-name="Path 9391" transform="translate(-8146.908 -9754.682)"/>
                <path id="prefix__Path_9392" d="M8160.875 9772.99c-.985-1.948-.679-2.681-1.365-3.494-.049-.052-.084-.1-.127-.145a.086.086 0 0 1 0 .059 3.82 3.82 0 0 1 .389 1.522 4.388 4.388 0 0 1-.044 1.609c-.271.708-.749.443-1.087.028-.014.167-.044.327-.071.5a17.227 17.227 0 0 1 1.577 2.15c.497 1.063 1.721-.274.728-2.229z" class="prefix__cls-3" data-name="Path 9392" transform="translate(-8152.534 -9749.635)"/>
                <path id="prefix__Path_9393" d="M8161.107 9728.285a7.791 7.791 0 0 0-3.2-2.041 5.6 5.6 0 0 1 .6.726 5.709 5.709 0 0 1 .824 5.114 60.77 60.77 0 0 0-1.856 7.668 16.109 16.109 0 0 0-.452 3.068 2.083 2.083 0 0 0 .651 1.66c.105.081.2.161.284.236a1.405 1.405 0 0 1-.116-.918c.1-.857 2-10.095 2.711-11.968s1.165-2.43.554-3.545z" class="prefix__cls-3" data-name="Path 9393" transform="translate(-8151.678 -9725.73)"/>
            </g>
            <path id="prefix__Path_9394" fill="#fed006" d="M8194.536 9702.444c0-.2-.013-.341-.231-.409a.931.931 0 0 0-.458 0c-.025-.611-.067-1.24-.13-1.863a7.332 7.332 0 0 0-.16-1.411.063.063 0 0 0-.1-.053.113.113 0 0 0-.172.092v.895c-.059.8-.059 1.632-.05 2.444-.084.006-.161.022-.235.022a1.417 1.417 0 0 0-.238.053.2.2 0 0 0-.235.011.1.1 0 0 0-.049.116v.017a2.045 2.045 0 0 0 .008.295.535.535 0 0 0 .119.327c.123.134.351.087.513.087.312 0 .6-.028.914-.052.177 0 .3.082.443-.058.125-.098.061-.375.061-.513z" data-name="Path 9394" transform="translate(-8171.34 -9692.349)"/>
            <g id="prefix__Group_3599" data-name="Group 3599" transform="translate(3.488 4.353)">
                <path id="prefix__Path_9395" d="M8166.96 9694.586c-1.47.433-8.194 2.485-9.744 3.927s-3.059 4.986-3.972 9.709c0 0 6.581 2.317 6.581 2.641s-1.139 6.181-1.5 9-1.021 4.865.291 5.933c1.327 1.055 4.479 1.545 6.881.964a18.125 18.125 0 0 1 7.821-.347 20.389 20.389 0 0 0 9.418-.018c3.163-.905 2.649-1.806 2.283-2.542a4.766 4.766 0 0 1-.922-3 71.865 71.865 0 0 0-1.41-9.894s2.983-3.828 6.872-4.363c0 0-2.106-4.008-3.217-6.054s-1.851-3.627-3.726-4c-1.864-.387-4.854-.635-4.854-.635s-4.146.381-6.073.432-4.729-1.753-4.729-1.753z" class="prefix__cls-4" data-name="Path 9395" transform="translate(-8153.071 -9694.425)"/>
                <path id="prefix__Path_9396" d="M8163.065 9726.954a8.233 8.233 0 0 1-4.751-1.244c-1.15-.929-.894-2.561-.568-4.63.069-.456.145-.935.208-1.447.227-1.694.727-4.486 1.087-6.532.2-1.106.389-2.151.409-2.4a60.741 60.741 0 0 0-6.47-2.531l-.123-.045.025-.128c.888-4.617 2.387-8.278 4.016-9.794 1.644-1.54 8.974-3.72 9.808-3.961l.06-.019.058.035c.026.022 2.72 1.724 4.576 1.724h.068c1.9-.053 6.028-.427 6.067-.427.059 0 3.048.253 4.9.629 1.825.375 2.614 1.84 3.615 3.7l.207.381c1.1 2.023 3.2 6.02 3.231 6.059l.1.186-.216.034c-3.543.484-6.354 3.776-6.734 4.249a72.129 72.129 0 0 1 1.4 9.859 4.017 4.017 0 0 0 .643 2.479c.092.146.182.295.265.456l.015.034a1.453 1.453 0 0 1 .2 1.251c-.256.571-1.08 1.039-2.592 1.465a17.166 17.166 0 0 1-4.632.576 20.419 20.419 0 0 1-4.863-.547 10.5 10.5 0 0 0-2.685-.294 22.149 22.149 0 0 0-5.062.64 9.761 9.761 0 0 1-2.262.242zm-9.862-19.031c6.552 2.307 6.552 2.606 6.552 2.739s-.13.911-.414 2.5c-.36 2.042-.859 4.825-1.081 6.521-.064.508-.139.991-.217 1.441-.311 2.052-.548 3.534.458 4.354a7.9 7.9 0 0 0 4.564 1.176 9.231 9.231 0 0 0 2.185-.237 22.545 22.545 0 0 1 5.137-.65 11.481 11.481 0 0 1 2.763.3 19.8 19.8 0 0 0 4.785.547 17.021 17.021 0 0 0 4.549-.564c1.377-.4 2.185-.83 2.384-1.3a1.169 1.169 0 0 0-.179-1l-.014-.035c-.079-.144-.159-.281-.251-.426a4.3 4.3 0 0 1-.693-2.641 73.893 73.893 0 0 0-1.4-9.859l-.021-.074.055-.052c.021-.041 2.941-3.748 6.755-4.388-.438-.82-2.164-4.1-3.122-5.869l-.207-.381c-1.006-1.862-1.728-3.2-3.411-3.541-1.838-.374-4.813-.621-4.844-.628-.01.007-4.152.374-6.052.432l-.084.007c-1.809 0-4.259-1.476-4.68-1.741-1.084.316-8.061 2.416-9.613 3.862-1.566 1.47-3.025 5.021-3.907 9.507z" class="prefix__cls-5" data-name="Path 9396" transform="translate(-8152.857 -9694.224)"/>
            </g>
            <path id="prefix__Path_9397" d="M8171.606 9699.544a5.918 5.918 0 0 0 1.574 1.251 2.347 2.347 0 0 0 2.032-.035c.449-.173.9-.351.964.255.077.9.942.87 1.622.818.522-.046 1.3.075 1.747-.226.444-.283.112-.928.459-1.269.167-.167.521-.057.686.029a2.529 2.529 0 0 0 3.315-1.043c.66-.939 2.027-2.318 5.825-2.525-1.671-.859-5.846-.859-5.846-.859s-4.154.381-6.074.427-4.73-1.741-4.73-1.741c-.519.155-1.706.508-3.079.974a52.441 52.441 0 0 0-5.728 2.318c5.319-1.018 6.305.641 7.233 1.626z" class="prefix__cls-15" data-name="Path 9397" transform="translate(-8155.756 -9690.095)"/>
            <path id="prefix__Path_9398" d="M8184.938 9700.5a3.666 3.666 0 0 1 1.262-.241c-.166-.975-.306-2.221.626-1.419a7.026 7.026 0 0 0 2.136 1.4c.865.254 1.407-.611 1.97-1.269a8.69 8.69 0 0 0 1.624-3.015c-.465-.012-1.224-.047-1.224-.047s-4.146.381-6.073.432-4.73-1.752-4.73-1.752c-.353.1-2 .6-2.817.865a9.705 9.705 0 0 0 1.915 3.874 2.544 2.544 0 0 0 2.15 1.337c.709-.08 1.479-1.222 2-1.647 1.123-.932 1.058.482 1.161 1.482z" class="prefix__cls-15" data-name="Path 9398" transform="translate(-8163.151 -9690.071)"/>
            <path id="prefix__Path_9399" d="M8167 9732.3c-1.545.058-3.292.744-4.722-.156-2.261-1.418-1.86-4.341-1.263-6.562a10.308 10.308 0 0 0 .25-3.182 26.8 26.8 0 0 1 .09-3.154 45.942 45.942 0 0 1 .567-6.013c.306-1.46 1.174-2.969 1.05-4.491-.058-.659-.383-1.4-1.029-1.54a4.142 4.142 0 0 0-1.727.784c-1 .9-1.066 2.076-1.165 3.32-.075.935-.248 2.289-1.067 2.883a2.224 2.224 0 0 1-1.769.22 17.521 17.521 0 0 0-2.705-.433c-.088.4-.178.818-.262 1.239 0 0 6.581 2.318 6.581 2.642s-1.139 6.18-1.5 9-1.021 4.865.291 5.932c1.327 1.056 4.479 1.545 6.881.963a22.838 22.838 0 0 1 4.966-.64 6.625 6.625 0 0 0-3.467-.812z" class="prefix__cls-15" data-name="Path 9399" transform="translate(-8149.584 -9697.069)"/>
            <path id="prefix__Path_9400" d="M8170.444 9735.78a7.936 7.936 0 0 1-4.134-.063 3.631 3.631 0 0 1-2.545-2.192 7.937 7.937 0 0 1 .009-3.85c.29-1.846.657-3.7.879-5.559.217-1.822.162-3.655.241-5.478a45.283 45.283 0 0 1 .487-5.46c.084-.508.16-1.061.3-1.575a.661.661 0 0 0-.1.128c-.179.208-.443.479-.755.4a.419.419 0 0 1-.193-.134 9.782 9.782 0 0 1-.9 4.423 5.437 5.437 0 0 1-2.476 2.484.784.784 0 0 0-.084.046 13.47 13.47 0 0 1 3.053 1.344c0 .323-1.139 6.182-1.5 9s-1.021 4.867.291 5.933c1.327 1.056 4.479 1.546 6.881.963a23.716 23.716 0 0 1 2.345-.433 4.384 4.384 0 0 0-1.799.023z" class="prefix__cls-15" data-name="Path 9400" transform="translate(-8153.976 -9699.508)"/>
            <path id="prefix__Path_9401" d="M8209.185 9729.854a71.874 71.874 0 0 0-1.409-9.895s2.982-3.828 6.871-4.363c0 0-.276-.537-.69-1.321a6.748 6.748 0 0 0-3.019 1.021c-.582.306-1.753 1.36-2.384.617-.605-.715-.487-1.856-.492-2.727-.008-.542.014-1.626-.673-1.782-.062-.006-.127-.022-.187-.029a.079.079 0 0 0-.015.029 1.916 1.916 0 0 1-.187.352c-.31.45-.853.271-1.232.018a5.191 5.191 0 0 0-1.549-.929c-1.046-.2-1.075 1.31-.942 1.972a19.776 19.776 0 0 0 .7 2.5c.277.876.444 1.787.68 2.682a46.707 46.707 0 0 1 1.511 6.751 5.474 5.474 0 0 1-.138 2.577c-.306.778-1.213 1.7-.88 2.571.353.934 1.234 1.464 1.9 2.15a1.031 1.031 0 0 1 .258 1.285 4.042 4.042 0 0 1-2.921 1.713 28.992 28.992 0 0 1-4.07.4 17.845 17.845 0 0 1-1.83 0 20.33 20.33 0 0 0 9.34-.04c3.162-.906 2.649-1.807 2.283-2.543a4.758 4.758 0 0 1-.925-3.009z" class="prefix__cls-15" data-name="Path 9401" transform="translate(-8174.67 -9699.077)"/>
            <path id="prefix__Path_9402" d="M8216.168 9734.029a4.763 4.763 0 0 1-.924-3 72.019 72.019 0 0 0-1.408-9.895 30.162 30.162 0 0 1 3.551-4.122c-.859.307-2.121 1.113-3.133.768-1.119-.4-.508-1.839-.611-3-.029-.236-.055-.468-.084-.7a2.972 2.972 0 0 1-.355.807c-.068.121-.152.352-.33.346s-.32-.242-.41-.369c-.275-.4-.52-.813-.818-1.2a9.384 9.384 0 0 0-.691-.721 14.626 14.626 0 0 1 .76 2.646c.184.814.277 1.616.41 2.438.3 1.876.7 3.762 1.15 5.605a23.579 23.579 0 0 1 .785 4.826 2.749 2.749 0 0 1-.318 1.706c-.162.242-.35.473-.514.7-.1.756.5 1.164 1.082 1.608a1.676 1.676 0 0 1 .311 2.548c-.789 1.1-2.266 1.419-3.5 1.679-.568.121-1.137.276-1.705.444a17.279 17.279 0 0 0 4.473-.565c3.158-.912 2.646-1.812 2.279-2.549z" class="prefix__cls-15" data-name="Path 9402" transform="translate(-8180.729 -9700.249)"/>
            <g id="prefix__Group_3600" data-name="Group 3600" transform="translate(8.708 15.999)">
                <path id="prefix__Path_9403" d="M8188.949 9724.932a32.3 32.3 0 0 1-1.233-3.961c-.8.039-1.594.063-2.349.154a51.37 51.37 0 0 1-7.375.242c-2.427-.039-4.376-.674-6.795-.65a14.48 14.48 0 0 0-4.119.842 1.167 1.167 0 0 1-.395.012 10.865 10.865 0 0 1-.438 3.678c.063.047.1.076.1.1 0 .283-.889 4.906-1.347 7.916a33.934 33.934 0 0 1 6.621-1c2.663-.092 5.225.555 7.873.756 3.517.281 7.426.525 10.874-.559-.236-1.943-.611-4.289-.908-5.875-.183-.544-.348-1.103-.509-1.655z" class="prefix__cls-10" data-name="Path 9403" transform="translate(-8164.809 -9720.561)"/>
                <path id="prefix__Path_9404" d="M8164.576 9733.271l.034-.22c.257-1.66.646-3.851.929-5.454.2-1.1.383-2.144.409-2.4 0 0-.012-.012-.021-.012l-.089-.063.034-.1a10.494 10.494 0 0 0 .424-3.633l-.014-.167.167.007a1.053 1.053 0 0 1 .123 0 1.344 1.344 0 0 0 .213 0 14.456 14.456 0 0 1 4.178-.86h.125a22.267 22.267 0 0 1 3.446.335 25.365 25.365 0 0 0 3.223.323c.73.011 1.515.022 2.29.022a38.86 38.86 0 0 0 5.062-.271c.617-.069 1.271-.1 1.895-.133l.6-.029.023.138a14.271 14.271 0 0 0 .746 2.532c.167.462.35.939.487 1.406.158.561.326 1.113.5 1.662.319 1.642.68 4.006.916 5.9l.015.133-.118.033a20.525 20.525 0 0 1-6.166.8c-1.643 0-3.258-.115-4.771-.225-1-.081-2-.22-2.961-.364a27.094 27.094 0 0 0-4.889-.4 33.075 33.075 0 0 0-6.6.992zm7.336-1.354a31.617 31.617 0 0 1 4.411.414c.966.132 1.957.276 2.94.357 1.514.116 3.121.23 4.751.23a20.435 20.435 0 0 0 5.951-.755c-.229-1.862-.584-4.157-.9-5.736-.172-.53-.339-1.091-.507-1.644-.13-.455-.3-.939-.479-1.407a14.8 14.8 0 0 1-.734-2.444l-.332.019c-.625.027-1.262.063-1.873.132a39.459 39.459 0 0 1-5.1.271c-.784 0-1.565-.012-2.294-.023a25.363 25.363 0 0 1-3.262-.328 22.6 22.6 0 0 0-3.4-.328h-.119a14.623 14.623 0 0 0-4.076.836.761.761 0 0 1-.285.034 11.038 11.038 0 0 1-.416 3.459.218.218 0 0 1 .061.156c0 .132-.129.9-.414 2.5-.271 1.527-.638 3.6-.888 5.218a32.887 32.887 0 0 1 6.428-.951c.185-.006.359-.011.537-.011z" class="prefix__cls-11" data-name="Path 9404" transform="translate(-8164.576 -9720.366)"/>
            </g>
            <path id="prefix__Path_9405" d="M8167.667 9733.131c.359-1.671 1.082-3.331 1.061-5.067-.021-2.1-.494-4.5.057-6.585a16.076 16.076 0 0 0-1.706.5 1.143 1.143 0 0 1-.395.012 10.862 10.862 0 0 1-.438 3.678c.063.047.1.075.1.1 0 .282-.889 4.906-1.347 7.916.878-.201 1.765-.391 2.668-.554z" class="prefix__cls-13" data-name="Path 9405" transform="translate(-8156.101 -9704.984)"/>
            <path id="prefix__Path_9406" d="M8166.231 9733.938c.033-.179.067-.356.116-.53a28.592 28.592 0 0 0 1.042-4.323 21.259 21.259 0 0 0-.084-4.095 9.283 9.283 0 0 1-.014-2.564l-.214.081a1.167 1.167 0 0 1-.395.012 10.862 10.862 0 0 1-.438 3.678c.063.047.1.075.1.1 0 .283-.889 4.907-1.347 7.916.409-.096.824-.187 1.234-.275z" class="prefix__cls-13" data-name="Path 9406" transform="translate(-8156.101 -9705.51)"/>
            <path id="prefix__Path_9407" d="M8212.5 9725.091a19.731 19.731 0 0 1 1.15 4.487 6.059 6.059 0 0 1-.874 3.845 17.23 17.23 0 0 0 3.093-.64c-.235-1.943-.611-4.289-.907-5.875-.183-.548-.347-1.106-.509-1.661a32.12 32.12 0 0 1-1.232-3.96c-.756.04-1.5.063-2.226.144a32.812 32.812 0 0 1 1.505 3.66z" class="prefix__cls-13" data-name="Path 9407" transform="translate(-8181.61 -9704.878)"/>
            <path id="prefix__Path_9408" fill="#d1d0d0" d="M8216.149 9725.352a16.428 16.428 0 0 1 1.012 5.327c0 .79-.144 1.58-.13 2.375.341-.08.672-.167 1-.271-.237-1.943-.611-4.289-.909-5.875-.182-.548-.347-1.106-.507-1.661a31.964 31.964 0 0 1-1.234-3.96c-.167 0-.325.011-.493.028a4.979 4.979 0 0 1 .237.732c.299 1.102.669 2.203 1.024 3.305z" data-name="Path 9408" transform="translate(-8183.765 -9704.878)" style="mix-blend-mode:multiply;isolation:isolate" opacity="0.7"/>
            <g id="prefix__Group_3601" data-name="Group 3601" transform="translate(2.359 17.302)">
                <path id="prefix__Path_9409" d="M8151.275 9723.875a9.226 9.226 0 0 0-.582 2.278 10.419 10.419 0 0 1 4.729.6 15.288 15.288 0 0 1 2.863 1.216l.147-1.452a9.457 9.457 0 0 0-3.128-2.128c-2.273-.876-3.897-.922-4.029-.514z" class="prefix__cls-10" data-name="Path 9409" transform="translate(-8150.515 -9723.479)"/>
                <path id="prefix__Path_9410" d="M8158.227 9728.043l-.208-.127a16.179 16.179 0 0 0-2.846-1.2 10.479 10.479 0 0 0-3.384-.651 7.565 7.565 0 0 0-.9.058 2.053 2.053 0 0 1-.28.028.312.312 0 0 1-.213-.069c-.1-.1-.217-.224.513-2.346l.028-.081c.075-.236.387-.358.923-.358a10.117 10.117 0 0 1 3.308.773 9.655 9.655 0 0 1 3.189 2.155l.041.054zm-6.437-2.289a11.12 11.12 0 0 1 3.492.664 17.328 17.328 0 0 1 2.688 1.123l.118-1.158a9.4 9.4 0 0 0-3.029-2.035 9.829 9.829 0 0 0-3.2-.756c-.479 0-.62.1-.631.145l-.029.093a8.813 8.813 0 0 0-.567 2.013 1.422 1.422 0 0 0 .228-.023 7.364 7.364 0 0 1 .929-.066z" class="prefix__cls-11" data-name="Path 9410" transform="translate(-8150.324 -9723.292)"/>
            </g>
            <path id="prefix__Path_9411" d="M8157.047 9727.224a1.286 1.286 0 0 1-.873.4 10.672 10.672 0 0 1-2.644-.45 6.863 6.863 0 0 0-2.7-.034 1.987 1.987 0 0 0-.139.894 10.428 10.428 0 0 1 4.731.6 15.366 15.366 0 0 1 2.862 1.217l.146-1.453a9.21 9.21 0 0 0-1.383-1.174z" class="prefix__cls-13" data-name="Path 9411" transform="translate(-8148.157 -9708.058)"/>
            <path id="prefix__Path_9412" d="M8164.812 9728.393a1.624 1.624 0 0 1-.5.928 3.131 3.131 0 0 1-.638.444 12.637 12.637 0 0 1 1.822.847l.147-1.453a8.822 8.822 0 0 0-.831-.766z" class="prefix__cls-13" data-name="Path 9412" transform="translate(-8155.368 -9708.817)"/>
            <g id="prefix__Group_3602" data-name="Group 3602" transform="translate(32.661 15.769)">
                <path id="prefix__Path_9413" d="M8226.016 9720.37c.054.115 1.109 2.146.948 2.352a11.088 11.088 0 0 0-4.979 1.327 16.042 16.042 0 0 0-2.893 1.729l-.374-1.546a10.1 10.1 0 0 1 3.053-2.727c2.31-1.273 4.042-1.562 4.245-1.135z" class="prefix__cls-10" data-name="Path 9413" transform="translate(-8218.552 -9720.036)"/>
                <path id="prefix__Path_9414" d="M8218.787 9725.869l-.443-1.846.043-.058a10.224 10.224 0 0 1 3.1-2.778 9.182 9.182 0 0 1 3.809-1.339c.345 0 .562.093.65.271l.04.087c1.09 2.162.98 2.307.9 2.416s-.229.12-.513.12a9.8 9.8 0 0 0-4.523 1.253 15.853 15.853 0 0 0-2.862 1.711zm-.109-1.782l.3 1.246a18.072 18.072 0 0 1 2.741-1.6 10.021 10.021 0 0 1 4.646-1.292h.265a9.6 9.6 0 0 0-.908-2.095l-.05-.091c-.014-.035-.111-.1-.373-.1a8.857 8.857 0 0 0-3.662 1.309 9.78 9.78 0 0 0-2.959 2.623z" class="prefix__cls-11" data-name="Path 9414" transform="translate(-8218.344 -9719.849)"/>
            </g>
            <path id="prefix__Path_9415" d="M8226.09 9722.143a21.9 21.9 0 0 0-3.292 1.372c-.792.41-2.589 1.384-3.261.79a9.453 9.453 0 0 0-.818.968l.374 1.546a16.116 16.116 0 0 1 2.893-1.729 11.076 11.076 0 0 1 4.979-1.326c.105-.139-.311-1.043-.623-1.7-.084.026-.168.056-.252.079z" class="prefix__cls-13" data-name="Path 9415" transform="translate(-8185.891 -9705.307)"/>
            <path id="prefix__Path_9416" d="M8219.913 9728.78a1.6 1.6 0 0 1-.75-.737c-.285.334-.444.547-.444.547l.374 1.546a13.306 13.306 0 0 1 2.138-1.344 2.1 2.1 0 0 1-1.318-.012z" class="prefix__cls-13" data-name="Path 9416" transform="translate(-8185.891 -9708.624)"/>
            <path id="prefix__Path_9417" d="M8169.332 9710.781a17.576 17.576 0 0 0-.77 2.514v-.265a6.625 6.625 0 0 0-.425-2.606c-.015-.046-.083-.017-.067.029a20.552 20.552 0 0 1 .166 4.606 30.46 30.46 0 0 0-.285 4.722c0 .053.089.075.1.012.493-2.986.443-6.065 1.353-8.988.026-.052-.052-.07-.072-.024z" class="prefix__cls-5" data-name="Path 9417" transform="translate(-8157.738 -9698.841)"/>
            <path id="prefix__Path_9418" d="M8215 9718.086a8.7 8.7 0 0 0 .549-2.069 5.066 5.066 0 0 0 .075-2.393c-.021-.093-.145-.063-.14.034a7.442 7.442 0 0 1-.268 2.536c-.1.444-.271.854-.374 1.279a.583.583 0 0 1-.035-.125 13.775 13.775 0 0 0-1.493-3.893.067.067 0 0 0-.118.063 13.944 13.944 0 0 1 .715 2.029c.222.681.457 1.379.625 2.076.381 1.511.8 3.05 1.3 4.531a.057.057 0 0 0 .109-.035c-.279-1.351-.604-2.683-.945-4.033z" class="prefix__cls-5" data-name="Path 9418" transform="translate(-8182.825 -9700.519)"/>
            <path id="prefix__Path_9419" d="M8194.582 9702.209a1.3 1.3 0 0 0-.568-.087.971.971 0 0 0-.034-.144 5.908 5.908 0 0 1-.118-1.263 24.115 24.115 0 0 0-.267-2.45c-.01-.127-.207-.093-.221.022-.091.979.083 1.967.083 2.94a3.827 3.827 0 0 0 .063.94c-.006 0-.006.012-.006.012a3.933 3.933 0 0 0-1.1.213c-.11.047-.041.2.058.208a4.945 4.945 0 0 0 .923-.007 6.689 6.689 0 0 0 1.178-.08.16.16 0 0 0 .009-.304z" class="prefix__cls-5" data-name="Path 9419" transform="translate(-8171.274 -9692.067)"/>
            <g id="prefix__Group_3603" data-name="Group 3603" transform="translate(33.953 13.474)">
                <path id="prefix__Path_9420" d="M8233.09 9717.974a3.356 3.356 0 0 0-.513-2.207c-.381-.566-.93-1.212-1.685-1.039a3.9 3.9 0 0 0-.744.242c-.261.583-3.971 4.919-3.971 4.919a20.077 20.077 0 0 0-4.516 2.127s2.357 4.779 4.445 4.59 6.908-8.66 6.908-8.66a.292.292 0 0 0 .076.028z" class="prefix__cls-1" data-name="Path 9420" transform="translate(-8221.475 -9714.699)"/>
                <path id="prefix__Path_9421" d="M8232.865 9718.075a.192.192 0 0 0-.034-.017l-.117-.042-.063.11c-1.331 2.336-5.146 8.43-6.789 8.579h-.11c-1.771 0-3.773-3.712-4.128-4.4a21.474 21.474 0 0 1 4.37-2.023l.041-.012.029-.034c.389-.456 3.818-4.474 4.006-4.976a.266.266 0 0 0 .035-.109c-.144.058-.283.115-.42.185-.5.716-2.463 3.078-3.823 4.67a19.952 19.952 0 0 0-4.535 2.139l-.083.081.054.1c.091.2 2.324 4.688 4.454 4.688.047 0 .09-.007.13-.007 2.032-.19 6.354-7.559 6.965-8.62l.018-.312z" class="prefix__cls-2" data-name="Path 9421" transform="translate(-8221.243 -9714.95)"/>
            </g>
            <path id="prefix__Path_9422" d="M8232.577 9715.767c-.381-.566-.93-1.212-1.685-1.039a3.9 3.9 0 0 0-.744.242 24.854 24.854 0 0 1-1.948 2.508c.36-.357.819-.732 1.167-.581.569.235.554 1.182.5 1.694a6.241 6.241 0 0 1-1 2.675c-.271.416-2.918 3.962-3.494 2.866-.425-.783.123-2.014.428-2.75a14.371 14.371 0 0 1 1.091-2.035 5.74 5.74 0 0 1 .341-.7c-.606.711-1.055 1.241-1.055 1.241a20.077 20.077 0 0 0-4.516 2.127s2.357 4.779 4.445 4.59 6.908-8.66 6.908-8.66a.292.292 0 0 0 .074.028 3.356 3.356 0 0 0-.512-2.206z" class="prefix__cls-17" data-name="Path 9422" transform="translate(-8187.523 -9701.225)"/>
            <g id="prefix__Group_3604" data-name="Group 3604" transform="translate(37.681 17.787)">
                <path id="prefix__Path_9423" d="M8231.306 9724.385a7.194 7.194 0 0 0-1.692 2.715c-.015.047.049.076.07.035.473-.957 1.152-1.781 1.657-2.716.013-.019-.02-.052-.035-.034z" class="prefix__cls-2" data-name="Path 9423" transform="translate(-8229.611 -9724.379)"/>
            </g>
            <g id="prefix__Group_3605" data-name="Group 3605" transform="translate(18.737)">
                <path id="prefix__Path_9424" d="M8187.444 9685.2s.257 4.076.374 4.45c.133.387.258 1.425 2.94 1.366s2.324-1.031 2.255-2.784-.312-3.413-.312-3.413z" class="prefix__cls-1" data-name="Path 9424" transform="translate(-8187.286 -9684.655)"/>
                <path id="prefix__Path_9425" d="M8190.369 9690.967c-2.45 0-2.728-.939-2.865-1.395l-.029-.074c-.124-.387-.351-4.07-.381-4.486v-.154l5.554-.4.021.137c0 .023.223 1.709.3 3.438.014.166.023.328.028.49.05.8.091 1.436-.312 1.867a2.905 2.905 0 0 1-2.115.582zm-2.964-5.828c.1 1.625.28 4.008.36 4.262l.029.092c.117.375.354 1.176 2.574 1.176h.193a2.768 2.768 0 0 0 1.894-.484c.311-.346.276-.893.235-1.648-.015-.15-.023-.322-.028-.5-.063-1.432-.236-2.82-.291-3.258z" class="prefix__cls-2" data-name="Path 9425" transform="translate(-8187.088 -9684.453)"/>
            </g>
            <path id="prefix__Path_9426" d="M8187.444 9685.2s.257 4.076.374 4.45c.133.387.258 1.425 2.94 1.366s2.324-1.031 2.255-2.784-.312-3.413-.312-3.413z" class="prefix__cls-17" data-name="Path 9426" transform="translate(-8168.548 -9684.655)"/>
            <path id="prefix__Path_9427" d="M8193.014 9688.229c-.078-1.746-.312-3.413-.312-3.413l-5.258.381s.257 4.076.374 4.45c.1.289.193.939 1.367 1.229a1.549 1.549 0 0 1-.626-1.759 2.017 2.017 0 0 1 2.707-1.228 1.491 1.491 0 0 1 .851 2.19 2.913 2.913 0 0 1-1.434.934h.075c2.685-.045 2.325-1.031 2.256-2.784z" class="prefix__cls-17" data-name="Path 9427" transform="translate(-8168.548 -9684.655)"/>
            <g id="prefix__Group_3606" data-name="Group 3606" transform="translate(15.429 1.694)">
                <path id="prefix__Path_9428" d="M8183.443 9688.662s-.781-.462-2.023.979-1.644 2-1.292 3.4 2.076 4.176 2.936 3.943 3.364-4.248 3.57-3.874 2.837 3.471 3.795 3.379c.963-.114 2.885-3.148 2.861-3.856s-.968-1.644-1.619-2.354a3.868 3.868 0 0 0-2.859-1.516s.1 1.344.1 1.47-1.366 2.683-2.33 2.652-2.885-2.346-3.032-2.7a6.056 6.056 0 0 1-.107-1.523z" class="prefix__cls-10" data-name="Path 9428" transform="translate(-8179.853 -9688.442)"/>
                <path id="prefix__Path_9429" d="M8182.769 9696.962c-1.026 0-2.643-2.771-2.975-4.076-.375-1.457.049-2.046 1.322-3.528 1.292-1.5 2.171-1.037 2.215-1.021l.083.047-.008.092a5.892 5.892 0 0 0 .083 1.453c.167.375 2.061 2.6 2.906 2.617.819 0 2.1-2.242 2.179-2.531-.008-.068-.072-.893-.106-1.43l-.011-.2.188.035a3.893 3.893 0 0 1 2.822 1.43l.3.321c.652.692 1.456 1.563 1.49 2.261.023.75-1.9 3.886-2.994 4.007-1.027.11-3.469-2.738-3.9-3.367a14.282 14.282 0 0 0-1.15 1.414c-1.047 1.354-1.818 2.327-2.3 2.455a.591.591 0 0 1-.144.021zm.153-8.405c-.271 0-.825.138-1.575 1-1.228 1.418-1.6 1.942-1.262 3.258.359 1.424 1.954 3.846 2.684 3.846a.2.2 0 0 0 .068-.007 10.025 10.025 0 0 0 2.138-2.351 8.571 8.571 0 0 1 1.241-1.472c-1.089-.276-2.845-2.415-3-2.778a5.1 5.1 0 0 1-.124-1.476 1.063 1.063 0 0 0-.17-.02zm3.641 4.278c.006 0 .015.011.015.022.193.363 2.7 3.286 3.611 3.286a.072.072 0 0 0 .035-.006c.867-.092 2.747-3.021 2.718-3.685-.021-.6-.785-1.412-1.4-2.068l-.306-.329a3.523 3.523 0 0 0-2.454-1.3c.035.394.091 1.182.091 1.291 0 .218-1.279 2.554-2.31 2.789z" class="prefix__cls-11" data-name="Path 9429" transform="translate(-8179.663 -9688.256)"/>
            </g>
            <g id="prefix__Group_3607" data-name="Group 3607" transform="translate(15.429 1.694)">
                <path id="prefix__Path_9430" d="M8183.443 9688.662s-.781-.462-2.023.979-1.644 2-1.292 3.4 2.076 4.176 2.936 3.943 3.364-4.248 3.57-3.874 2.837 3.471 3.795 3.379c.963-.114 2.885-3.148 2.861-3.856s-.968-1.644-1.619-2.354a3.868 3.868 0 0 0-2.859-1.516s.1 1.344.1 1.47-1.366 2.683-2.33 2.652-2.885-2.346-3.032-2.7a6.056 6.056 0 0 1-.107-1.523z" class="prefix__cls-10" data-name="Path 9430" transform="translate(-8179.853 -9688.442)"/>
                <path id="prefix__Path_9431" d="M8182.769 9696.962c-1.026 0-2.643-2.771-2.975-4.076-.375-1.457.049-2.046 1.322-3.528 1.292-1.5 2.171-1.037 2.215-1.021l.083.047-.008.092a5.892 5.892 0 0 0 .083 1.453c.167.375 2.061 2.6 2.906 2.617.819 0 2.1-2.242 2.179-2.531-.008-.068-.072-.893-.106-1.43l-.011-.2.188.035a3.893 3.893 0 0 1 2.822 1.43l.3.321c.652.692 1.456 1.563 1.49 2.261.023.75-1.9 3.886-2.994 4.007-1.027.11-3.469-2.738-3.9-3.367a14.282 14.282 0 0 0-1.15 1.414c-1.047 1.354-1.818 2.327-2.3 2.455a.591.591 0 0 1-.144.021zm.153-8.405c-.271 0-.825.138-1.575 1-1.228 1.418-1.6 1.942-1.262 3.258.359 1.424 1.954 3.846 2.684 3.846a.2.2 0 0 0 .068-.007 10.025 10.025 0 0 0 2.138-2.351 8.571 8.571 0 0 1 1.241-1.472c-1.089-.276-2.845-2.415-3-2.778a5.1 5.1 0 0 1-.124-1.476 1.063 1.063 0 0 0-.17-.02zm3.641 4.278c.006 0 .015.011.015.022.193.363 2.7 3.286 3.611 3.286a.072.072 0 0 0 .035-.006c.867-.092 2.747-3.021 2.718-3.685-.021-.6-.785-1.412-1.4-2.068l-.306-.329a3.523 3.523 0 0 0-2.454-1.3c.035.394.091 1.182.091 1.291 0 .218-1.279 2.554-2.31 2.789z" class="prefix__cls-11" data-name="Path 9431" transform="translate(-8179.663 -9688.256)"/>
            </g>
            <path id="prefix__Path_9432" d="M8191.671 9690.275a3.868 3.868 0 0 0-2.859-1.516s.1 1.344.1 1.47-1.366 2.683-2.33 2.652-2.885-2.346-3.032-2.7a6.056 6.056 0 0 1-.1-1.522s-.781-.462-2.023.979-1.644 2-1.292 3.4c.029.087.058.186.083.289.687-.871 1.5-2.019 2.492-1.707a8.6 8.6 0 0 1 2.205 1.437 10.745 10.745 0 0 1 .95.777c.407-.513.713-.842.775-.727a4.4 4.4 0 0 0 .45.594c.778-.807 1.548-2.1 2.649-2.2 1.4-.121 2.081 1.552 3.2 2.128a2.838 2.838 0 0 0 .36-1c-.033-.703-.977-1.644-1.628-2.354z" class="prefix__cls-12" data-name="Path 9432" transform="translate(-8164.424 -9686.747)"/>
            <path id="prefix__Path_9433" d="M8192.288 9691.157a2.848 2.848 0 0 0 .977-1.954 5.759 5.759 0 0 0-1.567-.443s.1 1.344.1 1.469-1.366 2.683-2.33 2.653-2.885-2.347-3.032-2.7a6.047 6.047 0 0 1-.1-1.521 1.084 1.084 0 0 0-1.066.156 6.359 6.359 0 0 0-.05.956c.05.889 3.355 3.247 4.209 3.345a11.617 11.617 0 0 0 2.859-1.961z" class="prefix__cls-13" data-name="Path 9433" transform="translate(-8167.31 -9686.748)"/>
        </g>
        <g id="prefix__Group_3609" data-name="Group 3609" transform="translate(8150.114 9691.917)">
            <path id="prefix__Path_9434" d="M8160.729 9702.739a4.042 4.042 0 0 0-2.615 2.45 19.962 19.962 0 0 0-1.666 5.2c-.02.161.236.2.279.045a29.1 29.1 0 0 1 1.329-4.22 6.914 6.914 0 0 1 1.32-2.312 10.766 10.766 0 0 1 1.406-1.056c.065-.037 0-.118-.053-.107z" class="prefix__cls-18" data-name="Path 9434" transform="translate(-8156.446 -9702.058)"/>
            <path id="prefix__Path_9435" d="M8224 9707.825a22.543 22.543 0 0 0-1.131-2.116 23.829 23.829 0 0 0-1.2-2.208c-.666-.957-1.3-2.151-2.574-2.289-.04-.006-.049.058-.014.069 1.276.312 2.031 1.942 2.669 2.986.734 1.2 1.248 2.49 2.056 3.661a.11.11 0 0 0 .194-.103z" class="prefix__cls-18" data-name="Path 9435" transform="translate(-8191.165 -9701.212)"/>
            <path id="prefix__Path_9436" d="M8192.621 9761.547a17.5 17.5 0 0 1-1.7.421 12.8 12.8 0 0 1-2.229-.058 22.044 22.044 0 0 1-4.575-.71 11.905 11.905 0 0 0-3.851-.616c-1.3.1-2.474.674-3.765.766-.05.007-.056.064-.006.076 1.282.08 2.488-.438 3.758-.5a17.857 17.857 0 0 1 4.584.858 16.03 16.03 0 0 0 4.111.49c.591-.028 1.214.012 1.8-.075a8.377 8.377 0 0 0 1.923-.564c.048-.026.008-.107-.05-.088z" class="prefix__cls-18" data-name="Path 9436" transform="translate(-8167.543 -9734.126)"/>
            <path id="prefix__Path_9437" d="M8211.583 9823.644a10.916 10.916 0 0 0-1.227 2.254c-.208.4-.415.813-.617 1.206a13.174 13.174 0 0 1-.608 1.3c-.05.057.041.133.089.08a10.165 10.165 0 0 0 1.283-2.167 20.415 20.415 0 0 0 1.264-2.555c.033-.107-.114-.205-.184-.118z" class="prefix__cls-18" data-name="Path 9437" transform="translate(-8185.652 -9769.084)"/>
            <path id="prefix__Path_9438" d="M8177.684 9839.594a3.966 3.966 0 0 1-2.1-2.428 14.292 14.292 0 0 1-.657-2.479c-.015-.063-.118-.045-.112.012.028 1.861.632 4.653 2.747 5.149.156.034.275-.18.122-.254z" class="prefix__cls-18" data-name="Path 9438" transform="translate(-8166.634 -9775.203)"/>
        </g>
        <path id="prefix__Path_9439" d="M8214.989 9849.688c-.291-1.465-1.964-2.353-2.753-3.513a6.548 6.548 0 0 1-1-2.38 17.108 17.108 0 0 0-.306-2.342.1.1 0 0 0-.187.042 5.155 5.155 0 0 1 0 1.164c.009.317.044.656.084.979a6.181 6.181 0 0 0 .8 2.364c.819 1.435 2.295 2.307 3.073 3.794a.158.158 0 0 0 .289-.108z" class="prefix__cls-10" data-name="Path 9439" transform="translate(-36.438 -87.02)"/>
        <path id="prefix__Path_9440" d="M8177.852 9863.074a6.424 6.424 0 0 1-2.921 1.136 11.645 11.645 0 0 1-2.911-.185 5.963 5.963 0 0 1-2.393-.916 1.588 1.588 0 0 1-.626-1.546c.029-.472.335-.824.41-1.274.015-.044-.055-.067-.075-.022-.142.45-.508.767-.631 1.245a1.742 1.742 0 0 0 .068 1.137 3.372 3.372 0 0 0 2.171 1.551c2.273.761 5.241.818 7.095-.865.129-.122-.029-.354-.187-.261z" class="prefix__cls-10" data-name="Path 9440" transform="translate(-13.095 -97.479)"/>
        <path id="prefix__Path_9441" d="M8190.309 9864.961a.122.122 0 0 0-.2-.08.894.894 0 0 0-.262.531.141.141 0 0 0 .179.143.16.16 0 0 0 .139-.184 1.731 1.731 0 0 0 .144-.41z" class="prefix__cls-10" data-name="Path 9441" transform="translate(-24.852 -100.034)"/>
        <g id="prefix__Group_3611" data-name="Group 3611" transform="translate(8186.723 9689.692)">
            <g id="prefix__Group_3610" data-name="Group 3610">
                <path id="prefix__Path_9442" fill="#a23d2a" d="M8247.6 9700.91a2.318 2.318 0 0 0 .463-1.027 6.736 6.736 0 0 0 .129-.984v-.012a1.867 1.867 0 0 0-.344-.854 1.449 1.449 0 0 0-.377-.168.687.687 0 0 0 .113-.236 1.939 1.939 0 0 1-.008-.213 1.421 1.421 0 0 0-.588-.871c-.734-.588-2.225-.27-3.232.053-.064.018-.113.033-.16.045-.1.041-.182.07-.264.1a1.176 1.176 0 0 0-.588-.27 1 1 0 0 0-.363.26 2 2 0 0 1-.1.461 2.2 2.2 0 0 0-.955.863 11.854 11.854 0 0 0-1.57 2.5v.012c-.049.068-.1.137-.143.207a5.518 5.518 0 0 0-.68 1.574 5.324 5.324 0 0 0 .344 4.4 2.934 2.934 0 0 1-.133-1.221c.01-.088.143-.139.182-.047a3.656 3.656 0 0 0 2.748 2.26.1.1 0 0 1 .012.178 3.17 3.17 0 0 1-1.26.029c-.117 0-.236-.006-.354-.012a3.661 3.661 0 0 0 1.982.463 4.046 4.046 0 0 0 1.707-.809c.449-.328.482-.922.824-1.3a.917.917 0 0 0 .438-.1c.6-.264 1-.973 1.42-1.451.238-.283.723-.871.516-1.275a1.089 1.089 0 0 0 .414-.5 1.967 1.967 0 0 0-.173-2.055z" data-name="Path 9442" transform="translate(-8238.624 -9696.217)"/>
                <path id="prefix__Path_9443" d="M8254.508 9700.112c1.243.744.2 2.692-.547 3.425-.3.294-.6.583-.88.9l-.022-.007a1.929 1.929 0 0 1-.811.549.62.62 0 0 1-.858-.507 1.753 1.753 0 0 1 .607-1.281 5.147 5.147 0 0 1 1.436-.951.291.291 0 1 1-.083-.213 8.532 8.532 0 0 0 1.158-1.915z" class="prefix__cls-1" data-name="Path 9443" transform="translate(-8245.698 -9698.376)"/>
                <path id="prefix__Path_9444" fill="#f6c4a3" d="M8243.189 9700.063a6.071 6.071 0 0 1 1.107-1.256 4.94 4.94 0 0 1-.423.776 17.154 17.154 0 0 1-1.49 1.748c.277-.431.527-.905.806-1.268z" data-name="Path 9444" transform="translate(-8240.709 -9697.653)"/>
                <path id="prefix__Path_9445" d="M8243.189 9700.063a6.071 6.071 0 0 1 1.107-1.256 4.94 4.94 0 0 1-.423.776 17.154 17.154 0 0 1-1.49 1.748c.277-.431.527-.905.806-1.268z" class="prefix__cls-17" data-name="Path 9445" transform="translate(-8240.709 -9697.653)"/>
                <path id="prefix__Path_9446" d="M8244.9 9706.725a2.675 2.675 0 0 1-1.653 1.521 2.372 2.372 0 0 1-1.385.2c0-.007 0-.012-.007-.018a4.335 4.335 0 0 1-1.958-1.079v-.01a3.666 3.666 0 0 1-.642-.9v-.023a.318.318 0 0 0-.04-.093v.011a3.23 3.23 0 0 1-.307-1.187v-.041a5.018 5.018 0 0 1-.023-.657c0 .028.009.052.009.081.015-.133.021-.26.042-.386a5.033 5.033 0 0 1 .354-1.65c.027-.1.063-.207.09-.316.486-1.493 1.76-2.434 2.663-3.644.166-.3.334-.611.479-.929a1.008 1.008 0 0 1 .223-.605c.1-.093.222-.058.339 0 .035.013.07.029.11.047 1.04.512.118 2.479-.263 3.159a4.932 4.932 0 0 1-.7.842 3.179 3.179 0 0 0-.312 1.332 7.8 7.8 0 0 1 .069 1.539 1.886 1.886 0 0 1-.325.824 2.333 2.333 0 0 1-.514.731c.074-.016.138-.051.213-.074a2.6 2.6 0 0 0 .666-1.056c.349-1.152-.089-2.323.444-3.372a9.4 9.4 0 0 0 .632-.71 4.265 4.265 0 0 0 .582-1.389 1.869 1.869 0 0 0-.145-1.811h-.014c.167-.029.33-.046.5-.059a4.229 4.229 0 0 1 1.233-.225 3.483 3.483 0 0 1 1.618.018.983.983 0 0 1 .61.744c.15.334-.166.854-.319 1.123a4.606 4.606 0 0 1-.9 1.252 10.444 10.444 0 0 1-1.753 1.309c-.391.288-.6.161-.7-.1a.866.866 0 0 1-.222-.721 1.477 1.477 0 0 1 .409-.945 4.573 4.573 0 0 1 .539-.565 7.352 7.352 0 0 0 1.075-.958c.028-.034-.041-.046-.056-.028a5.985 5.985 0 0 1-.533.456c.04-.109.062-.214.09-.312.055-.179.124-.334.192-.5a1.49 1.49 0 0 0-.429.86c-.029.126-.167.212-.3.286a3.572 3.572 0 0 0-.958.981 1.5 1.5 0 0 0-.013 1.562.719.719 0 0 0 1.031.145 3.4 3.4 0 0 0 .4-.294.638.638 0 0 1-.063.069 2.315 2.315 0 0 0-.484.727 1.026 1.026 0 0 0-.009 1.258.575.575 0 0 0 .424.229.857.857 0 0 0-.173 1.067.3.3 0 0 0 .277.166 1.373 1.373 0 0 0-.375 1.552.518.518 0 0 0 .354.369c-.05.029-.055.058-.092.197z" class="prefix__cls-1" data-name="Path 9446" transform="translate(-8238.761 -9696.478)"/>
                <path id="prefix__Path_9447" d="M8254.46 9713.2a6.162 6.162 0 0 1-.681.882c-.221.248-1.2 1.725-1.657.824a1.43 1.43 0 0 1 .279-1.482 4.758 4.758 0 0 0 1.088-.374 5.787 5.787 0 0 0 1.208-.45c.034.134-.227.585-.237.6z" class="prefix__cls-1" data-name="Path 9447" transform="translate(-8246.046 -9705.302)"/>
                <path id="prefix__Path_9448" d="M8254.378 9709.5c-.4.179-.853.276-1.263.432-.9.34-.894-.38-.513-.9a1.8 1.8 0 0 0 .956-.5c.465-.513 1.132-1.015 1.595-1.614a1.808 1.808 0 0 1-.775 2.582z" class="prefix__cls-1" data-name="Path 9448" transform="translate(-8246.24 -9702.152)"/>
                <path id="prefix__Path_9449" d="M8255.146 9700.112a8.519 8.519 0 0 1-1.16 1.914 3.1 3.1 0 0 1-.47.329 3.144 3.144 0 0 1 .554-.116 5.114 5.114 0 0 0-1.435.951 1.384 1.384 0 0 1-.1.116c.458-.208.874-.519 1.346-.716.109-.035.528-.294.638-.16.2.248.029.783-.084 1.043a3.261 3.261 0 0 1-.276.507c.146-.149.291-.3.444-.443.738-.737 1.785-2.681.543-3.425z" class="prefix__cls-17" data-name="Path 9449" transform="translate(-8246.335 -9698.376)"/>
                <path id="prefix__Path_9450" fill="#e3b698" d="M8244.3 9701.652a21.9 21.9 0 0 0-.025 2.52c-.015.07-.023.128-.038.19a3.91 3.91 0 0 1-.47 1.522h.089a2.469 2.469 0 0 0 .509-.732 1.885 1.885 0 0 0 .325-.825 7.807 7.807 0 0 0-.069-1.539 3.194 3.194 0 0 1 .312-1.332 4.887 4.887 0 0 0 .7-.841c.381-.681 1.3-2.646.263-3.16a.847.847 0 0 0-.081-.034 2.15 2.15 0 0 1 .061 1.713 4.011 4.011 0 0 1-.637 1.227 4.265 4.265 0 0 0-.939 1.291z" data-name="Path 9450" transform="translate(-8241.476 -9696.884)" style="mix-blend-mode:multiply;isolation:isolate" opacity="0.7"/>
                <path id="prefix__Path_9451" d="M8244.756 9706.153a1.373 1.373 0 0 1 .375-1.552.3.3 0 0 1-.277-.166.857.857 0 0 1 .173-1.067.575.575 0 0 1-.424-.229 1.026 1.026 0 0 1 .009-1.258 2.315 2.315 0 0 1 .484-.727.638.638 0 0 0 .063-.069 3.4 3.4 0 0 1-.4.294.719.719 0 0 1-1.031-.145 1.5 1.5 0 0 1 .013-1.562 3.572 3.572 0 0 1 .958-.981c.13-.074.268-.16.3-.286a1.483 1.483 0 0 1 .428-.86c-.067.168-.138.323-.192.5-.028.1-.05.2-.09.312.09-.076.173-.139.257-.208.312-.3.608-.61.935-.894.049-.039.132-.035.151.018a2.183 2.183 0 0 1-.242 1.684 3.352 3.352 0 0 1-1.483 1.423c-.242.128-.923.475-1.006-.034a1.021 1.021 0 0 1-.013-.19c-.013.088-.027.167-.033.243a.866.866 0 0 0 .222.721c.1.265.311.392.7.1a10.444 10.444 0 0 0 1.753-1.309 4.606 4.606 0 0 0 .9-1.252c.153-.27.47-.789.319-1.123a.983.983 0 0 0-.61-.744 3.483 3.483 0 0 0-1.618-.018 4.229 4.229 0 0 0-1.233.225c-.168.013-.331.029-.5.059h.014a1.869 1.869 0 0 1 .145 1.811 4.265 4.265 0 0 1-.582 1.389 9.4 9.4 0 0 1-.632.71c-.533 1.049-.1 2.22-.444 3.372a2.6 2.6 0 0 1-.666 1.056c-.06.023-.13.053-.192.074a2.572 2.572 0 0 0 1.691-.841.093.093 0 0 1 .153.029c.692 1.765-1.735 3.269-3.134 2.15a3.277 3.277 0 0 1-.9-1.153 2.588 2.588 0 0 0 .231.675v.017-.023a.244.244 0 0 1 .04.088v.023a3.666 3.666 0 0 0 .642.9v.01a4.335 4.335 0 0 0 1.958 1.079c.011.006.011.011.007.018a2.372 2.372 0 0 0 1.385-.2 2.675 2.675 0 0 0 1.653-1.521c.04-.139.046-.168.088-.2a.518.518 0 0 1-.345-.368z" class="prefix__cls-17" data-name="Path 9451" transform="translate(-8238.886 -9696.478)"/>
                <path id="prefix__Path_9452" d="M8255.507 9712.6a5.787 5.787 0 0 1-1.208.45 2.154 2.154 0 0 0-.207.086 2.248 2.248 0 0 1 .438-.012.1.1 0 0 1 .09.127 6.272 6.272 0 0 1-.818 1.465 5.1 5.1 0 0 1-.332.456c.455-.156.969-.918 1.12-1.09a6.162 6.162 0 0 0 .681-.882c.008-.015.271-.466.236-.6z" class="prefix__cls-17" data-name="Path 9452" transform="translate(-8246.854 -9705.302)"/>
                <path id="prefix__Path_9453" d="M8255.544 9706.921a15.472 15.472 0 0 1-1.27 1.285 4.711 4.711 0 0 1 .542-.259.11.11 0 0 1 .1.052 1.291 1.291 0 0 1-.473 1.39 4.752 4.752 0 0 1-1.388.634 1 1 0 0 0 .444-.087c.409-.155.859-.253 1.263-.432a1.809 1.809 0 0 0 .782-2.583z" class="prefix__cls-17" data-name="Path 9453" transform="translate(-8246.629 -9702.152)"/>
            </g>
        </g>
    </g>
</svg>
