<svg xmlns="http://www.w3.org/2000/svg" width="43.06" height="84.992" viewBox="0 0 43.06 84.992">
    <defs>
        <style>
            .prefix__cls-1{fill:#fff}.prefix__cls-2{fill:#abaaa6}.prefix__cls-18,.prefix__cls-3,.prefix__cls-7{mix-blend-mode:multiply;isolation:isolate}.prefix__cls-4{fill:#cac7bb}.prefix__cls-5{fill:#faa819}.prefix__cls-6{fill:#87772e}.prefix__cls-7{opacity:.4}.prefix__cls-8{fill:#503b45}.prefix__cls-10{fill:#3b5a6d}.prefix__cls-11{fill:#2d4b5a}.prefix__cls-12,.prefix__cls-15{fill:#1c3850}.prefix__cls-14{fill:#2d6183}.prefix__cls-14,.prefix__cls-15{fill-rule:evenodd}.prefix__cls-16{fill:#fdd6b4}.prefix__cls-17{fill:#c36849}.prefix__cls-18{opacity:.7}.prefix__cls-19{fill:#e7b89a}.prefix__cls-21{fill:#f0cfb8}.prefix__cls-23{fill:#fcdfdb}
        </style>
    </defs>
    <g id="prefix__Group_3722" data-name="Group 3722" transform="translate(-8271.113 -9669.36)">
        <g id="prefix__Group_3615" data-name="Group 3615" transform="translate(8271.373 9747.606)">
            <g id="prefix__Group_3613" data-name="Group 3613" transform="translate(.128 .129)">
                <path id="prefix__Path_9454" d="M8285.721 9856.3c-1.579 1.5-2.387 1.709-4.733 1.962a26.018 26.018 0 0 1-8.942-.877c-.176 1.5.648 1.934 4.665 2.187 4.718.226 7.4.239 8.755-1.2a15.121 15.121 0 0 1 2.813-2.56 3.21 3.21 0 0 0 1.646-2.622 31.218 31.218 0 0 0-4.204 3.11z" class="prefix__cls-1" data-name="Path 9454" transform="translate(-8272.023 -9853.195)"/>
            </g>
            <g id="prefix__Group_3614" data-name="Group 3614">
                <path id="prefix__Path_9455" d="M8280.144 9859.639c-1.1 0-2.384-.055-3.612-.112-2.836-.18-4.017-.453-4.516-1.048a1.588 1.588 0 0 1-.271-1.28.132.132 0 0 1 .056-.091.115.115 0 0 1 .1-.018 27.726 27.726 0 0 0 6.948.977 17.529 17.529 0 0 0 1.95-.105c2.363-.257 3.128-.479 4.657-1.926a30.62 30.62 0 0 1 4.222-3.121.128.128 0 0 1 .2.112 3.346 3.346 0 0 1-1.7 2.722 15.1 15.1 0 0 0-2.794 2.542c-1.055 1.118-2.858 1.348-5.24 1.348zm-8.157-2.264a1.237 1.237 0 0 0 .227.939c.439.527 1.611.785 4.331.955 1.223.061 2.508.114 3.6.114 2.776 0 4.194-.354 5.054-1.269a15.325 15.325 0 0 1 2.831-2.576 3.148 3.148 0 0 0 1.576-2.271 29.475 29.475 0 0 0-3.969 2.953c-1.621 1.534-2.5 1.745-4.808 2a18.061 18.061 0 0 1-1.976.1 27.9 27.9 0 0 1-6.867-.945z" class="prefix__cls-2" data-name="Path 9455" transform="translate(-8271.722 -9852.893)"/>
            </g>
        </g>
        <g id="prefix__Group_3616" class="prefix__cls-3" data-name="Group 3616" transform="translate(8279.284 9747.735)">
            <path id="prefix__Path_9456" d="M8296.193 9856.3c-1.579 1.5-2.387 1.709-4.733 1.962-.394.04-.786.069-1.181.085.021.445.037.89.043 1.334 2.824.035 4.6-.225 5.615-1.306a15.089 15.089 0 0 1 2.813-2.56 3.207 3.207 0 0 0 1.646-2.622 31.28 31.28 0 0 0-4.203 3.107z" class="prefix__cls-4" data-name="Path 9456" transform="translate(-8290.279 -9853.195)"/>
        </g>
        <g id="prefix__Group_3617" class="prefix__cls-3" data-name="Group 3617" transform="translate(8286.303 9747.735)">
            <path id="prefix__Path_9457" d="M8306.74 9855.36a12.318 12.318 0 0 1 .18 1.454 14.114 14.114 0 0 1 1.273-1 3.21 3.21 0 0 0 1.646-2.622c-.87.561-2.049 1.339-3.099 2.168z" class="prefix__cls-4" data-name="Path 9457" transform="translate(-8306.74 -9853.195)"/>
        </g>
        <g id="prefix__Group_3626" data-name="Group 3626" transform="translate(8271.395 9744.131)">
            <g id="prefix__Group_3620" data-name="Group 3620" transform="translate(4.937)">
                <g id="prefix__Group_3618" data-name="Group 3618" transform="translate(.128 .127)">
                    <path id="prefix__Path_9458" d="M8295.652 9845.038a8.62 8.62 0 0 1-8.574.416 6.618 6.618 0 0 1-3.244 2.217c-.062.013-.118.027-.18.043a12.818 12.818 0 0 1 3.708.625 5.5 5.5 0 0 1 3.724 4.338 8.383 8.383 0 0 0 1.307-1.055 31.068 31.068 0 0 1 4.2-3.105c0-.027.007-.051.007-.074a11.228 11.228 0 0 0-.948-3.405z" class="prefix__cls-5" data-name="Path 9458" transform="translate(-8283.654 -9845.038)"/>
                </g>
                <g id="prefix__Group_3619" data-name="Group 3619">
                    <path id="prefix__Path_9459" d="M8290.913 9852.633a.141.141 0 0 1-.052-.008.131.131 0 0 1-.076-.095 5.362 5.362 0 0 0-3.637-4.24 12.641 12.641 0 0 0-3.672-.617.13.13 0 0 1-.025-.255l.185-.043a6.494 6.494 0 0 0 3.165-2.167.126.126 0 0 1 .161-.039 8.381 8.381 0 0 0 3.838.944 8.678 8.678 0 0 0 4.607-1.349.13.13 0 0 1 .109-.021.145.145 0 0 1 .081.071 11.238 11.238 0 0 1 .962 3.459v.052a.192.192 0 0 1-.06.126 30.275 30.275 0 0 0-4.187 3.092 8.268 8.268 0 0 1-1.33 1.07.119.119 0 0 1-.069.02zm-6.716-5.178a12.133 12.133 0 0 1 3.033.593 5.583 5.583 0 0 1 3.77 4.252 9.041 9.041 0 0 0 1.135-.937 30.2 30.2 0 0 1 4.167-3.087 10.462 10.462 0 0 0-.877-3.21 8.938 8.938 0 0 1-4.623 1.306 8.621 8.621 0 0 1-3.857-.923 6.792 6.792 0 0 1-2.745 2.006z" class="prefix__cls-6" data-name="Path 9459" transform="translate(-8283.354 -9844.74)"/>
                </g>
            </g>
            <g id="prefix__Group_3623" data-name="Group 3623" transform="translate(0 2.673)">
                <g id="prefix__Group_3621" data-name="Group 3621" transform="translate(.128 .129)">
                    <path id="prefix__Path_9460" d="M8280.719 9851.939a12.813 12.813 0 0 0-3.708-.625c-2.721.62-4.152 1.444-4.821 4.335a5.981 5.981 0 0 0-.115.658 25.993 25.993 0 0 0 8.942.877 7.406 7.406 0 0 0 3.426-.908 5.494 5.494 0 0 0-3.724-4.337z" class="prefix__cls-1" data-name="Path 9460" transform="translate(-8272.074 -9851.314)"/>
                </g>
                <g id="prefix__Group_3622" data-name="Group 3622">
                    <path id="prefix__Path_9461" d="M8278.881 9857.241a27.954 27.954 0 0 1-7.014-.986.124.124 0 0 1-.093-.138 6.379 6.379 0 0 1 .118-.67c.684-2.957 2.19-3.813 4.916-4.433a.122.122 0 0 1 .034 0 12.967 12.967 0 0 1 3.745.633 5.612 5.612 0 0 1 3.8 4.438.119.119 0 0 1-.059.129 7.445 7.445 0 0 1-3.478.928 18.281 18.281 0 0 1-1.969.099zm-6.84-1.2a27.768 27.768 0 0 0 6.84.949 17.529 17.529 0 0 0 1.95-.105 7.435 7.435 0 0 0 3.294-.839 5.346 5.346 0 0 0-3.62-4.156 12.646 12.646 0 0 0-3.655-.616c-2.667.609-4.054 1.4-4.709 4.232-.041.2-.077.375-.1.531z" class="prefix__cls-2" data-name="Path 9461" transform="translate(-8271.773 -9851.011)"/>
                </g>
            </g>
            <g id="prefix__Group_3625" class="prefix__cls-7" data-name="Group 3625" transform="translate(5.065 .127)">
                <g id="prefix__Group_3624" data-name="Group 3624">
                    <path id="prefix__Path_9462" d="M8295.652 9845.038a8.62 8.62 0 0 1-8.574.416 6.125 6.125 0 0 1-1.074 1.074c1.512.649 4.556 1.689 7.072.83 1.193-.512 2.131-.682 2.389.169s-1.025 1.025-2.135 2.047-1.592 1.755-2.3.514c-.878-1.533-3.256-2.563-6.06-2.883a6.21 6.21 0 0 1-1.137.466c-.062.013-.118.027-.18.043a12.818 12.818 0 0 1 3.708.625 5.5 5.5 0 0 1 3.724 4.338 8.383 8.383 0 0 0 1.307-1.055 31.068 31.068 0 0 1 4.2-3.105c0-.027.007-.051.007-.074a11.228 11.228 0 0 0-.947-3.405z" class="prefix__cls-8" data-name="Path 9462" transform="translate(-8283.654 -9845.038)"/>
                </g>
            </g>
        </g>
        <g id="prefix__Group_3629" data-name="Group 3629" transform="translate(8295.216 9747.625)">
            <g id="prefix__Group_3627" data-name="Group 3627" transform="translate(.128 .121)">
                <path id="prefix__Path_9463" d="M8340.488 9858.578c-4.18.04-5.714 0-8.486-2.391a28.95 28.95 0 0 0-4.044-2.968c0 .023-.006.045-.007.068-.084 1.408.809 1.365 1.791 2.73a6.764 6.764 0 0 0 5.329 3.367c3.112.3 9.3-.171 10.873-.937a1.234 1.234 0 0 0 .675-.966 18.5 18.5 0 0 1-6.131 1.097z" class="prefix__cls-1" data-name="Path 9463" transform="translate(-8327.945 -9853.22)"/>
            </g>
            <g id="prefix__Group_3628" data-name="Group 3628">
                <path id="prefix__Path_9464" d="M8337.169 9859.443c-.881 0-1.647-.031-2.279-.094a6.844 6.844 0 0 1-5.423-3.419 6.13 6.13 0 0 0-.974-1.05 1.857 1.857 0 0 1-.841-1.764v-.043a.156.156 0 0 1 .07-.118.146.146 0 0 1 .124-.01 29.111 29.111 0 0 1 4.063 2.982c2.8 2.412 4.378 2.4 8.4 2.356a18.5 18.5 0 0 0 6.089-1.084.141.141 0 0 1 .127.019.128.128 0 0 1 .042.122 1.359 1.359 0 0 1-.745 1.058c-1.271.626-5.506 1.045-8.653 1.045zm-9.267-6.166a1.637 1.637 0 0 0 .761 1.416 6.387 6.387 0 0 1 1.012 1.087 6.621 6.621 0 0 0 5.236 3.315c.625.061 1.384.091 2.258.091 3.118 0 7.3-.408 8.548-1.016a1.041 1.041 0 0 0 .552-.649 18.833 18.833 0 0 1-5.95 1.019c-4.1.043-5.7.054-8.572-2.418a29.5 29.5 0 0 0-3.847-2.845z" class="prefix__cls-2" data-name="Path 9464" transform="translate(-8327.646 -9852.936)"/>
            </g>
        </g>
        <g id="prefix__Group_3630" class="prefix__cls-3" data-name="Group 3630" transform="translate(8295.344 9747.745)">
            <path id="prefix__Path_9465" d="M8336.808 9858.48a8.11 8.11 0 0 1-4.806-2.293 28.95 28.95 0 0 0-4.044-2.968c0 .023-.006.045-.007.068-.084 1.408.809 1.365 1.791 2.73a6.764 6.764 0 0 0 5.329 3.367c.465.045 1 .074 1.572.084.05-.328.106-.657.165-.988z" class="prefix__cls-4" data-name="Path 9465" transform="translate(-8327.945 -9853.22)"/>
        </g>
        <g id="prefix__Group_3631" class="prefix__cls-3" data-name="Group 3631" transform="translate(8295.344 9747.745)">
            <path id="prefix__Path_9466" d="M8331.043 9857.607a15.181 15.181 0 0 1 .239-2.022 27.255 27.255 0 0 0-3.324-2.365c0 .023-.006.045-.007.068-.084 1.408.809 1.365 1.791 2.73a11.785 11.785 0 0 0 1.301 1.589z" class="prefix__cls-4" data-name="Path 9466" transform="translate(-8327.945 -9853.22)"/>
        </g>
        <g id="prefix__Group_3638" data-name="Group 3638" transform="translate(8295.225 9744.063)">
            <g id="prefix__Group_3634" data-name="Group 3634">
                <g id="prefix__Group_3632" data-name="Group 3632" transform="translate(.13 .126)">
                    <path id="prefix__Path_9467" d="M8342.919 9847.814c-2.077-.814-3.965-.865-4.632-2.939-2.09.939-3.5 3.244-9.683 0a26.322 26.322 0 0 0-.631 3.559 28.839 28.839 0 0 1 4.044 2.969 12.313 12.313 0 0 0 1.865 1.359c.292-1.541 1.754-5.291 9.037-4.948z" class="prefix__cls-5" data-name="Path 9467" transform="translate(-8327.974 -9844.875)"/>
                </g>
                <g id="prefix__Group_3633" data-name="Group 3633">
                    <path id="prefix__Path_9468" d="M8333.709 9852.719a.116.116 0 0 1-.066-.017 12.509 12.509 0 0 1-1.883-1.372 28.3 28.3 0 0 0-4.027-2.956.127.127 0 0 1-.062-.119 26.75 26.75 0 0 1 .639-3.579.123.123 0 0 1 .07-.083.116.116 0 0 1 .111 0 11.916 11.916 0 0 0 5.264 1.655 5.851 5.851 0 0 0 3.234-1.075 9.741 9.741 0 0 1 1.072-.584.12.12 0 0 1 .1 0 .114.114 0 0 1 .068.075c.5 1.542 1.678 1.914 3.18 2.386.438.141.893.282 1.361.466a.128.128 0 0 1 .105.125.123.123 0 0 1-.131.128h-.01c-.311-.015-.613-.02-.906-.02-6.391 0-7.723 3.4-8 4.863a.14.14 0 0 1-.074.093.134.134 0 0 1-.045.014zm-5.779-4.521a28.385 28.385 0 0 1 4 2.938 12.762 12.762 0 0 0 1.693 1.257c.359-1.607 1.873-4.9 8.213-4.9h.117c-.211-.071-.412-.132-.615-.2-1.467-.464-2.736-.864-3.3-2.417-.311.151-.607.326-.918.514a6.081 6.081 0 0 1-3.365 1.111 11.9 11.9 0 0 1-5.236-1.611 26 26 0 0 0-.589 3.31z" class="prefix__cls-6" data-name="Path 9468" transform="translate(-8327.67 -9844.58)"/>
                </g>
            </g>
            <g id="prefix__Group_3637" data-name="Group 3637" transform="translate(5.912 2.914)">
                <g id="prefix__Group_3635" data-name="Group 3635" transform="translate(.128 .129)">
                    <path id="prefix__Path_9469" d="M8351.823 9852.171a8.46 8.46 0 0 0-.952-.432c-7.282-.343-8.744 3.405-9.035 4.948 1.814 1.041 3.462 1.059 6.621 1.028a18.479 18.479 0 0 0 6.131-1.1c.225-1.326-.928-3.479-2.765-4.444z" class="prefix__cls-1" data-name="Path 9469" transform="translate(-8341.836 -9851.717)"/>
                </g>
                <g id="prefix__Group_3636" data-name="Group 3636">
                    <path id="prefix__Path_9470" d="M8347.063 9857.676c-2.46 0-3.905-.158-5.463-1.053a.121.121 0 0 1-.062-.133c.287-1.527 1.667-5.076 8.249-5.076.295 0 .606.008.919.023a.115.115 0 0 1 .039.01 8.633 8.633 0 0 1 .968.438c1.951 1.023 3.058 3.238 2.83 4.584a.12.12 0 0 1-.081.1 18.739 18.739 0 0 1-6.175 1.1c-.436.003-.842.007-1.224.007zm-5.256-1.229c1.477.828 2.884.975 5.254.975.38 0 .784 0 1.221-.01a18.515 18.515 0 0 0 6.017-1.059c.16-1.264-.944-3.314-2.709-4.242a8.918 8.918 0 0 0-.919-.418c-.3-.016-.6-.02-.887-.02-6.261.001-7.664 3.27-7.976 4.774z" class="prefix__cls-2" data-name="Path 9470" transform="translate(-8341.534 -9851.414)"/>
                </g>
            </g>
        </g>
        <g id="prefix__Group_3640" class="prefix__cls-7" data-name="Group 3640" transform="translate(8295.354 9744.188)">
            <g id="prefix__Group_3639" data-name="Group 3639">
                <path id="prefix__Path_9471" d="M8340.911 9847.143a17.488 17.488 0 0 0-6.293 2.168c-1.279.684-1.192 2.475-1.706 1.537a5.768 5.768 0 0 0-3.069-2.389c-1.622-.684-1.108-2.217 1.109-1.277 4.608 1.576 6.878-.348 7.748-1.457a3.1 3.1 0 0 1-.413-.85c-2.09.939-3.5 3.244-9.683 0a26.322 26.322 0 0 0-.631 3.559 28.839 28.839 0 0 1 4.044 2.969 12.313 12.313 0 0 0 1.865 1.359c.291-1.541 1.753-5.291 9.036-4.947-.704-.276-1.385-.467-2.007-.672z" class="prefix__cls-8" data-name="Path 9471" transform="translate(-8327.974 -9844.875)"/>
            </g>
        </g>
        <g id="prefix__Group_3642" data-name="Group 3642" transform="translate(8271.522 9746.987)">
            <g id="prefix__Group_3641" class="prefix__cls-3" data-name="Group 3641">
                <path id="prefix__Path_9472" d="M8280.719 9852.012a12.091 12.091 0 0 0-2.812-.57c1.222.3 2.3.859 2.472 1.892.384 2.315-3.071 4.068-8.149 2.241l-.04.148a5.993 5.993 0 0 0-.115.656 25.964 25.964 0 0 0 8.942.878 7.432 7.432 0 0 0 3.426-.906 5.493 5.493 0 0 0-3.724-4.339z" class="prefix__cls-4" data-name="Path 9472" transform="translate(-8272.074 -9851.441)"/>
            </g>
        </g>
        <g id="prefix__Group_3644" class="prefix__cls-3" data-name="Group 3644" transform="translate(8301.265 9747.104)">
            <g id="prefix__Group_3643" data-name="Group 3643">
                <path id="prefix__Path_9473" d="M8345.215 9854.514c1.534-2.154 4.913-2.272 7-2.11a4.284 4.284 0 0 0-.4-.232 8.46 8.46 0 0 0-.952-.432c-7.282-.343-8.744 3.405-9.035 4.948 1.814 1.041 3.462 1.059 6.621 1.028a18.479 18.479 0 0 0 6.131-1.1 2.521 2.521 0 0 0-.031-.9c-3.016 1.853-11.323 1.598-9.334-1.202z" class="prefix__cls-4" data-name="Path 9473" transform="translate(-8341.836 -9851.717)"/>
            </g>
        </g>
        <g id="prefix__Group_3647" data-name="Group 3647" transform="translate(8271.113 9671.313)">
            <g id="prefix__Group_3645" data-name="Group 3645" transform="translate(.129 .127)">
                <path id="prefix__Path_9474" fill="#fbde02" d="M8310.532 9686.974s-3.386-7.264-4.266-9.269c-1.022-2.33-2.955-2.386-4.663-2.843a8.2 8.2 0 0 0-.891-.169c-1.076-.154-2.613-.268-3.928-.341-1.449-.079-2.629-.115-2.629-.115l-1.887.025-3.595.046-2.9.036s-.149.006-.478.038c-.377.033-.993.1-1.911.211-.542.069-1.183.151-1.943.26-3.187.446-4.33 2.229-5.6 4.712s-3.442 8.728-3.442 8.728a1.51 1.51 0 0 0-.89 1.911c.446 1.4 3.692 1.782 7.008.893 0 6.879.254 12.42.254 12.42a1.431 1.431 0 0 0-1.147 1.721 2.554 2.554 0 0 0 .957 1.337l.423-.737a29.471 29.471 0 0 0 4.105 1.045 44.427 44.427 0 0 0 4.826.648 47.2 47.2 0 0 0 14.112-.984c1.238-.274 2.507-.605 3.8-1.009 1.536-.765 1.22-1.251-.06-3.092-.225-5.373-.878-13.48-.878-13.48s5.968 1.021 6.536-.229-.913-1.763-.913-1.763z" data-name="Path 9474" transform="translate(-8271.415 -9674.237)"/>
            </g>
            <g id="prefix__Group_3646" data-name="Group 3646">
                <path id="prefix__Path_9475" d="M8291.551 9707.641c-1.266 0-2.546-.051-3.8-.153a45.162 45.162 0 0 1-4.841-.651 31.471 31.471 0 0 1-4.021-1.015l-.372.647a.125.125 0 0 1-.171.046 2.621 2.621 0 0 1-1.015-1.4 1.537 1.537 0 0 1 1.135-1.863c-.035-.788-.247-5.941-.251-12.159a13.587 13.587 0 0 1-3.326.44c-2.009 0-3.385-.546-3.677-1.459a1.62 1.62 0 0 1 .912-2.042c.215-.612 2.228-6.351 3.429-8.693 1.289-2.512 2.455-4.327 5.7-4.779.761-.108 1.405-.191 1.945-.261.941-.116 1.563-.18 1.918-.213.333-.029.48-.038.48-.038l8.388-.106c.017 0 1.205.036 2.639.115 1.706.1 3.028.211 3.939.343a7.622 7.622 0 0 1 .9.171c.262.069.526.129.792.189 1.507.343 3.063.692 3.957 2.725.83 1.9 3.947 8.591 4.239 9.22a1.838 1.838 0 0 1 .982.869 1.252 1.252 0 0 1-.051 1.048c-.211.469-1.021.7-2.475.7a29.48 29.48 0 0 1-4.04-.37c.095 1.172.66 8.39.869 13.285.749 1.086 1.2 1.743 1.063 2.285-.089.349-.4.628-1.076.965-1.243.39-2.524.73-3.827 1.021a48.111 48.111 0 0 1-6.75 1c-1.187.092-2.397.133-3.594.133zm-12.724-2.1a.16.16 0 0 1 .043.009 29.231 29.231 0 0 0 4.086 1.039 43.664 43.664 0 0 0 4.813.647 47.159 47.159 0 0 0 14.072-.981c1.3-.289 2.57-.627 3.788-1 .573-.292.855-.528.922-.794.113-.436-.322-1.062-1.046-2.1a.118.118 0 0 1-.024-.066c-.223-5.313-.873-13.4-.88-13.477a.119.119 0 0 1 .041-.1.115.115 0 0 1 .107-.032 30.339 30.339 0 0 0 4.159.389c1.735 0 2.149-.342 2.243-.545a1.017 1.017 0 0 0 .047-.843 1.642 1.642 0 0 0-.883-.746.138.138 0 0 1-.075-.065c-.032-.073-3.394-7.291-4.267-9.271-.838-1.915-2.333-2.251-3.775-2.579-.269-.061-.536-.12-.8-.191a8.445 8.445 0 0 0-.877-.167c-.9-.131-2.215-.245-3.917-.34-1.429-.079-2.613-.115-2.623-.115l-8.379.107s-.145.008-.466.038c-.353.032-.972.095-1.909.213-.541.064-1.18.149-1.937.257-3.13.438-4.259 2.2-5.513 4.644s-3.412 8.648-3.432 8.711a.136.136 0 0 1-.077.08 1.369 1.369 0 0 0-.814 1.75c.252.792 1.566 1.283 3.432 1.283a13.408 13.408 0 0 0 3.419-.475.131.131 0 0 1 .11.02.126.126 0 0 1 .052.1c0 6.8.252 12.361.257 12.414a.133.133 0 0 1-.105.134 1.293 1.293 0 0 0-1.043 1.571 2.722 2.722 0 0 0 .786 1.176l.354-.62a.134.134 0 0 1 .111-.08z" class="prefix__cls-6" data-name="Path 9475" transform="translate(-8271.112 -9673.939)"/>
            </g>
        </g>
        <g id="prefix__Group_3648" class="prefix__cls-3" data-name="Group 3648" transform="translate(8271.242 9681.034)">
            <path id="prefix__Path_9476" d="M8310.532 9699.884s-.654-1.4-1.461-3.144c-1.013.058-2.03.118-3.044.166-4 .193-8.021.177-12.028.19s-8.031.044-12.045-.035c-2-.041-4.018-.171-6.022-.157-.656 0-1.317.025-1.977.034-.848 2.217-1.56 4.264-1.56 4.264a1.51 1.51 0 0 0-.89 1.911c.446 1.4 3.692 1.783 7.008.894 0 6.879.254 12.419.254 12.419a1.431 1.431 0 0 0-1.147 1.721 2.548 2.548 0 0 0 .957 1.337l.423-.737a29.54 29.54 0 0 0 4.105 1.046 44.671 44.671 0 0 0 4.826.648 47.288 47.288 0 0 0 14.112-.984c1.238-.275 2.507-.606 3.8-1.009 1.536-.766 1.22-1.251-.06-3.092-.225-5.373-.878-13.481-.878-13.481s5.968 1.021 6.536-.229-.909-1.762-.909-1.762z" class="prefix__cls-5" data-name="Path 9476" transform="translate(-8271.415 -9696.74)"/>
        </g>
        <g id="prefix__Group_3678" data-name="Group 3678" transform="translate(8275.729 9702.611)">
            <g id="prefix__Group_3655" data-name="Group 3655">
                <g id="prefix__Group_3651" data-name="Group 3651" transform="translate(26.939)">
                    <g id="prefix__Group_3649" data-name="Group 3649" transform="translate(.129 .128)">
                        <path id="prefix__Path_9477" d="M8348.584 9752.415a37.358 37.358 0 0 0-.283-4.76c-.972.3-1.93.564-2.871.795.464 1.133 1.601 3.49 3.154 3.965z" class="prefix__cls-10" data-name="Path 9477" transform="translate(-8345.43 -9747.655)"/>
                    </g>
                    <g id="prefix__Group_3650" data-name="Group 3650">
                        <path id="prefix__Path_9478" d="M8348.41 9752.371a.1.1 0 0 1-.038-.006c-1.567-.479-2.7-2.738-3.234-4.038a.115.115 0 0 1 0-.108.127.127 0 0 1 .082-.066c.982-.239 1.944-.5 2.865-.791a.114.114 0 0 1 .105.013.134.134 0 0 1 .06.091 37.074 37.074 0 0 1 .28 4.774.122.122 0 0 1-.051.1.124.124 0 0 1-.069.031zm-2.979-4.007c.439 1.039 1.474 3.138 2.849 3.7a36.89 36.89 0 0 0-.259-4.41c-.834.246-1.705.492-2.589.71z" class="prefix__cls-11" data-name="Path 9478" transform="translate(-8345.127 -9747.354)"/>
                    </g>
                </g>
                <g id="prefix__Group_3654" data-name="Group 3654" transform="translate(0 .795)">
                    <g id="prefix__Group_3652" data-name="Group 3652" transform="translate(.126 .129)">
                        <path id="prefix__Path_9479" d="M8311.791 9768.768c0-2.646.586-9.686.539-15.282-1.552-.475-2.69-2.832-3.154-3.965a46.679 46.679 0 0 1-21.917.1c-.161 1.086-.865 4.045-3.747 4.678-.487 2.853-2.323 12.271-.461 14.557-.768 1.533-.6 1.875-.087 2.559.34 7.418 2.3 15.522 2.559 17.4 0 0 .549 1.075 4.309 1.006 3.988-.273 4.788-1.254 5.236-2.347a75.573 75.573 0 0 0-.562-11.311 20.1 20.1 0 0 0-1.932-6.54s1.139-1.534.739-2.218-.908-.455-.568-2.786 2.388-8.643 3.58-9.21 2.049.283 2.333 1.594 1.278 6.311 1.79 10.659c.6 2.56-.255 3.242.6 4.691 0 4.265 1.108 13.05 1.367 15.266 0 0 .341 1.834 3.5 2.813a5.131 5.131 0 0 0 5.883-2.472c.428-4.266-.257-10.748.341-12.28s.768-2.135.257-2.729-.605-.687-.605-4.183z" class="prefix__cls-12" data-name="Path 9479" transform="translate(-8282.233 -9749.521)"/>
                    </g>
                    <g id="prefix__Group_3653" data-name="Group 3653">
                        <path id="prefix__Path_9480" fill="#0f2433" d="M8307.209 9790.617a5.078 5.078 0 0 1-1.51-.237c-3.19-.992-3.567-2.835-3.583-2.912-.029-.258-.069-.584-.115-.98-.372-3.135-1.247-10.469-1.248-14.275a3.254 3.254 0 0 1-.389-2.1 8.5 8.5 0 0 0-.21-2.6c-.509-4.314-1.484-9.268-1.788-10.663-.228-1.046-.782-1.671-1.484-1.671a1.565 1.565 0 0 0-.668.166c-1.115.532-3.163 6.73-3.512 9.115-.255 1.741-.026 1.994.26 2.315a2.529 2.529 0 0 1 .3.389c.39.67-.461 1.95-.7 2.29a20.983 20.983 0 0 1 1.909 6.511 76.557 76.557 0 0 1 .563 11.334.1.1 0 0 1-.01.044c-.439 1.072-1.215 2.144-5.349 2.429h-.345c-3.491 0-4.062-1.037-4.083-1.082a.062.062 0 0 1-.012-.039c-.062-.45-.229-1.291-.44-2.354a107.241 107.241 0 0 1-2.118-15.017c-.538-.721-.657-1.134.06-2.588-1.682-2.261-.254-10.375.36-13.859l.128-.731a.127.127 0 0 1 .1-.1c2.766-.61 3.471-3.4 3.645-4.576a.141.141 0 0 1 .057-.086.133.133 0 0 1 .1-.018 44.4 44.4 0 0 0 10.633 1.246 47.345 47.345 0 0 0 11.223-1.347.129.129 0 0 1 .147.075c.418 1.016 1.553 3.428 3.075 3.892a.126.126 0 0 1 .088.121c.031 3.422-.177 7.371-.34 10.544-.106 1.993-.2 3.713-.2 4.739 0 3.437.077 3.523.561 4.089.586.684.354 1.373-.228 2.866a22.369 22.369 0 0 0-.219 5.446 62.811 62.811 0 0 1-.114 6.8.116.116 0 0 1-.017.049 5.541 5.541 0 0 1-4.527 2.775zm-10.329-35.689c.83 0 1.479.7 1.733 1.871.3 1.4 1.285 6.361 1.794 10.673a8.7 8.7 0 0 1 .209 2.658 3.033 3.033 0 0 0 .368 1.982.109.109 0 0 1 .02.064c0 3.783.876 11.141 1.248 14.282l.116.97c0 .009.376 1.764 3.407 2.708a4.9 4.9 0 0 0 1.432.224 5.274 5.274 0 0 0 4.291-2.615 62.758 62.758 0 0 0 .108-6.744c-.044-2.53-.085-4.712.235-5.544.594-1.521.745-2.058.278-2.6-.532-.624-.626-.732-.626-4.265 0-1.032.089-2.758.192-4.753.166-3.14.371-7.044.346-10.436-1.482-.521-2.563-2.617-3.1-3.907a47.854 47.854 0 0 1-11.177 1.328 44.753 44.753 0 0 1-10.558-1.22c-.216 1.277-.991 3.969-3.741 4.627-.031.188-.068.4-.113.646-.611 3.487-2.049 11.649-.36 13.719a.143.143 0 0 1 .016.141c-.766 1.53-.557 1.811-.1 2.423a.139.139 0 0 1 .024.071 106.841 106.841 0 0 0 2.119 15.02c.214 1.085.37 1.877.436 2.341.084.121.822.979 4.186.926 3.945-.275 4.7-1.258 5.107-2.248a74.845 74.845 0 0 0-.559-11.262 20.052 20.052 0 0 0-1.917-6.493.137.137 0 0 1 .006-.145c.3-.406 1.022-1.577.733-2.075a2.257 2.257 0 0 0-.265-.348c-.366-.409-.579-.752-.321-2.522.333-2.278 2.363-8.694 3.654-9.307a1.8 1.8 0 0 1 .779-.19z" data-name="Path 9480" transform="translate(-8281.938 -9749.219)"/>
                    </g>
                </g>
            </g>
            <g id="prefix__Group_3658" data-name="Group 3658" transform="translate(1.278 .299)">
                <g id="prefix__Group_3656" data-name="Group 3656" transform="translate(.127 .129)">
                    <path id="prefix__Path_9481" d="M8288.98 9748.952c-1.322-.329-2.053-.594-2.053-.594l-.424.736a19.23 19.23 0 0 0-1.258 4.468c-.006.02-.01.048-.014.068 2.884-.63 3.587-3.591 3.749-4.678z" class="prefix__cls-10" data-name="Path 9481" transform="translate(-8285.232 -9748.358)"/>
                </g>
                <g id="prefix__Group_3657" data-name="Group 3657">
                    <path id="prefix__Path_9482" d="M8285.063 9753.588a.128.128 0 0 1-.126-.148l.009-.045a19.587 19.587 0 0 1 1.272-4.527l.426-.748a.13.13 0 0 1 .156-.055c.008 0 .74.268 2.038.592a.128.128 0 0 1 .1.143c-.183 1.223-.924 4.143-3.847 4.785a.107.107 0 0 1-.028.003zm1.751-5.248l-.371.646a19.328 19.328 0 0 0-1.219 4.3c2.524-.668 3.242-3.213 3.439-4.41-.97-.245-1.61-.456-1.849-.536z" class="prefix__cls-11" data-name="Path 9482" transform="translate(-8284.936 -9748.057)"/>
                </g>
            </g>
            <g id="prefix__Group_3661" data-name="Group 3661" transform="translate(2.856 38.747)">
                <g id="prefix__Group_3659" data-name="Group 3659" transform="translate(.127 .127)">
                    <path id="prefix__Path_9483" d="M8293.676 9840.883c-3.761.068-4.31-1.008-4.31-1.008-1.021.938.087 2.3.087 2.3s6.1 3.072 10.173-1.217a7.838 7.838 0 0 0-.715-2.427c-.448 1.096-1.247 2.077-5.235 2.352z" class="prefix__cls-10" data-name="Path 9483" transform="translate(-8288.935 -9838.534)"/>
                </g>
                <g id="prefix__Group_3660" data-name="Group 3660">
                    <path id="prefix__Path_9484" d="M8293.972 9843.2a11.828 11.828 0 0 1-4.747-1.082.1.1 0 0 1-.044-.033c-.011-.016-1.17-1.467-.071-2.479a.133.133 0 0 1 .11-.031.128.128 0 0 1 .091.068c0 .008.6 1 4.193.939 3.976-.275 4.708-1.273 5.118-2.27a.123.123 0 0 1 .1-.076.121.121 0 0 1 .117.043 7.587 7.587 0 0 1 .744 2.484.131.131 0 0 1-.033.115 7.4 7.4 0 0 1-5.578 2.322zm-4.609-1.3a11.62 11.62 0 0 0 4.609 1.041 7.156 7.156 0 0 0 5.346-2.189 14.671 14.671 0 0 0-.569-2.088c-.473.98-1.431 1.908-5.237 2.174h-.346c-2.776 0-3.706-.658-3.982-.947-.703.795.051 1.845.178 2.009z" class="prefix__cls-11" data-name="Path 9484" transform="translate(-8288.637 -9838.238)"/>
                </g>
            </g>
            <g id="prefix__Group_3664" data-name="Group 3664" transform="translate(19.416 38.892)">
                <g id="prefix__Group_3662" data-name="Group 3662" transform="translate(.129 .128)">
                    <path id="prefix__Path_9485" d="M8332.037 9841.69c-3.156-.979-3.5-2.812-3.5-2.812-1.2.341-.684 1.875-.43 2.813 2.646 1.536 7.424 4.011 10.49-.765-.252-1.964-.594-1.878-.68-1.707a5.132 5.132 0 0 1-5.88 2.471z" class="prefix__cls-10" data-name="Path 9485" transform="translate(-8327.782 -9838.878)"/>
                </g>
                <g id="prefix__Group_3663" data-name="Group 3663">
                    <path id="prefix__Path_9486" d="M8333.741 9843.672a12.293 12.293 0 0 1-5.865-2.04.115.115 0 0 1-.059-.078l-.052-.179c-.27-.97-.678-2.439.564-2.793a.128.128 0 0 1 .1.016.112.112 0 0 1 .058.084c0 .019.38 1.773 3.41 2.717a4.885 4.885 0 0 0 1.433.225 5.279 5.279 0 0 0 4.3-2.639.247.247 0 0 1 .222-.147c.194 0 .477.2.7 1.9a.128.128 0 0 1-.019.087 5.533 5.533 0 0 1-4.792 2.847zm-5.693-2.236a12 12 0 0 0 5.693 1.98 5.281 5.281 0 0 0 4.556-2.694c-.205-1.521-.439-1.626-.446-1.628a5.5 5.5 0 0 1-4.519 2.786 5.068 5.068 0 0 1-1.509-.238c-2.72-.844-3.394-2.309-3.547-2.771-.777.319-.569 1.336-.263 2.437z" class="prefix__cls-11" data-name="Path 9486" transform="translate(-8327.479 -9838.577)"/>
                </g>
            </g>
            <g id="prefix__Group_3665" class="prefix__cls-7" data-name="Group 3665" transform="translate(3.351 3.399)">
                <path id="prefix__Path_9487" d="M8311.012 9792.282c-2.5-.793-3.409-1.705-3.409-6.709s-.229-10.347 1.137-10.461 2.047-.568.909-1.251-1.932-.113-2.161-2.5-1.25-9.553-.113-10.689 1.707-1.707.343-1.821c-2.443-.2 1.594-1.591 2.614-3.522-5.8 2.5-11.6 2.045-16.942.34 2.159 2.161 4.207 2.957 3.184 2.73s-1.82-.341-.91.341 1.82.454 1.479 2.048-1.705 6.823-1.934 9.322-4.436 3.982-4.436 3.982a5.921 5.921 0 0 0 3.41-.684c1.365-.91 3.3 11.828 1.933 13.418s1.48 3.185-.338 4.776c-1.258 1.1-4.246.573-5.979.14.027.153.049.289.064.4 0 0 .548 1.077 4.308 1.008 3.989-.273 4.788-1.255 5.237-2.348a75.445 75.445 0 0 0-.562-11.312 20.078 20.078 0 0 0-1.932-6.538s1.138-1.535.739-2.219-.909-.455-.569-2.786 2.389-8.642 3.581-9.209 2.048.282 2.332 1.593 1.278 6.311 1.79 10.659c.6 2.559-.254 3.242.6 4.691 0 4.265 1.107 13.05 1.366 15.267 0 0 .341 1.834 3.5 2.813a5.135 5.135 0 0 0 5.885-2.472c.01-.124.023-.251.034-.38-1.711 1.598-3.086 2.035-5.16 1.373z" class="prefix__cls-12" data-name="Path 9487" transform="translate(-8289.798 -9755.327)"/>
            </g>
            <g id="prefix__Group_3667" class="prefix__cls-7" data-name="Group 3667" transform="translate(.936 .924)">
                <g id="prefix__Group_3666" data-name="Group 3666">
                    <path id="prefix__Path_9488" d="M8288.546 9752c.454-1.025.683-1.365 2.5-1.025s11.145 1.706 17.739-.34c1.709-.681 1.821.229 1.024 1.365s-.228.909.908 1.023 2.274.225 2.617 3.3c.013.109.03.218.052.321.027-1.073.041-2.137.032-3.152-1.553-.475-2.69-2.832-3.154-3.965a46.677 46.677 0 0 1-21.917.1c-.162 1.086-.865 4.045-3.747 4.678-.108.635-.282 1.6-.468 2.729a3.416 3.416 0 0 0 .772-1.279c.914-1.599 2.734-1.255 3.642-3.755z" class="prefix__cls-12" data-name="Path 9488" transform="translate(-8284.135 -9749.521)"/>
                </g>
            </g>
            <g id="prefix__Group_3668" data-name="Group 3668" transform="translate(.545 8.843)">
                <path id="prefix__Path_9489" d="M8284.913 9780.22a5.053 5.053 0 0 1-1.386-2.348 18.926 18.926 0 0 1-.078-3.644c.03-2.056.477-4.071.559-6.115 0-.042-.049.007-.051.032-.25 2.451-.62 4.845-.714 7.319-.076 1.969-.1 3.648 1.433 5.084.101.098.324-.228.237-.328z" class="prefix__cls-14" data-name="Path 9489" transform="translate(-8283.216 -9768.097)"/>
            </g>
            <g id="prefix__Group_3669" data-name="Group 3669" transform="translate(3.205 20.792)">
                <path id="prefix__Path_9490" d="M8292.969 9796.139a4.042 4.042 0 0 1-1.79.594c-.521.008-1.05-.143-1.576-.154-.094 0-.211.232-.1.24.589.043 1.166.211 1.757.209a3.507 3.507 0 0 0 1.7-.68c.072-.048.148-.284.009-.209z" class="prefix__cls-14" data-name="Path 9490" transform="translate(-8289.457 -9796.124)"/>
            </g>
            <g id="prefix__Group_3670" data-name="Group 3670" transform="translate(1.658 24.458)">
                <path id="prefix__Path_9491" d="M8285.93 9804.758c0-.084-.1.007-.1.058a58.251 58.251 0 0 0 1.8 12.611c.043.166.271-.091.247-.207a72.079 72.079 0 0 1-1.947-12.462z" class="prefix__cls-14" data-name="Path 9491" transform="translate(-8285.828 -9804.724)"/>
            </g>
            <g id="prefix__Group_3671" class="prefix__cls-7" data-name="Group 3671" transform="translate(.86 20.856)">
                <path id="prefix__Path_9492" d="M8288.675 9797.258a9.8 9.8 0 0 1-2.636.146 4.837 4.837 0 0 1-2.009-1.123c-.038-.027-.1.021-.064.063a3.733 3.733 0 0 0 1.918 1.43 3.1 3.1 0 0 0 1.32.027 4.446 4.446 0 0 0 1.513-.422.067.067 0 0 0-.042-.121z" class="prefix__cls-15" data-name="Path 9492" transform="translate(-8283.957 -9796.273)"/>
            </g>
            <g id="prefix__Group_3672" class="prefix__cls-7" data-name="Group 3672" transform="translate(24.243 22.592)">
                <path id="prefix__Path_9493" d="M8338.892 9800.35a9.865 9.865 0 0 0 2.537.73 4.846 4.846 0 0 0 2.207-.645c.048-.02.094.041.053.073a3.762 3.762 0 0 1-2.19.969 3.134 3.134 0 0 1-1.295-.274 4.409 4.409 0 0 1-1.381-.746c-.049-.045.008-.128.069-.107z" class="prefix__cls-15" data-name="Path 9493" transform="translate(-8338.805 -9800.347)"/>
            </g>
            <g id="prefix__Group_3673" data-name="Group 3673" transform="translate(9.446 2.828)">
                <path id="prefix__Path_9494" d="M8317.368 9754.081a69.62 69.62 0 0 1-7.3.826 13.109 13.109 0 0 1-5.925-.918c-.023-.012-.056.041-.037.055a9.909 9.909 0 0 0 5.848 1.132 69.777 69.777 0 0 0 7.362-.879c.078-.017.174-.232.052-.216z" class="prefix__cls-14" data-name="Path 9494" transform="translate(-8304.096 -9753.987)"/>
            </g>
            <g id="prefix__Group_3674" data-name="Group 3674" transform="translate(27.366 4.886)">
                <path id="prefix__Path_9495" d="M8346.15 9758.814c-.014 0-.033.033-.016.037a2.641 2.641 0 0 1 1.818 2.084c.012.09.129-.045.129-.092a2.232 2.232 0 0 0-1.931-2.029z" class="prefix__cls-14" data-name="Path 9495" transform="translate(-8346.128 -9758.814)"/>
            </g>
            <g id="prefix__Group_3675" data-name="Group 3675" transform="translate(27.904 8.281)">
                <path id="prefix__Path_9496" d="M8349.027 9766.8c0-.05-.056 0-.058.03q-.177 3.366-.376 6.733a30.281 30.281 0 0 0-.047 3.754c.08 1.312.11 3.188-1.035 4.075-.118.094-.212.542.026.384 1.514-1 1.43-3.01 1.355-4.656-.147-3.443.213-6.882.135-10.32z" class="prefix__cls-14" data-name="Path 9496" transform="translate(-8347.39 -9766.777)"/>
            </g>
            <g id="prefix__Group_3676" data-name="Group 3676" transform="translate(24.589 21.971)">
                <path id="prefix__Path_9497" d="M8342.543 9799.7a12.42 12.42 0 0 1-1.375-.071 3.413 3.413 0 0 1-1.447-.735c-.047-.034-.131.094-.1.134a3.221 3.221 0 0 0 2.818.907c.088-.007.217-.235.104-.235z" class="prefix__cls-14" data-name="Path 9497" transform="translate(-8339.615 -9798.889)"/>
            </g>
            <g id="prefix__Group_3677" data-name="Group 3677" transform="translate(29.082 24.258)">
                <path id="prefix__Path_9498" d="M8350.814 9804.27c-.032-.067-.146.088-.122.149.5 1.317-.1 2.112-.362 3.236a11.348 11.348 0 0 0-.052 2.417c-.018 2.219 0 4.438-.125 6.652-.015.292.332-.036.349-.2a67.888 67.888 0 0 0 .041-7.244c-.013-1.75 1.046-3.358.271-5.01z" class="prefix__cls-14" data-name="Path 9498" transform="translate(-8350.153 -9804.253)"/>
            </g>
        </g>
        <g id="prefix__Group_3680" class="prefix__cls-7" data-name="Group 3680" transform="translate(8271.242 9676.01)">
            <g id="prefix__Group_3679" data-name="Group 3679">
                <path id="prefix__Path_9499" d="M8311.553 9694.166a6.1 6.1 0 0 1-2.24-.671c-1.778-.783-2.419.212-3.341-1.852a52.641 52.641 0 0 1-2.919-6.687c.142 2.349-.641 3.486-2.564 3.415s-5.479 2.135-6.975 3.49-6.26 1.063-7.257.212a12.941 12.941 0 0 0-4.7-2.563c-1.64-.355-1.142-1.424-.854-3.7-1.139 2.489-1.78 3.344-3.2 3.628a4.742 4.742 0 0 0-3.63 2.562 3.42 3.42 0 0 1-1.248 1.789l-.23.653a1.509 1.509 0 0 0-.89 1.91c.446 1.4 3.692 1.783 7.008.894 0 6.879.254 12.42.254 12.42a1.431 1.431 0 0 0-1.147 1.721 2.554 2.554 0 0 0 .957 1.337l.423-.737a29.471 29.471 0 0 0 4.105 1.045 44.671 44.671 0 0 0 4.826.648 47.288 47.288 0 0 0 14.112-.984c1.238-.274 2.507-.605 3.8-1.009 1.536-.765 1.22-1.251-.06-3.092-.225-5.373-.878-13.48-.878-13.48s5.968 1.021 6.536-.229a1.2 1.2 0 0 0 .112-.72zm-18.036 17.457c-2.17.078-14.5.528-13.487-4.19a5.21 5.21 0 0 1 1.875-2.893c2.329-1.95 6.186-2.85 8.607-3.039 3.809-.3 10.822 1.5 11.923 4.409s2.308 5.311-8.918 5.713z" class="prefix__cls-8" data-name="Path 9499" transform="translate(-8271.415 -9684.956)"/>
            </g>
        </g>
        <g id="prefix__Group_3682" class="prefix__cls-7" data-name="Group 3682" transform="translate(8281.346 9671.439)">
            <g id="prefix__Group_3681" data-name="Group 3681">
                <path id="prefix__Path_9500" d="M8297.889 9675.384c.123.7.617 5.895 1.855 6.181s2.6-3.463 3.875-3.71 2.266 3.544 3.955 3.256 1.361-4.038 1.689-5.232c.295-1.065 2.355-1.346 3.732-1.335-.844-.08-1.773-.143-2.617-.19-1.447-.079-2.627-.115-2.627-.115l-1.887.025-3.6.046-2.9.036s-.15.006-.477.038c-.377.033-.994.1-1.912.211-.521.067-1.143.147-1.867.251 1.302.035 2.716.162 2.781.538z" class="prefix__cls-8" data-name="Path 9500" transform="translate(-8295.113 -9674.237)"/>
            </g>
        </g>
        <g id="prefix__Group_3693" data-name="Group 3693" transform="translate(8284.642 9669.36)">
            <g id="prefix__Group_3685" data-name="Group 3685" transform="translate(2.416 .076)">
                <g id="prefix__Group_3683" data-name="Group 3683" transform="translate(.128 .127)">
                    <path id="prefix__Path_9501" d="M8311.892 9673.883a2.23 2.23 0 0 0 1.979-1.7c.021-.375.039-1.547.053-2.346-.046.018-.095.035-.146.057-.93.4-2.352.619-4.825.1a.471.471 0 0 0-.139 0c.021.605.061 1.545.139 2.348.247 1.017 1.794 1.637 2.939 1.541z" class="prefix__cls-16" data-name="Path 9501" transform="translate(-8308.813 -9669.836)"/>
                </g>
                <g id="prefix__Group_3684" data-name="Group 3684">
                    <path id="prefix__Path_9502" d="M8311.488 9673.851c-1.17 0-2.587-.633-2.832-1.653-.08-.812-.12-1.735-.143-2.376a.128.128 0 0 1 .11-.129.583.583 0 0 1 .174 0 7.951 7.951 0 0 0 4.759-.085l.15-.06a.141.141 0 0 1 .118.019.129.129 0 0 1 .053.105c-.006.567-.03 1.93-.053 2.35a2.34 2.34 0 0 1-2.1 1.823c-.073.004-.156.006-.236.006zm-2.713-3.907c.021.628.063 1.479.131 2.21.209.854 1.5 1.44 2.582 1.44.076 0 .147 0 .221-.007a2.1 2.1 0 0 0 1.863-1.582c.019-.375.037-1.514.047-2.146a5.721 5.721 0 0 1-2.231.4 12.714 12.714 0 0 1-2.613-.316z" class="prefix__cls-17" data-name="Path 9502" transform="translate(-8308.514 -9669.538)"/>
                </g>
            </g>
            <g id="prefix__Group_3686" class="prefix__cls-18" data-name="Group 3686" transform="translate(2.544 .203)">
                <path id="prefix__Path_9503" d="M8311.892 9673.883a2.23 2.23 0 0 0 1.979-1.7c.021-.375.039-1.547.053-2.346-.046.018-.095.035-.146.057-.93.4-2.352.619-4.825.1a.471.471 0 0 0-.139 0c.021.605.061 1.545.139 2.348.247 1.017 1.794 1.637 2.939 1.541z" class="prefix__cls-19" data-name="Path 9503" transform="translate(-8308.813 -9669.836)"/>
            </g>
            <g id="prefix__Group_3687" class="prefix__cls-18" data-name="Group 3687" transform="translate(2.544 .203)">
                <path id="prefix__Path_9504" d="M8313.9 9671.168c.01-.437.019-.932.025-1.332-.046.018-.095.035-.146.057-.93.4-2.352.619-4.825.1a.471.471 0 0 0-.139 0c.012.357.034.834.061 1.33a9.923 9.923 0 0 0 5.024-.155z" class="prefix__cls-19" data-name="Path 9504" transform="translate(-8308.813 -9669.836)"/>
            </g>
            <g id="prefix__Group_3690" data-name="Group 3690">
                <g id="prefix__Group_3688" data-name="Group 3688" transform="translate(.125 .131)">
                    <path id="prefix__Path_9505" d="M8312.813 9671.467c-1.142-1.464-1.343-2.013-2.146-1.728-.014.8-.031 1.971-.053 2.346a2.23 2.23 0 0 1-1.979 1.7c-1.146.095-2.692-.524-2.939-1.546-.077-.8-.118-1.741-.139-2.348-.238.029-.764.209-1.438 1.11-.93 1.237-1.146 1.452-.867 3.093s.741 4.332 1.421 4.238 2.663-4.3 3.589-4.27 1.859 1.951 3.064 3.344 1.486-.062 1.826-2.229.241-2.968-.339-3.71z" class="prefix__cls-1" data-name="Path 9505" transform="translate(-8303.14 -9669.667)"/>
                </g>
                <g id="prefix__Group_3689" data-name="Group 3689">
                    <path id="prefix__Path_9506" d="M8304.474 9678.287c-.717 0-1.125-2.053-1.515-4.349a2.963 2.963 0 0 1 .8-3.062l.092-.125c.7-.93 1.255-1.128 1.523-1.162a.143.143 0 0 1 .1.027.132.132 0 0 1 .046.095c.02.634.063 1.558.136 2.339.224.914 1.691 1.527 2.8 1.435a2.1 2.1 0 0 0 1.862-1.582c.021-.417.04-1.774.049-2.342a.126.126 0 0 1 .087-.118c.759-.269 1.044.118 1.778 1.1.148.2.315.42.511.67.622.8.705 1.653.367 3.813-.285 1.79-.5 2.883-1.154 2.883-.262 0-.545-.19-.895-.592-.4-.458-.761-.968-1.112-1.459-.666-.936-1.3-1.82-1.86-1.84-.448 0-1.344 1.368-2 2.365-.749 1.151-1.225 1.856-1.569 1.9a.5.5 0 0 1-.046.004zm.794-8.411a2.62 2.62 0 0 0-1.214 1.028l-.093.125a2.73 2.73 0 0 0-.751 2.869c.192 1.132.7 4.135 1.264 4.135h.016c.248-.036.883-1.007 1.393-1.789.98-1.5 1.663-2.483 2.205-2.483.7.023 1.338.914 2.074 1.946.348.487.705.99 1.094 1.44.361.413.584.5.7.5.481 0 .7-1.413.9-2.666.328-2.07.257-2.881-.314-3.612-.2-.252-.362-.476-.514-.673-.554-.741-.806-1.077-1.168-1.077a.843.843 0 0 0-.236.039c-.011.61-.028 1.858-.051 2.257a2.343 2.343 0 0 1-2.1 1.823c-1.208.1-2.81-.552-3.073-1.644-.068-.745-.109-1.594-.132-2.218z" class="prefix__cls-2" data-name="Path 9506" transform="translate(-8302.847 -9669.359)"/>
                </g>
            </g>
            <g id="prefix__Group_3692" data-name="Group 3692" transform="translate(.621 .131)" style="isolation:isolate;mix-blend-mode:multiply" opacity="0.3">
                <g id="prefix__Group_3691" data-name="Group 3691">
                    <path id="prefix__Path_9507" d="M8311.527 9673.837c.919-.921.615-1.586.868-2.457.146-.493.822.022 1.379.561a2.579 2.579 0 0 0-.294-.474c-1.141-1.464-1.341-2.013-2.145-1.728-.013.8-.031 1.971-.053 2.346a2.229 2.229 0 0 1-1.978 1.7c-1.146.095-2.694-.524-2.939-1.546-.078-.8-.119-1.741-.141-2.348-.236.029-.762.209-1.437 1.11-.191.255-.353.465-.485.655.53-.378 1.028-.578 1.028 0 0 1.684.3 1.784.893 2.18.511.341.068 2.358-1.38 4.049.15.3.317.479.5.451.683-.091 2.662-4.3 3.59-4.27s1.857 1.951 3.063 3.344c.514.59.858.663 1.109.393-1.187-2.003-2.415-3.132-1.578-3.966z" class="prefix__cls-8" data-name="Path 9507" transform="translate(-8304.303 -9669.667)"/>
                </g>
            </g>
        </g>
        <g id="prefix__Group_3696" data-name="Group 3696" transform="translate(8272.317 9679.707)">
            <g id="prefix__Group_3694" data-name="Group 3694" transform="translate(.13 .129)">
                <path id="prefix__Path_9508" d="M8274.457 9701.059s-1.492 5.246 3.412 6.4c3.795.426 7.975-.213 16.031-4.181 4.99-2.3 7.207-3.537 8.916-3.624s3.752.3 4.348-.256-.187-1.165-.187-1.165a.888.888 0 0 0-.158-.756c.246-.264-.215-1.127-1.109-2.059 0 0-.105-.773-1.373-1.194a5.9 5.9 0 0 0-5.723 1.187c-1.555 1.259-2.855 2.346-3.281 2.646s-2.369.957-8 1.257c-5.71.336-12.533 1.147-12.876 1.745z" class="prefix__cls-16" data-name="Path 9508" transform="translate(-8274.243 -9693.933)"/>
            </g>
            <g id="prefix__Group_3695" data-name="Group 3695">
                <path id="prefix__Path_9509" d="M8279.676 9707.523a17.479 17.479 0 0 1-2-.115 4.578 4.578 0 0 1-3.079-2.086 6.365 6.365 0 0 1-.442-4.471c.434-.763 8.008-1.544 13-1.844 6.485-.341 7.8-1.143 7.929-1.234.278-.2.955-.746 1.81-1.444.444-.361.942-.77 1.468-1.194a6.1 6.1 0 0 1 3.985-1.5 5.833 5.833 0 0 1 1.858.3c1.165.388 1.4 1.073 1.448 1.252.689.722 1.36 1.668 1.146 2.116a1.012 1.012 0 0 1 .143.715 1.14 1.14 0 0 1 .4.727.734.734 0 0 1-.262.58 2.34 2.34 0 0 1-1.577.343c-.334 0-.691-.018-1.074-.033-.586-.024-1.2-.049-1.779-.019-1.327.063-3.011.859-6.074 2.3-.824.388-1.746.824-2.795 1.307-6.132 3.013-10.352 4.3-14.105 4.3zm-5.284-6.577a6.251 6.251 0 0 0 .431 4.248 4.331 4.331 0 0 0 2.9 1.963 17.657 17.657 0 0 0 1.954.109c3.713 0 7.9-1.28 13.994-4.278 1.05-.484 1.972-.921 2.8-1.309 3.09-1.459 4.8-2.261 6.168-2.33.586-.027 1.211 0 1.8.021.377.016.735.028 1.063.028a2.378 2.378 0 0 0 1.4-.272.491.491 0 0 0 .184-.381.965.965 0 0 0-.366-.589.127.127 0 0 1-.041-.14.757.757 0 0 0-.139-.639.129.129 0 0 1 .007-.166c.147-.155-.157-.9-1.105-1.882a.127.127 0 0 1-.035-.071c0-.028-.121-.7-1.284-1.093a5.7 5.7 0 0 0-1.778-.28 5.826 5.826 0 0 0-3.82 1.445c-.529.428-1.028.833-1.472 1.2-.857.7-1.537 1.255-1.824 1.458-.219.152-1.643.939-8.061 1.279-6.172.367-12.5 1.2-12.775 1.682z" class="prefix__cls-17" data-name="Path 9509" transform="translate(-8273.937 -9693.63)"/>
            </g>
        </g>
        <g id="prefix__Group_3698" class="prefix__cls-18" data-name="Group 3698" transform="translate(8272.448 9679.836)">
            <g id="prefix__Group_3697" data-name="Group 3697">
                <path id="prefix__Path_9510" d="M8306.977 9698.229a.888.888 0 0 0-.158-.756c.246-.264-.215-1.127-1.109-2.059 0 0-.105-.773-1.373-1.194a5.9 5.9 0 0 0-5.723 1.187c-1.555 1.259-2.855 2.346-3.281 2.646s-2.369.957-8 1.257c-5.713.341-12.537 1.151-12.879 1.749 0 0-1.492 5.246 3.412 6.4 3.795.426 7.975-.213 16.031-4.181 4.99-2.3 7.207-3.537 8.916-3.624s3.752.3 4.348-.256-.184-1.169-.184-1.169zm-3.352.582c-2.186-.482-2.559.245-4.947 1.522s-10.787 5.372-16.928 6.054-5.2-2.229-5.2-2.229.664-2.983 6.367-3.312a64.708 64.708 0 0 0 11.758-1.833c1.475-.4 3.359-2.6 4.834-3.717a4.586 4.586 0 0 1 3.395-1.153c1.107.1 1.492.282 1.572.438s-.311.282-1.287.259a4.065 4.065 0 0 0-1.445.152s1.676.1 2.422.129 1.031.36 1.135.595-.336.336-1.211.232a6.361 6.361 0 0 0-1.961.179s1.781.105 2.373.182a1.285 1.285 0 0 1 1.082.719c.078.285-.311.155-1.209-.075a2.791 2.791 0 0 0-1.857.337 4.375 4.375 0 0 1 1.992.216c.881.368 1.963.794 1.963 1.166s-.659.622-2.848.14z" class="prefix__cls-21" data-name="Path 9510" transform="translate(-8274.243 -9693.933)"/>
            </g>
        </g>
        <g id="prefix__Group_3702" data-name="Group 3702" transform="translate(8298.993 9680.671)">
            <g id="prefix__Group_3699" data-name="Group 3699">
                <path id="prefix__Path_9511" d="M8336.509 9696.342a6.331 6.331 0 0 1 .757-.236 7.428 7.428 0 0 1 .8-.148 7.743 7.743 0 0 1 .932-.067 6.3 6.3 0 0 1 .936.067c.15.028.291.056.427.089s.257.076.371.113.209.094.3.136.155.091.217.123l.184.119-.207-.071a1.28 1.28 0 0 0-.231-.082c-.093-.023-.2-.049-.307-.082l-.366-.069c-.131-.017-.271-.035-.414-.051-.289-.024-.6-.041-.907-.037s-.618.013-.91.037l-.8.068c-.467.049-.782.091-.782.091z" class="prefix__cls-17" data-name="Path 9511" transform="translate(-8336.509 -9695.89)"/>
            </g>
            <g id="prefix__Group_3700" data-name="Group 3700" transform="translate(.266 1.127)">
                <path id="prefix__Path_9512" d="M8337.133 9699.063s.088-.042.252-.1a6.011 6.011 0 0 1 .686-.209 7.53 7.53 0 0 1 1-.184 5.453 5.453 0 0 1 .574-.033 4.893 4.893 0 0 1 .6.017 4.669 4.669 0 0 1 .595.088c.191.041.38.107.559.164a5 5 0 0 1 .491.241c.141.1.283.185.4.285s.206.2.288.292a3 3 0 0 1 .18.258c.092.147.146.23.146.23s-.068-.07-.185-.2a2.216 2.216 0 0 0-.21-.223c-.094-.072-.2-.156-.31-.246s-.259-.15-.4-.234-.312-.121-.474-.193c-.173-.046-.352-.1-.533-.136a5.458 5.458 0 0 0-.567-.072 4.031 4.031 0 0 0-.572-.027c-.19-.008-.377 0-.559.013-.362.022-.7.054-.992.1s-.529.08-.7.117-.269.052-.269.052z" class="prefix__cls-17" data-name="Path 9512" transform="translate(-8337.133 -9698.534)"/>
            </g>
            <g id="prefix__Group_3701" data-name="Group 3701" transform="translate(1.115 2.23)">
                <path id="prefix__Path_9513" d="M8339.124 9701.642a5.638 5.638 0 0 1 .788-.3 5.3 5.3 0 0 1 .851-.194 2.7 2.7 0 0 1 .506-.015 1.445 1.445 0 0 1 .519.149c.308.131.613.265.9.4s.545.269.776.366c.455.212.753.372.753.372s-.328-.082-.809-.238-1.105-.4-1.725-.666a1.188 1.188 0 0 0-.436-.136 2.716 2.716 0 0 0-.463-.007 7.057 7.057 0 0 0-.838.108c-.495.085-.822.161-.822.161z" class="prefix__cls-17" data-name="Path 9513" transform="translate(-8339.124 -9701.121)"/>
            </g>
        </g>
        <g id="prefix__Group_3705" data-name="Group 3705" transform="translate(8288.876 9684.705)">
            <g id="prefix__Group_3703" data-name="Group 3703" transform="translate(.127 .126)">
                <path id="prefix__Path_9514" d="M8329.7 9705.878a5.185 5.185 0 0 1 4.778.914c.483 3.263.944 4.951-1.433 6.182s-9.238.472-13.673-.115a39.927 39.927 0 0 1-6.293-1.373s6.98-3.29 9.382-4.376a6.6 6.6 0 0 1 3.976-.743c1.456.055 2.658.227 3.263-.489z" class="prefix__cls-16" data-name="Path 9514" transform="translate(-8313.076 -9705.648)"/>
            </g>
            <g id="prefix__Group_3704" data-name="Group 3704">
                <path id="prefix__Path_9515" d="M8328.4 9713.593a76.906 76.906 0 0 1-9.224-.776 40.945 40.945 0 0 1-6.316-1.378.13.13 0 0 1-.087-.116.123.123 0 0 1 .071-.121c.071-.033 7.009-3.3 9.387-4.378a6.417 6.417 0 0 1 3.776-.766l.256.009.556.025c.345.021.671.035.97.035.861 0 1.335-.145 1.633-.5a.152.152 0 0 1 .056-.039 5.765 5.765 0 0 1 1.669-.234 4.742 4.742 0 0 1 3.236 1.178.108.108 0 0 1 .041.077l.1.675c.44 2.869.684 4.451-1.6 5.633a10.741 10.741 0 0 1-4.524.676zm-15.146-2.3a40.639 40.639 0 0 0 5.957 1.271 76.059 76.059 0 0 0 9.189.773 10.531 10.531 0 0 0 4.406-.646c2.123-1.1 1.9-2.526 1.468-5.366l-.1-.634a4.526 4.526 0 0 0-3.032-1.08 5.815 5.815 0 0 0-1.556.211 2.282 2.282 0 0 1-1.8.563c-.306 0-.633-.019-.98-.035-.181-.011-.365-.017-.554-.026l-.258-.01a6.241 6.241 0 0 0-3.662.74c-2.084.946-7.712 3.595-9.074 4.236z" class="prefix__cls-17" data-name="Path 9515" transform="translate(-8312.777 -9705.353)"/>
            </g>
        </g>
        <g id="prefix__Group_3708" data-name="Group 3708" transform="translate(8273.94 9681.392)">
            <g id="prefix__Group_3706" data-name="Group 3706" transform="translate(.127 .129)">
                <path id="prefix__Path_9516" d="M8278.6 9703.664s-.543.689.084.717 1.374-.976 2.063-1.346a16.287 16.287 0 0 1 6.384-1.319 41.98 41.98 0 0 0 4.381-.226s-1.69-1.033-3.637-2.209-1.688-1.257-5.038-1.4a7.333 7.333 0 0 0-3.379.686c-.774.259-1.459.63-1.262 1.632-.284 1.6-.14 2.263.173 2.577-.09.745-.031.916.231.888z" class="prefix__cls-16" data-name="Path 9516" transform="translate(-8278.041 -9697.883)"/>
            </g>
            <g id="prefix__Group_3707" data-name="Group 3707">
                <path id="prefix__Path_9517" d="M8278.54 9704.335h-.033a.413.413 0 0 1-.4-.211.625.625 0 0 1 .1-.541.285.285 0 0 1-.073-.059c-.112-.126-.133-.352-.075-.875-.363-.419-.412-1.231-.168-2.622-.2-1.08.567-1.491 1.349-1.754.153-.053.3-.111.449-.169a6.769 6.769 0 0 1 2.971-.523c3.01.128 3.152.217 4.523 1.064.173.105.362.225.579.355 1.95 1.175 3.641 2.205 3.641 2.205a.133.133 0 0 1 .058.135.123.123 0 0 1-.107.1 43 43 0 0 1-4.4.231 16.2 16.2 0 0 0-6.326 1.3 4.794 4.794 0 0 0-.784.6 2.4 2.4 0 0 1-1.304.764zm-.113-.97a.131.131 0 0 1 .113.066.136.136 0 0 1-.014.14c-.1.13-.224.356-.183.447.017.034.079.059.175.063l.021.126v-.126c.333 0 .743-.357 1.142-.7a5.024 5.024 0 0 1 .831-.628 16.57 16.57 0 0 1 6.443-1.333c2.175-.041 3.428-.133 4-.189-.579-.352-1.876-1.14-3.314-2.009-.219-.131-.413-.25-.586-.355-1.346-.832-1.456-.9-4.395-1.029a6.57 6.57 0 0 0-2.869.508c-.152.062-.3.123-.461.174-.828.278-1.345.637-1.175 1.486a.188.188 0 0 1 0 .047c-.241 1.348-.2 2.131.136 2.465a.122.122 0 0 1 .036.105c-.05.429-.048.677.006.735 0 .006.026.018.082.011z" class="prefix__cls-17" data-name="Path 9517" transform="translate(-8277.743 -9697.581)"/>
            </g>
        </g>
        <g id="prefix__Group_3712" data-name="Group 3712" transform="translate(8274.165 9681.698)">
            <g id="prefix__Group_3709" data-name="Group 3709" transform="translate(.503 2.669)">
                <path id="prefix__Path_9518" d="M8279.451 9707.557s.143-.293.384-.726c.123-.212.259-.464.418-.729.078-.129.171-.273.264-.4a2.878 2.878 0 0 1 .343-.385 1.671 1.671 0 0 1 .443-.275 2.988 2.988 0 0 1 .464-.157c.3-.075.582-.128.822-.182.483-.1.811-.146.811-.146s-.31.125-.772.285l-.8.26a3.744 3.744 0 0 0-.425.165 1.455 1.455 0 0 0-.376.241 2.7 2.7 0 0 0-.313.338c-.1.137-.19.248-.273.377-.175.256-.349.486-.487.684-.292.399-.503.65-.503.65z" class="prefix__cls-17" data-name="Path 9518" transform="translate(-8279.451 -9704.559)"/>
            </g>
            <g id="prefix__Group_3710" data-name="Group 3710" transform="translate(.26 1.686)">
                <path id="prefix__Path_9519" d="M8278.884 9705.365s0-.1.007-.268a5.289 5.289 0 0 1 .077-.7c.028-.145.061-.3.108-.462a2.732 2.732 0 0 1 .187-.5 1.393 1.393 0 0 1 .367-.479.532.532 0 0 1 .139-.088.67.67 0 0 1 .154-.063l.281-.077c.185-.045.369-.1.553-.14l.555-.1c.359-.066.7-.108.982-.146.575-.069.962-.089.962-.089s-.092.026-.256.069-.4.1-.681.164-.609.142-.954.223c-.177.035-.356.074-.541.118s-.366.1-.555.148l-.276.071a.379.379 0 0 0-.112.042.37.37 0 0 0-.1.063 1.223 1.223 0 0 0-.319.389 4.186 4.186 0 0 0-.353.892c-.075.276-.137.51-.17.675s-.055.258-.055.258z" class="prefix__cls-17" data-name="Path 9519" transform="translate(-8278.883 -9702.252)"/>
            </g>
            <g id="prefix__Group_3711" data-name="Group 3711">
                <path id="prefix__Path_9520" d="M8278.275 9701.021a.655.655 0 0 1 .019-.227 1.339 1.339 0 0 1 .07-.252 2.04 2.04 0 0 1 .156-.309 3.09 3.09 0 0 1 .261-.318 2.23 2.23 0 0 1 .347-.3c.131-.084.271-.188.41-.261s.285-.153.428-.233c.286-.152.576-.306.86-.433a5.086 5.086 0 0 1 .8-.289 1.685 1.685 0 0 1 .334-.069 1.159 1.159 0 0 1 .259-.03c.143-.006.226-.006.226-.006l-.219.056a1.5 1.5 0 0 0-.246.07c-.094.035-.2.065-.308.115a6.738 6.738 0 0 0-.747.357c-.267.141-.552.3-.838.453-.145.078-.289.152-.432.226s-.27.156-.4.229a2.8 2.8 0 0 0-.347.246 2.445 2.445 0 0 0-.272.268 2.926 2.926 0 0 0-.185.263 1.1 1.1 0 0 0-.11.226.922.922 0 0 0-.066.218z" class="prefix__cls-17" data-name="Path 9520" transform="translate(-8278.272 -9698.298)"/>
            </g>
        </g>
        <g id="prefix__Group_3714" class="prefix__cls-18" data-name="Group 3714" transform="translate(8274.067 9681.527)">
            <g id="prefix__Group_3713" data-name="Group 3713">
                <path id="prefix__Path_9521" d="M8287.872 9699.292c-1.463-.88-1.68-1.146-3.117-1.285a1.149 1.149 0 0 0 .445.116 1.684 1.684 0 0 1 1.5 2.154c-.183.745-.69.807-2.452 1.073s-3.348.747-4.154 1.645-1.555.9-.748-.117a4.978 4.978 0 0 1 1.975-1.824c-1.2.121-1.526.356-1.555-.119s1.852-.926 1.852-.926-.777.117-2.03.3-.985-.507-.12-.925a15.185 15.185 0 0 1 2.06-1.105c.339-.134.62-.262.856-.375a7.257 7.257 0 0 0-2.923.68c-.774.258-1.459.628-1.262 1.632-.284 1.6-.14 2.261.173 2.576-.087.743-.028.916.23.886 0 0-.543.689.084.717s1.374-.974 2.063-1.344a16.25 16.25 0 0 1 6.384-1.319 41.709 41.709 0 0 0 4.381-.227s-1.696-1.038-3.642-2.213z" class="prefix__cls-21" data-name="Path 9521" transform="translate(-8278.041 -9697.899)"/>
            </g>
        </g>
        <g id="prefix__Group_3716" class="prefix__cls-18" data-name="Group 3716" transform="translate(8289.003 9684.831)">
            <g id="prefix__Group_3715" data-name="Group 3715">
                <path id="prefix__Path_9522" d="M8334.475 9706.792a5.185 5.185 0 0 0-4.778-.914c-.6.716-1.8.544-3.263.488a6.6 6.6 0 0 0-3.976.743c-2.4 1.086-9.382 4.376-9.382 4.376a39.927 39.927 0 0 0 6.293 1.373c4.435.587 11.3 1.346 13.673.115s1.916-2.918 1.433-6.181zm-5.692 5.461c-4.967.194-12.618-.853-10.461-2.289s5.361-3.009 8.5-3.009 3.332 2.354 3.332 1.635a3.163 3.163 0 0 1 .457-2.419c1.312-.2 2.879-.064 3.338 2.095s-.195 3.789-5.167 3.987z" class="prefix__cls-21" data-name="Path 9522" transform="translate(-8313.076 -9705.648)"/>
            </g>
        </g>
        <g id="prefix__Group_3721" data-name="Group 3721" transform="translate(8275.461 9681.153)" style="mix-blend-mode:screen;isolation:isolate" opacity="0.4">
            <g id="prefix__Group_3717" data-name="Group 3717" transform="translate(1.173 4.623)">
                <path id="prefix__Path_9523" d="M8296.181 9707.864c-2.153.266-4.3.728-6.442 1.073a13.416 13.416 0 0 0-5.631 1.723c-.039.024-.077.153-.007.11a14.159 14.159 0 0 1 5.569-1.561c2.162-.3 4.293-.631 6.437-1.048.112-.018.244-.318.074-.297z" class="prefix__cls-23" data-name="Path 9523" transform="translate(-8284.062 -9707.863)"/>
            </g>
            <g id="prefix__Group_3718" data-name="Group 3718" transform="translate(15.184)">
                <path id="prefix__Path_9524" d="M8324.893 9697.042a22.676 22.676 0 0 0-3.127 2.328 9.79 9.79 0 0 1-4.791 2.009c-.029.007-.074.1-.033.095a8.16 8.16 0 0 0 4.127-1.257c1.322-.892 2.533-1.98 3.844-2.908.087-.063.153-.371-.02-.267z" class="prefix__cls-23" data-name="Path 9524" transform="translate(-8316.925 -9697.021)"/>
            </g>
            <g id="prefix__Group_3719" data-name="Group 3719" transform="translate(21.311 5.204)">
                <path id="prefix__Path_9525" d="M8340.933 9710.809a6.011 6.011 0 0 0-4.443-1.58 10.79 10.79 0 0 0-5.137 1.528c-.046.025-.1.175-.007.131a14.337 14.337 0 0 1 4.983-1.281 7.559 7.559 0 0 1 4.682 1.37c.151.092.055-.053-.078-.168z" class="prefix__cls-23" data-name="Path 9525" transform="translate(-8331.296 -9709.226)"/>
            </g>
            <g id="prefix__Group_3720" data-name="Group 3720" transform="translate(0 .523)">
                <path id="prefix__Path_9526" d="M8286.835 9698.4c-2.059-.549-3.7.485-5.473 1.335-.04.018-.084.149-.021.126.808-.321 1.559-.737 2.378-1.038a5.733 5.733 0 0 1 2.975-.093c.126.023.293-.29.141-.33z" class="prefix__cls-23" data-name="Path 9526" transform="translate(-8281.31 -9698.245)"/>
            </g>
        </g>
    </g>
</svg>
