<svg xmlns="http://www.w3.org/2000/svg" width="75.306" height="78.649" viewBox="0 0 75.306 78.649">
    <defs>
        <style>
            .prefix__cls-2{fill:#ba3e50}.prefix__cls-3{fill:#ad688c}.prefix__cls-5{fill:#935177}.prefix__cls-8{fill:#ffd95f}.prefix__cls-10{fill:#efaf62}.prefix__cls-11,.prefix__cls-12{fill:#d89348}.prefix__cls-12{opacity:.4;mix-blend-mode:multiply;isolation:isolate}.prefix__cls-13{fill:#f9c791}.prefix__cls-14{fill:#e24b61}
        </style>
    </defs>
    <g id="prefix__Group_5038" data-name="Group 5038">
        <path id="prefix__Path_9059" fill="#96273d" d="M4995.28 1474.58l-24.344 1.857c.451-18.743-4.526-39.142-8.87-55.082l11.966-4.678s25.993 6.123 21.248 57.903z" data-name="Path 9059" transform="translate(-4929.603 -1408.355)"/>
        <path id="prefix__Path_9060" d="M5050.6 1420.6c36.561 17.349 22.329 46.093 17.356 55.085z" class="prefix__cls-2" data-name="Path 9060" transform="translate(-4999.565 -1411.459)"/>
        <path id="prefix__Rectangle_2090" d="M0 0H5.08V5.508H0z" class="prefix__cls-3" data-name="Rectangle 2090" transform="rotate(-80.2 35.048 -20.845)"/>
        <path id="prefix__Path_9061" fill="#fac9b6" d="M4990.6 1377.255l-5.913-.255v10.934l7.4-1.022z" data-name="Path 9061" transform="translate(-4947.477 -1377)"/>
        <path id="prefix__Path_9062" d="M4853.855 1466.015c3.713-7.22 16.917-32.39 25.375-35.9l-1.238 8.665s-12.172 9.078-22.693 27.851z" class="prefix__cls-3" data-name="Path 9062" transform="translate(-4844.087 -1418.977)"/>
        <path id="prefix__Path_9063" d="M4876 1463.24c-4.266 3.891-12.839 14.464-20.149 27.506l-1.02-.437c-.371.711-.7 1.349-.975 1.881l1.444.619a101.025 101.025 0 0 1 20.515-26.042c.357-.367.391-3.011.185-3.527z" class="prefix__cls-5" data-name="Path 9063" transform="translate(-4844.087 -1445.153)"/>
        <path id="prefix__Path_9064" fill="#844167" d="M4871.627 1557.118l-3.4-2.4-1.758 2.34 3.832 3z" data-name="Path 9064" transform="translate(-4854.054 -1517.447)"/>
        <path id="prefix__Path_9065" d="M4920.24 1447.2c.918-9.991 1.168-25.614-1.9-27.956-4.333-3.3-14.854-1.032-18.156 3.095-2.624 3.28 2.1 10.934-2.664 29.715-3.048 9.748-8.334 23.449-13.5 35.386l1.444-.206c3.543-6.428 11.332-18.435 16.541-26.335 3.875-2.63 8.721-3.064 11.466.129 1.76 8.936 3.885 20.229 4.661 26.412h1.191c-.477-13.971.632-30.34.917-40.24z" class="prefix__cls-3" data-name="Path 9065" transform="translate(-4867.925 -1409.131)"/>
        <path id="prefix__Path_9066" fill="#edabd1" d="M4979.442 1482.374h11.858l-6.5-8.974z" data-name="Path 9066" transform="translate(-4943.334 -1453.181)"/>
        <path id="prefix__Path_9067" d="M5010.561 1590.62l6.6-3.233.482-4.469-9.353 6.326z" class="prefix__cls-5" data-name="Path 9067" transform="translate(-4966.133 -1539.73)"/>
        <path id="prefix__Path_9068" d="M4944.622 1585.942l5.963 5.061 3.881-1.51-9.454-6.176z" class="prefix__cls-5" data-name="Path 9068" transform="translate(-4915.817 -1540.045)"/>
        <g id="prefix__Group_3513" data-name="Group 3513" transform="translate(16.843 8.537)">
            <path id="prefix__Path_9069" d="M4903.008 1616.468c-4.814 7.791-11.925 19.488-15.417 26.151l.694-.1c3.543-6.427 11.333-18.435 16.54-26.335a12.167 12.167 0 0 1 5.014-2.016 11.205 11.205 0 0 0-6.831 2.3z" class="prefix__cls-5" data-name="Path 9069" transform="translate(-4887.592 -1572.958)"/>
            <path id="prefix__Path_9070" d="M5020.637 1419.274c-1.7-1.3-4.365-1.724-7.166-1.526a8.421 8.421 0 0 1 4.121 1.351c3.14 2.25 3.348 17.873 2.723 27.887 0 9.909-.624 26.3.259 40.251h-.172c.009.074.022.156.03.229h1.191c-.475-13.966.634-30.335.918-40.239.919-9.988 1.17-25.611-1.904-27.953z" class="prefix__cls-5" data-name="Path 9070" transform="translate(-4987.07 -1417.702)"/>
            <path id="prefix__Path_9071" d="M5024.465 1508.295c-1.754-.1-5.983 1.96-6.706-7.84-.341-4.634 6.6-4.436 6.6-4.436z" class="prefix__cls-5" data-name="Path 9071" transform="translate(-4990.449 -1479.593)"/>
        </g>
        <path id="prefix__Path_9072" d="M4944.361 1578.293l8.665 5.089h5.776l8.939-5.364.139-3.164-22.97-.137z" class="prefix__cls-8" data-name="Path 9072" transform="translate(-4915.611 -1533.25)"/>
        <path id="prefix__Path_9073" fill="#edc148" d="M4964.828 1575.286a12.991 12.991 0 0 1-7.625 5.615c-5.725 1.752-11.312.084-12.478-3.73-.034-.108-.049-.218-.073-.325l-.292 1.9 8.666 5.088h5.776l8.939-5.364.139-3.164z" data-name="Path 9073" transform="translate(-4915.61 -1533.699)"/>
        <path id="prefix__Path_9074" d="M4819.569 1576.051c2.682-1.745 8.936-11.842 8.787-13.426s-5.451-6.426-7.949-6.075-9.518 10.244-9.641 12.72 6.357 8.375 8.803 6.781z" class="prefix__cls-10" data-name="Path 9074" transform="translate(-4810.035 -1518.879)"/>
        <path id="prefix__Path_9075" d="M4838.142 1564.189c.689 6.075-6.217 3.295-7.247 4.379-6.587 6.95.926 13.739 3.707 12 2.578-1.612 8.172-10.872 7.915-12.315-.155-.853-2.21-2.739-4.375-4.064z" class="prefix__cls-11" data-name="Path 9075" transform="translate(-4823.861 -1524.929)"/>
        <path id="prefix__Path_9076" d="M4839.847 1572.666l1.857-1.459c-.048-.021-.093-.05-.142-.071l-.037-1.033-1.712 1.343-2.987-3.2 1.273-1.4.048.055 3.184-2.045-.04-1.138-3.119 2-2.109-2.347-.142-3.073-.217-.032h-.654l.133 2.906-4.086 1.935c-.02.356-.039.722-.05 1.1l4.545-2.153 1.849 2.058-3.707 4.086-2.705-2.471q.005.556.025 1.123l2.3 2.1.567 4.42-1.719.058c.111.311.23.614.362.914l2.331-.082-.661-5.164 2.043-2.253z" class="prefix__cls-12" data-name="Path 9076" transform="translate(-4826.05 -1521.826)"/>
        <path id="prefix__Path_9077" d="M5036.407 1480.686c1.635-.562 2.686-1.422 2.344-1.915s-1.946-.438-3.583.124-2.686 1.422-2.344 1.915 1.946.438 3.583-.124z" class="prefix__cls-13" data-name="Path 9077" transform="translate(-4985.47 -1457.16)"/>
        <path id="prefix__Path_9078" d="M5025.719 1492.512c.169-.916-.174-1.747-.766-1.858s-1.208.543-1.378 1.46.175 1.747.764 1.857 1.21-.543 1.38-1.459z" class="prefix__cls-13" data-name="Path 9078" transform="translate(-4978.177 -1466.808)"/>
        <path id="prefix__Path_9079" d="M5025.8 1506.929c-.083-.928-.638-1.637-1.236-1.586s-1.02.848-.937 1.776.635 1.636 1.234 1.583 1.024-.846.939-1.773z" class="prefix__cls-13" data-name="Path 9079" transform="translate(-4978.247 -1478.423)"/>
        <path id="prefix__Path_9080" d="M5029.8 1521.282c-.271-.891-.958-1.471-1.535-1.3s-.824 1.04-.551 1.931.959 1.47 1.534 1.3.826-1.041.552-1.931z" class="prefix__cls-13" data-name="Path 9080" transform="translate(-4981.397 -1489.972)"/>
        <path id="prefix__Path_9081" d="M5029.547 1490.587c2.516.543 10.96-1.392 11.725-2.464s.128-7.837-1.529-9.134-10.323.592-11.725 2.053-.764 9.051 1.529 9.545z" class="prefix__cls-10" data-name="Path 9081" transform="translate(-4981.139 -1457.256)"/>
        <path id="prefix__Path_9082" d="M5041.232 1479.026a3.533 3.533 0 0 0-1.934-.424c.656 2.484.785 5.838.266 6.566-.661.927-7.051 2.5-10.4 2.555.374 1.505 1 2.714 1.873 2.9 2.516.543 10.96-1.393 11.725-2.465s.127-7.835-1.53-9.132z" class="prefix__cls-11" data-name="Path 9082" transform="translate(-4982.628 -1457.293)"/>
        <path id="prefix__Path_9083" d="M5040.367 1479.632l-1.676-1.722c-.017.055-.039.1-.053.158l-1.017.192 1.544 1.584-2.778 3.583-1.547-1.12.048-.058-2.426-3.016-1.119.21 2.379 2.953-2.048 2.54-3.014.6-.005.23.082.68 2.852-.567 2.434 3.972c.354-.031.717-.065 1.092-.11l-2.706-4.416 1.793-2.231 4.509 3.262-2.092 3.18c.364-.058.733-.121 1.1-.192l1.781-2.706 4.289-1.239.278 1.781c.292-.161.577-.33.854-.511l-.379-2.416-5.014 1.447-2.483-1.8z" class="prefix__cls-12" data-name="Path 9083" transform="translate(-4982.227 -1456.746)"/>
        <path id="prefix__Path_9084" d="M5019.119 1416.677c3.851 1.377 17.6 1.127 13.2 62.844 0 0 11.826.625 14.028-.252 4.553-48.908-10.191-62.318-27.228-62.592z" class="prefix__cls-14" data-name="Path 9084" transform="translate(-4974.69 -1408.355)"/>
        <path id="prefix__Path_9085" fill="#cc4c59" d="M5093.5 1511.348c.917 5.617-.167 10.268-3.384 12.206-2.03 1.22-4.615 1.19-7.383.142a262.8 262.8 0 0 1-.661 30.641s11.827.626 14.028-.252c1.8-19.334.583-33.116-2.6-42.737z" data-name="Path 9085" transform="translate(-5024.441 -1483.171)"/>
        <path id="prefix__Path_9086" d="M4824.052 1585.17c-2.041-1.454-4.078-2.1-4.772-1.12s.4 2.943 2.438 4.4 3.154 1.436 3.848.463.527-2.289-1.514-3.743z" class="prefix__cls-13" data-name="Path 9086" transform="translate(-4816.599 -1540.256)"/>
        <path id="prefix__Path_9087" d="M4808.2 1605.639c-1.012 1.453-1.29 3.008-.308 3.691s2.6.06 3.61-1.391.833-2.35-.15-3.033-2.141-.719-3.152.733z" class="prefix__cls-13" data-name="Path 9087" transform="translate(-4807.283 -1556.747)"/>
        <path id="prefix__Path_9088" d="M4822.6 1618.771c-1.013 1.45-1.29 3.006-.308 3.689s2.6.061 3.611-1.391.831-2.348-.152-3.032-2.138-.719-3.151.734z" class="prefix__cls-13" data-name="Path 9088" transform="translate(-4818.663 -1567.123)"/>
        <path id="prefix__Path_9089" d="M4839.093 1627.286c-1.013 1.452-1.289 3.006-.308 3.691s2.6.06 3.61-1.391.832-2.35-.151-3.034-2.144-.719-3.151.734z" class="prefix__cls-13" data-name="Path 9089" transform="translate(-4831.696 -1573.852)"/>
        <path id="prefix__Path_9090" d="M4822.943 1576.438c2.01-1.5 3.245-3.24 2.533-4.2s-2.922-.524-4.932.974-2.334 2.563-1.622 3.522 2.014 1.201 4.021-.296z" class="prefix__cls-13" data-name="Path 9090" transform="translate(-4816.209 -1530.888)"/>
        <path id="prefix__Path_9091" d="M4871.2 1720.729l4.195-6.924-1.925-1.375-2.888 5.777-4.265 2.522z" class="prefix__cls-14" data-name="Path 9091" transform="translate(-4853.932 -1642.08)"/>
        <path id="prefix__Path_9092" d="M5042.549 1719.174l-.482-7.611 2.062-1.1.208 6.063 3.094 2.648z" class="prefix__cls-14" data-name="Path 9092" transform="translate(-4992.825 -1640.525)"/>
        <path id="prefix__Path_9093" d="M4983.7 1418.163l6.74 7.84 1.513-9.215c-2.519-.433-4.853.139-8.253 1.375z" class="prefix__cls-8" data-name="Path 9093" transform="translate(-4946.7 -1408.33)"/>
        <path id="prefix__Path_9094" d="M4834.87 1619.782c.172-.287-.183-.853-.791-1.265s-1.243-.517-1.414-.232.184.854.794 1.267 1.241.515 1.411.23z" class="prefix__cls-10" data-name="Path 9094" transform="translate(-4827.308 -1567.552)"/>
        <path id="prefix__Path_9095" d="M4850.709 1628.934c.171-.287-.184-.853-.793-1.265s-1.24-.517-1.413-.232.185.854.793 1.265 1.243.517 1.413.232z" class="prefix__cls-10" data-name="Path 9095" transform="translate(-4839.824 -1574.785)"/>
        <path id="prefix__Path_9096" d="M4820.327 1607.494c.17-.287-.186-.853-.793-1.265s-1.241-.517-1.413-.232.184.854.794 1.265 1.24.517 1.412.232z" class="prefix__cls-10" data-name="Path 9096" transform="translate(-4815.813 -1557.841)"/>
        <path id="prefix__Rectangle_2091" d="M0 0H5.227V1.72H0z" class="prefix__cls-3" data-name="Rectangle 2091" transform="translate(37.825 42.156)"/>
        <path id="prefix__Path_9097" d="M4959.542 1423.533c-.442-1.765-1.947-.044-3.327.3a1.523 1.523 0 0 0-1.328 1.924c.441 1.767 1.567 1.942 2.949 1.6s2.143-2.057 1.706-3.824z" class="prefix__cls-2" data-name="Path 9097" transform="translate(-4923.889 -1413.155)"/>
        <path id="prefix__Path_9098" d="M4963.257 1432.884a.77.77 0 0 0-.977-.408c-.463.108-.774.466-.7.8a.768.768 0 0 0 .977.408c.465-.11.776-.466.7-.8z" class="prefix__cls-8" data-name="Path 9098" transform="translate(-4929.212 -1420.817)"/>
        <path id="prefix__Path_9099" fill="#66493d" d="M4961.582 1407.183c6.03-.766 11.181-2.452 13.986-4.36a23.288 23.288 0 0 0-4.371-1.626l-.127-.063.01.032a28.379 28.379 0 0 0-6.612-.856l-.061.024-.673-4.368c-1.145.066-2.326.172-3.532.325-1.014.129-2 .288-2.956.466v4.992c-.069.026-.134.047-.207.073l.118.137c-.5.2-.971.414-1.426.645-.014-.079-.019-.158-.038-.237-.442-1.765-1.948-.044-3.328.3a1.523 1.523 0 0 0-1.327 1.924 2.917 2.917 0 0 0 .475 1.069c-.507.464-1.025.978-1.549 1.531a42.079 42.079 0 0 0 11.618-.008z" data-name="Path 9099" transform="translate(-4920.039 -1391.989)" style="mix-blend-mode:multiply;isolation:isolate" opacity="0.5"/>
    </g>
</svg>
