<svg xmlns="http://www.w3.org/2000/svg" id="prefix__Group_5120" width="97.688" height="80.648" data-name="Group 5120" viewBox="0 0 97.688 80.648">
    <defs>
        <style>
            .prefix__cls-1{fill:#71ccc7}.prefix__cls-3{fill:#4c3039}.prefix__cls-4{fill:#3a222b}.prefix__cls-5{fill:#6cadab}.prefix__cls-7{fill:#f6d1c0}.prefix__cls-8{fill:#fff27b}
        </style>
    </defs>
    <path id="prefix__Path_9100" d="M4267.006 914.936s4.759-40.914 8.725-46.42 22.9-2.2 23.809-1.179c7.713 8.652 14.851 47.337 14.851 47.337-18.291 11.274-33.591-10.456-47.385.262z" class="prefix__cls-1" data-name="Path 9100" transform="translate(-4239.152 -855.994)"/>
    <path id="prefix__Path_9101" fill="#41847d" d="M4270.911 917.6s6.766-40.454 10.6-45.959 18.589-1.636 19.466-.618c7.459 8.652 15.654 47.067 15.654 47.067-17.688 11.278-32.381-11.204-45.72-.49z" data-name="Path 9101" transform="translate(-4242.277 -858.663)"/>
    <path id="prefix__Path_9102" d="M4426.291 878.391s15.577 8.978 28.027-.634l1.957 2.117s-9.477 12.3-29.905 5.724z" class="prefix__cls-3" data-name="Path 9102" transform="translate(-4366.595 -865.865)"/>
    <path id="prefix__Path_9103" d="M4454.6 877.951c-.814.991-9.757 11.224-28 6.188l.018 1.614c20.428 6.578 29.9-5.724 29.9-5.724z" class="prefix__cls-4" data-name="Path 9103" transform="translate(-4366.84 -866.02)"/>
    <path id="prefix__Path_9104" d="M4529.54 861.813l5.419 12.394 9.025-14.182-1.434-1.7z" class="prefix__cls-5" data-name="Path 9104" transform="translate(-4449.204 -850.318)"/>
    <path id="prefix__Path_9105" d="M4532.111 867.975a16.365 16.365 0 0 0 7.556-5.148 17.6 17.6 0 0 0 2.623-4.152l-12.75 3.418z" class="prefix__cls-1" data-name="Path 9105" transform="translate(-4449.203 -850.598)"/>
    <path id="prefix__Path_9106" d="M4589.557 839.1c-.784-1.524-.273-5.184 1.581-5.6s3.228 1.305 3.434 2.644-3.161 6.556-5.015 2.956z" class="prefix__cls-3" data-name="Path 9106" transform="translate(-4496.94 -830.408)"/>
    <path id="prefix__Path_9107" d="M4316.3 904.143c1.891 3.455 20.59 1.936 23.1-.4s5.225-28.258-5.712-31.832c-3.46-1.13-16.74-1.6-17.678 1s-2.81 25.56.29 31.232z" class="prefix__cls-3" data-name="Path 9107" transform="translate(-4277.223 -860.466)"/>
    <path id="prefix__Path_9108" d="M4264.18 1037.017c-2.121-9.665-.471-18.623 1.18-22.159s9.429-11.315 9.193-16.5l23.1-.707c0 4.007 9.665 8.722 14.615 16.736s4.244 21.452 4.244 21.452h-1.886s-4.95-18.623-8.722-20.981-9.5-3.966-17.917-2.828c-8.722 1.179-22.394 1.179-21.922 24.752z" class="prefix__cls-3" data-name="Path 9108" transform="translate(-4236.088 -961.791)"/>
    <g id="prefix__Group_3515" data-name="Group 3515" transform="translate(27.776 38.512)">
        <path id="prefix__Path_9109" d="M4307.012 1063.7c-3.771-2.357-9.5-3.966-17.916-2.828-8.722 1.179-22.395 1.179-21.922 24.752l-.554.069c.095.534.2 1.07.316 1.609l1.886-.236c-.472-23.573 13.2-23.573 21.923-24.752 8.051-1.089 13.641.34 17.414 2.531a4.648 4.648 0 0 0-1.147-1.145z" class="prefix__cls-4" data-name="Path 9109" transform="translate(-4266.62 -1050.587)"/>
        <path id="prefix__Path_9110" d="M4453.752 1025c-3.466-5.612-9.243-9.606-12.4-12.872-1.35-1.4-1.912-1.649-.61-.424 3.265 3.075 8.244 6.812 11.357 11.854 4.952 8.016 4.244 21.452 4.244 21.452h-.637c.254.9.4 1.442.4 1.442H4458s.7-13.435-4.248-21.452z" class="prefix__cls-4" data-name="Path 9110" transform="translate(-4405.348 -1010.918)"/>
    </g>
    <path id="prefix__Path_9111" d="M4308.44 1011.206l12.827 9.457 6.234-.518 11.392-9.19-2.158-3.838-27.574 1.047z" class="prefix__cls-1" data-name="Path 9111" transform="translate(-4272.303 -969.364)"/>
    <path id="prefix__Path_9112" fill="#5bb5af" d="M4349.083 1019.5a30.794 30.794 0 0 1-12.316 1.25l7.165 5.282 6.234-.518 11.392-9.19-1.4-2.5a30.714 30.714 0 0 1-11.075 5.676z" data-name="Path 9112" transform="translate(-4294.968 -974.733)"/>
    <path id="prefix__Path_9113" d="M4210.763 873.445s-16.271 8.882-28.835-.851l-2.07 2.107s9.434 12.409 30.637 5.97z" class="prefix__cls-3" data-name="Path 9113" transform="translate(-4169.426 -861.734)"/>
    <path id="prefix__Path_9114" d="M4226.926 1123.824s8.016 8.486 7.544 15.087c-.1 1.43-5.893 4.479-5.893 4.479h10.137s-1.886-15.794 4.478-18.623z" class="prefix__cls-1" data-name="Path 9114" transform="translate(-4207.085 -1062.741)"/>
    <path id="prefix__Path_9115" d="M4267.944 1126.686l-7.982-.463a16.517 16.517 0 0 1 2.081 8.168 15.312 15.312 0 0 1-4.181 10.917h5.6s-1.883-15.793 4.482-18.622z" class="prefix__cls-5" data-name="Path 9115" transform="translate(-4231.836 -1064.661)"/>
    <path id="prefix__Path_9116" d="M4499.836 1130.9s-6.4 7.873-5.251 14c.248 1.326 5.867 4.155 5.867 4.155h-9.357s.111-14.652-6.008-17.277z" class="prefix__cls-1" data-name="Path 9116" transform="translate(-4413.637 -1068.4)"/>
    <path id="prefix__Path_9117" d="M4524.5 1149.047s-5.62-2.829-5.867-4.155c-1.146-6.123 5.25-14 5.25-14l-6.57.389a29.689 29.689 0 0 1 .563 5.816 24.1 24.1 0 0 1-2.734 11.848v.1z" class="prefix__cls-5" data-name="Path 9117" transform="translate(-4437.681 -1068.4)"/>
    <path id="prefix__Path_9118" d="M4159.048 850.722l-7.372 11.855-7.713-15.024 1.743-1.56z" class="prefix__cls-5" data-name="Path 9118" transform="translate(-4140.707 -840.451)"/>
    <path id="prefix__Path_9119" d="M4145.706 845.993l-1.743 1.56.357.7a26.433 26.433 0 0 0 8.2 3.943 29.039 29.039 0 0 0 4.989 1l1.536-2.469z" class="prefix__cls-1" data-name="Path 9119" transform="translate(-4140.707 -840.451)"/>
    <path id="prefix__Path_9120" d="M4342.479 864.967c0-1.692-5.341-2.961-11.933-2.833s-11.931 1.6-11.931 3.3 5.343 2.96 11.931 2.833 11.933-1.608 11.933-3.3z" class="prefix__cls-1" data-name="Path 9120" transform="translate(-4280.445 -853.358)"/>
    <path id="prefix__Path_9121" d="M4364.086 832.3l-6.67.356.421 7.926c1.405 1.344 5.6 1.4 6.672-.356z" class="prefix__cls-7" data-name="Path 9121" transform="translate(-4311.489 -829.494)"/>
    <path id="prefix__Rectangle_2092" d="M0 0H1.367V2.668H0z" class="prefix__cls-8" data-name="Rectangle 2092" transform="rotate(-89.586 39.466 1.164)"/>
    <path id="prefix__Rectangle_2093" d="M0 0H2.668V1.366H0z" class="prefix__cls-8" data-name="Rectangle 2093" transform="rotate(-2.56 818.02 -848.959)"/>
    <path id="prefix__Rectangle_2094" d="M0 0H2.669V1.367H0z" class="prefix__cls-8" data-name="Rectangle 2094" transform="rotate(-2.56 815.333 -943.34)"/>
    <path id="prefix__Rectangle_2095" d="M0 0H2.668V1.367H0z" class="prefix__cls-8" data-name="Rectangle 2095" transform="rotate(-2.816 814.783 -1032.861)"/>
    <path id="prefix__Rectangle_2096" d="M0 0H2.668V1.367H0z" class="prefix__cls-8" data-name="Rectangle 2096" transform="rotate(-2.56 812.688 -1134.7)"/>
    <path id="prefix__Rectangle_2097" d="M0 0H2.668V1.366H0z" class="prefix__cls-8" data-name="Rectangle 2097" transform="rotate(-2.851 800.878 -1212.448)"/>
    <path id="prefix__Path_9122" d="M4361.79 907.031l-5.77 4.73 3.609 1.528-4.737 3.914 3.3 1.545-4.958 4.78 8.263-4.81-4.055-1.709 8.062-4.337-6.018-1.562z" class="prefix__cls-8" data-name="Path 9122" transform="translate(-4308.14 -889.287)"/>
    <path id="prefix__Path_9123" fill="#66493d" d="M4325.116 858.868c-.946-.322-1.783-.652-2.479-.95-.221-.368-.444-.715-.667-1.039a1.367 1.367 0 0 0 .658-1.01c0-1.443-3.888-2.574-9.116-2.8l-.118-2.216c-1.271-.066-2.587-.1-3.936-.1q-1.4 0-2.757.05l.132 2.474a26.107 26.107 0 0 0-5.5 1.106 7.249 7.249 0 0 0-4.163 2.4 7.356 7.356 0 0 0-.732 1.387c-.811.249-1.7.487-2.636.7 9.425 7.539 26.419 6.406 31.314-.002z" data-name="Path 9123" transform="translate(-4260.594 -844.26)" style="mix-blend-mode:multiply;isolation:isolate" opacity="0.5"/>
    <path id="prefix__Path_9124" d="M4498.992 1130.505l-15.346.721v1.648l15.346-.721z" class="prefix__cls-8" data-name="Path 9124" transform="translate(-4412.485 -1068.087)"/>
    <path id="prefix__Path_9125" d="M4240.878 1123.7l-16.891-.927v1.648l16.891.927z" class="prefix__cls-8" data-name="Path 9125" transform="translate(-4204.734 -1061.904)"/>
    <path id="prefix__Path_9126" d="M4588.686 837.495c-.491-.846-1.249-1.349-1.693-1.124s-.406 1.094.085 1.941 1.247 1.35 1.693 1.125.405-1.095-.085-1.942z" class="prefix__cls-7" data-name="Path 9126" transform="translate(-4494.924 -832.709)"/>
    <path id="prefix__Path_9127" d="M4586.371 839.474c-.087-.9-.5-2.941-.995-2.892-.824.083-1.3 3.519.687 4.583.437.235.396-.788.308-1.691z" class="prefix__cls-7" data-name="Path 9127" transform="translate(-4493.308 -832.921)"/>
    <path id="prefix__Path_9128" d="M4596.331 830.6c-.768-.058-1.387.232-1.386.652s.625.8 1.392.863 1.388-.232 1.388-.651-.625-.801-1.394-.864z" class="prefix__cls-7" data-name="Path 9128" transform="translate(-4501.534 -828.132)"/>
    <path id="prefix__Path_9129" d="M4596.132 831.963c-.144-.553-.59-.915-1-.809a.927.927 0 0 0-.475 1.191c.144.553.591.915 1 .81a.93.93 0 0 0 .475-1.192z" class="prefix__cls-7" data-name="Path 9129" transform="translate(-4501.269 -828.564)"/>
    <path id="prefix__Path_9130" d="M4602.49 844.328c-.145-.553-.591-.915-1-.809a.925.925 0 0 0-.475 1.191c.144.553.59.915 1 .81a.931.931 0 0 0 .475-1.192z" class="prefix__cls-7" data-name="Path 9130" transform="translate(-4506.356 -838.457)"/>
    <path id="prefix__Path_9131" d="M4600.254 836.6c-.145-.553-.59-.915-1-.809a.926.926 0 0 0-.475 1.191c.144.553.59.915 1 .81a.93.93 0 0 0 .475-1.192z" class="prefix__cls-7" data-name="Path 9131" transform="translate(-4504.566 -832.274)"/>
    <path id="prefix__Path_9132" d="M4602.182 836.647c-.735-.02-1.329.3-1.328.721s.6.773 1.334.793 1.329-.3 1.327-.72-.599-.773-1.333-.794z" class="prefix__cls-7" data-name="Path 9132" transform="translate(-4506.262 -832.973)"/>
    <path id="prefix__Path_9133" d="M4603.094 843.082c-.811.006-1.469.352-1.467.772s.661.755 1.474.748 1.47-.351 1.468-.771-.662-.755-1.475-.749z" class="prefix__cls-7" data-name="Path 9133" transform="translate(-4506.88 -838.122)"/>
    <path id="prefix__Path_9134" d="M4134.044 826.395c.586-1.654-.623-5.155-2.724-5.194a3.348 3.348 0 0 0-3.288 3.281c.012 1.358 4.625 5.827 6.012 1.913z" class="prefix__cls-3" data-name="Path 9134" transform="translate(-4127.96 -820.614)"/>
    <path id="prefix__Path_9135" d="M4147.448 823.254c.388-.929 1.126-1.575 1.653-1.441s.639 1 .252 1.927-1.125 1.575-1.652 1.442-.639-.997-.253-1.928z" class="prefix__cls-7" data-name="Path 9135" transform="translate(-4143.312 -821.091)"/>
    <path id="prefix__Path_9136" d="M4153.693 824.92c-.066-.906.022-2.993.573-3.043.917-.081 2.053 3.2.064 4.647-.439.318-.573-.698-.637-1.604z" class="prefix__cls-7" data-name="Path 9136" transform="translate(-4148.477 -821.155)"/>
    <path id="prefix__Path_9137" d="M4135.137 818.36c.831-.208 1.56-.046 1.634.368s-.541.915-1.372 1.125-1.558.047-1.633-.366.543-.916 1.371-1.127z" class="prefix__cls-7" data-name="Path 9137" transform="translate(-4132.544 -818.27)"/>
    <path id="prefix__Path_9138" d="M4141.079 819.379a1.019 1.019 0 0 1 .949-.994.9.9 0 0 1 .73 1.078 1.019 1.019 0 0 1-.946.994.9.9 0 0 1-.733-1.078z" class="prefix__cls-7" data-name="Path 9138" transform="translate(-4138.393 -818.362)"/>
    <path id="prefix__Path_9139" d="M4136.33 832.8a1.02 1.02 0 0 1 .948-.994.9.9 0 0 1 .73 1.078 1.018 1.018 0 0 1-.946.995.9.9 0 0 1-.732-1.079z" class="prefix__cls-7" data-name="Path 9139" transform="translate(-4134.594 -829.101)"/>
    <path id="prefix__Path_9140" d="M4137.392 824.757a1.019 1.019 0 0 1 .95-.994.9.9 0 0 1 .732 1.078 1.023 1.023 0 0 1-.948.995.9.9 0 0 1-.734-1.079z" class="prefix__cls-7" data-name="Path 9140" transform="translate(-4135.443 -822.665)"/>
    <path id="prefix__Path_9141" d="M4130.269 825.526c.8-.166 1.508.035 1.582.447s-.519.879-1.318 1.045-1.509-.034-1.582-.446.518-.88 1.318-1.046z" class="prefix__cls-7" data-name="Path 9141" transform="translate(-4128.691 -824.029)"/>
    <path id="prefix__Path_9142" d="M4129.159 832.177c.889-.155 1.67.056 1.745.468s-.59.874-1.48 1.028-1.671-.055-1.743-.468.589-.873 1.478-1.028z" class="prefix__cls-7" data-name="Path 9142" transform="translate(-4127.675 -829.356)"/>
</svg>
