<svg xmlns="http://www.w3.org/2000/svg" id="prefix__Group_5118" width="63.689" height="78.402" data-name="Group 5118" viewBox="0 0 63.689 78.402">
    <defs>
        <style>
            .prefix__cls-2{fill:#c93c31}.prefix__cls-3{fill:#af2d27}.prefix__cls-4{fill:#fcde63}.prefix__cls-5{fill:#eac23f}
        </style>
    </defs>
    <path id="prefix__Path_8864" fill="#fac9b6" d="M3155.608 822.12a28.321 28.321 0 0 0-6.76-3.151c-.3-.087-.593-.167-.887-.237l-.069-.017c-.045-.01-.091-.024-.135-.033a11.9 11.9 0 0 0-2.273-.474l.058-.043-1.853-3.243-4.446.26-.7-3.9-4.958.882.591 3.318-8.324.487 4.836 4.375a23.737 23.737 0 0 0-5.5 4.557 66.936 66.936 0 0 0 10.507.795c8.469-.006 15.875-1.439 19.913-3.576z" data-name="Path 8864" transform="translate(-3103.156 -811.276)"/>
    <path id="prefix__Path_8865" d="M3234.171 847.547c8.369 1.43 18.734 10.723 19.754 14.806s-8.731 15.61-8.731 15.61l-.612-3.063s7.911-8.67 5.869-12.548-13.83-6.845-13.83-6.845z" class="prefix__cls-2" data-name="Path 8865" transform="translate(-3190.352 -840.296)"/>
    <path id="prefix__Path_8866" d="M3246.088 874.148s7.91-8.67 5.868-12.547-13.829-6.845-13.829-6.845l-2.082-6.767a16.869 16.869 0 0 0-1.873-.442l2.45 7.961s11.788 2.965 13.83 6.845-5.869 12.548-5.869 12.548l.612 3.063s.531-.629 1.328-1.638z" class="prefix__cls-3" data-name="Path 8866" transform="translate(-3190.352 -840.296)"/>
    <path id="prefix__Path_8867" d="M3273.818 946.519a11.688 11.688 0 0 1 6.717 7.295l-8.847 3.336s1.838 6.532-3.062 3.674 5.192-14.305 5.192-14.305z" class="prefix__cls-4" data-name="Path 8867" transform="translate(-3216.846 -919.483)"/>
    <path id="prefix__Path_8868" d="M3271.052 961.023c-1.809-5.3 3.34-9.761 6.167-12.346a13.7 13.7 0 0 0-3.4-2.159s-10.091 11.447-5.192 14.3c1.447.842 2.3.865 2.8.482-.127-.081-.321-.121-.375-.277z" class="prefix__cls-5" data-name="Path 8868" transform="translate(-3216.846 -919.483)"/>
    <path id="prefix__Path_8869" fill="#efbf48" d="M3128.51 830.551l17.833-1.042.5 3.127-10.923 2.084z" data-name="Path 8869" transform="translate(-3105.814 -825.864)"/>
    <path id="prefix__Path_8870" fill="#6d1715" d="M3052.052 910.1c5.567-.821 8.839-60.808-.808-62.869s-31.58 36.055-36.269 59.966c0 0 10.4-2.455 14.892-2.455s11 7.007 22.185 5.358z" data-name="Path 8870" transform="translate(-3014.975 -839.978)"/>
    <path id="prefix__Path_8871" fill="#821f1a" d="M3200.444 1067.616s3.027-1.745.094-5.6c0 0 4.787-13.588 4.941-17.988-.801 13.062-2.111 23.472-5.035 23.588z" data-name="Path 8871" transform="translate(-3163.367 -997.496)"/>
    <path id="prefix__Path_8872" d="M3067.017 916.007h8.708s7.884-26.859 15.049-28.521c17.752-4.12 14.385 29.248 14.385 29.248h9.526l-6.447-3.636s5.422-61.58-6.467-67.144c-3.625-1.7-16.108-.97-19.446 2.908s3.431 24.24.432 34.663-9.617 29.815-9.617 29.815z" class="prefix__cls-2" data-name="Path 8872" transform="translate(-3056.613 -838.332)"/>
    <path id="prefix__Path_8873" d="M3174.143 1023.56h-25.359v3.821l26.054-1.042z" class="prefix__cls-3" data-name="Path 8873" transform="translate(-3122.034 -981.123)"/>
    <g id="prefix__Group_3500" data-name="Group 3500" transform="translate(10.404 14.209)">
        <path id="prefix__Path_8874" d="M3074.528 943.462s8.384-20.523 11.382-30.948c2.247-7.81-1.981-20.561-2.837-28.1-.287-2.523-1.777-2.853-1.674-.314.316 7.829 3.621 21.365 1.356 29.234-3 10.425-9.617 29.815-9.617 29.815l-6.122 2.667h2.1z" class="prefix__cls-3" data-name="Path 8874" transform="translate(-3067.017 -882.355)"/>
        <path id="prefix__Path_8875" d="M3224.257 1086.626c.257-3.013 1.965-27.485-10.156-29.193 11.325 3.547 8.738 29.193 8.738 29.193z" class="prefix__cls-3" data-name="Path 8875" transform="translate(-3184.698 -1022.434)"/>
    </g>
    <path id="prefix__Path_8876" d="M3169.982 1007.5l-28.386.277v5.443l28.386-.276z" class="prefix__cls-4" data-name="Path 8876" transform="translate(-3116.283 -968.274)"/>
    <path id="prefix__Path_8877" d="M3148.127 1009.423c0-.287.007-.571.016-.855l-6.547.063v5.444l6.9-.067a29.147 29.147 0 0 1-.369-4.585z" class="prefix__cls-5" data-name="Path 8877" transform="translate(-3116.283 -969.128)"/>
    <path id="prefix__Path_8878" fill="#d3a62a" d="M3082.358 948.92c-1.3-2.085-7.035-4.545-9.1-3.489-1.013 1.336 4.976 4.809 9.1 3.489z" data-name="Path 8878" transform="translate(-3061.514 -918.41)"/>
    <path id="prefix__Path_8879" d="M3071.743 871.971s9.148-22.117 20.836-23.4c0 0-1.515 4.5-3.7 6.38-7.412 6.369-13.932 19.077-15.082 19.137s-2.054-2.117-2.054-2.117z" class="prefix__cls-2" data-name="Path 8879" transform="translate(-3060.395 -841.114)"/>
    <path id="prefix__Path_8880" d="M3076.146 905.9a1.565 1.565 0 0 0 1.176.669c1.053-.054 6.61-10.713 13.23-17.4-6.042 5.326-11.572 13.237-14.406 16.731z" class="prefix__cls-3" data-name="Path 8880" transform="translate(-3063.917 -873.6)"/>
    <path id="prefix__Path_8881" d="M3051.93 946.443c1.38 2.574 3.921 3.53 9.037 3.513l-9.236 6.809s3.514 2.756 1.775 5.558c-1.389 2.238-8.083 2.481-6.87-2.471a57.08 57.08 0 0 1 5.294-13.409z" class="prefix__cls-4" data-name="Path 8881" transform="translate(-3040.189 -919.422)"/>
    <path id="prefix__Path_8882" d="M3048.721 960.547a57.6 57.6 0 0 1 4.694-12.3 5.7 5.7 0 0 1-1.484-1.8 57.1 57.1 0 0 0-5.294 13.409c-.666 2.716 1.05 3.862 2.962 3.981a2.914 2.914 0 0 1-.878-3.29z" class="prefix__cls-5" data-name="Path 8882" transform="translate(-3040.19 -919.422)"/>
    <path id="prefix__Path_8883" fill="#ffc673" d="M3162.976 845.208l10.479.406.695-2.2c-5.314.317-7.813.476-11.174 1.794z" data-name="Path 8883" transform="translate(-3133.389 -836.989)"/>
    <path id="prefix__Path_8884" d="M3133.373 839.122l-4.863-4.4 14.937 3.822z" class="prefix__cls-4" data-name="Path 8884" transform="translate(-3105.814 -830.034)"/>
    <path id="prefix__Path_8885" d="M3255.546 1149.5l3.079-3.636 1.124-9.847-4.769 1.681z" class="prefix__cls-4" data-name="Path 8885" transform="translate(-3207.001 -1071.101)"/>
    <path id="prefix__Path_8886" d="M3099.456 1140.549l-2.808-2.923 3.243-11.735 4.092 3.706z" class="prefix__cls-4" data-name="Path 8886" transform="translate(-3080.321 -1062.997)"/>
    <path id="prefix__Path_8887" d="M3215.859 829.509l1.853 3.243-2.317 1.737z" class="prefix__cls-4" data-name="Path 8887" transform="translate(-3175.33 -825.864)"/>
    <path id="prefix__Path_8888" d="M3190.49 901.007l4.107-11.024 5.62 9.943z" class="prefix__cls-4" data-name="Path 8888" transform="translate(-3155.403 -874.249)"/>
    <path id="prefix__Path_8889" d="M3070.067 1015.951c.214-.251-.2-.424-.66-.911s-.788-1.108-1-.857-.016.852.442 1.34 1.004.677 1.218.428z" class="prefix__cls-5" data-name="Path 8889" transform="translate(-3057.656 -973.574)"/>
    <path id="prefix__Path_8890" d="M3196.282 906.876l3.128-8.4 4.282 7.575z" class="prefix__cls-2" data-name="Path 8890" transform="translate(-3160.037 -881.045)"/>
    <path id="prefix__Path_8891" d="M3216.267 1012.532a2.373 2.373 0 1 0-2.348 2.033 2.207 2.207 0 0 0 2.348-2.033z" class="prefix__cls-2" data-name="Path 8891" transform="translate(-3172.269 -970.673)"/>
    <path id="prefix__Path_8892" d="M3218.3 1014.882a1.687 1.687 0 1 0-1.669 1.446 1.57 1.57 0 0 0 1.669-1.446z" class="prefix__cls-4" data-name="Path 8892" transform="translate(-3174.982 -973.023)"/>
</svg>
