<svg xmlns="http://www.w3.org/2000/svg" xmlns:xlink="http://www.w3.org/1999/xlink" width="109" height="85" viewBox="0 0 109 85">
    <defs>
        <radialGradient id="prefix__radial-gradient" cx=".424" cy=".35" r=".625" fx=".487" fy=".499" gradientTransform="matrix(1.261 0 0 1 -.131 0)" gradientUnits="objectBoundingBox">
            <stop offset="0" stop-color="#eae8e2"/>
            <stop offset=".398" stop-color="#a39783"/>
            <stop offset="1" stop-color="#585041"/>
        </radialGradient>
        <radialGradient id="prefix__radial-gradient-2" cx=".429" cy=".11" r="1" fx=".429" fy=".11" gradientTransform="matrix(.864 0 0 1 .068 0)" xlink:href="#prefix__radial-gradient"/>
        <radialGradient id="prefix__radial-gradient-3" cx="1.389" cy=".885" r="1.172" gradientTransform="matrix(1.211 0 0 1 -.105 0)" gradientUnits="objectBoundingBox">
            <stop offset="0" stop-color="#fff"/>
            <stop offset=".317" stop-color="#b1b1b1"/>
            <stop offset="1" stop-color="#000100"/>
        </radialGradient>
        <radialGradient id="prefix__radial-gradient-4" cx=".462" cy=".013" r="1.11" gradientTransform="matrix(.708 0 0 1 .146 0)" gradientUnits="objectBoundingBox">
            <stop offset="0" stop-color="#eae8e2"/>
            <stop offset=".398" stop-color="#a39783"/>
            <stop offset=".999" stop-color="#000100"/>
        </radialGradient>
        <radialGradient id="prefix__radial-gradient-5" cx=".815" cy="1.119" r=".929" gradientTransform="matrix(.723 0 0 1 .138 0)" xlink:href="#prefix__radial-gradient-4"/>
        <style>
            .prefix__cls-5{mix-blend-mode:multiply}.prefix__cls-5,.prefix__cls-6,.prefix__cls-7{isolation:isolate}.prefix__cls-7{opacity:.6}.prefix__cls-5,.prefix__cls-6,.prefix__cls-7{fill:#b2aca4}.prefix__cls-5{opacity:.7}.prefix__cls-6{opacity:.4}.prefix__cls-6,.prefix__cls-7{mix-blend-mode:screen}.prefix__cls-14{fill:#fff}
        </style>
    </defs>
    <g id="prefix__Group_3735" data-name="Group 3735" transform="translate(-772 -423)">
        <rect id="prefix__Rectangle_2109" width="109" height="85" fill="#202433" data-name="Rectangle 2109" opacity="0.345" rx="6" transform="translate(772 423)" style="isolation:isolate;mix-blend-mode:multiply"/>
        <g id="prefix__Group_3730" data-name="Group 3730" transform="translate(-5083.989 -2532.613)">
            <path id="prefix__Path_9532" fill="#756a54" d="M5914.53 2988.317c-3 1.056-7.423 5.215-8.618 8.06a32.232 32.232 0 0 0-1.586 5.009c-.1.411-.176 1.886-.467 2.151a5.56 5.56 0 0 0-1.3.169c-2.412.94-5.781 2.967-6.465 5.148-1.465 4.664-2.236 7.555-1.889 9.581 1.381 7.983 8.39 7.921 12.074 9.681a56.865 56.865 0 0 0 7.556 3.118c1.537.48 3.1 1.116 4.689.5a7.641 7.641 0 0 0 3.177-2.847 65.081 65.081 0 0 0 3.98-7.026c1.072-1.936 2.915-4.445 2.746-6.769a15.156 15.156 0 0 0-1.779-4.057c.354-.617 1.049-2.059 1.378-2.687 2.417-4.562 2.92-7.851.513-12.841-3.049-6.319-7.999-9.317-14.009-7.19zm-3.783 9.847a7.643 7.643 0 0 1 9.313-2.708 7.266 7.266 0 0 1 3.919 9.173 26.706 26.706 0 0 1-1.14 2.778c-.243.523-.5 1.036-.769 1.549-.333.636-.812.086-1.37-.163a56.945 56.945 0 0 0-6.252-2.3c-1.053-.333-2.1-.657-3.152-1-.575-.192-1.146-.392-1.719-.595-.545-.188-1.233-.134-1.08-.783a17.848 17.848 0 0 1 2.249-5.952z" data-name="Path 9532" transform="translate(-1.497 -12.471)" style="isolation:isolate;mix-blend-mode:multiply" opacity="0.6"/>
            <g id="prefix__Group_3729" data-name="Group 3729" transform="translate(5892.444 2973.637)">
                <path id="prefix__Path_9533" fill="url(#prefix__radial-gradient)" d="M5924.864 2979.98a13.381 13.381 0 0 0-4.554-4.462 13.613 13.613 0 0 0-3.773-1.546 15.48 15.48 0 0 0-9.042.827c-2.64 1.1-4.187 3.5-5.257 6.054a36.812 36.812 0 0 0-2.062 7.2c-3.221-.543-4.6 5.121-5.329 7.313-.906 2.741-2.244 5.367-2.394 8.3a5.759 5.759 0 0 0 2.737 5.235c2.14 1.675 5.077 2.577 7.411 3.692 2.078.994 4.185 1.927 6.349 2.717 1.064.387 2.159.686 3.248 1 2.053.6 3.735-.382 5.043-1.943a33.083 33.083 0 0 0 3.966-6.529c1.117-2.217 2.6-4.39 3.351-6.766a3.372 3.372 0 0 0-.657-3.475c-.013-.018-.019-.039-.033-.056a10.477 10.477 0 0 0-1.213-1.1 31.653 31.653 0 0 0 3.3-7.351 11.765 11.765 0 0 0-1.091-9.11zm-5.521 11.511c-.352.791-.748 1.56-1.152 2.324a43.941 43.941 0 0 0-5.171-2.11c-2.236-.766-4.514-1.4-6.742-2.194-.5-.174-1.013-.356-1.547-.526a19.587 19.587 0 0 1 2.34-6.344 7.522 7.522 0 0 1 8.022-3.134 7.305 7.305 0 0 1 5.691 6.649 12.322 12.322 0 0 1-1.44 5.335z" data-name="Path 9533" transform="translate(-5892.445 -2973.637)"/>
                <path id="prefix__Path_9534" fill="url(#prefix__radial-gradient-2)" d="M5991.16 2994.717a32.426 32.426 0 0 1-3.076 6.527 28.2 28.2 0 0 0-2.985-1.771c-.154-.083-.314-.157-.47-.236.426-.913.838-1.828 1.216-2.761a12.516 12.516 0 0 0 1.214-5.742 7.823 7.823 0 0 0-5.651-6.443 7.74 7.74 0 0 0-8.221 2.663 16.562 16.562 0 0 0-3.18 6.994 13.9 13.9 0 0 0-3.434-.61c-.047-.016-.092-.032-.137-.045.4-1.581.75-3.177 1.252-4.729.669-2.067 1.554-4.509 3.108-6.083a10.549 10.549 0 0 1 4.843-2.6 15.131 15.131 0 0 1 6.285-.227 11.954 11.954 0 0 1 8.189 5.967 11.3 11.3 0 0 1 1.047 9.096z" data-name="Path 9534" transform="translate(-5958.352 -2978.794)"/>
                <path id="prefix__Path_9535" d="M5924.864 2984.68a13.384 13.384 0 0 0-4.554-4.462 14.5 14.5 0 0 0-2.888-1.3 12.934 12.934 0 0 1 3.95 2.554c2.191 2.134 3.772 4.833 3.609 7.973a14.15 14.15 0 0 1-1.123 5.156 7.713 7.713 0 0 1-1.488 2.243c-.384.366-1.531.8-1.353-.267.364-2.121 1.583-3.854 1.383-6.1a9.993 9.993 0 0 0-1.446-4.914c-1.865-2.592-5.573-3.69-8.676-3.532-3.713.19-6.737 3.042-7.883 6.462-.229.683-1.138 2.917-2.011 2.8-1.772-.231-.4-5.147-.034-6-.037.09-.078.176-.113.265a36.827 36.827 0 0 0-2.062 7.2c-3.221-.543-4.6 5.121-5.329 7.312-.906 2.741-2.244 5.367-2.394 8.3a5.759 5.759 0 0 0 2.737 5.235c2.14 1.675 5.077 2.576 7.411 3.692 2.078.994 4.185 1.928 6.349 2.717 1.064.387 2.159.686 3.248 1 2.053.6 3.735-.382 5.043-1.943a33.083 33.083 0 0 0 3.966-6.529c1.117-2.217 2.6-4.391 3.351-6.766a3.372 3.372 0 0 0-.657-3.475c-.013-.018-.019-.039-.033-.056a10.433 10.433 0 0 0-1.213-1.1 31.662 31.662 0 0 0 3.3-7.351 11.767 11.767 0 0 0-1.09-9.114zm-17.793 2.661a7.522 7.522 0 0 1 8.022-3.134 7.305 7.305 0 0 1 5.691 6.649 12.322 12.322 0 0 1-1.441 5.335c-.352.791-.748 1.56-1.152 2.324a43.858 43.858 0 0 0-5.171-2.11c-2.236-.766-4.514-1.4-6.742-2.194-.5-.174-1.013-.356-1.547-.526a19.59 19.59 0 0 1 2.34-6.344zm14.532 16.968c.025 2.41-2.142 5.087-3.362 7.188-1.011 1.726-1.835 3.692-3.405 5.012-2.91 2.447-7.3.818-10.476-.363a43.478 43.478 0 0 1-6.558-3.01c-1.276-.735-2.747-1.522-3.287-3-1.282-3.513 1.328-7.487 2.539-10.687.615-1.63 1.345-3.684 3.112-4.36 2.393-.918 5.466.406 7.794.943a37.2 37.2 0 0 1 7.719 2.573 26.6 26.6 0 0 1 4.185 2.614 3.715 3.715 0 0 1 1.736 3.09z" class="prefix__cls-5" data-name="Path 9535" transform="translate(-5892.445 -2978.337)"/>
                <path id="prefix__Path_9536" d="M6150.53 3186.625a4.734 4.734 0 0 1-.09.943 22.324 22.324 0 0 1 2.264.615c.229.061.456.116.686.169.031-.088.068-.177.095-.266a3.374 3.374 0 0 0-.656-3.475c-.013-.018-.02-.038-.033-.056-.178-.19-.363-.368-.552-.539-.207-.139-.408-.284-.614-.427-.729.165-1.457.334-2.18.518a3.507 3.507 0 0 1 1.08 2.518z" class="prefix__cls-6" data-name="Path 9536" transform="translate(-6121.37 -3160.653)"/>
                <path id="prefix__Path_9537" d="M6157.674 3191.74c.121-.006.244-.019.371-.027a3.315 3.315 0 0 0-.618-.964c-.013-.018-.019-.039-.033-.056-.07-.073-.145-.141-.219-.212-.435.077-.873.154-1.311.233s-.839.166-1.251.25a3.5 3.5 0 0 1 .354.781c.9-.017 1.792.035 2.707-.005z" class="prefix__cls-6" data-name="Path 9537" transform="translate(-6125.97 -3166.79)"/>
                <path id="prefix__Path_9538" d="M6160.716 3213.087c.511.116 1.029.2 1.552.282a3.931 3.931 0 0 0 .07-.774h-.059c-1.035.046-2.068-.035-3.1-.006 0 .069-.012.144-.017.213a11.6 11.6 0 0 1 1.554.285z" class="prefix__cls-6" data-name="Path 9538" transform="translate(-6130.022 -3186.481)"/>
                <path id="prefix__Path_9539" d="M6072.576 3328.319a5.7 5.7 0 0 1-2.066.627 10.606 10.606 0 0 1 .574 3.362 4.641 4.641 0 0 0 4.584-1.8c-.55-.34-1.074-.625-1.338-.8a10.131 10.131 0 0 1-1.754-1.389z" class="prefix__cls-5" data-name="Path 9539" transform="translate(-6051.055 -3289.568)"/>
                <path id="prefix__Path_9540" d="M5894.517 3248.357a5.84 5.84 0 0 1-.345-2.006 14.3 14.3 0 0 1-1.712.149c0 .027 0 .054-.006.084a5.678 5.678 0 0 0 2.487 5.052 15.327 15.327 0 0 1 .665-1.745 3.875 3.875 0 0 1-1.089-1.534z" class="prefix__cls-5" data-name="Path 9540" transform="translate(-5892.445 -3216.556)"/>
                <path id="prefix__Path_9541" d="M5941.4 3105.707a12.9 12.9 0 0 0-1.857-.485c0 .013-.006.027-.006.042a2.969 2.969 0 0 0-2.9 1.49q.885.781 1.739 1.6a3.341 3.341 0 0 1 1.155-.75 5.3 5.3 0 0 1 2.1-.307c-.087-.532-.163-1.059-.231-1.59z" class="prefix__cls-6" data-name="Path 9541" transform="translate(-5931.809 -3090.845)"/>
                <path id="prefix__Path_9542" d="M5947.008 3107.813c.078-.037.154-.074.237-.105a4.1 4.1 0 0 1 .563-.168 13.97 13.97 0 0 1-.8-2.191 2.514 2.514 0 0 0-1.708.534 17.66 17.66 0 0 0 1.708 1.93z" class="prefix__cls-7" data-name="Path 9542" transform="translate(-5939.522 -3090.953)"/>
                <path id="prefix__Path_9543" d="M5936.751 3117.877l-.115.148c.5.447 1 .906 1.491 1.37-.434-.527-.966-.983-1.376-1.518z" class="prefix__cls-7" data-name="Path 9543" transform="translate(-5931.809 -3102.118)"/>
                <path id="prefix__Path_9544" fill="#524c3d" d="M5924.864 2979.98a13.381 13.381 0 0 0-4.554-4.462 13.613 13.613 0 0 0-3.773-1.546 15.48 15.48 0 0 0-9.042.827c-2.64 1.1-4.187 3.5-5.257 6.054a36.812 36.812 0 0 0-2.062 7.2c-3.221-.543-4.6 5.121-5.329 7.313-.906 2.741-2.244 5.367-2.394 8.3a5.759 5.759 0 0 0 2.737 5.235c2.14 1.675 5.077 2.577 7.411 3.692 2.078.994 4.185 1.927 6.349 2.717 1.064.387 2.159.686 3.248 1 2.053.6 3.735-.382 5.043-1.943a33.083 33.083 0 0 0 3.966-6.529c1.117-2.217 2.6-4.39 3.351-6.766a3.372 3.372 0 0 0-.657-3.475c-.013-.018-.019-.039-.033-.056a10.477 10.477 0 0 0-1.213-1.1 31.653 31.653 0 0 0 3.3-7.351 11.765 11.765 0 0 0-1.091-9.11zm-1.074 18.582c.607 1.122.013 2.508-.46 3.564-.866 1.934-1.978 3.788-2.928 5.683a39.147 39.147 0 0 1-3.258 5.583 9.238 9.238 0 0 1-1.8 1.945c-1.794 1.36-4.765-.166-6.595-.805-2.131-.742-4.2-1.632-6.25-2.561a58.362 58.362 0 0 1-6.468-2.984c-.163-.08-.319-.169-.476-.259a8.111 8.111 0 0 1-1.741-1.8 6.031 6.031 0 0 1-.738-3.937c.222-2.5 1.374-4.853 2.192-7.189.889-2.554 1.752-6.766 4.8-7.288 1.912.425 3.827.662 5.713 1.277 2.125.692 4.239 1.436 6.349 2.175a47.235 47.235 0 0 1 6.1 2.537c.623.321 1.243.652 1.848 1.007a12.653 12.653 0 0 1 1.274.7 8.23 8.23 0 0 1 2.438 2.352zm-19.059-9.577a19.587 19.587 0 0 1 2.34-6.344 7.522 7.522 0 0 1 8.022-3.134 7.305 7.305 0 0 1 5.691 6.649 12.322 12.322 0 0 1-1.441 5.335c-.352.791-.748 1.56-1.152 2.324a43.941 43.941 0 0 0-5.171-2.11c-2.236-.766-4.514-1.4-6.742-2.194-.495-.174-1.012-.356-1.547-.526zm20.52.575a32.476 32.476 0 0 1-3.075 6.527 28.216 28.216 0 0 0-2.985-1.771c-.155-.083-.314-.156-.471-.237.426-.913.838-1.828 1.217-2.76a12.535 12.535 0 0 0 1.214-5.743 7.822 7.822 0 0 0-5.652-6.443 7.74 7.74 0 0 0-8.221 2.663 16.567 16.567 0 0 0-3.179 6.994 13.88 13.88 0 0 0-3.435-.61c-.046-.017-.091-.032-.137-.045.4-1.58.751-3.177 1.252-4.729.67-2.067 1.554-4.509 3.108-6.083a10.557 10.557 0 0 1 4.844-2.6 15.127 15.127 0 0 1 6.284-.227 11.959 11.959 0 0 1 8.19 5.967 11.3 11.3 0 0 1 1.046 9.097z" data-name="Path 9544" transform="translate(-5892.445 -2973.637)" style="isolation:isolate;mix-blend-mode:multiply" opacity="0.8"/>
                <path id="prefix__Path_9545" fill="url(#prefix__radial-gradient-3)" d="M5990.574 3171.778a4.234 4.234 0 0 0-5.073 1.376 3.47 3.47 0 0 0 .618 4.447c-1.311 1.275-2.426 2.685-3.731 3.96-.16.153-.284.345.133.5 1.941.734 3.355 1.415 5.365 2.172.179.07.414.029.439-.158.218-1.687.491-3.566.68-5.252 4.111.466 5.295-5.553 1.569-7.045z" data-name="Path 9545" opacity="0.8" transform="translate(-5972.427 -3149.847)"/>
                <path id="prefix__Path_9546" fill="#524c3d" d="M5990.574 3171.778a4.234 4.234 0 0 0-5.073 1.376 3.47 3.47 0 0 0 .618 4.447c-1.311 1.275-2.426 2.685-3.731 3.96-.16.153-.284.345.133.5 1.941.734 3.355 1.415 5.365 2.172.179.07.414.029.439-.158.218-1.687.491-3.566.68-5.252 4.111.466 5.295-5.553 1.569-7.045zm-1.531 6.641a.581.581 0 0 0-.417-.028c-.138.925-.572 3.946-.79 5.062a47.976 47.976 0 0 1-4.642-1.848c1.172-1.171 1.786-1.992 2.9-3.214.489-.626.82-.811.7-.9a2.856 2.856 0 0 1-1.169-3.186c.4-1.676 2.583-2.438 4.029-2.18a3.174 3.174 0 0 1 2.551 3.058 3.113 3.113 0 0 1-3.162 3.236z" data-name="Path 9546" transform="translate(-5972.427 -3149.847)" style="isolation:isolate;mix-blend-mode:multiply" opacity="0.7"/>
                <path id="prefix__Path_9547" fill="url(#prefix__radial-gradient-4)" d="M5982.909 2995.845s.708-5.172 2.994-7.186 5.388-4.028 11.594-2.5 7.293 7.186 7.512 9.144a10.515 10.515 0 0 1-1.361 5.989 12.939 12.939 0 0 0 .871-5.877c-.326-3.16-1.94-7.255-7.729-8.385-6.97-1.366-11.811.27-13.881 8.815z" data-name="Path 9547" transform="translate(-5973.025 -2984.311)" style="mix-blend-mode:screen;isolation:isolate"/>
                <path id="prefix__Path_9548" fill="url(#prefix__radial-gradient-5)" d="M5948.033 3195.6s8.71 4.027 11.432 4.355 4.462.543 6.859-3.377 3.918-7.187 4.571-8.273 1.544-3.095-1.515-5.195c0 0 1.732 1.928 1.405 3.02a50.855 50.855 0 0 1-4.137 8.273c-1.96 3.155-3.125 5.031-5.442 5.225-2.613.214-13.173-4.028-13.173-4.028z" data-name="Path 9548" transform="translate(-5941.96 -3160.222)" style="mix-blend-mode:screen;isolation:isolate"/>
                <path id="prefix__Path_9549" fill="#fff" d="M5908.2 3136.619s-.229-1.967 2.1-6.976 2.545-6.17 5.368-6.46 10.6 2.324 14.3 3.992c0 0-9-2.685-11.032-3.049s-3.992-.5-5.517 1.164-5.131 8.51-5.219 11.329z" data-name="Path 9549" transform="translate(-5906.477 -3106.824)" style="mix-blend-mode:screen;isolation:isolate"/>
                <g id="prefix__Group_3728" data-name="Group 3728" transform="translate(12.452 21.221)">
                    <path id="prefix__Path_9550" d="M6011.756 3168.06a4.3 4.3 0 0 0-4.752 1.557 3.272 3.272 0 0 0-.5 2.695 6.123 6.123 0 0 1 .1-1.024c.4-2.431 4.064-3.773 6.205-2.068s1.16 4.464 1.16 4.464c1.637-2.941-1.05-5.3-2.213-5.624z" class="prefix__cls-14" data-name="Path 9550" transform="translate(-6006.417 -3167.875)"/>
                </g>
                <path id="prefix__Path_9551" d="M6037.959 3234.448l.68-5.252a3.409 3.409 0 0 0 2.992-1.189 2.97 2.97 0 0 1-2.647 1.451z" class="prefix__cls-14" data-name="Path 9551" transform="translate(-6022.061 -3200.215)"/>
            </g>
        </g>
    </g>
</svg>
