<svg xmlns="http://www.w3.org/2000/svg" width="43.036" height="78.389" viewBox="0 0 43.036 78.389">
    <defs>
        <style>
            .prefix__cls-1{fill:#f2c7b2;stroke:#bf6947;stroke-linecap:round;stroke-linejoin:round;stroke-width:2px}.prefix__cls-2{fill:#bf6947}.prefix__cls-3{fill:#f3d0be}.prefix__cls-5{fill:#f3ba8a;opacity:.5}.prefix__cls-5,.prefix__cls-9{mix-blend-mode:multiply;isolation:isolate}.prefix__cls-6,.prefix__cls-9{fill:#e0dbe5}.prefix__cls-7{fill:#b2aec4}.prefix__cls-10{fill:#fff}.prefix__cls-13{fill:#dbdcdd}
        </style>
    </defs>
    <g id="prefix__Group_4075" data-name="Group 4075" transform="translate(0 1)">
        <path id="prefix__Path_10223" d="M5941.931 7657.619h9.789l-.408-8.362.019.095.357 1.783.618 3.092.628 3.14.239 1.2c.059.3.134.591.214.882.116.422.243.842.35 1.269.187.743.345 1.493.513 2.242q.469 2.074.892 4.159c.159.781.354 1.572.45 2.366s-.121.9-.74 1.632-.346 1.406-1.243 3.18.21 3 .668 2.025a17.426 17.426 0 0 1 1.436-1.962 4.837 4.837 0 0 1-.381 2.371 2.4 2.4 0 0 0-.682 1.5c-.073.792.437 1.579.808 1.642s.665-.436.665-.436a7.113 7.113 0 0 0 1.629-.961 2.207 2.207 0 0 0 1.589-.493c.832-.136 1.477-1.936 1.661-3.363s0-1.978-.923-3.867a7.228 7.228 0 0 1-1.015-4.833q.024-.475.012-.95a31.757 31.757 0 0 0-.59-4.856c-.139-.77-.292-1.537-.451-2.3a14.829 14.829 0 0 1-.4-3.037s-1.223-9.993-1.835-11.013a6.422 6.422 0 0 0-3.468-2.651c-1.176-.2-7.562-.133-8.3-1.068.1-1.205.21-2.925.21-2.925l-2.487-.18h-.267l-2.487.18s.108 1.72.212 2.925c-.736.935-7.122.873-8.3 1.068a6.423 6.423 0 0 0-3.467 2.651c-.612 1.021-1.835 11.013-1.835 11.013a14.829 14.829 0 0 1-.4 3.037c-.159.767-.312 1.534-.451 2.3a31.819 31.819 0 0 0-.591 4.856q-.012.476.013.95a7.231 7.231 0 0 1-1.016 4.833c-.923 1.89-1.1 2.445-.923 3.867s.829 3.227 1.66 3.363a2.209 2.209 0 0 0 1.59.493 7.113 7.113 0 0 0 1.629.961s.3.5.665.436.881-.851.808-1.642a2.4 2.4 0 0 0-.682-1.5 4.842 4.842 0 0 1-.382-2.371 17.358 17.358 0 0 1 1.436 1.962c.458.971 1.571-.247.668-2.025s-.619-2.44-1.243-3.18-.829-.845-.74-1.632.291-1.585.45-2.366q.424-2.084.891-4.159c.168-.749.326-1.5.512-2.242.107-.427.234-.847.351-1.269.08-.291.155-.584.214-.882l.239-1.2.628-3.14.619-3.092.357-1.783.019-.095-.408 8.362h10.4z" class="prefix__cls-1" data-name="Path 10223" transform="translate(-5920.427 -7636.927)"/>
        <g id="prefix__Group_3849" data-name="Group 3849" transform="translate(8.252 38.824)">
            <g id="prefix__Group_3845" data-name="Group 3845" transform="translate(14.151)">
                <path id="prefix__Path_10224" d="M6026.605 7830.147a47.8 47.8 0 0 1 1.584 4.78 27.33 27.33 0 0 0-2.419 7.162c-1.078 5.3-1.684 8-1.684 8a3.534 3.534 0 0 0 1.338 2.76c1.375 1.008 3.017-.22 3.768-2.161s5.1-9.555 5.984-11.114 1.86-3.289 1.582-5.125-.934-4.676-.934-4.676a7.974 7.974 0 0 0-4.576-1.784 7.378 7.378 0 0 0-4.643 2.158z" class="prefix__cls-1" data-name="Path 10224" transform="translate(-6023.949 -7827.844)"/>
                <path id="prefix__Path_10225" d="M6025.925 7852.795a1.822 1.822 0 0 1-1.123-.389 3.662 3.662 0 0 1-1.4-2.875c.013-.052.619-2.781 1.692-8.017a23.15 23.15 0 0 1 2.146-6.533 2.5 2.5 0 0 0 .257-.608 40.408 40.408 0 0 0-1.572-4.729l-.031-.078.063-.063a7.447 7.447 0 0 1 4.709-2.208h.044a8.055 8.055 0 0 1 4.665 1.826l.032.026.01.042c.009.031.659 2.87.935 4.686.277 1.884-.719 3.657-1.6 5.216l-.317.55c-1.23 2.173-4.979 8.795-5.666 10.542-.611 1.593-1.726 2.612-2.844 2.612zm-2.248-3.232a3.474 3.474 0 0 0 1.283 2.623 1.646 1.646 0 0 0 .965.336c.984 0 2.031-.976 2.594-2.439.693-1.773 4.321-8.169 5.686-10.578l.31-.551c.858-1.521 1.836-3.248 1.566-5.032-.255-1.684-.829-4.25-.916-4.622a7.868 7.868 0 0 0-4.457-1.726h-.037a7.127 7.127 0 0 0-4.449 2.067 39.809 39.809 0 0 1 1.558 4.743 2.086 2.086 0 0 1-.292.724 23.082 23.082 0 0 0-2.125 6.459c-1.067 5.242-1.679 7.97-1.686 8z" class="prefix__cls-2" data-name="Path 10225" transform="translate(-6023.407 -7827.294)"/>
            </g>
            <path id="prefix__Path_10226" d="M6036.758 7839.179c-.055-.389-.131-.824-.22-1.265a5.016 5.016 0 0 1-.277 1.679 2.762 2.762 0 0 1-3.66 1.862c-1.616-.76-2.372-2.717-3.03-4.255a11.11 11.11 0 0 0-1.532-3.059 3.256 3.256 0 0 0-.274-.209 8.289 8.289 0 0 0-1.159.949 47.8 47.8 0 0 1 1.584 4.78 27.339 27.339 0 0 0-2.419 7.162c-1.078 5.3-1.684 8-1.684 8a3.534 3.534 0 0 0 1.338 2.76c1.375 1.008 3.017-.22 3.768-2.162s5.1-9.556 5.984-11.114 1.859-3.292 1.581-5.128z" class="prefix__cls-3" data-name="Path 10226" transform="translate(-6009.798 -7832.578)"/>
            <path id="prefix__Path_10227" fill="#edb9a3" d="M6030.005 7871.551a2.857 2.857 0 0 1-1.38-.986 2.774 2.774 0 0 1-.494-2.675c.266-.735.669-1.428.921-2.162a3.214 3.214 0 0 0-.018-2.188c-.3-.425-.6-.845-.854-1.279a25.652 25.652 0 0 0-2.411 7.114c-1.078 5.3-1.684 8-1.684 8a3.534 3.534 0 0 0 1.338 2.76c1.375 1.008 3.017-.22 3.768-2.161.4-1.023 1.8-3.642 3.174-6.108a3.193 3.193 0 0 1-2.36-.315z" data-name="Path 10227" transform="translate(-6009.798 -7855.129)"/>
            <path id="prefix__Path_10228" d="M6065.258 7870.1a2.347 2.347 0 0 1-1.054-.221 3.277 3.277 0 0 1-.418-.241c.414.806.973.811 1.472.462z" class="prefix__cls-5" data-name="Path 10228" transform="translate(-6041.4 -7861.004)"/>
            <path id="prefix__Path_10229" d="M6064.7 7869.226a1.108 1.108 0 0 1-1.065-.131c-.039-.031-.116-.011-.1.047.082.258.476.394.714.431s.6.058.633-.241a.123.123 0 0 0-.182-.106z" class="prefix__cls-2" data-name="Path 10229" transform="translate(-6041.199 -7860.558)"/>
            <path id="prefix__Path_10230" d="M6044.588 7860.361a13.444 13.444 0 0 1-1.388-2.927c-.026-.058-.1-.042-.088.015a4.8 4.8 0 0 0 1.408 2.976c.036.031.094-.025.068-.064z" class="prefix__cls-2" data-name="Path 10230" transform="translate(-6024.941 -7851.258)"/>
            <g id="prefix__Group_3846" data-name="Group 3846" transform="translate(11.539 19.991)">
                <path id="prefix__Path_10231" d="M6015.259 7929.341a3.508 3.508 0 0 1 3.125-1.165c1.8.4 1.8 2.083 1.755 2.965a5.809 5.809 0 0 0 1.7 4.317c1.6 1.664 2.154 2.472 2.268 3.259s-.1 2.063-.741 2.4-5.086 1.5-7.7-.23-3.229-5.269-3.345-6.381a9.849 9.849 0 0 0-.675-3.273 2.711 2.711 0 0 1 .184-2.965c.764-1.343 1.81-2.613 2.524-2.193l-.165.761a6.186 6.186 0 0 0 1.07 2.505z" class="prefix__cls-6" data-name="Path 10231" transform="translate(-6011.152 -7925.857)"/>
                <path id="prefix__Path_10232" d="M6018.824 7941.418a6.742 6.742 0 0 1-3.781-.955c-2.792-1.852-3.327-5.724-3.411-6.479l-.019-.184a9.305 9.305 0 0 0-.637-3.043 2.813 2.813 0 0 1 .188-3.1c.5-.876 1.466-2.345 2.337-2.345a.683.683 0 0 1 .373.106l.086.047-.176.829a6.11 6.11 0 0 0 .926 2.287 3.725 3.725 0 0 1 2.526-1.148 3.1 3.1 0 0 1 .62.068c2.007.431 1.9 2.44 1.868 3.1a5.6 5.6 0 0 0 1.666 4.22c1.6 1.674 2.183 2.513 2.3 3.336s-.094 2.163-.815 2.54a11.031 11.031 0 0 1-4.051.721zm-5.321-15.825c-.52 0-1.327.845-2.1 2.209a2.549 2.549 0 0 0-.184 2.823 9.725 9.725 0 0 1 .669 3.148l.014.179c.08.739.6 4.491 3.294 6.286a6.5 6.5 0 0 0 3.624.9 10.98 10.98 0 0 0 3.924-.683c.58-.3.782-1.521.675-2.261-.113-.761-.675-1.559-2.228-3.185a5.872 5.872 0 0 1-1.748-4.423c.05-1.044-.058-2.472-1.655-2.812a2.439 2.439 0 0 0-.554-.068 3.605 3.605 0 0 0-2.43 1.175l-.106.131-.1-.137a6.223 6.223 0 0 1-1.1-2.555v-.026l.145-.687a1.019 1.019 0 0 0-.143-.014z" class="prefix__cls-7" data-name="Path 10232" transform="translate(-6010.601 -7925.315)"/>
            </g>
            <path id="prefix__Path_10233" d="M6016.027 7950.119c-2.765-1.842-2.765-6.449-3.452-8.474a15.942 15.942 0 0 0-.966-2.2 2.54 2.54 0 0 0 .05 2.5 9.847 9.847 0 0 1 .675 3.274c.115 1.113.739 4.649 3.344 6.38s7.058.582 7.7.23a1.3 1.3 0 0 0 .551-.708 10.611 10.611 0 0 1-7.902-1.002z" class="prefix__cls-7" data-name="Path 10233" transform="translate(-5999.623 -7916.57)"/>
            <g id="prefix__Group_3847" data-name="Group 3847" transform="translate(1.206 5.116)">
                <path id="prefix__Path_10234" d="M5960.734 7854.265a18.819 18.819 0 0 1 .929 3.867 44.523 44.523 0 0 0 1.513 10.862c1.517 6.123 2.972 10.179 2.972 10.179l3.933-.152s-.157-7.488-.246-11.271c-.095-3.767-.253-11.78-.037-12.834s-2.443-1.579-4.521-1.826a8.933 8.933 0 0 0-4.543 1.175z" class="prefix__cls-1" data-name="Path 10234" transform="translate(-5960.571 -7852.922)"/>
                <path id="prefix__Path_10235" d="M5965.417 7878.771l-.032-.094c-.018-.038-1.477-4.13-2.977-10.195a45.452 45.452 0 0 1-1.517-10.615l-.005-.272a19.517 19.517 0 0 0-.915-3.826l-.038-.11.1-.052a9.669 9.669 0 0 1 4.114-1.229 3.365 3.365 0 0 1 .523.032c2.532.3 4.046.776 4.5 1.4a.7.7 0 0 1 .139.588c-.184.9-.1 7.461.032 12.808.094 3.735.247 11.191.251 11.265v.137zm-5.149-24.986a17.484 17.484 0 0 1 .892 3.8l.011.273a44.582 44.582 0 0 0 1.508 10.551c1.369 5.542 2.708 9.429 2.936 10.075l3.687-.142c-.019-1.034-.157-7.676-.241-11.129-.05-1.941-.271-11.685-.032-12.871a.441.441 0 0 0-.086-.367c-.391-.556-1.925-1.008-4.306-1.3-.156-.01-.328-.021-.492-.021a9.455 9.455 0 0 0-3.877 1.13z" class="prefix__cls-2" data-name="Path 10235" transform="translate(-5959.934 -7852.378)"/>
            </g>
            <path id="prefix__Path_10236" d="M5969.835 7870.44c-.095-3.767-.253-11.779-.037-12.833.1-.493-.436-.875-1.249-1.165.082.314.162.635.22.96.278 1.433.449 3.1-.448 4.355a2.921 2.921 0 0 1-4.351.372c-1.595-1.4-1.571-3.583-2.245-5.452a.109.109 0 0 1 .05-.141.7.7 0 0 1-.056-.058c-.592.257-.986.477-.986.477a18.835 18.835 0 0 1 .929 3.868 44.518 44.518 0 0 0 1.513 10.861c1.517 6.123 2.972 10.179 2.972 10.179l3.933-.152s-.156-7.486-.245-11.271zm-.49 4.822c.144.106.012.347-.14.247-.008-.011-.008-.011-.013-.011a10.78 10.78 0 0 1-.41 1.275c-.063.168-.328.089-.265-.068a9.579 9.579 0 0 0 .428-1.384c-1-.714-1.95-1.5-3-2.142-1.818.394-2.308-2.1-2.486-3.41a23.731 23.731 0 0 1-.19-2.9c-.005-1.117.013-2.471 1.086-3.127a1.484 1.484 0 0 1 .692-.158 4.838 4.838 0 0 0 1.36-.213c.485-.159 1.267-.489 1.76-.126a1.735 1.735 0 0 1 .619 1.2c.108.751.181 1.506.3 2.251a23.536 23.536 0 0 1 .207 8.411.747.747 0 0 0 0 .11c.007.014.025.04.052.046z" class="prefix__cls-3" data-name="Path 10236" transform="translate(-5959.365 -7850.498)"/>
            <path id="prefix__Path_10237" fill="#edb99d" d="M6001.275 7860.331c.184 2.12-.126 4.319-.067 6.423.018.771.05 1.553.1 2.324.12.861.233 1.727.359 2.593a1.445 1.445 0 0 1 .026.184c.051.057.108.11.166.167-.014-.347-.021-.661-.021-.966-.094-3.767-.252-11.78-.036-12.834.089-.409-.271-.745-.866-1.007a12.159 12.159 0 0 1 .317 2.54c.01.193.018.382.022.576z" data-name="Path 10237" transform="translate(-5991.367 -7851.112)"/>
            <path id="prefix__Path_10238" d="M5982.465 7956.544a7.893 7.893 0 0 1-3.066-1.437 5 5 0 0 1-.436-.488c.965 3.358 1.7 5.4 1.7 5.4l3.934-.152-.056-2.593c-.693-.248-1.381-.504-2.076-.73z" class="prefix__cls-5" data-name="Path 10238" transform="translate(-5973.876 -7928.651)"/>
            <path id="prefix__Path_10239" d="M5963.065 7869.959c-.031-.261-.05-.519-.068-.776-.084-1.2.333-2.367.32-3.563a15.825 15.825 0 0 0-.814-3.6 39.663 39.663 0 0 0-1.078-3.852c-.7-.025-.045 1.176.05 1.548a18.121 18.121 0 0 1 .385 2.036c.234 1.926.239 3.873.517 5.8.225 1.606.58 3.191.926 4.765-.054-.788-.161-1.575-.238-2.358z" class="prefix__cls-3" data-name="Path 10239" transform="translate(-5959.663 -7851.868)"/>
            <path id="prefix__Path_10240" d="M5979.024 7886.642a1.07 1.07 0 0 0 1.238.226 2.075 2.075 0 0 0 .53-.566 3.108 3.108 0 0 1-2.1-.452 1.1 1.1 0 0 0 .332.792z" class="prefix__cls-5" data-name="Path 10240" transform="translate(-5973.66 -7873.907)"/>
            <path id="prefix__Path_10241" d="M5981.6 7886.778c-.2-.1-.426-.148-.625-.237-.235-.094-.443-.235-.671-.32-.136-.052-.22.105-.176.216.2.493.979.529 1.414.54.099-.001.158-.152.058-.199z" class="prefix__cls-2" data-name="Path 10241" transform="translate(-5974.792 -7874.195)"/>
            <g id="prefix__Group_3848" data-name="Group 3848" transform="translate(0 26.371)">
                <path id="prefix__Path_10242" d="M5960.99 7958.591a3.177 3.177 0 0 1 3.781-.046s.5-.179.479-1.013a1.316 1.316 0 0 1 1.146 1.17 17.083 17.083 0 0 0 .605 2.975c.342 1.039 1.289 5.188.386 6.517s-7.138 1.243-9.738.624-3.225-1.821-2.86-3.29 1.912-2.928 2.9-4.057a5.158 5.158 0 0 0 1.407-2.738c.062-.65.183-1.2.731-1.385a4.723 4.723 0 0 1 1.163 1.243z" class="prefix__cls-6" data-name="Path 10242" transform="translate(-5954.558 -7957.196)"/>
                <path id="prefix__Path_10243" d="M5961.778 7968.795a22.7 22.7 0 0 1-4.7-.436 4.165 4.165 0 0 1-2.756-1.578 2.363 2.363 0 0 1-.2-1.884 9.144 9.144 0 0 1 2.372-3.484c.191-.216.386-.425.561-.63a4.987 4.987 0 0 0 1.372-2.66c.068-.646.189-1.291.832-1.5l.07-.016.056.042a5.525 5.525 0 0 1 1.118 1.154 3.767 3.767 0 0 1 1.975-.619 2.916 2.916 0 0 1 1.769.608.9.9 0 0 0 .328-.845l-.007-.157.157.016a1.479 1.479 0 0 1 1.275 1.291q.068.378.116.724a12.389 12.389 0 0 0 .478 2.226c.354 1.06 1.307 5.246.381 6.637-.689 1.002-3.863 1.111-5.197 1.111zm-2.5-11.884c-.392.162-.5.566-.575 1.238a5.226 5.226 0 0 1-1.437 2.817c-.179.2-.373.415-.575.63a9.085 9.085 0 0 0-2.3 3.368 2.1 2.1 0 0 0 .17 1.669 3.935 3.935 0 0 0 2.581 1.454 22.076 22.076 0 0 0 4.633.441c2.65 0 4.55-.389 4.962-1.008.863-1.28-.077-5.4-.412-6.4a13.131 13.131 0 0 1-.485-2.266c-.038-.226-.069-.472-.114-.72a1.226 1.226 0 0 0-.875-1.039 1.063 1.063 0 0 1-.575.987l-.076.022-.057-.048a2.636 2.636 0 0 0-1.667-.608 3.558 3.558 0 0 0-1.938.657l-.139.1-.068-.157a4.423 4.423 0 0 0-1.053-1.137z" class="prefix__cls-7" data-name="Path 10243" transform="translate(-5954.021 -7956.602)"/>
            </g>
            <path id="prefix__Path_10244" d="M5957.606 7996.894a3.857 3.857 0 0 1-2.581-2.6 4.157 4.157 0 0 0-.234.646c-.364 1.47.26 2.667 2.86 3.291s8.843.713 9.738-.624a3.218 3.218 0 0 0 .377-1.716c-1.608 1.648-7.766 1.564-10.16 1.003z" class="prefix__cls-7" data-name="Path 10244" transform="translate(-5954.558 -7960.232)"/>
            <path id="prefix__Path_10245" d="M5984.919 7960.126a4.171 4.171 0 0 0-2.114.362 3.074 3.074 0 0 0-1.155 1.354.065.065 0 0 0 .095.083 8.443 8.443 0 0 0 .771-.729 2.725 2.725 0 0 1 1.993-.656 3.165 3.165 0 0 1 2.708 1.491.041.041 0 0 0 .076-.027 2.665 2.665 0 0 0-2.374-1.878z" class="prefix__cls-7" data-name="Path 10245" transform="translate(-5976.008 -7933.026)"/>
            <path id="prefix__Path_10246" d="M6032.475 7935.8a2.591 2.591 0 0 0-3.326 2.376c.008.073.107.095.125.026a2.909 2.909 0 0 1 1.307-1.82 5.036 5.036 0 0 1 1.894-.521c.018.001.031-.045 0-.061z" class="prefix__cls-7" data-name="Path 10246" transform="translate(-6013.825 -7913.543)"/>
            <path id="prefix__Path_10247" d="M6024.108 7938.717a3.3 3.3 0 0 0-.683-1.448c.441.95.517 1.921-.875 2.1a6.54 6.54 0 0 1-6.28-3.064c-1.111-1.726-1.761-5.262.309-6.847a3.226 3.226 0 0 1 2.973-.646 2.193 2.193 0 0 0-1.167-.64 3.508 3.508 0 0 0-3.125 1.165 6.186 6.186 0 0 1-1.067-2.5l.165-.761c-.714-.42-1.76.851-2.524 2.193a2.711 2.711 0 0 0-.184 2.965 9.849 9.849 0 0 1 .675 3.273c.116 1.112.739 4.649 3.345 6.381s7.058.582 7.7.23.859-1.618.738-2.401z" class="prefix__cls-9" data-name="Path 10247" transform="translate(-5999.613 -7905.866)"/>
            <path id="prefix__Path_10248" d="M6023.843 7940.16a6.668 6.668 0 0 1-3.5.179 6.286 6.286 0 0 1-5.333-3.968c-.707-2.072-.965-5.121.333-7.03a3.119 3.119 0 0 1 .3-.367 3.242 3.242 0 0 0-.377.367 6.186 6.186 0 0 1-1.067-2.5l.165-.761c-.714-.42-1.76.851-2.524 2.193a2.711 2.711 0 0 0-.184 2.965 9.849 9.849 0 0 1 .675 3.273c.116 1.112.739 4.649 3.345 6.381s7.058.582 7.7.23a1.613 1.613 0 0 0 .669-1.076c-.07.035-.139.078-.202.114z" class="prefix__cls-9" data-name="Path 10248" transform="translate(-5999.613 -7905.866)"/>
            <path id="prefix__Path_10249" d="M5967 7961.677a17.083 17.083 0 0 1-.605-2.975 1.316 1.316 0 0 0-1.146-1.17 1.039 1.039 0 0 1-.373.949 3.263 3.263 0 0 1 .648.713 7.554 7.554 0 0 1 .947 5.788c-1.338 4.549-14.508 2.131-8.059-3.138a15.374 15.374 0 0 0 2-2.513 4.889 4.889 0 0 1 1.275-1.128 3.713 3.713 0 0 0-.7.388 4.723 4.723 0 0 0-1.157-1.243c-.548.184-.669.734-.731 1.385a5.158 5.158 0 0 1-1.407 2.738c-.992 1.128-2.531 2.577-2.9 4.057s.26 2.666 2.86 3.29 8.843.713 9.738-.624-.045-5.478-.39-6.517z" class="prefix__cls-9" data-name="Path 10249" transform="translate(-5954.558 -7930.825)"/>
            <path id="prefix__Path_10250" d="M5967.46 7983.1a3.77 3.77 0 0 1-.708 2.813c-1.18 1.343-3.856 1.658-5.629 1.59-1.806-.069-4.366-.493-5.169-2.209-.517-1.086.436-2.445.939-3.374a8.309 8.309 0 0 0-2.1 3.168c-.364 1.471.26 2.667 2.86 3.291s8.843.713 9.738-.624c.599-.896.376-3.021.069-4.655z" class="prefix__cls-9" data-name="Path 10250" transform="translate(-5954.558 -7950.383)"/>
        </g>
        <path id="prefix__Path_10251" d="M6054.829 7954.906c-.265-1.333-1.787-2.141-2.506-3.2a5.931 5.931 0 0 1-.91-2.166 15.542 15.542 0 0 0-.278-2.131.087.087 0 0 0-.17.037 4.746 4.746 0 0 1 0 1.06c.008.289.04.6.077.893a5.583 5.583 0 0 0 .727 2.151c.745 1.307 2.088 2.1 2.8 3.452a.144.144 0 0 0 .26-.096z" class="prefix__cls-10" data-name="Path 10251" transform="translate(-6022.94 -7884.039)"/>
        <path id="prefix__Path_10252" d="M5975.654 7987.419a5.848 5.848 0 0 1-2.658 1.033 10.6 10.6 0 0 1-2.649-.168 5.433 5.433 0 0 1-2.178-.833 1.447 1.447 0 0 1-.569-1.406c.026-.43.3-.751.373-1.159a.036.036 0 0 0-.068-.021c-.129.409-.462.7-.575 1.133a1.591 1.591 0 0 0 .063 1.034 3.066 3.066 0 0 0 1.976 1.411c2.069.693 4.77.745 6.457-.787.116-.111-.026-.321-.172-.237z" class="prefix__cls-10" data-name="Path 10252" transform="translate(-5956.318 -7913.887)"/>
        <path id="prefix__Path_10253" d="M6009.843 7994.1a.111.111 0 0 0-.184-.072.815.815 0 0 0-.239.482.13.13 0 0 0 .164.131.145.145 0 0 0 .125-.167 1.534 1.534 0 0 0 .134-.374z" class="prefix__cls-10" data-name="Path 10253" transform="translate(-5989.869 -7921.18)"/>
        <g id="prefix__Group_3850" data-name="Group 3850" transform="translate(2.65 34.107)">
            <path id="prefix__Path_10254" d="M5947.582 7818c-.233-.845-.021-1.736-.277-2.575a.059.059 0 0 0-.115.015 9.589 9.589 0 0 0 .1 2.393 7.915 7.915 0 0 0 1.054 1.973c.019.042.068.015.068-.021-.123-.65-.653-1.133-.83-1.785z" class="prefix__cls-2" data-name="Path 10254" transform="translate(-5942.961 -7813.095)"/>
            <path id="prefix__Path_10255" d="M5931.134 7821.852c-.556-.4-.436-1.012-.693-1.568a13.811 13.811 0 0 0-1.018-1.5 3.41 3.41 0 0 1-.188-1.659 6.263 6.263 0 0 0-.152-1.348.041.041 0 0 0-.081 0c0 1.117-.386 2.367.228 3.358.188.314.459.582.669.881a2.965 2.965 0 0 1 .436 1.233c-.354-.293-.758-.519-1.1-.833a3 3 0 0 1-1-1.648 9.461 9.461 0 0 1-.165-1.852 2.879 2.879 0 0 0-.165-1.212c-.032-.063-.145-.021-.118.047.347 1.118-.189 2.414.252 3.542a3.753 3.753 0 0 0 .731 1.148 2.79 2.79 0 0 1-1.136-.613 3.012 3.012 0 0 1-.719-1.925 7.517 7.517 0 0 0-.265-2.582.051.051 0 0 0-.094.036c.251 1.244-.215 2.55.264 3.768a2.258 2.258 0 0 0 2.04 1.621.118.118 0 0 0 .118-.094 3.724 3.724 0 0 0 1.35.808.073.073 0 0 0 .064 0 .748.748 0 0 0 .7.529.077.077 0 0 0 .042-.137z" class="prefix__cls-2" data-name="Path 10255" transform="translate(-5926.552 -7813.031)"/>
            <path id="prefix__Path_10256" d="M5933.432 7825.8a2.394 2.394 0 0 0-.682-1.5 5.433 5.433 0 0 1-.431-2.057 4.167 4.167 0 0 0-.076.782 5.506 5.506 0 0 0 .456 1.643c.118.372.346 1.249-.1 1.511-.3.179-.636-.383-.764-.562a10.725 10.725 0 0 0-.889-.912.648.648 0 0 1-.082.582c-.367.525-.983-.283-1.319-.834a1.954 1.954 0 0 1-.09.309.483.483 0 0 1-.579.315 1.219 1.219 0 0 1-.625-.713 1.008 1.008 0 0 1 .006.13 7.519 7.519 0 0 0 .613 1.154 2.258 2.258 0 0 0 1.456.395 7.12 7.12 0 0 0 1.629.96s.3.5.664.436.887-.839.813-1.639z" class="prefix__cls-5" data-name="Path 10256" transform="translate(-5927.909 -7818.563)"/>
            <path id="prefix__Path_10257" d="M5950.53 7807.474c-.9-1.773-.619-2.44-1.243-3.179-.044-.048-.076-.09-.115-.132a.079.079 0 0 1 0 .053 3.483 3.483 0 0 1 .354 1.385 3.951 3.951 0 0 1-.04 1.464c-.246.646-.681.4-.989.026-.013.152-.04.3-.065.452a15.6 15.6 0 0 1 1.436 1.957c.453.97 1.565-.247.662-2.026z" class="prefix__cls-5" data-name="Path 10257" transform="translate(-5943.966 -7804.163)"/>
        </g>
        <g id="prefix__Group_3858" data-name="Group 3858" transform="translate(0 24.446)">
            <g id="prefix__Group_3851" data-name="Group 3851" transform="translate(.385)">
                <path id="prefix__Path_10258" fill="#f1f2f2" d="M5921.6 7783.528c3.25 2.942 5.185 4.8 10.6 3.327s7.739 1.626 12.074 1.393 5.03-1.237 6.27-2.942 2.4-2.09 4.489-2.553a6.438 6.438 0 0 0 2.646-.964c-2.383-4.923-9-17.639-14.668-21.865-3.51-2.994-10.68-4.438-16.074 1.856 0 0-7.829 9.86-10.918 20.832a4.965 4.965 0 0 1 5.581.916z" data-name="Path 10258" transform="translate(-5915.902 -7757.25)"/>
                <path id="prefix__Path_10259" d="M5943.354 7787.922a13.353 13.353 0 0 1-4.309-.891 13.662 13.662 0 0 0-4.468-.913 10.648 10.648 0 0 0-2.8.394 12.955 12.955 0 0 1-3.4.52c-3.032 0-4.761-1.566-7.153-3.729l-.157-.143a4.855 4.855 0 0 0-3.313-1.362 5.37 5.37 0 0 0-2.144.466.118.118 0 0 1-.158-.138c3.06-10.873 10.864-20.774 10.942-20.874a11.67 11.67 0 0 1 9.028-4.457 11.4 11.4 0 0 1 7.209 2.583c5.942 4.434 12.752 17.884 14.7 21.9a.121.121 0 0 1-.033.144 6.546 6.546 0 0 1-2.7.986c-2.1.467-3.225.87-4.418 2.509l-.03.043c-1.231 1.691-1.973 2.713-6.325 2.947-.158.011-.316.015-.471.015zm-8.777-2.037a13.9 13.9 0 0 1 4.54.926 12.186 12.186 0 0 0 4.7.865c4.242-.225 4.918-1.159 6.149-2.851l.031-.043c1.241-1.7 2.395-2.115 4.558-2.6a6.875 6.875 0 0 0 2.527-.887c-1.993-4.105-8.727-17.365-14.593-21.739a11.162 11.162 0 0 0-7.064-2.53 11.435 11.435 0 0 0-8.85 4.369c-.074.095-7.739 9.825-10.831 20.559a5.559 5.559 0 0 1 2.012-.395 5.09 5.09 0 0 1 3.47 1.424l.155.143c2.354 2.129 4.057 3.668 7 3.668a12.88 12.88 0 0 0 3.34-.51 10.925 10.925 0 0 1 2.856-.399z" class="prefix__cls-10" data-name="Path 10259" transform="translate(-5915.448 -7756.795)"/>
            </g>
            <g id="prefix__Group_3854" data-name="Group 3854" transform="translate(0 24.422)">
                <g id="prefix__Group_3852" data-name="Group 3852" transform="translate(.045 2.149)">
                    <path id="prefix__Path_10260" d="M5913.853 7887.349c-.025.1-.049.194-.071.294a7.647 7.647 0 0 0 6.663 2.146s-4.09-3.708-6.592-2.44z" class="prefix__cls-10" data-name="Path 10260" transform="translate(-5913.782 -7887.084)"/>
                </g>
                <g id="prefix__Group_3853" data-name="Group 3853">
                    <path id="prefix__Path_10261" d="M5956.174 7877.118a6.458 6.458 0 0 1-2.646.964c-2.09.463-3.251.853-4.488 2.553s-1.937 2.708-6.27 2.941-6.655-2.864-12.074-1.393-7.352-.385-10.6-3.328a4.966 4.966 0 0 0-5.58-.917c-.139.489-.267.982-.385 1.475 2.5-1.268 6.592 2.44 6.592 2.44 3.627 2.271 7.172 2.159 10.6 1.463s4.819.259 8.326 1.085a12.181 12.181 0 0 0 9.544-1.446c2.477-1.7 2.323-3.149 4.488-3.507s2.993-.052 3.251-.723c-.151-.336-.41-.89-.758-1.607z" class="prefix__cls-10" data-name="Path 10261" transform="translate(-5914.013 -7877.001)"/>
                    <path id="prefix__Path_10262" fill="#abaaa6" d="M5942.386 7884.437a14.085 14.085 0 0 1-3.218-.376c-.872-.208-1.625-.425-2.288-.615a13.212 13.212 0 0 0-3.816-.7 11.166 11.166 0 0 0-2.17.233 19.714 19.714 0 0 1-3.952.445 12.285 12.285 0 0 1-6.734-1.925c-.044-.038-2.994-2.682-5.351-2.682a2.44 2.44 0 0 0-1.129.251.106.106 0 0 1-.122-.014.11.11 0 0 1-.043-.116c.119-.5.25-1 .386-1.48a.113.113 0 0 1 .066-.073 5.565 5.565 0 0 1 2.235-.49 5.085 5.085 0 0 1 3.469 1.425l.158.143c2.353 2.128 4.054 3.668 7 3.668a12.849 12.849 0 0 0 3.339-.51 10.93 10.93 0 0 1 2.862-.4 13.9 13.9 0 0 1 4.539.925 12.187 12.187 0 0 0 4.7.866c4.242-.225 4.918-1.16 6.148-2.851l.03-.043c1.241-1.7 2.395-2.115 4.558-2.6a6.438 6.438 0 0 0 2.6-.943.117.117 0 0 1 .1-.021.115.115 0 0 1 .08.061c.3.619.575 1.2.759 1.613a.108.108 0 0 1 0 .087c-.192.5-.654.532-1.5.593a18.248 18.248 0 0 0-1.845.2 3.417 3.417 0 0 0-2.3 1.5 10.124 10.124 0 0 1-2.139 1.995 11.422 11.422 0 0 1-6.422 1.834zm-9.322-1.93a13.245 13.245 0 0 1 3.879.718c.661.191 1.411.4 2.278.61a13.82 13.82 0 0 0 3.165.368 11.179 11.179 0 0 0 6.289-1.795 9.925 9.925 0 0 0 2.094-1.956 3.657 3.657 0 0 1 2.44-1.575c.787-.13 1.386-.173 1.869-.208.84-.056 1.135-.1 1.275-.4-.1-.212-.319-.692-.674-1.432a7.167 7.167 0 0 1-2.581.9c-2.1.467-3.226.87-4.418 2.509l-.03.043c-1.231 1.692-1.973 2.713-6.325 2.947a12.447 12.447 0 0 1-4.782-.878 13.662 13.662 0 0 0-4.468-.914 10.617 10.617 0 0 0-2.8.395 12.954 12.954 0 0 1-3.4.52c-3.033 0-4.76-1.566-7.152-3.729l-.157-.143a4.854 4.854 0 0 0-3.313-1.363 5.316 5.316 0 0 0-2.092.445c-.11.39-.214.789-.314 1.19a2.746 2.746 0 0 1 1.013-.182c2.447 0 5.368 2.622 5.49 2.734a12.114 12.114 0 0 0 6.6 1.874 19.5 19.5 0 0 0 3.906-.437 10.954 10.954 0 0 1 2.208-.241z" data-name="Path 10262" transform="translate(-5913.56 -7876.546)"/>
                </g>
            </g>
            <g id="prefix__Group_3855" data-name="Group 3855" transform="translate(8.661 6.282)">
                <path id="prefix__Path_10263" d="M5960.382 7789.04l-.251.735-.285.848c-.1.329-.224.7-.351 1.1s-.27.839-.407 1.307-.288.956-.439 1.462-.288 1.038-.437 1.57-.312 1.077-.433 1.631-.268 1.094-.4 1.635c-.065.269-.133.537-.2.8s-.107.532-.161.792l-.305 1.492c-.098.475-.2.921-.252 1.345-.249 1.674-.434 2.791-.434 2.791s.11-1.124.307-2.812c.036-.424.133-.874.212-1.354s.181-.982.275-1.506c.053-.26.1-.527.154-.792s.126-.536.192-.809l.387-1.644c.131-.554.3-1.09.45-1.626s.3-1.06.452-1.571.321-.995.47-1.458.3-.9.445-1.294c.277-.8.534-1.462.717-1.92.087-.234.162-.412.214-.533l.08-.189z" class="prefix__cls-13" data-name="Path 10263" transform="translate(-5956.028 -7788.746)"/>
                <path id="prefix__Path_10264" d="M6014.721 7787.6l.626 2.726c.188.818.422 1.765.671 2.782s.521 2.1.815 3.179c.136.542.291 1.078.433 1.61s.306 1.047.45 1.549.3.982.44 1.445.293.882.425 1.28.272.758.385 1.078.223.6.317.822l.286.714-.329-.7c-.1-.221-.231-.489-.355-.809s-.287-.666-.429-1.065c-.294-.783-.625-1.708-.937-2.708-.149-.5-.312-1.021-.462-1.553s-.31-1.063-.45-1.6c-.284-1.082-.549-2.171-.788-3.193s-.43-1.98-.6-2.8c-.325-1.657-.498-2.757-.498-2.757z" class="prefix__cls-13" data-name="Path 10264" transform="translate(-6002.751 -7787.597)"/>
                <path id="prefix__Path_10265" d="M6043.048 7791.9s.42.734 1.049 1.843c.308.553.688 1.189 1.078 1.882s.824 1.414 1.25 2.146.863 1.458 1.274 2.132.808 1.3 1.146 1.843c.71 1.047 1.168 1.765 1.168 1.765s-.517-.67-1.277-1.7c-.353-.528-.774-1.138-1.208-1.8s-.863-1.4-1.3-2.12c-.416-.739-.847-1.471-1.224-2.172s-.727-1.35-1.016-1.917c-.588-1.128-.94-1.902-.94-1.902z" class="prefix__cls-13" data-name="Path 10265" transform="translate(-6025.301 -7791.026)"/>
            </g>
            <g id="prefix__Group_3856" data-name="Group 3856" transform="translate(.502 .117)">
                <path id="prefix__Path_10266" d="M5943.011 7759.924c-3.51-2.994-10.68-4.438-16.074 1.856a73.683 73.683 0 0 0-5.846 8.947c1.067-1.6 4.211-6.16 5.619-6.472 1.709-.376-1.14 7.216-1.9 12.247 2.849-9.115 5.886-11.676 7.5-12.247s4.938 8.925 7.786 14.051c-2.469-12.342-1.424-17.564 2.089-11.676s5.317 7.692 5.317 7.692-4.083-9.307-2.849-10.258 9.4 12.057 11.048 16.7c0 0-3.509-1.653-6.811 2.474s-5.984 4.127-11.868 1.445-7.945 3.4-11.968-.827c-3.243-3.408-5.881-4.066-8.567-2.794-.166.515-.325 1.03-.471 1.545a4.965 4.965 0 0 1 5.58.917c3.25 2.942 5.185 4.8 10.6 3.327s7.739 1.626 12.074 1.393 5.03-1.237 6.27-2.942 2.4-2.09 4.489-2.553a6.438 6.438 0 0 0 2.646-.964c-2.375-4.919-8.993-17.635-14.664-21.861z" class="prefix__cls-10" data-name="Path 10266" transform="translate(-5916.019 -7757.367)"/>
            </g>
            <g id="prefix__Group_3857" data-name="Group 3857" transform="translate(1.857 9.885)">
                <path id="prefix__Path_10267" d="M6036.912 7811.447c-.646 2.032 3.077 14.168 4.781 19.515 3.243-.35 3.92-1.314 5.03-2.842a6.8 6.8 0 0 1 .658-.788c-5.109-7.38-9.76-18.108-10.469-15.885z" class="prefix__cls-10" data-name="Path 10267" transform="translate(-6013.553 -7809.949)"/>
                <path id="prefix__Path_10268" d="M5929.575 7806.986c-1.886 1.527-5.33 10.3-6.912 14.527a4.854 4.854 0 0 1 4.225 1.319c.224.2.441.4.656.594.435-9.162 4.332-18.304 2.031-16.44z" class="prefix__cls-10" data-name="Path 10268" transform="translate(-5922.664 -7806.44)"/>
                <path id="prefix__Path_10269" d="M5967.729 7805.688c-2.554 3.166-4.716 13.679-5.673 18.961 1.722.921 3.685 1.177 6.792.333 3.908-1.061 6.2.25 8.808.982-4.721-9.27-7.426-23.326-9.927-20.276z" class="prefix__cls-10" data-name="Path 10269" transform="translate(-5954.021 -7805.263)"/>
                <path id="prefix__Path_10270" d="M6069.174 7815.353c-.526.787 3.824 9.4 6.18 13.93.463-.152.977-.277 1.563-.407.046-.013.088-.021.132-.03-2.591-5.114-7.358-14.272-7.875-13.493z" class="prefix__cls-10" data-name="Path 10270" transform="translate(-6039.26 -7813.258)"/>
            </g>
        </g>
        <g id="prefix__Group_3861" data-name="Group 3861" transform="translate(8.27 2.986)">
            <g id="prefix__Group_3860" data-name="Group 3860">
                <g id="prefix__Group_3859" data-name="Group 3859">
                    <path id="prefix__Path_10271" d="M5978.152 7655.032c-.17-1.178-1.11-1.5-2.276-2.022s-2.322-1.179-2.547-.136a45.308 45.308 0 0 1-3.488 7.68c-1.367 2.39-1.876 2.944-3.4-.1a64.655 64.655 0 0 1-3.314-7.944 7.182 7.182 0 0 0-5.07 1.083h-.011a37.4 37.4 0 0 1-.659 7.423c-.96 5.341-1.546 8.8-1.546 8.8a66.36 66.36 0 0 0-1.053 12.583s4.04 3.788 12.674 3.4 12.3-3 12.632-4.826-1.555-11.153-1.555-11.153-1.971-5.381-.387-14.788z" class="prefix__cls-10" data-name="Path 10271" transform="translate(-5954.626 -7652.166)"/>
                    <path id="prefix__Path_10272" fill="#abaaa5" d="M5965.7 7685.388c-7.739 0-11.484-3.409-11.522-3.447a.148.148 0 0 1-.047-.122 66.458 66.458 0 0 1 1.054-12.621c0-.033.6-3.512 1.545-8.8a38 38 0 0 0 .657-7.384.156.156 0 0 1 .079-.155 6.416 6.416 0 0 1 4.049-1.147c.337 0 .7.014 1.091.039a.15.15 0 0 1 .111.1 66.734 66.734 0 0 0 3.319 7.931c.709 1.4 1.176 2.01 1.579 2.01.46 0 .947-.8 1.593-1.927a45.727 45.727 0 0 0 3.474-7.621.731.731 0 0 1 .758-.676 4.59 4.59 0 0 1 1.639.546l.585.265c1.034.458 1.93.851 2.093 2.023a.074.074 0 0 1 0 .058c-1.555 9.246.361 14.651.383 14.7.085.419 1.888 9.414 1.56 11.25-.389 2.119-4.55 4.574-12.749 4.948-.419.023-.84.03-1.251.03zm-11.307-3.653c.455.387 4.14 3.344 11.307 3.344.4 0 .823-.013 1.236-.032a26.064 26.064 0 0 0 9.379-1.862c1.778-.812 2.943-1.868 3.121-2.834.314-1.772-1.535-10.992-1.555-11.082-.008-.026-1.955-5.5-.393-14.831-.153-.979-.89-1.308-1.919-1.759l-.585-.264a4.592 4.592 0 0 0-1.546-.529.462.462 0 0 0-.5.432 44.335 44.335 0 0 1-3.508 7.725c-.716 1.25-1.226 2.062-1.816 2.062-.52 0-1.026-.6-1.811-2.158a64.16 64.16 0 0 1-3.3-7.88c-.361-.019-.684-.039-.993-.039a6.257 6.257 0 0 0-3.858 1.07 38.305 38.305 0 0 1-.664 7.364c-.942 5.283-1.541 8.763-1.546 8.8a66.478 66.478 0 0 0-1.042 12.472z" data-name="Path 10272" transform="translate(-5954.107 -7651.57)"/>
                </g>
            </g>
            <path id="prefix__Path_10273" fill="#d5d2c7" d="M5978.535 7669.825s-1.967-5.386-.383-14.793c-.17-1.178-1.11-1.5-2.276-2.022s-2.322-1.179-2.547-.136a45.308 45.308 0 0 1-3.488 7.68c-1.367 2.39-1.876 2.944-3.4-.1a64.655 64.655 0 0 1-3.314-7.944 7.182 7.182 0 0 0-5.07 1.083h-.011a37.4 37.4 0 0 1-.659 7.423c-.257 1.417-.482 2.7-.679 3.814.553-2.525 2.345-10.321 3.456-10.708 2.424-.851 2.245.734 4.93 6.539s2.869 6.758 5.739 1.27 2.684-7.171 4.48-6.964-.177 4.006.717 9.5 1.075 5.7-1.79 9.5.178 1.27 1.606-.418 1.335-.026 2.159 4.219c.632 3.268-1.256 6.855-12.187 6.649-8.071-.521-10.319-1.321-10.137-6.462.137-3.949.329-7.963.417-9.606-.173.954-.258 1.476-.258 1.476a66.36 66.36 0 0 0-1.053 12.583s4.04 3.788 12.674 3.4 12.3-3 12.632-4.826-1.558-11.157-1.558-11.157z" data-name="Path 10273" transform="translate(-5954.626 -7652.166)" style="mix-blend-mode:multiply;isolation:isolate"/>
        </g>
    </g>
</svg>
