<svg xmlns="http://www.w3.org/2000/svg" id="prefix__Group_4126" width="51.837" height="83.438" data-name="Group 4126" viewBox="0 0 51.837 83.438">
    <defs>
        <style>
            .prefix__cls-1{fill:#c67638}.prefix__cls-2{fill:#7f3a1a}.prefix__cls-3{fill:#fde1ca}.prefix__cls-4{fill:#c06949}.prefix__cls-5{fill:#fff}.prefix__cls-6{fill:#abaaa6}.prefix__cls-18,.prefix__cls-7{fill:#ebc4aa}.prefix__cls-24,.prefix__cls-25,.prefix__cls-7{opacity:.7}.prefix__cls-10,.prefix__cls-17,.prefix__cls-19,.prefix__cls-24,.prefix__cls-25,.prefix__cls-7{mix-blend-mode:multiply}.prefix__cls-10,.prefix__cls-17,.prefix__cls-19,.prefix__cls-24,.prefix__cls-25,.prefix__cls-27,.prefix__cls-7{isolation:isolate}.prefix__cls-10,.prefix__cls-8{fill:#8c543d}.prefix__cls-9{fill:#492014}.prefix__cls-10,.prefix__cls-19{opacity:.5}.prefix__cls-11{fill:#a51e22}.prefix__cls-12{fill:#6e0e10}.prefix__cls-15{fill:#761113}.prefix__cls-16{fill:none}.prefix__cls-17{fill:#d5d2c7}.prefix__cls-27{mix-blend-mode:screen}.prefix__cls-25{fill:#edceb6}.prefix__cls-27{fill:#fcdfdd;opacity:.6}.prefix__cls-29{fill:#ee3943}.prefix__cls-31{fill:#facfce}
        </style>
    </defs>
    <g id="prefix__Group_4124" data-name="Group 4124">
        <g id="prefix__Group_4079" data-name="Group 4079" transform="translate(2.851 72.274)">
            <path id="prefix__Path_11004" d="M8138.248 9891.512a3.261 3.261 0 0 1-2.129 1.17c-1.417-1.756-3.959-1.107-3.959-1.107a3.021 3.021 0 0 0-2.008 1.7c-.853 1.032-3.227 1.032-6.148 1.521s-4.2 2.191-4.566 3.834a.327.327 0 0 1-.011.047c1.019 1.07 3.733 2.792 10.425 2.061 6.062-.75 9.078-1.852 10.549-2.623 0-.2-.005-.438-.021-.7-.124-2.009-.124-7.123-2.132-5.903z" class="prefix__cls-1" data-name="Path 11004" transform="translate(-8119.29 -9891.19)"/>
            <path id="prefix__Path_11005" d="M8126.653 9900.879c-4.643 0-6.693-1.43-7.5-2.277a.138.138 0 0 1-.034-.123l.01-.051c.271-1.225 1.24-3.369 4.676-3.94.741-.122 1.427-.214 2.093-.3 1.883-.245 3.37-.439 3.975-1.17a3.126 3.126 0 0 1 2.1-1.756s2.553-.647 4.03 1.1a3.1 3.1 0 0 0 1.968-1.113.061.061 0 0 1 .036-.029 1.2 1.2 0 0 1 .635-.2c1.409 0 1.562 3.313 1.666 5.5.011.266.024.5.036.714.016.271.025.5.021.71a.138.138 0 0 1-.073.122c-1.509.792-4.571 1.895-10.6 2.64a28.193 28.193 0 0 1-3.039.173zm-7.25-2.415c.809.821 2.8 2.139 7.25 2.139a27.541 27.541 0 0 0 3.008-.173c5.885-.725 8.916-1.793 10.429-2.568 0-.184-.008-.383-.021-.612-.014-.21-.025-.45-.04-.714-.083-1.838-.243-5.248-1.39-5.248a.963.963 0 0 0-.475.152 3.385 3.385 0 0 1-2.2 1.205.146.146 0 0 1-.125-.051c-1.356-1.685-3.805-1.067-3.817-1.062a2.926 2.926 0 0 0-1.924 1.64c-.686.832-2.218 1.035-4.161 1.29-.663.088-1.35.174-2.083.3-3.254.538-4.187 2.538-4.454 3.702z" class="prefix__cls-2" data-name="Path 11005" transform="translate(-8119.115 -9891.017)"/>
        </g>
        <g id="prefix__Group_4082" data-name="Group 4082" transform="translate(13.515 58.025)">
            <g id="prefix__Group_4080" data-name="Group 4080">
                <path id="prefix__Path_11006" d="M8151.732 9866.41c-.077-4.018-.077-7.647-.077-7.647l-7.854.49 1.1 7.444a12.538 12.538 0 0 0 6.831-.287z" class="prefix__cls-3" data-name="Path 11006" transform="translate(-8143.665 -9858.624)"/>
                <path id="prefix__Path_11007" d="M8147.847 9867a14.912 14.912 0 0 1-3.148-.352.138.138 0 0 1-.106-.113l-1.1-7.441a.146.146 0 0 1 .027-.107.134.134 0 0 1 .1-.051l7.853-.49a.115.115 0 0 1 .1.041.127.127 0 0 1 .044.1c0 .036 0 3.672.076 7.648a.135.135 0 0 1-.089.127 10.55 10.55 0 0 1-3.757.638zm-3-.6a14.891 14.891 0 0 0 3 .321 10.384 10.384 0 0 0 3.573-.587c-.067-3.491-.074-6.7-.074-7.407l-7.56.47z" class="prefix__cls-4" data-name="Path 11007" transform="translate(-8143.491 -9858.446)"/>
            </g>
            <g id="prefix__Group_4081" data-name="Group 4081" transform="translate(1.101 7.65)">
                <path id="prefix__Path_11008" d="M8146.318 9876.529l.969 6.56s2.542-.648 3.959 1.107a3.264 3.264 0 0 0 2.129-1.169c-.113-1.971-.181-4.441-.228-6.784a12.526 12.526 0 0 1-6.829.286z" class="prefix__cls-5" data-name="Path 11008" transform="translate(-8146.182 -9876.107)"/>
                <path id="prefix__Path_11009" d="M8151.071 9884.159a.148.148 0 0 1-.108-.05c-1.356-1.686-3.805-1.068-3.817-1.062a.172.172 0 0 1-.109-.02.143.143 0 0 1-.06-.1l-.97-6.555a.14.14 0 0 1 .043-.117.133.133 0 0 1 .123-.036 14.765 14.765 0 0 0 3.088.343 10.229 10.229 0 0 0 3.662-.623.14.14 0 0 1 .187.127c.055 2.782.129 5.06.227 6.774a.141.141 0 0 1-.03.1 3.413 3.413 0 0 1-2.218 1.22zm-2.869-1.5a3.728 3.728 0 0 1 2.925 1.22 3.114 3.114 0 0 0 1.935-1.072c-.094-1.674-.168-3.874-.222-6.539a10.723 10.723 0 0 1-3.578.572 14.423 14.423 0 0 1-2.953-.312l.918 6.217a5.543 5.543 0 0 1 .973-.086z" class="prefix__cls-6" data-name="Path 11009" transform="translate(-8146.006 -9875.933)"/>
            </g>
            <path id="prefix__Path_11010" d="M8146.067 9862.877c.045-1.975 2.7-2.4 3.38-1.4.528.776.748 2.95.893 5.354a8.679 8.679 0 0 0 1.392-.408v-.01c-.077-4.018-.077-7.647-.077-7.647l-7.854.49 1.1 7.444.007.034a13.856 13.856 0 0 0 1.447.229c-.187-2.223-.288-4.086-.288-4.086z" class="prefix__cls-7" data-name="Path 11010" transform="translate(-8143.665 -9858.624)"/>
        </g>
        <g id="prefix__Group_4085" data-name="Group 4085" transform="translate(27.851 58.7)">
            <g id="prefix__Group_4083" data-name="Group 4083">
                <path id="prefix__Path_11011" d="M8185.585 9866.771l-.941-5.442s-5.114.184-8.067-1.036l2.2 6.886a15.871 15.871 0 0 0 6.808-.408z" class="prefix__cls-3" data-name="Path 11011" transform="translate(-8176.438 -9860.159)"/>
                <path id="prefix__Path_11012" d="M8181.391 9867.33a22.02 22.02 0 0 1-2.806-.189.127.127 0 0 1-.113-.092l-2.2-6.881a.139.139 0 0 1 .04-.143.133.133 0 0 1 .145-.025 22.4 22.4 0 0 0 7.281 1.031c.455 0 .725-.011.725-.011a.139.139 0 0 1 .144.112l.941 5.447a.133.133 0 0 1-.088.147 11.961 11.961 0 0 1-4.069.604zm-2.688-.449a21.935 21.935 0 0 0 2.686.173 11.871 11.871 0 0 0 3.862-.546l-.9-5.207h-.619a23.591 23.591 0 0 1-7.115-.949z" class="prefix__cls-4" data-name="Path 11012" transform="translate(-8176.262 -9859.989)"/>
            </g>
            <g id="prefix__Group_4084" data-name="Group 4084" transform="translate(2.2 6.474)">
                <path id="prefix__Path_11013" d="M8189.358 9880.557l-.946-5.456a15.871 15.871 0 0 1-6.81.407l1.751 5.484s.483.065.67.852a3.565 3.565 0 0 1 4.787-.189 1.508 1.508 0 0 1 .77-1.082c-.152-.016-.222-.016-.222-.016z" class="prefix__cls-5" data-name="Path 11013" transform="translate(-8181.466 -9874.964)"/>
                <path id="prefix__Path_11014" d="M8183.849 9881.806a.1.1 0 0 1-.038 0 .139.139 0 0 1-.094-.1c-.16-.673-.543-.744-.559-.75a.127.127 0 0 1-.111-.091l-1.75-5.483a.127.127 0 0 1 .026-.127.135.135 0 0 1 .121-.051 21.663 21.663 0 0 0 2.771.184 11.663 11.663 0 0 0 3.973-.582.133.133 0 0 1 .117.01.137.137 0 0 1 .066.1l.926 5.345c.031 0 .071 0 .119.01a.137.137 0 0 1 .125.117.142.142 0 0 1-.089.148c-.1.036-.463.224-.685 1a.141.141 0 0 1-.092.092.128.128 0 0 1-.128-.025 3.535 3.535 0 0 0-2.218-.8 3.406 3.406 0 0 0-2.384.979.143.143 0 0 1-.096.024zm-.564-1.1a1.084 1.084 0 0 1 .633.715 3.675 3.675 0 0 1 2.412-.91 3.81 3.81 0 0 1 2.236.746 1.941 1.941 0 0 1 .494-.807.2.2 0 0 1-.015-.045l-.916-5.293a12.268 12.268 0 0 1-3.913.545 22.7 22.7 0 0 1-2.593-.158z" class="prefix__cls-6" data-name="Path 11014" transform="translate(-8181.291 -9874.788)"/>
            </g>
            <path id="prefix__Path_11015" d="M8179.831 9864.851c-.29-2.675 3.11-2.169 3.832.726.135.541.287 1.071.427 1.588a8.955 8.955 0 0 0 1.5-.394l-.941-5.442s-5.114.184-8.067-1.036l2.2 6.886c.516.066 1.235.139 2.049.17l-.4-.016c-.395-1.339-.6-2.482-.6-2.482z" class="prefix__cls-7" data-name="Path 11015" transform="translate(-8176.438 -9860.159)"/>
        </g>
        <g id="prefix__Group_4088" data-name="Group 4088" transform="translate(29.347 70.645)">
            <g id="prefix__Group_4086" data-name="Group 4086" transform="translate(.001)">
                <path id="prefix__Path_11016" d="M8187.126 9898.217c4.42-.357 5.924-1.154 6.376-2.4-.135-.377-.323-.8-.546-1.281-1.033-2.251-2.615-5.109-2.615-5.109s.91-1.343-.246-1.583a11.281 11.281 0 0 0-1.419-.229 1.51 1.51 0 0 0-.77 1.082 3.562 3.562 0 0 0-4.787.189c-.187-.787-.67-.853-.67-.853a2.555 2.555 0 0 0-1.668 2.425c.046 1.393-.751 3.95-.788 5.978.973.888 3.073 2.107 7.133 1.781z" class="prefix__cls-1" data-name="Path 11016" transform="translate(-8179.858 -9887.472)"/>
                <path id="prefix__Path_11017" d="M8185.643 9898.229c-3.2 0-4.984-1.017-5.916-1.875a.127.127 0 0 1-.043-.1 21.382 21.382 0 0 1 .44-3.345 14.076 14.076 0 0 0 .346-2.629 2.72 2.72 0 0 1 1.758-2.562.347.347 0 0 1 .063 0c.024 0 .485.076.722.739a3.678 3.678 0 0 1 2.412-.909 3.8 3.8 0 0 1 2.236.746 1.534 1.534 0 0 1 .792-.99.209.209 0 0 1 .06-.006 12.137 12.137 0 0 1 1.435.23.822.822 0 0 1 .641.469 1.62 1.62 0 0 1-.267 1.256c.251.455 1.649 3.018 2.584 5.049.208.459.408.9.549 1.287a.14.14 0 0 1 0 .1c-.522 1.438-2.4 2.164-6.491 2.5-.451.024-.897.04-1.321.04zm-5.684-2.032c.909.812 2.623 1.761 5.684 1.761.418 0 .854-.021 1.3-.057 3.922-.316 5.733-.975 6.241-2.271-.138-.368-.327-.786-.526-1.216-1.021-2.225-2.595-5.079-2.61-5.1a.139.139 0 0 1 0-.145c.125-.184.418-.734.282-1.07a.551.551 0 0 0-.44-.3 12.466 12.466 0 0 0-1.371-.225c-.13.057-.455.271-.658.986a.144.144 0 0 1-.093.092.128.128 0 0 1-.127-.025 3.531 3.531 0 0 0-2.218-.8 3.411 3.411 0 0 0-2.384.979.144.144 0 0 1-.135.036.137.137 0 0 1-.094-.1c-.138-.571-.434-.709-.531-.74a2.389 2.389 0 0 0-1.54 2.283 14.1 14.1 0 0 1-.347 2.684 21.037 21.037 0 0 0-.433 3.231z" class="prefix__cls-2" data-name="Path 11017" transform="translate(-8179.684 -9887.293)"/>
            </g>
            <g id="prefix__Group_4087" data-name="Group 4087" transform="translate(0 8.203)">
                <path id="prefix__Path_11018" d="M8193.5 9906.36c-.452 1.25-1.957 2.046-6.377 2.405-4.06.326-6.161-.895-7.132-1.787a4.494 4.494 0 0 0 .239 1.694c.791 2.011 8.4 1.644 11.263.606 2.249-.809 2.507-1.549 2.007-2.918z" class="prefix__cls-8" data-name="Path 11018" transform="translate(-8179.856 -9906.222)"/>
                <path id="prefix__Path_11019" d="M8185.2 9910.076c-1.743 0-4.745-.193-5.27-1.531a4.524 4.524 0 0 1-.247-1.744.131.131 0 0 1 .08-.124.134.134 0 0 1 .149.021c.9.827 2.618 1.807 5.729 1.807.418 0 .854-.02 1.3-.056 3.965-.321 5.779-.99 6.256-2.317a.141.141 0 0 1 .13-.087.138.138 0 0 1 .128.087c.567 1.572.058 2.322-2.088 3.1a20.7 20.7 0 0 1-6.167.844zm-5.246-2.976a3.949 3.949 0 0 0 .231 1.343c.336.853 2.208 1.363 5.015 1.363a20.466 20.466 0 0 0 6.074-.832c2-.726 2.329-1.363 2.03-2.42-.682 1.225-2.575 1.863-6.34 2.17-.453.035-.9.051-1.323.051a8.7 8.7 0 0 1-5.686-1.675z" class="prefix__cls-9" data-name="Path 11019" transform="translate(-8179.682 -9906.044)"/>
            </g>
            <path id="prefix__Path_11020" d="M8207.525 9906.36c-.285.791-1 1.4-2.6 1.833a11.281 11.281 0 0 1 .187 1.225c.146-.046.284-.092.411-.139 2.243-.81 2.497-1.55 2.002-2.919z" class="prefix__cls-10" data-name="Path 11020" transform="translate(-8193.88 -9898.02)"/>
            <path id="prefix__Path_11021" d="M8182.767 9909.232a6.7 6.7 0 0 1-2.773-1.459 4.494 4.494 0 0 0 .239 1.694c.261.663 1.266 1.067 2.6 1.271a7.705 7.705 0 0 1-.066-1.506z" class="prefix__cls-10" data-name="Path 11021" transform="translate(-8179.856 -9898.814)"/>
        </g>
        <g id="prefix__Group_4089" data-name="Group 4089" transform="translate(31.941 71.758)">
            <path id="prefix__Path_11022" d="M8185.61 9891.164a1.536 1.536 0 0 1 .089-.26 2.145 2.145 0 0 1 .313-.506 2.243 2.243 0 0 1 .212-.239c.074-.067.147-.128.216-.18.136-.091.234-.143.234-.143a2.1 2.1 0 0 1-.119.251 5.49 5.49 0 0 1-.33.479 3.517 3.517 0 0 1-.4.424c-.058.057-.118.1-.154.129a.581.581 0 0 1-.061.045z" class="prefix__cls-2" data-name="Path 11022" transform="translate(-8185.61 -9889.837)"/>
            <path id="prefix__Path_11023" d="M8197.537 9889.837a1.051 1.051 0 0 1 .208.077 1.447 1.447 0 0 1 .2.1 2.282 2.282 0 0 1 .193.163 2.118 2.118 0 0 1 .3.374 1 1 0 0 1 .093.2 1.36 1.36 0 0 1-.207-.093 1.583 1.583 0 0 1-.366-.275 3.3 3.3 0 0 1-.3-.352 1.115 1.115 0 0 1-.121-.194z" class="prefix__cls-2" data-name="Path 11023" transform="translate(-8192.319 -9889.837)"/>
        </g>
        <g id="prefix__Group_4090" data-name="Group 4090" transform="translate(.538 22.625)">
            <path id="prefix__Path_11024" d="M8120.727 9808.71c3.835 3.472 6.117 5.661 12.509 3.927s9.132 1.918 14.247 1.643 5.935-1.459 7.4-3.471 2.831-2.467 5.3-3.012a7.6 7.6 0 0 0 3.121-1.139c-2.811-5.809-10.615-20.812-17.307-25.8-4.141-3.532-12.6-5.237-18.966 2.19 0 0-9.238 11.634-12.882 24.579a5.857 5.857 0 0 1 6.578 1.083z" class="prefix__cls-11" data-name="Path 11024" transform="translate(-8114.005 -9777.704)"/>
            <path id="prefix__Path_11025" d="M8146.756 9814.256a15.741 15.741 0 0 1-5.084-1.053 16.127 16.127 0 0 0-5.272-1.076 12.5 12.5 0 0 0-3.3.465 15.307 15.307 0 0 1-4.013.611c-3.578 0-5.617-1.848-8.44-4.4l-.185-.169a5.732 5.732 0 0 0-3.91-1.607 6.324 6.324 0 0 0-2.529.551.139.139 0 0 1-.187-.163c3.61-12.828 12.818-24.513 12.911-24.63a13.773 13.773 0 0 1 10.653-5.259 13.446 13.446 0 0 1 8.506 3.048c7.011 5.232 15.047 21.1 17.344 25.846a.142.142 0 0 1-.04.168 7.709 7.709 0 0 1-3.181 1.164c-2.479.551-3.8 1.025-5.214 2.961l-.036.051c-1.452 2-2.327 3.2-7.462 3.477-.192.009-.379.015-.561.015zm-10.356-2.4a16.426 16.426 0 0 1 5.357 1.092 14.377 14.377 0 0 0 5.542 1.021c5.006-.266 5.8-1.368 7.255-3.365l.037-.051c1.464-2.012 2.825-2.5 5.377-3.062a8.121 8.121 0 0 0 2.983-1.047c-2.352-4.844-10.3-20.49-17.22-25.65a13.166 13.166 0 0 0-8.335-2.986 13.49 13.49 0 0 0-10.441 5.155c-.088.112-9.133 11.593-12.781 24.258a6.588 6.588 0 0 1 2.374-.465 6 6 0 0 1 4.095 1.68l.183.169c2.776 2.511 4.786 4.328 8.257 4.328a15.233 15.233 0 0 0 3.941-.6 12.885 12.885 0 0 1 3.376-.481z" class="prefix__cls-12" data-name="Path 11025" transform="translate(-8113.828 -9777.526)"/>
        </g>
        <g id="prefix__Group_4093" data-name="Group 4093" transform="translate(0 51.442)">
            <g id="prefix__Group_4091" data-name="Group 4091" transform="translate(0 2.398)">
                <path id="prefix__Path_11026" fill="#421219" d="M8113 9849.506c-.029.117-.059.23-.084.348 0 0 2.587 3.119 7.862 2.531-.004 0-4.829-4.375-7.778-2.879z" data-name="Path 11026" transform="translate(-8112.775 -9849.057)"/>
                <path id="prefix__Path_11027" fill="#2a1012" d="M8119.292 9852.417a8.962 8.962 0 0 1-6.663-2.653.141.141 0 0 1-.027-.119c.015-.07.033-.137.047-.209l.036-.137a.146.146 0 0 1 .072-.092 3.213 3.213 0 0 1 1.455-.328c2.888 0 6.335 3.095 6.479 3.227a.129.129 0 0 1 .037.143.128.128 0 0 1-.114.093 11.489 11.489 0 0 1-1.322.075zm-6.406-2.782a8.755 8.755 0 0 0 6.406 2.508c.318 0 .645-.016.974-.041-.833-.7-3.7-2.945-6.054-2.945a2.955 2.955 0 0 0-1.275.27l-.021.076c-.011.046-.016.092-.03.132z" data-name="Path 11027" transform="translate(-8112.598 -9848.879)"/>
            </g>
            <g id="prefix__Group_4092" data-name="Group 4092" transform="translate(.084)">
                <path id="prefix__Path_11028" d="M8162.714 9843.712a7.588 7.588 0 0 1-3.122 1.139c-2.466.546-3.837 1-5.3 3.011s-2.285 3.2-7.4 3.472-7.853-3.38-14.247-1.644-8.674-.454-12.509-3.926a5.86 5.86 0 0 0-6.584-1.082q-.246.866-.454 1.74c2.953-1.5 7.778 2.879 7.778 2.879 4.28 2.681 8.463 2.549 12.51 1.727s5.686.306 9.825 1.28a14.367 14.367 0 0 0 11.261-1.7c2.923-2.012 2.742-3.717 5.3-4.141s3.532-.061 3.835-.853c-.177-.401-.483-1.055-.893-1.902z" class="prefix__cls-5" data-name="Path 11028" transform="translate(-8112.966 -9843.575)"/>
                <path id="prefix__Path_11029" d="M8146.8 9852.708a16.563 16.563 0 0 1-3.8-.443c-1.03-.245-1.917-.5-2.7-.726a15.576 15.576 0 0 0-4.5-.83 13.25 13.25 0 0 0-2.56.273 23.209 23.209 0 0 1-4.664.526 14.5 14.5 0 0 1-7.945-2.271c-.053-.046-3.532-3.165-6.314-3.165a2.9 2.9 0 0 0-1.331.3.127.127 0 0 1-.146-.015.133.133 0 0 1-.05-.139c.141-.586.294-1.174.455-1.745a.141.141 0 0 1 .079-.087 6.577 6.577 0 0 1 2.637-.577 6 6 0 0 1 4.095 1.68l.187.169c2.776 2.511 4.783 4.328 8.254 4.328a15.232 15.232 0 0 0 3.94-.6 12.891 12.891 0 0 1 3.376-.475 16.4 16.4 0 0 1 5.356 1.092 14.393 14.393 0 0 0 5.543 1.021c5.006-.266 5.8-1.368 7.255-3.365l.036-.051c1.465-2.012 2.825-2.5 5.378-3.062a7.588 7.588 0 0 0 3.066-1.113.143.143 0 0 1 .119-.025.139.139 0 0 1 .094.072c.352.729.678 1.42.9 1.9a.127.127 0 0 1 0 .1c-.227.587-.772.628-1.766.7a21.748 21.748 0 0 0-2.176.24 4.037 4.037 0 0 0-2.716 1.766 11.951 11.951 0 0 1-2.524 2.354 13.479 13.479 0 0 1-7.578 2.168zm-11-2.276a15.641 15.641 0 0 1 4.578.848c.779.225 1.665.475 2.688.72a16.258 16.258 0 0 0 3.734.435 13.179 13.179 0 0 0 7.419-2.119 11.623 11.623 0 0 0 2.471-2.308 4.314 4.314 0 0 1 2.88-1.858c.928-.152 1.635-.2 2.2-.244.991-.066 1.34-.113 1.5-.471-.112-.249-.376-.816-.795-1.687a8.517 8.517 0 0 1-3.045 1.061c-2.479.551-3.806 1.025-5.214 2.961l-.036.051c-1.452 2-2.327 3.2-7.462 3.477a14.668 14.668 0 0 1-5.644-1.037 16.116 16.116 0 0 0-5.272-1.076 12.5 12.5 0 0 0-3.3.465 15.316 15.316 0 0 1-4.013.611c-3.579 0-5.617-1.848-8.438-4.4l-.187-.169a5.732 5.732 0 0 0-3.91-1.607 6.272 6.272 0 0 0-2.468.525c-.129.459-.252.93-.37 1.4a3.219 3.219 0 0 1 1.194-.215c2.888 0 6.335 3.094 6.479 3.227a14.3 14.3 0 0 0 7.781 2.21 22.937 22.937 0 0 0 4.609-.517 13.029 13.029 0 0 1 2.621-.283z" class="prefix__cls-6" data-name="Path 11029" transform="translate(-8112.789 -9843.398)"/>
            </g>
        </g>
        <g id="prefix__Group_4094" data-name="Group 4094" transform="translate(10.303 30.037)">
            <path id="prefix__Path_11030" d="M8141.287 9795.263s-.108.317-.3.868l-.336 1c-.123.389-.263.822-.414 1.3s-.319.99-.48 1.543-.34 1.127-.518 1.725-.34 1.225-.516 1.854-.368 1.271-.511 1.924l-.473 1.93c-.077.316-.158.633-.233.943s-.126.629-.189.936l-.361 1.761c-.116.561-.239 1.087-.3 1.587-.294 1.977-.513 3.293-.513 3.293s.13-1.327.362-3.318c.043-.5.157-1.031.25-1.6s.213-1.158.325-1.775c.062-.308.112-.624.182-.936s.147-.632.226-.955c.15-.637.3-1.285.456-1.939s.357-1.285.531-1.919.358-1.251.533-1.853c.191-.6.38-1.174.556-1.721s.35-1.057.524-1.527c.328-.943.631-1.725.846-2.266.1-.275.192-.484.253-.628s.1-.227.1-.227z" class="prefix__cls-15" data-name="Path 11030" transform="translate(-8136.15 -9794.916)"/>
            <path id="prefix__Path_11031" d="M8168.435 9794.47s.3 1.286.74 3.216c.222.965.5 2.082.792 3.282s.615 2.481.961 3.752c.161.639.343 1.271.511 1.9s.361 1.236.532 1.828.354 1.158.52 1.705.346 1.041.5 1.51.321.894.454 1.271.264.705.375.969l.338.844-.388-.822c-.123-.261-.272-.577-.419-.955s-.337-.785-.5-1.256c-.347-.923-.738-2.016-1.105-3.2-.177-.6-.369-1.205-.545-1.833s-.366-1.255-.532-1.894c-.334-1.275-.648-2.562-.929-3.768s-.507-2.337-.706-3.307c-.395-1.937-.599-3.242-.599-3.242z" class="prefix__cls-15" data-name="Path 11031" transform="translate(-8154.311 -9794.47)"/>
            <path id="prefix__Path_11032" d="M8184.017 9796.839s.5.867 1.239 2.175c.361.652.812 1.4 1.271 2.221s.973 1.668 1.475 2.531 1.019 1.721 1.5 2.517c.5.792.954 1.536 1.352 2.175.837 1.235 1.378 2.083 1.378 2.083s-.609-.791-1.507-2c-.415-.623-.912-1.342-1.426-2.129-.5-.795-1.018-1.648-1.539-2.5-.491-.872-1-1.734-1.444-2.562s-.858-1.592-1.2-2.262c-.682-1.341-1.099-2.249-1.099-2.249z" class="prefix__cls-15" data-name="Path 11032" transform="translate(-8163.076 -9795.803)"/>
        </g>
        <g id="prefix__Group_4095" data-name="Group 4095" transform="translate(2.789 79.063)">
            <path id="prefix__Path_11033" d="M8129.77 9909.474c-6.691.731-9.406-.99-10.425-2.062-.339 1.629.5 3.124 7.316 3.486 6.88.363 10.715-1.281 12.055-1.949 1.16-.582 1.589-.751 1.6-2.1-1.469.772-4.485 1.875-10.546 2.625z" class="prefix__cls-8" data-name="Path 11033" transform="translate(-8119.147 -9906.713)"/>
            <path id="prefix__Path_11034" d="M8128.424 9910.91c-.633 0-1.288-.021-1.945-.056-4.019-.21-6.288-.817-7.126-1.91a2.008 2.008 0 0 1-.313-1.735.136.136 0 0 1 .1-.106.146.146 0 0 1 .135.04c.779.816 2.761 2.189 7.3 2.189a27.312 27.312 0 0 0 3.008-.173c5.982-.74 9.013-1.827 10.5-2.608a.139.139 0 0 1 .2.123c-.012 1.389-.469 1.618-1.572 2.169l-.106.052a22.666 22.666 0 0 1-10.181 2.015zm-9.16-3.391a1.621 1.621 0 0 0 .306 1.257c.778 1.011 3.042 1.6 6.925 1.808.65.035 1.3.051 1.929.051a22.348 22.348 0 0 0 10.057-1.986l.107-.051c1.01-.5 1.362-.685 1.414-1.7-1.576.785-4.628 1.821-10.389 2.537a28.188 28.188 0 0 1-3.04.173c-4.313 0-6.387-1.23-7.308-2.088z" class="prefix__cls-9" data-name="Path 11034" transform="translate(-8118.974 -9906.536)"/>
        </g>
        <g id="prefix__Group_4096" data-name="Group 4096" transform="translate(2.789 79.063)">
            <path id="prefix__Path_11035" d="M8129.77 9909.474c-6.691.731-9.406-.99-10.425-2.062-.339 1.629.5 3.124 7.316 3.486 6.88.363 10.715-1.281 12.055-1.949 1.16-.582 1.589-.751 1.6-2.1-1.469.772-4.485 1.875-10.546 2.625z" class="prefix__cls-8" data-name="Path 11035" transform="translate(-8119.147 -9906.713)"/>
            <path id="prefix__Path_11036" d="M8128.424 9910.91c-.633 0-1.288-.021-1.945-.056-4.019-.21-6.288-.817-7.126-1.91a2.008 2.008 0 0 1-.313-1.735.136.136 0 0 1 .1-.106.146.146 0 0 1 .135.04c.779.816 2.761 2.189 7.3 2.189a27.312 27.312 0 0 0 3.008-.173c5.982-.74 9.013-1.827 10.5-2.608a.139.139 0 0 1 .2.123c-.012 1.389-.469 1.618-1.572 2.169l-.106.052a22.666 22.666 0 0 1-10.181 2.015zm-9.16-3.391a1.621 1.621 0 0 0 .306 1.257c.778 1.011 3.042 1.6 6.925 1.808.65.035 1.3.051 1.929.051a22.348 22.348 0 0 0 10.057-1.986l.107-.051c1.01-.5 1.362-.685 1.414-1.7-1.576.785-4.628 1.821-10.389 2.537a28.188 28.188 0 0 1-3.04.173c-4.313 0-6.387-1.23-7.308-2.088z" class="prefix__cls-9" data-name="Path 11036" transform="translate(-8118.974 -9906.536)"/>
        </g>
        <g id="prefix__Group_4097" data-name="Group 4097" transform="translate(14.759 60.357)">
            <path id="prefix__Path_11037" d="M8148.982 9865.7s.1 1.863.289 4.084a12.907 12.907 0 0 0 3.985-.133c-.146-2.4-.365-4.578-.894-5.355-.676-.996-3.336-.573-3.38 1.404z" class="prefix__cls-16" data-name="Path 11037" transform="translate(-8147.824 -9863.775)"/>
            <path id="prefix__Path_11038" d="M8149.642 9877.332c.089 1.072.2 2.221.327 3.289.4 3.291 3.992 2.986 3.82-.394-.052-.989-.1-2.026-.161-3.027a12.844 12.844 0 0 1-3.986.132z" class="prefix__cls-16" data-name="Path 11038" transform="translate(-8148.194 -9871.327)"/>
            <path id="prefix__Path_11039" d="M8151.766 9876.675c.061 1 .109 2.038.161 3.027.173 3.38-3.423 3.685-3.819.394-.126-1.068-.237-2.217-.326-3.289a13.9 13.9 0 0 1-1.447-.229l.962 6.523s2.542-.648 3.959 1.107a3.263 3.263 0 0 0 2.129-1.168c-.111-1.971-.181-4.437-.228-6.774a8.679 8.679 0 0 1-1.391.409z" class="prefix__cls-17" data-name="Path 11039" transform="translate(-8146.334 -9870.802)"/>
        </g>
        <g id="prefix__Group_4099" data-name="Group 4099" transform="translate(30.188 65.311)">
            <path id="prefix__Path_11040" d="M8189.358 9880.557l-.946-5.456a8.968 8.968 0 0 1-1.5.394c.61 2.219 1.034 4.031-.79 4.267-1.327.174-2.3-2.165-2.871-4.1-.651-.036-1.225-.1-1.654-.154l1.751 5.484s.483.065.67.852a3.565 3.565 0 0 1 4.787-.189 1.508 1.508 0 0 1 .77-1.082c-.147-.016-.217-.016-.217-.016z" class="prefix__cls-17" data-name="Path 11040" transform="translate(-8181.603 -9875.101)"/>
            <g id="prefix__Group_4098" data-name="Group 4098" transform="translate(2.049 .393)">
                <path id="prefix__Path_11042" d="M8187.318 9876.447a.111.111 0 0 0-.04 0 .111.111 0 0 1 .04 0z" class="prefix__cls-18" data-name="Path 11042" transform="translate(-8186.845 -9876.248)"/>
                <path id="prefix__Path_11043" d="M8186.321 9876.424a.087.087 0 0 0-.034 0 .087.087 0 0 1 .034 0z" class="prefix__cls-18" data-name="Path 11043" transform="translate(-8186.287 -9876.235)"/>
            </g>
        </g>
        <g id="prefix__Group_4100" class="prefix__cls-19" data-name="Group 4100" transform="translate(2.987 72.409)">
            <path id="prefix__Path_11046" d="M8140.379 9897.413c-.123-2.007-.123-7.121-2.131-5.9a3.261 3.261 0 0 1-2.129 1.17c-1.417-1.756-3.959-1.107-3.959-1.107a3.021 3.021 0 0 0-2.008 1.7 3.413 3.413 0 0 1-2 .9c.246-.025.5-.061.762-.1 2.374-.352 2.2-1.67 4.308-1.5s2.2 1.5 1.931 2.813c-.262.97.706-.7.967-1.582s.707-.086 1.937-.525 1.144 1.756.967 3.252-2.375 2.639-8.527 3.25c-5.947.6-11.482-.693-10.422-2.684a4.612 4.612 0 0 0-.637 1.525.327.327 0 0 1-.011.047c1.019 1.07 3.733 2.792 10.425 2.061 6.062-.75 9.078-1.852 10.549-2.623-.001-.196-.006-.431-.022-.697z" class="prefix__cls-1" data-name="Path 11046" transform="translate(-8119.426 -9891.326)"/>
        </g>
        <path id="prefix__Path_11047" fill="#c67638" fill-rule="evenodd" d="M8124.616 9902.539c.2 1.082 1.381 1.307 2.188 1.476a24 24 0 0 0 7.892 0 19.827 19.827 0 0 1-6.972-.735c-.956-.332-1.479-.4-2-1.316-.121-.22.144-.74.166-.925-.033.279-1.477.418-1.274 1.5z" data-name="Path 11047" transform="translate(-8119.347 -9824.38)" style="mix-blend-mode:screen;isolation:isolate"/>
        <g id="prefix__Group_4101" class="prefix__cls-19" data-name="Group 4101" transform="translate(2.987 72.409)">
            <path id="prefix__Path_11048" d="M8140.379 9897.413c-.123-2.007-.123-7.121-2.131-5.9a3.261 3.261 0 0 1-2.129 1.17c-1.417-1.756-3.959-1.107-3.959-1.107a3.021 3.021 0 0 0-2.008 1.7c-.853 1.032-3.227 1.032-6.148 1.521a8.253 8.253 0 0 0-.932.209l.079.047a30.177 30.177 0 0 1 4.747-.133c2.558.133 2.741.133 3.975-.867s3.514.27 1.916 2.281 1.053.638 2.146.455.185 1.873-5.2 2.465c-4.783.525-9.811.152-10.278-2.648a4.6 4.6 0 0 0-1.015 2.025.327.327 0 0 1-.011.047c1.019 1.07 3.733 2.792 10.425 2.061 6.062-.75 9.078-1.852 10.549-2.623-.005-.202-.01-.437-.026-.703z" class="prefix__cls-1" data-name="Path 11048" transform="translate(-8119.426 -9891.326)"/>
        </g>
        <g id="prefix__Group_4102" class="prefix__cls-19" data-name="Group 4102" transform="translate(29.484 70.783)">
            <path id="prefix__Path_11049" d="M8192.957 9894.531c-1.033-2.251-2.615-5.109-2.615-5.109s.91-1.343-.246-1.583a11.281 11.281 0 0 0-1.419-.229 1.51 1.51 0 0 0-.77 1.082 3.562 3.562 0 0 0-4.787.189c-.187-.787-.67-.853-.67-.853a2.555 2.555 0 0 0-1.668 2.425 6.422 6.422 0 0 1-.056.924l.1.015s.355-2.19.965-2.343.152 1.373.409 2.242a4.873 4.873 0 0 1 3.408-2.141 4.348 4.348 0 0 1 3.658 1.577c-.151-1.271-.151-1.628.257-1.577s.2 1.476 1.169 3.258.813 3.966-4.069 4.018-6.252-.562-6.051-3.713a.2.2 0 0 0-.06.006 24.121 24.121 0 0 0-.514 3.712c.972.894 3.072 2.112 7.132 1.786 4.42-.357 5.924-1.154 6.376-2.4-.138-.381-.326-.801-.549-1.286z" class="prefix__cls-1" data-name="Path 11049" transform="translate(-8179.994 -9887.609)"/>
        </g>
        <g id="prefix__Group_4103" class="prefix__cls-19" data-name="Group 4103" transform="translate(29.484 75.408)">
            <path id="prefix__Path_11050" d="M8187.539 9903.249c-6.484.685-7.4-2.144-7.4-2.144h-.045a11.178 11.178 0 0 0-.1 1.267c.972.893 3.072 2.113 7.132 1.787 4.42-.359 5.924-1.155 6.376-2.405-.135-.378-.323-.8-.546-1.282-.34-.739-.739-1.545-1.126-2.3 1.279 2.703.777 4.484-4.291 5.077z" class="prefix__cls-1" data-name="Path 11050" transform="translate(-8179.994 -9898.18)"/>
        </g>
        <path id="prefix__Path_11051" fill="#c67638" d="M8183.462 9902.462s4.2 2.834 8.4 0c-.546 2.558-6.575 2.558-8.4 0z" data-name="Path 11051" transform="translate(-8152.461 -9825.181)" style="mix-blend-mode:screen;isolation:isolate"/>
        <g id="prefix__Group_4104" data-name="Group 4104" transform="translate(.675 22.763)" style="isolation:isolate;mix-blend-mode:multiply" opacity="0.4">
            <path id="prefix__Path_11052" fill="#644e56" d="M8145.991 9780.858c-4.141-3.532-12.6-5.237-18.966 2.19a86.751 86.751 0 0 0-6.9 10.557c1.26-1.884 4.969-7.27 6.63-7.637 2.016-.444-1.345 8.515-2.241 14.451 3.362-10.756 6.945-13.777 8.849-14.451s5.827 10.531 9.187 16.58c-2.913-14.563-1.68-20.726 2.466-13.777s6.273 9.076 6.273 9.076-4.818-10.98-3.361-12.1 11.089 14.227 13.037 19.709c0 0-4.14-1.95-8.036 2.92s-7.061 4.869-14 1.705-9.374 4.018-14.122-.975c-3.826-4.021-6.939-4.8-10.108-3.3-.2.607-.384 1.215-.555 1.822a5.857 5.857 0 0 1 6.584 1.082c3.835 3.472 6.117 5.661 12.509 3.927s9.132 1.918 14.247 1.643 5.935-1.459 7.4-3.471 2.831-2.467 5.3-3.012a7.6 7.6 0 0 0 3.121-1.139c-2.818-5.808-10.622-20.812-17.314-25.8z" data-name="Path 11052" transform="translate(-8114.143 -9777.842)"/>
        </g>
        <g id="prefix__Group_4108" data-name="Group 4108" transform="translate(32.874 10.847)">
            <g id="prefix__Group_4105" data-name="Group 4105">
                <path id="prefix__Path_11053" d="M8192.715 9750.923s6.574 14.609 8.218 18.081c.914 1.367 2.3 1.056 3.581 1.709a4.733 4.733 0 0 1 2.232 3.492c0 1.006-.03 3.048-1 3.073-.062 1.466-.243 1.98-.609 2.288.061 2.158-.243 2.465-.73 2.525s-1.064-1.8-.911-2.863c-.791-1.827-.945-2.436-1.89-3.073s-1.7-1.46-1.978-1.22.031 1.766.062 2.71-.671 1.4-1.28 1.22-.271-1.065-.213-2.1a10.631 10.631 0 0 0-.577-3.042 3.722 3.722 0 0 1 .242-2.2c-1.064-1.73-8.036-9.587-9.8-16.584z" class="prefix__cls-3" data-name="Path 11053" transform="translate(-8187.918 -9750.783)"/>
                <path id="prefix__Path_11054" d="M8204.2 9782.051a.5.5 0 0 1-.359-.205 4.558 4.558 0 0 1-.672-2.776l-.274-.647c-.557-1.312-.766-1.8-1.547-2.334-.31-.209-.6-.439-.858-.643a2.731 2.731 0 0 0-.92-.593c-.164.124-.075.991-.014 1.563.037.361.076.734.089 1.045a1.427 1.427 0 0 1-.367 1.063 1.072 1.072 0 0 1-1.087.291c-.567-.169-.486-.781-.392-1.49.03-.24.064-.484.081-.746a7.582 7.582 0 0 0-.413-2.4c-.059-.215-.115-.419-.162-.607a3.8 3.8 0 0 1 .223-2.211c-.237-.373-.723-1.006-1.328-1.8-2.466-3.227-7.054-9.229-8.454-14.773a.141.141 0 0 1 .045-.138l4.656-4.018a.161.161 0 0 1 .118-.03.14.14 0 0 1 .1.082c.066.143 6.593 14.646 8.216 18.076a3.013 3.013 0 0 0 2.107 1.188 5.971 5.971 0 0 1 1.412.46 4.88 4.88 0 0 1 2.308 3.614c0 .913 0 3.007-1.008 3.2-.062 1.281-.22 1.863-.6 2.221.053 2.1-.249 2.527-.854 2.6zm-4.631-7.473c.261 0 .607.274 1.088.653.257.2.542.428.844.632.85.572 1.081 1.123 1.646 2.451.086.209.183.434.291.684a.143.143 0 0 1 .01.071 4.23 4.23 0 0 0 .6 2.6.271.271 0 0 0 .152.107v.138l.008-.138c.3-.035.674-.082.611-2.389a.129.129 0 0 1 .047-.107c.31-.256.5-.693.56-2.186a.134.134 0 0 1 .133-.127c.873-.031.873-2.221.873-2.94a4.633 4.633 0 0 0-2.156-3.369 5.726 5.726 0 0 0-1.354-.438 3.291 3.291 0 0 1-2.281-1.318c-1.54-3.251-7.418-16.3-8.155-17.937l-4.453 3.844c1.408 5.467 5.943 11.4 8.384 14.59.667.878 1.151 1.506 1.38 1.878a.145.145 0 0 1 .011.128 3.62 3.62 0 0 0-.237 2.1c.046.188.1.387.164.6a7.9 7.9 0 0 1 .419 2.491c-.017.27-.053.536-.083.766-.094.72-.128 1.1.2 1.2a.811.811 0 0 0 .814-.221 1.124 1.124 0 0 0 .288-.862c-.011-.3-.048-.669-.087-1.026-.1-.98-.152-1.588.072-1.792a.32.32 0 0 1 .212-.083z" class="prefix__cls-4" data-name="Path 11054" transform="translate(-8187.743 -9750.604)"/>
            </g>
            <g id="prefix__Group_4106" data-name="Group 4106" transform="translate(13.712 21.641)">
                <path id="prefix__Path_11055" d="M8219.087 9802.825s.351.28.853.72c.248.225.544.48.848.766.154.143.31.291.47.439l.128.127.106.128a1.233 1.233 0 0 1 .2.28c.06.1.117.209.169.312s.088.21.13.312c.094.209.141.418.213.623.117.4.19.791.254 1.117s.093.613.111.807.023.307.023.307-.026-.107-.078-.3-.125-.454-.207-.776-.2-.687-.334-1.081c-.074-.194-.137-.4-.227-.592-.045-.1-.086-.2-.128-.3l-.148-.271a1.121 1.121 0 0 0-.181-.266l-.1-.133-.108-.107c-.151-.152-.307-.307-.451-.454-.294-.295-.557-.587-.789-.827-.465-.488-.754-.831-.754-.831z" class="prefix__cls-4" data-name="Path 11055" transform="translate(-8219.087 -9801.62)"/>
                <path id="prefix__Path_11056" d="M8223.888 9801.085a6.473 6.473 0 0 1 .535.567 7.3 7.3 0 0 1 .474.637 9.111 9.111 0 0 1 .463.792 6.772 6.772 0 0 1 .352.853 5.011 5.011 0 0 1 .182.781c.01.123.016.229.022.322a2.067 2.067 0 0 1 0 .25c-.008.137-.015.209-.015.209s-.015-.076-.037-.209c-.014-.066-.02-.144-.046-.236s-.053-.193-.077-.3-.072-.229-.109-.352-.1-.25-.144-.383c-.109-.26-.229-.542-.371-.812-.27-.541-.581-1.066-.818-1.459s-.411-.66-.411-.66z" class="prefix__cls-4" data-name="Path 11056" transform="translate(-8221.787 -9800.642)"/>
                <path id="prefix__Path_11057" d="M8226.883 9800.071a1.047 1.047 0 0 1 .146.071 2.505 2.505 0 0 1 .354.235 2.854 2.854 0 0 1 .408.448c.062.092.133.185.2.281.049.107.1.215.152.316a2.618 2.618 0 0 1 .135.326c.031.113.058.225.088.332s.048.21.072.307.015.193.02.287c.018.352.011.581.011.581s-.076-.225-.165-.558l-.065-.264c-.024-.096-.068-.185-.1-.287s-.073-.2-.1-.306a2.607 2.607 0 0 0-.135-.3c-.047-.1-.091-.2-.136-.3l-.164-.271a1.8 1.8 0 0 0-.164-.256c-.057-.076-.109-.152-.157-.219a3.962 3.962 0 0 0-.273-.307c-.08-.076-.127-.116-.127-.116z" class="prefix__cls-4" data-name="Path 11057" transform="translate(-8223.473 -9800.071)"/>
            </g>
            <g id="prefix__Group_4107" class="prefix__cls-24" data-name="Group 4107" transform="translate(.137 .139)">
                <path id="prefix__Path_11058" d="M8206.466 9773.041c-.192.2-.547.148-1.01-.229 1.1 1.035.095 1.944-1.261.714 1.25 1.879.02 2.112-1.935.669a8.661 8.661 0 0 1 2.287 3.664c.455 1.425.356 3.752-.192 3.691s-.355-2.236-.615-2.945a6.324 6.324 0 0 0-1.618-2.588c-.937-.873-2.265-2.037-2.716-1.782s-.227 1.618-.13 2.946-.81 1.26-.776.291a6.446 6.446 0 0 0-.131-2.945 2.725 2.725 0 0 1 .131-2.521c.389-.613.354-.97-2.151-4.055-4.663-5.905-6.279-11.689-4.414-12.868s4.912 5.161 4.912 5.161l.1.041c-2.129-4.687-4.229-9.362-4.229-9.362l-4.659 4.019c1.765 7 8.736 14.854 9.8 16.584a3.722 3.722 0 0 0-.242 2.2 10.631 10.631 0 0 1 .577 3.042c-.059 1.037-.4 1.919.213 2.1s1.312-.275 1.28-1.22-.335-2.465-.062-2.71 1.034.582 1.978 1.22 1.1 1.246 1.89 3.073c-.153 1.066.426 2.926.911 2.863s.791-.367.73-2.525c.366-.308.547-.822.609-2.288.975-.025 1-2.067 1-3.073a3.213 3.213 0 0 0-.277-1.167z" class="prefix__cls-7" data-name="Path 11058" transform="translate(-8188.056 -9750.923)"/>
            </g>
        </g>
        <g id="prefix__Group_4109" data-name="Group 4109" transform="translate(17.932)">
            <path id="prefix__Path_11059" d="M8154.641 9726.76s.181 2.082-.633 2.266 3.035 5.479 3.035 5.479l3.622-6.248s-.814-.184-.814-.817v-1.312z" class="prefix__cls-3" data-name="Path 11059" transform="translate(-8153.76 -9725.987)"/>
            <path id="prefix__Path_11060" d="M8156.87 9734.463a.135.135 0 0 1-.112-.057c-.575-.791-3.432-4.783-3.15-5.522a.269.269 0 0 1 .2-.174c.568-.122.571-1.608.528-2.118a.136.136 0 0 1 .12-.148l5.207-.633a.139.139 0 0 1 .108.035.126.126 0 0 1 .046.1v1.313c0 .521.7.679.709.685a.123.123 0 0 1 .094.076.128.128 0 0 1-.007.122l-3.623 6.249a.14.14 0 0 1-.109.071zm-2.253-7.76c.027.506.056 2.1-.75 2.277-.2.306 1.373 2.849 2.991 5.094l3.43-5.921a1.006 1.006 0 0 1-.747-.894v-1.159z" class="prefix__cls-4" data-name="Path 11060" transform="translate(-8153.588 -9725.81)"/>
        </g>
        <path id="prefix__Path_11061" d="M8154.641 9726.76s.181 2.082-.633 2.266 3.035 5.479 3.035 5.479l3.622-6.248s-.814-.184-.814-.817v-1.312z" class="prefix__cls-25" data-name="Path 11061" transform="translate(-8135.828 -9725.987)"/>
        <path id="prefix__Path_11062" d="M8154.939 9728.766a6.563 6.563 0 0 0 4.465-.092 12.817 12.817 0 0 0 1.482-.567.767.767 0 0 1-.449-.668v-1.312l-5.21.634a4.074 4.074 0 0 1-.288 2.005z" class="prefix__cls-25" data-name="Path 11062" transform="translate(-8136.416 -9725.987)"/>
        <path id="prefix__Path_11063" d="M8157.41 9744.967c-.333 0-2-.051-2.2-.678-.087-.276.1-.576.583-.924a.16.16 0 0 1 .12-.021s.6.174 1.025.291a1.191 1.191 0 0 1 .92.734c.077.328-.226.527-.4.588a.079.079 0 0 1-.048.01zm-1.516-1.337c-.313.235-.47.444-.429.577.1.32 1.173.475 1.917.484.061-.025.234-.117.2-.255-.052-.225-.321-.424-.724-.536-.343-.1-.795-.224-.963-.27z" class="prefix__cls-15" data-name="Path 11063" transform="translate(-8136.555 -9735.671)"/>
        <g id="prefix__Group_4110" data-name="Group 4110" transform="translate(5.861 .894)">
            <path id="prefix__Path_11064" d="M8129.338 9740.91s-2.787-2.414-3.032-4.916a32.355 32.355 0 0 1 10.611-6.268c.285-1.062.86-.858 1.311-.776s.328.653.328.653 1.8 2.977 2.955 5.109c2.131-3.838 3.833-6.881 4.5-6.513a1.514 1.514 0 0 1 .791.852 45.412 45.412 0 0 1 6.515 2.313c3.045 1.4 6.271 5.293 6.271 5.293s-.062 2.863-5.055 5.723a36.088 36.088 0 0 1 .914 7.248s1.583 1.762-1.1 3.227-7.368 3.1-9.012 2.375-2.86-3.9-2.86-3.9-2.251 5.232-5.173 5.049-5.662-.424-6.027-2.8-.364-9.679-.364-11.689a8.111 8.111 0 0 1-1.573-.98z" class="prefix__cls-5" data-name="Path 11064" transform="translate(-8126.17 -9728.031)"/>
            <path id="prefix__Path_11065" d="M8137.285 9756.348a1.393 1.393 0 0 1-.158-.006c-2.7-.168-5.761-.356-6.154-2.914a106.649 106.649 0 0 1-.368-11.624 8.3 8.3 0 0 1-1.531-.964c-.118-.1-2.83-2.486-3.077-5.008a.131.131 0 0 1 .046-.117 32.523 32.523 0 0 1 10.586-6.273c.179-.6.476-.879.93-.879a2.174 2.174 0 0 1 .418.057l.1.021a.506.506 0 0 1 .349.219.811.811 0 0 1 .1.542c.22.361 1.747 2.9 2.813 4.849 2.208-3.972 3.609-6.4 4.385-6.4a.393.393 0 0 1 .186.046 1.792 1.792 0 0 1 .831.857 47.849 47.849 0 0 1 6.467 2.3c3.034 1.4 6.283 5.3 6.317 5.335a.143.143 0 0 1 .031.091c0 .117-.118 2.936-5.031 5.784a36.5 36.5 0 0 1 .891 7.132 2.041 2.041 0 0 1 .442 1.566 2.766 2.766 0 0 1-1.608 1.828c-2.315 1.266-5.941 2.572-8 2.572a2.8 2.8 0 0 1-1.126-.193c-1.394-.618-2.463-2.859-2.813-3.676-.526 1.107-2.491 4.855-5.026 4.855zm-11.012-20.475c.284 2.394 2.951 4.731 2.979 4.757a7.974 7.974 0 0 0 1.548.965.136.136 0 0 1 .079.123 107.956 107.956 0 0 0 .364 11.669c.334 2.17 2.655 2.481 5.9 2.686 2.8.174 5.021-4.922 5.042-4.973a.141.141 0 0 1 .128-.082.139.139 0 0 1 .126.088c.01.029 1.215 3.119 2.788 3.818a2.559 2.559 0 0 0 1.017.168c2.018 0 5.586-1.291 7.873-2.537a2.527 2.527 0 0 0 1.468-1.634 1.8 1.8 0 0 0-.408-1.378.135.135 0 0 1-.036-.092 36.059 36.059 0 0 0-.907-7.213.134.134 0 0 1 .066-.153c4.5-2.577 4.938-5.171 4.979-5.56-.36-.424-3.379-3.925-6.188-5.217a45.541 45.541 0 0 0-6.493-2.3.138.138 0 0 1-.1-.1 1.421 1.421 0 0 0-.726-.766.1.1 0 0 0-.053-.01c-.668 0-2.5 3.287-4.265 6.473a.148.148 0 0 1-.12.071.148.148 0 0 1-.12-.071c-1.144-2.1-2.936-5.074-2.953-5.105a.121.121 0 0 1-.016-.1.622.622 0 0 0-.049-.394.271.271 0 0 0-.171-.1l-.1-.021a2.284 2.284 0 0 0-.364-.045c-.241 0-.505.086-.685.745a.141.141 0 0 1-.091.1 32.158 32.158 0 0 0-10.512 6.188z" class="prefix__cls-6" data-name="Path 11065" transform="translate(-8125.996 -9727.853)"/>
        </g>
        <path id="prefix__Path_11066" d="M8186.176 9734.646c.275.117.553.234.822.361-.273-.132-.549-.249-.822-.361z" class="prefix__cls-17" data-name="Path 11066" transform="translate(-8153.987 -9730.78)"/>
        <path id="prefix__Path_11067" d="M8147.916 9730.359c.139-.639.412-1.052.914-.455a27.141 27.141 0 0 1 3.882 5.979 22.086 22.086 0 0 1 3.468-6.024c.733-.913 1.006-.184.822.5.625-.542 3.454-.512 6.3.644a47.441 47.441 0 0 0-5.692-1.951 1.514 1.514 0 0 0-.791-.852c-.672-.368-2.374 2.675-4.5 6.513-1.155-2.133-2.955-5.109-2.955-5.109s.122-.572-.328-.653-1.026-.286-1.311.776a19.929 19.929 0 0 0-2.207.842 12.146 12.146 0 0 1 2.398-.21z" class="prefix__cls-17" data-name="Path 11067" transform="translate(-8131.115 -9727.138)"/>
        <path id="prefix__Path_11068" d="M8159.592 9744.153s-.246-.29-.662-.745a5.509 5.509 0 0 1-3.484 3.262s-1.9-3.594-4.227-5.177c2.958 4.86 3.486 12.364 2.958 15.851.952-.107 1.269 1.48-3.275 3.063s-8.044 1.281-.911-2.2c-2.112.21-5.219 1.251-7.121-8.151-.1 6.232-2.324 11.307-4.755 12.042s-5.811-.735-5.495-1.267 2.431-.316 1.059-1.266-1.246-17.453-1.246-17.453c-.881.475-1.468 3.522-1.468 3.522s-.183-.99-.368-3.487a8.846 8.846 0 0 0-.254 3.375 2.034 2.034 0 0 1-.376 1.75 11.861 11.861 0 0 1-2.828-4.486c-.283.235-.564.471-.834.7.245 2.5 3.032 4.917 3.032 4.917a8.052 8.052 0 0 0 1.58.984c0 2.012 0 9.316.364 11.689s3.1 2.619 6.027 2.8 5.173-5.049 5.173-5.049 1.22 3.165 2.86 3.9 6.333-.914 9.012-2.373 1.1-3.227 1.1-3.227a36.115 36.115 0 0 0-.914-7.25c4.991-2.859 5.053-5.724 5.053-5.724z" class="prefix__cls-17" data-name="Path 11068" transform="translate(-8120.309 -9734.632)"/>
        <g id="prefix__Group_4113" data-name="Group 4113" transform="translate(10.036 7.567)" style="isolation:isolate;mix-blend-mode:multiply">
            <path id="prefix__Path_11069" d="M8161.061 9743.128a.3.3 0 0 1 .025.041c.019.026.042.065.072.117a4.078 4.078 0 0 1 .223.485l.141.357c.051.128.085.279.131.434s.1.316.142.49.077.362.117.556.085.394.128.6.064.429.095.653c.056.45.154.919.172 1.414l.108 1.521c.036.521.029 1.042.043 1.568l.016 3.088c.005.988-.026 1.9-.055 2.7-.017.393-.038.756-.072 1.077s-.075.6-.111.823a4.322 4.322 0 0 1-.14.52l-.065.178s.019-.065.049-.184a4.273 4.273 0 0 0 .1-.52c.024-.23.06-.506.065-.828l.017-1.072c.009-.785-.017-1.7-.027-2.684s-.036-2.037-.055-3.09c-.006-.52 0-1.045-.021-1.562s-.06-1.021-.089-1.511-.093-.959-.134-1.408c-.023-.225-.048-.439-.071-.648s-.068-.414-.1-.6-.063-.383-.094-.556-.081-.341-.116-.5-.07-.3-.1-.434-.087-.256-.118-.361a3.884 3.884 0 0 0-.19-.5.932.932 0 0 0-.059-.128z" class="prefix__cls-6" data-name="Path 11069" transform="translate(-8149.896 -9743.118)"/>
            <g id="prefix__Group_4112" data-name="Group 4112">
                <g id="prefix__Group_4111" data-name="Group 4111" transform="translate(0 .556)">
                    <path id="prefix__Path_11070" d="M8136.81 9751.217s-.014-.439.016-1.088c.017-.326.036-.709.073-1.111s.092-.844.148-1.272.146-.862.219-1.261c.034-.2.093-.393.138-.577s.095-.353.136-.511a3.567 3.567 0 0 1 .146-.424l.123-.32.111-.276s-.023.108-.061.3c-.02.092-.046.205-.076.332s-.069.271-.092.434-.058.332-.089.516-.072.373-.1.572c-.051.4-.136.826-.186 1.256-.123.857-.244 1.715-.34 2.357s-.166 1.073-.166 1.073z" class="prefix__cls-6" data-name="Path 11070" transform="translate(-8136.251 -9744.376)"/>
                    <path id="prefix__Path_11071" d="M8135.563 9744.795l.132.67c.079.403.169.929.263 1.46.053.265.1.525.154.776s.111.469.155.668c.114.388.178.658.178.658s-.14-.234-.328-.607c-.077-.187-.156-.418-.237-.663s-.13-.516-.19-.782c-.04-.27-.091-.54-.109-.795s-.04-.5-.04-.7a5.818 5.818 0 0 1 .022-.685z" class="prefix__cls-6" data-name="Path 11071" transform="translate(-8135.539 -9744.611)"/>
                </g>
                <path id="prefix__Path_11072" d="M8185.11 9743.105s.255.439.571 1.133c.159.347.335.755.516 1.194s.353.919.506 1.4c.075.245.152.491.228.726s.135.479.2.709c.111.46.224.889.29 1.267.134.75.2 1.25.2 1.25s-.152-.484-.348-1.215c-.091-.368-.246-.781-.373-1.235s-.3-.93-.453-1.414-.326-.949-.47-1.4c-.163-.444-.3-.863-.433-1.22-.263-.715-.434-1.195-.434-1.195z" class="prefix__cls-6" data-name="Path 11072" transform="translate(-8163.424 -9743.105)"/>
            </g>
        </g>
        <g id="prefix__Group_4116" data-name="Group 4116" transform="translate(20.053 14.651)">
            <g id="prefix__Group_4114" data-name="Group 4114" transform="translate(.046 5.202)">
                <path id="prefix__Path_11073" d="M8160.137 9772.148a.64.64 0 1 1-.641-.644.641.641 0 0 1 .641.644z" class="prefix__cls-11" data-name="Path 11073" transform="translate(-8158.718 -9771.368)"/>
                <path id="prefix__Path_11074" d="M8159.318 9772.748a.778.778 0 1 1 .775-.776.778.778 0 0 1-.775.776zm0-1.281a.5.5 0 1 0 .5.5.5.5 0 0 0-.5-.5z" class="prefix__cls-12" data-name="Path 11074" transform="translate(-8158.541 -9771.191)"/>
            </g>
            <g id="prefix__Group_4115" data-name="Group 4115">
                <path id="prefix__Path_11075" d="M8160.03 9760.254a.64.64 0 1 1-.639-.638.641.641 0 0 1 .639.638z" class="prefix__cls-11" data-name="Path 11075" transform="translate(-8158.613 -9759.478)"/>
                <path id="prefix__Path_11076" d="M8159.213 9760.852a.776.776 0 1 1 .779-.775.778.778 0 0 1-.779.775zm0-1.281a.506.506 0 1 0 .5.506.507.507 0 0 0-.5-.507z" class="prefix__cls-12" data-name="Path 11076" transform="translate(-8158.435 -9759.3)"/>
            </g>
        </g>
        <g id="prefix__Group_4117" data-name="Group 4117" transform="translate(1.615 5.841)">
            <path id="prefix__Path_11077" d="M8121.12 9743.387s-6.391 5.6-4.017 11.139c.853 1.343 7.792.552 12.174-5.6 1.1.669 2.478-.275 3.375-1.638 0 0 .022.816 1.066.816s1.388-1.317 1.413-2.011c.474.173.795-1.119.672-1.486.521.047.294-2.256-.621-2.41a10.894 10.894 0 0 0-1.8-.121s.854-.879 1.155-1.215a6.247 6.247 0 0 0 2.589.244c.914.73 2.315.791 2.5.271s-1.187-1.276-2.284-1.553a8.84 8.84 0 0 0-3.744-.215 7.917 7.917 0 0 0-4.139 3.5 9.247 9.247 0 0 0-1.13 2.8s-4.344 1.316-4.469 1.357a10.067 10.067 0 0 1-2.74-3.878z" class="prefix__cls-3" data-name="Path 11077" transform="translate(-8116.45 -9739.34)"/>
            <path id="prefix__Path_11078" d="M8118.713 9755.042c-.962 0-1.634-.22-1.885-.618-2.4-5.589 3.977-11.262 4.041-11.316a.157.157 0 0 1 .134-.031.151.151 0 0 1 .092.107 9.772 9.772 0 0 0 2.647 3.756c.559-.173 3.755-1.143 4.313-1.311a9.5 9.5 0 0 1 1.127-2.768 8.074 8.074 0 0 1 4.206-3.558 3.22 3.22 0 0 1 1.089-.143 12.7 12.7 0 0 1 2.741.353 4.279 4.279 0 0 1 2.33 1.326.5.5 0 0 1 .049.4c-.1.275-.429.434-.915.434a3.038 3.038 0 0 1-1.757-.613c-.16.016-.437.031-.767.031a4.715 4.715 0 0 1-1.742-.25c-.224.244-.621.658-.868.914a10.223 10.223 0 0 1 1.5.127c.76.127 1.056 1.425 1 2.082-.028.354-.137.5-.245.563a2.248 2.248 0 0 1-.34 1.286.521.521 0 0 1-.362.25c-.072.854-.518 2-1.542 2a1.1 1.1 0 0 1-1.126-.633 3.494 3.494 0 0 1-2.534 1.675 1.605 1.605 0 0 1-.74-.18c-3.044 4.202-7.539 6.117-10.446 6.117zm2.175-11.583c-.972.924-5.916 5.947-3.82 10.837.187.286.8.47 1.646.47 2.862 0 7.306-1.908 10.294-6.094a.134.134 0 0 1 .182-.042 1.331 1.331 0 0 0 .709.2 3.434 3.434 0 0 0 2.478-1.8.133.133 0 0 1 .152-.056.13.13 0 0 1 .1.127c0 .072.054.684.932.684.993 0 1.258-1.352 1.278-1.877a.141.141 0 0 1 .06-.108.135.135 0 0 1 .125-.015c.093.035.176-.066.219-.128a1.9 1.9 0 0 0 .273-1.189.137.137 0 0 1 .022-.128.141.141 0 0 1 .121-.051c.026 0 .1-.082.117-.342.056-.658-.245-1.705-.773-1.791a10.24 10.24 0 0 0-1.769-.123.131.131 0 0 1-.13-.082.129.129 0 0 1 .027-.148c.006-.01.853-.888 1.153-1.215a.137.137 0 0 1 .161-.029 4.256 4.256 0 0 0 1.716.26c.372 0 .684-.021.8-.031a.112.112 0 0 1 .1.031 2.735 2.735 0 0 0 1.625.581c.351 0 .6-.1.653-.249a.208.208 0 0 0-.031-.184 4.089 4.089 0 0 0-2.153-1.189 12.37 12.37 0 0 0-2.674-.344 3.111 3.111 0 0 0-.988.123 7.735 7.735 0 0 0-4.072 3.445 9.081 9.081 0 0 0-1.108 2.757.131.131 0 0 1-.1.1c-.042.016-4.345 1.322-4.468 1.363a.139.139 0 0 1-.139-.036 11.43 11.43 0 0 1-2.718-3.727z" class="prefix__cls-4" data-name="Path 11078" transform="translate(-8116.289 -9739.161)"/>
        </g>
        <g id="prefix__Group_4119" data-name="Group 4119" transform="translate(3.136 8.474)">
            <path id="prefix__Path_11079" d="M8125.659 9757.294s-.107.041-.3.1-.451.169-.771.286-.677.275-1.059.459c-.193.082-.384.185-.581.286s-.391.215-.587.321-.381.235-.564.358-.361.244-.521.383-.323.255-.46.388-.27.26-.379.383-.207.251-.3.352a3.322 3.322 0 0 0-.2.292c-.112.168-.176.26-.176.26s.044-.1.13-.286a3.12 3.12 0 0 1 .163-.322c.077-.115.16-.249.262-.393s.232-.275.358-.429a6.132 6.132 0 0 1 .447-.433c.161-.145.342-.276.523-.414s.379-.256.576-.373.4-.229.6-.322.407-.193.6-.27a11.18 11.18 0 0 1 1.109-.388 8.374 8.374 0 0 1 1.13-.238z" class="prefix__cls-4" data-name="Path 11079" transform="translate(-8119.767 -9751.995)"/>
            <g id="prefix__Group_4118" data-name="Group 4118" transform="translate(14.122)">
                <path id="prefix__Path_11080" d="M8153.463 9745.294a1.206 1.206 0 0 1-.221.081c-.067.02-.147.03-.228.047a2.012 2.012 0 0 1-.252.045 1.886 1.886 0 0 1-.483 0 .126.126 0 1 1-.021-.158 2.225 2.225 0 0 1 .489-.112c.092-.006.181-.011.265-.011a1.382 1.382 0 0 1 .231.036 1.433 1.433 0 0 1 .22.072z" class="prefix__cls-4" data-name="Path 11080" transform="translate(-8152.047 -9745.181)"/>
                <path id="prefix__Path_11081" d="M8156.374 9750.249a.673.673 0 0 0-.067-.138.592.592 0 0 0-.093-.137.694.694 0 0 0-.16-.129.316.316 0 0 0-.1-.041c-.039 0-.071-.029-.114-.021a1.066 1.066 0 0 0-.126 0h-.803c-.222 0-.443-.015-.647-.03s-.4-.046-.571-.071c-.328-.052-.548-.106-.548-.106s.226-.031.554-.052.77-.021 1.213-.015c.222.01.441.02.651.035.048.006.1.006.147.01a1.509 1.509 0 0 0 .165.025.519.519 0 0 1 .153.057.337.337 0 0 1 .12.082.634.634 0 0 1 .151.2.7.7 0 0 1 .062.173.482.482 0 0 1 .013.158z" class="prefix__cls-4" data-name="Path 11081" transform="translate(-8152.664 -9747.615)"/>
                <path id="prefix__Path_11082" d="M8156.141 9753.585a.915.915 0 0 0-.027-.107.615.615 0 0 0-.131-.24.526.526 0 0 0-.132-.091c-.026-.011-.053-.026-.079-.037l-.094-.015a.329.329 0 0 0-.1-.011h-.115c-.082 0-.164 0-.246-.01-.323-.01-.651-.061-.891-.086s-.407-.077-.407-.077.164-.041.413-.082a5.141 5.141 0 0 1 .9-.024l.243.014.119.011a.921.921 0 0 1 .133.03.705.705 0 0 1 .122.047.808.808 0 0 1 .109.071.512.512 0 0 1 .149.179.588.588 0 0 1 .052.316.313.313 0 0 1-.018.112z" class="prefix__cls-4" data-name="Path 11082" transform="translate(-8153.102 -9749.465)"/>
                <path id="prefix__Path_11083" d="M8155.187 9755.771s-.125.052-.3.112-.418.139-.642.215a2.256 2.256 0 0 0-.315.138.864.864 0 0 0-.23.163.348.348 0 0 0-.069.092.209.209 0 0 0-.036.082c-.015.057-.025.086-.025.086a.482.482 0 0 1-.028-.086.254.254 0 0 1-.008-.107.358.358 0 0 1 .03-.148.541.541 0 0 1 .092-.152.7.7 0 0 1 .14-.133 1.481 1.481 0 0 1 .356-.189 2.118 2.118 0 0 1 .713-.111 1.445 1.445 0 0 1 .322.038z" class="prefix__cls-4" data-name="Path 11083" transform="translate(-8152.879 -9751.114)"/>
            </g>
        </g>
        <g id="prefix__Group_4120" class="prefix__cls-24" data-name="Group 4120" transform="translate(1.741 5.98)">
            <path id="prefix__Path_11084" d="M8137.346 9739.824a8.84 8.84 0 0 0-3.744-.215 7.917 7.917 0 0 0-4.139 3.5 9.247 9.247 0 0 0-1.13 2.8s-4.344 1.316-4.469 1.357a10.067 10.067 0 0 1-2.743-3.886 17.249 17.249 0 0 0-3.136 3.886l.152-.052s1.889-2.557 3.105-1.582-2.008 2.313-3.045 4.992c2.558-2.373 5.176-2.68 7.3-3.1s3.229-.791 3.594-2.25a8.029 8.029 0 0 1 3.568-4.7 5.159 5.159 0 0 1 4.229-.49c1.763.408 2.2.73 2.116.949s-.949.164-1.654-.3c-.705-.271-1.572.112-2.685-.215-.517-.138-1.056.976-2.25 1.629 1.246.133 2.385.158 2.467.837s-.7.517-2.522.843c1.871.162 2.279.46 2.252.949-.055.327-.541.245-2.006.541 1.246.025 1.707.326 1.682.705s-1.195.57-2.008.653c-.542.05-1.3 2.6-3.364 1.434-1.923 2.389-5.777 6.05-9.383 5.912-2.148-.093-2.968-.868-2.739-3.472a.879.879 0 0 1-.093.025 6.694 6.694 0 0 0 .4 3.945c.853 1.343 7.792.552 12.174-5.6 1.1.669 2.478-.275 3.375-1.638 0 0 .022.816 1.066.816s1.388-1.317 1.413-2.011c.474.173.795-1.119.672-1.486.521.047.294-2.256-.621-2.41a10.894 10.894 0 0 0-1.8-.121s.854-.879 1.155-1.215a6.247 6.247 0 0 0 2.589.244c.914.73 2.315.791 2.5.271s-1.182-1.269-2.278-1.545z" class="prefix__cls-18" data-name="Path 11084" transform="translate(-8116.578 -9739.479)"/>
        </g>
        <path id="prefix__Path_11085" d="M8128.308 9757.955a43.1 43.1 0 0 0-5.111 1.209 9.522 9.522 0 0 0-3.5 2.635c-.021.025-.011.062.02.031a10.3 10.3 0 0 1 4.367-2.8 23 23 0 0 1 2.486-.572 8.038 8.038 0 0 0 1.715-.338c.047-.02.115-.19.023-.165z" class="prefix__cls-27" data-name="Path 11085" transform="translate(-8116.584 -9743.891)"/>
        <path id="prefix__Path_11086" d="M8149.036 9741.988a10.248 10.248 0 0 0-2.625 2.367 4.4 4.4 0 0 0-.605 1.216c-.205.531-.186 1.435-.572 1.868-.027.031-.022.112.022.066.514-.506.505-1.511.767-2.16a7.834 7.834 0 0 1 3.026-3.185c.058-.039.098-.244-.013-.172z" class="prefix__cls-27" data-name="Path 11086" transform="translate(-8130.947 -9734.901)"/>
        <g id="prefix__Group_4121" data-name="Group 4121" transform="translate(2.274 34.288)" style="mix-blend-mode:color-dodge;isolation:isolate" opacity="0.5">
            <path id="prefix__Path_11087" d="M8180.688 9807.775c-.761 2.4 3.63 16.719 5.642 23.027 3.826-.413 4.626-1.551 5.935-3.354a7.906 7.906 0 0 1 .776-.93c-6.028-8.706-11.517-21.366-12.353-18.743z" class="prefix__cls-29" data-name="Path 11087" transform="translate(-8153.125 -9806.009)"/>
            <path id="prefix__Path_11088" d="M8125.952 9805.289c-2.225 1.8-6.289 12.154-8.155 17.142a5.723 5.723 0 0 1 4.985 1.558c.264.239.521.469.774.7.512-10.814 5.112-21.6 2.396-19.4z" class="prefix__cls-29" data-name="Path 11088" transform="translate(-8117.797 -9804.646)"/>
            <path id="prefix__Path_11089" d="M8146.159 9804.689c-3.013 3.736-5.564 16.141-6.694 22.374 2.032 1.087 4.348 1.388 8.016.394 4.61-1.252 7.32.295 10.392 1.158-5.573-10.939-8.761-27.525-11.714-23.926z" class="prefix__cls-29" data-name="Path 11089" transform="translate(-8129.986 -9804.188)"/>
            <path id="prefix__Path_11090" d="M8198.416 9809.766c-.62.93 4.512 11.088 7.292 16.438.547-.179 1.151-.326 1.846-.479.053-.016.1-.026.155-.037-3.058-6.034-8.684-16.84-9.293-15.922z" class="prefix__cls-29" data-name="Path 11090" transform="translate(-8163.118 -9807.295)"/>
        </g>
        <g id="prefix__Group_4122" data-name="Group 4122" transform="translate(40.057 18.247)" style="mix-blend-mode:screen;isolation:isolate" opacity="0.6">
            <path id="prefix__Path_11091" d="M8209.848 9779.263a60.206 60.206 0 0 0-5.539-11.726c-.044-.076-.176.1-.141.168a123.664 123.664 0 0 1 5.435 11.8c.049.136.275-.14.245-.242z" class="prefix__cls-31" data-name="Path 11091" transform="translate(-8204.162 -9767.519)"/>
            <path id="prefix__Path_11092" d="M8223.3 9797.333a4.893 4.893 0 0 0-1.833-1.347 5.512 5.512 0 0 0-2.435-.21c-.047 0-.12.143-.053.153a15.814 15.814 0 0 1 2.075.25 5.763 5.763 0 0 1 2.088 1.367c.076.063.215-.151.158-.213z" class="prefix__cls-31" data-name="Path 11092" transform="translate(-8212.48 -9783.389)"/>
        </g>
        <g id="prefix__Group_4123" class="prefix__cls-19" data-name="Group 4123" transform="translate(2.926 79.201)">
            <path id="prefix__Path_11093" d="M8129.772 9909.474c-6.691.731-9.406-.99-10.425-2.062a2.457 2.457 0 0 0-.045.8c1.307.93 4.654 2.548 11.407 1.645 2.307-.388 3-.1 3.166.633a18 18 0 0 0 4.844-1.541c1.16-.582 1.589-.751 1.6-2.1-1.469.772-4.485 1.875-10.547 2.625z" class="prefix__cls-8" data-name="Path 11093" transform="translate(-8119.287 -9906.851)"/>
        </g>
    </g>
    <g id="prefix__Group_4125" data-name="Group 4125" transform="translate(3.566 49.731)">
        <path id="prefix__Path_11094" d="M8133.941 9845.063c-5.321.627-7.786-5.575-13.011-5.575-.113 0-.262.062-.128.067 5.1.285 7.746 6.967 13.017 6 .181-.034.401-.524.122-.492z" class="prefix__cls-29" data-name="Path 11094" transform="translate(-8120.749 -9839.487)"/>
        <path id="prefix__Path_11095" d="M8158.886 9849.576a6.244 6.244 0 0 0-4.956.547c-.063.035-.125.229-.009.173a8.388 8.388 0 0 1 4.829-.458c.091.01.233-.231.136-.262z" class="prefix__cls-29" data-name="Path 11095" transform="translate(-8139.372 -9844.998)"/>
    </g>
</svg>
