<svg xmlns="http://www.w3.org/2000/svg" width="50.643" height="82.625" viewBox="0 0 50.643 82.625">
    <defs>
        <style>
            .prefix__cls-1{fill:#fddac1}.prefix__cls-2{fill:#b17757}.prefix__cls-3{opacity:.7}.prefix__cls-12,.prefix__cls-13,.prefix__cls-3{mix-blend-mode:multiply}.prefix__cls-12,.prefix__cls-13,.prefix__cls-15,.prefix__cls-21,.prefix__cls-27,.prefix__cls-3,.prefix__cls-7{isolation:isolate}.prefix__cls-4{fill:#ecc5aa}.prefix__cls-15,.prefix__cls-21,.prefix__cls-27{mix-blend-mode:screen}.prefix__cls-21,.prefix__cls-7{fill:#fff}.prefix__cls-7{opacity:.2;mix-blend-mode:overlay}.prefix__cls-8{fill:#efefef}.prefix__cls-9{fill:#aba9a5}.prefix__cls-10{fill:#2c4554}.prefix__cls-11{fill:#16181a}.prefix__cls-12,.prefix__cls-21{opacity:.4}.prefix__cls-14{fill:#c6c7ce}.prefix__cls-15{fill:#554033;opacity:.5}.prefix__cls-16{fill:#f9a22d}.prefix__cls-17{fill:#ce7328}.prefix__cls-18{fill:#926427}.prefix__cls-23{fill:#8c5127}.prefix__cls-25,.prefix__cls-27{fill:#4395ba}.prefix__cls-26{fill:#386e85}.prefix__cls-27{opacity:.8}
        </style>
    </defs>
    <g id="prefix__Group_4233" data-name="Group 4233">
        <g id="prefix__Group_4130" data-name="Group 4130" transform="translate(15.379 8.418)">
            <g id="prefix__Group_4128" data-name="Group 4128">
                <path id="prefix__Path_11096" d="M8364.676 9733.264c1.153 1.1 4.316 1.369 4.316 1.369l.691 2.833.955-2.8a15.88 15.88 0 0 0 3.807-.676 4.939 4.939 0 0 0 2.324-2.468l-.332-.152s-2.042-1.055-3.624-1.645l-.123-1.072a23.413 23.413 0 0 1-2.866.446 14.482 14.482 0 0 1-2.512 0v.744l-2.9.964-.595.265a2.348 2.348 0 0 0 .859 2.192z" class="prefix__cls-1" data-name="Path 11096" transform="translate(-8363.677 -9728.612)"/>
                <g id="prefix__Group_4127" data-name="Group 4127">
                    <path id="prefix__Path_11097" d="M8364.43 9733.225c1.083.991 2.862 1.229 4.27 1.378.148.013.055.023.041-.019.017.06.03.113.046.173.075.323.154.643.233.963.137.563.274 1.131.412 1.694.014.05.174.044.191 0l.716-2.1.162-.474c.054-.159.125-.2-.008-.188.351-.022.7-.059 1.055-.095a7.563 7.563 0 0 0 3.59-1.031 5.091 5.091 0 0 0 1.569-2.055.018.018 0 0 0-.013-.026c-.732-.333-1.446-.712-2.178-1.05-.277-.126-.557-.247-.836-.37-.128-.053-.919-.292-.93-.4-.038-.348-.079-.69-.119-1.031 0-.046-.1-.036-.124-.032a18.473 18.473 0 0 1-5.326.447c-.027 0-.121 0-.121.044v.369c0 .087-.04.369.042.338-.2.067-.394.135-.592.2-.681.226-1.356.45-2.037.68-.2.063-.864.226-.906.393a2.493 2.493 0 0 0 .862 2.2c.041.041.217 0 .186-.032a2.553 2.553 0 0 1-.87-2.1c.022-.153.514-.288.729-.36.912-.307 1.823-.607 2.735-.91.014 0 .045-.013.045-.035v-.744c-.04.015-.082.027-.121.04a18.747 18.747 0 0 0 5.431-.449c-.042-.014-.083-.022-.126-.032l.126 1.073c0 .013.02.022.027.025a36.441 36.441 0 0 1 3.334 1.5 3.1 3.1 0 0 0 .594.262 5.344 5.344 0 0 1-.37.688 5.412 5.412 0 0 1-.985 1.188 4.153 4.153 0 0 1-1.847.837 15.185 15.185 0 0 1-2.833.393c-.023 0-.083.01-.093.036q-.476 1.4-.956 2.8c.063.006.125.006.191.006-.233-.947-.462-1.893-.692-2.834-.009-.031-.049-.031-.072-.036-1.389-.117-3.184-.369-4.246-1.343-.047-.053-.216-.014-.186.019z" class="prefix__cls-2" data-name="Path 11097" transform="translate(-8363.521 -9728.555)"/>
                </g>
            </g>
            <g id="prefix__Group_4129" class="prefix__cls-3" data-name="Group 4129" transform="translate(.109 .04)">
                <path id="prefix__Path_11098" d="M8376.438 9731.368s-2.042-1.055-3.624-1.645l-.123-1.072a23.413 23.413 0 0 1-2.866.446 14.482 14.482 0 0 1-2.512 0v.744l-2.9.964-.595.265a2.348 2.348 0 0 0 .855 2.19c1.153 1.1 4.316 1.369 4.316 1.369l.691 2.833.955-2.8a15.88 15.88 0 0 0 3.807-.676 4.939 4.939 0 0 0 2.324-2.468zm-3 1.688c-1.516.8-5.161.7-6.282.405-2.072-.539-2.812-1.48-2.613-2.093.291-.893 3.03-.937 3.1-1.446s-.332-.693 1.371-.527 2.842-.572 2.975.212.7.55 1.993 1.054.974 1.599-.542 2.395z" class="prefix__cls-4" data-name="Path 11098" transform="translate(-8363.786 -9728.651)"/>
            </g>
            <path id="prefix__Path_11099" fill="#f9cda7" d="M8367.177 9734.66a8.15 8.15 0 0 0 5.9 1.117c3.362-.514-.048 1.661-4.085.765-2.747-.604-2.719-2.419-1.815-1.882z" data-name="Path 11099" transform="translate(-8365.355 -9732.098)" style="mix-blend-mode:screen;isolation:isolate" opacity="0.7"/>
        </g>
        <g id="prefix__Group_4134" data-name="Group 4134" transform="translate(14.625 57.809)">
            <path id="prefix__Path_11100" fill="#fddac1" stroke="#b17757" stroke-miterlimit="10" d="M8365.392 9858.559c-1.031-4.855 2.019-3.009 3.184.22 1.535 4.271-1.131 8.779-1.842 5.631-.56-2.477-.973-4.104-1.342-5.851z" data-name="Path 11100" transform="translate(-8363.746 -9852.862)"/>
            <g id="prefix__Group_4132" data-name="Group 4132">
                <path id="prefix__Path_11101" d="M8366.638 9864.8c.61.793 1.132.279 2.174-.549a3 3 0 0 1 2.571-.884s-.66-3.837-.824-5.981c-.131-1.693-.077-4.747-.324-6.971-.437-.014-.883-.033-1.345-.068a29.39 29.39 0 0 1-6.975-1.307c.464 1.928 1.527 6.354 2.1 9.086.749 3.557 1.143 5.971 1.143 5.971a1.773 1.773 0 0 1 1.48.703z" class="prefix__cls-1" data-name="Path 11101" transform="translate(-8361.819 -9849)"/>
                <g id="prefix__Group_4131" data-name="Group 4131">
                    <path id="prefix__Path_11102" d="M8366.407 9864.743c.478.575.991.485 1.567.084.984-.68 1.92-1.729 3.238-1.485.019 0 .136.019.127-.022-.293-1.721-.559-3.446-.747-5.184-.279-2.582-.123-5.188-.4-7.769 0-.046-.086-.051-.117-.051a29.642 29.642 0 0 1-8.246-1.36c-.025-.009-.158-.031-.145.027 1.2 4.986 2.409 9.984 3.238 15.047.009.05.1.05.142.046a1.664 1.664 0 0 1 1.344.667c.036.044.212.031.186 0a1.951 1.951 0 0 0-1.62-.744 1.448 1.448 0 0 0 .143.05c-.834-5.066-2.04-10.075-3.245-15.065-.048.01-.1.018-.146.031a30.346 30.346 0 0 0 8.4 1.383l-.119-.054c.274 2.545.128 5.111.387 7.651.18 1.775.462 3.545.762 5.307l.127-.027a2.735 2.735 0 0 0-1.626.216 5.5 5.5 0 0 0-1.211.8c-.522.419-1.247 1.176-1.846.456-.042-.047-.218-.037-.193-.004z" class="prefix__cls-2" data-name="Path 11102" transform="translate(-8361.683 -9848.944)"/>
                </g>
            </g>
            <g id="prefix__Group_4133" class="prefix__cls-3" data-name="Group 4133" transform="translate(.095 .038)">
                <path id="prefix__Path_11103" d="M8370.559 9857.384c-.131-1.693-.077-4.747-.324-6.971-.437-.014-.883-.033-1.345-.068a29.39 29.39 0 0 1-6.975-1.307l.333 1.4c1.528-1.1 5.606.843 6.642 5.09 1.122 4.6-1.687 9.076-3.978 7.18.16.883.244 1.387.244 1.387a1.773 1.773 0 0 1 1.481.7c.61.793 1.132.279 2.174-.549a3 3 0 0 1 2.571-.884s-.659-3.834-.823-5.978z" class="prefix__cls-4" data-name="Path 11103" transform="translate(-8361.915 -9849.038)"/>
            </g>
            <path id="prefix__Path_11104" d="M8365.392 9858.559c-1.031-4.855 2.019-3.009 3.184.22 1.535 4.271-1.131 8.779-1.842 5.631-.56-2.477-.973-4.104-1.342-5.851z" class="prefix__cls-7" data-name="Path 11104" transform="translate(-8363.746 -9852.862)"/>
        </g>
        <g id="prefix__Group_4138" data-name="Group 4138" transform="translate(28.414 55.867)">
            <g id="prefix__Group_4136" data-name="Group 4136">
                <path id="prefix__Path_11105" d="M8401.659 9860.347a4 4 0 0 0 2.163-1.1 81.661 81.661 0 0 0-1.734-14.931 16.863 16.863 0 0 1-6.558 2.829c.4 1.5 1.09 3.99 1.739 5.742.985 2.666 2.207 7.017 2.207 7.017a2.823 2.823 0 0 0 2.183.443z" class="prefix__cls-1" data-name="Path 11105" transform="translate(-8395.434 -9844.274)"/>
                <g id="prefix__Group_4135" data-name="Group 4135">
                    <path id="prefix__Path_11106" d="M8401.565 9860.321a4.256 4.256 0 0 0 2-.919c.189-.161.221-.176.217-.4-.031-1.05-.087-2.1-.15-3.144a65.1 65.1 0 0 0-1.585-11.6c-.014-.053-.139-.059-.177-.031a16.942 16.942 0 0 1-6.521 2.819c-.01 0-.055.01-.051.027.439 1.661.908 3.315 1.456 4.945.52 1.545 1.073 3.076 1.551 4.639.319 1.036.628 2.082.923 3.126.055.188.372.283.527.352a3.386 3.386 0 0 0 1.815.185c.126-.019-.036-.081-.09-.072a2.986 2.986 0 0 1-1.811-.267c-.14-.071-.226-.1-.262-.233-.157-.559-.322-1.117-.486-1.675-.589-2-1.254-3.96-1.932-5.923-.388-1.122-.724-2.261-1.046-3.4-.144-.519-.285-1.032-.422-1.55a8.282 8.282 0 0 1 1.769-.567 15.812 15.812 0 0 0 4.742-2.355c-.058-.009-.118-.019-.179-.032a64.4 64.4 0 0 1 1.554 11.148q.114 1.682.17 3.362c.006.108.059.37-.013.441a3.917 3.917 0 0 1-2.085 1.051c-.13.024.031.082.086.073z" class="prefix__cls-2" data-name="Path 11106" transform="translate(-8395.293 -9844.213)"/>
                </g>
            </g>
            <g id="prefix__Group_4137" class="prefix__cls-3" data-name="Group 4137" transform="translate(.097 .043)">
                <path id="prefix__Path_11107" d="M8402.088 9844.317a16.863 16.863 0 0 1-6.558 2.829c.112.423.247.927.4 1.473 1.145-2.01 4.392-2.288 5.607 2.238 1.405 5.211-.347 8.579-2.165 8.687l.1.361a2.823 2.823 0 0 0 2.183.441 4 4 0 0 0 2.163-1.1 81.661 81.661 0 0 0-1.73-14.929z" class="prefix__cls-4" data-name="Path 11107" transform="translate(-8395.53 -9844.317)"/>
            </g>
            <path id="prefix__Path_11108" d="M8399.031 9858.879c-1.273-3.932 1.864-2.59 3.188 0 1.752 3.418-.68 7.277-1.551 4.729-.685-2.008-1.179-3.319-1.637-4.729z" class="prefix__cls-7" data-name="Path 11108" transform="translate(-8397.322 -9851.404)"/>
        </g>
        <g id="prefix__Group_4148" data-name="Group 4148" transform="translate(29.491 70.793)">
            <g id="prefix__Group_4143" data-name="Group 4143">
                <g id="prefix__Group_4140" data-name="Group 4140" transform="translate(.293 8.536)">
                    <path id="prefix__Path_11109" d="M8404.345 9903.665c-5.27.5-5.47-1.667-5.47-1.667a2.13 2.13 0 0 0 .957 1.9 10.1 10.1 0 0 0 5.947.641c2.09-.459 3.64-1.365 3.59-3.031 0-.008-.653 1.747-5.024 2.157z" class="prefix__cls-8" data-name="Path 11109" transform="translate(-8398.775 -9901.461)"/>
                    <g id="prefix__Group_4139" data-name="Group 4139">
                        <path id="prefix__Path_11110" d="M8404.225 9903.564c-1.5.135-3.4.247-4.711-.681a1.524 1.524 0 0 1-.682-.959c-.007-.055-.187-.031-.191.027-.162 2.418 3.175 2.72 4.893 2.743 2.025.026 5.812-.576 5.791-3.267 0-.054-.171-.022-.189.02a2.192 2.192 0 0 1-.792.868 8.494 8.494 0 0 1-4.145 1.253c-.112.009-.1.085.013.077a9.274 9.274 0 0 0 4.157-1.218 2.4 2.4 0 0 0 .956-.986c-.064.006-.126.01-.189.019.019 2.7-3.838 3.225-5.841 3.144-1.653-.062-4.613-.414-4.462-2.68l-.191.027a1.658 1.658 0 0 0 .8 1.055c1.318.892 3.251.773 4.745.64.08-.005.168-.091.038-.082z" class="prefix__cls-9" data-name="Path 11110" transform="translate(-8398.635 -9901.4)"/>
                    </g>
                </g>
                <g id="prefix__Group_4142" data-name="Group 4142">
                    <path id="prefix__Path_11111" d="M8409.07 9887.13c-.264-1.136-1.746-2.288-2.242-3.491s-.61-2.044-1.137-2.044c0 0 .394-.937-.33-.888a3.994 3.994 0 0 1-2.163 1.1 2.822 2.822 0 0 1-2.184-.44s-.694 0-.313.644a.936.936 0 0 0-.529.689c-.063.5.2.693-.279 1.612s-1.184 2.156-1.513 3.031a2.7 2.7 0 0 0 .063 2.391s.2 2.167 5.47 1.667c4.371-.41 5.024-2.162 5.024-2.162a3.825 3.825 0 0 0 .133-2.109z" class="prefix__cls-10" data-name="Path 11111" transform="translate(-8398.049 -9880.659)"/>
                    <g id="prefix__Group_4141" data-name="Group 4141">
                        <path id="prefix__Path_11112" d="M8409.032 9887.087c-.351-1.315-1.6-2.177-2.188-3.374-.274-.562-.388-1.2-.686-1.747a.762.762 0 0 0-.63-.482 1.1 1.1 0 0 0 .127.077c.135-.33.207-.874-.264-.956-.232-.036-.249.011-.408.154a4.107 4.107 0 0 1-1.256.737 3.315 3.315 0 0 1-2.158.1c-.248-.076-.44-.257-.673-.339a.572.572 0 0 0-.37.059c-.321.15.021.542-.123.627a.925.925 0 0 0-.462.829 2.733 2.733 0 0 1-.19 1.283c-.5 1.135-1.23 2.157-1.645 3.333a3.429 3.429 0 0 0-.149 1.622c.039.252.23.445.272.665a1.359 1.359 0 0 0 .277.56 3.482 3.482 0 0 0 2.135 1.076 12.405 12.405 0 0 0 5.439-.324 4.977 4.977 0 0 0 2.607-1.454 3.078 3.078 0 0 0 .344-2.45c-.014-.056-.194-.1-.184-.045a2.7 2.7 0 0 1-.787 2.859c-1.6 1.3-4.105 1.485-6.064 1.455-1.148-.014-2.936-.186-3.506-1.4a5.859 5.859 0 0 1-.324-.779c-.35-1.225.439-2.535.984-3.576a6.211 6.211 0 0 0 1-2.253c.035-.539-.111-1.084.5-1.368.015-.009.006-.022 0-.031-.161-.32-.1-.586.276-.6-.109 0-.153-.066-.037.014a1.523 1.523 0 0 0 .212.125 3.038 3.038 0 0 0 1.865.32 4.265 4.265 0 0 0 2.13-.923c.175-.145.4-.36.473.053a1.076 1.076 0 0 1-.1.559c-.019.046.1.077.127.083.457.035.646.994.766 1.328a6.318 6.318 0 0 0 .648 1.368c.6.91 1.549 1.685 1.838 2.767.016.061.198.097.184.048z" class="prefix__cls-11" data-name="Path 11112" transform="translate(-8397.92 -9880.593)"/>
                    </g>
                </g>
            </g>
            <g id="prefix__Group_4145" data-name="Group 4145" transform="translate(2.323 2.489)">
                <path id="prefix__Path_11113" d="M8404.1 9887.669c-.508.631-.528 2.319.284 1.874a5.518 5.518 0 0 1 4.658-.428c.569.2.68-1.361-.571-2.04a4.735 4.735 0 0 0-4.371.594z" class="prefix__cls-8" data-name="Path 11113" transform="translate(-8403.674 -9886.728)"/>
                <g id="prefix__Group_4144" data-name="Group 4144">
                    <path id="prefix__Path_11114" d="M8403.91 9887.593c-.4.536-.639 2.5.518 1.869a5.673 5.673 0 0 1 2.414-.7 5.5 5.5 0 0 1 2.037.315.45.45 0 0 0 .367-.031c.363-.208.181-.86.066-1.148a2.086 2.086 0 0 0-1.611-1.167 5.385 5.385 0 0 0-2.19.1 3.021 3.021 0 0 0-1.6.757c-.027.036.148.059.188.013a2.885 2.885 0 0 1 1.513-.706 4.633 4.633 0 0 1 2.306-.021 1.888 1.888 0 0 1 1.3 1.31 1.264 1.264 0 0 1 .022.554c-.072.433-.486.182-.771.117a5.777 5.777 0 0 0-3.512.239c-.2.081-.4.18-.595.279-.389.2-.546 0-.6-.352a2 2 0 0 1 .343-1.42c.02-.035-.161-.053-.195-.008z" class="prefix__cls-9" data-name="Path 11114" transform="translate(-8403.582 -9886.66)"/>
                </g>
            </g>
            <g id="prefix__Group_4146" class="prefix__cls-12" data-name="Group 4146" transform="translate(.09 .046)">
                <path id="prefix__Path_11115" d="M8409.07 9887.13c-.264-1.136-1.746-2.288-2.242-3.491s-.61-2.044-1.137-2.044c0 0 .394-.937-.33-.888a3.994 3.994 0 0 1-2.163 1.1 2.822 2.822 0 0 1-2.184-.44s-.694 0-.313.644a.936.936 0 0 0-.529.689c-.063.5.2.693-.279 1.612s-1.184 2.156-1.513 3.031a2.7 2.7 0 0 0 .063 2.391s.2 2.167 5.47 1.667c4.371-.41 5.024-2.162 5.024-2.162a3.825 3.825 0 0 0 .133-2.109zm-5.779 3.161c-3.454.229-4.759-.973-4.155-3.21a34.34 34.34 0 0 1 1.3-3.217 2.163 2.163 0 0 1 2.454-1.675c1.482.031 2.8-.595 3.252 1.215s2.315 1.78 2.284 3.824-1.681 2.835-5.135 3.063z" class="prefix__cls-10" data-name="Path 11115" transform="translate(-8398.139 -9880.705)"/>
            </g>
            <g id="prefix__Group_4147" class="prefix__cls-13" data-name="Group 4147" transform="translate(2.464 2.459)">
                <path id="prefix__Path_11116" d="M8408.651 9886.888a4.732 4.732 0 0 0-4.368.594c-.507.627-.527 2.324.285 1.874a5.5 5.5 0 0 1 4.654-.423c.573.193.684-1.366-.571-2.045zm-.261 1.45c-1.063-.566-2.11-.233-3.294.116-1.8.537-.832-1.72 1.889-1.72 2.327 0 2.468 2.166 1.406 1.604z" class="prefix__cls-14" data-name="Path 11116" transform="translate(-8403.926 -9886.587)"/>
            </g>
            <path id="prefix__Path_11117" d="M8402.728 9894.6c.259 1.434 1.911 2.127 4.546 1.271 2.6-.846-.328 1.842-3.1 1.415s-1.66-3.872-1.446-2.686z" class="prefix__cls-15" data-name="Path 11117" transform="translate(-8400.521 -9888.71)"/>
        </g>
        <g id="prefix__Group_4158" data-name="Group 4158" transform="translate(7.465 72.08)">
            <g id="prefix__Group_4153" data-name="Group 4153" transform="translate(.331)">
                <g id="prefix__Group_4150" data-name="Group 4150" transform="translate(7.221 1.578)">
                    <path id="prefix__Path_11118" d="M8365.212 9889.9c1.21 1.541 2.555.469 2.085-.5a3.5 3.5 0 0 0-2.632-1.7 2.9 2.9 0 0 0-1.22.311c-.575.316-.575.564-.575.564s1.136-.212 2.342 1.325z" class="prefix__cls-8" data-name="Path 11118" transform="translate(-8362.775 -9887.645)"/>
                    <g id="prefix__Group_4149" data-name="Group 4149">
                        <path id="prefix__Path_11119" d="M8364.99 9889.832c.486.581 1.348 1.157 2.063.585.829-.667-.185-1.765-.761-2.171a3.9 3.9 0 0 0-1.775-.661 2.491 2.491 0 0 0-.992.18c-.273.1-.859.36-.886.707 0 .053.114.077.152.072.874-.144 1.709.685 2.2 1.288.032.041.216.06.172 0a3.04 3.04 0 0 0-2.487-1.383c.05.024.1.046.15.068.012-.163.192-.293.31-.388a2.556 2.556 0 0 1 1.342-.459 2.657 2.657 0 0 1 1.063.261 2.581 2.581 0 0 1 1.617 1.653.854.854 0 0 1-.347.811c-.576.465-1.277-.116-1.648-.563-.033-.032-.218-.055-.173 0z" class="prefix__cls-9" data-name="Path 11119" transform="translate(-8362.64 -9887.578)"/>
                    </g>
                </g>
                <g id="prefix__Group_4152" data-name="Group 4152">
                    <path id="prefix__Path_11120" d="M8362.676 9888.721c0-1.45-.05-4.8-1.085-4.83a3.006 3.006 0 0 0-2.571.884c-1.042.829-1.563 1.342-2.174.55a1.774 1.774 0 0 0-1.481-.7 1.274 1.274 0 0 0-1.055.8 3.5 3.5 0 0 1 2.633 1.7c.469.973-.876 2.045-2.086.5s-2.342-1.332-2.342-1.332a28.49 28.49 0 0 1-2.885.359c-1.349.086-1.9-.445-3.406 1.021a2.482 2.482 0 0 0-.875 2.307s0 2.059 6.774 1.774a16.4 16.4 0 0 0 5.261-1.405 8.483 8.483 0 0 1 3.119-.725 3.716 3.716 0 0 0 2.176-.7c0-.06-.003-.132-.003-.203z" class="prefix__cls-10" data-name="Path 11120" transform="translate(-8345.199 -9883.797)"/>
                    <g id="prefix__Group_4151" data-name="Group 4151">
                        <path id="prefix__Path_11121" d="M8362.609 9888.672a15.094 15.094 0 0 0-.326-3.833 1.468 1.468 0 0 0-.588-.982 2.125 2.125 0 0 0-1.2-.076 4.673 4.673 0 0 0-2.012 1.126c-.383.306-1.022.973-1.543.54-.3-.243-.459-.559-.824-.729a1.441 1.441 0 0 0-2.066.622c-.016.04.1.059.115.059a3.573 3.573 0 0 1 1.942.873 1.669 1.669 0 0 1 .662 1.311.87.87 0 0 1-.274.5c-.407.4-1 .148-1.374-.157-.459-.379-.766-.9-1.257-1.253a2.329 2.329 0 0 0-2.092-.4 16.9 16.9 0 0 1-3.471.252 2.936 2.936 0 0 0-2.2.933 2.638 2.638 0 0 0-.967 2.648 2.136 2.136 0 0 0 1.205 1.009 11.055 11.055 0 0 0 4.283.643 13.974 13.974 0 0 0 3.6-.368 23.978 23.978 0 0 0 2.87-.986 10.637 10.637 0 0 1 2.943-.775 8.332 8.332 0 0 0 1.633-.247 2.59 2.59 0 0 0 .693-.312c.226-.134.245-.161.243-.4 0-.063-.188-.086-.188-.036 0 .68-1.468.818-1.956.869a17.134 17.134 0 0 0-1.729.221 21.837 21.837 0 0 0-2.878 1.026 15.349 15.349 0 0 1-7.958.721c-.848-.145-2.079-.419-2.529-1.26s.2-1.983.779-2.573a2.938 2.938 0 0 1 2.375-1.022 14.331 14.331 0 0 0 2.6-.148 9.385 9.385 0 0 1 1.449-.207c1.087.036 1.672 1.013 2.375 1.67a1.432 1.432 0 0 0 1.5.355c.63-.251.585-.962.3-1.448a3.5 3.5 0 0 0-2.623-1.522c.039.017.076.039.113.059a1.247 1.247 0 0 1 1.029-.78 1.613 1.613 0 0 1 .934.284c.3.194.455.519.752.713a.892.892 0 0 0 .879-.037c.742-.365 1.3-1.04 2.037-1.428a2.022 2.022 0 0 1 1.743-.2c.381.234.489.9.569 1.292a16.811 16.811 0 0 1 .235 3.419c.009.056.197.078.197.034z" class="prefix__cls-11" data-name="Path 11121" transform="translate(-8345.038 -9883.731)"/>
                    </g>
                </g>
            </g>
            <g id="prefix__Group_4155" data-name="Group 4155" transform="translate(0 5.096)">
                <path id="prefix__Path_11122" d="M8356.906 9897.668a16.414 16.414 0 0 1-5.26 1.405c-6.774.284-6.774-1.774-6.774-1.774a1.389 1.389 0 0 0-.331 1.3c.183.837 3.115 1.448 7.032 1.548s4.712-1.631 7.742-2.076c2.874-.423 2.893-.576 2.886-1.828a3.716 3.716 0 0 1-2.176.7 8.492 8.492 0 0 0-3.119.725z" class="prefix__cls-8" data-name="Path 11122" transform="translate(-8344.391 -9896.208)"/>
                <g id="prefix__Group_4154" data-name="Group 4154">
                    <path id="prefix__Path_11123" d="M8356.679 9897.587a16.431 16.431 0 0 1-5.377 1.4 15.7 15.7 0 0 1-4.562-.347c-.582-.147-1.924-.586-1.934-1.4 0-.059-.152-.04-.18-.018a1.292 1.292 0 0 0-.213 1.567 3.144 3.144 0 0 0 1.637.743 19.453 19.453 0 0 0 3.387.5 17.374 17.374 0 0 0 3.843-.01c1.846-.269 3.375-1.377 5.163-1.828.966-.243 1.983-.257 2.934-.576a.975.975 0 0 0 .744-.847 4.7 4.7 0 0 0 .018-.586c0-.059-.153-.036-.18-.019-.9.731-2.1.636-3.183.793a9.508 9.508 0 0 0-2.1.621c-.094.037.09.072.135.055a10.041 10.041 0 0 1 2.734-.688 4.546 4.546 0 0 0 2.577-.743c-.06 0-.122-.01-.181-.013 0 .417.04.9-.329 1.188a2.244 2.244 0 0 1-.869.319c-.577.136-1.167.208-1.747.3-1.651.258-3.029 1.176-4.595 1.676a9.808 9.808 0 0 1-3.36.37 28.027 28.027 0 0 1-3.937-.374 5.976 5.976 0 0 1-2.3-.73 1.133 1.133 0 0 1-.006-1.679c-.061 0-.12-.01-.181-.019.009.86 1.416 1.3 2.029 1.469a16.336 16.336 0 0 0 4.841.346 16.616 16.616 0 0 0 5.328-1.418c.094-.034-.091-.069-.136-.052z" class="prefix__cls-9" data-name="Path 11123" transform="translate(-8344.23 -9896.153)"/>
                </g>
            </g>
            <g id="prefix__Group_4156" class="prefix__cls-12" data-name="Group 4156" transform="translate(.444 .046)">
                <path id="prefix__Path_11124" d="M8362.676 9888.721c0-1.45-.05-4.8-1.085-4.83a3.006 3.006 0 0 0-2.571.884c-1.042.829-1.563 1.342-2.174.55a1.774 1.774 0 0 0-1.481-.7 1.274 1.274 0 0 0-1.055.8 3.5 3.5 0 0 1 2.633 1.7c.469.973-.876 2.045-2.086.5s-2.342-1.332-2.342-1.332a28.49 28.49 0 0 1-2.885.359c-1.349.086-1.9-.445-3.406 1.021a2.482 2.482 0 0 0-.875 2.307s0 2.059 6.774 1.774a16.4 16.4 0 0 0 5.261-1.405 8.483 8.483 0 0 1 3.119-.725 3.716 3.716 0 0 0 2.176-.7c0-.06-.003-.132-.003-.203zm-.888-.78c-.364 1.14-2.792.355-4.932 1.47-4.039 2.1-11.545.823-10.881-.758.748-1.779 1.581-1.8 2.8-1.738s3.326-.566 4.348-.008a5.146 5.146 0 0 1 2.042 1.846c.295.558 2.868.229 2.31-1.222s-.266-1.121.822-1.814 2.106-1.675 2.9-1.347.951 2.43.591 3.57z" class="prefix__cls-10" data-name="Path 11124" transform="translate(-8345.311 -9883.844)"/>
            </g>
            <g id="prefix__Group_4157" class="prefix__cls-13" data-name="Group 4157" transform="translate(7.647 1.625)">
                <path id="prefix__Path_11125" d="M8367.3 9889.395a3.5 3.5 0 0 0-2.632-1.7 2.9 2.9 0 0 0-1.22.311c-.575.316-.575.564-.575.564s1.136-.2 2.342 1.332 2.552.465 2.085-.507zm-1.546.238a2.738 2.738 0 0 0-1.933-1.147c-.57-.086-.573-.559.205-.582a3.59 3.59 0 0 1 2.65.954c.575.731-.283 1.635-.925.775z" class="prefix__cls-14" data-name="Path 11125" transform="translate(-8362.87 -9887.691)"/>
            </g>
            <path id="prefix__Path_11126" d="M8351.5 9891.533c-1.888-.112-2.643.046-3.36.923-.581.713.748 1.293 1.91 1.339 0 0-1.338-.6-1.229-1.131.172-.842 2.679-1.131 2.679-1.131z" class="prefix__cls-15" data-name="Path 11126" transform="translate(-8346.455 -9888.314)"/>
        </g>
        <g id="prefix__Group_4191" data-name="Group 4191" transform="translate(3.368 10.001)">
            <g id="prefix__Group_4160" data-name="Group 4160" transform="translate(0 .51)">
                <path id="prefix__Path_11127" d="M8372.362 9736.589a79.176 79.176 0 0 0-2.7 8.1 39.077 39.077 0 0 0-1.253-5.865c-.79-2.373-1.247-3.161-7.575-5.07.165.765-.167 2.045-1.814 3.414s-5.105 1.811-5.105 1.811l-1.4 3.414-1.434-3.608s-3.972-.581-4.944-2.405c-.887-1.67-.729-2.431-.7-2.553-.4.1-3.876.96-5.405 2.428-1.625 1.563-3.45 7.846-3.932 9.643a67.841 67.841 0 0 0-1.361 6.81c-.395 2.55-.7 3.383 1.755 5.008s4.569 2.9 4.569 2.9a55.074 55.074 0 0 0 .7 6.453s-.482 3.076-.878 5.887a35.277 35.277 0 0 1-1.012 4.833s3.34 3.868 12.827 4.566 14.011-3.773 14.011-3.773l-.351-6.414 1.581 5.445a4.728 4.728 0 0 0 1.583-1.446s-1.648-13.551-3.36-24.559a8 8 0 0 0 3.872 1.914c2.321.392 5.154-3.887 8.185-13.179.005.003-.063-3.554-5.859-3.754z" class="prefix__cls-8" data-name="Path 11127" transform="translate(-8334.379 -9733.716)"/>
                <g id="prefix__Group_4159" data-name="Group 4159">
                    <path id="prefix__Path_11128" d="M8372.131 9736.518a54.509 54.509 0 0 0-2.7 8.1c.063.011.126.019.189.028-.162-1.234-.388-2.459-.658-3.675a13.594 13.594 0 0 0-1.207-3.7 4.667 4.667 0 0 0-2-1.766 28.344 28.344 0 0 0-5.031-1.846c-.025-.006-.132-.019-.124.031.349 1.8-1.578 3.45-3.008 4.121a13.052 13.052 0 0 1-3.86 1.071.06.06 0 0 0-.054.022l-1.4 3.414.189.014c-.335-.847-.674-1.688-1.01-2.536-.139-.355-.281-.706-.42-1.058-.039-.1-.4-.109-.479-.122a8.955 8.955 0 0 1-3.72-1.45 4.184 4.184 0 0 1-1.3-2.107 2.421 2.421 0 0 1-.146-1.279c.014-.05-.136-.055-.16-.05a15.921 15.921 0 0 0-4.5 1.739c-1.462.887-2.129 2.428-2.757 3.944a56.391 56.391 0 0 0-3.326 12.292c-.266 1.611-.923 3.571.319 4.922a14.98 14.98 0 0 0 3 2.14q1.292.831 2.605 1.635c.078.046.155.095.233.14s.022-.01.025.023c.009.188.022.377.036.566.054.829.119 1.659.194 2.482.089.937.188 1.869.351 2.792a2.374 2.374 0 0 1 .105.685c-.053.329-.1.658-.153.986-.4 2.617-.691 5.266-1.268 7.85-.13.6-.277 1.2-.452 1.784-.017.05.178.2.205.226a15.667 15.667 0 0 0 6.557 3.35 26.786 26.786 0 0 0 14.147.361 14.693 14.693 0 0 0 6.063-3.054c.12-.113.039-.351.031-.5-.039-.729-.078-1.464-.119-2.192-.069-1.262-.139-2.519-.207-3.779-.062 0-.126-.014-.188-.019q.79 2.725 1.581 5.445c.014.051.137.054.171.036a4.741 4.741 0 0 0 .605-.405 4.686 4.686 0 0 0 .565-.5c.088-.091.442-.425.428-.559-.022-.19-.047-.383-.071-.572q-.237-1.938-.487-3.869-.908-7.128-1.923-14.231-.426-2.94-.878-5.883h-.181a7.512 7.512 0 0 0 4.044 1.954 2.915 2.915 0 0 0 2.293-1.013 14.3 14.3 0 0 0 2.648-3.955 57.215 57.215 0 0 0 2.9-7.17 2.608 2.608 0 0 0 .3-1.485 3.507 3.507 0 0 0-.656-1.356c-1.209-1.572-3.4-1.973-5.265-2.045-.131 0-.041.076.041.08 1.847.073 3.944.487 5.111 2.063a2.332 2.332 0 0 1 .58 1.82 62.718 62.718 0 0 1-2.913 7.49 16.476 16.476 0 0 1-2.764 4.355 3.019 3.019 0 0 1-2.19 1.145 7.75 7.75 0 0 1-3.951-1.9c-.021-.017-.188-.062-.181-.009 1.26 8.117 2.344 16.259 3.341 24.411.03.253-.142.388-.308.586a4.564 4.564 0 0 1-1.238.991c.059.013.114.021.173.034-.53-1.813-1.056-3.634-1.583-5.448-.014-.045-.189-.063-.189-.013l.176 3.206q.062 1.1.121 2.2a3.884 3.884 0 0 1 .059.994 13.653 13.653 0 0 1-5.5 2.915 26.07 26.07 0 0 1-14.878-.3 14.446 14.446 0 0 1-6.213-3.314c-.119-.126.021-.325.077-.531.276-1.022.492-2.063.678-3.1.414-2.323.693-4.675 1.057-7a1.487 1.487 0 0 0-.071-.55c-.092-.478-.154-.96-.216-1.437-.116-.954-.2-1.914-.276-2.868-.043-.568-.083-1.13-.117-1.694-.012-.207-.737-.509-.89-.6q-1.629-1.009-3.229-2.054a5.6 5.6 0 0 1-2.3-2.145 4.41 4.41 0 0 1-.026-2.387c.215-1.4.445-2.8.716-4.188a54.832 54.832 0 0 1 1.435-5.688 36.687 36.687 0 0 1 2.146-5.657 7.266 7.266 0 0 1 .969-1.518 6.064 6.064 0 0 1 1.935-1.315 17.459 17.459 0 0 1 3.589-1.247l-.159-.055a2.233 2.233 0 0 0 .087 1.081 4.53 4.53 0 0 0 1.149 2.153 7.765 7.765 0 0 0 3.538 1.586c.312.076.628.139.944.188-.12-.019-.053.022.006.17.095.235.185.465.278.7.356.9.715 1.8 1.072 2.7.019.046.167.067.189.019.338-.829.676-1.652 1.014-2.477.131-.312.256-.623.385-.933-.016.036-.072.025.023.013.069-.009.137-.021.209-.031.22-.036.443-.076.666-.122a10.188 10.188 0 0 0 3.935-1.458c1.081-.775 2.366-2.186 2.085-3.645a1.048 1.048 0 0 1-.124.031 28.06 28.06 0 0 1 5.026 1.856 4.441 4.441 0 0 1 1.931 1.783 13.753 13.753 0 0 1 1.119 3.459c.288 1.247.518 2.519.688 3.791 0 .056.178.087.189.028a54.316 54.316 0 0 1 2.7-8.1c.013-.059-.175-.1-.197-.041z" class="prefix__cls-9" data-name="Path 11128" transform="translate(-8334.244 -9733.656)"/>
                </g>
            </g>
            <g id="prefix__Group_4177" data-name="Group 4177" transform="translate(.451)">
                <g id="prefix__Group_4162" data-name="Group 4162" transform="translate(10.466)">
                    <path id="prefix__Path_11129" d="M8361.856 9735.654c.973 1.824 4.943 2.4 4.943 2.4l1.434 3.608 1.4-3.414s3.459-.441 5.106-1.811 1.979-2.649 1.813-3.414c0 0-.857-1.053-1.682.622l.331.153a4.939 4.939 0 0 1-2.324 2.468 15.863 15.863 0 0 1-3.8.676l-.956 2.8-.691-2.832s-3.164-.267-4.315-1.37a2.344 2.344 0 0 1-.856-2.188l.594-.266s-1.221-1.284-1.648 0l-.04.009c-.039.128-.196.888.691 2.559z" class="prefix__cls-16" data-name="Path 11129" transform="translate(-8361.016 -9732.478)"/>
                    <g id="prefix__Group_4161" data-name="Group 4161">
                        <path id="prefix__Path_11130" d="M8361.605 9735.612a4.6 4.6 0 0 0 2.549 1.788 12.476 12.476 0 0 0 2.351.618c.122.022.041 0 .048.014l.112.282c.169.425.336.853.507 1.275.267.675.536 1.347.8 2.022.021.054.169.036.188-.015.438-1.062.872-2.124 1.31-3.187l.08-.193c.025-.062-.139.022-.031 0 .212-.026.423-.062.634-.1a15.9 15.9 0 0 0 2.456-.648c1.715-.6 3.635-1.955 3.9-3.9.061-.446 0-.789-.464-.934-.692-.211-1.148.406-1.429.95-.008.014 0 .023.014.027.108.05.334.081.289.181-.074.167-.163.323-.252.482a4.759 4.759 0 0 1-1.568 1.692 6.979 6.979 0 0 1-2.67.717c-.5.071-1 .126-1.5.152-.029 0-.1.011-.115.042q-.475 1.4-.956 2.8c.063 0 .126-.009.188-.013l-.688-2.833c-.006-.022-.036-.026-.054-.026a10.583 10.583 0 0 1-3.445-.82 2.858 2.858 0 0 1-1.686-2.077 1.615 1.615 0 0 1 .007-.62c0-.01.432-.186.554-.239.014 0 .062-.026.039-.049a1.965 1.965 0 0 0-.927-.572.733.733 0 0 0-.427.026.872.872 0 0 0-.245.154c-.065.059-.189.386-.211.392s-.056.013-.062.035a4.044 4.044 0 0 0 .7 2.571c.024.046.212.009.183-.044a4.7 4.7 0 0 1-.719-2.393 1.129 1.129 0 0 1 .279-.544c.333-.393.969.152 1.207.378.051.055 0 .021.063 0-.054.021-.107.045-.164.072l-.4.175c-.1.046-.081.185-.088.28a2.659 2.659 0 0 0 1.2 2.211 8.545 8.545 0 0 0 4.028 1.14c.036 0-.026-.05-.006.036s.048.188.069.284l.238.981c.122.5.246 1 .37 1.5.013.055.173.032.188-.013l.717-2.1c.059-.176.119-.352.18-.526s.082-.14-.035-.131c.387-.022.773-.063 1.156-.108a7.389 7.389 0 0 0 3.5-1.027 5.073 5.073 0 0 0 1.567-2.053c0-.01 0-.022-.013-.028-.186-.08-.348-.067-.235-.278.177-.342.519-.828.969-.734a.545.545 0 0 1 .47.5c.127 1.211-.861 2.323-1.69 3.063a9.894 9.894 0 0 1-5.168 1.9c-.024.006-.08.014-.088.042q-.7 1.7-1.4 3.409c.063-.006.127-.009.189-.014-.256-.649-.514-1.292-.77-1.937-.166-.419-.331-.833-.5-1.247-.035-.091-.1-.432-.221-.45a12.517 12.517 0 0 1-1.985-.481 4.9 4.9 0 0 1-2.907-1.905c-.023-.042-.21-.004-.18.048z" class="prefix__cls-17" data-name="Path 11130" transform="translate(-8360.854 -9732.414)"/>
                    </g>
                </g>
                <g id="prefix__Group_4164" data-name="Group 4164" transform="translate(0 11.96)">
                    <path id="prefix__Path_11131" d="M8342.356 9767.478s2.682 3.563 12.375 3.377c9.792-.184 12.186-3.187 12.186-3.187s4.652.964 3.533-5.671v-.333c-1.4 2.212-4.307 1.829-4.307 1.829s-1.707 1.994-11.454 2.692-12.017-3.08-12.017-3.08a10.367 10.367 0 0 1-6.161.225c-.326 1.36-.646 2.981-.93 4.68a12.319 12.319 0 0 0 6.775-.532z" class="prefix__cls-16" data-name="Path 11131" transform="translate(-8335.482 -9761.624)"/>
                    <g id="prefix__Group_4163" data-name="Group 4163">
                        <path id="prefix__Path_11132" d="M8342.123 9767.43a4.246 4.246 0 0 0 .879.793 11.247 11.247 0 0 0 3.1 1.535 22.431 22.431 0 0 0 5.933 1.04 36.989 36.989 0 0 0 7.739-.383 17.706 17.706 0 0 0 5.563-1.687 4.9 4.9 0 0 0 1.53-1.108c-.048.008-.095.018-.142.022a3.452 3.452 0 0 0 2.366-.387 3.048 3.048 0 0 0 1.295-1.839 6.112 6.112 0 0 0 .188-1.783c-.009-.68-.17-1.347-.173-2.026 0-.059-.164-.046-.189-.009a4.393 4.393 0 0 1-4.187 1.8c-.189-.022-.518.333-.671.425a11.514 11.514 0 0 1-2.876 1.093 39.587 39.587 0 0 1-6.514 1.059c-3.567.334-7.432.446-10.778-1.04a5.687 5.687 0 0 1-2.567-1.9c-.026-.04-.124-.031-.162-.013a10.284 10.284 0 0 1-6.044.216c-.035-.009-.13-.013-.144.036-.369 1.549-.667 3.113-.931 4.68 0 .023.036.031.047.036a12.892 12.892 0 0 0 6.9-.541c.095-.03-.09-.072-.136-.059a13.046 13.046 0 0 1-5.62.707 9.357 9.357 0 0 1-.955-.157 11.073 11.073 0 0 1 .258-1.653c.188-1.008.4-2.018.635-3.013a1.206 1.206 0 0 0-.146.032 10.7 10.7 0 0 0 6.277-.23 1.469 1.469 0 0 0-.159-.018c.723 1.2 2.373 1.9 3.615 2.323a18.566 18.566 0 0 0 5.53.87 44.065 44.065 0 0 0 7.923-.631 25.827 25.827 0 0 0 4.392-1.04 7.486 7.486 0 0 0 1.91-.9 2.121 2.121 0 0 0 .261-.206c.072-.073-.14 0-.072 0a3.89 3.89 0 0 0 .465.023 4.529 4.529 0 0 0 3.939-1.883c-.062 0-.125 0-.188-.009 0 .55.117 1.089.155 1.64a7.255 7.255 0 0 1-.09 1.811 3.221 3.221 0 0 1-1.16 2.031 3 3 0 0 1-2.294.486c-.04-.006-.11-.014-.143.026a3.8 3.8 0 0 1-.882.717 12.169 12.169 0 0 1-3.382 1.44 33.969 33.969 0 0 1-14.583.393 13.368 13.368 0 0 1-4.334-1.733 4.638 4.638 0 0 1-1.191-1.01c-.034-.044-.216-.017-.187.024z" class="prefix__cls-17" data-name="Path 11132" transform="translate(-8335.343 -9761.566)"/>
                    </g>
                </g>
                <g id="prefix__Group_4166" data-name="Group 4166" transform="translate(1.992 5.426)">
                    <path id="prefix__Path_11133" d="M8345.955 9749.924s.921 3 10.275 2.654 12.1-2.278 12.1-2.278a3.8 3.8 0 0 0 4.273-1.808 24.639 24.639 0 0 0-.68-2.594c-.017-.054-.036-.1-.052-.153a6.447 6.447 0 0 1-4.923.054s-1.783 2.757-10.584 2.847l-.336.82-.326-.82c-8.553-.054-8.855-2.847-8.855-2.847a20.184 20.184 0 0 1-4.784-.015 44.265 44.265 0 0 0-1.631 4.411 13 13 0 0 0 5.523-.271z" class="prefix__cls-16" data-name="Path 11133" transform="translate(-8340.335 -9745.701)"/>
                    <g id="prefix__Group_4165" data-name="Group 4165">
                        <path id="prefix__Path_11134" d="M8345.726 9749.853a1.86 1.86 0 0 0 .536.726 6.307 6.307 0 0 0 2.468 1.291 19.783 19.783 0 0 0 5.678.718 49.276 49.276 0 0 0 7.806-.563 26.435 26.435 0 0 0 4.294-.979 8.3 8.3 0 0 0 1.685-.725.519.519 0 0 0 .085-.049c-.018.013-.14-.01-.059.013.061.014.121.027.183.036a4.584 4.584 0 0 0 1.545.015 3.576 3.576 0 0 0 2.06-1.1 3.842 3.842 0 0 0 .479-.649c.133-.221.013-.437-.04-.675a21.8 21.8 0 0 0-.618-2.221c-.018-.049-.126-.063-.168-.045a6.394 6.394 0 0 1-4.791.068c-.026-.015-.121-.041-.144-.01a4.588 4.588 0 0 1-1.919 1.356 21.231 21.231 0 0 1-8.618 1.477c-.018 0-.048 0-.053.022l-.337.82c.061.009.125.022.186.031l-.325-.82c-.019-.04-.094-.054-.133-.054a24.6 24.6 0 0 1-4.942-.459 8.309 8.309 0 0 1-2.629-.981c-.443-.275-1.085-.771-1.152-1.353-.007-.045-.121-.054-.153-.049a21.137 21.137 0 0 1-4.74-.013c-.022-.006-.065-.01-.077.017a43.6 43.6 0 0 0-1.63 4.41c-.011.04.091.059.112.063a13.41 13.41 0 0 0 5.583-.274c.065-.014-.105-.086-.155-.072a13.137 13.137 0 0 1-5.461.262c.038.022.074.044.109.063.239-.743.487-1.486.756-2.226.137-.373.278-.747.425-1.116.12-.3.274-1.054.658-1.009a20.626 20.626 0 0 0 4.539-.023c-.05-.013-.1-.031-.153-.048.078.635.807 1.157 1.293 1.455a8.745 8.745 0 0 0 2.657.967 23.869 23.869 0 0 0 5.04.473l-.131-.053c.107.274.217.549.324.819.019.045.167.085.188.031.091-.216.18-.437.27-.657.085-.2.145-.141.377-.145.29 0 .58-.013.872-.027.968-.035 1.937-.117 2.9-.247a17.314 17.314 0 0 0 4.012-.979 5.306 5.306 0 0 0 2.485-1.6c-.047 0-.094 0-.143-.01a6.7 6.7 0 0 0 5.057-.04c-.058-.014-.115-.032-.171-.045a21.125 21.125 0 0 1 .572 2.041 1.231 1.231 0 0 1-.14 1.161 3.408 3.408 0 0 1-.6.636 3.665 3.665 0 0 1-2.462.8 4.128 4.128 0 0 1-.707-.081c-.054-.015-.152-.055-.207-.019a2.9 2.9 0 0 1-.279.162 12.356 12.356 0 0 1-2.436.892 34.364 34.364 0 0 1-5.779.981 43.979 43.979 0 0 1-7.062.194 15.081 15.081 0 0 1-4.418-.859c-.745-.289-1.944-.848-2.216-1.7-.017-.058-.205-.078-.186-.025z" class="prefix__cls-17" data-name="Path 11134" transform="translate(-8340.198 -9745.638)"/>
                    </g>
                </g>
                <g id="prefix__Group_4168" data-name="Group 4168" transform="translate(5.181 39.839)">
                    <path id="prefix__Path_11135" d="M8363.051 9832.589c-9.368.855-11.969-2.56-11.969-2.56-1.347 1.127-2.3.749-2.3.749-.2 1.144-.419 2.085-.581 2.711s3.729 3.55 15.5 2.648a31.2 31.2 0 0 0 11.016-2.721l-.207-3.787a36.027 36.027 0 0 1-11.459 2.96z" class="prefix__cls-16" data-name="Path 11135" transform="translate(-8348.108 -9829.585)"/>
                    <g id="prefix__Group_4167" data-name="Group 4167">
                        <path id="prefix__Path_11136" d="M8362.871 9832.484a20.25 20.25 0 0 1-9.436-.956 5.858 5.858 0 0 1-2.406-1.566.162.162 0 0 0-.175-.023 3.122 3.122 0 0 1-1.771.793c-.176.01-.33-.059-.479-.059-.015 0-.049 0-.052.022-.163.91-.352 1.815-.58 2.712-.011.05.114.059.139.059-.114 0-.166-.067-.083 0l.155.122c.2.147.408.283.622.414a12.963 12.963 0 0 0 2.682 1.148 32.777 32.777 0 0 0 12.674.914 31.053 31.053 0 0 0 10.5-2.685c.008 0 .015-.009.017-.018q-.105-1.893-.207-3.787c0-.06-.135-.069-.177-.05a35.985 35.985 0 0 1-11.425 2.954c-.124.013.027.09.085.085a36.423 36.423 0 0 0 11.5-2.973c-.059-.017-.115-.031-.174-.05.065 1.185.131 2.364.2 3.55.017.307-.076.271-.375.41-.47.21-.948.4-1.431.59a29.428 29.428 0 0 1-3.387 1.04 39.361 39.361 0 0 1-8.551 1.031 32.755 32.755 0 0 1-6.866-.5 16.012 16.012 0 0 1-4.616-1.518 7.374 7.374 0 0 1-.892-.559c-.1-.076-.2-.2-.333-.2.044.019.09.036.138.058.142-.562.268-1.124.385-1.692.038-.181.295-.919.049-1.009.055.018.113.031.17.046a2.872 2.872 0 0 0 2.268-.794c-.059-.009-.117-.014-.176-.021a6.153 6.153 0 0 0 2.54 1.634 20.65 20.65 0 0 0 9.557.964c.12-.014-.03-.091-.089-.086z" class="prefix__cls-17" data-name="Path 11136" transform="translate(-8347.972 -9829.521)"/>
                    </g>
                </g>
                <g id="prefix__Group_4170" data-name="Group 4170" transform="translate(31.682 38.533)">
                    <path id="prefix__Path_11137" d="M8413.786 9831.047a19.833 19.833 0 0 0 1.828-1.091c-.093-.757-.245-1.972-.441-3.521-.567.329-1.364.762-2.373 1.221z" class="prefix__cls-16" data-name="Path 11137" transform="translate(-8412.704 -9826.396)"/>
                    <g id="prefix__Group_4169" data-name="Group 4169">
                        <path id="prefix__Path_11138" d="M8413.73 9831.021c.625-.337 1.238-.7 1.828-1.09a.06.06 0 0 0 .018-.018q-.221-1.765-.445-3.522c-.008-.059-.14-.062-.176-.04-.77.445-1.565.846-2.373 1.221-.014 0-.016.013-.014.026q.494 1.695.986 3.392c.013.054.2.059.187 0q-.354-1.223-.713-2.456c-.091-.31-.182-.621-.271-.932 0 .018 2.13-1.062 2.36-1.192l-.178-.041q.179 1.392.351 2.779l.057.45c.037.292-.085.369-.324.518-.473.307-.959.581-1.455.847-.068.037.118.081.162.058z" class="prefix__cls-17" data-name="Path 11138" transform="translate(-8412.567 -9826.339)"/>
                    </g>
                </g>
                <g id="prefix__Group_4172" data-name="Group 4172" transform="translate(6.367 31.452)">
                    <path id="prefix__Path_11139" d="M8377.836 9809.176s-2.716 2.82-13.346 3.536-12.979-1.365-12.979-1.365c.012.072.028.145.044.2 0 0-.221 1.41-.486 3.193 0 0-.008.514 1.095.162 0 0 3.945 2.969 13.1 1.807a40.075 40.075 0 0 0 13.063-3.865c-.15-1.148-.312-2.378-.488-3.671z" class="prefix__cls-16" data-name="Path 11139" transform="translate(-8350.984 -9809.135)"/>
                    <g id="prefix__Group_4171" data-name="Group 4171">
                        <path id="prefix__Path_11140" d="M8377.62 9809.109a4.212 4.212 0 0 1-.853.612 14.755 14.755 0 0 1-3.127 1.334 34.482 34.482 0 0 1-6.357 1.292 57.385 57.385 0 0 1-8.372.4 22.585 22.585 0 0 1-5.947-.8 4.228 4.228 0 0 1-1.493-.682c-.024-.019-.191-.031-.18.019a1.855 1.855 0 0 1-.032.7c-.092.595-.181 1.188-.272 1.783-.076.5-.387 1.262.393 1.238a4.014 4.014 0 0 0 .6-.13c.057.04.115.08.174.117a7.614 7.614 0 0 0 .824.441c3.141 1.494 6.855 1.675 10.26 1.445a39.491 39.491 0 0 0 15.052-4.072.023.023 0 0 0 .015-.021c-.16-1.226-.322-2.445-.487-3.671 0-.036-.071-.041-.1-.041-.111 0-.111.077 0 .077-.031-.009-.062-.023-.095-.036l.288 2.148c.045.342.09.686.137 1.027.049.378.021.5-.309.666-.7.352-1.425.667-2.152.964a40.962 40.962 0 0 1-6.7 2.05c-4.623 1-9.72 1.473-14.3-.009a9.44 9.44 0 0 1-2.407-1.1.242.242 0 0 0-.135-.059c-.3 0-.694.3-.951.009-.081-.094-.035-.211-.02-.319.109-.734.221-1.464.333-2.193a2.79 2.79 0 0 0 .079-1.009c-.059 0-.117.009-.18.018a2.824 2.824 0 0 0 .754.41 11.778 11.778 0 0 0 2.75.738 32.469 32.469 0 0 0 5.668.382 57.662 57.662 0 0 0 8.234-.6 26.215 26.215 0 0 0 7.182-1.936 6.324 6.324 0 0 0 1.916-1.176c.028-.025-.148-.061-.19-.016z" class="prefix__cls-17" data-name="Path 11140" transform="translate(-8350.861 -9809.077)"/>
                    </g>
                </g>
                <g id="prefix__Group_4174" data-name="Group 4174" transform="translate(4.13 19.813)">
                    <path id="prefix__Path_11141" d="M8360.661 9792.22a30.286 30.286 0 0 0 13.469-3.473c-.25-1.8-.513-3.652-.784-5.49-10.854 7.03-22.325 3.058-22.325 3.058s-.644 2.086.089-.283a7.752 7.752 0 0 1 2.1-3.513l-2.864-1.775c-4.424 1.1-4.711 6.327-4.711 6.327v.006c1.2.761 2.014 1.253 2.014 1.253s.065 1.161.187 2.553l.012-.009s4.326 1.58 12.813 1.346z" class="prefix__cls-16" data-name="Path 11141" transform="translate(-8345.542 -9780.728)"/>
                    <g id="prefix__Group_4173" data-name="Group 4173">
                        <path id="prefix__Path_11142" d="M8360.586 9792.242a30.519 30.519 0 0 0 13.5-3.482c.006 0 .006-.014.006-.021q-.384-2.744-.784-5.485c-.008-.055-.143-.077-.178-.055a26.722 26.722 0 0 1-15 4.161 24.278 24.278 0 0 1-7.213-1.1c-.009 0-.03-.01.011 0-.022-.01-.115-.04-.126 0-.09.283-.171.567-.266.846l.187.056c.483-1.649 1.081-3.486 2.448-4.635.024-.023-.017-.046-.029-.055l-2.545-1.58c-.39-.24-.443-.24-.931-.082a5.574 5.574 0 0 0-1.927 1.126 7.049 7.049 0 0 0-1.957 3.229 9.917 9.917 0 0 0-.3 1.321c-.014.089 0 .477-.059.526-.022.022.016.045.031.059.667.418 1.333.833 2 1.242-.062-.036-.022.082-.02.142.011.192.024.391.038.584.04.6.088 1.2.14 1.8 0 .055.145.077.18.055-.035.022-.174-.036-.054 0 .05.019.1.032.148.05.2.063.392.117.59.172.8.22 1.614.382 2.431.525a48.9 48.9 0 0 0 9.681.6c.1 0-.068-.1-.115-.09a48.925 48.925 0 0 1-9.872-.64c-.766-.141-1.53-.3-2.277-.515-.121-.034-.585-.26-.707-.175.062.018.122.036.18.049-.053-.64-.1-1.278-.147-1.918-.007-.117.042-.6-.077-.667-.2-.126-.4-.247-.6-.369-.227-.145-.457-.283-.687-.427a6.438 6.438 0 0 1-.681-.415 8.291 8.291 0 0 1 .613-2.549 6.08 6.08 0 0 1 3.6-3.627c.326-.115.3-.193.568-.026l.85.526 1.691 1.05c.126.082.052.027.063.019-.067.053-.128.117-.189.176a7.179 7.179 0 0 0-.806 1 12.008 12.008 0 0 0-1.459 3.467c-.014.056.169.108.187.056.092-.279.175-.564.264-.848a1.112 1.112 0 0 0-.128 0 23.9 23.9 0 0 0 6.276 1.085 27.151 27.151 0 0 0 13.971-2.863 24.454 24.454 0 0 0 2.2-1.276l-.178-.048c.142.976.286 1.959.426 2.939.069.487.14.974.207 1.46.045.333.289 1-.059 1.184a27.019 27.019 0 0 1-3.188 1.419 31.427 31.427 0 0 1-10.037 1.929c-.104.005.063.095.109.095z" class="prefix__cls-17" data-name="Path 11142" transform="translate(-8345.41 -9780.705)"/>
                    </g>
                </g>
                <g id="prefix__Group_4176" data-name="Group 4176" transform="translate(35.739 3.878)">
                    <path id="prefix__Path_11143" d="M8424.125 9741.991c-.336.888-.924 2.472-1.446 4.035 1.216.712 3.342 2.536 4.5 6.913a55.947 55.947 0 0 0 2.432-5.967 9.823 9.823 0 0 0-5.486-4.981z" class="prefix__cls-16" data-name="Path 11143" transform="translate(-8422.587 -9741.939)"/>
                    <g id="prefix__Group_4175" data-name="Group 4175">
                        <path id="prefix__Path_11144" d="M8423.9 9741.886c-.5 1.332-.99 2.68-1.445 4.035-.009.018.019.04.031.046 2.445 1.444 3.754 4.241 4.461 6.876.012.045.155.108.183.059.593-1.221 1.116-2.468 1.607-3.729.288-.739.562-1.492.825-2.239.036-.1-.267-.525-.312-.608a9.893 9.893 0 0 0-5.246-4.444c-.107-.041-.132.032-.025.072a9.906 9.906 0 0 1 4.691 3.684c.146.216.278.441.409.671.115.2.317.509.236.739-.062.18-.126.359-.191.536-.241.671-.5 1.342-.757 2-.433 1.1-.9 2.183-1.421 3.245.062.02.122.037.183.055a12.924 12.924 0 0 0-3.019-5.76 7.442 7.442 0 0 0-1.46-1.161 17.405 17.405 0 0 1 .749-2.173c.223-.616.45-1.233.682-1.846.024-.044-.157-.114-.181-.058z" class="prefix__cls-17" data-name="Path 11144" transform="translate(-8422.456 -9741.865)"/>
                    </g>
                </g>
            </g>
            <g id="prefix__Group_4185" data-name="Group 4185" transform="translate(2.843 4.614)">
                <g id="prefix__Group_4179" data-name="Group 4179" transform="translate(3.058 .45)">
                    <g id="prefix__Group_4178" data-name="Group 4178">
                        <path id="prefix__Path_11145" d="M8348.626 9766.623c.316.166.637.324.965.469.161.072.324.144.49.207s.332.134.5.189l.506.166c.167.055.34.09.511.135a3.346 3.346 0 0 0 .517.112c.174.028.345.063.515.1l-.085.014a2.972 2.972 0 0 0 .627-.478 4.906 4.906 0 0 0 .522-.617 5.614 5.614 0 0 0 .416-.7l.174-.375c.05-.121.092-.252.141-.382.1-.253.151-.527.229-.787.052-.268.1-.537.144-.809.023-.274.062-.549.072-.824s.014-.549.014-.823l-.04-.828-.006-.05v-.037c0-.03.01.041.006.031l-.006-.013c-.013-.049-.021-.019-.021-.031a1.259 1.259 0 0 0-.145-.121 3.66 3.66 0 0 0-.333-.23c-.464-.3-.95-.567-1.437-.837-.974-.536-1.963-1.051-2.958-1.551l-.083-.039v-.095q.042-.866.1-1.726c.041-.577.063-1.152.117-1.729l.142-1.726c.024-.287.043-.576.077-.859l.1-.86.208-1.725c.031-.294.095-.568.136-.855s.106-.568.165-.848.113-.566.186-.847l.221-.843c.071-.278.139-.559.236-.833s.174-.549.284-.815c-.088.275-.146.559-.215.833s-.121.568-.176.849l-.159.846c-.053.279-.081.568-.125.855s-.075.572-.125.852-.108.571-.142.851l-.206 1.712-.1.855c-.034.284-.049.572-.075.861l-.144 1.72c-.049.571-.077 1.148-.117 1.721s-.066 1.148-.094 1.725l-.081-.135c1 .5 1.987 1.014 2.967 1.549.491.274.978.546 1.455.852.117.077.235.157.354.243.056.044.114.095.173.148a.509.509 0 0 1 .093.14v.015c0-.006.015.066.007.039v.081l.044.848c0 .278-.013.562-.016.841s-.05.567-.072.848c-.041.278-.095.559-.149.837-.081.271-.13.555-.238.82-.05.13-.095.266-.148.4l-.181.394a5.866 5.866 0 0 1-.441.733 4.815 4.815 0 0 1-.554.657 3.559 3.559 0 0 1-.7.537l-.04.021-.045-.009c-.181-.04-.36-.071-.536-.117a4.317 4.317 0 0 1-.522-.148c-.17-.063-.345-.113-.511-.181l-.5-.208c-.165-.066-.327-.148-.489-.225s-.319-.161-.48-.242c-.314-.165-.618-.355-.919-.548z" class="prefix__cls-18" data-name="Path 11145" transform="translate(-8348.626 -9744.756)"/>
                    </g>
                </g>
                <g id="prefix__Group_4180" data-name="Group 4180" transform="translate(4.83)">
                    <path id="prefix__Path_11146" d="M8353.7 9746.775a4.833 4.833 0 0 1-.081-.513l-.025-.244c-.009-.087-.035-.17-.049-.265s-.031-.186-.045-.279-.042-.194-.063-.289-.037-.2-.061-.287-.052-.189-.079-.28a2.439 2.439 0 0 0-.076-.257c-.031-.077-.055-.157-.077-.229-.058-.135-.094-.262-.135-.337s-.059-.136-.059-.136a1.264 1.264 0 0 1 .108.1 2.337 2.337 0 0 1 .233.3c.041.067.084.139.127.216a1.494 1.494 0 0 1 .118.257c.035.095.075.189.108.284s.049.2.075.307.045.2.059.307.013.207.018.306l.013.283c.004.089-.018.172-.023.248a4.6 4.6 0 0 1-.086.508z" class="prefix__cls-18" data-name="Path 11146" transform="translate(-8352.946 -9743.659)"/>
                </g>
                <g id="prefix__Group_4181" data-name="Group 4181" transform="translate(0 14.03)">
                    <path id="prefix__Path_11147" d="M8341.173 9778.654s.076-.046.214-.113.34-.153.588-.243a7.973 7.973 0 0 1 .862-.252c.162-.041.329-.072.5-.1s.346-.045.522-.066.352-.019.527-.023.346.009.513.023.325.04.474.071.29.067.416.107.241.09.34.131a2.3 2.3 0 0 1 .246.132c.133.074.2.12.2.12s-.085-.022-.229-.067a1.731 1.731 0 0 0-.258-.081c-.1-.021-.219-.044-.341-.072l-.409-.054c-.144-.019-.3-.019-.461-.031s-.323 0-.49 0c-.166.013-.338.013-.507.031s-.34.027-.507.059-.333.04-.49.067c-.315.054-.612.117-.865.167s-.468.095-.617.136-.228.058-.228.058z" class="prefix__cls-18" data-name="Path 11147" transform="translate(-8341.173 -9777.856)"/>
                </g>
                <g id="prefix__Group_4182" data-name="Group 4182" transform="translate(1.799 13.507)">
                    <path id="prefix__Path_11148" d="M8345.558 9776.691a2.223 2.223 0 0 1 .555-.1 2.452 2.452 0 0 1 .274-.01 2.56 2.56 0 0 1 .3.018c.106.014.215.023.324.046a1.742 1.742 0 0 1 .329.071l.324.1a2.424 2.424 0 0 1 .3.131c.1.042.188.087.275.132a1.365 1.365 0 0 1 .229.148 4.763 4.763 0 0 1 .441.346s-.221-.071-.519-.2a1.5 1.5 0 0 0-.244-.1c-.089-.026-.184-.059-.277-.095s-.193-.072-.295-.1-.205-.054-.309-.085a2.857 2.857 0 0 0-.312-.08c-.1-.02-.205-.046-.3-.069s-.2-.032-.287-.048-.18-.037-.26-.043c-.163-.017-.3-.04-.395-.049l-.153-.013z" class="prefix__cls-18" data-name="Path 11148" transform="translate(-8345.558 -9776.583)"/>
                </g>
                <g id="prefix__Group_4183" data-name="Group 4183" transform="translate(26.212 .909)">
                    <path id="prefix__Path_11149" d="M8405.065 9745.876l.236.6c.074.189.14.431.228.7s.182.586.28.924.221.7.312 1.1.192.81.284 1.237c.188.865.392 1.782.592 2.7.105.454.155.923.232 1.383s.144.905.212 1.342c.134.869.24 1.685.342 2.383s.167 1.284.22 1.689.077.64.077.64-.05-.23-.133-.631-.2-.983-.326-1.672-.282-1.5-.428-2.368c-.076-.432-.15-.878-.229-1.337s-.14-.92-.253-1.375c-.187-.918-.373-1.838-.551-2.7-.094-.428-.169-.852-.246-1.243s-.18-.762-.262-1.1-.161-.653-.226-.933-.116-.522-.179-.721z" class="prefix__cls-18" data-name="Path 11149" transform="translate(-8405.065 -9745.876)"/>
                </g>
                <g id="prefix__Group_4184" data-name="Group 4184" transform="translate(4.179 26.879)">
                    <path id="prefix__Path_11150" d="M8351.36 9809.176s.142.645.333 1.608c.095.482.2 1.045.321 1.648s.237 1.252.361 1.892c.058.324.112.648.18.964s.121.626.178.928.11.594.169.868.113.537.162.775.095.464.146.658.09.36.124.5l.106.44-.161-.423c-.044-.136-.1-.3-.173-.491-.033-.095-.07-.193-.105-.3s-.063-.221-.095-.343c-.065-.234-.136-.5-.207-.767s-.153-.562-.216-.864c-.135-.6-.275-1.242-.4-1.892s-.234-1.292-.323-1.9-.164-1.181-.23-1.666-.1-.9-.135-1.186-.035-.449-.035-.449z" class="prefix__cls-18" data-name="Path 11150" transform="translate(-8351.36 -9809.176)"/>
                </g>
            </g>
            <g id="prefix__Group_4186" class="prefix__cls-13" data-name="Group 4186" transform="translate(.093 2.65)">
                <path id="prefix__Path_11151" d="M8372.362 9739.605s-.108.274-.281.735c2.446-.063 4.077.8 2.763 5.633-1.362 5.01-6.408 10.09-7.864 3.541s-4.107-9.135-4.107-9.135c1.45 6.307 1.935 23 2.388 27.335 1.456 13.886-13.464 16.781-19.529 8.742-4.445-5.887-2.249-9.354.95-10.057 7.693-1.689 10.768-5.094 8.99-8.576s-2.121-4.251-5.413-3.4-7.414-.627-7.284-5.7a41.321 41.321 0 0 1 .955-8.3 2.686 2.686 0 0 0-1.117.86 1.851 1.851 0 0 0-1.121-1.122c.658 1.355.131 3.46-.617 7.054s.631 6.819-.795 6.715a4.126 4.126 0 0 0-2.641.5 3.324 3.324 0 0 1 1.187.3 3.289 3.289 0 0 0-1.912 1.221 10.078 10.078 0 0 1 7.085.656c1.58.924 1.646 1.848.2 2.986s-4.382.914-6.974-1.239c-2.79-2.318-1.779-5.6-.726-9.254s2.377-8.188 4.02-10.225a5.692 5.692 0 0 0-.481.4c-1.625 1.563-3.45 7.846-3.932 9.643a67.9 67.9 0 0 0-1.361 6.81c-.395 2.55-.7 3.383 1.755 5.009s4.569 2.9 4.569 2.9a55.127 55.127 0 0 0 .7 6.454s-.482 3.075-.878 5.887a35.325 35.325 0 0 1-1.012 4.832s3.34 3.869 12.827 4.567 14.011-3.774 14.011-3.774l-.351-6.414 1.581 5.446a4.741 4.741 0 0 0 1.583-1.446s-1.648-13.552-3.36-24.56a7.99 7.99 0 0 0 3.872 1.913c2.321.394 5.154-3.886 8.185-13.178-.001-.002-.069-3.564-5.865-3.759z" class="prefix__cls-14" data-name="Path 11151" transform="translate(-8334.473 -9738.872)"/>
            </g>
            <g id="prefix__Group_4188" data-name="Group 4188" transform="translate(9.632 21.56)">
                <path id="prefix__Path_11152" fill="#112916" d="M8360.53 9785.068a7.959 7.959 0 0 0-2.031 3.287 6.093 6.093 0 0 0-.341 3.563s2.829-1.368 2.372-6.85z" data-name="Path 11152" transform="translate(-8357.909 -9785.026)"/>
                <g id="prefix__Group_4187" data-name="Group 4187">
                    <path id="prefix__Path_11153" fill="#111c10" d="M8360.26 9784.985a7.62 7.62 0 0 0-1.921 2.973 6.3 6.3 0 0 0-.464 3.9c.017.051.126.045.165.027a3.733 3.733 0 0 0 1.341-1.319 8.837 8.837 0 0 0 1.06-5.559c0-.058-.2-.054-.194 0a9.05 9.05 0 0 1-.97 5.405 3.853 3.853 0 0 1-1.372 1.419c.054.009.109.019.165.026a6.246 6.246 0 0 1 .394-3.716 7.567 7.567 0 0 1 1.963-3.117c.056-.043-.127-.07-.167-.039z" data-name="Path 11153" transform="translate(-8357.722 -9784.966)"/>
                </g>
            </g>
            <path id="prefix__Path_11154" d="M8363.566 9810.668c1.125 2.855 4.5 8.566 11.642 7.42 2.043-.334-2.507 5.223-9.006 2.039s-4.297-13.678-2.636-9.459z" class="prefix__cls-21" data-name="Path 11154" transform="translate(-8350.509 -9777.982)"/>
            <path id="prefix__Path_11155" d="M8358.3 9748.661c.4 2.752 1.143 7.684 7.264 8.962.892.186-2.96 1.757-6.693-.525s-1.058-11.729-.571-8.437z" class="prefix__cls-21" data-name="Path 11155" transform="translate(-8347.613 -9741.589)"/>
            <path id="prefix__Path_11156" d="M8405.665 9738.878a14.468 14.468 0 0 1 3.79 6.955c1.074 3.914 1.9 1.192.726-3.545-1.252-5.039-6.426-5.206-4.516-3.41z" class="prefix__cls-21" data-name="Path 11156" transform="translate(-8376.116 -9735.611)"/>
            <path id="prefix__Path_11157" d="M8338.982 9752.178a67.043 67.043 0 0 1 2.855-8.656c.373-.918 1.473-2.589.351 2.09s-4.829 13.31-3.206 6.566z" class="prefix__cls-21" data-name="Path 11157" transform="translate(-8336.8 -9738.341)"/>
            <path id="prefix__Path_11158" fill="#0a6132" d="M8342.714 9780.337a8.387 8.387 0 0 1 5.473.766c1.691 1.013.967 2.288-1.453 1.8s-6.067-2.211-4.02-2.566z" data-name="Path 11158" transform="translate(-8338.885 -9760.591)" style="mix-blend-mode:screen;isolation:isolate" opacity="0.3"/>
            <g id="prefix__Group_4189" class="prefix__cls-13" data-name="Group 4189" transform="translate(11.029 .046)">
                <path id="prefix__Path_11159" d="M8376.552 9733.031a.792.792 0 0 0-1.213-.063c1.051.041.285 2.514-1.391 3.536a10.324 10.324 0 0 1-4.562 1.139l-1.212 2.982-1.211-3.247c-2.043-.132-4.237-.784-4.892-2.248-.514-1.144-.653-2.229-.279-2.6-.236.01-.454.154-.595.568a.381.381 0 0 1-.04.009c-.032.122-.189.883.7 2.553.973 1.824 4.943 2.405 4.943 2.405l1.434 3.609 1.4-3.416s3.459-.441 5.106-1.81 1.977-2.648 1.812-3.417z" class="prefix__cls-16" data-name="Path 11159" transform="translate(-8361.127 -9732.526)"/>
            </g>
            <g id="prefix__Group_4190" class="prefix__cls-13" data-name="Group 4190" transform="translate(5.5 32.24)">
                <path id="prefix__Path_11160" d="M8376.034 9819.236c-.342-.527-1.369-2.5-1.814-3.062s-.608 1.55-1.928 5.041-5.792 6.434-15.022 5.075-7.38-7.847-6.871-6.658 1.8 2.7 1.514 1.384-2.648-10.008-2.652-10.017a15.925 15.925 0 0 0 .279 1.625s-.482 3.077-.879 5.887a35.458 35.458 0 0 1-1.011 4.834s3.34 3.868 12.826 4.566 14.012-3.774 14.012-3.774l-.352-6.413 1.582 5.445a4.728 4.728 0 0 0 1.582-1.447s-.293-2.418-.761-6.039c0 .004-.162 4.081-.505 3.553z" class="prefix__cls-14" data-name="Path 11160" transform="translate(-8347.649 -9810.999)"/>
            </g>
            <path id="prefix__Path_11161" d="M8421.166 9749.847c.839-3.158 1.751-6.842 2.761-6.846s2.028 2.13 1.391 4.049c-1.056 3.166-4.844 5.399-4.152 2.797z" class="prefix__cls-21" data-name="Path 11161" transform="translate(-8385.456 -9738.657)"/>
        </g>
        <g id="prefix__Group_4201" data-name="Group 4201" transform="translate(41.166)">
            <g id="prefix__Group_4193" data-name="Group 4193">
                <path id="prefix__Path_11162" d="M8434.556 9716.3c-.24-2.441-2-1.518-2-1.518a1.682 1.682 0 0 0-1.186-1.162 1.364 1.364 0 0 0-1.35.771c.014-3.979-.957-6.307-1.5-6.283s-.945.084-.462 2.877a15.153 15.153 0 0 1-.265 5.643c-1.821 1.008-1.119 2.965-.7 3.977.148.365.262.662.348.906 2.716.246 3.994 1.3 4.591 2.215 1.243-.656 1.538-2.814 1.538-2.814s1.561 1.031 2.221-1.779-1.235-2.833-1.235-2.833z" class="prefix__cls-1" data-name="Path 11162" transform="translate(-8426.509 -9708.082)"/>
                <g id="prefix__Group_4192" data-name="Group 4192">
                    <path id="prefix__Path_11163" d="M8434.521 9716.251c-.085-.733-.335-1.572-1.171-1.708a1.745 1.745 0 0 0-.993.176c.058 0 .11.015.164.019a1.459 1.459 0 0 0-2.724-.392h.191a19.578 19.578 0 0 0-.352-3.863 6.3 6.3 0 0 0-.723-2.063.672.672 0 0 0-1.262.14 9.548 9.548 0 0 0 .274 3.126 14.519 14.519 0 0 1-.157 3.892c-.049.311-.11.621-.182.927-.025.109-.025.076-.139.148a2.97 2.97 0 0 0-.6.514 2.647 2.647 0 0 0-.325 2.455c.168.64.459 1.238.685 1.86.01.027.048.031.072.031a5.9 5.9 0 0 1 4.521 2.2c.027.04.129.027.162.008a3.858 3.858 0 0 0 1.565-2.851c-.062.014-.12.023-.179.032a1.324 1.324 0 0 0 .915.184c.865-.144 1.255-1.071 1.441-1.827.271-1.09.306-3-1.261-3.032-.084 0-.181.077-.048.077 1.128.027 1.361 1.337 1.264 2.211-.094.892-.795 3.217-2.148 2.338-.033-.022-.168-.027-.176.031a3.811 3.811 0 0 1-1.513 2.789c.053 0 .108 0 .161.009a4.375 4.375 0 0 0-1.606-1.423 6.412 6.412 0 0 0-1.3-.51c-.243-.072-.491-.12-.74-.172-.17-.035-.911-.022-.98-.211a10.281 10.281 0 0 1-.793-2.576 2.377 2.377 0 0 1 .271-1.332 2.14 2.14 0 0 1 .548-.618c.108-.085.334-.131.369-.267a15.18 15.18 0 0 0 .37-2.342 19.6 19.6 0 0 0-.256-4.265c-.056-.414-.289-1.541.216-1.8.45-.233.718.4.86.708a13.575 13.575 0 0 1 .847 5.489c0 .055.168.036.188 0a1.164 1.164 0 0 1 1.6-.591 1.7 1.7 0 0 1 .741.991c.016.055.133.032.166.014a1.38 1.38 0 0 1 .822-.136c.738.117.939 1.022 1.009 1.636.021.046.211.029.206-.026z" class="prefix__cls-2" data-name="Path 11163" transform="translate(-8426.377 -9708.036)"/>
                </g>
            </g>
            <g id="prefix__Group_4199" data-name="Group 4199" transform="translate(.672 5.486)">
                <g id="prefix__Group_4194" data-name="Group 4194" transform="translate(0 1.203)">
                    <path id="prefix__Path_11164" d="M8428.015 9726.664l.1-.119a1.7 1.7 0 0 1 .333-.3 3.317 3.317 0 0 1 .621-.292c.25-.095.536-.181.841-.284a5.272 5.272 0 0 0 .935-.428c.308-.18.6-.445.974-.648a2.21 2.21 0 0 1 .611-.239.932.932 0 0 1 .367 0 .681.681 0 0 1 .335.2 1.17 1.17 0 0 1 .279.663 1.737 1.737 0 0 1-.085.693 2.38 2.38 0 0 1-.779 1.1 3.747 3.747 0 0 1-1.126.626c-.2.063-.393.125-.586.171l-.288.054-.124.027h-.016a.1.1 0 0 0 .027-.019.064.064 0 0 0 .015-.031c0-.009 0 0 .008.022.059.144.167.31.242.464a4.317 4.317 0 0 1 .208.473 2.255 2.255 0 0 1 .009 1.576 2.061 2.061 0 0 1-.188.4l-.079.135s.022-.05.065-.14a2.462 2.462 0 0 0 .148-.409 2.232 2.232 0 0 0 .081-.662 2.472 2.472 0 0 0-.188-.838 3.3 3.3 0 0 0-.219-.441c-.084-.153-.187-.284-.278-.481a.283.283 0 0 1-.021-.113.169.169 0 0 1 .04-.1.2.2 0 0 1 .055-.036l.015-.009h.053l.036-.009.067-.019c.09-.023.181-.046.274-.062.186-.055.371-.109.555-.181a3.415 3.415 0 0 0 1.039-.595 2.115 2.115 0 0 0 .681-.981 1.554 1.554 0 0 0 .081-.581.923.923 0 0 0-.2-.509.471.471 0 0 0-.46-.127 1.941 1.941 0 0 0-.536.208c-.342.18-.652.423-.991.608a5.092 5.092 0 0 1-.987.4c-.313.095-.6.157-.856.23a3.107 3.107 0 0 0-.627.242 1.879 1.879 0 0 0-.349.257l-.112.104z" class="prefix__cls-23" data-name="Path 11164" transform="translate(-8428.015 -9724.341)"/>
                </g>
                <g id="prefix__Group_4195" data-name="Group 4195" transform="translate(3.168 .728)">
                    <path id="prefix__Path_11165" d="M8435.916 9726.851a2.561 2.561 0 0 0-.063.324 1.609 1.609 0 0 0-.008.375.673.673 0 0 0 .17.4.519.519 0 0 0 .212.1.3.3 0 0 0 .135.022.432.432 0 0 0 .133 0 1.341 1.341 0 0 0 .558-.207 2.457 2.457 0 0 0 .863-1.006 3.3 3.3 0 0 0 .136-.313 1.97 1.97 0 0 0 .09-.334 3.322 3.322 0 0 0 .041-.658c-.011-.22-.032-.432-.059-.634s-.066-.4-.1-.572c-.081-.353-.15-.644-.212-.847s-.094-.32-.094-.32.059.108.146.3a7.8 7.8 0 0 1 .316.823c.055.176.106.37.154.572a4.284 4.284 0 0 1 .105.662 3.069 3.069 0 0 1-.021.734 2.838 2.838 0 0 1-.241.716 2.58 2.58 0 0 1-.992 1.094 1.411 1.411 0 0 1-.676.2 1.088 1.088 0 0 1-.334-.054.7.7 0 0 1-.274-.172.737.737 0 0 1-.16-.509 1.678 1.678 0 0 1 .062-.387 1.7 1.7 0 0 1 .113-.309z" class="prefix__cls-23" data-name="Path 11165" transform="translate(-8435.737 -9723.185)"/>
                </g>
                <g id="prefix__Group_4196" data-name="Group 4196" transform="translate(4.736 2.089)">
                    <path id="prefix__Path_11166" d="M8442.078 9726.5a1.363 1.363 0 0 1 .1.242 2.516 2.516 0 0 1 .076.3 2.894 2.894 0 0 1 .056.4 3.423 3.423 0 0 1 .008.473 4.374 4.374 0 0 1-.055.527 5.279 5.279 0 0 1-.116.554l-.037.139-.049.146a1.975 1.975 0 0 1-.117.274 1.887 1.887 0 0 1-.161.266 1.673 1.673 0 0 1-.191.234 1.115 1.115 0 0 1-.224.2 1.245 1.245 0 0 1-.246.162 1.532 1.532 0 0 1-.524.181 1.215 1.215 0 0 1-.5-.026.779.779 0 0 1-.365-.213.641.641 0 0 1-.153-.279.511.511 0 0 1-.021-.2v-.068s.007.022.016.068a.685.685 0 0 0 .062.18.558.558 0 0 0 .176.218.4.4 0 0 0 .149.079c.025.014.056.023.082.036s.063.01.1.015a1.16 1.16 0 0 0 .422-.022 1.708 1.708 0 0 0 .436-.19 1.212 1.212 0 0 0 .205-.147 1.535 1.535 0 0 0 .188-.186 1.833 1.833 0 0 0 .3-.427 2.109 2.109 0 0 0 .114-.253l.044-.126.036-.136c.042-.18.108-.351.14-.522s.072-.337.085-.5a3.8 3.8 0 0 0 .041-.45 3.717 3.717 0 0 0 0-.387 2.189 2.189 0 0 0-.025-.3 1.988 1.988 0 0 0-.052-.262z" class="prefix__cls-23" data-name="Path 11166" transform="translate(-8439.558 -9726.501)"/>
                </g>
                <g id="prefix__Group_4197" data-name="Group 4197" transform="translate(5.837 6.034)">
                    <path id="prefix__Path_11167" d="M8442.314 9736.116s.045.122.1.289l.091.28a3.06 3.06 0 0 0 .122.3 1.137 1.137 0 0 0 .148.267 1.313 1.313 0 0 0 .09.1c.031.027.061.063.092.085s.065.045.093.067.062.033.083.042c.048.026.076.039.076.039a.431.431 0 0 1-.085.019.536.536 0 0 1-.236-.014.778.778 0 0 1-.3-.171.734.734 0 0 1-.126-.147 1.245 1.245 0 0 1-.1-.173 1.4 1.4 0 0 1-.112-.679 1.1 1.1 0 0 1 .064-.304z" class="prefix__cls-23" data-name="Path 11167" transform="translate(-8442.242 -9736.116)"/>
                </g>
                <g id="prefix__Group_4198" data-name="Group 4198" transform="translate(2.617)">
                    <path id="prefix__Path_11168" d="M8434.523 9721.439a8.185 8.185 0 0 1-.131 2.252c-.009.05.181.072.194.014a8.142 8.142 0 0 0 .128-2.247c-.007-.059-.2-.062-.191-.019z" class="prefix__cls-23" data-name="Path 11168" transform="translate(-8434.393 -9721.41)"/>
                </g>
            </g>
            <g id="prefix__Group_4200" class="prefix__cls-3" data-name="Group 4200" transform="translate(.092 .031)">
                <path id="prefix__Path_11169" d="M8435.824 9717.322c-.165 3.668-2.862 3.549-1.729 2.1a3.556 3.556 0 0 0 .688-3.086 1.161 1.161 0 0 0-.23-.031 3.29 3.29 0 0 1-.306 2.018c-.529 1.318-1.6.992-1-.459a3.8 3.8 0 0 0-.372-3.193 1.628 1.628 0 0 0-.325.117 2.021 2.021 0 0 0-.3-.58.671.671 0 0 1-1.3.088 1.835 1.835 0 0 0-.234-.594 1.616 1.616 0 0 0-.7.7v-.037l-.055 1.5a10.19 10.19 0 0 1 1.295-.83c.508-.242 1.273.924 0 1.766s-2.087.957-1.977 1.158.395.7.608 1.008c.921 1.334.093 2.414-.764 2.2a3.1 3.1 0 0 1-1.864-3.039 2.872 2.872 0 0 1 1.441-1.828c-.491-.135-.234-.717-.059-2a24.307 24.307 0 0 0-.244-5.084c-.044-.559.072-.906.275-1.037a.3.3 0 0 0-.163-.061c-.548.025-.945.084-.462 2.877a15.153 15.153 0 0 1-.265 5.643c-1.821 1.008-1.119 2.965-.7 3.977.148.365.262.662.348.906 2.716.246 3.994 1.3 4.591 2.215 1.243-.656 1.538-2.814 1.538-2.814s1.561 1.031 2.221-1.779a3.466 3.466 0 0 0 .044-1.821zm-2.734 4.211c-.213 1.352-1.536.9-2.13.49s-1.17-1.346-.312-1.293a1.773 1.773 0 0 0 1.694-.746c.198-.445.958.194.748 1.549z" class="prefix__cls-4" data-name="Path 11169" transform="translate(-8426.601 -9708.113)"/>
            </g>
            <path id="prefix__Path_11170" fill="#bb794b" d="M8433.093 9733.306c.395.446 1.109 2.009.164 2.283-.363.111.412-.436-.164-2.283z" data-name="Path 11170" transform="translate(-8430.337 -9722.938)" style="mix-blend-mode:screen;isolation:isolate" opacity="0.3"/>
            <path id="prefix__Path_11171" d="M8431.808 9709.824a22.266 22.266 0 0 1 .526 6.843s1.318-2.428-.526-6.843z" class="prefix__cls-7" data-name="Path 11171" transform="translate(-8429.579 -9709.091)"/>
        </g>
        <g id="prefix__Group_4211" data-name="Group 4211" transform="translate(13.089 28.929)">
            <g id="prefix__Group_4210" data-name="Group 4210">
                <g id="prefix__Group_4203" data-name="Group 4203">
                    <path id="prefix__Path_11172" d="M8367.609 9780.7c-.593-1.279-1.229-2.464-2.528-1.937a47.576 47.576 0 0 0-4.916 2.974 8.779 8.779 0 0 0-1.589 2.828 8.46 8.46 0 0 0-.405 1.692 3.24 3.24 0 0 0 2.074.586 4.105 4.105 0 0 0 2.073-1.55l.332.595s-1.218 1.319-.363 1.712a2.342 2.342 0 0 0 2.7-1.153s.171.216.635.01a1.49 1.49 0 0 0 .666-.758.63.63 0 0 0 .824-.115 2 2 0 0 0 .4-1.33 3.771 3.771 0 0 0 .732-.919c.313-.56-.044-1.365-.635-2.635z" class="prefix__cls-1" data-name="Path 11172" transform="translate(-8358.076 -9778.597)"/>
                    <g id="prefix__Group_4202" data-name="Group 4202">
                        <path id="prefix__Path_11173" d="M8367.565 9780.652c-.468-1-1.1-2.337-2.423-2.066a5.3 5.3 0 0 0-1.41.67c-.554.315-1.094.648-1.63.991q-1.1.688-2.162 1.41a2.859 2.859 0 0 0-.569.756 7.781 7.781 0 0 0-.566.986 8.864 8.864 0 0 0-.864 2.783c0 .014.014.028.022.037a2.92 2.92 0 0 0 2.712.436 4.043 4.043 0 0 0 1.6-1.387c-.059-.009-.121-.022-.183-.036.108.194.214.389.322.581.011.018-.274.352-.3.4-.212.306-.587.944-.182 1.251a2.259 2.259 0 0 0 3.022-1.049l-.18-.014c.5.527 1.3-.284 1.48-.734h-.166a.757.757 0 0 0 .854 0 1.706 1.706 0 0 0 .541-1.433c0-.086.4-.437.461-.514a1.542 1.542 0 0 0 .383-.833 5.02 5.02 0 0 0-.757-2.229c-.022-.05-.206-.059-.185-.014a11.14 11.14 0 0 1 .689 1.7 1.565 1.565 0 0 1-.484 1.531c-.205.242-.287.233-.3.536a2.7 2.7 0 0 1-.11.611c-.1.334-.521.915-.945.613-.032-.023-.149-.059-.166 0-.109.27-.744 1.161-1.123.765-.027-.026-.16-.072-.18-.018a1.727 1.727 0 0 1-.92.941c-.461.243-1.485.563-1.844.018-.288-.432.332-1.171.606-1.473.006 0 .009-.008 0-.018-.107-.2-.219-.4-.33-.595-.021-.041-.15-.081-.182-.036a4.791 4.791 0 0 1-1.043 1.055 2.089 2.089 0 0 1-1.671.463 3.937 3.937 0 0 1-1.14-.463c-.2-.113-.022-.6.014-.757a9.051 9.051 0 0 1 1.227-2.937 3.116 3.116 0 0 1 .854-1.008c1.045-.7 2.1-1.384 3.185-2.023a12.046 12.046 0 0 1 1.5-.8c1.281-.531 1.931.978 2.36 1.892.018.047.206.059.183.011z" class="prefix__cls-2" data-name="Path 11173" transform="translate(-8357.94 -9778.551)"/>
                    </g>
                </g>
                <g id="prefix__Group_4208" data-name="Group 4208" transform="translate(4.418 3.201)">
                    <g id="prefix__Group_4204" data-name="Group 4204" transform="translate(1.464 2.198)">
                        <path id="prefix__Path_11174" d="M8372.278 9791.711s.038.035.1.1a1.937 1.937 0 0 1 .25.283 9.041 9.041 0 0 1 .633.957 2.5 2.5 0 0 1 .262.588.93.93 0 0 1 .019.32 1.093 1.093 0 0 1-.107.26 1.619 1.619 0 0 1-.137.182l-.128.111a.91.91 0 0 1-.113.09s.024-.045.071-.125c.021-.043.048-.086.08-.141s.047-.117.074-.184a1.373 1.373 0 0 0 .043-.217.9.9 0 0 0-.05-.23 1.253 1.253 0 0 0-.114-.246c-.053-.086-.1-.176-.152-.266s-.1-.186-.147-.271-.095-.176-.14-.256c-.09-.174-.167-.338-.23-.479s-.125-.26-.16-.346l-.054-.13z" class="prefix__cls-23" data-name="Path 11174" transform="translate(-8372.278 -9791.711)"/>
                    </g>
                    <g id="prefix__Group_4205" data-name="Group 4205" transform="translate(2.748 1.239)">
                        <path id="prefix__Path_11175" d="M8375.407 9789.371a4.142 4.142 0 0 1 .349.406c.1.125.2.279.3.449.047.088.1.176.147.271s.1.188.138.287a3.433 3.433 0 0 1 .189.609 1.292 1.292 0 0 1 .032.3.9.9 0 0 1-.035.275c-.014.039-.021.08-.035.117a.664.664 0 0 1-.054.1.418.418 0 0 1-.1.141l-.108.1.062-.133a.47.47 0 0 0 .048-.15.548.548 0 0 0 .025-.191 1.1 1.1 0 0 0-.015-.236c-.02-.082-.037-.166-.064-.256a5.236 5.236 0 0 0-.209-.555c-.035-.1-.086-.189-.126-.283s-.076-.18-.117-.271c-.086-.174-.159-.34-.22-.48-.133-.291-.207-.5-.207-.5z" class="prefix__cls-23" data-name="Path 11175" transform="translate(-8375.407 -9789.371)"/>
                    </g>
                    <g id="prefix__Group_4206" data-name="Group 4206" transform="translate(4.131)">
                        <path id="prefix__Path_11176" d="M8378.778 9786.353a2.471 2.471 0 0 1 .323.378 3.231 3.231 0 0 1 .271.438 3.763 3.763 0 0 1 .239.537c.036.094.06.192.089.291s.036.194.057.29a2.276 2.276 0 0 1 .017.516 2.111 2.111 0 0 1-.037.209.648.648 0 0 1-.045.152c-.032.086-.054.132-.054.132v-.141a3.227 3.227 0 0 0-.027-.347l-.041-.226c-.014-.081-.036-.163-.059-.247-.05-.172-.1-.357-.168-.533s-.134-.358-.2-.525l-.184-.463c-.113-.272-.181-.461-.181-.461z" class="prefix__cls-23" data-name="Path 11176" transform="translate(-8378.778 -9786.353)"/>
                    </g>
                    <g id="prefix__Group_4207" data-name="Group 4207" transform="translate(0 3.801)">
                        <path id="prefix__Path_11177" d="M8368.71 9795.619a1.934 1.934 0 0 1 .181.162 2.134 2.134 0 0 1 .163.17c.056.064.116.127.17.193l.086.1c.029.025.05.064.077.094a1.443 1.443 0 0 1 .146.176 1.26 1.26 0 0 1 .158.18.967.967 0 0 1-.25-.045 1.575 1.575 0 0 1-.226-.121 1.623 1.623 0 0 1-.212-.2 1.278 1.278 0 0 1-.157-.234 1.056 1.056 0 0 1-.095-.23.789.789 0 0 1-.041-.245z" class="prefix__cls-23" data-name="Path 11177" transform="translate(-8368.71 -9795.619)"/>
                    </g>
                </g>
                <g id="prefix__Group_4209" class="prefix__cls-3" data-name="Group 4209" transform="translate(.095 .033)">
                    <path id="prefix__Path_11178" d="M8367.609 9780.7c-.593-1.279-1.229-2.464-2.528-1.937a47.576 47.576 0 0 0-4.916 2.974 8.779 8.779 0 0 0-1.589 2.828 8.46 8.46 0 0 0-.405 1.692 3.24 3.24 0 0 0 2.074.586 4.105 4.105 0 0 0 2.073-1.55l.332.595s-1.218 1.319-.363 1.712a2.342 2.342 0 0 0 2.7-1.153s.171.216.635.01a1.49 1.49 0 0 0 .666-.758.63.63 0 0 0 .824-.115 2 2 0 0 0 .4-1.33 3.771 3.771 0 0 0 .732-.919c.313-.56-.044-1.365-.635-2.635zm-3.214 2.341c-1.888 2.153-5.35 2.852-5.116 1.212a3.483 3.483 0 0 1 1.535-2.726c1.757-1.17 4.437-3.029 5.077-2.549s.393 1.906-1.491 4.058z" class="prefix__cls-4" data-name="Path 11178" transform="translate(-8358.171 -9778.63)"/>
                </g>
            </g>
            <path id="prefix__Path_11179" d="M8362.053 9784.934a9.09 9.09 0 0 1 4.755-3.986c1.35-.482.661-.1-.437.857-1.609 1.395-5.01 4.304-4.318 3.129z" class="prefix__cls-7" data-name="Path 11179" transform="translate(-8360.312 -9779.841)"/>
        </g>
        <g id="prefix__Group_4222" data-name="Group 4222" transform="translate(0 26.137)">
            <g id="prefix__Group_4219" data-name="Group 4219">
                <g id="prefix__Group_4213" data-name="Group 4213" transform="translate(7.291 9.588)">
                    <path id="prefix__Path_11180" d="M8347.029 9800.257a13.466 13.466 0 0 1-2.888-5.021l2.625 1.64z" class="prefix__cls-25" data-name="Path 11180" transform="translate(-8344.004 -9795.186)"/>
                    <g id="prefix__Group_4212" data-name="Group 4212">
                        <path id="prefix__Path_11181" d="M8346.963 9800.167a11.684 11.684 0 0 1-2.883-5.008c-.083.015-.167.022-.249.03.456.29.911.574 1.366.856.188.117 1.229.641 1.238.784q.135 1.683.264 3.355c.007.082.274.072.268 0-.086-1.125-.177-2.252-.261-3.378-.017-.192-1.009-.652-1.165-.748l-1.479-.923c-.031-.021-.274-.045-.252.027a11.81 11.81 0 0 0 2.894 5.039c.061.057.296.008.259-.034z" class="prefix__cls-26" data-name="Path 11181" transform="translate(-8343.809 -9795.115)"/>
                    </g>
                </g>
                <g id="prefix__Group_4218" data-name="Group 4218">
                    <g id="prefix__Group_4215" data-name="Group 4215">
                        <path id="prefix__Path_11182" d="M8336.23 9774.3a1.331 1.331 0 0 1 .681.066c.152.036.306-.36-.122-.612 0 0 .175-.062.013-.612s-.54-1.356-1.441-1.275a8.242 8.242 0 0 0-4.9 2.405c-1.8 1.834-1.9 2.036-2.193 4.126s-.723 5.287-.837 8.075a37.889 37.889 0 0 1-1.153 6.323c-.1.758.756 2.108 3.292 2.733s3.592-.692 3.756-1.021-.626-4.477-1.084-6.652-1.023-4.282-1.023-4.282a36.969 36.969 0 0 1 .448-4.3 5.7 5.7 0 0 1 4.563-4.974z" class="prefix__cls-25" data-name="Path 11182" transform="translate(-8326.176 -9771.812)"/>
                        <g id="prefix__Group_4214" data-name="Group 4214">
                            <path id="prefix__Path_11183" d="M8336.15 9774.283c.092-.01.781.2.871-.027a.4.4 0 0 0-.1-.465c-.2-.152-.067-.066-.055-.342a1.662 1.662 0 0 0-1.792-1.7 8.126 8.126 0 0 0-3.462 1.266 10.161 10.161 0 0 0-1.889 1.645 6.878 6.878 0 0 0-1.212 1.527 11.94 11.94 0 0 0-.752 3.871c-.257 1.945-.468 3.9-.577 5.857a29.241 29.241 0 0 1-.9 5.6c-.216.871-.479 1.59.143 2.354 1.344 1.648 4.582 2.529 6.384 1.176.577-.434.563-.785.482-1.457-.158-1.307-.417-2.6-.667-3.887q-.466-2.4-1.05-4.77c-.114-.473-.233-.945-.358-1.414a4.775 4.775 0 0 1 .083-1.3 13.558 13.558 0 0 1 1.066-5.094 5.34 5.34 0 0 1 3.814-2.838c.138-.027-.111-.113-.178-.105a5.488 5.488 0 0 0-3.531 2.279 9.464 9.464 0 0 0-1.315 4.461 8.284 8.284 0 0 0-.139 2.822c.412 1.586.783 3.176 1.112 4.783.3 1.451.576 2.91.8 4.373.114.734.354 1.406-.23 1.965-1.346 1.283-3.661.648-5.071-.182a3.014 3.014 0 0 1-1.237-1.287 1.762 1.762 0 0 1 .013-1.248c.241-1 .5-1.994.7-3.012a34.658 34.658 0 0 0 .411-4.127c.166-2.414.474-4.822.838-7.209a4.588 4.588 0 0 1 .745-2.068 11.168 11.168 0 0 1 2.565-2.5 8.268 8.268 0 0 1 2.892-1.254 1.461 1.461 0 0 1 1.709.465c.126.193.545 1.059.279 1.213a.029.029 0 0 0-.007.053c.315.24.376.559-.05.475a1.423 1.423 0 0 0-.455 0c-.175.006.036.109.12.101z" class="prefix__cls-26" data-name="Path 11183" transform="translate(-8326.035 -9771.744)"/>
                        </g>
                    </g>
                    <g id="prefix__Group_4216" data-name="Group 4216" transform="translate(5.199 1.634)">
                        <path id="prefix__Path_11184" d="M8338.708 9778.055l.018-.071a.713.713 0 0 1 .079-.194 2.379 2.379 0 0 1 .476-.581 6.04 6.04 0 0 1 1.95-1.139 5.472 5.472 0 0 1 1.175-.3 3.543 3.543 0 0 1 1.063-.01 1.9 1.9 0 0 1 .414.107 1.54 1.54 0 0 1 .295.144 1.774 1.774 0 0 1 .222.173.68.68 0 0 1-.062-.037c-.041-.021-.1-.054-.185-.09a1.517 1.517 0 0 0-.3-.09 2.424 2.424 0 0 0-.4-.055 5.667 5.667 0 0 0-2.133.405 9.806 9.806 0 0 0-1.072.474 7.341 7.341 0 0 0-.872.531 3.72 3.72 0 0 0-.313.261 1.453 1.453 0 0 0-.215.23 1.035 1.035 0 0 0-.11.17c-.019.049-.03.072-.03.072z" class="prefix__cls-26" data-name="Path 11184" transform="translate(-8338.708 -9775.728)"/>
                    </g>
                    <g id="prefix__Group_4217" data-name="Group 4217" transform="translate(4.645 10.281)">
                        <path id="prefix__Path_11185" d="M8337.857 9796.8v.379c0 .243 0 .581-.01.99s-.014.892-.035 1.405-.046 1.063-.072 1.613-.069 1.094-.108 1.608-.086.985-.122 1.4-.08.752-.1.991-.049.373-.049.373v-.373c0-.237 0-.587.008-1s.015-.891.035-1.405.047-1.062.074-1.608.068-1.095.107-1.607.086-.991.122-1.4.081-.752.1-.989.05-.377.05-.377z" class="prefix__cls-26" data-name="Path 11185" transform="translate(-8337.357 -9796.804)"/>
                    </g>
                </g>
            </g>
            <g id="prefix__Group_4220" class="prefix__cls-13" data-name="Group 4220" transform="translate(.098 .047)">
                <path id="prefix__Path_11186" d="M8336.789 9773.752s.175-.062.013-.612-.54-1.356-1.441-1.275a8.242 8.242 0 0 0-4.9 2.405c-1.8 1.834-1.9 2.036-2.193 4.126s-.723 5.287-.837 8.075a37.889 37.889 0 0 1-1.153 6.323c-.1.758.756 2.108 3.292 2.733s3.592-.692 3.756-1.021-.626-4.477-1.084-6.652-1.023-4.282-1.023-4.282a36.969 36.969 0 0 1 .448-4.3 5.7 5.7 0 0 1 4.561-4.976 1.331 1.331 0 0 1 .681.066c.154.038.308-.362-.12-.61zm-1.13-1.1c-.439.748-4.147 1-4.964 4.307a6.189 6.189 0 0 1 3.328-2.843c.691-.274 1.439-.3-.091.743-1.114.766-2.963 1.478-3.566 7.422-1.122 11.039.031 10.481.706 8.567s2.479 5.176-1.436 4.32-2.881-3.087-2.453-4.5.92-8.585 1.358-11.86c.36-2.684.55-3.053 2.68-4.922s4.879-1.981 4.438-1.234z" class="prefix__cls-25" data-name="Path 11186" transform="translate(-8326.273 -9771.858)"/>
            </g>
            <path id="prefix__Path_11187" d="M8329.692 9784.708c.441-4.364.625-5.75 1.68-6.976s2.9-2.1 1.5-.78c-1.121 1.055-1.479 1.7-2.033 6.41s-.984 9.214-1.379 10.628-.668 1.915-.166 2.7-1.416-.3-.887-2.275.593-2.847 1.285-9.707z" class="prefix__cls-27" data-name="Path 11187" transform="translate(-8327.381 -9774.428)"/>
            <g id="prefix__Group_4221" class="prefix__cls-13" data-name="Group 4221" transform="translate(7.428 9.637)">
                <path id="prefix__Path_11188" d="M8346.767 9796.875l-2.625-1.64a16.43 16.43 0 0 0 .689 1.746c.5-.576 1.813.293 1.736 2.8a5.88 5.88 0 0 0 .462.473z" class="prefix__cls-25" data-name="Path 11188" transform="translate(-8344.142 -9795.235)"/>
            </g>
        </g>
        <g id="prefix__Group_4232" data-name="Group 4232" transform="translate(35.74 18.25)">
            <g id="prefix__Group_4226" data-name="Group 4226" transform="translate(0 10.794)">
                <g id="prefix__Group_4224" data-name="Group 4224">
                    <path id="prefix__Path_11189" d="M8413.464 9783.016l1.2 8.571s3.535-4.244 4.47-12.59c0 0-1.259 2.176-3.941.8a12.651 12.651 0 0 1-1.729 3.219z" class="prefix__cls-25" data-name="Path 11189" transform="translate(-8413.336 -9778.929)"/>
                    <g id="prefix__Group_4223" data-name="Group 4223">
                        <path id="prefix__Path_11190" d="M8413.15 9782.893l1.2 8.572c.01.063.207.121.25.071a15.158 15.158 0 0 0 1.863-3.112 29.642 29.642 0 0 0 2.616-9.489c.01-.081-.216-.145-.257-.077a2.8 2.8 0 0 1-3.764.8c-.031-.018-.159-.055-.178 0a12.158 12.158 0 0 1-1.72 3.206c-.055.073.2.158.238.1a11.966 11.966 0 0 0 1.738-3.229h-.175c1.4.676 3.233.688 4.116-.806-.086-.026-.171-.05-.257-.077a30.179 30.179 0 0 1-2.559 9.364 14.964 14.964 0 0 1-1.9 3.216c.08.021.167.045.247.072l-1.2-8.571c-.008-.068-.271-.12-.258-.04z" class="prefix__cls-26" data-name="Path 11190" transform="translate(-8413.149 -9778.829)"/>
                    </g>
                </g>
                <g id="prefix__Group_4225" class="prefix__cls-13" data-name="Group 4225" transform="translate(.129 .069)">
                    <path id="prefix__Path_11191" d="M8414.466 9782.809c.464-1.839.343 1.8 1.352 7.017a28.3 28.3 0 0 0 3.316-10.828s-1.259 2.176-3.941.8a12.651 12.651 0 0 1-1.729 3.221l1.2 8.571s.13-.158.349-.475c-.313-2.226-.913-6.875-.547-8.306z" class="prefix__cls-25" data-name="Path 11191" transform="translate(-8413.464 -9778.997)"/>
                </g>
            </g>
            <g id="prefix__Group_4231" data-name="Group 4231" transform="translate(1.418)">
                <g id="prefix__Group_4228" data-name="Group 4228">
                    <path id="prefix__Path_11192" d="M8417.863 9753.414c.358-1.215.66-.756 1.088.163a53.841 53.841 0 0 1 2.6 10.084c1.086 5.827 3.87 13.472 4.976 16.606.2.559-.3 1.445-1.978 1.742a8.032 8.032 0 0 1-5.008-.2c-.429-.2.264-1.152-.661-5.237s-2.237-9.59-2.04-15.057.63-6.749 1.023-8.101z" class="prefix__cls-25" data-name="Path 11192" transform="translate(-8416.734 -9752.613)"/>
                    <g id="prefix__Group_4227" data-name="Group 4227">
                        <path id="prefix__Path_11193" d="M8417.864 9753.361c.107-.333.295-.884.6-.373a5.035 5.035 0 0 1 .317.662c.136.319.249.648.36.976.378 1.127.687 2.275.979 3.424.882 3.509 1.428 7.084 2.391 10.57.886 3.2 1.943 6.355 3.045 9.485.189.531.376 1.068.567 1.6s.284.913-.121 1.383a3.56 3.56 0 0 1-2.155.851 8.2 8.2 0 0 1-3.935-.076c-.423-.141-.509-.145-.522-.5-.009-.27.014-.55.014-.819a18.034 18.034 0 0 0-.405-3.522c-.648-3.211-1.446-6.373-1.856-9.63a45.482 45.482 0 0 1-.042-10.048 21.656 21.656 0 0 1 .768-3.977c.022-.072-.233-.158-.257-.081a25.3 25.3 0 0 0-.883 5.364 48.108 48.108 0 0 0 .7 12.129c.595 3.257 1.763 6.548 1.724 9.886-.006.307-.136.86.166 1.067a4.407 4.407 0 0 0 1.821.519 9.362 9.362 0 0 0 2.676-.145c.819-.127 2.831-.41 2.763-1.658a5.053 5.053 0 0 0-.415-1.3q-.343-.959-.675-1.92c-1.125-3.229-2.184-6.489-3.054-9.795-.9-3.414-1.409-6.915-2.317-10.329-.264-.989-.548-1.973-.9-2.936-.175-.5-.438-1.509-1.008-1.635-.393-.085-.513.491-.6.752-.024.068.232.153.254.076z" class="prefix__cls-26" data-name="Path 11193" transform="translate(-8416.607 -9752.52)"/>
                    </g>
                </g>
                <g id="prefix__Group_4229" data-name="Group 4229" transform="translate(1.547 .175)">
                    <path id="prefix__Path_11194" d="M8420.6 9752.946s-.022.342-.04.941-.031 1.454-.019 2.478c0 .513.023 1.067.041 1.652s.061 1.2.1 1.842.085 1.3.161 1.969c.033.333.069.671.105 1.01s.088.675.133 1.012.079.676.133 1.015l.162 1c.095.666.234 1.31.355 1.94s.267 1.229.4 1.8c.063.283.129.563.188.833.077.266.149.521.217.771.139.49.253.945.371 1.347s.237.743.329 1.027c.181.571.281.9.281.9l-.329-.879c-.1-.278-.231-.621-.378-1.013s-.271-.847-.421-1.337c-.074-.249-.156-.5-.236-.766s-.143-.545-.215-.834c-.148-.567-.314-1.166-.434-1.8s-.275-1.283-.377-1.95c-.056-.328-.114-.667-.168-1s-.1-.68-.144-1.022-.084-.68-.127-1.019-.063-.679-.095-1.013c-.072-.671-.1-1.338-.145-1.977s-.051-1.262-.062-1.852-.01-1.145 0-1.657.028-.987.05-1.4.045-.784.067-1.08c.049-.6.097-.938.097-.938z" class="prefix__cls-26" data-name="Path 11194" transform="translate(-8420.378 -9752.946)"/>
                </g>
                <g id="prefix__Group_4230" class="prefix__cls-13" data-name="Group 4230" transform="translate(.089 .065)">
                    <path id="prefix__Path_11195" d="M8426.529 9780.268c-1.105-3.135-3.89-10.779-4.976-16.606a53.841 53.841 0 0 0-2.6-10.084c-.428-.919-.729-1.378-1.088-.163-.394 1.352-.821 2.636-1.021 8.1s1.119 10.971 2.04 15.057.232 5.039.661 5.237a8.032 8.032 0 0 0 5.008.2c1.679-.296 2.172-1.183 1.976-1.741zm-1.057.59c-1.085-.031-1.284.994-3 .923s-2.437.1-2.34-1.287-.881-5.171-1.775-9.121a37.028 37.028 0 0 1-1.056-9.009c.074-3.908.657-5.588.79-3.115s1.158 12.024 3.6 15.911a83.563 83.563 0 0 1-2.416-11.683c-.46-4.792.8-4.7 1.5.328a63.474 63.474 0 0 0 4 13.562c1.391 3.62 1.788 3.522.698 3.49z" class="prefix__cls-25" data-name="Path 11195" transform="translate(-8416.823 -9752.679)"/>
                </g>
                <path id="prefix__Path_11196" d="M8419.717 9781.05s1.459 8.377 3.414 13.256c.603 1.508-4.004-6.149-3.414-13.256z" class="prefix__cls-27" data-name="Path 11196" transform="translate(-8418.409 -9769.345)"/>
                <path id="prefix__Path_11197" d="M8423.625 9773.575s1.894 10 4.1 15.782c.68 1.784-4.319-7.22-4.1-15.782z" class="prefix__cls-27" data-name="Path 11197" transform="translate(-8420.742 -9764.938)"/>
            </g>
        </g>
    </g>
</svg>
