<svg xmlns="http://www.w3.org/2000/svg" width="85.675" height="26.63" viewBox="0 0 85.675 26.63">
    <path d="M2.488 6.931c1.424 1.376 1.567 5.411 1.567 5.411 1.471 11.488 6.883 14.289 15.664 14.289s10.728-1.946 13.244-3.94 4.463-9.066 5.27-11.582 4.6-2.753 4.6-2.753 3.8.237 4.605 2.753 2.752 9.589 5.269 11.582 4.462 3.94 13.244 3.94 14.193-2.8 15.666-14.289c0 0 .141-4.034 1.565-5.411s2.137-1.377 2.137-2.516 2.041-2.943-3.7-3.371S73.075.001 66.951.001 51.12.072 49.482 1.709s-3.608 2.136-7.026 2.136-4.627-.5-6.265-2.136S24.847.001 18.727.001 9.802.618 4.059 1.044s-3.7 2.231-3.7 3.371.705 1.139 2.129 2.516zM54.183 3.37c5.269-1.614 18.18-2.136 23.876-.237 0 0 2.326.617 2.279 3.845s-1.329 10.253-2.279 12.295-1.851 5.791-12.342 6.076-14.051-5.27-15.19-10.3S48.913 4.984 54.183 3.37zM7.899 3.133c5.7-1.9 18.608-1.376 23.878.237s4.794 6.646 3.656 11.678-4.7 10.585-15.191 10.3S8.85 21.313 7.899 19.272 5.668 10.205 5.621 6.977s2.278-3.844 2.278-3.844z" data-name="Path 9874"/>
</svg>
