<svg xmlns="http://www.w3.org/2000/svg" width="37.114" height="37.114" viewBox="0 0 37.114 37.114">
    <defs>
        <style>
            .prefix__cls-1{fill:#fff}
        </style>
    </defs>
    <g id="prefix__Group_3171" data-name="Group 3171">
        <g id="prefix__Group_3169" data-name="Group 3169">
            <g id="prefix__Group_3166" data-name="Group 3166">
                <path id="prefix__Path_4341" d="M1511.806 486.485a17.622 17.622 0 1 0 17.622 17.622 17.642 17.642 0 0 0-17.622-17.622z" class="prefix__cls-1" data-name="Path 4341" transform="translate(-1493.249 -485.55)"/>
                <path id="prefix__Path_4342" d="M1506.717 517.575a18.557 18.557 0 1 1 18.557-18.557 18.578 18.578 0 0 1-18.557 18.557zm0-35.244a16.687 16.687 0 1 0 16.687 16.687 16.706 16.706 0 0 0-16.687-16.687z" class="prefix__cls-1" data-name="Path 4342" transform="translate(-1488.16 -480.461)"/>
            </g>
            <g id="prefix__Group_3167" data-name="Group 3167" transform="translate(.611 .896)">
                <path id="prefix__Path_4343" fill="#d50001" d="M1511.806 486.485a17.622 17.622 0 1 0 17.622 17.622 17.642 17.642 0 0 0-17.622-17.622z" data-name="Path 4343" transform="translate(-1493.86 -486.446)"/>
                <path id="prefix__Path_4344" d="M1510.043 486.312a17.309 17.309 0 0 0-3.427.35 16.511 16.511 0 0 0-3.276 1.046 17.463 17.463 0 0 0-5.579 3.9 18.424 18.424 0 0 0-2.11 2.668q-.464.712-.855 1.467t-.719 1.536a17.911 17.911 0 0 0-1.333 6.612 17.344 17.344 0 0 0 2.783 9.7 16.967 16.967 0 0 0 14.516 7.712 17.426 17.426 0 0 0 3.386-.384 17.969 17.969 0 0 0 3.238-1.029 17.642 17.642 0 0 0 5.573-3.8 17.313 17.313 0 0 0 3.711-5.609 17.745 17.745 0 0 0 .972-3.23 17.524 17.524 0 0 0 .329-3.357 17.247 17.247 0 0 0-.313-3.36 17.863 17.863 0 0 0-.959-3.239q-.316-.785-.71-1.537t-.849-1.468a18.187 18.187 0 0 0-2.1-2.67 17.378 17.378 0 0 0-5.573-3.907 16.513 16.513 0 0 0-3.274-1.047 17.322 17.322 0 0 0-3.431-.354zm0-.078a18.411 18.411 0 0 1 6.784 1.28 18.006 18.006 0 0 1 5.852 3.745 17.358 17.358 0 0 1 3.99 5.75 17.713 17.713 0 0 1 .028 13.784 18.082 18.082 0 0 1-3.941 5.815 17.759 17.759 0 0 1-5.852 3.852 17.545 17.545 0 0 1-6.861 1.269 17.863 17.863 0 0 1-3.47-.386 18.46 18.46 0 0 1-11.311-7.574 17.714 17.714 0 0 1-3.164-9.875 17.19 17.19 0 0 1 1.349-6.874q.343-.812.765-1.588t.927-1.5a17.182 17.182 0 0 1 2.277-2.669 17.923 17.923 0 0 1 5.846-3.747 18.541 18.541 0 0 1 3.333-.963 18.059 18.059 0 0 1 3.448-.319z" class="prefix__cls-1" data-name="Path 4344" transform="translate(-1492.097 -486.234)"/>
            </g>
            <path id="prefix__Path_4345" fill="#d50000" d="M1533.12 508.63a16.791 16.791 0 1 1-16.791-16.791 16.791 16.791 0 0 1 16.791 16.791z" data-name="Path 4345" transform="translate(-1497.772 -490.073)"/>
            <path id="prefix__Path_4346" fill="#7f2c12" d="M1543.653 534.852a16.792 16.792 0 0 1-27.636 19.025 16.792 16.792 0 1 0 27.636-19.025z" data-name="Path 4346" transform="translate(-1511.693 -526.41)" style="isolation:isolate;mix-blend-mode:multiply" opacity="0.24"/>
            <path id="prefix__Path_4347" fill="#fff" d="M1499.592 509.648a16.79 16.79 0 0 1 29.81-10.6 16.791 16.791 0 1 0-26.806 20.189 16.713 16.713 0 0 1-3.004-9.589z" data-name="Path 4347" transform="translate(-1497.169 -490.073)" style="mix-blend-mode:overlay;isolation:isolate" opacity="0.9"/>
            <g id="prefix__Group_3168" data-name="Group 3168" transform="translate(4.324 6.926)">
                <path id="prefix__Path_4348" d="M1527.509 527.91c-.963 1.1-2.105 1.676-2.551 1.286s-.027-1.6.936-2.7 2.1-1.676 2.551-1.286.027 1.599-.936 2.7z" class="prefix__cls-1" data-name="Path 4348" transform="translate(-1523.419 -525.088)"/>
                <path id="prefix__Path_4349" d="M1517.377 557.218a.68.68 0 1 1-.68-.68.68.68 0 0 1 .68.68z" class="prefix__cls-1" data-name="Path 4349" transform="translate(-1516.017 -551.657)"/>
            </g>
        </g>
        <g id="prefix__Group_3170" data-name="Group 3170" transform="translate(7.406 8.689)">
            <path id="prefix__Path_4350" d="M1555.319 543.471c-1.662-1.568-3.391-3.071-5.167-4.511l-.733-.591a1.108 1.108 0 0 0-.375-.246.638.638 0 0 0-.427 0 .994.994 0 0 0-.524.666 7.288 7.288 0 0 0-.05.926c-.006 1.251.045 2.5.085 3.757l.007.217-.234.01c-2.293.1-4.585.153-6.878.142h-.86c-.288 0-.577-.017-.835 0a2.79 2.79 0 0 0-1.417.5 2.743 2.743 0 0 0-.952 1.2 2.778 2.778 0 0 0-.188.761c-.014.127-.016.265-.02.412l-.012.43c0 .287-.025.575-.015.846a2.821 2.821 0 0 0 .152.788 2.829 2.829 0 0 0 2.461 1.88c.555.023 1.142 0 1.711.005 2.292-.012 4.585-.078 6.878-.136l.257-.006.009.27.147 4.586v.07c0 .315.265.451.729.238a3.1 3.1 0 0 0 .338-.177l.17-.106.043-.028.026-.017.083-.062.678-.518q1.354-1.044 2.683-2.121c.886-.716 1.771-1.433 2.629-2.176a27.321 27.321 0 0 0 2.462-2.3 4.852 4.852 0 0 0 .48-.613.707.707 0 0 0 .1-.221.428.428 0 0 0-.051-.22 3.455 3.455 0 0 0-.422-.63c-.17-.212-.356-.422-.547-.628-.768-.819-1.59-1.616-2.421-2.397z" class="prefix__cls-1" data-name="Path 4350" transform="translate(-1536.589 -537.834)"/>
            <path id="prefix__Path_4351" d="M1554.582 542.112c-.585-.541-1.168-1.084-1.775-1.6q-.454-.389-.912-.772l-.93-.75q-.937-.742-1.9-1.452l-.48-.357a.779.779 0 0 0-.4-.223.379.379 0 0 0-.175.024h-.01l.014-.006h-.008l-.033.016c-.009.008-.013.009-.028.021a.531.531 0 0 0-.074.065.846.846 0 0 0-.2.389l.006-.031a9.442 9.442 0 0 0-.019 1.182l.035 1.218.046 1.222.036 1.226.01.342-.341.014c-2.276.091-4.558.069-6.835 0-.568-.018-1.138-.032-1.706-.056a2.673 2.673 0 0 0-.8.083 2.574 2.574 0 0 0-1.754 1.569 2.657 2.657 0 0 0-.168.8c-.01.271-.015.566-.022.846a7.022 7.022 0 0 0 .008.838 2.59 2.59 0 0 0 1.263 1.96 2.641 2.641 0 0 0 .733.3 2.688 2.688 0 0 0 .39.065l.1.007h.308c.278 0 .562-.013.846-.023l.853-.026 6.814-.246.365-.013.015.372.1 2.428c.031.809.072 1.618.1 2.427l-.826.013.826-.012v.036l-.825.025V554l.826-.013v.065a.135.135 0 0 0 0 .018v-.008a.142.142 0 0 0-.062-.07c-.029-.015-.032-.009-.011-.01a.427.427 0 0 0 .1-.02 1.1 1.1 0 0 0 .145-.059c.073-.033.1-.049.163-.082l.082-.047.036-.021.045-.028.09-.056.035-.023.026-.017.012-.008a.437.437 0 0 0-.067.058.364.364 0 0 0-.049.065c-.368.178.687.979.52.6l-.339-.771-.077.059c.8-.614 1.613-1.223 2.408-1.848l2.39-1.879q.6-.466 1.188-.943c.4-.32.794-.631 1.182-.954s.768-.652 1.131-1c.182-.175.359-.348.526-.533.084-.092.164-.185.237-.28.036-.047.072-.1.1-.144.015-.023.028-.048.04-.071l.016-.034.005-.013v.019-.019a.214.214 0 0 0-.014-.1.675.675 0 0 0-.024-.064l-.032-.068a2.573 2.573 0 0 0-.159-.268c-.118-.177-.249-.35-.385-.517-.268-.336-.569-.655-.863-.974s-.6-.632-.91-.936-.64-.593-.958-.894zm.053-.056c.642.59 1.269 1.2 1.895 1.806.311.308.617.616.917.941.149.163.293.329.428.507a2.846 2.846 0 0 1 .192.283l.042.078a.9.9 0 0 1 .039.087.481.481 0 0 1 .04.224v-.02a.225.225 0 0 1-.01.065l-.01.032-.02.054c-.014.034-.029.066-.046.1-.035.064-.067.119-.1.176-.073.113-.151.218-.231.321-.158.205-.33.4-.5.592-.344.382-.706.747-1.074 1.1s-.742.7-1.116 1.046-.76.682-1.145 1.017c-.777.66-1.552 1.313-2.348 1.952s-1.587 1.277-2.4 1.889l-.415-.712c-.168-.382.888.419.52.6a.347.347 0 0 1-.05.066.423.423 0 0 1-.069.059l-.008.005-.008.005-.008.005-.01.006-.018.011-.053.034-.09.055-.045.028-.055.033-.1.057c-.062.035-.159.083-.214.108a2 2 0 0 1-.247.1 1.236 1.236 0 0 1-.314.056.806.806 0 0 1-.419-.094.7.7 0 0 1-.321-.389.82.82 0 0 1-.041-.215V554l.826-.013v.033l-.825.025V554l.826-.012-.826.013c-.027-.809-.039-1.619-.059-2.429l-.054-2.428.38.359c-2.273.037-4.55.078-6.828.033l-.853-.017c-.284 0-.569-.009-.859-.021l-.216-.01-.116-.007-.114-.013a3.1 3.1 0 0 1-.446-.095 3 3 0 0 1-1.95-1.756 2.955 2.955 0 0 1-.209-.869 7.541 7.541 0 0 1 .012-.866c.009-.288.015-.562.03-.859a2.924 2.924 0 0 1 1.282-2.233 3.106 3.106 0 0 1 .8-.379 2.978 2.978 0 0 1 .882-.122c.569 0 1.136-.022 1.705-.033 2.271-.055 4.537-.2 6.805-.3l-.331.356-.043-1.224-.024-1.229c-.006-.409-.009-.824 0-1.233l.007-.311.012-.31a5.564 5.564 0 0 1 .062-.645v-.031a1.4 1.4 0 0 1 .388-.636 1.049 1.049 0 0 1 .159-.121.973.973 0 0 1 .1-.055l.035-.015.034-.014.026-.008a.891.891 0 0 1 .415-.026 1.2 1.2 0 0 1 .619.362l.451.393c.6.524 1.2 1.057 1.791 1.592l1.767 1.616c.584.551 1.176 1.083 1.751 1.639z" class="prefix__cls-1" data-name="Path 4351" transform="translate(-1535.878 -536.447)"/>
        </g>
    </g>
</svg>
