<svg xmlns="http://www.w3.org/2000/svg" xmlns:xlink="http://www.w3.org/1999/xlink" width="38.675" height="38.675" viewBox="0 0 38.675 38.675">
    <defs>
        <linearGradient id="prefix__linear-gradient" x1=".213" x2=".787" y1=".091" y2=".909" gradientUnits="objectBoundingBox">
            <stop offset="0" stop-color="#adf00d"/>
            <stop offset="1" stop-color="#2b911c"/>
        </linearGradient>
        <linearGradient id="prefix__linear-gradient-2" x1=".213" x2=".787" y1=".09" y2=".91" xlink:href="#prefix__linear-gradient"/>
        <style>
            .prefix__cls-3{fill:#0a700a}.prefix__cls-4{fill:#fff}
        </style>
    </defs>
    <g id="prefix__Group_3181" data-name="Group 3181" transform="translate(-611.565 -90.966)">
        <g id="prefix__Group_3175" data-name="Group 3175" transform="translate(611.565 90.966)">
            <g id="prefix__Group_3172" data-name="Group 3172">
                <circle id="prefix__Ellipse_124" cx="13.674" cy="13.674" r="13.674" fill="#7f2c12" data-name="Ellipse 124" transform="rotate(-45 23.343 9.669)"/>
                <path id="prefix__Path_4352" fill="url(#prefix__linear-gradient)" d="M666.971 160.769a14.4 14.4 0 1 1 14.4-14.4 14.415 14.415 0 0 1-14.4 14.4zm0-27.347a12.948 12.948 0 1 0 12.948 12.948 12.963 12.963 0 0 0-12.948-12.948z" data-name="Path 4352" transform="translate(-647.633 -127.033)"/>
            </g>
            <g id="prefix__Group_3173" data-name="Group 3173">
                <circle id="prefix__Ellipse_125" cx="13.674" cy="13.674" r="13.674" class="prefix__cls-3" data-name="Ellipse 125" transform="rotate(-45 23.343 9.669)"/>
                <path id="prefix__Path_4353" d="M670.433 137.805a13.421 13.421 0 0 0-2.659.272 12.814 12.814 0 0 0-2.542.811 13.553 13.553 0 0 0-4.329 3.03 14.3 14.3 0 0 0-1.637 2.07q-.359.553-.664 1.138t-.557 1.192a13.9 13.9 0 0 0-1.035 5.13 13.459 13.459 0 0 0 2.16 7.525 13.166 13.166 0 0 0 11.263 5.984 13.527 13.527 0 0 0 2.627-.3 13.946 13.946 0 0 0 2.513-.8 13.691 13.691 0 0 0 4.324-2.949 13.431 13.431 0 0 0 2.879-4.353 13.757 13.757 0 0 0 .754-2.506 13.608 13.608 0 0 0 .255-2.6 13.4 13.4 0 0 0-.243-2.607 13.86 13.86 0 0 0-.744-2.513q-.246-.609-.551-1.193t-.659-1.136a14.1 14.1 0 0 0-1.631-2.072 13.489 13.489 0 0 0-4.324-3.032 12.829 12.829 0 0 0-2.541-.813 13.441 13.441 0 0 0-2.659-.278zm0-.06a14.283 14.283 0 0 1 5.264.993 13.968 13.968 0 0 1 4.54 2.906 13.469 13.469 0 0 1 3.1 4.461 13.744 13.744 0 0 1 .022 10.7 14.029 14.029 0 0 1-3.058 4.512 13.778 13.778 0 0 1-4.541 2.989 13.614 13.614 0 0 1-5.323.985 13.863 13.863 0 0 1-2.693-.3 14.321 14.321 0 0 1-8.776-5.877 13.74 13.74 0 0 1-2.455-7.662 13.341 13.341 0 0 1 1.047-5.333q.266-.63.593-1.232t.719-1.161a13.342 13.342 0 0 1 1.767-2.071 13.9 13.9 0 0 1 4.536-2.908 14.387 14.387 0 0 1 2.586-.747 14.014 14.014 0 0 1 2.672-.255z" class="prefix__cls-4" data-name="Path 4353" transform="translate(-651.096 -132.111)"/>
            </g>
            <path id="prefix__Path_4354" fill="url(#prefix__linear-gradient-2)" d="M690.007 156.379a13.029 13.029 0 1 1-13.029-13.029 13.029 13.029 0 0 1 13.029 13.029z" data-name="Path 4354" transform="translate(-657.64 -137.041)"/>
            <path id="prefix__Path_4355" fill="#7f2c12" d="M701.872 186.362a13.029 13.029 0 0 1-21.444 14.762 13.029 13.029 0 1 0 21.444-14.762z" data-name="Path 4355" transform="translate(-672.135 -174.873)" style="isolation:isolate;mix-blend-mode:multiply" opacity="0.24"/>
            <path id="prefix__Path_4356" fill="#fff" d="M663.831 157.169a13.028 13.028 0 0 1 23.131-8.227 13.029 13.029 0 1 0-20.8 15.665 12.968 12.968 0 0 1-2.331-7.438z" data-name="Path 4356" transform="translate(-657.012 -137.041)" style="mix-blend-mode:overlay;isolation:isolate" opacity="0.9"/>
            <g id="prefix__Group_3174" data-name="Group 3174" transform="translate(8.293 10.313)">
                <path id="prefix__Path_4357" d="M691.307 178.788c-.747.854-1.633 1.3-1.979 1s-.021-1.241.726-2.095 1.633-1.3 1.98-1 .021 1.241-.727 2.095z" class="prefix__cls-4" data-name="Path 4357" transform="translate(-688.134 -176.599)"/>
                <path id="prefix__Path_4358" d="M681.483 208.575a.528.528 0 1 1-.528-.528.528.528 0 0 1 .528.528z" class="prefix__cls-4" data-name="Path 4358" transform="translate(-680.428 -204.26)"/>
            </g>
        </g>
        <g id="prefix__Group_3176" data-name="Group 3176" transform="translate(629.523 109.964)">
            <path id="prefix__Path_4360" d="M760.947 249.016h.268l-.268-.27a.272.272 0 0 0-.034.093c0 .015.017.027.022.042a.225.225 0 0 1 .016.044v.183q0 .089-.008.179l-.01.03q0-.136.012-.271zm0-.03q.011-.135.014-.27l-.007.03q-.005.089-.006.179v.183a.211.211 0 0 0 .014.044c0 .015.018.027.02.042a.283.283 0 0 1-.038.094l.169-.272h-.438.268z" class="prefix__cls-4" data-name="Path 4360" transform="translate(-760.679 -248.716)"/>
        </g>
        <g id="prefix__Group_3177" data-name="Group 3177" transform="translate(629.464 109.972)">
            <path id="prefix__Path_4362" d="M760.475 249.067l-.047-.127-.021-.056-.01-.028-.005-.014v-.007l.042-.016.064-.008a.249.249 0 0 0-.045.186l-.063.085h-.171l.365.254a.286.286 0 0 1-.048.044c0-.011-.011-.021-.01-.033v-.035a.4.4 0 0 0 0-.07.389.389 0 0 0-.034-.132zm-.008-.013a.386.386 0 0 1-.032-.132.435.435 0 0 1 0-.07c0-.012 0-.024.005-.035s-.006-.022-.009-.033a.251.251 0 0 0-.044.043l-.2.255h.318l.014.084a.253.253 0 0 1-.048.186l.064-.008.042-.016v-.007l-.005-.014-.011-.028-.022-.056-.046-.118z" class="prefix__cls-4" data-name="Path 4362" transform="translate(-760.185 -248.784)"/>
        </g>
        <g id="prefix__Group_3178" data-name="Group 3178" transform="translate(629.364 110.106)">
            <path id="prefix__Path_4363" d="M762.887 250.549v.048l.008-.14v.014a.144.144 0 0 1 0 .019v.058z" class="prefix__cls-3" data-name="Path 4363" transform="translate(-762.456 -250.391)"/>
            <path id="prefix__Path_4364" d="M759.79 250.087a.06.06 0 0 1-.007.035l.065-.061.074.015.053.014a.267.267 0 0 1 .062.025l-.037-.155h.013l-.492.13c-.019-.013.026-.022.094-.03a.461.461 0 0 0 .074-.013c.015-.005.014-.011.007-.017a.745.745 0 0 0-.13-.042.27.27 0 0 1-.078-.04l.614.054a.088.088 0 0 1 .01.01v.009c0 .009 0 0 0 0a.11.11 0 0 1-.007.021.05.05 0 0 1-.016.02l.007-.047a.219.219 0 0 1-.035.012l-.051.011c-.023 0-.042.007-.071.009l-.094.008-.057-.066a.225.225 0 0 0 0 .031zm0 0a.214.214 0 0 1-.008.031l.017-.048-.074-.017-.092-.021-.069-.02c-.022-.007-.036-.012-.048-.018a.235.235 0 0 1-.033-.017l-.124-.078.13.031a.012.012 0 0 0-.012 0s-.006.01 0 0l.012-.007.614.054a.269.269 0 0 1-.082.03.752.752 0 0 0-.134.028c-.008.005-.01.011 0 .018a.443.443 0 0 0 .072.022c.067.015.111.03.09.04l-.521.266.029-.136a.042.042 0 0 1 0-.012l.128-.232-.169.076a.267.267 0 0 1 .065-.017l.055-.007.075-.006h.044l.021-.057a.052.052 0 0 0 0 .034z" class="prefix__cls-4" data-name="Path 4364" transform="translate(-759.356 -249.898)"/>
        </g>
        <g id="prefix__Group_3180" data-name="Group 3180" transform="translate(622.221 101.605)">
            <path id="prefix__Path_4365" d="M708.99 190.866v.116l-.116-.017a4.867 4.867 0 0 1-1.381-.389 2.416 2.416 0 0 1-1.1-.952 3.227 3.227 0 0 1-.379-1.4 3.527 3.527 0 0 1 .165-1.445 3.571 3.571 0 0 1 1.978-2.093 3.166 3.166 0 0 1 1.478-.235 2.873 2.873 0 0 1 1.417.532 3.891 3.891 0 0 1 .567.494 2.428 2.428 0 0 0 .479.433 2.079 2.079 0 0 0 2.338-.014 2.045 2.045 0 0 0 .609-2.719 2.613 2.613 0 0 0-.395-.5 7.743 7.743 0 0 0-2.146-1.613 7.167 7.167 0 0 0-5.23-.487 7.943 7.943 0 0 0-4.31 3.114 7.838 7.838 0 0 0-1.148 2.473 8.069 8.069 0 0 0-.222 2.746 7.247 7.247 0 0 0 .713 2.679 6.538 6.538 0 0 0 1.734 2.172 7.574 7.574 0 0 0 2.3 1.254 9.418 9.418 0 0 0 2.574.487h.086v.092l.083 2.142v.011a.718.718 0 0 0 .222.53.744.744 0 0 0 .532.192 1.578 1.578 0 0 0 .615-.181 2.729 2.729 0 0 0 .294-.162c.1-.062.193-.13.289-.2.771-.563 1.539-1.149 2.3-1.739s1.515-1.187 2.244-1.8a8.145 8.145 0 0 0 .995-.964.886.886 0 0 0 .139-.231.548.548 0 0 0 .026-.121v-.077-.053a.792.792 0 0 0-.229-.48 8.008 8.008 0 0 0-1.062-.9c-.383-.284-.778-.557-1.176-.826q-1.2-.8-2.431-1.552c-.412-.247-.826-.49-1.251-.708-.421-.2-.881-.469-1.258-.251a.718.718 0 0 0-.067.039l-.069.049a.641.641 0 0 0-.112.107.609.609 0 0 0-.111.286 4.6 4.6 0 0 0-.032.7c.023.495.033.978.048 1.461z" class="prefix__cls-3" data-name="Path 4365" transform="translate(-701.388 -180.178)"/>
            <g id="prefix__Group_3179" data-name="Group 3179">
                <path id="prefix__Path_4366" d="M707.679 190v.152h-.036a5.1 5.1 0 0 1-1.5-.4 2.485 2.485 0 0 1-1.167-1.018 3.623 3.623 0 0 1-.392-1.513 3.543 3.543 0 0 1 .229-1.561 3.709 3.709 0 0 1 2.285-2.139 3.369 3.369 0 0 1 .807-.153 3.179 3.179 0 0 1 .418 0l.1.008.108.013c.069.01.138.023.206.037a3.14 3.14 0 0 1 .783.287 3.249 3.249 0 0 1 .357.218c.05.035.11.079.165.121s.108.086.159.131a3.675 3.675 0 0 1 .3.286 2.731 2.731 0 0 0 .253.246 1.562 1.562 0 0 0 .133.1l.076.049.07.04a1.875 1.875 0 0 0 .309.135 1.816 1.816 0 0 0 .668.089 1.855 1.855 0 0 0 .648-.153 1.885 1.885 0 0 0 .289-.161c.025-.018.057-.039.075-.054s.041-.031.063-.05c.043-.036.084-.074.124-.114a1.847 1.847 0 0 0 .375-.553 1.815 1.815 0 0 0-.3-1.91c-.078-.093-.164-.184-.252-.279s-.172-.178-.263-.265a7.541 7.541 0 0 0-1.181-.93c-.213-.136-.428-.256-.659-.373a6.765 6.765 0 0 0-.689-.3 6.925 6.925 0 0 0-4.478-.112 7.61 7.61 0 0 0-1.4.6 7.817 7.817 0 0 0-1.253.871 7.549 7.549 0 0 0-1.058 1.1c-.158.2-.3.405-.443.622a7.6 7.6 0 0 0-1.18 3.566 8.756 8.756 0 0 0 .039 1.514 7.4 7.4 0 0 0 .307 1.469 6.282 6.282 0 0 0 1.507 2.538 6.658 6.658 0 0 0 .548.5 6.8 6.8 0 0 0 .6.433 7.285 7.285 0 0 0 1.325.674 9.087 9.087 0 0 0 2.927.582l.277.01.013.283.1 2.233-.64.013h.64a.4.4 0 0 0 .118.3.425.425 0 0 0 .317.108 1.266 1.266 0 0 0 .453-.139c.08-.038.167-.083.236-.124.03-.018.073-.047.115-.075l.116-.08c.636-.463 1.281-.944 1.914-1.427s1.27-.971 1.891-1.47c.311-.247.626-.5.926-.749a8.049 8.049 0 0 0 .841-.793.864.864 0 0 0 .127-.177.136.136 0 0 0 .007-.018v-.01c0-.008.007-.035.009-.044v-.064-.029.014-.023a.434.434 0 0 0-.057-.175.75.75 0 0 0-.062-.094l-.036-.044-.05-.055a8.214 8.214 0 0 0-.87-.768c-.623-.491-1.273-.953-1.931-1.408s-1.323-.9-2-1.319c-.34-.209-.682-.416-1.035-.6a3.44 3.44 0 0 0-.539-.236.683.683 0 0 0-.541.027.678.678 0 0 0-.062.036.575.575 0 0 0-.22.218.915.915 0 0 0-.075.312 6.591 6.591 0 0 0-.018.669q.018.676.034 1.355zm-.06 0q-.025-.675-.038-1.35a6.627 6.627 0 0 1 .011-.68 1.034 1.034 0 0 1 .075-.343.671.671 0 0 1 .244-.26.7.7 0 0 1 .071-.043.664.664 0 0 1 .31-.092 1.032 1.032 0 0 1 .314.038 3.544 3.544 0 0 1 .567.228c.368.168.72.362 1.071.557.7.4 1.391.8 2.075 1.222s1.363.853 2.024 1.319a7.656 7.656 0 0 1 .967.777l.053.054c.025.026.042.046.063.07a1.257 1.257 0 0 1 .11.152.94.94 0 0 1 .136.389v.198a1.038 1.038 0 0 1-.016.1c0 .019-.009.038-.016.062s-.011.033-.018.052a1.3 1.3 0 0 1-.2.323 7.675 7.675 0 0 1-.88.88c-.308.27-.612.526-.923.784-.622.51-1.256 1-1.886 1.5s-1.266.982-1.928 1.457l-.131.09c-.042.027-.081.054-.137.088-.1.062-.195.107-.3.156a1.877 1.877 0 0 1-.692.2 1.066 1.066 0 0 1-.786-.277 1.04 1.04 0 0 1-.324-.775h.64l-.64.012-.073-2.234.29.294a9.679 9.679 0 0 1-3.1-.662 7.841 7.841 0 0 1-1.418-.745 6.978 6.978 0 0 1-.646-.481 7.237 7.237 0 0 1-.579-.556 6.7 6.7 0 0 1-.947-1.294 6.988 6.988 0 0 1-.613-1.474 7.807 7.807 0 0 1-.271-1.564 9.127 9.127 0 0 1 .015-1.576 7.812 7.812 0 0 1 .926-2.992c.125-.23.263-.452.409-.671s.3-.428.465-.629a8.4 8.4 0 0 1 1.1-1.112 8.044 8.044 0 0 1 1.288-.885 7.8 7.8 0 0 1 1.433-.626 7.7 7.7 0 0 1 1.53-.329 7.861 7.861 0 0 1 1.57-.006 7.244 7.244 0 0 1 1.543.324 7.091 7.091 0 0 1 .74.29c.233.108.474.23.7.364a7.955 7.955 0 0 1 1.281.935c.1.088.2.179.292.273s.185.184.277.285a2.253 2.253 0 0 1 .455.725 2.314 2.314 0 0 1-.025 1.7 2.259 2.259 0 0 1-.48.725c-.051.051-.1.1-.16.148l-.088.071c-.031.024-.054.039-.082.06a2.36 2.36 0 0 1-1.234.419 2.335 2.335 0 0 1-.855-.126 2.36 2.36 0 0 1-.754-.429 3.235 3.235 0 0 1-.3-.3c-.077-.084-.167-.174-.254-.254q-.066-.061-.136-.119c-.046-.038-.089-.072-.143-.112a2.765 2.765 0 0 0-.3-.194 2.672 2.672 0 0 0-.657-.265c-.057-.014-.115-.026-.173-.038l-.083-.014-.1-.012a2.773 2.773 0 0 0-.355-.018 2.962 2.962 0 0 0-.715.1 3.417 3.417 0 0 0-2.18 1.859 3.249 3.249 0 0 0-.282 1.463 4.744 4.744 0 0 0 .078.757 2.65 2.65 0 0 0 .247.712 2.314 2.314 0 0 0 1.1 1 5.042 5.042 0 0 0 1.476.4l-.035.031z" class="prefix__cls-4" data-name="Path 4366" transform="translate(-700.047 -179.308)"/>
            </g>
        </g>
    </g>
</svg>
