<svg xmlns="http://www.w3.org/2000/svg" id="prefix__Group_405" width="25.968" height="38.953" data-name="Group 405" viewBox="0 0 25.968 38.953">
    <defs>
        <style>
            .prefix__cls-1{fill:#1a1818}.prefix__cls-2{fill:#fff}
        </style>
    </defs>
    <g id="prefix__Group_276" data-name="Group 276">
        <path id="prefix__Path_254" d="M347.1 476.517h-25.971v38.953H347.1v-38.953z" class="prefix__cls-1" data-name="Path 254" transform="translate(-321.129 -476.517)"/>
        <g id="prefix__Group_263" data-name="Group 263" transform="translate(.377 .418)">
            <g id="prefix__Group_259" data-name="Group 259">
                <path id="prefix__Path_255" d="M347.221 477.489v38.117h-25.214v-38.117h25.214" class="prefix__cls-2" data-name="Path 255" transform="translate(-322.007 -477.489)"/>
            </g>
            <path id="prefix__Rectangle_184" d="M0 0H22.495V6.321H0z" class="prefix__cls-1" data-name="Rectangle 184" transform="translate(1.269 1.355)"/>
            <path id="prefix__Rectangle_185" d="M0 0H22.507V23.236H0z" class="prefix__cls-1" data-name="Rectangle 185" transform="translate(1.258 9.054)"/>
            <g id="prefix__Group_260" data-name="Group 260" transform="translate(1.263 33.584)">
                <path id="prefix__Path_256" d="M324.945 558.886V555.8h4.519v.722h-2.7v.441h2.288v.719h-2.292v.483h2.808v.72z" class="prefix__cls-1" data-name="Path 256" transform="translate(-324.945 -555.726)"/>
                <path id="prefix__Path_257" d="M340.43 556.6a.343.343 0 0 0-.263-.209 1.659 1.659 0 0 0-.469-.057c-.4 0-.578.065-.578.18 0 .456 3.186.172 3.186 1.292 0 .714-1.071 1.063-2.593 1.063-1.461 0-2.415-.476-2.454-1.032H339a.442.442 0 0 0 .3.243 1.64 1.64 0 0 0 .516.078c.454 0 .756-.08.756-.227 0-.468-3.189-.147-3.189-1.323 0-.655 1.017-.984 2.4-.984 1.538 0 2.238.436 2.371.976z" class="prefix__cls-1" data-name="Path 257" transform="translate(-331.967 -555.626)"/>
                <path id="prefix__Path_258" d="M352.919 557.139h.714c.561 0 .863-.082.863-.294s-.307-.322-.731-.322h-.846zm0 .672v1.075H351.1V555.8h2.617c1.844 0 2.453.282 2.453.882 0 .357-.284.653-.931.757.584.117.938.19.938.813 0 .4-.024.541.192.541v.094h-1.84a1.2 1.2 0 0 1-.091-.54c0-.4-.123-.535-.969-.535z" class="prefix__cls-1" data-name="Path 258" transform="translate(-339.861 -555.726)"/>
                <path id="prefix__Path_259" d="M367.31 556.524v.516h.757c.361 0 .624-.093.624-.269 0-.242-.358-.247-.739-.247zm0 1.075v.569h.793c.45 0 .787-.052.787-.283 0-.269-.421-.286-1-.286zm-1.814 1.289V555.8h2.648c1.246 0 2.24.168 2.24.778 0 .318-.371.55-.724.67.6.086.921.376.921.707 0 .688-.946.931-2.385.931z" class="prefix__cls-1" data-name="Path 259" transform="translate(-348.067 -555.727)"/>
            </g>
            <g id="prefix__Group_261" data-name="Group 261" transform="translate(2.074 10.345)">
                <path id="prefix__Path_260" d="M326.833 506.021l6.9-1.86 3.937 9.27.033-.012-1.188-10 6.9-1.858 4.306 16.187-4.206 1.127-3.075-11.575-.033.013 1.3 12.045-4.553 1.229L332.3 509.5l-.034.009 3.074 11.572-4.2 1.13z" class="prefix__cls-2" data-name="Path 260" transform="translate(-326.833 -501.558)"/>
            </g>
            <g id="prefix__Group_262" data-name="Group 262" transform="translate(1.893 2.698)">
                <path id="prefix__Path_261" d="M326.411 487.4v-3.579h1.014l.473 2.434h.009l.5-2.434h.983v3.579h-.615v-2.762h-.009l-.581 2.762h-.6l-.553-2.762h-.008v2.762z" class="prefix__cls-2" data-name="Path 261" transform="translate(-326.411 -483.795)"/>
                <path id="prefix__Path_262" d="M334.013 487.4l.836-3.579h.833l.819 3.579h-.665l-.167-.794h-.862l-.172.794zm1.217-2.89h-.01l-.288 1.547h.6z" class="prefix__cls-2" data-name="Path 262" transform="translate(-330.746 -483.795)"/>
                <path id="prefix__Path_263" d="M341.389 483.815v.6h-.7v2.985h-.632v-2.984h-.7v-.6z" class="prefix__cls-2" data-name="Path 263" transform="translate(-333.79 -483.794)"/>
                <path id="prefix__Path_264" d="M346.8 483.814v2.536a1.593 1.593 0 0 1-.052.4 1.032 1.032 0 0 1-.172.352.887.887 0 0 1-.316.253 1.106 1.106 0 0 1-.486.1.959.959 0 0 1-.774-.3 1.194 1.194 0 0 1-.253-.8v-2.536h.631v2.481a.8.8 0 0 0 .107.473.338.338 0 0 0 .283.141.329.329 0 0 0 .3-.158.877.877 0 0 0 .1-.457v-2.489z" class="prefix__cls-2" data-name="Path 264" transform="translate(-336.864 -483.793)"/>
                <path id="prefix__Path_265" d="M351.32 487.4h-.632v-3.579h1.167a.632.632 0 0 1 .516.239 1.1 1.1 0 0 1 .191.7 1.217 1.217 0 0 1-.129.58.587.587 0 0 1-.43.3v.01l.143.029a.466.466 0 0 1 .181.09.572.572 0 0 1 .156.206.859.859 0 0 1 .067.378v.238c0 .102 0 .209.01.317s.012.21.023.3a.825.825 0 0 0 .035.194H352a.969.969 0 0 1-.065-.344v-.658a.749.749 0 0 0-.043-.251.36.36 0 0 0-.134-.172.491.491 0 0 0-.273-.065h-.164zm0-2.033h.281a.244.244 0 0 0 .155-.049.378.378 0 0 0 .1-.129.556.556 0 0 0 .054-.172 1.242 1.242 0 0 0 .014-.179.594.594 0 0 0-.086-.364.292.292 0 0 0-.236-.106h-.281z" class="prefix__cls-2" data-name="Path 265" transform="translate(-340.253 -483.794)"/>
                <path id="prefix__Path_266" d="M356.129 487.4v-3.579h1.648v.55h-1.016v.883h.937v.55h-.937v1.045h1.049v.551z" class="prefix__cls-2" data-name="Path 266" transform="translate(-343.356 -483.795)"/>
                <path id="prefix__Path_267" d="M363.019 484.326a2.964 2.964 0 0 0 .306-.243 1.491 1.491 0 0 0 .258-.315h.559v3.6h-.632V484.6a2.14 2.14 0 0 1-.237.217c-.084.064-.169.126-.255.185z" class="prefix__cls-2" data-name="Path 267" transform="translate(-347.283 -483.768)"/>
                <path id="prefix__Path_268" d="M368.733 484.454l-.712 2.912h-.656l.8-3.041h-1v-.559h1.569z" class="prefix__cls-2" data-name="Path 268" transform="translate(-349.648 -483.766)"/>
                <path id="prefix__Path_269" d="M372.137 485.43h.465v.977h.706v.55h-.708v.976h-.465v-.976h-.711v-.55h.711z" class="prefix__cls-2" data-name="Path 269" transform="translate(-352.078 -484.715)"/>
            </g>
        </g>
    </g>
</svg>
