<svg xmlns="http://www.w3.org/2000/svg" id="prefix__Group_406" width="25.969" height="38.953" data-name="Group 406" viewBox="0 0 25.969 38.953">
    <defs>
        <style>
            .prefix__cls-1{fill:#1a1818}.prefix__cls-2{fill:#fff}
        </style>
    </defs>
    <g id="prefix__Group_401" data-name="Group 401">
        <g id="prefix__Group_277" data-name="Group 277">
            <path id="prefix__Path_270" d="M128.968 473.228H103v38.953h25.969z" class="prefix__cls-1" data-name="Path 270" transform="translate(-102.999 -473.228)"/>
            <g id="prefix__Group_272" data-name="Group 272" transform="translate(.378 .418)">
                <g id="prefix__Group_265" data-name="Group 265">
                    <path id="prefix__Path_271" d="M129.092 474.2v38.117h-25.214V474.2h25.214" class="prefix__cls-2" data-name="Path 271" transform="translate(-103.878 -474.2)"/>
                </g>
                <path id="prefix__Rectangle_186" d="M0 0H22.495V6.321H0z" class="prefix__cls-1" data-name="Rectangle 186" transform="translate(1.268 1.355)"/>
                <path id="prefix__Rectangle_187" d="M0 0H22.508V23.236H0z" class="prefix__cls-1" data-name="Rectangle 187" transform="translate(1.258 9.054)"/>
                <g id="prefix__Group_266" data-name="Group 266" transform="translate(1.263 33.583)">
                    <path id="prefix__Path_272" d="M106.817 555.6v-3.09h4.518v.722h-2.7v.441h2.288v.719h-2.288v.483h2.808v.72z" class="prefix__cls-1" data-name="Path 272" transform="translate(-106.817 -552.435)"/>
                    <path id="prefix__Path_273" d="M122.3 553.309a.339.339 0 0 0-.262-.209 1.635 1.635 0 0 0-.469-.057c-.4 0-.578.065-.578.18 0 .456 3.186.172 3.186 1.292 0 .714-1.071 1.063-2.593 1.063-1.461 0-2.415-.476-2.454-1.032h1.738a.442.442 0 0 0 .3.243 1.63 1.63 0 0 0 .516.078c.453 0 .755-.08.755-.227 0-.468-3.189-.147-3.189-1.323 0-.655 1.017-.984 2.4-.984 1.538 0 2.238.436 2.371.976z" class="prefix__cls-1" data-name="Path 273" transform="translate(-113.836 -552.335)"/>
                    <path id="prefix__Path_274" d="M134.79 553.848h.715c.559 0 .863-.082.863-.294s-.307-.322-.731-.322h-.846zm0 .672v1.08h-1.815v-3.09h2.616c1.845 0 2.454.282 2.454.882 0 .357-.283.653-.931.757.585.117.938.19.938.813 0 .4-.023.541.192.541v.094H136.4a1.2 1.2 0 0 1-.091-.54c0-.4-.123-.535-.969-.535z" class="prefix__cls-1" data-name="Path 274" transform="translate(-121.732 -552.435)"/>
                    <path id="prefix__Path_275" d="M149.184 553.233v.516h.756c.362 0 .625-.093.625-.269 0-.242-.358-.246-.74-.246zm0 1.075v.569h.793c.45 0 .787-.052.787-.283 0-.269-.422-.286-1-.286zm-1.814 1.292v-3.085h2.648c1.246 0 2.239.168 2.239.778 0 .318-.371.549-.723.67.6.086.921.376.921.707 0 .687-.946.93-2.386.93z" class="prefix__cls-1" data-name="Path 275" transform="translate(-129.94 -552.436)"/>
                </g>
                <g id="prefix__Group_270" data-name="Group 270" transform="translate(3.301 10.349)">
                    <g id="prefix__Group_267" data-name="Group 267">
                        <path id="prefix__Path_276" d="M117.195 511.073l-.052-6.752 3.677 5.855zm8.632-2.559a4.7 4.7 0 0 1-.9.327c-2.315.574-3.959-.685-4.6-2.887a3.487 3.487 0 0 1 .908-3.914l-2.667-3.763-5.836 1.448-1.179 19.17 5.622-1.392-.02-2.485 5.716-1.421 1.354 2.157 5.716-1.418-4.121-5.821" class="prefix__cls-2" data-name="Path 276" transform="translate(-111.558 -498.278)"/>
                    </g>
                    <g id="prefix__Group_268" data-name="Group 268" transform="translate(9.965 4.712)">
                        <path id="prefix__Path_277" d="M134.956 511.862c.439 1.51 1.325 2.652 2.91 2.257a2.489 2.489 0 0 0 .569-.218l-3.3-4.66a2.955 2.955 0 0 0-.174 2.622" class="prefix__cls-2" data-name="Path 277" transform="translate(-134.744 -509.241)"/>
                    </g>
                    <g id="prefix__Group_269" data-name="Group 269" transform="translate(9.679 2.921)">
                        <path id="prefix__Path_278" d="M135.874 506.184c1.59-.395 2.475.747 2.911 2.259.38 1.3.316 2.521-.731 3.083l.611.865c1.6-.79 2.069-2.411 1.523-4.3-.639-2.2-2.281-3.456-4.6-2.88a3.949 3.949 0 0 0-1.512.706l.671.948a1.926 1.926 0 0 1 1.122-.682" class="prefix__cls-2" data-name="Path 278" transform="translate(-134.078 -505.075)"/>
                    </g>
                </g>
                <g id="prefix__Group_271" data-name="Group 271" transform="translate(1.897 2.659)">
                    <path id="prefix__Path_279" d="M108.292 484.124l.585-3.585h.58l.571 3.585h-.464l-.115-.8h-.6l-.119.8zm.85-2.895h-.006l-.2 1.547h.42z" class="prefix__cls-2" data-name="Path 279" transform="translate(-108.292 -480.474)"/>
                    <path id="prefix__Path_280" d="M112.84 480.537h.735a.506.506 0 0 1 .35.12.763.763 0 0 1 .207.347 2.393 2.393 0 0 1 .1.559q.026.331.027.747v.325c0 .124-.005.254-.015.39a3.59 3.59 0 0 1-.054.4 1.431 1.431 0 0 1-.119.351.739.739 0 0 1-.205.25.493.493 0 0 1-.312.1h-.716zm.441 3.034h.213a.215.215 0 0 0 .161-.067.49.49 0 0 0 .1-.215 2.318 2.318 0 0 0 .048-.384c.009-.158.014-.348.014-.573 0-.165 0-.323-.005-.473a2.687 2.687 0 0 0-.033-.395.761.761 0 0 0-.093-.273.194.194 0 0 0-.175-.1h-.227z" class="prefix__cls-2" data-name="Path 280" transform="translate(-110.885 -480.472)"/>
                    <path id="prefix__Path_281" d="M118.369 480.536v2.542a2.114 2.114 0 0 1-.037.4 1.185 1.185 0 0 1-.12.353.725.725 0 0 1-.219.253.576.576 0 0 1-.338.1.587.587 0 0 1-.541-.3 1.57 1.57 0 0 1-.177-.8v-2.542h.441v2.493a1.1 1.1 0 0 0 .074.473.215.215 0 0 0 .409-.017 1.2 1.2 0 0 0 .068-.457v-2.493z" class="prefix__cls-2" data-name="Path 281" transform="translate(-113.22 -480.471)"/>
                    <path id="prefix__Path_282" d="M121.114 484.123v-3.586h.44v2.99h.66v.6z" class="prefix__cls-2" data-name="Path 282" transform="translate(-115.603 -480.473)"/>
                    <path id="prefix__Path_283" d="M124.76 480.538v.6h-.49v2.989h-.44v-2.989h-.491v-.6z" class="prefix__cls-2" data-name="Path 283" transform="translate(-116.872 -480.473)"/>
                    <path id="prefix__Path_284" d="M128.353 483.065a1.807 1.807 0 0 1-.067.553.755.755 0 0 1-.172.313.5.5 0 0 1-.238.139 1.064 1.064 0 0 1-.255.032.533.533 0 0 1-.331-.094.59.59 0 0 1-.194-.255 1.346 1.346 0 0 1-.089-.373 3.2 3.2 0 0 1-.011-.444h.441c0 .086 0 .167.005.244a.934.934 0 0 0 .031.2.284.284 0 0 0 .074.137.192.192 0 0 0 .141.05.176.176 0 0 0 .166-.112.665.665 0 0 0 .055-.3.549.549 0 0 0-.065-.278 1.1 1.1 0 0 0-.164-.226c-.067-.071-.137-.142-.213-.215a1.61 1.61 0 0 1-.215-.248 1.3 1.3 0 0 1-.23-.787 2.259 2.259 0 0 1 .033-.392.973.973 0 0 1 .113-.32.585.585 0 0 1 .215-.215.643.643 0 0 1 .335-.08.519.519 0 0 1 .477.258 1.535 1.535 0 0 1 .135.819h-.43c0-.067 0-.132-.007-.2a.888.888 0 0 0-.03-.172.343.343 0 0 0-.061-.124.131.131 0 0 0-.106-.047.187.187 0 0 0-.168.1.535.535 0 0 0-.06.285.591.591 0 0 0 .065.288.959.959 0 0 0 .165.218q.1.1.212.2a1.393 1.393 0 0 1 .215.238 1.2 1.2 0 0 1 .165.328 1.446 1.446 0 0 1 .063.48z" class="prefix__cls-2" data-name="Path 284" transform="translate(-118.955 -480.393)"/>
                    <path id="prefix__Path_285" d="M133.075 484.107a.546.546 0 0 1-.419-.156.935.935 0 0 1-.217-.416 2.831 2.831 0 0 1-.078-.594c-.009-.221-.012-.45-.012-.684s0-.469.012-.688a2.737 2.737 0 0 1 .078-.591.935.935 0 0 1 .217-.415.642.642 0 0 1 .839 0 .918.918 0 0 1 .215.415 2.74 2.74 0 0 1 .079.591q.012.331.012.688t-.012.684a2.805 2.805 0 0 1-.079.594.923.923 0 0 1-.215.416.551.551 0 0 1-.42.156zm0-.536a.172.172 0 0 0 .149-.077.548.548 0 0 0 .086-.236 2.721 2.721 0 0 0 .039-.409c0-.168.009-.366.009-.594s0-.427-.009-.594a2.723 2.723 0 0 0-.039-.41.539.539 0 0 0-.086-.236.181.181 0 0 0-.252-.045.17.17 0 0 0-.045.045.578.578 0 0 0-.086.236 3.1 3.1 0 0 0-.037.41c-.006.167-.009.365-.009.594s0 .426.009.594a3.1 3.1 0 0 0 .037.409.58.58 0 0 0 .086.236.173.173 0 0 0 .148.077z" class="prefix__cls-2" data-name="Path 285" transform="translate(-122.01 -480.398)"/>
                    <path id="prefix__Path_286" d="M136.55 484.123v-3.586h.6l.559 2.483h.006v-2.483h.41v3.585h-.579l-.575-2.622h-.005v2.622z" class="prefix__cls-2" data-name="Path 286" transform="translate(-124.404 -480.473)"/>
                    <path id="prefix__Path_287" d="M141.08 484.123v-3.586h.439v2.99h.658v.6z" class="prefix__cls-2" data-name="Path 287" transform="translate(-126.987 -480.473)"/>
                    <path id="prefix__Path_288" d="M143.754 482.881l-.552-2.344h.48l.316 1.515.337-1.515h.45l-.59 2.344v1.241h-.44z" class="prefix__cls-2" data-name="Path 288" transform="translate(-128.197 -480.472)"/>
                    <path id="prefix__Path_289" d="M148.77 481.053a2.427 2.427 0 0 0 .213-.243 1.592 1.592 0 0 0 .181-.315h.39v3.6h-.44v-2.773a2.214 2.214 0 0 1-.166.215c-.059.065-.119.129-.178.187z" class="prefix__cls-2" data-name="Path 289" transform="translate(-131.372 -480.448)"/>
                    <path id="prefix__Path_290" d="M152.167 484.083a.49.49 0 0 1-.44-.229 1.4 1.4 0 0 1-.148-.741c0-.11 0-.215.01-.315a1.573 1.573 0 0 1 .04-.277.854.854 0 0 1 .091-.224.473.473 0 0 1 .157-.161v-.01a.325.325 0 0 1-.141-.111.61.61 0 0 1-.086-.175 1 1 0 0 1-.043-.227c-.008-.085-.012-.174-.012-.271a1.41 1.41 0 0 1 .143-.725.512.512 0 0 1 .71-.145.506.506 0 0 1 .145.145 1.414 1.414 0 0 1 .144.725c0 .1 0 .187-.011.271a1.026 1.026 0 0 1-.045.227.6.6 0 0 1-.086.175.325.325 0 0 1-.141.111v.01a.489.489 0 0 1 .157.161.891.891 0 0 1 .091.224 1.536 1.536 0 0 1 .04.277c.008.1.01.2.01.315a1.4 1.4 0 0 1-.149.741.492.492 0 0 1-.436.229zm0-1.657a.114.114 0 0 0-.106.07.648.648 0 0 0-.052.172 1.628 1.628 0 0 0-.018.209v.19c0 .055 0 .106.006.164a.89.89 0 0 0 .025.16.324.324 0 0 0 .052.121.114.114 0 0 0 .093.046.116.116 0 0 0 .095-.046.332.332 0 0 0 .052-.121.817.817 0 0 0 .025-.16c0-.058.006-.111.006-.164v-.19a1.626 1.626 0 0 0-.018-.209.574.574 0 0 0-.053-.172.114.114 0 0 0-.107-.071zm0-1.512a.1.1 0 0 0-.086.049.35.35 0 0 0-.049.121 1.008 1.008 0 0 0-.023.152v.302a1.084 1.084 0 0 0 .021.158.333.333 0 0 0 .048.124.1.1 0 0 0 .086.049.1.1 0 0 0 .089-.049.35.35 0 0 0 .049-.124 1.027 1.027 0 0 0 .02-.158v-.155-.147a.955.955 0 0 0-.021-.152.37.37 0 0 0-.05-.121.1.1 0 0 0-.084-.049z" class="prefix__cls-2" data-name="Path 290" transform="translate(-132.972 -480.387)"/>
                    <path id="prefix__Path_291" d="M155.125 482.158h.323v.978h.493v.55h-.493v.977h-.323v-.977h-.5v-.55h.5z" class="prefix__cls-2" data-name="Path 291" transform="translate(-134.713 -481.397)"/>
                </g>
            </g>
        </g>
    </g>
</svg>
