<svg xmlns="http://www.w3.org/2000/svg" id="prefix__Group_245" width="25.968" height="38.953" data-name="Group 245" viewBox="0 0 25.968 38.953">
    <defs>
        <style>
            .prefix__cls-1{fill:#1a1818}.prefix__cls-2{fill:#fff}
        </style>
    </defs>
    <path id="prefix__Path_209" d="M202.266 476.13H176.3v38.953h25.968z" class="prefix__cls-1" data-name="Path 209" transform="translate(-176.298 -476.13)"/>
    <g id="prefix__Group_240" data-name="Group 240" transform="translate(.377 .418)">
        <path id="prefix__Path_210" d="M202.39 477.1v38.117h-25.214V477.1h25.214" class="prefix__cls-2" data-name="Path 210" transform="translate(-177.176 -477.102)"/>
    </g>
    <g id="prefix__Group_244" data-name="Group 244" transform="translate(1.636 1.773)">
        <path id="prefix__Rectangle_178" d="M0 0H22.495V6.321H0z" class="prefix__cls-1" data-name="Rectangle 178" transform="translate(.01)"/>
        <path id="prefix__Rectangle_179" d="M0 0H22.507V23.236H0z" class="prefix__cls-1" data-name="Rectangle 179" transform="translate(0 7.699)"/>
        <g id="prefix__Group_241" data-name="Group 241" transform="translate(.004 32.228)">
            <path id="prefix__Path_211" d="M180.114 558.5v-3.085h4.519v.722h-2.7v.441h2.288v.719h-2.291v.483h2.808v.719z" class="prefix__cls-1" data-name="Path 211" transform="translate(-180.114 -555.337)"/>
            <path id="prefix__Path_212" d="M195.6 556.211a.343.343 0 0 0-.263-.209 1.661 1.661 0 0 0-.469-.057c-.4 0-.578.065-.578.18 0 .456 3.187.172 3.187 1.292 0 .714-1.072 1.063-2.593 1.063-1.461 0-2.416-.476-2.455-1.031h1.739a.44.44 0 0 0 .3.243 1.64 1.64 0 0 0 .516.078c.453 0 .756-.08.756-.227 0-.468-3.189-.147-3.189-1.323 0-.655 1.016-.984 2.4-.984 1.537 0 2.238.436 2.371.976z" class="prefix__cls-1" data-name="Path 212" transform="translate(-187.135 -555.237)"/>
            <path id="prefix__Path_213" d="M208.087 556.75h.714c.562 0 .864-.082.864-.294s-.308-.322-.731-.322h-.847zm0 .672v1.078h-1.815v-3.085h2.617c1.844 0 2.453.282 2.453.882 0 .357-.283.653-.931.757.585.117.939.19.939.813 0 .4-.024.541.192.541v.094H209.7a1.208 1.208 0 0 1-.09-.54c0-.4-.124-.535-.97-.535z" class="prefix__cls-1" data-name="Path 213" transform="translate(-195.029 -555.337)"/>
            <path id="prefix__Path_214" d="M222.479 556.135v.516h.756c.362 0 .624-.093.624-.269 0-.242-.358-.247-.739-.247zm0 1.075v.569h.792c.45 0 .788-.052.788-.283 0-.27-.422-.286-1-.286zm-1.815 1.289v-3.085h2.648c1.246 0 2.24.168 2.24.778 0 .318-.371.55-.724.67.6.086.922.376.922.707 0 .688-.946.931-2.386.931z" class="prefix__cls-1" data-name="Path 214" transform="translate(-203.235 -555.338)"/>
        </g>
        <g id="prefix__Group_242" data-name="Group 242" transform="translate(1.682 9.001)">
            <path id="prefix__Path_215" d="M184.018 505.264l13.621-4.069 1.366 4.314-6.824 2.036.559 1.766 6.3-1.882 1.363 4.317-6.3 1.878.588 1.859 7.047-2.106 1.366 4.313-13.843 4.135-5.246-16.561" class="prefix__cls-2" data-name="Path 215" transform="translate(-184.018 -501.195)"/>
        </g>
        <g id="prefix__Group_243" data-name="Group 243" transform="translate(.635 1.315)">
            <path id="prefix__Path_216" d="M181.581 487.022v-3.58h1.931v.551h-1.191v.882h1.1v.552h-1.1v1.045h1.229v.551z" class="prefix__cls-2" data-name="Path 216" transform="translate(-181.581 -483.386)"/>
            <path id="prefix__Path_217" d="M186.619 483.442h.771l.547 2.6h.01l.617-2.6h.731l-.937 3.58h-.867z" class="prefix__cls-2" data-name="Path 217" transform="translate(-184.454 -483.386)"/>
            <path id="prefix__Path_218" d="M193.622 487.022v-3.58h1.93v.551h-1.191v.882h1.1v.552h-1.1v1.045h1.23v.551z" class="prefix__cls-2" data-name="Path 218" transform="translate(-188.447 -483.386)"/>
            <path id="prefix__Path_219" d="M200.028 487.021h-.739v-3.58h1.366a.792.792 0 0 1 .606.238.987.987 0 0 1 .223.7 1.074 1.074 0 0 1-.149.58.7.7 0 0 1-.507.3v.009l.166.03a.572.572 0 0 1 .213.089.594.594 0 0 1 .184.205.763.763 0 0 1 .079.38v.238c0 .103.005.208.012.317s.016.209.027.3a.764.764 0 0 0 .043.194h-.726a.839.839 0 0 1-.077-.344v-.352-.3a.643.643 0 0 0-.049-.25.366.366 0 0 0-.156-.172.653.653 0 0 0-.322-.065h-.192zm0-2.033h.328a.316.316 0 0 0 .182-.05.346.346 0 0 0 .116-.126.51.51 0 0 0 .062-.172 1 1 0 0 0 .016-.179.527.527 0 0 0-.1-.365.365.365 0 0 0-.277-.106h-.328z" class="prefix__cls-2" data-name="Path 219" transform="translate(-191.678 -483.385)"/>
            <path id="prefix__Path_220" d="M205.777 485.782l-.927-2.34h.81l.53 1.512.563-1.512h.754l-.989 2.34v1.24h-.742z" class="prefix__cls-2" data-name="Path 220" transform="translate(-194.849 -483.386)"/>
            <path id="prefix__Path_221" d="M212.971 487.009a1.329 1.329 0 0 1-.706-.156.922.922 0 0 1-.364-.416 1.761 1.761 0 0 1-.129-.592c-.013-.221-.02-.45-.02-.684s.007-.468.02-.688a1.736 1.736 0 0 1 .129-.589.92.92 0 0 1 .364-.414 1.665 1.665 0 0 1 1.411 0 .907.907 0 0 1 .363.414 1.737 1.737 0 0 1 .132.589q.019.333.02.688c0 .237-.006.462-.02.684a1.775 1.775 0 0 1-.132.592.907.907 0 0 1-.363.416 1.323 1.323 0 0 1-.705.156zm0-.536a.382.382 0 0 0 .25-.077.491.491 0 0 0 .142-.235 1.78 1.78 0 0 0 .064-.409c.01-.168.016-.364.016-.592s-.005-.426-.016-.593a1.783 1.783 0 0 0-.064-.409.493.493 0 0 0-.142-.235.445.445 0 0 0-.5 0 .469.469 0 0 0-.141.235 1.762 1.762 0 0 0-.064.409q-.014.25-.015.593c0 .228.005.425.015.592a1.754 1.754 0 0 0 .064.409.47.47 0 0 0 .141.235.383.383 0 0 0 .251.075z" class="prefix__cls-2" data-name="Path 221" transform="translate(-198.784 -483.313)"/>
            <path id="prefix__Path_222" d="M218.8 487.022v-3.58h1l.939 2.478h.01v-2.478h.692v3.58h-.976l-.965-2.618h-.01v2.618z" class="prefix__cls-2" data-name="Path 222" transform="translate(-202.805 -483.386)"/>
            <path id="prefix__Path_223" d="M226.4 487.022v-3.58h1.934v.551h-1.193v.882h1.1v.552h-1.1v1.045h1.228v.551z" class="prefix__cls-2" data-name="Path 223" transform="translate(-207.134 -483.386)"/>
        </g>
    </g>
</svg>
