<svg xmlns="http://www.w3.org/2000/svg" id="prefix__Group_403" width="25.968" height="38.952" data-name="Group 403" viewBox="0 0 25.968 38.952">
    <defs>
        <style>
            .prefix__cls-1{fill:#1a1818}.prefix__cls-2{fill:#fff}
        </style>
    </defs>
    <g id="prefix__Group_253" data-name="Group 253">
        <path id="prefix__Path_224" d="M272.59 476.482h-25.968v38.952h25.968v-38.952z" class="prefix__cls-1" data-name="Path 224" transform="translate(-246.622 -476.482)"/>
        <g id="prefix__Group_252" data-name="Group 252" transform="translate(.377 .418)">
            <g id="prefix__Group_246" data-name="Group 246">
                <path id="prefix__Path_225" d="M272.714 477.455v38.118H247.5v-38.118h25.214" class="prefix__cls-2" data-name="Path 225" transform="translate(-247.5 -477.455)"/>
            </g>
            <path id="prefix__Rectangle_180" d="M0 0H22.495V6.321H0z" class="prefix__cls-1" data-name="Rectangle 180" transform="translate(1.268 1.355)"/>
            <path id="prefix__Rectangle_181" d="M0 0H22.507V23.236H0z" class="prefix__cls-1" data-name="Rectangle 181" transform="translate(1.258 9.053)"/>
            <g id="prefix__Group_247" data-name="Group 247" transform="translate(1.263 33.582)">
                <path id="prefix__Path_226" d="M250.438 558.849v-3.085h4.519v.722h-2.7v.441h2.288v.719h-2.288v.483h2.808v.719z" class="prefix__cls-1" data-name="Path 226" transform="translate(-250.438 -555.688)"/>
                <path id="prefix__Path_227" d="M265.923 556.562a.343.343 0 0 0-.263-.208 1.61 1.61 0 0 0-.468-.058c-.4 0-.579.065-.579.18 0 .456 3.187.169 3.187 1.292 0 .715-1.071 1.063-2.593 1.063-1.461 0-2.415-.475-2.454-1.032h1.738a.441.441 0 0 0 .3.243 1.638 1.638 0 0 0 .516.078c.454 0 .756-.08.756-.226 0-.468-3.189-.147-3.189-1.323 0-.656 1.016-.984 2.4-.984 1.538 0 2.238.436 2.371.975z" class="prefix__cls-1" data-name="Path 227" transform="translate(-257.46 -555.588)"/>
                <path id="prefix__Path_228" d="M278.412 557.1h.714c.561 0 .863-.082.863-.294s-.308-.322-.731-.322h-.846zm0 .673v1.075H276.6v-3.085h2.618c1.844 0 2.453.283 2.453.882 0 .357-.284.653-.931.756.584.118.938.19.938.813 0 .4-.024.541.192.541v.093h-1.84a1.177 1.177 0 0 1-.091-.539c0-.4-.123-.535-.969-.535z" class="prefix__cls-1" data-name="Path 228" transform="translate(-265.353 -555.688)"/>
                <path id="prefix__Path_229" d="M292.8 556.488V557h.756c.362 0 .624-.094.624-.269 0-.242-.357-.247-.739-.247zm0 1.075v.57h.793c.45 0 .787-.052.787-.283 0-.27-.421-.287-1-.287zm-1.814 1.289v-3.085h2.648c1.246 0 2.24.168 2.24.779 0 .318-.371.55-.723.669.6.086.921.376.921.707 0 .688-.946.931-2.385.931z" class="prefix__cls-1" data-name="Path 229" transform="translate(-273.56 -555.69)"/>
            </g>
            <g id="prefix__Group_250" data-name="Group 250" transform="translate(2.965 10.354)">
                <g id="prefix__Group_248" data-name="Group 248">
                    <path id="prefix__Path_230" d="M265.372 517.77h-.972v.533h.969v.94h.55v-.94h.972v-.533h-.972v-.943h-.55zm-1.543-.239c0-1.875-1-2.985-2.671-2.985-2.252 0-2.807 1.539-2.807 2.985 0 1.766.886 2.985 2.74 2.985s2.738-1.219 2.738-2.985m-9.43-11.916l13.631-4.07 1.365 4.317-6.828 2.037.559 1.765 6.309-1.881 1.365 4.317-6.3 1.88.589 1.86 7.053-2.106 1.368 4.314-13.854 4.137-5.249-16.57m.52 10.917a4.6 4.6 0 0 0 1.693-.817v4.513h1.279v-5.658h-1.246a4.46 4.46 0 0 1-1.727.869v1.1" class="prefix__cls-2" data-name="Path 230" transform="translate(-254.399 -501.545)"/>
                </g>
                <g id="prefix__Group_249" data-name="Group 249" transform="translate(5.128 13.604)">
                    <path id="prefix__Path_231" d="M266.331 535.526c.01-1.891.76-2.332 1.62-2.33.961 0 1.508.723 1.5 2.382-.006 1.035-.285 2.3-1.517 2.3-1.206 0-1.611-.968-1.6-2.351" class="prefix__cls-2" data-name="Path 231" transform="translate(-266.331 -533.196)"/>
                </g>
            </g>
            <g id="prefix__Group_251" data-name="Group 251" transform="translate(1.902 2.663)">
                <path id="prefix__Path_232" d="M251.926 487.379v-3.586h1.405v.552h-.868v.885h.8v.551h-.8v1.048h.894v.55z" class="prefix__cls-2" data-name="Path 232" transform="translate(-251.926 -483.731)"/>
                <path id="prefix__Path_233" d="M255.594 483.791h.559l.4 2.608h.007l.449-2.608h.532l-.683 3.587h-.631z" class="prefix__cls-2" data-name="Path 233" transform="translate(-254.017 -483.73)"/>
                <path id="prefix__Path_234" d="M260.681 487.379v-3.586h1.405v.552h-.867v.885h.8v.551h-.8v1.048h.9v.55z" class="prefix__cls-2" data-name="Path 234" transform="translate(-256.918 -483.731)"/>
                <path id="prefix__Path_235" d="M265.347 487.379h-.539v-3.586h.995a.5.5 0 0 1 .44.239 1.242 1.242 0 0 1 .164.7 1.409 1.409 0 0 1-.109.581.512.512 0 0 1-.369.3v.009l.12.031a.355.355 0 0 1 .156.089.579.579 0 0 1 .133.206 1.026 1.026 0 0 1 .057.38v.239c0 .103 0 .209.009.318s.01.21.019.3a1.015 1.015 0 0 0 .03.193h-.527a1.14 1.14 0 0 1-.055-.344v-.654a.9.9 0 0 0-.035-.251.355.355 0 0 0-.114-.172.365.365 0 0 0-.234-.065h-.139zm0-2.036h.239a.189.189 0 0 0 .132-.05.363.363 0 0 0 .086-.129.7.7 0 0 0 .045-.172 1.556 1.556 0 0 0 .012-.179.671.671 0 0 0-.073-.365.23.23 0 0 0-.2-.106h-.239z" class="prefix__cls-2" data-name="Path 235" transform="translate(-259.271 -483.731)"/>
                <path id="prefix__Path_236" d="M269.529 486.136l-.675-2.345h.589l.384 1.515.411-1.515h.549l-.72 2.345v1.242h-.538z" class="prefix__cls-2" data-name="Path 236" transform="translate(-261.578 -483.73)"/>
                <path id="prefix__Path_237" d="M274.761 487.356a.757.757 0 0 1-.512-.156.883.883 0 0 1-.265-.417 2.335 2.335 0 0 1-.1-.594c-.009-.222-.014-.451-.014-.688s.005-.468.014-.69a2.316 2.316 0 0 1 .1-.591.888.888 0 0 1 .265-.415.923.923 0 0 1 1.026 0 .9.9 0 0 1 .264.415 2.277 2.277 0 0 1 .1.591c.01.222.014.452.014.69s0 .464-.014.688a2.3 2.3 0 0 1-.1.594.887.887 0 0 1-.264.417.762.762 0 0 1-.514.156zm0-.536a.232.232 0 0 0 .183-.077.554.554 0 0 0 .1-.237 2.388 2.388 0 0 0 .046-.41q.01-.25.011-.594t-.011-.593a2.393 2.393 0 0 0-.046-.41.54.54 0 0 0-.1-.235.252.252 0 0 0-.355-.01l-.009.01a.517.517 0 0 0-.1.235 2.313 2.313 0 0 0-.047.41q-.011.251-.01.593t.01.594a2.308 2.308 0 0 0 .047.41.531.531 0 0 0 .1.237.232.232 0 0 0 .181.077z" class="prefix__cls-2" data-name="Path 237" transform="translate(-264.44 -483.65)"/>
                <path id="prefix__Path_238" d="M279.009 487.379v-3.586h.727l.684 2.483h.007v-2.483h.5v3.586h-.71l-.7-2.622h-.008v2.622z" class="prefix__cls-2" data-name="Path 238" transform="translate(-267.368 -483.731)"/>
                <path id="prefix__Path_239" d="M284.533 487.379v-3.586h1.4v.552h-.866v.885h.8v.551h-.8v1.048h.894v.55z" class="prefix__cls-2" data-name="Path 239" transform="translate(-270.518 -483.731)"/>
                <path id="prefix__Path_240" d="M290.4 484.378a2.39 2.39 0 0 0 .258-.24 1.51 1.51 0 0 0 .223-.313h.476v3.575h-.538v-2.747a2.077 2.077 0 0 1-.2.215c-.073.064-.145.126-.218.184z" class="prefix__cls-2" data-name="Path 240" transform="translate(-273.865 -483.75)"/>
                <path id="prefix__Path_241" d="M294.567 483.718a.673.673 0 0 1 .371.092.585.585 0 0 1 .219.306 2.265 2.265 0 0 1 .1.564c.017.231.027.516.027.86q0 .42-.019.76a2.532 2.532 0 0 1-.089.581.806.806 0 0 1-.219.37.658.658 0 0 1-.788 0 .789.789 0 0 1-.217-.37 2.444 2.444 0 0 1-.091-.581c-.011-.227-.018-.48-.018-.76q0-.511.027-.86a2.137 2.137 0 0 1 .1-.564.579.579 0 0 1 .218-.306.665.665 0 0 1 .379-.092zm0 .522a.154.154 0 0 0-.124.05.411.411 0 0 0-.065.193 2.987 2.987 0 0 0-.025.4v.67c0 .276 0 .49.005.66a2.7 2.7 0 0 0 .029.4.429.429 0 0 0 .065.2.141.141 0 0 0 .118.054.145.145 0 0 0 .117-.054.445.445 0 0 0 .066-.2 2.964 2.964 0 0 0 .03-.4c0-.172.005-.391.005-.66v-.67a2.987 2.987 0 0 0-.025-.4.392.392 0 0 0-.066-.193.155.155 0 0 0-.123-.05z" class="prefix__cls-2" data-name="Path 241" transform="translate(-275.829 -483.688)"/>
                <path id="prefix__Path_242" d="M298.177 485.411h.4v.98h.6v.551h-.6v.978h-.4v-.978h-.606v-.551h.606z" class="prefix__cls-2" data-name="Path 242" transform="translate(-277.952 -484.654)"/>
            </g>
        </g>
    </g>
</svg>
