<svg xmlns="http://www.w3.org/2000/svg" id="prefix__Group_478" width="25.802" height="38.702" data-name="Group 478" viewBox="0 0 25.802 38.702">
    <defs>
        <style>
            .prefix__cls-1{fill:#1a1818}.prefix__cls-2{fill:#fff}
        </style>
    </defs>
    <path id="prefix__Path_1183" d="M414.907 476.751h-25.8v38.7h25.8v-38.7z" class="prefix__cls-1" data-name="Path 1183" transform="translate(-389.105 -476.751)"/>
    <g id="prefix__Group_477" data-name="Group 477" transform="translate(.375 .416)">
        <g id="prefix__Group_473" data-name="Group 473">
            <path id="prefix__Path_1184" d="M415.029 477.718v37.873h-25.052v-37.873h25.052" class="prefix__cls-2" data-name="Path 1184" transform="translate(-389.977 -477.718)"/>
        </g>
        <path id="prefix__Rectangle_323" d="M0 0H22.35V6.28H0z" class="prefix__cls-1" data-name="Rectangle 323" transform="translate(1.261 1.346)"/>
        <path id="prefix__Rectangle_324" d="M0 0H22.363V23.087H0z" class="prefix__cls-1" data-name="Rectangle 324" transform="translate(1.251 8.995)"/>
        <g id="prefix__Group_474" data-name="Group 474" transform="translate(1.255 33.367)">
            <path id="prefix__Path_1185" d="M392.9 558.589v-3.065h4.49v.717h-2.69v.438h2.273v.715H394.7v.48h2.79v.715z" class="prefix__cls-1" data-name="Path 1185" transform="translate(-392.897 -555.449)"/>
            <path id="prefix__Path_1186" d="M408.281 556.317a.338.338 0 0 0-.26-.207 1.612 1.612 0 0 0-.466-.057c-.4 0-.575.065-.575.18 0 .453 3.166.168 3.166 1.283 0 .71-1.064 1.056-2.576 1.056-1.452 0-2.4-.473-2.438-1.026h1.728a.434.434 0 0 0 .3.241 1.625 1.625 0 0 0 .514.078c.45 0 .75-.08.75-.225 0-.464-3.168-.146-3.168-1.314 0-.652 1.009-.978 2.387-.978 1.528 0 2.224.433 2.356.969z" class="prefix__cls-1" data-name="Path 1186" transform="translate(-399.872 -555.349)"/>
            <path id="prefix__Path_1187" d="M420.69 556.853h.71c.558 0 .858-.081.858-.292s-.306-.32-.727-.32h-.841zm0 .668v1.068h-1.8v-3.066h2.6c1.833 0 2.437.281 2.437.876 0 .355-.282.649-.924.752.581.117.933.189.933.808 0 .4-.023.537.19.537v.092h-1.829a1.191 1.191 0 0 1-.09-.536c0-.4-.123-.532-.964-.532z" class="prefix__cls-1" data-name="Path 1187" transform="translate(-407.716 -555.448)"/>
            <path id="prefix__Path_1188" d="M434.988 556.241v.513h.751c.359 0 .62-.093.62-.268 0-.24-.355-.245-.735-.245zm0 1.068v.565h.787c.447 0 .783-.052.783-.281 0-.268-.419-.285-1-.285zm-1.8 1.28v-3.066h2.632c1.24 0 2.226.167 2.226.774 0 .316-.369.546-.719.665.6.086.915.373.915.7 0 .683-.938.925-2.37.925z" class="prefix__cls-1" data-name="Path 1188" transform="translate(-415.869 -555.448)"/>
        </g>
        <g id="prefix__Group_475" data-name="Group 475" transform="translate(1.885 10.896)">
            <path id="prefix__Path_1189" d="M405.739 518.745a3.127 3.127 0 0 0-2.17-2.472 3.954 3.954 0 0 0 .527-3.821c-.706-2.605-2.5-3.869-4.677-3.288l-4.955 1.318-.1.026 4.1 15.182 3.314-.883-1.58-5.848.162-.043a1.522 1.522 0 0 1 1.124.014c.439.251.642 1.011.874 1.889l.185.7a6.528 6.528 0 0 0 1.016 2.464l.222.293 3.791-1-.509-.652a21.474 21.474 0 0 1-1.324-3.879zm-5.424-2.713l-.845.224-1.063-3.935c.416-.108.845-.223.845-.223.4-.105 1.072-.285 1.563 1.533.094.353.521 2.128-.5 2.4z" class="prefix__cls-2" data-name="Path 1189" transform="translate(-394.363 -506.464)"/>
            <path id="prefix__Path_1190" d="M423.859 503.245l-4.459 1.185-.536.142 4.1 15.184 3.388-.9s-1.32-4.88-1.557-5.75c.572-.154 1.457-.386 1.457-.386 2.643-.705 3.653-2.754 2.836-5.767-1.065-3.929-3.429-4.185-5.229-3.708zm1.381 6.738l-1.206.321c-.241-.9-.821-3.034-1.061-3.932L424 506.1c.584-.156 1.251-.156 1.78 1.8.253.931-.01 1.944-.541 2.084z" class="prefix__cls-2" data-name="Path 1190" transform="translate(-408.33 -503.068)"/>
        </g>
        <g id="prefix__Group_476" data-name="Group 476" transform="translate(1.88 2.644)">
            <path id="prefix__Path_1191" d="M394.8 487.577h-.446v-3.565h.824a.407.407 0 0 1 .365.237 1.45 1.45 0 0 1 .134.7 1.594 1.594 0 0 1-.09.578.446.446 0 0 1-.305.3v.01l.1.03a.293.293 0 0 1 .129.088.607.607 0 0 1 .11.205 1.205 1.205 0 0 1 .047.377v.237c0 .102 0 .207.007.316s.01.209.016.3a1.175 1.175 0 0 0 .025.193h-.437a1.347 1.347 0 0 1-.046-.342v-.35-.3a.992.992 0 0 0-.031-.249.353.353 0 0 0-.094-.171.269.269 0 0 0-.193-.064h-.115zm0-2.025h.2a.142.142 0 0 0 .11-.049.37.37 0 0 0 .07-.126.82.82 0 0 0 .038-.17c.006-.062.01-.122.01-.178a.777.777 0 0 0-.061-.363.183.183 0 0 0-.167-.105h-.2z" class="prefix__cls-2" data-name="Path 1191" transform="translate(-394.352 -483.951)"/>
            <path id="prefix__Path_1192" d="M397.814 487.577l.59-3.565h.587l.579 3.565h-.47l-.119-.79h-.608l-.121.79zm.859-2.879h-.006l-.2 1.541h.427z" class="prefix__cls-2" data-name="Path 1192" transform="translate(-396.326 -483.951)"/>
            <path id="prefix__Path_1193" d="M403.02 484.011v.593h-.5v2.973h-.446V484.6h-.5v-.593z" class="prefix__cls-2" data-name="Path 1193" transform="translate(-398.474 -483.95)"/>
            <path id="prefix__Path_1194" d="M405.408 487.577v-3.565h.445v3.565z" class="prefix__cls-2" data-name="Path 1194" transform="translate(-400.656 -483.951)"/>
            <path id="prefix__Path_1195" d="M407.321 487.577v-3.565h.6l.567 2.469h.006v-2.469h.416v3.565h-.587l-.58-2.607h-.006v2.607z" class="prefix__cls-2" data-name="Path 1195" transform="translate(-401.747 -483.951)"/>
            <path id="prefix__Path_1196" d="M412.843 485.026c0-.082 0-.162-.008-.236a.773.773 0 0 0-.036-.2.343.343 0 0 0-.081-.137.2.2 0 0 0-.141-.052.173.173 0 0 0-.159.108.951.951 0 0 0-.083.292 3.235 3.235 0 0 0-.03.422c0 .16-.005.325-.005.5 0 .279.005.505.016.676a2.386 2.386 0 0 0 .049.4.354.354 0 0 0 .1.189.243.243 0 0 0 .156.049.34.34 0 0 0 .114-.018.79.79 0 0 0 .108-.049v-.79h-.24v-.548h.687v1.807c-.029.01-.07.022-.12.034l-.16.04c-.057.013-.115.023-.172.032a1.172 1.172 0 0 1-.151.012.859.859 0 0 1-.447-.1.62.62 0 0 1-.251-.327 2.025 2.025 0 0 1-.11-.58c-.018-.237-.025-.524-.025-.864q0-.337.016-.662a2.573 2.573 0 0 1 .089-.581.948.948 0 0 1 .224-.412.563.563 0 0 1 .426-.159.569.569 0 0 1 .293.076.651.651 0 0 1 .222.223 1.1 1.1 0 0 1 .133.361 2.155 2.155 0 0 1 .034.5z" class="prefix__cls-2" data-name="Path 1196" transform="translate(-404.329 -483.87)"/>
            <path id="prefix__Path_1197" d="M417.621 484.012h.8a.458.458 0 0 1 .261.073.555.555 0 0 1 .175.216 1.177 1.177 0 0 1 .1.339 2.824 2.824 0 0 1 .032.439 3.137 3.137 0 0 1-.021.336 1.294 1.294 0 0 1-.08.341.692.692 0 0 1-.18.264.456.456 0 0 1-.313.106h-.331v1.452h-.446zm.446 1.565h.248a.126.126 0 0 0 .092-.041.378.378 0 0 0 .071-.109.713.713 0 0 0 .046-.153.961.961 0 0 0 .016-.175c0-.073 0-.142-.01-.208a.713.713 0 0 0-.038-.172.286.286 0 0 0-.077-.116.18.18 0 0 0-.124-.042h-.223z" class="prefix__cls-2" data-name="Path 1197" transform="translate(-407.62 -483.951)"/>
            <path id="prefix__Path_1198" d="M421.432 487.577v-3.565h1.162v.549h-.717v.878h.661v.548h-.661v1.042h.742v.549z" class="prefix__cls-2" data-name="Path 1198" transform="translate(-409.793 -483.951)"/>
            <path id="prefix__Path_1199" d="M424.871 487.577v-3.565h.6l.567 2.469h.006v-2.469h.415v3.565h-.586l-.582-2.607h-.006v2.607z" class="prefix__cls-2" data-name="Path 1199" transform="translate(-411.754 -483.951)"/>
            <path id="prefix__Path_1200" d="M429.465 484.011h.743a.52.52 0 0 1 .355.118.77.77 0 0 1 .211.346 2.389 2.389 0 0 1 .1.555q.026.329.026.744v.324c0 .123-.005.253-.014.387a3.1 3.1 0 0 1-.055.4 1.286 1.286 0 0 1-.119.349.729.729 0 0 1-.207.249.51.51 0 0 1-.316.1h-.726zm.446 3.017h.215a.22.22 0 0 0 .164-.066.469.469 0 0 0 .1-.214 2.264 2.264 0 0 0 .049-.383q.014-.234.014-.57v-.469a2.512 2.512 0 0 0-.034-.393.744.744 0 0 0-.092-.271.2.2 0 0 0-.18-.1h-.229z" class="prefix__cls-2" data-name="Path 1200" transform="translate(-414.373 -483.95)"/>
            <path id="prefix__Path_1201" d="M433.641 487.577v-3.565h.445v3.565z" class="prefix__cls-2" data-name="Path 1201" transform="translate(-416.754 -483.951)"/>
            <path id="prefix__Path_1202" d="M435.557 487.577v-3.565h.6l.566 2.469h.006v-2.469h.417v3.565h-.588l-.582-2.607h-.006v2.607z" class="prefix__cls-2" data-name="Path 1202" transform="translate(-417.847 -483.951)"/>
            <path id="prefix__Path_1203" d="M441.077 485.028c0-.082 0-.162-.008-.236a.811.811 0 0 0-.036-.2.339.339 0 0 0-.082-.137.2.2 0 0 0-.142-.052.174.174 0 0 0-.159.108.921.921 0 0 0-.082.292 3.387 3.387 0 0 0-.032.422v.5c0 .279 0 .505.015.676a2.3 2.3 0 0 0 .05.4.348.348 0 0 0 .1.189.244.244 0 0 0 .156.049.341.341 0 0 0 .114-.018.844.844 0 0 0 .108-.049v-.79h-.242v-.548h.688v1.807c-.03.01-.07.022-.119.034s-.1.026-.162.04-.114.023-.171.032a1.172 1.172 0 0 1-.15.012.863.863 0 0 1-.447-.1.627.627 0 0 1-.251-.327 2.054 2.054 0 0 1-.11-.58q-.024-.355-.024-.864c0-.224 0-.445.015-.662a2.623 2.623 0 0 1 .089-.581.952.952 0 0 1 .224-.412.631.631 0 0 1 .72-.082.648.648 0 0 1 .222.223 1.1 1.1 0 0 1 .133.361 2.175 2.175 0 0 1 .034.5z" class="prefix__cls-2" data-name="Path 1203" transform="translate(-420.427 -483.871)"/>
        </g>
    </g>
</svg>
