<svg xmlns="http://www.w3.org/2000/svg" id="prefix__Group_404" width="25.969" height="38.953" data-name="Group 404" viewBox="0 0 25.969 38.953">
    <defs>
        <style>
            .prefix__cls-1{fill:#1a1818}.prefix__cls-2{fill:#fff}
        </style>
    </defs>
    <g id="prefix__Group_275" data-name="Group 275">
        <path id="prefix__Path_243" d="M481.338 477.9h-25.969v38.953h25.969z" class="prefix__cls-1" data-name="Path 243" transform="translate(-455.369 -477.904)"/>
        <g id="prefix__Group_257" data-name="Group 257" transform="translate(.377 .418)">
            <g id="prefix__Group_254" data-name="Group 254">
                <path id="prefix__Path_244" d="M481.461 478.876v38.116h-25.214v-38.116h25.214" class="prefix__cls-2" data-name="Path 244" transform="translate(-456.247 -478.876)"/>
            </g>
            <path id="prefix__Rectangle_182" d="M0 0H22.495V6.32H0z" class="prefix__cls-1" data-name="Rectangle 182" transform="translate(1.269 1.355)"/>
            <path id="prefix__Rectangle_183" d="M0 0H22.507V23.236H0z" class="prefix__cls-1" data-name="Rectangle 183" transform="translate(1.259 9.054)"/>
            <g id="prefix__Group_255" data-name="Group 255" transform="translate(1.263 33.583)">
                <path id="prefix__Path_245" d="M459.186 560.27v-3.085h4.514v.722H461v.441h2.288v.719H461v.483h2.808v.719z" class="prefix__cls-1" data-name="Path 245" transform="translate(-459.186 -557.11)"/>
                <path id="prefix__Path_246" d="M474.67 557.984a.341.341 0 0 0-.262-.209 1.648 1.648 0 0 0-.469-.057c-.4 0-.578.065-.578.18 0 .456 3.187.172 3.187 1.292 0 .714-1.072 1.063-2.593 1.063-1.461 0-2.416-.476-2.455-1.032h1.738a.445.445 0 0 0 .3.243 1.644 1.644 0 0 0 .516.078c.453 0 .756-.08.756-.227 0-.468-3.189-.147-3.189-1.323 0-.655 1.016-.984 2.4-.984 1.537 0 2.238.436 2.371.976z" class="prefix__cls-1" data-name="Path 246" transform="translate(-466.207 -557.01)"/>
                <path id="prefix__Path_247" d="M487.159 558.523h.714c.562 0 .864-.082.864-.294s-.308-.322-.731-.322h-.846zm0 .672v1.074h-1.815v-3.085h2.617c1.844 0 2.453.282 2.453.882 0 .357-.284.653-.931.757.585.117.939.19.939.813 0 .4-.024.541.192.541v.094h-1.841a1.2 1.2 0 0 1-.091-.54c0-.4-.123-.535-.969-.535z" class="prefix__cls-1" data-name="Path 247" transform="translate(-474.101 -557.11)"/>
                <path id="prefix__Path_248" d="M501.551 557.908v.516h.756c.362 0 .624-.093.624-.269 0-.242-.358-.247-.739-.247zm0 1.075v.569h.792c.45 0 .788-.052.788-.283 0-.269-.422-.286-1-.286zm-1.815 1.289v-3.085h2.648c1.246 0 2.24.168 2.24.778 0 .318-.371.55-.724.67.6.086.922.376.922.707 0 .688-.946.931-2.386.931z" class="prefix__cls-1" data-name="Path 248" transform="translate(-482.307 -557.111)"/>
            </g>
            <path id="prefix__Path_249" d="M463.545 507.3l17.412-4.341 1.343 4.641-5.6 1.4 3.752 13.039-6.225 1.553-3.754-13.039-5.592 1.4z" class="prefix__cls-2" data-name="Path 249" transform="translate(-460.408 -492.609)"/>
            <g id="prefix__Group_256" data-name="Group 256" transform="translate(1.893 2.724)">
                <path id="prefix__Path_250" d="M499.245 485.213h1.479l1.715 1.953-.059-.817v-1.136h1.512v3.576h-1.477l-1.719-1.948.029.844.032 1.1h-1.512z" class="prefix__cls-2" data-name="Path 250" transform="translate(-482.657 -485.213)"/>
                <path id="prefix__Path_251" d="M486.854 485.213h3.921v.831h-2.346v.516h1.985v.835h-1.985v.559h2.439v.836h-4.014z" class="prefix__cls-2" data-name="Path 251" transform="translate(-475.592 -485.213)"/>
                <path id="prefix__Path_252" d="M474.029 485.213h3.922v.831h-2.346v.516h1.984v.835h-1.984v.559h2.441v.836h-4.017z" class="prefix__cls-2" data-name="Path 252" transform="translate(-468.279 -485.213)"/>
                <path id="prefix__Path_253" d="M460.652 485.213h4.41v.938h-1.415v2.638h-1.58v-2.638h-1.416z" class="prefix__cls-2" data-name="Path 253" transform="translate(-460.652 -485.213)"/>
            </g>
        </g>
    </g>
</svg>
