<svg xmlns="http://www.w3.org/2000/svg" width="22.705" height="21.5" viewBox="0 0 22.705 21.5">
    <defs>
        <style>
            .cls-1{fill:#fff}
        </style>
    </defs>
    <g id="Group_3016" data-name="Group 3016" transform="translate(-277.476 -717.192)">
        <g id="Group_3014" data-name="Group 3014" transform="translate(277.476 719.637)">
            <path id="Path_3793" d="M300.107 759.477a6.769 6.769 0 0 0-8.865-5.457c-.143.047-.143 0-.143-.111v-3.758a1 1 0 0 0-.03-.323 1.182 1.182 0 0 0-.586-.642 5.318 5.318 0 0 0-1.443-.517 13.549 13.549 0 0 0-1.632-.274c-.558-.065-1.119-.1-1.681-.13a23.235 23.235 0 0 0-6.449.47 3.964 3.964 0 0 0-1.279.511 1.047 1.047 0 0 0-.524.949c.013 2.217.006 4.434.006 6.651v6.75a.867.867 0 0 0 .261.633 1.854 1.854 0 0 0 .569.387 8.532 8.532 0 0 0 2.386.617c.711.1 1.427.148 2.144.192a26.91 26.91 0 0 0 5.469-.261.213.213 0 0 1 .2.064c.168.166.339.327.522.477a6.739 6.739 0 0 0 4.123 1.568 6.592 6.592 0 0 0 3.165-.673 6.693 6.693 0 0 0 2.53-2.1 6.78 6.78 0 0 0 1.17-2.605 6.586 6.586 0 0 0 .087-2.418zm-21.5-9.551a5.87 5.87 0 0 1 1.208-.385 12.715 12.715 0 0 1 1.353-.229c.6-.071 1.212-.124 1.821-.151a27.006 27.006 0 0 1 3.639.073 17.6 17.6 0 0 1 1.81.242 6.431 6.431 0 0 1 1.515.442c.025.012.049.026.074.039.108.054.105.1 0 .161a3.75 3.75 0 0 1-.859.314 20.641 20.641 0 0 1-4.875.514 25.313 25.313 0 0 1-2.576-.123 15.655 15.655 0 0 1-2.136-.343 4.664 4.664 0 0 1-.974-.332c-.052-.026-.132-.042-.132-.11s.081-.087.133-.111zm-.223 2.528c.024-.424.009-.85 0-1.276 0-.12.026-.131.137-.086a7.59 7.59 0 0 0 1.593.428 25.208 25.208 0 0 0 4.63.327c.808-.011 1.614-.066 2.418-.149a16.926 16.926 0 0 0 1.68-.248 6.169 6.169 0 0 0 1.217-.362c.112-.049.127-.015.127.088v1.432a.215.215 0 0 1-.114.207 2.763 2.763 0 0 1-.72.283 17.235 17.235 0 0 1-3.861.542c-.4.021-.8.024-1.2.025a23.528 23.528 0 0 1-3.5-.235 8.79 8.79 0 0 1-2.056-.5l-.053-.019a.4.4 0 0 1-.296-.456zm.005 6.894c0-.117.021-.134.135-.087a6.6 6.6 0 0 0 1.273.367 24.751 24.751 0 0 0 5.2.384c.472-.009.944-.044 1.415-.077.127-.009.168.019.157.151a5.538 5.538 0 0 0 .087 1.523c.019.1-.016.12-.106.128-.758.068-1.518.1-2.359.1a23.321 23.321 0 0 1-2.482-.121 14.02 14.02 0 0 1-2.327-.4 3.2 3.2 0 0 1-.869-.325.234.234 0 0 1-.129-.227c.016-.469.011-.942.007-1.415zm8.145-.326c-.745.052-1.49.1-2.238.09a26.288 26.288 0 0 1-2.872-.159 14.354 14.354 0 0 1-2-.353 3.26 3.26 0 0 1-.91-.337.223.223 0 0 1-.122-.216c.005-.463 0-.927 0-1.39 0-.168 0-.167.155-.108a8.255 8.255 0 0 0 1.568.415 25.329 25.329 0 0 0 4.872.324c.727-.016 1.454-.057 2.178-.146.08-.01.191-.058.238.012s-.049.141-.085.21a6.214 6.214 0 0 0-.537 1.437.234.234 0 0 1-.245.223zm-1.182-2.649c-.245.014-.491 0-.737 0a24.251 24.251 0 0 1-3.184-.144 14.66 14.66 0 0 1-2.033-.358 3.252 3.252 0 0 1-.883-.329.233.233 0 0 1-.127-.228c.006-.473 0-.945 0-1.418 0-.1.01-.135.125-.088a7.539 7.539 0 0 0 1.592.43 25.174 25.174 0 0 0 4.956.322 24.139 24.139 0 0 0 3.034-.259 9.881 9.881 0 0 0 1.746-.407c.062-.021.124-.045.185-.069.159-.062.159-.062.159.115 0 .132-.005.265 0 .4a.169.169 0 0 1-.107.176 6.709 6.709 0 0 0-1.828 1.473.365.365 0 0 1-.238.126 25.32 25.32 0 0 1-2.658.26zm1.568 8.057a27.15 27.15 0 0 1-4.064.089c-.685-.04-1.367-.1-2.045-.195a8.919 8.919 0 0 1-2.084-.5l-.04-.014a.406.406 0 0 1-.3-.464c.026-.424.009-.85.006-1.276 0-.1.014-.135.127-.088a6.473 6.473 0 0 0 1.315.377 24.77 24.77 0 0 0 5.645.359c.411-.017.821-.048 1.231-.083a.221.221 0 0 1 .276.175 6.316 6.316 0 0 0 .768 1.507 5.174 5.174 0 0 1-.833.115zm6.438 1.943a5.9 5.9 0 1 1 5.906-5.815 5.917 5.917 0 0 1-5.903 5.817z" class="cls-1" data-name="Path 3793" transform="translate(-277.476 -748.225)"/>
            <path id="Path_3794" d="M456.4 862.572h.34c.08 0 .117.017.123.108a.76.76 0 0 0 .6.76c.466.1.87.064 1.11-.4a.791.791 0 0 0-.162-.924 4.217 4.217 0 0 0-.916-.627 5.766 5.766 0 0 1-.866-.58 1.566 1.566 0 0 1-.572-1.352 1.483 1.483 0 0 1 1.06-1.247c.253-.056.253-.056.253-.312 0-.369 0-.369.367-.369s.367 0 .367.365c0 .255 0 .247.236.311a1.518 1.518 0 0 1 1.068 1 1.582 1.582 0 0 1 .08.444c.006.083-.026.123-.113.123h-.68c-.078 0-.121-.024-.126-.113a.685.685 0 0 0-.447-.647.922.922 0 0 0-.915.1.669.669 0 0 0-.1.938 2.108 2.108 0 0 0 .708.549 7.555 7.555 0 0 1 1.166.737 1.593 1.593 0 0 1-.588 2.782c-.292.071-.293.065-.293.372s0 .309-.3.3c-.14 0-.318.063-.409-.03s-.033-.262-.022-.4-.036-.2-.178-.233a1.576 1.576 0 0 1-1.209-1.227c-.1-.373-.062-.423.308-.426z" class="cls-1" data-name="Path 3794" transform="translate(-441.877 -849.009)"/>
            <path id="Path_3795" d="M510.691 853.65a.525.525 0 0 1 .3.122 4.892 4.892 0 0 1 1.457 2.065.454.454 0 0 1-.219.563.439.439 0 0 1-.6-.2c-.122-.243-.219-.5-.362-.731a4.452 4.452 0 0 0-.872-1.014.42.42 0 0 1-.133-.508.45.45 0 0 1 .429-.297z" class="cls-1" data-name="Path 3795" transform="translate(-491.882 -845.344)"/>
            <path id="Path_3796" d="M421.841 920.648a.458.458 0 0 1-.261.411.442.442 0 0 1-.5-.069 4.9 4.9 0 0 1-.989-1.118 4.478 4.478 0 0 1-.477-.956.457.457 0 0 1 .225-.561.443.443 0 0 1 .595.193c.108.208.185.432.3.635a4.212 4.212 0 0 0 .908 1.093.531.531 0 0 1 .199.372z" class="cls-1" data-name="Path 3796" transform="translate(-408.391 -904.909)"/>
        </g>
        <g id="Group_3015" data-name="Group 3015" transform="translate(291.997 717.192)">
            <path id="Path_3797" d="M465.675 717.192v2.932h2.815v1.012h-2.815v2.958h-1.064v-2.958H461.8v-1.012h2.815v-2.932z" class="cls-1" data-name="Path 3797" transform="translate(-461.796 -717.192)"/>
        </g>
    </g>
</svg>
