<svg xmlns="http://www.w3.org/2000/svg" width="17.089" height="17.077" viewBox="0 0 17.089 17.077">
    <defs>
        <style>
            .prefix__cls-1{fill:#fff}
        </style>
    </defs>
    <g id="prefix__zKwYRx" transform="translate(-1219.522 -228.863)">
        <g id="prefix__Group_2963" data-name="Group 2963" transform="translate(1219.522 228.863)">
            <path id="prefix__Path_3773" d="M1233.051 228.867l1.42 3.728-3.728-.546.329-.458c.165-.228.327-.458.5-.682.048-.064.037-.087-.03-.122a7.452 7.452 0 0 0-2.682-.812 7.1 7.1 0 0 0-3.5.469 7.279 7.279 0 0 0-4.638 5.628 7.394 7.394 0 0 0 4.961 8.394 7.24 7.24 0 0 0 7.417-1.552 7.133 7.133 0 0 0 2.38-4.525 7.333 7.333 0 0 0-.461-3.742c-.031-.078-.014-.1.057-.129q.407-.16.809-.333c.071-.031.1-.015.122.052a8.5 8.5 0 0 1 .589 2.614 8.545 8.545 0 1 1-4.438-6.942c.082.045.116.031.167-.041.221-.315.449-.624.675-.936.012-.019.028-.037.051-.065z" class="prefix__cls-1" data-name="Path 3773" transform="translate(-1219.522 -228.863)"/>
            <path id="prefix__Path_3774" d="M1476.059 432.986c0-.114 0-.228-.008-.342a1.178 1.178 0 0 0-.977-1.079c-.069-.012-.083-.036-.083-.1a9.229 9.229 0 0 0-.029-1.2 2.428 2.428 0 0 0-.549-1.277 1.873 1.873 0 0 0-1.334-.631 2.126 2.126 0 0 0-1.534.4 2.255 2.255 0 0 0-.795 1.478 7.5 7.5 0 0 0-.036 1.13c0 .174 0 .173-.164.213-.031.008-.062.017-.092.028a1.209 1.209 0 0 0-.8 1.142c-.006.47 0 .94 0 1.411v1.539a1.187 1.187 0 0 0 1.215 1.194c.658-.016 1.318 0 1.977 0h2.041a1.06 1.06 0 0 0 .634-.19 1.237 1.237 0 0 0 .531-1.064q.006-1.327.003-2.652zm-2.391 1.224a1.029 1.029 0 0 1-.265.214.176.176 0 0 0-.1.188v1.11c0 .07-.017.091-.089.089h-.747c-.064 0-.085-.015-.084-.082v-.587-.577a.118.118 0 0 0-.066-.119 1.443 1.443 0 0 1-.191-.136.877.877 0 0 1-.078-1.349 1.087 1.087 0 0 1 1.8.353.814.814 0 0 1-.179.896zm.155-2.655c-.324-.006-.648 0-.972 0h-.961c-.075 0-.1-.012-.1-.1.006-.342-.006-.684.008-1.025a.983.983 0 0 1 1.168-1.007.927.927 0 0 1 .829.494 1.312 1.312 0 0 1 .134.62v.908c0 .083-.018.112-.106.11z" class="prefix__cls-1" data-name="Path 3774" transform="translate(-1464.31 -424.088)"/>
        </g>
    </g>
</svg>
