<svg xmlns="http://www.w3.org/2000/svg" width="11.764" height="11.764" viewBox="0 0 11.764 11.764">
    <g id="Group_2979" data-name="Group 2979" transform="translate(-631.502 -236.315)">
        <g id="Icon_Select_Green" data-name="Icon/Select/Green" transform="translate(631.502 236.315)">
            <g id="Group_86" data-name="Group 86">
                <g id="Group_85" data-name="Group 85">
                    <g id="Group_84" data-name="Group 84">
                        <path id="Path_113" fill="#23c197" d="M4.937 10.819a5.882 5.882 0 1 1 5.882-5.882 5.889 5.889 0 0 1-5.882 5.882z" data-name="Path 113" transform="translate(.945 .945)"/>
                    </g>
                </g>
            </g>
            <g id="Group_87" data-name="Group 87" transform="translate(2.584 2.479)">
                <path id="Path_114" fill="#fff" d="M89.4 90.436a.769.769 0 0 1-.544-.225l-1.286-1.287a.769.769 0 0 1 1.088-1.088l.659.659 3.327-4.436a.769.769 0 1 1 1.231.923l-3.86 5.146a.769.769 0 0 1-.561.306z" data-name="Path 114" transform="translate(-87.345 -83.751)"/>
            </g>
        </g>
    </g>
</svg>
