<svg xmlns="http://www.w3.org/2000/svg" width="67.077" height="67.077" viewBox="0 0 67.077 67.077">
    <g id="prefix__Group_2979" data-name="Group 2979" transform="translate(-631.502 -236.315)">
        <g id="prefix__Icon_Select_Green" data-name="Icon/Select/Green" transform="translate(631.502 236.315)">
            <g id="prefix__Group_86" data-name="Group 86">
                <g id="prefix__Group_85" data-name="Group 85">
                    <g id="prefix__Group_84" data-name="Group 84">
                        <path id="prefix__Path_113" fill="#23c197" d="M32.594 66.132a33.539 33.539 0 1 1 33.538-33.538 33.576 33.576 0 0 1-33.538 33.538z" data-name="Path 113" transform="translate(.945 .945)"/>
                    </g>
                </g>
            </g>
            <g id="prefix__Group_87" data-name="Group 87" transform="translate(14.736 14.136)">
                <path id="prefix__Path_114" fill="#fff" d="M99.067 121.867a4.387 4.387 0 0 1-3.1-1.285l-7.336-7.336a4.387 4.387 0 0 1 6.2-6.2l3.759 3.759 18.972-25.3a4.387 4.387 0 1 1 7.019 5.264l-22.007 29.343a4.386 4.386 0 0 1-3.2 1.744q-.151.011-.307.011z" data-name="Path 114" transform="translate(-87.345 -83.751)"/>
            </g>
        </g>
    </g>
</svg>
