  
<svg xmlns="http://www.w3.org/2000/svg" width="19.241" height="17.022" viewBox="0 0 19.241 17.022">
    <defs>
        <style>
            .prefix__cls-1{fill:#fff}
        </style>
    </defs>
    <g id="prefix__Group_3254" data-name="Group 3254" transform="translate(0 -.95)">
        <path id="prefix__Path_3622" d="M2297.169 415.087h-7.339a2.237 2.237 0 0 1-1.917-.876 1.6 1.6 0 0 1-.343-.984c0-.545-.007-1.09 0-1.635a.977.977 0 0 1 1.01-.968 1.022 1.022 0 0 1 1.127.934c.01.144 0 .289 0 .434a1.087 1.087 0 0 0 1.155 1.171c.8.007 1.6 0 2.4 0h9.94c1.108 0 1.451-.339 1.457-1.439a1.074 1.074 0 0 1 1.394-1.076.986.986 0 0 1 .744.943c.005.5-.018 1 .005 1.5a1.973 1.973 0 0 1-1.735 1.949 4.774 4.774 0 0 1-.664.042q-3.614.008-7.234.005z" class="prefix__cls-1" data-name="Path 3622" transform="translate(-2287.567 -397.115)"/>
        <path id="prefix__Path_3658" d="M91.2 96.294a1.444 1.444 0 0 1-1.021-.423l-2.414-2.414a1.444 1.444 0 0 1 2.041-2.042l1.237 1.237 6.243-8.324A1.444 1.444 0 1 1 99.6 86.06l-7.242 9.656a1.443 1.443 0 0 1-1.052.574q-.052.004-.106.004z" class="prefix__cls-1" data-name="Path 3658" transform="translate(-84.111 -82.8)"/>
    </g>
</svg>