<?xml version="1.0" encoding="utf-8"?>
<!-- Generator: Adobe Illustrator 22.1.0, SVG Export Plug-In . SVG Version: 6.00 Build 0)  -->
<svg version="1.1" id="Layer_1" xmlns="http://www.w3.org/2000/svg" xmlns:xlink="http://www.w3.org/1999/xlink" x="0px" y="0px"
	 viewBox="0 0 12 7" style="enable-background:new 0 0 12 7;" xml:space="preserve">
<style type="text/css">
	.st0{fill:#FFFFFF;}
</style>
<g id="Icon_Dropdown" transform="rotate(180 6 3.5)">
	<path id="Path" class="st0" d="M0.2,6.8c-0.3-0.3-0.3-0.8,0-1.2l5.3-5.4c0.2-0.2,0.6-0.3,0.9,0c0,0,0,0,0,0l5.3,5.4
		c0.3,0.3,0.3,0.8,0,1.2c-0.3,0.3-0.8,0.3-1.1,0c0,0,0,0,0,0L6,2L1.4,6.8C1.1,7.1,0.6,7.1,0.2,6.8C0.2,6.8,0.2,6.8,0.2,6.8z"/>
</g>
</svg>
