<svg xmlns="http://www.w3.org/2000/svg" width="17" height="18.27" viewBox="0 0 17 18.27">
    <defs>
        <style>
            .prefix__cls-1{fill:#fff}
        </style>
    </defs>
    <g id="prefix__Group_2908" data-name="Group 2908" transform="translate(15.514 -1326.289)">
        <g id="prefix__Group_2887" data-name="Group 2887" transform="translate(-13.802 1326.289)">
            <path id="prefix__Path_3694" d="M18.162 1358.27h-5.839a.566.566 0 0 1-.565-.565v-17.14a.566.566 0 0 1 .565-.565h5.839a.566.566 0 0 1 .565.565v17.14a.566.566 0 0 1-.565.565zm-5.525-.879h5.211v-16.512h-5.211z" class="prefix__cls-1" data-name="Path 3694" transform="translate(-11.758 -1340)"/>
        </g>
        <g id="prefix__Group_2888" data-name="Group 2888" transform="translate(-12.631 1329.491)">
            <path id="prefix__Path_3695" d="M34.762 1391.879h-3.915a.439.439 0 1 1 0-.879h3.915a.439.439 0 1 1 0 .879z" class="prefix__cls-1" data-name="Path 3695" transform="translate(-30.408 -1391)"/>
        </g>
        <g id="prefix__Group_2889" data-name="Group 2889" transform="translate(-12.631 1330.966)">
            <path id="prefix__Path_3696" d="M34.762 1415.379h-3.915a.44.44 0 0 1 0-.879h3.915a.44.44 0 0 1 0 .879z" class="prefix__cls-1" data-name="Path 3696" transform="translate(-30.408 -1414.5)"/>
        </g>
        <g id="prefix__Group_2890" data-name="Group 2890" transform="translate(-12.631 1332.442)">
            <path id="prefix__Path_3697" d="M34.762 1438.879h-3.915a.439.439 0 1 1 0-.879h3.915a.439.439 0 1 1 0 .879z" class="prefix__cls-1" data-name="Path 3697" transform="translate(-30.408 -1438)"/>
        </g>
        <g id="prefix__Group_2891" data-name="Group 2891" transform="translate(-12.631 1339.191)">
            <path id="prefix__Path_3698" d="M34.762 1546.379h-3.915a.439.439 0 1 1 0-.879h3.915a.439.439 0 1 1 0 .879z" class="prefix__cls-1" data-name="Path 3698" transform="translate(-30.408 -1545.5)"/>
        </g>
        <g id="prefix__Group_2892" data-name="Group 2892" transform="translate(-12.631 1340.667)">
            <path id="prefix__Path_3699" d="M34.762 1569.879h-3.915a.44.44 0 0 1 0-.879h3.915a.44.44 0 0 1 0 .879z" class="prefix__cls-1" data-name="Path 3699" transform="translate(-30.408 -1569)"/>
        </g>
        <g id="prefix__Group_2899" data-name="Group 2899" transform="translate(-7.712 1326.289)">
            <g id="prefix__Group_2893" data-name="Group 2893">
                <path id="prefix__Path_3700" d="M115.162 1358.27h-5.839a.566.566 0 0 1-.565-.565v-17.14a.566.566 0 0 1 .565-.565h5.839a.566.566 0 0 1 .565.565v17.14a.566.566 0 0 1-.565.565zm-5.525-.879h5.211v-16.512h-5.211z" class="prefix__cls-1" data-name="Path 3700" transform="translate(-108.758 -1340)"/>
            </g>
            <g id="prefix__Group_2894" data-name="Group 2894" transform="translate(1.171 3.202)">
                <path id="prefix__Path_3701" d="M131.762 1391.879h-3.915a.439.439 0 1 1 0-.879h3.915a.439.439 0 1 1 0 .879z" class="prefix__cls-1" data-name="Path 3701" transform="translate(-127.408 -1391)"/>
            </g>
            <g id="prefix__Group_2895" data-name="Group 2895" transform="translate(1.171 4.677)">
                <path id="prefix__Path_3702" d="M131.762 1415.379h-3.915a.44.44 0 0 1 0-.879h3.915a.44.44 0 0 1 0 .879z" class="prefix__cls-1" data-name="Path 3702" transform="translate(-127.408 -1414.5)"/>
            </g>
            <g id="prefix__Group_2896" data-name="Group 2896" transform="translate(1.171 6.153)">
                <path id="prefix__Path_3703" d="M131.762 1438.879h-3.915a.439.439 0 1 1 0-.879h3.915a.439.439 0 1 1 0 .879z" class="prefix__cls-1" data-name="Path 3703" transform="translate(-127.408 -1438)"/>
            </g>
            <g id="prefix__Group_2897" data-name="Group 2897" transform="translate(1.171 12.902)">
                <path id="prefix__Path_3704" d="M131.762 1546.379h-3.915a.439.439 0 1 1 0-.879h3.915a.439.439 0 1 1 0 .879z" class="prefix__cls-1" data-name="Path 3704" transform="translate(-127.408 -1545.5)"/>
            </g>
            <g id="prefix__Group_2898" data-name="Group 2898" transform="translate(1.171 14.378)">
                <path id="prefix__Path_3705" d="M131.762 1569.879h-3.915a.44.44 0 0 1 0-.879h3.915a.44.44 0 0 1 0 .879z" class="prefix__cls-1" data-name="Path 3705" transform="translate(-127.408 -1569)"/>
            </g>
        </g>
        <g id="prefix__Group_2907" data-name="Group 2907" transform="translate(-15.514 1343.68)">
            <path id="prefix__Path_3712" d="M1.219 1617.879h-16.466c-.148 0-.267-.2-.267-.439s.12-.439.267-.439H1.219c.148 0 .267.2.267.439s-.12.439-.267.439z" class="prefix__cls-1" data-name="Path 3712" transform="translate(15.514 -1617)"/>
        </g>
    </g>
</svg>
