<svg xmlns="http://www.w3.org/2000/svg" width="17.5" height="15.009" viewBox="0 0 17.5 15.009">
    <defs>
        <style>
            .prefix__cls-1{fill:#fff}
        </style>
    </defs>
    <g id="prefix__Group_2909" data-name="Group 2909" transform="translate(651.833 -1663.031)">
        <path id="prefix__Path_3713" d="M-645.183 1670.532l-3.359 3.35-3.29-3.286a.187.187 0 0 1 .194-.062c.684 0 1.367-.009 2.051 0 .193 0 .256-.036.263-.243a7.271 7.271 0 0 1 1.666-4.485 7.322 7.322 0 0 1 4.809-2.705 7.49 7.49 0 0 1 7.881 4.408 7.484 7.484 0 0 1-3.37 9.652 7.455 7.455 0 0 1-8.633-1.167c-.129-.12-.164-.184-.014-.321.317-.29.614-.6.914-.909.081-.083.126-.1.227-.01a5.732 5.732 0 0 0 4.5 1.59 5.833 5.833 0 0 0 5.25-4.764 5.826 5.826 0 0 0-4.607-6.776 5.845 5.845 0 0 0-6.851 4.6 7.581 7.581 0 0 0-.112.969c-.007.126.024.164.156.162.71-.007 1.419 0 2.129 0z" class="prefix__cls-1" data-name="Path 3713"/>
        <path id="prefix__Path_3714" d="M-417.362 1771.708c0-.631.007-1.262 0-1.893 0-.17.049-.2.206-.2.279.013.56.013.839 0 .163-.008.218.025.216.206-.011 1.047 0 2.1-.01 3.143a.3.3 0 0 0 .177.3c.868.508 1.731 1.026 2.6 1.534.115.067.14.115.064.233-.159.245-.305.5-.447.753-.055.1-.1.1-.193.047q-1.663-.994-3.333-1.978a.212.212 0 0 1-.115-.217c-.002-.636-.004-1.284-.004-1.928z" class="prefix__cls-1" data-name="Path 3714" transform="translate(-225.306 -102.422)"/>
    </g>
</svg>
