<svg xmlns="http://www.w3.org/2000/svg" width="19.241" height="17.973" viewBox="0 0 19.241 17.973">
    <defs>
        <style>
            .prefix__cls-1{fill:#ce0005}
        </style>
    </defs>
    <g id="prefix__Group_2846" data-name="Group 2846">
        <path id="prefix__Path_3621" d="M2304.374 372.05v-8.665a1.265 1.265 0 0 1 1.166-1.3 1.284 1.284 0 0 1 1.337.966 1.413 1.413 0 0 1 .032.4v8.519l.084.056a1.979 1.979 0 0 1 .187-.261q1.471-1.478 2.947-2.949a1.073 1.073 0 1 1 1.55 1.482q-2.643 2.663-5.306 5.306a.97.97 0 0 1-1.453 0q-2.662-2.644-5.306-5.306a1.072 1.072 0 1 1 1.537-1.492q1.478 1.47 2.949 2.947c.077.079.148.16.276.297z" class="prefix__cls-1" data-name="Path 3621" transform="translate(-2296.024 -362.076)"/>
        <path id="prefix__Path_3622" d="M2297.169 415.087h-7.339a2.237 2.237 0 0 1-1.917-.876 1.6 1.6 0 0 1-.343-.984c0-.545-.007-1.09 0-1.635a.977.977 0 0 1 1.01-.968 1.022 1.022 0 0 1 1.127.934c.01.144 0 .289 0 .434a1.087 1.087 0 0 0 1.155 1.171c.8.007 1.6 0 2.4 0h9.94c1.108 0 1.451-.339 1.457-1.439a1.074 1.074 0 0 1 1.394-1.076.986.986 0 0 1 .744.943c.005.5-.018 1 .005 1.5a1.973 1.973 0 0 1-1.735 1.949 4.774 4.774 0 0 1-.664.042q-3.614.008-7.234.005z" class="prefix__cls-1" data-name="Path 3622" transform="translate(-2287.567 -397.115)"/>
    </g>
</svg>
