<svg id="Group_3183" data-name="Group 3183" xmlns="http://www.w3.org/2000/svg" width="127.031" height="127.146" viewBox="0 0 127.031 127.146">
  <path id="Path_119" data-name="Path 119" d="M840.209,648.391c17.771-24.337,50.879-32.964,77.791-19.737,24.224,11.9,36.268,31.867,36.641,58.862.044,3.231-.968,5.94-3.779,7.727a8.075,8.075,0,0,1-12.419-6.818,49.159,49.159,0,0,0-1.946-15.8,46.323,46.323,0,0,0-20.729-26.907A47.223,47.223,0,0,0,855.3,716.787c13.094,15.089,32.7,20.23,51.734,13.821a7.736,7.736,0,0,1,8.8,2.185,7.619,7.619,0,0,1,1.413,8.624,7.923,7.923,0,0,1-4.978,4.508c-15.323,5.215-30.588,5.012-45.461-1.34-19.307-8.248-31.842-22.71-37.124-43.072-4.071-15.695-2.072-30.846,5.372-45.258a45.285,45.285,0,0,1,2.37-4.065C838.287,650.881,839.276,649.653,840.209,648.391Z" transform="translate(-827.612 -622.468)" fill="#ffd629"/>
  <g id="Group_62" data-name="Group 62" transform="translate(37.596 36.253)">
    <path id="Path_120" data-name="Path 120" d="M941.4,727.987a23.456,23.456,0,0,1-3.452,5.647,21.6,21.6,0,0,1-4.834,4.318,22.578,22.578,0,0,1-6.091,2.762,25.929,25.929,0,0,1-7.258.975,28.406,28.406,0,0,1-7.609-.975,24.478,24.478,0,0,1-6.4-2.762,23.164,23.164,0,0,1-5.118-4.292,25.318,25.318,0,0,1-3.764-5.564,28.523,28.523,0,0,1-2.314-6.58,33.555,33.555,0,0,1-.786-7.337,35,35,0,0,1,.786-7.514,29.106,29.106,0,0,1,2.314-6.689,25.583,25.583,0,0,1,3.764-5.632,23.131,23.131,0,0,1,5.118-4.331,24.183,24.183,0,0,1,6.4-2.775,28.4,28.4,0,0,1,7.609-.976,26.645,26.645,0,0,1,6.62.812,23.032,23.032,0,0,1,5.89,2.383,20.938,20.938,0,0,1,4.847,3.872,20.352,20.352,0,0,1,3.521,5.253,5.552,5.552,0,0,1,.541,2.41,5.238,5.238,0,0,1-.432,2.126,5.628,5.628,0,0,1-1.179,1.734,5.346,5.346,0,0,1-1.76,1.164,5.588,5.588,0,0,1-2.152.419,5.314,5.314,0,0,1-3.06-.92,5.382,5.382,0,0,1-1.977-2.383,11.2,11.2,0,0,0-1.747-2.817,12,12,0,0,0-2.517-2.247,12.576,12.576,0,0,0-3.1-1.489,11.321,11.321,0,0,0-3.493-.541,14.615,14.615,0,0,0-4.685.7,12.181,12.181,0,0,0-3.668,1.95,12.651,12.651,0,0,0-2.722,2.951,17.362,17.362,0,0,0-1.868,3.724,22.147,22.147,0,0,0-1.07,4.265,30.465,30.465,0,0,0-.339,4.55,28.4,28.4,0,0,0,.339,4.372,21.074,21.074,0,0,0,1.07,4.142,17.09,17.09,0,0,0,1.868,3.642,12.64,12.64,0,0,0,2.722,2.911,12.361,12.361,0,0,0,3.668,1.936,14.6,14.6,0,0,0,4.685.7,11.587,11.587,0,0,0,7.46-2.545,11.721,11.721,0,0,0,2.464-2.708,15.654,15.654,0,0,0,1.639-3.249,4.591,4.591,0,0,1,.771-1.34A5.018,5.018,0,0,1,933.273,721a5.676,5.676,0,0,1,1.463-.664,5.874,5.874,0,0,1,1.651-.23,5.521,5.521,0,0,1,3.926,1.584,5.452,5.452,0,0,1,1.192,1.746,5.463,5.463,0,0,1,.284,3.4A6.67,6.67,0,0,1,941.4,727.987Z" transform="translate(-893.768 -686.261)" fill="#ffd629"/>
  </g>
  <ellipse id="Ellipse_16" data-name="Ellipse 16" cx="7.956" cy="7.956" rx="7.956" ry="7.956" transform="translate(99.576 88.671)" fill="#ffd629"/>
</svg>
