<svg id="Group_3182" data-name="Group 3182" xmlns="http://www.w3.org/2000/svg" width="127.03" height="127.146" viewBox="0 0 127.03 127.146">
  <path id="Path_117" data-name="Path 117" d="M1145.208,648.391c17.771-24.337,50.878-32.964,77.79-19.737,24.225,11.905,36.27,31.868,36.642,58.863.045,3.229-.968,5.939-3.777,7.726a8.075,8.075,0,0,1-12.42-6.818,49.2,49.2,0,0,0-1.946-15.8,46.321,46.321,0,0,0-20.729-26.906,47.225,47.225,0,0,0-60.468,71.068c13.094,15.088,32.7,20.229,51.733,13.821a7.735,7.735,0,0,1,8.8,2.185,7.62,7.62,0,0,1,1.413,8.624,7.918,7.918,0,0,1-4.979,4.508c-15.322,5.215-30.589,5.012-45.463-1.342-19.3-8.248-31.842-22.709-37.122-43.071-4.069-15.695-2.071-30.846,5.372-45.259a45.356,45.356,0,0,1,2.37-4.064C1143.286,650.88,1144.274,649.654,1145.208,648.391Z" transform="translate(-1132.611 -622.468)" fill="#05ce79"/>
  <g id="Group_59" data-name="Group 59" transform="translate(46.013 38.012)">
    <path id="Path_118" data-name="Path 118" d="M1213.579,694.773a5.114,5.114,0,0,1,.46-2.167,5.316,5.316,0,0,1,1.246-1.719,5.742,5.742,0,0,1,1.842-1.125,6.275,6.275,0,0,1,2.273-.406l18.712.026a25.7,25.7,0,0,1,7.934,1.11,14.885,14.885,0,0,1,5.685,3.25,13.445,13.445,0,0,1,3.413,5.225,20.215,20.215,0,0,1,1.136,7.013,19.548,19.548,0,0,1-1.136,6.918,12.717,12.717,0,0,1-3.413,5.063,14.859,14.859,0,0,1-5.685,3.087,26.1,26.1,0,0,1-7.934.988h-12.89v15.38a5.1,5.1,0,0,1-.461,2.18,5.53,5.53,0,0,1-1.244,1.72,5.676,5.676,0,0,1-1.842,1.137,6.577,6.577,0,0,1-4.549,0,5.645,5.645,0,0,1-1.842-1.137,5.535,5.535,0,0,1-1.246-1.72,5.088,5.088,0,0,1-.46-2.18Zm22.205,18.142a13.149,13.149,0,0,0,3.952-.434,7.519,7.519,0,0,0,2.762-1.394,5.6,5.6,0,0,0,1.61-2.207,8.15,8.15,0,0,0,0-5.768,5.815,5.815,0,0,0-1.61-2.233,7.435,7.435,0,0,0-2.762-1.436,13.918,13.918,0,0,0-3.952-.5h-10.562v13.972Z" transform="translate(-1213.579 -689.357)" fill="#05ce79"/>
  </g>
  <ellipse id="Ellipse_15" data-name="Ellipse 15" cx="7.956" cy="7.956" rx="7.956" ry="7.956" transform="translate(99.577 88.672)" fill="#05ce79"/>
</svg>
