<svg xmlns="http://www.w3.org/2000/svg" width="14.469" height="18.75" viewBox="0 0 14.469 18.75">
    <defs>
        <style>
            .prefix__cls-1{fill:#ce0005}
        </style>
    </defs>
    <g id="prefix__Group_2911" data-name="Group 2911" transform="translate(0 -1)">
        <path id="prefix__Path_111" d="M7.4 106.6a7.159 7.159 0 0 1-7.08-5.8 7.078 7.078 0 0 1 2.917-7.348.947.947 0 0 1 .965-.177.921.921 0 0 1 .216 1.6A5.6 5.6 0 0 0 3.1 96.128a5.283 5.283 0 0 0-1.064 3.724 5.388 5.388 0 1 0 8.378-4.95.882.882 0 0 1-.4-.955.869.869 0 0 1 .7-.714.9.9 0 0 1 .751.151 7.245 7.245 0 0 1 1.521 10.584 7.062 7.062 0 0 1-4.515 2.573 5.159 5.159 0 0 1-.533.058c-.178.011-.358.001-.538.001z" class="prefix__cls-1" data-name="Path 111" transform="translate(-.176 -86.855)"/>
        <path id="prefix__Path_112" d="M61.245 3.2v8.002a.922.922 0 0 1-1.841.1v-.17-7.891c-.052-.018-.066.029-.088.051l-.961.959a.922.922 0 1 1-1.31-1.3q1.3-1.309 2.61-2.612A.914.914 0 0 1 61 .348l2.6 2.6a.922.922 0 1 1-1.3 1.305c-.346-.34-.687-.684-1.055-1.053z" class="prefix__cls-1" data-name="Path 112" transform="translate(-53.097 .951)"/>
    </g>
</svg>
