<svg xmlns="http://www.w3.org/2000/svg" width="42.441" height="37.865" viewBox="0 0 42.441 37.865">
    <defs>
        <style>
            .cls-3{fill:#17202c}
        </style>
    </defs>
    <g id="Group_3020" data-name="Group 3020" transform="translate(-277.476 -719.516)">
        <path id="Path_3805" fill="#ead009" d="M3499.833 10349v-25.166a24.855 24.855 0 0 1 10.5-2.333 47.95 47.95 0 0 1 11.833 2.333V10349s-7.833 3.168-13.333 2.5a28.5 28.5 0 0 1-9-2.5z" data-name="Path 3805" transform="translate(-3221.595 -9599.619)"/>
        <circle id="Ellipse_140" cx="11.5" cy="11.5" r="11.5" fill="#fdea00" data-name="Ellipse 140" transform="translate(294.405 732.381)"/>
        <g id="Group_3014" data-name="Group 3014" transform="translate(277.476 721.762)">
            <path id="Path_3793" d="M319.779 769.258a12.654 12.654 0 0 0-16.571-10.2c-.266.088-.268 0-.267-.208q.007-3.512 0-7.025a1.863 1.863 0 0 0-.056-.6 2.209 2.209 0 0 0-1.1-1.2 9.942 9.942 0 0 0-2.7-.966 25.342 25.342 0 0 0-3.05-.512c-1.044-.121-2.092-.193-3.143-.244a43.43 43.43 0 0 0-12.056.879 7.411 7.411 0 0 0-2.39.955 1.957 1.957 0 0 0-.98 1.775c.025 4.144.011 8.288.011 12.432v12.618a1.62 1.62 0 0 0 .488 1.184 3.464 3.464 0 0 0 1.063.723 15.951 15.951 0 0 0 4.46 1.153c1.328.192 2.668.277 4.009.359a50.309 50.309 0 0 0 10.223-.488.4.4 0 0 1 .377.12c.313.31.635.61.975.892a12.6 12.6 0 0 0 7.707 2.93 12.322 12.322 0 0 0 5.915-1.258 12.51 12.51 0 0 0 4.73-3.922 12.674 12.674 0 0 0 2.188-4.87 12.31 12.31 0 0 0 .167-4.527zm-40.186-17.853a10.969 10.969 0 0 1 2.258-.72 23.757 23.757 0 0 1 2.529-.427c1.131-.133 2.265-.231 3.4-.283a50.5 50.5 0 0 1 6.8.136 32.9 32.9 0 0 1 3.383.452 12.025 12.025 0 0 1 2.831.826c.047.022.092.049.139.073.2.1.2.2 0 .3a7.012 7.012 0 0 1-1.606.587 38.591 38.591 0 0 1-9.112.96 47.325 47.325 0 0 1-4.816-.23 29.253 29.253 0 0 1-3.993-.641 8.717 8.717 0 0 1-1.82-.62c-.1-.048-.247-.079-.246-.206s.155-.16.253-.207zm-.416 4.726c.045-.792.017-1.59.009-2.385 0-.224.048-.246.255-.161a14.191 14.191 0 0 0 2.977.8 47.126 47.126 0 0 0 8.654.612c1.51-.021 3.016-.124 4.52-.279a31.654 31.654 0 0 0 3.14-.463 11.531 11.531 0 0 0 2.274-.676c.209-.091.238-.028.236.164-.005.892-.007 1.785 0 2.677a.4.4 0 0 1-.214.387 5.166 5.166 0 0 1-1.345.53 32.213 32.213 0 0 1-7.217 1.012c-.751.04-1.5.046-2.252.047a43.974 43.974 0 0 1-6.551-.439 16.433 16.433 0 0 1-3.843-.932c-.033-.013-.066-.024-.1-.036a.756.756 0 0 1-.543-.857zm.01 12.888c0-.218.04-.251.253-.163a12.343 12.343 0 0 0 2.38.687 46.269 46.269 0 0 0 9.728.718c.883-.017 1.765-.082 2.646-.144.237-.017.314.036.293.282a10.351 10.351 0 0 0 .162 2.847c.036.182-.029.225-.2.24-1.417.127-2.838.188-4.409.181a43.591 43.591 0 0 1-4.64-.226 26.219 26.219 0 0 1-4.35-.739 5.987 5.987 0 0 1-1.625-.608.436.436 0 0 1-.24-.423c.015-.885.009-1.771.001-2.652zm15.225-.609c-1.393.1-2.786.178-4.183.168a49.131 49.131 0 0 1-5.368-.3 26.826 26.826 0 0 1-3.747-.659 6.093 6.093 0 0 1-1.7-.63.417.417 0 0 1-.228-.4c.01-.866 0-1.732 0-2.6 0-.315 0-.312.29-.2a15.422 15.422 0 0 0 2.931.776 47.346 47.346 0 0 0 9.107.606c1.359-.03 2.719-.106 4.071-.272.15-.018.357-.108.445.023s-.092.263-.158.393a11.615 11.615 0 0 0-1 2.686.437.437 0 0 1-.461.41zm-2.212-4.95c-.458.026-.918 0-1.378 0a45.319 45.319 0 0 1-5.951-.269 27.405 27.405 0 0 1-3.8-.669 6.078 6.078 0 0 1-1.651-.615.435.435 0 0 1-.238-.426c.011-.883.008-1.767 0-2.651 0-.188.019-.253.234-.165a14.093 14.093 0 0 0 2.977.8 47.053 47.053 0 0 0 9.264.6 45.114 45.114 0 0 0 5.671-.484 18.473 18.473 0 0 0 3.263-.761c.116-.04.231-.084.346-.128.3-.115.3-.116.3.215 0 .247-.01.5 0 .742a.317.317 0 0 1-.2.329 12.54 12.54 0 0 0-3.417 2.753.682.682 0 0 1-.445.235 47.326 47.326 0 0 1-4.975.494zm2.932 15.06a50.743 50.743 0 0 1-7.6.167c-1.28-.074-2.556-.178-3.823-.364a16.674 16.674 0 0 1-3.895-.941c-.024-.01-.05-.018-.075-.027a.759.759 0 0 1-.569-.868c.049-.792.017-1.59.011-2.385 0-.192.027-.252.237-.164a12.1 12.1 0 0 0 2.457.7 46.3 46.3 0 0 0 10.552.672c.768-.032 1.535-.09 2.3-.156a.413.413 0 0 1 .516.327 11.808 11.808 0 0 0 1.436 2.816 9.667 9.667 0 0 1-1.545.223zm12.035 3.633a11.026 11.026 0 1 1 11.04-10.87 11.06 11.06 0 0 1-11.038 10.87z" class="cls-3" data-name="Path 3793" transform="translate(-277.476 -748.225)"/>
            <path id="Path_3794" d="M456.81 866.87c.212 0 .424.007.636 0 .15-.006.218.032.23.2a1.42 1.42 0 0 0 1.127 1.422c.871.191 1.626.12 2.075-.747a1.478 1.478 0 0 0-.3-1.728 7.878 7.878 0 0 0-1.713-1.172 10.777 10.777 0 0 1-1.619-1.084 2.927 2.927 0 0 1-1.069-2.526 2.773 2.773 0 0 1 1.982-2.332c.473-.1.473-.1.473-.582 0-.69 0-.69.687-.69s.686 0 .686.682c0 .477 0 .462.441.581a2.837 2.837 0 0 1 2 1.865 2.96 2.96 0 0 1 .15.829c.011.154-.048.231-.21.229h-1.272c-.146 0-.227-.045-.235-.212a1.28 1.28 0 0 0-.835-1.21 1.723 1.723 0 0 0-1.71.189 1.251 1.251 0 0 0-.183 1.753 3.942 3.942 0 0 0 1.324 1.026 14.118 14.118 0 0 1 2.179 1.377 2.977 2.977 0 0 1-1.1 5.2c-.545.133-.548.122-.548.7s0 .578-.56.569c-.261 0-.594.118-.764-.056s-.061-.49-.041-.741c.022-.273-.068-.371-.334-.436a2.946 2.946 0 0 1-2.282-2.305c-.178-.7-.115-.792.576-.8z" class="cls-3" data-name="Path 3794" transform="translate(-429.655 -841.517)"/>
            <path id="Path_3795" d="M511.1 853.65a.981.981 0 0 1 .553.228 9.145 9.145 0 0 1 2.723 3.86.848.848 0 0 1-.409 1.053.821.821 0 0 1-1.126-.375c-.228-.455-.409-.931-.677-1.367a8.327 8.327 0 0 0-1.631-1.9.785.785 0 0 1-.249-.95.842.842 0 0 1 .816-.549z" class="cls-3" data-name="Path 3795" transform="translate(-475.943 -838.124)"/>
            <path id="Path_3796" d="M423.8 922.681a.857.857 0 0 1-.488.769.827.827 0 0 1-.938-.129 9.157 9.157 0 0 1-1.849-2.09 8.371 8.371 0 0 1-.892-1.787.854.854 0 0 1 .42-1.049.829.829 0 0 1 1.112.36c.2.389.345.807.566 1.188a7.875 7.875 0 0 0 1.7 2.042.992.992 0 0 1 .369.696z" class="cls-3" data-name="Path 3796" transform="translate(-398.658 -893.261)"/>
        </g>
        <g id="Group_3015" data-name="Group 3015" transform="translate(305.905 719.516)">
            <path id="Path_3797" d="M467.558 717.192v4.355h4.182v1.5h-4.182v4.394h-1.58v-4.394H461.8v-1.5h4.182v-4.355z" class="cls-3" data-name="Path 3797" transform="translate(-461.796 -717.192)"/>
        </g>
    </g>
</svg>
