<svg xmlns="http://www.w3.org/2000/svg" width="24.76" height="19.626" viewBox="0 0 24.76 19.626">
    <defs>
        <style>
            .prefix__cls-1{fill:#fff}
        </style>
    </defs>
    <g id="prefix__Group_3111" data-name="Group 3111" transform="translate(-912.693 -1182.024)">
        <g id="prefix__Group_3017" data-name="Group 3017" transform="translate(916.294 1184.619)">
            <path id="prefix__Path_3798" d="M992.217 1237.676v1.735h1.666v.6h-1.666v1.751h-.63v-1.751h-1.666v-.6h1.666v-1.735z" class="prefix__cls-1" data-name="Path 3798" transform="translate(-989.921 -1237.676)"/>
        </g>
        <path id="prefix__Path_3799" d="M1086.844 1182.024h-10.793l-1.159 2.319h1.049v5.217h11.014v-5.217H1088zm-.358.58l.58 1.16h-4.566l-.58-1.16zm-10.076 0h4.569l-.58 1.16h-4.569zm9.966 6.377h-4.638v-2.029h-.58v2.029h-4.638v-4.638h4.237l.4-.8v2.54h.58v-2.54l.4.8h4.237z" class="prefix__cls-1" data-name="Path 3799" transform="translate(-154.636)"/>
        <path id="prefix__Path_3800" d="M1122.247 1281.479h1.739v.58h-1.739z" class="prefix__cls-1" data-name="Path 3800" transform="translate(-199.782 -94.817)"/>
        <path id="prefix__Path_3801" d="M1122.247 1306.343h1.739v.58h-1.739z" class="prefix__cls-1" data-name="Path 3801" transform="translate(-199.782 -118.522)"/>
        <path id="prefix__Path_3802" d="M1171.974 1306.343h.58v.58h-.58z" class="prefix__cls-1" data-name="Path 3802" transform="translate(-247.191 -118.522)"/>
        <path id="prefix__Path_3803" d="M937.112 1325.4c-.465-.512-.948-1.01-1.44-1.5a1.171 1.171 0 0 0-1.5-.162c-.13.081-.171.035-.237-.059a5.646 5.646 0 0 0-.952-1.055 5.811 5.811 0 0 0-5.144-1.416 19.489 19.489 0 0 1-4.435.368 13.233 13.233 0 0 0-2.386-.023 2.267 2.267 0 0 0-1.535.81c-.11.141-.154.141-.275.02q-1.365-1.368-2.743-2.722a2.214 2.214 0 0 0-2.219-.581 2.016 2.016 0 0 0-1.552 1.506v.677a4.849 4.849 0 0 0 .363.772 9.957 9.957 0 0 0 .832 1c1.177 1.333 2.349 2.672 3.533 4a4.535 4.535 0 0 0 2.046 1.31 8.265 8.265 0 0 0 3.014.235 47.708 47.708 0 0 1 5.334-.011c.387.022.774.061 1.179.094a1.269 1.269 0 0 0 .091 1.956q.419.434.836.872a2.972 2.972 0 0 0 .9.743h.822c.125-.119.292-.177.418-.3q2.492-2.409 4.989-4.812a1.186 1.186 0 0 0 .061-1.722zm-12.743 2.117c-1.142.034-2.283.121-3.427.083a3.825 3.825 0 0 1-2.855-1.3q-1.95-2.192-3.885-4.4c-.1-.114-.192-.238-.282-.361-.56-.769-.064-1.426.706-1.534a1.337 1.337 0 0 1 1.2.408c1.014 1.024 2.044 2.032 3.068 3.047a.392.392 0 0 1 .156.258 2.013 2.013 0 0 0 1.729 1.889 11.761 11.761 0 0 0 3.406.219c.145-.006.289-.019.433-.027.382-.021.6-.225.576-.536-.028-.335-.267-.491-.656-.461a12 12 0 0 1-3.341-.111 2.481 2.481 0 0 1-.615-.2 1 1 0 0 1-.142-1.7 2.323 2.323 0 0 1 1.478-.328c.632.043 1.409.107 2.191.1a20.573 20.573 0 0 0 3.831-.382 4.957 4.957 0 0 1 5.182 2.049c.206.268.2.272-.048.51-.974.938-1.953 1.873-2.917 2.821a.542.542 0 0 1-.489.166 37.5 37.5 0 0 0-5.299-.208zm11.922-1.032q-2.206 2.116-4.4 4.239c-.156.151-.314.3-.469.454-.058.058-.114.114-.19.109a.294.294 0 0 1-.226-.1q-.662-.688-1.326-1.373c-.149-.153-.132-.285.021-.431q2.466-2.368 4.925-4.744a.247.247 0 0 1 .4.005c.444.456.884.915 1.327 1.373.167.183.094.32-.062.47z" class="prefix__cls-1" data-name="Path 3803" transform="translate(0 -130.589)"/>
    </g>
</svg>
