<svg xmlns="http://www.w3.org/2000/svg" id="prefix__Group_2881" width="16.426" height="15.622" data-name="Group 2881" viewBox="0 0 16.426 15.622">
    <defs>
        <style>
            .prefix__cls-1{fill:#fff}
        </style>
    </defs>
    <g id="prefix__Group_15" data-name="Group 15" transform="translate(3.514)">
        <path id="prefix__Path_36" d="M933.507 21.6a4.8 4.8 0 1 1 3.394-1.406 4.766 4.766 0 0 1-3.394 1.406zm0-8.373a3.573 3.573 0 1 0 3.573 3.573 3.578 3.578 0 0 0-3.573-3.575z" class="prefix__cls-1" data-name="Path 36" transform="translate(-928.709 -12)"/>
    </g>
    <g id="prefix__Group_16" data-name="Group 16" transform="translate(0 7.515)">
        <path id="prefix__Path_37" d="M941.816 25.879h-15.172a.612.612 0 0 1-.609-.548c-.335-3.189 2.738-6.07 2.868-6.191a.613.613 0 1 1 .833.9 10.279 10.279 0 0 0-1.375 1.657 6.185 6.185 0 0 0-1.121 2.958h13.943a6.065 6.065 0 0 0-.368-1.5 7.807 7.807 0 0 0-1.16-2.028 10.892 10.892 0 0 0-2.433-2.231.612.612 0 0 1 .693-1.01 12.027 12.027 0 0 1 2.74 2.532 8.928 8.928 0 0 1 1.336 2.382 6.314 6.314 0 0 1 .436 2.529.613.613 0 0 1-.611.55z" class="prefix__cls-1" data-name="Path 37" transform="translate(-926.009 -17.773)"/>
    </g>
</svg>
