<svg xmlns="http://www.w3.org/2000/svg" width="19.423" height="18.703" viewBox="0 0 19.423 18.703">
    <path id="prefix__Polygon_1" d="M10.536 3.522a1 1 0 0 1 1.929 0L13.7 8.047a1 1 0 0 0 1.01.735l4.676-.214a1 1 0 0 1 .6 1.832L16.07 13a1 1 0 0 0-.384 1.183l1.648 4.411a1 1 0 0 1-1.563 1.13L12.126 16.8a1 1 0 0 0-1.252 0l-3.645 2.923a1 1 0 0 1-1.563-1.13l1.648-4.411A1 1 0 0 0 6.93 13l-3.918-2.6a1 1 0 0 1 .6-1.832l4.676.214A1 1 0 0 0 9.3 8.047z" data-name="Polygon 1" transform="translate(-1.789 -2.036)" style="fill:none;stroke:#fff;stroke-linecap:round;stroke-width:1.5px"/>
</svg>
