<svg xmlns="http://www.w3.org/2000/svg" id="prefix__Group_18" width="18.592" height="19.116" data-name="Group 18" viewBox="0 0 18.592 19.116">
    <defs>
        <style>
            .prefix__cls-1{fill:#fafafa}
        </style>
    </defs>
    <path id="prefix__Path_38" d="M843.134 84.213q-2.14-2.084-4.268-4.182a7.777 7.777 0 0 0 1.7-4.822 7.914 7.914 0 1 0-3.514 6.491c1.4 1.475 2.781 2.936 4.164 4.4a.74.74 0 0 0 .968.15 2.326 2.326 0 0 0 1.09-1.127.725.725 0 0 0-.14-.91zm-10.428-3.32a5.751 5.751 0 1 1 5.72-5.761 5.768 5.768 0 0 1-5.72 5.761z" class="prefix__cls-1" data-name="Path 38" transform="translate(-824.783 -67.25)"/>
    <path id="prefix__Path_39" d="M829.846 70.607a4.868 4.868 0 0 0-2.153 3.864c.028.171.069.39.1.61.036.3.131.549.492.472.339-.072.361-.342.309-.632a3.541 3.541 0 0 1 1.36-3.36c.131-.12.286-.213.411-.339a.4.4 0 0 0 .013-.6c-.172-.197-.35-.147-.532-.015z" class="prefix__cls-1" data-name="Path 39" transform="translate(-824.204 -66.605)"/>
</svg>
