<svg xmlns="http://www.w3.org/2000/svg" id="prefix__Icon_Select_Blue" width="18.486" height="18.486" data-name="Icon/Select/Blue" viewBox="0 0 18.486 18.486">
    <g id="prefix__Group_86" data-name="Group 86">
        <g id="prefix__Group_85" data-name="Group 85">
            <g id="prefix__Group_84" data-name="Group 84">
                <path id="prefix__Path_113" fill="#46e63e" d="M8.3 17.541A9.243 9.243 0 1 1 17.541 8.3 9.253 9.253 0 0 1 8.3 17.541z" data-name="Path 113" transform="translate(.945 .945)"/>
            </g>
        </g>
    </g>
    <g id="prefix__Group_87" data-name="Group 87" transform="translate(4.877 4.679)">
        <path id="prefix__Path_114" fill="#fff" d="M90.083 92.651a1.024 1.024 0 0 1-.724-.3l-1.713-1.713a1.024 1.024 0 0 1 1.449-1.449l.878.878 4.43-5.907a1.024 1.024 0 1 1 1.639 1.229L90.9 92.242a1.024 1.024 0 0 1-.747.407z" data-name="Path 114" transform="translate(-87.345 -83.751)"/>
    </g>
</svg>
