<svg xmlns="http://www.w3.org/2000/svg" width="19.277" height="22.747" viewBox="0 0 19.277 22.747">
    <defs>
        <style>
            .prefix__cls-1{fill:#fff}
        </style>
    </defs>
    <g id="prefix__shopping-bag" transform="translate(-15.359)">
        <g id="prefix__Group_4369" data-name="Group 4369" transform="translate(22.275)">
            <g id="prefix__Group_4368" data-name="Group 4368">
                <path id="prefix__Path_11436" d="M82.559 2.811a3.277 3.277 0 0 0-5.892-1.465.385.385 0 1 0 .622.455A2.507 2.507 0 0 1 81.8 2.92a.386.386 0 0 0 .381.331.413.413 0 0 0 .055 0 .386.386 0 0 0 .323-.44z" class="prefix__cls-1" data-name="Path 11436" transform="translate(-76.593)"/>
            </g>
        </g>
        <g id="prefix__Group_4371" data-name="Group 4371" transform="translate(16.13 5.012)">
            <g id="prefix__Group_4370" data-name="Group 4370">
                <path id="prefix__Path_11437" d="M39.865 46.487l-1.157-1.928a.385.385 0 0 0-.331-.187h-1.108a.385.385 0 1 0 0 .771h.89l.694 1.157h-15.6l.694-1.157h.408a.385.385 0 1 0 0-.771h-.627a.385.385 0 0 0-.331.187l-1.157 1.928a.386.386 0 0 0 .331.584h16.963a.386.386 0 0 0 .331-.584z" class="prefix__cls-1" data-name="Path 11437" transform="translate(-22.185 -44.372)"/>
            </g>
        </g>
        <g id="prefix__Group_4373" data-name="Group 4373" transform="translate(25.522 2.16)">
            <g id="prefix__Group_4372" data-name="Group 4372">
                <path id="prefix__Path_11438" d="M111.709 20.538a.385.385 0 0 0-.24-.172l-5.256-1.229a.385.385 0 0 0-.463.288l-.4 1.694a.386.386 0 0 0 .751.175l.309-1.319 4.5 1.054-.708 3.027a.385.385 0 0 0 .288.463.39.39 0 0 0 .088.01.385.385 0 0 0 .375-.3l.8-3.4a.384.384 0 0 0-.044-.291z" class="prefix__cls-1" data-name="Path 11438" transform="translate(-105.343 -19.126)"/>
            </g>
        </g>
        <g id="prefix__Group_4375" data-name="Group 4375" transform="translate(17.633 1.172)">
            <g id="prefix__Group_4374" data-name="Group 4374">
                <path id="prefix__Path_11439" d="M43.062 13.685l-.351-2.971a.386.386 0 0 0-.428-.338l-6.448.762a.386.386 0 0 0-.337.428l.586 4.955a.386.386 0 0 0 .382.34h.046a.386.386 0 0 0 .337-.428l-.54-4.573 5.683-.672.306 2.588a.386.386 0 0 0 .766-.09z" class="prefix__cls-1" data-name="Path 11439" transform="translate(-35.494 -10.374)"/>
            </g>
        </g>
        <g id="prefix__Group_4377" data-name="Group 4377" transform="translate(20.513 3.701)">
            <g id="prefix__Group_4376" data-name="Group 4376">
                <path id="prefix__Path_11440" d="M68.733 36.247l-.765-3.182a.385.385 0 0 0-.465-.285l-6.211 1.494a.386.386 0 0 0-.285.465l.382 1.591a.386.386 0 1 0 .75-.18l-.292-1.216 5.461-1.313.675 2.807a.386.386 0 0 0 .75-.18z" class="prefix__cls-1" data-name="Path 11440" transform="translate(-60.997 -32.769)"/>
            </g>
        </g>
        <g id="prefix__Group_4379" data-name="Group 4379" transform="translate(15.359 6.94)">
            <g id="prefix__Group_4378" data-name="Group 4378">
                <path id="prefix__Path_11441" d="M33.864 61.807a.386.386 0 0 0-.385-.366H16.515a.386.386 0 0 0-.385.366l-.771 15.036a.385.385 0 0 0 .385.405H34.25a.385.385 0 0 0 .385-.405zM16.15 76.477l.732-14.265h16.23l.732 14.265z" class="prefix__cls-1" data-name="Path 11441" transform="translate(-15.359 -61.441)"/>
            </g>
        </g>
        <g id="prefix__Group_4381" data-name="Group 4381" transform="translate(26.732 8.482)">
            <g id="prefix__Group_4380" data-name="Group 4380">
                <path id="prefix__Path_11442" d="M117.209 75.093a1.157 1.157 0 1 0 1.157 1.157 1.158 1.158 0 0 0-1.157-1.157zm0 1.542a.385.385 0 1 1 .385-.385.386.386 0 0 1-.385.385z" class="prefix__cls-1" data-name="Path 11442" transform="translate(-116.052 -75.093)"/>
            </g>
        </g>
        <g id="prefix__Group_4383" data-name="Group 4383" transform="translate(20.949 8.482)">
            <g id="prefix__Group_4382" data-name="Group 4382">
                <path id="prefix__Path_11443" d="M66.009 75.093a1.157 1.157 0 1 0 1.157 1.157 1.158 1.158 0 0 0-1.157-1.157zm0 1.542a.385.385 0 1 1 .385-.385.386.386 0 0 1-.385.385z" class="prefix__cls-1" data-name="Path 11443" transform="translate(-64.852 -75.093)"/>
            </g>
        </g>
        <g id="prefix__Group_4385" data-name="Group 4385" transform="translate(21.72 9.638)">
            <g id="prefix__Group_4384" data-name="Group 4384">
                <path id="prefix__Path_11444" d="M77.848 85.333h-.03a.386.386 0 0 0-.385.385.381.381 0 0 0 .03.149v1.972a2.506 2.506 0 0 1-5.012 0v-2.12a.386.386 0 0 0-.771 0v2.12a3.277 3.277 0 1 0 6.554 0v-2.12a.386.386 0 0 0-.386-.386z" class="prefix__cls-1" data-name="Path 11444" transform="translate(-71.679 -85.333)"/>
            </g>
        </g>
    </g>
</svg>
