<svg xmlns="http://www.w3.org/2000/svg" id="prefix__Group_2848" width="18.384" height="17.484" data-name="Group 2848" viewBox="0 0 18.384 17.484">
    <defs>
        <style>
            .prefix__cls-1{fill:#383838}
        </style>
    </defs>
    <g id="prefix__Group_15" data-name="Group 15" transform="translate(3.933)">
        <path id="prefix__Path_36" d="M934.08 22.743a5.37 5.37 0 1 1 3.8-1.574 5.334 5.334 0 0 1-3.8 1.574zm0-9.372a4 4 0 1 0 4 4 4 4 0 0 0-4-4z" class="prefix__cls-1" data-name="Path 36" transform="translate(-928.709 -12)"/>
    </g>
    <g id="prefix__Group_16" data-name="Group 16" transform="translate(0 8.411)">
        <path id="prefix__Path_37" d="M943.7 26.846h-16.98a.685.685 0 0 1-.682-.613c-.374-3.57 3.064-6.794 3.21-6.93a.686.686 0 1 1 .933 1.007 11.508 11.508 0 0 0-1.539 1.855 6.923 6.923 0 0 0-1.254 3.31h15.606a6.791 6.791 0 0 0-.412-1.684 8.739 8.739 0 0 0-1.3-2.27 12.191 12.191 0 0 0-2.723-2.5.685.685 0 1 1 .775-1.131 13.461 13.461 0 0 1 3.067 2.834 9.991 9.991 0 0 1 1.495 2.666 7.066 7.066 0 0 1 .488 2.831.687.687 0 0 1-.684.625z" class="prefix__cls-1" data-name="Path 37" transform="translate(-926.009 -17.773)"/>
    </g>
</svg>
