<svg xmlns="http://www.w3.org/2000/svg" width="19.29" height="18.586" viewBox="0 0 19.29 18.586">
    <defs>
        <style>
            .prefix__cls-1{fill:#fff;stroke:#fff;stroke-linecap:round;stroke-width:.2px}
        </style>
    </defs>
    <g id="prefix__Group_2964" data-name="Group 2964" transform="translate(-2946.9 -1730.9)">
        <g id="prefix__Icon_Wallet_Topup" data-name="Icon/Wallet Topup" transform="translate(2947 1731)">
            <g id="prefix__Group_11" data-name="Group 11">
                <path id="prefix__Path_30" d="M2326.7 380.075a1.678 1.678 0 0 0-1.185-.6c-.088-.007-.177-.006-.266-.006h-4.721a.488.488 0 0 1-.25-.064q-2.137-1.192-4.276-2.379c-.123-.068-.253-.123-.38-.184h-.391a.148.148 0 0 1-.043.028 1.01 1.01 0 0 0-.683.528c-.362.65-.726 1.3-1.082 1.951a.2.2 0 0 1-.205.121 7.9 7.9 0 0 0-1.269.026 1.635 1.635 0 0 0-1.333 1.127 1.952 1.952 0 0 0-.1.672v3.6c0 .114-.024.153-.143.146-.195-.011-.391 0-.587 0-.079 0-.116.014-.116.106v4.107c0 .081.027.1.1.1.191 0 .383.007.573 0 .129-.008.17.021.169.162-.007 1.052 0 2.1 0 3.157a1.714 1.714 0 0 0 1.385 1.747c.031.007.066 0 .089.031h9.714c-.01-.021-.021-.042-.029-.064q-.144-.3-.269-.614h-9.11a1.286 1.286 0 0 1-.318-.03 1 1 0 0 1-.777-1.038v-3.214c0-.112.031-.136.138-.135h2.278a2.071 2.071 0 0 0 1.553-.645 2.186 2.186 0 0 0 .546-1.953 2.051 2.051 0 0 0-1.884-1.7c-.828-.024-1.657-.014-2.487-.011-.119 0-.144-.034-.144-.147 0-1.006.006-2.012 0-3.018 0-.141.041-.162.169-.162q6.854.005 13.708 0a.748.748 0 0 0 .221-.021.324.324 0 0 0 .236-.251.315.315 0 0 0-.1-.315.42.42 0 0 0-.312-.094c-.5 0-1.007-.01-1.509 0a1.229 1.229 0 0 1-.7-.176c-.408-.246-.832-.468-1.248-.7l.012-.028h3.672a1.025 1.025 0 0 1 1.088 1.085v6.366c.225.011.45.033.674.061v-6.38a1.775 1.775 0 0 0-.408-1.192zm-13.072 5.646a1.47 1.47 0 0 1 1.27 2.2 1.342 1.342 0 0 1-1.276.748h-3.157c-.085 0-.121-.013-.121-.112q.007-1.362 0-2.724c0-.085.012-.122.113-.122 1.06.009 2.117-.003 3.174.01zm-1.119-4.733a.112.112 0 0 1-.116.055h-1.088c-.088 0-.093-.026-.078-.1a1.006 1.006 0 0 1 .953-.793c.255-.011.51 0 .794 0-.16.289-.312.563-.462.838zm9.306.048h-8.557c.036-.069.061-.119.088-.167l1.715-3.083a.378.378 0 0 1 .609-.174l5.945 3.307.203.117z" class="prefix__cls-1" data-name="Path 30" transform="translate(-2309.674 -376.842)"/>
                <path id="prefix__Path_31" d="M2340.906 479.243a.744.744 0 1 0 .726-.765.746.746 0 0 0-.726.765z" class="prefix__cls-1" data-name="Path 31" transform="translate(-2337.944 -468.839)"/>
            </g>
            <g id="prefix__Group_12" data-name="Group 12" transform="translate(11.812 11.109)">
                <path id="prefix__Path_32" d="M2437.867 501.257a3.639 3.639 0 1 1 3.639-3.639 3.643 3.643 0 0 1-3.639 3.639zm0-6.614a2.975 2.975 0 1 0 2.975 2.975 2.978 2.978 0 0 0-2.975-2.975z" class="prefix__cls-1" data-name="Path 32" transform="translate(-2434.228 -493.979)"/>
            </g>
            <g id="prefix__Group_13" data-name="Group 13" transform="translate(14.183 13.306)">
                <path id="prefix__Path_33" d="M2460.962 517.152v1.23h1.18v.531h-1.18v1.241h-.553v-1.241h-1.18v-.531h1.18v-1.23z" class="prefix__cls-1" data-name="Path 33" transform="translate(-2459.229 -517.152)"/>
            </g>
        </g>
    </g>
</svg>
