<svg xmlns="http://www.w3.org/2000/svg" width="23.756" height="26.254" viewBox="0 0 23.756 26.254">
    <defs>
        <style>
            .prefix__cls-1{fill:#fff}
        </style>
    </defs>
    <g id="prefix__Group_2756" data-name="Group 2756">
        <path id="prefix__Path_180" d="M371.538 88.309c.18.043.367.073.543.131a2.485 2.485 0 0 1 1.706 2.339v1.903h5.564a.637.637 0 0 1 .646.406.623.623 0 0 1-.594.845h-2.61c-.028.281-.058.556-.084.828l-.288 2.972q-.138 1.452-.279 2.9c-.092.968-.189 1.936-.281 2.905-.086.869-.167 1.74-.253 2.609-.084.884-.172 1.768-.255 2.652s-.167 1.749-.255 2.624a8.945 8.945 0 0 1-.152 1.272 2.446 2.446 0 0 1-2.1 1.839.337.337 0 0 0-.075.024h-9.216a4.7 4.7 0 0 1-.605-.152 2.468 2.468 0 0 1-1.661-2.251c-.082-.957-.178-1.91-.27-2.865q-.122-1.313-.251-2.624l-.283-2.905-.251-2.609q-.125-1.309-.255-2.639-.129-1.31-.253-2.624l-.191-1.961h-2.61a.622.622 0 0 1-.575-.895.615.615 0 0 1 .6-.354h5.592v-.148-1.715a2.493 2.493 0 0 1 2.174-2.489.761.761 0 0 0 .075-.021zm-10.755 5.633c.043.459.086.912.131 1.365q.125 1.316.255 2.637t.251 2.611l.283 2.905c.086.875.167 1.749.253 2.624.092.968.189 1.938.283 2.905s.182 1.936.279 2.9a2.666 2.666 0 0 0 .112.629 1.225 1.225 0 0 0 1.232.79h8.746a1.256 1.256 0 0 0 1.178-1.161c.041-.528.094-1.058.146-1.586.084-.888.172-1.777.258-2.665l.251-2.6.258-2.65q.125-1.307.253-2.614t.255-2.637l.258-2.652c.026-.264.049-.53.075-.8zm3.006-1.268h8.74c0-.043.009-.077.009-.112v-1.714a1.235 1.235 0 0 0-1.292-1.287q-3.08-.006-6.161 0a1.237 1.237 0 0 0-1.294 1.3v1.393z" class="prefix__cls-1" data-name="Path 180" transform="translate(-356.283 -88.309)"/>
        <path id="prefix__Path_181" d="M364.543 99.289l-.206 4.4q-.051 1.094-.105 2.193a.624.624 0 0 1-1.247-.062q.064-1.4.131-2.8.077-1.551.15-3.1.106-2.166.208-4.332l.137-2.875a.621.621 0 1 1 1.24.047c-.047 1.084-.1 2.167-.152 3.251l-.154 3.277z" class="prefix__cls-1" data-name="Path 181" transform="translate(-348.604 -83.97)"/>
        <path id="prefix__Path_182" d="M361.336 99.274q.106 2.16.208 4.32c.036.745.073 1.487.105 2.232a.624.624 0 0 1-1.247.051l-.219-4.654-.257-5.322q-.074-1.574-.144-3.144a.614.614 0 0 1 .436-.633.607.607 0 0 1 .7.257.682.682 0 0 1 .1.3c.058 1.1.109 2.2.161 3.3s.105 2.2.159 3.292z" class="prefix__cls-1" data-name="Path 182" transform="translate(-352.274 -83.97)"/>
        <path id="prefix__Path_183" d="M362.772 99.292v6.5a.623.623 0 1 1-1.24.109V92.825a1.09 1.09 0 0 1 .03-.29.619.619 0 0 1 1.21.155v.174z" class="prefix__cls-1" data-name="Path 183" transform="translate(-350.272 -83.969)"/>
    </g>
</svg>
