<svg xmlns="http://www.w3.org/2000/svg" id="prefix__Group_2756" width="19.483" height="21.532" data-name="Group 2756" viewBox="0 0 19.483 21.532">
    <defs>
        <style>
            .prefix__cls-1{fill:#d50000}
        </style>
    </defs>
    <path id="prefix__Path_180" d="M368.794 88.309c.148.035.3.06.445.107a2.038 2.038 0 0 1 1.4 1.918V91.9h4.561a.522.522 0 0 1 .53.333.511.511 0 0 1-.488.693H373.102c-.023.231-.048.456-.069.679l-.236 2.437q-.113 1.191-.229 2.381c-.076.794-.155 1.587-.231 2.383-.07.713-.137 1.427-.208 2.14s-.141 1.45-.209 2.175-.137 1.434-.209 2.152a7.337 7.337 0 0 1-.125 1.044 2.006 2.006 0 0 1-1.723 1.508.277.277 0 0 0-.062.019h-7.559a3.857 3.857 0 0 1-.5-.125 2.024 2.024 0 0 1-1.362-1.846c-.067-.785-.146-1.566-.222-2.349q-.1-1.077-.206-2.152l-.232-2.383q-.1-1.069-.206-2.14t-.209-2.165q-.106-1.074-.208-2.152c-.053-.531-.1-1.063-.157-1.609H356.8a.511.511 0 0 1-.472-.734.5.5 0 0 1 .489-.29h4.587v-.121-1.406a2.045 2.045 0 0 1 1.783-2.041.625.625 0 0 0 .062-.018zm-8.821 4.62c.035.377.07.748.107 1.119q.1 1.08.209 2.163l.206 2.142.232 2.383c.07.718.137 1.434.208 2.152.076.794.155 1.589.232 2.383s.15 1.587.229 2.381a2.186 2.186 0 0 0 .092.516 1 1 0 0 0 1.01.648h7.174a1.03 1.03 0 0 0 .966-.952c.033-.433.077-.868.12-1.3.069-.729.141-1.457.211-2.186l.206-2.131.211-2.173.208-2.144q.1-1.08.209-2.163l.211-2.175.062-.658zm2.466-1.04h7.168c0-.035.007-.063.007-.092v-1.406a1.013 1.013 0 0 0-1.059-1.056q-2.526-.005-5.053 0a1.014 1.014 0 0 0-1.061 1.065v1.142z" class="prefix__cls-1" data-name="Path 180" transform="translate(-356.283 -88.309)"/>
    <path id="prefix__Path_181" d="M364.263 98l-.169 3.61-.086 1.8a.512.512 0 0 1-1.023-.051l.107-2.293q.063-1.272.123-2.545.087-1.777.171-3.553.055-1.18.113-2.358a.509.509 0 1 1 1.017.039c-.039.889-.083 1.777-.125 2.666L364.265 98z" class="prefix__cls-1" data-name="Path 181" transform="translate(-351.19 -85.431)"/>
    <path id="prefix__Path_182" d="M361.056 97.983q.087 1.771.171 3.543c.03.611.06 1.22.086 1.83a.512.512 0 0 1-1.022.042l-.18-3.817-.211-4.365q-.061-1.291-.118-2.578a.5.5 0 0 1 .357-.519.5.5 0 0 1 .576.211.559.559 0 0 1 .081.245c.047.9.09 1.806.132 2.708s.086 1.8.13 2.7z" class="prefix__cls-1" data-name="Path 182" transform="translate(-353.624 -85.431)"/>
    <path id="prefix__Path_183" d="M362.548 98v5.327a.511.511 0 1 1-1.017.09V92.694a.894.894 0 0 1 .025-.238.508.508 0 0 1 .993.127v.143z" class="prefix__cls-1" data-name="Path 183" transform="translate(-352.297 -85.431)"/>
</svg>
