<svg xmlns="http://www.w3.org/2000/svg" id="prefix__refresh" width="13.168" height="13.168" viewBox="0 0 13.168 13.168">
    <defs>
        <style>
            .prefix__cls-1{fill:#ce0005}
        </style>
    </defs>
    <path id="prefix__Path_3825" d="M1.582 7.191a5.21 5.21 0 0 1-.038-.607 5.02 5.02 0 0 1 8.422-3.711l-.445.453a.4.4 0 0 0-.1.386.4.4 0 0 0 .293.262c.078.016 2.629.838 2.466.805a.39.39 0 0 0 .455-.455l-.548-2.749a.382.382 0 0 0-.648-.193l-.378.37A6.588 6.588 0 0 0 0 6.584V6.6c0 .218.01.386.021.514a.386.386 0 0 0 .309.344l.793.158a.386.386 0 0 0 .459-.425zm0 0" class="prefix__cls-1" data-name="Path 3825"/>
    <path id="prefix__Path_3826" d="M32.759 215.591l-.795-.162a.386.386 0 0 0-.46.425 5.251 5.251 0 0 1 .04.611 5.014 5.014 0 0 1-8.423 3.7l.445-.445a.394.394 0 0 0 .1-.386.4.4 0 0 0-.293-.262c-.078-.016-2.629-.838-2.466-.8a.378.378 0 0 0-.347.108.384.384 0 0 0-.108.347l.548 2.722a.386.386 0 0 0 .27.293.371.371 0 0 0 .378-.1l.37-.37a6.574 6.574 0 0 0 11.069-4.807v-.023c0-.171-.006-.339-.02-.506a.386.386 0 0 0-.308-.345zm0 0" class="prefix__cls-1" data-name="Path 3826" transform="translate(-19.919 -209.881)"/>
</svg>
