<svg xmlns="http://www.w3.org/2000/svg" width="14.969" height="14.5" viewBox="0 0 14.969 14.5">
    <defs>
        <style>
            .prefix__cls-1{fill:#fff}
        </style>
    </defs>
    <g id="prefix__Group_2959" data-name="Group 2959">
        <path id="prefix__Path_3771" d="M443.015 450.317h-5.106a2.268 2.268 0 0 1-2.326-1.9 1.383 1.383 0 0 1-.026-.279c0-.913-.016-1.827 0-2.739a.785.785 0 0 1 1.193-.679.767.767 0 0 1 .4.715v2.534a.682.682 0 0 0 .73.74h10.362a.668.668 0 0 0 .652-.662v-2.59a.8.8 0 0 1 .826-.848.765.765 0 0 1 .77.744 26.929 26.929 0 0 1-.02 2.945 2.223 2.223 0 0 1-2.139 2.012c-.075 0-.15.005-.225.005z" class="prefix__cls-1" data-name="Path 3771" transform="translate(-435.55 -435.818)"/>
        <path id="prefix__Path_3772" d="M441.46 440.826a.389.389 0 0 0-.17.137q-1.037 1.033-2.072 2.068a.8.8 0 0 1-1.374-.408.749.749 0 0 1 .154-.617 1.726 1.726 0 0 1 .165-.179q1.717-1.719 3.437-3.437a.819.819 0 0 1 1.317 0q1.746 1.743 3.49 3.49a.8.8 0 0 1-.995 1.248 1.858 1.858 0 0 1-.195-.176q-1-1-2.005-2c-.042-.042-.071-.1-.158-.115v6.394a.8.8 0 0 1-1.588.145c-.007-.087-.005-.174-.005-.262z" class="prefix__cls-1" data-name="Path 3772" transform="translate(-434.77 -438.058)"/>
    </g>
</svg>
