<svg xmlns="http://www.w3.org/2000/svg" width="41" height="41" viewBox="0 0 41 41">
    <defs>
        <style>
            .prefix__cls-2{fill:#fff}
        </style>
    </defs>
    <g id="prefix__Group_2960" data-name="Group 2960" transform="translate(-428.252 -430.586)">
        <circle id="prefix__Ellipse_139" cx="20.5" cy="20.5" r="20.5" fill="#ce0005" data-name="Ellipse 139" transform="translate(428.252 430.586)"/>
        <g id="prefix__Group_2959" data-name="Group 2959" transform="translate(439.872 442.485)">
            <path id="prefix__Path_3771" d="M444.407 451.381h-6.057a2.691 2.691 0 0 1-2.759-2.253 1.641 1.641 0 0 1-.03-.331c0-1.083-.019-2.167 0-3.25a.932.932 0 0 1 1.416-.806.91.91 0 0 1 .47.849v3.006a.809.809 0 0 0 .866.877h12.293a.793.793 0 0 0 .774-.785v-3.073a.947.947 0 0 1 .979-1.006.907.907 0 0 1 .914.882 31.954 31.954 0 0 1-.024 3.494 2.638 2.638 0 0 1-2.538 2.387c-.089 0-.178.006-.268.006z" class="prefix__cls-2" data-name="Path 3771" transform="translate(-435.55 -434.18)"/>
            <path id="prefix__Path_3772" d="M442.137 441.341a.462.462 0 0 0-.2.162q-1.23 1.225-2.459 2.454a.951.951 0 0 1-1.631-.484.889.889 0 0 1 .183-.733 2.05 2.05 0 0 1 .2-.212q2.037-2.04 4.078-4.078a.972.972 0 0 1 1.562 0q2.071 2.068 4.14 4.14a.947.947 0 0 1-1.18 1.481 2.209 2.209 0 0 1-.231-.209l-2.379-2.377c-.049-.049-.084-.121-.188-.137v7.589a.946.946 0 0 1-1.884.172c-.008-.1-.006-.207-.006-.31z" class="prefix__cls-2" data-name="Path 3772" transform="translate(-434.2 -438.058)"/>
        </g>
    </g>
</svg>
