<svg xmlns="http://www.w3.org/2000/svg" id="prefix__Icon_Waiting_Green" width="35.59" height="35.586" data-name="Icon/Waiting/Green" viewBox="0 0 35.59 35.586">
    <defs>
        <style>
            .prefix__cls-1{fill:#23c197}
        </style>
    </defs>
    <path id="prefix__Path_171" d="M-419.1 477.925a18.267 18.267 0 0 0-1.841-.092h-.018a1.853 1.853 0 0 0-1.822 1.869v7.335a1.742 1.742 0 0 0 .147.718 1.834 1.834 0 0 0 1.918 1.11 1.9 1.9 0 0 0 1.616-1.911v-5.316a14.117 14.117 0 0 1 12.275 13.591A14.117 14.117 0 0 1-418.3 509.5a14.117 14.117 0 0 1-15.913-9.064 14.117 14.117 0 0 1 6.425-17.149 1.828 1.828 0 0 0 .785-2.3v-.005a1.844 1.844 0 0 0-1.1-1.036 1.845 1.845 0 0 0-1.5.128 17.794 17.794 0 0 0-8.021 21.734 17.793 17.793 0 0 0 20.258 11.24 17.793 17.793 0 0 0 14.2-18.308 17.794 17.794 0 0 0-15.934-16.815z" class="prefix__cls-1" data-name="Path 171" transform="translate(438.741 -477.833)"/>
    <path id="prefix__Path_172" d="M-329.3 588.221a35.335 35.335 0 0 0 4.975 8.513 3.166 3.166 0 0 0 4.334.384 3.07 3.07 0 0 0 1.091-2.218 3.071 3.071 0 0 0-.9-2.3c-1.9-1.895-6.7-4.406-8.722-5.171a.613.613 0 0 0-.651.142.612.612 0 0 0-.127.65z" class="prefix__cls-1" data-name="Path 172" transform="translate(340.376 -576.341)"/>
</svg>
