<svg xmlns="http://www.w3.org/2000/svg" width="54.405" height="77.932" viewBox="0 0 54.405 77.932">
    <defs>
        <style>
            .prefix__cls-1{fill:#401e10}.prefix__cls-2{fill:#592c20}.prefix__cls-3{fill:#291208}.prefix__cls-4{fill:#170903}.prefix__cls-5{fill:#6b3e31}
        </style>
    </defs>
    <g id="prefix__Group_3946" data-name="Group 3946" transform="translate(-2185.185 -2193.524)">
        <path id="prefix__Path_10467" d="M2395.5 2194.027l.059.04c.039.027.1.065.175.11a3.192 3.192 0 0 0 .721.31 5.221 5.221 0 0 0 1.216.2 10.8 10.8 0 0 0 1.612-.054c.588-.06 1.229-.174 1.891-.3.628-.175 1.341-.4 2.079-.537a15.349 15.349 0 0 1 2.311-.258 10.525 10.525 0 0 1 2.4.123 13.429 13.429 0 0 1 2.309.628c.74.27 1.441.552 2.134.852a3.693 3.693 0 0 1 .957.595l.051.047.03.028.022.023.088.092c.06.072.123.144.172.216a2.664 2.664 0 0 1 .256.447 6.344 6.344 0 0 1 .443 1.757c.17 1.083.291 1.989.375 2.623l.122 1-.035.005-.228-.983c-.138-.626-.335-1.521-.545-2.6a7.1 7.1 0 0 0-.476-1.666 2.558 2.558 0 0 0-.235-.392c-.044-.065-.092-.119-.139-.178l-.088-.093-.022-.023-.018-.016-.043-.041a3.687 3.687 0 0 0-.857-.544c-.656-.3-1.371-.6-2.083-.889a15.5 15.5 0 0 0-2.23-.722 8.214 8.214 0 0 0-1.17-.18c-.4-.026-.79-.025-1.184-.012a11.18 11.18 0 0 0-2.266.343c-.725.18-1.369.437-2.056.629a14.9 14.9 0 0 1-1.934.286 8.428 8.428 0 0 1-1.662 0 4.737 4.737 0 0 1-1.247-.285 3.087 3.087 0 0 1-.711-.383 2.076 2.076 0 0 1-.162-.13l-.054-.047z" class="prefix__cls-1" data-name="Path 10467" transform="translate(-186.377)"/>
        <path id="prefix__Path_10468" d="M2204.842 2358.159l-.223.117c-.151.073-.351.193-.6.348a8.476 8.476 0 0 0-.85.642 8.859 8.859 0 0 0-.954.98 9.606 9.606 0 0 0-1.628 2.928 12.336 12.336 0 0 0-.627 3.745 23.564 23.564 0 0 0 .265 3.807 16.125 16.125 0 0 0 .708 3.265 5.3 5.3 0 0 0 1.254 2.039 2.849 2.849 0 0 0 .3.264 2.023 2.023 0 0 0 .239.177l.208.138-.21-.135a1.967 1.967 0 0 1-.242-.174 2.8 2.8 0 0 1-.3-.26 5.341 5.341 0 0 1-1.3-2.032 16.249 16.249 0 0 1-.767-3.267 23.766 23.766 0 0 1-.332-3.823 12.518 12.518 0 0 1 .572-3.808 9.839 9.839 0 0 1 1.619-3.026 9.161 9.161 0 0 1 .97-1.029 8.768 8.768 0 0 1 .876-.682c.265-.172.475-.3.619-.373l.221-.121z" class="prefix__cls-1" data-name="Path 10468" transform="translate(-12.937 -145.664)"/>
        <path id="prefix__Path_10469" d="M2193.06 2347.982l-.259.151c-.17.1-.417.242-.713.438-.152.094-.315.206-.491.332s-.367.26-.561.414a16.158 16.158 0 0 0-1.263 1.08 16.476 16.476 0 0 0-1.322 1.429 15.92 15.92 0 0 0-1.237 1.756 13.532 13.532 0 0 0-1.67 4.26 9.673 9.673 0 0 0 .122 4.51 7.622 7.622 0 0 0 .84 1.942 8.144 8.144 0 0 0 1.2 1.522 7.8 7.8 0 0 0 1.3 1.051 7.413 7.413 0 0 0 1.167.61 6.349 6.349 0 0 0 .809.282l.294.081-.3-.077a6.447 6.447 0 0 1-.814-.272 7.475 7.475 0 0 1-1.179-.6 7.87 7.87 0 0 1-1.326-1.042 8.2 8.2 0 0 1-1.231-1.52 7.732 7.732 0 0 1-.877-1.952 9.792 9.792 0 0 1-.189-4.564 13.69 13.69 0 0 1 1.631-4.338 16.078 16.078 0 0 1 1.231-1.8 15.648 15.648 0 0 1 2.594-2.586c.2-.16.386-.3.567-.429s.342-.248.5-.347c.307-.208.552-.356.72-.454l.257-.154z" class="prefix__cls-1" data-name="Path 10469" transform="translate(0 -136.65)"/>
        <path id="prefix__Path_10470" d="M2212.409 2299.329l-.223-.1c-.141-.059-.351-.15-.63-.242a7.761 7.761 0 0 0-2.406-.4 8.452 8.452 0 0 0-1.638.154c-.577.106-1.178.263-1.8.436a18.872 18.872 0 0 0-3.737 1.4 9.071 9.071 0 0 0-1.655 1.1 6.029 6.029 0 0 0-1.252 1.392 3.3 3.3 0 0 0-.523 1.6 3.959 3.959 0 0 0 .221 1.5 7.1 7.1 0 0 0 1.148 2.019c.176.225.324.395.428.509l.158.175-.162-.173c-.105-.112-.257-.28-.437-.5a7.168 7.168 0 0 1-1.189-2.011 4.03 4.03 0 0 1-.251-1.515 3.378 3.378 0 0 1 .508-1.648 6.124 6.124 0 0 1 1.252-1.439 9.186 9.186 0 0 1 1.664-1.141 19.018 19.018 0 0 1 3.755-1.473c.619-.183 1.225-.351 1.815-.468a8.8 8.8 0 0 1 1.694-.185 8.141 8.141 0 0 1 2.522.38c.293.092.517.185.672.247l.224.1z" class="prefix__cls-1" data-name="Path 10470" transform="translate(-11.765 -92.87)"/>
        <path id="prefix__Path_10471" d="M2262.963 2260.986l-.113.1a2.689 2.689 0 0 1-.384.276 3.421 3.421 0 0 1-1.608.458 4.014 4.014 0 0 1-.549-.019 4.291 4.291 0 0 1-.565-.1 4.709 4.709 0 0 1-1.134-.455 5.419 5.419 0 0 1-1.03-.745 3.214 3.214 0 0 1-.765-1.026 1.819 1.819 0 0 1-.1-1.235 3.042 3.042 0 0 1 .588-1.064 9.7 9.7 0 0 1 .791-.837c.263-.254.513-.494.752-.708a8.941 8.941 0 0 1 1.235-.953 5.467 5.467 0 0 1 .524-.291 5.4 5.4 0 0 0-.515.3 8.8 8.8 0 0 0-1.2.977c-.232.219-.475.464-.73.724a9.359 9.359 0 0 0-.76.846 2.909 2.909 0 0 0-.538 1.034 1.688 1.688 0 0 0 .122 1.142 3.067 3.067 0 0 0 .75.95 5.205 5.205 0 0 0 1.006.69 4.44 4.44 0 0 0 1.079.4 4.014 4.014 0 0 0 .532.083 3.906 3.906 0 0 0 .495.005 3.061 3.061 0 0 0 1.433-.443 2.387 2.387 0 0 0 .321-.241l.11-.106z" class="prefix__cls-1" data-name="Path 10471" transform="translate(-63.339 -53.944)"/>
        <path id="prefix__Path_10472" d="M2233.162 2266.61s-.2.031-.56.074c-.181.021-.4.044-.653.062s-.537.034-.848.036a11.7 11.7 0 0 1-2.117-.154 9.926 9.926 0 0 1-1.163-.269 8.223 8.223 0 0 1-1.14-.439 6.72 6.72 0 0 1-1.042-.606 5.249 5.249 0 0 1-.858-.76 3.516 3.516 0 0 1-.887-1.732 2.79 2.79 0 0 1 .087-1.346 2.67 2.67 0 0 1 .151-.354l.066-.12-.063.122a2.689 2.689 0 0 0-.139.356 2.749 2.749 0 0 0-.047 1.334 3.459 3.459 0 0 0 .918 1.674 5.164 5.164 0 0 0 .86.72 6.558 6.558 0 0 0 1.034.566 8.074 8.074 0 0 0 1.123.4 9.7 9.7 0 0 0 1.14.233 11.383 11.383 0 0 0 2.067.1 14.043 14.043 0 0 0 1.458-.132c.35-.051.553-.087.553-.087z" class="prefix__cls-1" data-name="Path 10472" transform="translate(-34.268 -59.804)"/>
        <path id="prefix__Path_10473" d="M2294.891 2200.1c.116-.059.239-.114.349-.175s.208-.12.308-.2a5.127 5.127 0 0 0 .578-.471 14.645 14.645 0 0 0 1.026-1.1 11.834 11.834 0 0 1 1.065-1.112 4.787 4.787 0 0 1 1.346-.858 8.365 8.365 0 0 1 1.552-.446c.526-.1 1.048-.2 1.577-.287a13.286 13.286 0 0 1 1.605-.175 7.579 7.579 0 0 1 1.616.11 5.186 5.186 0 0 0 1.56.1 1.418 1.418 0 0 0 .672-.291 2.763 2.763 0 0 1 .6-.51 1.469 1.469 0 0 1 .832-.048c.268.046.525.1.788.149l1.568.3 6.272 1.212h.017l-.005.015a3.127 3.127 0 0 1-1.446 1.638 3.1 3.1 0 0 0 1.417-1.647l.011.018-6.288-1.138-1.572-.284c-.261-.046-.526-.1-.784-.139a1.322 1.322 0 0 0-.74.044c-.216.1-.347.317-.554.494a1.584 1.584 0 0 1-.75.338 5.358 5.358 0 0 1-1.624-.077 7.3 7.3 0 0 0-1.575-.09 13.013 13.013 0 0 0-1.573.19c-.521.094-1.046.2-1.562.3a8.088 8.088 0 0 0-1.493.448 4.5 4.5 0 0 0-1.254.823 11.565 11.565 0 0 0-1.024 1.1 15.018 15.018 0 0 1-1.032 1.135 5.451 5.451 0 0 1-.609.508c-.106.081-.231.149-.347.224s-.234.12-.351.181z" class="prefix__cls-1" data-name="Path 10473" transform="translate(-97.23 -.956)"/>
        <path id="prefix__Path_10474" d="M2608.344 2412.149l.777 1.543c.121.247.266.514.4.816l.435.981.494 1.116c.162.4.317.818.488 1.256s.354.891.516 1.369l.489 1.484c.082.255.173.511.25.775l.222.8c.146.542.309 1.093.449 1.658.25 1.137.541 2.306.724 3.512.234 1.2.353 2.432.511 3.659.084 1.233.21 2.465.213 3.682.056 1.216 0 2.413-.024 3.57-.027.579-.08 1.146-.117 1.7l-.061.825c-.024.271-.064.538-.094.8l-.19 1.536c-.066.5-.164.97-.239 1.428s-.152.9-.234 1.312-.183.805-.266 1.173l-.235 1.032c-.073.319-.167.606-.238.868l-.462 1.644.448-1.647c.068-.263.156-.551.229-.869l.225-1.033.256-1.175c.09-.414.144-.855.222-1.312s.165-.933.226-1.428.115-1.009.176-1.536c.028-.264.065-.531.087-.8s.035-.546.053-.824c.032-.555.08-1.123.1-1.7.012-1.156.059-2.35-.008-3.563-.015-1.214-.151-2.441-.246-3.67-.169-1.223-.3-2.45-.543-3.643-.193-1.2-.493-2.363-.752-3.493-.145-.562-.312-1.109-.462-1.647l-.227-.8c-.079-.262-.173-.516-.256-.77l-.5-1.473c-.165-.474-.358-.922-.525-1.358s-.332-.852-.5-1.244l-.5-1.1-.44-.969c-.14-.3-.288-.566-.411-.812l-.791-1.537z" class="prefix__cls-1" data-name="Path 10474" transform="translate(-374.747 -193.763)"/>
        <path id="prefix__Path_10475" d="M2582.083 2498.271s.1.432.279 1.188c.1.376.188.841.285 1.375l.161.85.139.946c.049.329.1.672.141 1.029s.072.726.109 1.105.068.77.086 1.169.049.807.063 1.223c.007.831.034 1.689-.01 2.561-.011.872-.1 1.756-.16 2.639-.109.881-.192 1.763-.349 2.623-.124.865-.317 1.7-.483 2.521-.093.406-.2.8-.3 1.192s-.193.77-.309 1.135l-.319 1.069c-.106.344-.229.672-.336.989l-.317.907-.32.808c-.2.508-.376.949-.544 1.3l-.5 1.125.489-1.131c.163-.357.336-.8.526-1.31l.31-.81.305-.909c.1-.318.222-.646.323-.991l.305-1.07c.111-.366.2-.746.295-1.136s.193-.786.28-1.192c.155-.816.336-1.655.449-2.519.146-.86.217-1.74.314-2.618.051-.881.127-1.761.127-2.63.033-.868-.006-1.722-.022-2.549-.018-.413-.053-.819-.077-1.216s-.053-.785-.1-1.162-.083-.744-.122-1.1-.1-.694-.153-1.021-.1-.641-.149-.938-.117-.576-.169-.84c-.1-.527-.2-.987-.3-1.363l-.294-1.186z" class="prefix__cls-1" data-name="Path 10475" transform="translate(-349.383 -270.091)"/>
        <path id="prefix__Path_10476" d="M2584.9 2462.152l.407 1.51c.135.479.279 1.066.437 1.742.08.337.165.7.256 1.075s.162.78.249 1.2.179.852.262 1.3.156.92.238 1.4l.123.731c.041.247.066.5.1.753q.1.761.2 1.552c.092 1.059.225 2.149.263 3.264.079 1.113.073 2.246.083 3.377-.01.566-.04 1.132-.06 1.7s-.062 1.124-.114 1.679-.078 1.108-.167 1.649l-.228 1.6c-.077.525-.2 1.036-.294 1.539s-.192.995-.328 1.465l-.361 1.378c-.115.446-.275.864-.4 1.272s-.258.8-.387 1.165l-.414 1.031-.364.906c-.116.279-.248.526-.354.753l-.685 1.424.671-1.429c.1-.229.232-.476.346-.756l.355-.908.4-1.034c.125-.369.244-.761.375-1.167s.279-.827.389-1.272l.347-1.379c.131-.471.219-.963.313-1.465s.205-1.013.278-1.538.14-1.06.211-1.6.1-1.092.15-1.645.092-1.113.1-1.675.039-1.126.042-1.69c-.022-1.129-.026-2.258-.115-3.366-.048-1.111-.193-2.2-.294-3.251l-.219-1.546-.106-.749-.13-.728-.251-1.394c-.087-.449-.187-.881-.274-1.3l-.26-1.191-.265-1.067c-.163-.67-.312-1.254-.453-1.733l-.422-1.506z" class="prefix__cls-1" data-name="Path 10476" transform="translate(-352.901 -238.079)"/>
        <path id="prefix__Path_10477" d="M2570.135 2289.671l.567.237c.18.076.4.148.652.243s.546.182.869.26a8.7 8.7 0 0 0 1.054.21 6.407 6.407 0 0 0 1.2.056 3.972 3.972 0 0 0 1.229-.263 2.214 2.214 0 0 0 .979-.75 2.024 2.024 0 0 0 .365-1.127 3.154 3.154 0 0 0-.205-1.152 5.117 5.117 0 0 0-.519-1 7.494 7.494 0 0 0-.639-.807l-.321-.334-.308-.285c-.2-.177-.381-.318-.526-.441l-.485-.357.495.347c.149.119.338.257.539.43l.318.279.332.328a7.646 7.646 0 0 1 .667.8 5.261 5.261 0 0 1 .555 1 3.257 3.257 0 0 1 .244 1.188 2.158 2.158 0 0 1-.36 1.213 2.394 2.394 0 0 1-1.041.838 4.192 4.192 0 0 1-1.3.31 6.69 6.69 0 0 1-1.251-.03 8.886 8.886 0 0 1-1.1-.192c-.337-.073-.635-.169-.9-.248s-.5-.164-.68-.236l-.573-.224z" class="prefix__cls-1" data-name="Path 10477" transform="translate(-341.044 -80.331)"/>
        <path id="prefix__Path_10478" d="M2587.375 2312.2s.137.064.377.156a2.787 2.787 0 0 0 1.021.206 3.313 3.313 0 0 0 .7-.088 4.079 4.079 0 0 0 .759-.248 3.355 3.355 0 0 0 1.332-1.014 2.524 2.524 0 0 0 .528-1.51 2.255 2.255 0 0 0-.443-1.336 3.808 3.808 0 0 0-.731-.758c-.2-.161-.329-.243-.329-.243s.129.078.339.232a3.9 3.9 0 0 1 .768.741 2.345 2.345 0 0 1 .51 1.363 2.632 2.632 0 0 1-.491 1.6 3.523 3.523 0 0 1-1.372 1.124 4.344 4.344 0 0 1-.8.291 3.632 3.632 0 0 1-.768.121 3.127 3.127 0 0 1-1.154-.19c-.261-.09-.4-.15-.4-.15z" class="prefix__cls-1" data-name="Path 10478" transform="translate(-356.32 -100.891)"/>
        <path id="prefix__Path_10479" d="M2568.2 2269.869l.246.006a5.374 5.374 0 0 0 .665-.038 5.513 5.513 0 0 0 2.228-.765 4.722 4.722 0 0 0 1.166-1 4.577 4.577 0 0 0 .825-1.45 4.237 4.237 0 0 0 .226-1.737 5.91 5.91 0 0 0-.463-1.776 15.3 15.3 0 0 0-.846-1.679 9.844 9.844 0 0 0-1.052-1.508 6.744 6.744 0 0 0-1.3-1.172 7.663 7.663 0 0 0-1.411-.769 7.918 7.918 0 0 0-2.376-.582 6.8 6.8 0 0 0-.693-.029h-.246l.246-.006a6.776 6.776 0 0 1 .694.018 7.929 7.929 0 0 1 2.4.55 7.306 7.306 0 0 1 2.779 1.923 10.049 10.049 0 0 1 1.092 1.51 15.4 15.4 0 0 1 .885 1.683 6.075 6.075 0 0 1 .508 1.819 4.417 4.417 0 0 1-.2 1.818 4.807 4.807 0 0 1-.839 1.535 4.95 4.95 0 0 1-1.215 1.076 5.845 5.845 0 0 1-2.353.848 5.75 5.75 0 0 1-.719.051h-.246z" class="prefix__cls-1" data-name="Path 10479" transform="translate(-336.767 -56.581)"/>
        <path id="prefix__Path_10480" d="M2591.625 2305.822l.225.149c.145.1.364.233.63.435s.587.439.942.728l.547.478.581.553a17.487 17.487 0 0 1 1.192 1.334 16.2 16.2 0 0 1 1.145 1.61 16.868 16.868 0 0 1 .982 1.844 16.426 16.426 0 0 1 .73 2.006 16.135 16.135 0 0 1 .423 2.077 15.879 15.879 0 0 1 .115 2.041 14.838 14.838 0 0 1-.149 1.9 15.554 15.554 0 0 1-.336 1.682l-.214.734-.225.654c-.157.406-.3.757-.435 1.04s-.246.5-.32.654l-.118.229.114-.231c.072-.152.191-.369.31-.657s.268-.637.417-1.044l.214-.655.2-.735a15.58 15.58 0 0 0 .308-1.679 14.7 14.7 0 0 0 .119-1.9 15.8 15.8 0 0 0-.147-2.024 15.993 15.993 0 0 0-.452-2.051 16.308 16.308 0 0 0-.753-1.974 16.619 16.619 0 0 0-1-1.806 16.03 16.03 0 0 0-1.153-1.572 17.259 17.259 0 0 0-1.193-1.3l-.579-.535-.545-.462c-.353-.279-.665-.517-.931-.7s-.484-.324-.63-.421l-.227-.146z" class="prefix__cls-1" data-name="Path 10480" transform="translate(-360.032 -99.528)"/>
        <g id="prefix__Group_3920" data-name="Group 3920" transform="translate(2193.796 2193.695)">
            <path id="prefix__Path_10481" d="M2265.329 2208.8c-2.554.219-4.47-1.786-4.036-3.126s1.283-1.695 1.594-2.825-.231-2.714 2.311-2.869 1.99-.424 3.34-2.324 5.315-3.354 10.117-2.232 6.952-.019 10.484.272 4.654 2.546 9.358 7.211 3.173 11.715-8.564 7.434a36.452 36.452 0 0 0-14.53-.307z" class="prefix__cls-1" data-name="Path 10481" transform="translate(-2261.194 -2195.031)"/>
            <path id="prefix__Path_10482" d="M2342.893 2224.22a2.348 2.348 0 0 0 .748.212.5.5 0 0 0-.14-.382 1.469 1.469 0 0 1 .334.016c0-.092-.008-.183-.012-.275.028.116.2.21.4.225q-.149-.667-.327-1.332a5.528 5.528 0 0 0 1.605.856l-.178-.539a.814.814 0 0 0 .461.319q.046-.2.093-.39c.017.1.357.059.322-.039a.365.365 0 0 0 .293.2l.224-.29.252.284.686-1.13a1.607 1.607 0 0 0 .657 1.226 3.237 3.237 0 0 1 .612-.876l-.08.43.626-.69a.777.777 0 0 0-.007.7l.782-.607c-.065.176-.131.351-.2.526a9.255 9.255 0 0 0 1.007-1.044.857.857 0 0 0-.242.662l.305-.269-.218.841.56-.346c.473.043.984-.227.955-.5a1.694 1.694 0 0 0-.065.725l.5-.5-.068.386a3.46 3.46 0 0 0 1.284-.975 2.742 2.742 0 0 0-.448 1.225 1.2 1.2 0 0 1 .475-.273.365.365 0 0 1-.088.226l.629-.253-.057.308c.072-.093.349-.177.351-.077l1.176-.748-.482 1.012a.667.667 0 0 1-.215.287 1.756 1.756 0 0 1-.635.21c-1.21.242-1.738-.253-2.948-.011-.594.12-.569.589-1.013.88 0 0-.3-.88-1.983-.4a9.328 9.328 0 0 1-2.476.143c-.692.033-1.857.937-2.485.767-.51-.147-.546-.51-.97-.72z" class="prefix__cls-2" data-name="Path 10482" transform="translate(-2333.569 -2218.596)"/>
            <path id="prefix__Path_10483" d="M2287.465 2245.56a1.4 1.4 0 0 0-.3-.707c.261.036.513-.224.426-.44a.214.214 0 0 0 .288-.054.434.434 0 0 0 .052-.286l-.065-1.3a2.192 2.192 0 0 0 1.03.7 2.375 2.375 0 0 0-.028-1.359 1.215 1.215 0 0 0 .708.491 4.107 4.107 0 0 0-.181-1.673l1.111.868-.121-.658a.447.447 0 0 0 .478.269l.048-.468a.657.657 0 0 0 .64.269l.049-.414a.623.623 0 0 0 .419.074l.155-.573a.55.55 0 0 0 .4.07 1.858 1.858 0 0 0 0-.756 1.359 1.359 0 0 0 .754.831l.045-.48 1.131.515a.339.339 0 0 1 .152.107c.067.107-.035.234-.135.322a12.944 12.944 0 0 1-3.833 2.058 4.549 4.549 0 0 0-2.141 1.356c-.191.276-.2 2.813-1.292 1.346a1.405 1.405 0 0 1 .21-.108z" class="prefix__cls-2" data-name="Path 10483" transform="translate(-2284.177 -2234.535)"/>
            <path id="prefix__Path_10484" d="M2538.291 2260.438c-.268.121.081.3-.06.554a9.887 9.887 0 0 0 1.008-.468l-1.012 1.044 1.446-.616a7.241 7.241 0 0 0-.989 1.136l.809-.082-.46.4.869-.165-.324.443a1.61 1.61 0 0 0 .72-.2 1.9 1.9 0 0 0-.342.447l.577.042a3.063 3.063 0 0 0-.624.838 2.274 2.274 0 0 0 .691-.009c-.052.119-1.583 1.244-1.635 1.364.2.031.22-1.49.027-1.722s-.329-.718-.6-.854a3.69 3.69 0 0 1-.759-.412c-.173-.16-.991-.282-.962-.526.042-.344-1.217-.876-.934-.949.605-.157 2.052.084 2.554-.265z" class="prefix__cls-2" data-name="Path 10484" transform="translate(-2504.447 -2253)"/>
            <path id="prefix__Path_10485" d="M2452.759 2224.721a.308.308 0 0 0 .378-.232.221.221 0 0 1 .166.263.183.183 0 0 0 .224-.124c-.06.093.077.2.2.189a.507.507 0 0 0 .288-.185c-.043.134.131.258.291.25a.819.819 0 0 0 .42-.189l.18.369a4.5 4.5 0 0 0 2.231-1.206l-.775 1.248a5.487 5.487 0 0 0 1.25-.8 3.112 3.112 0 0 0-.363.781l.285-.215-.035.249a4.037 4.037 0 0 0 1.483-.917 6.094 6.094 0 0 0-1.035 1.488.977.977 0 0 0 1.035-.057c-.054.088.083.2.184.156l-.076.278a.823.823 0 0 0 .325-.094.327.327 0 0 0-.03.236l.453-.2a1.285 1.285 0 0 0-.173.484 6.8 6.8 0 0 0 1.417-.511 3.2 3.2 0 0 0-.605.625l.947-.151a2.643 2.643 0 0 0-.734.522l.567-.086a1.384 1.384 0 0 0-.5.506 5.2 5.2 0 0 0 .91.077h.178l-.272.389a.233.233 0 0 1 .123.341 15.2 15.2 0 0 0-2.215-.743 5.65 5.65 0 0 1-1.024-.315c-.408-.191-.735-.491-1.129-.7-.984-.533-2.255-.468-3.324-.859-.539-.2-1.279-.019-1.662-.34-.044-.036-.117.04-.171.021-.106-.037-.076-.174-.023-.263.133-.226.395-.725.666-.8.021.158-.075.337-.055.515z" class="prefix__cls-2" data-name="Path 10485" transform="translate(-2430.356 -2220.579)"/>
            <g id="prefix__Group_3917" data-name="Group 3917" transform="translate(32.041 4.219)">
                <path id="prefix__Path_10486" d="M2577.286 2266.594c.026 0 .051 0 .076-.008-.024-.021-.076-.023-.076.008z" class="prefix__cls-3" data-name="Path 10486" transform="translate(-2573.347 -2262.654)"/>
                <path id="prefix__Path_10487" d="M2559.786 2248.836a.229.229 0 0 0-.085.065z" class="prefix__cls-3" data-name="Path 10487" transform="translate(-2557.761 -2246.936)"/>
                <path id="prefix__Path_10488" d="M2547.908 2235.788c-1.458-1.446-2.572-2.66-3.52-3.656a1.035 1.035 0 0 0-.42.2c.173.289-.1.636-.417.817a2.83 2.83 0 0 0-.9.576 4.858 4.858 0 0 1 1.952-.566 1.524 1.524 0 0 1-.6.645l.5-.06a.1.1 0 0 1-.02.152l.453-.062-.261.2a.3.3 0 0 1 .266 0l-1.549.9a9.729 9.729 0 0 1 1.564-.385 1.267 1.267 0 0 1 .8.058c.231.13.294.479.05.593l.5.012c-.039.177.177.356.38.313a.325.325 0 0 1-.274.1 1.223 1.223 0 0 1 .73.266.984.984 0 0 1-.479.178.032.032 0 0 1 .013.027c0 .043-.055.069-.1.086a8.261 8.261 0 0 1-1.163.351l2.3.026a.834.834 0 0 1-.677.428l.661-.064a1.07 1.07 0 0 1-.432.239 3.788 3.788 0 0 1 1.1-.062l-1.774.864a12.075 12.075 0 0 1 1.7-.416l-.512.547a2.435 2.435 0 0 0 .662-.156.808.808 0 0 1-.427.346l.408-.1a1.586 1.586 0 0 1-.363.265l.663-.121-1.677.927a6.077 6.077 0 0 1 2.188-.084l-.9.193.867.233a.287.287 0 0 0-.32.153.713.713 0 0 1 .33.13l-.62-.05a1.369 1.369 0 0 1 .681.438 13.234 13.234 0 0 0-1.77-.145 4.161 4.161 0 0 1 2.29.887l-.841-.007.131.342a1.079 1.079 0 0 0-.524-.042.549.549 0 0 1 .318.341.806.806 0 0 0-.491-.115 2.3 2.3 0 0 1 .769.849 5.255 5.255 0 0 0-1.022-.357c-.346-.138-.685-.29-1.025-.439a13.193 13.193 0 0 0-1.869-.733c-.947-.254-.152.5.129.785a8.279 8.279 0 0 0 3.009 1.93 5.407 5.407 0 0 0 .521.166c2.394-1.595 1.793-5.186-.988-7.943z" class="prefix__cls-3" data-name="Path 10488" transform="translate(-2542.646 -2232.131)"/>
            </g>
            <path id="prefix__Path_10489" d="M2268.911 2230.8a2.842 2.842 0 0 0-.8-.412c-.272-.131-.523-.392-.423-.649.036-.09.113-.178.089-.271s-.138-.143-.24-.176c-.035-.012-.073-.02-.109-.03-.476.774-.719.946-2.529 1.056-2.542.155-2 1.738-2.31 2.869s-1.16 1.485-1.594 2.825c-.3.938.04 2.233 1.746 2.814.528-.024 1.056-.066 1.582-.11.346-.03 1.184-.04 1.385-.351.249-.385-.353-.433-.637-.4a17.85 17.85 0 0 1-3.3-.2.76.76 0 0 1 .471-.091 1.408 1.408 0 0 1-.528-.3l.441-.087a.554.554 0 0 1-.381-.453.583.583 0 0 1 .359.159l-.048-.32.425.1-.791-1.223a2.2 2.2 0 0 1 .718.4l-.231-.521a1.253 1.253 0 0 0 .446.289 1.023 1.023 0 0 0-.089-.421.479.479 0 0 1 .356.06 1.317 1.317 0 0 1-.231-.826 1.608 1.608 0 0 0 .6.2 5.11 5.11 0 0 0-.47-.658 7.643 7.643 0 0 1 1.089.268l-.906-.871a1.255 1.255 0 0 0 .526.191.637.637 0 0 0-.218-.445l.528.217-.079-.455a.544.544 0 0 0 .237.056l-.225-.484.465.21a1.728 1.728 0 0 1-.439-1.1l1.583 1.029-.771-.947.391.219a1.191 1.191 0 0 0-.125-.512l.46.171-.021-.489.438.186a1.018 1.018 0 0 0 .143-.381 2.39 2.39 0 0 0 .92.118l-.381-.4a3.928 3.928 0 0 0 1.04.284.278.278 0 0 0-.148-.278.6.6 0 0 0 .282.142.427.427 0 0 1-.021-.264 2.9 2.9 0 0 0 1.325.262z" class="prefix__cls-3" data-name="Path 10489" transform="translate(-2260.9 -2225.372)"/>
            <g id="prefix__Group_3918" data-name="Group 3918" transform="translate(21.034 .615)">
                <path id="prefix__Path_10490" d="M2452.769 2200.49c-2.4-.2-4.167.266-6.559.23a2.358 2.358 0 0 1-.291 0c.509.033-.016 2.028-.061 2.224l.625-1.1.011.132a2.463 2.463 0 0 1 .382-.437c-.007.1-.015.191-.023.287a3.635 3.635 0 0 1 1.046-.756l-.054.9a2.613 2.613 0 0 1 1.791-1.1 1.554 1.554 0 0 1 .279.756.6.6 0 0 1 .183-.5.455.455 0 0 0-.045.276l.193-.221a.2.2 0 0 0 .1.151 2.148 2.148 0 0 1 .7-.452 2.433 2.433 0 0 1-.091 1.767 5.1 5.1 0 0 1 1.142-1.476l-.154.427a.745.745 0 0 1 .328-.327l-.092.343a1.524 1.524 0 0 1 .949-.48 1.425 1.425 0 0 0-.17.509l.336-.3c-.052.025.046.067.1.046l.445-.176a3.41 3.41 0 0 1-.366 1.535 4.765 4.765 0 0 1 .634-.712c.064-.059.173-.119.239-.062a.127.127 0 0 1 .035.1.667.667 0 0 1-.091.337.49.49 0 0 1 .551-.156.52.52 0 0 1 .059.3.224.224 0 0 0 .232-.049 4.933 4.933 0 0 1-1.247 2.315 8.736 8.736 0 0 0 1.436-1.229l-.066.219.205-.158-.04.2a2.416 2.416 0 0 1 .812-.348 1.438 1.438 0 0 1-.513.6 3.671 3.671 0 0 1 .949-.332.875.875 0 0 1-.309.457c.124-.106.336-.211.447-.1l.315-.113c0 .048-.005.1-.008.143a.9.9 0 0 1 .744.1 1.57 1.57 0 0 0 .717.257.7.7 0 0 0 .367-.114c-2.311-2.452-3.606-3.703-6.172-3.913z" class="prefix__cls-3" data-name="Path 10490" transform="translate(-2445.859 -2200.441)"/>
                <path id="prefix__Path_10491" d="M2488.908 2219.759c-.079.141-.157.283-.233.423a2.522 2.522 0 0 0 .233-.423z" class="prefix__cls-3" data-name="Path 10491" transform="translate(-2483.806 -2217.562)"/>
            </g>
            <g id="prefix__Group_3919" data-name="Group 3919" transform="translate(6.335)">
                <path id="prefix__Path_10492" d="M2345.547 2227.927c.051.078.1.158.153.234a1.731 1.731 0 0 0-.153-.234z" class="prefix__cls-3" data-name="Path 10492" transform="translate(-2342.256 -2224.186)"/>
                <path id="prefix__Path_10493" d="M2325.9 2195.971a1.021 1.021 0 0 0 .256.524c.033-.209.134-.474.377-.48.154 0 .277.108.424.149s.363-.086.268-.191l.291.3.333-.331a3.359 3.359 0 0 1 .748 1.741 2.605 2.605 0 0 1 .49-1.014l-.044.191c.1-.093.27-.189.367-.1l.116-.156c.045.1.222.044.3-.038s.192-.186.3-.137l.405.566a.731.731 0 0 1 .3-.428l.14.117.273-.217a.525.525 0 0 1 .3.337.617.617 0 0 0 .411-.836c-.006-.016-.016-.03-.024-.045a17.92 17.92 0 0 1-4.21-.5c-4.8-1.123-8.768.331-10.117 2.232-.527.742-.764 1.233-1.009 1.568a7.792 7.792 0 0 1 1.977.754c-.514-.328-1.074-.724-1.129-1.277l.319.23-.057-.376a1.084 1.084 0 0 1 .38.184v-.615a.191.191 0 0 0 .18.064l-.05-.321.211.192-.05-.291c.121-.063.271.012.383.084a4.3 4.3 0 0 1 1.126.92 4.986 4.986 0 0 1-.679-1.565.991.991 0 0 1 .521.352c0-.108-.007-.215-.011-.323l.224.226a.3.3 0 0 1 .295-.112l.312-.709c.041-.093.116-.2.229-.188a.247.247 0 0 1 .123.067 4.466 4.466 0 0 1 1.348 1.906 2.932 2.932 0 0 1-.139-1.964.777.777 0 0 0 .324.375.759.759 0 0 1 .051-.361.6.6 0 0 0 .223.167l.252-.349.131.115a1.937 1.937 0 0 0 .966-.617l.271 1.912a2.329 2.329 0 0 1 .579-1.271c-.055.037.047.109.1.071s.046-.109.035-.168l.26.14a5.536 5.536 0 0 0 .6-.504z" class="prefix__cls-3" data-name="Path 10493" transform="translate(-2316.604 -2195.031)"/>
            </g>
        </g>
        <path id="prefix__Path_10494" d="M2461.784 2320.513c2.136-4.331 1.941-11.931-3.591-17.676s-19.883-5.465-19.883-5.465 20.271 4.405 23.474 23.141z" class="prefix__cls-1" data-name="Path 10494" transform="translate(-224.339 -92.036)"/>
        <path id="prefix__Path_10495" d="M2610.434 2392a2.539 2.539 0 0 1-.972-.807 12.432 12.432 0 0 1 .578 4.515 4.37 4.37 0 0 0-1.052-2.113l-.052.483-.6-1.021.408 1.554a10.667 10.667 0 0 0-2.5-3.312 2.457 2.457 0 0 0-.446 1.651 25.7 25.7 0 0 1 4.427 10.717 15.23 15.23 0 0 0 .209-11.667z" class="prefix__cls-3" data-name="Path 10495" transform="translate(-372.78 -175.187)"/>
        <path id="prefix__Path_10496" d="M2628.915 2427.356a7.359 7.359 0 0 1-.677 3.059l-.481-.35a5.827 5.827 0 0 1 .423 1.93 16.556 16.556 0 0 0-2.5-4.373c.022.454.047.912.072 1.369a26.141 26.141 0 0 1 2.094 6.725 14.384 14.384 0 0 0 1.069-8.36z" class="prefix__cls-4" data-name="Path 10496" transform="translate(-390.402 -207.24)"/>
        <path id="prefix__Path_10497" d="M2217.56 2306.413c-5.77 9.666-7.936 19.8-8.572 36.37-.638 16.618 5.169 24.158 5.169 24.158a23.327 23.327 0 0 1-6.317-11.4s1.042 5.438 1.784 6.9a21.167 21.167 0 0 1-3.392-9.412c-.575-5.542-2.642-10.33-2.987-16.355s.8-11.254 0-15.228-1.263-6.8 1.493-11.922 7.58-6.693 9.877-7.53a15.939 15.939 0 0 1 5.167-.732 17.214 17.214 0 0 1-2.222 5.151z" class="prefix__cls-1" data-name="Path 10497" transform="translate(-15.458 -95.485)"/>
        <path id="prefix__Path_10498" d="M2424.433 2298.522c-8.674-5.372-13.926-4.3-13.926-4.3l4.178 17.65c.317 4.322 2.533 10.919 2.533 10.919a13.108 13.108 0 0 0 4.748-.325c-.355-2.642-1.022-6.8-1.882-8.538a38.678 38.678 0 0 1 2.746 8.453c.776-.088 1.6-.216 2.436-.4a104.455 104.455 0 0 0-4.574-14.117 123.053 123.053 0 0 1 5.264 13.958 20.022 20.022 0 0 0 2.911-.951c-.4-1.445-1.509-5.278-2.569-7.882a69.636 69.636 0 0 1 3.58 7.422 14.734 14.734 0 0 0 2.746-1.749s.483-14.768-8.191-20.14z" class="prefix__cls-1" data-name="Path 10498" transform="translate(-199.698 -89.172)"/>
        <path id="prefix__Path_10499" d="M2267.571 2303.934c2.293 1.273 4.478 1.324 6.4 1.8 1.015-3.065 2.422-7.589 3.477-12.066a92.78 92.78 0 0 0-1.379 12.528c1.093.21 2.146.365 3.15.475.738-2.381 1.778-9.135 1.778-9.135.017 2.52-.4 7.436-.64 9.242q.719.056 1.4.082c.9-5.63.42-14.449.42-14.449.527 4.282.429 10.428 1.108 14.476a14.907 14.907 0 0 0 4.083.029 1.139 1.139 0 0 0 .1-.135c1.522-7.231-.522-24.941-3.574-27.908l.63-3.107c.39-.263-4.995.849-7.543 2.438-.565.352-4.456 3.6-5.517 5.377-3.752 6.294-3.72 9.627-3.981 14.079a30.291 30.291 0 0 0 .088 6.274z" class="prefix__cls-1" data-name="Path 10499" transform="translate(-72.853 -72.857)"/>
        <path id="prefix__Path_10500" d="M2552.734 2338.625c4.046 11.813 6.749 22.355 6.164 33.914s-2.595 18.025-2.595 18.025a81.139 81.139 0 0 0 5.079-22.979s.192 17.656-2.485 26.293c0 0 5.144-10.669 5.558-30.23s-10.187-29.836-10.187-29.836z" class="prefix__cls-1" data-name="Path 10500" transform="translate(-325.75 -124.334)"/>
        <path id="prefix__Path_10501" d="M2223.346 2302.265c-7.519-1.168-11.006.992-13.1 2.389s-2.371 6.6.558 7.113 12.542-9.502 12.542-9.502z" class="prefix__cls-1" data-name="Path 10501" transform="translate(-20.789 -96.079)"/>
        <g id="prefix__Group_3921" data-name="Group 3921" transform="translate(2187.169 2212.088)">
            <path id="prefix__Path_10502" d="M2224.495 2418.355l.133-.16c-.099-.011-.141.073-.133.16z" class="prefix__cls-3" data-name="Path 10502" transform="translate(-2222.007 -2411.208)"/>
            <path id="prefix__Path_10503" d="M2204 2373.391a42.9 42.9 0 0 1 7.906-16.457l-6.769 7.537.348-.444a.308.308 0 0 1-.219.063.186.186 0 0 1-.151-.178l-.878 1.052 1.812-3.49-2.336 3.327a11.207 11.207 0 0 1 2.095-4.231 7.169 7.169 0 0 1-1.763 1.765 2.543 2.543 0 0 0 .739-2.284l.862-1.371a4.463 4.463 0 0 1-1.039 1.043 5.708 5.708 0 0 0 1.607-2.959c-.09.02-.176.051-.264.077a13.993 13.993 0 0 0-1.212 1.877c-2.757 5.124-2.3 7.948-1.493 11.922a20.471 20.471 0 0 1 .273 4.583c.198-.599.34-1.223.482-1.832z" class="prefix__cls-3" data-name="Path 10503" transform="translate(-2202.627 -2356.765)"/>
            <path id="prefix__Path_10504" d="M2227.947 2418.446l-.194.247a.567.567 0 0 0 .194-.247z" class="prefix__cls-3" data-name="Path 10504" transform="translate(-2224.896 -2411.432)"/>
        </g>
        <g id="prefix__Group_3922" data-name="Group 3922" transform="translate(2210.286 2212.01)">
            <path id="prefix__Path_10505" d="M2413.273 2476.468q-.066.55-.112 1.1c.044-.368.08-.732.112-1.1z" class="prefix__cls-2" data-name="Path 10505" transform="translate(-2412.336 -2462.777)"/>
            <path id="prefix__Path_10506" d="M2409.529 2357.535a18.918 18.918 0 0 1-.486 2.759l-.029-.593-.6 1.822a34.965 34.965 0 0 0 .19-5.444l-.982 4.354a12 12 0 0 0-.144-2.827l-.043.781-.136-.508-.336 1.636-.2-3.292-.684 4.238.147-2.417q-.323 3.27-.319 6.56a6.473 6.473 0 0 1 .43-1.807l-.013.882.168-.583.014.582.205-.639a32.14 32.14 0 0 1 .132 6.732q.194-1.645.552-3.266a8.957 8.957 0 0 1 .315 1.429l.162-.8a2.492 2.492 0 0 0 .094 1.045l.488-1.367c-.009.117-.007.257.094.324a.148.148 0 0 0 .189-.057l.141.866a24.843 24.843 0 0 0 .194-4.333.7.7 0 0 0 .139.218 26.6 26.6 0 0 0 .318-6.295z" class="prefix__cls-2" data-name="Path 10506" transform="translate(-2405.907 -2356.079)"/>
        </g>
        <g id="prefix__Group_3923" data-name="Group 3923" transform="translate(2204.831 2212.237)">
            <path id="prefix__Path_10507" d="M2377.586 2373.413a3.639 3.639 0 0 0-.28.493z" class="prefix__cls-2" data-name="Path 10507" transform="translate(-2375.103 -2371.668)"/>
            <path id="prefix__Path_10508" d="M2379.772 2368.717q.083-.122.174-.238c.056-.122.115-.242.169-.365z" class="prefix__cls-2" data-name="Path 10508" transform="translate(-2377.289 -2366.972)"/>
            <path id="prefix__Path_10509" d="M2362.276 2361.015a19.866 19.866 0 0 0-1.244 2.933l.469-2.249-.352.536a4.274 4.274 0 0 0 .35-1.558 4.82 4.82 0 0 0-.869 1.468 24.306 24.306 0 0 0 1.016-4.073 9.129 9.129 0 0 0-1.054 1.506 25.829 25.829 0 0 0-1.31 2.641 1.573 1.573 0 0 0 .5-.677c-.644 1.788-1.294 3.891-1.785 5.719a12.581 12.581 0 0 0 1.2-2.04q-.2.828-.392 1.657a8.093 8.093 0 0 1 .388-.777c-.169 1.661-.915 5.84-1.255 7.48a31.4 31.4 0 0 1 1.811-4.757v1.1l.345-.772.016 1.343c.292-.832.819-2.907 1.112-3.739a5.7 5.7 0 0 1 .1 1.432l.417-3.457-.022.444c.329-1.363.403-3.182.559-4.16z" class="prefix__cls-2" data-name="Path 10509" transform="translate(-2357.936 -2358.072)"/>
        </g>
        <g id="prefix__Group_3924" data-name="Group 3924" transform="translate(2198.268 2212.093)">
            <path id="prefix__Path_10510" d="M2314.686 2404.29l-.5.72a2.923 2.923 0 0 0 .5-.72z" class="prefix__cls-2" data-name="Path 10510" transform="translate(-2312.601 -2398.89)"/>
            <path id="prefix__Path_10511" d="M2305.432 2359.172l.883-1.7a7.229 7.229 0 0 0-1.682 1.477l.988-1.71a6.638 6.638 0 0 0-1.414 1.286 8.119 8.119 0 0 0 1.123-1.721 5.548 5.548 0 0 0-1.839 1.567 20.927 20.927 0 0 0-2.535 5.05l1.242-1.561-.359.628.537-.431c.009-.022.021-.043.029-.065 0 .018-.01.035-.013.053l.066-.054-.084.123a33.172 33.172 0 0 1-2.146 6.186l2.707-4.021a12.614 12.614 0 0 1-.554 2.024l.345-.632-1.055 3.954a27.186 27.186 0 0 1 2.171-3.971l-.289 1.9a2.437 2.437 0 0 1 .621-1.243l-.149 1.652a22.832 22.832 0 0 0 2-4.856l-.877 1.035.873-4.166-1.121 1.433q.72-1.5 1.44-3.009a3.385 3.385 0 0 0-.908.772z" class="prefix__cls-2" data-name="Path 10511" transform="translate(-2300.227 -2356.806)"/>
            <path id="prefix__Path_10512" d="M2318.621 2402.9c-.02.05-.041.1-.065.147l.062-.09.019-.07z" class="prefix__cls-2" data-name="Path 10512" transform="translate(-2316.472 -2397.648)"/>
        </g>
        <path id="prefix__Path_10513" d="M2448.688 2357.244c.075.04.058-.131-.025-.106s-.088.129-.071.206q.243 1.162.557 2.31 0-.509.01-1.018a.927.927 0 0 1 .169.526v-.247c-.067-.041.094-.044.116.027a21.774 21.774 0 0 1 .822 3.761 13.874 13.874 0 0 0 .074-1.878l.133.636.051-.268c.6.741 1.906 4.4 2.369 5.215a33.857 33.857 0 0 0-1.337-5.2l.508.917-.042-.873.421.483.056-.72a5.471 5.471 0 0 0 1.468 2.093l-.474-2a.366.366 0 0 0 .259.248 2.534 2.534 0 0 0-.062-1.235.781.781 0 0 0 .3.573 4.2 4.2 0 0 0-.412-1.979c.011.072.141.069.18.007a.242.242 0 0 0-.008-.209l-2.561-7.34.186 1.311-.183-.3.149 1.319a11.357 11.357 0 0 0-.81-1.626l.181 2.229-.106-.261a2.55 2.55 0 0 1 .228.985 6.179 6.179 0 0 0-.8-1.861 10.443 10.443 0 0 1 .177 2.053l-.384-1.178a2.5 2.5 0 0 0 .075.831.4.4 0 0 0-.054-.273c-.06-.077-.208-.1-.262-.02s.113.186.154.1l-.208-.631.073 2.172a27.589 27.589 0 0 0-1.123-4.21c-.006.627.479 3.833.473 4.461a.662.662 0 0 1-.12-.436l.051.983a1.066 1.066 0 0 0-.39-.718 11.713 11.713 0 0 0 .491 2.24z" class="prefix__cls-2" data-name="Path 10513" transform="translate(-233.354 -139.716)"/>
        <path id="prefix__Path_10514" d="M2406.227 2469.388a.619.619 0 0 1-.2-.638l-.364 1.452-.1-2.984a38.257 38.257 0 0 1-.877 5.371 1.713 1.713 0 0 1-.307-1.426 2.143 2.143 0 0 0-.267 1.09 11.8 11.8 0 0 1-.23-2.876 10.053 10.053 0 0 1-.684 3.236l-.133-2.941-.159.378-.03-1.761-.2.414a3.325 3.325 0 0 1-.089-1.036 6.367 6.367 0 0 0-.239 2.023 21.583 21.583 0 0 1-.095-4.062c-.084.44-.158.887-.226 1.336a61.678 61.678 0 0 0 .585 6.635 14.888 14.888 0 0 0 4.083.029 1.19 1.19 0 0 0 .1-.135 39.041 39.041 0 0 0 .475-8.674q-.059-.495-.138-.988-.319 2.794-.905 5.557z" class="prefix__cls-3" data-name="Path 10514" transform="translate(-192.184 -239.567)"/>
        <g id="prefix__Group_3925" data-name="Group 3925" transform="translate(2203.217 2225.972)">
            <path id="prefix__Path_10515" d="M2347.973 2481.734c-.183.358-.376.711-.589 1.055l.364-2.375-.776 1.676.065-.538a11.993 11.993 0 0 1-1.238 2.942l.3-3.3a16 16 0 0 1-1.13 2.605 7.808 7.808 0 0 1-.044-1.466l-.323.527.239-1.531a.518.518 0 0 0-.372.323l.131-.87a4.06 4.06 0 0 0-.52 1.363c-.005-1.1.273-2.214.293-3.295a59.254 59.254 0 0 0-.626 7.369c1.093.21 2.146.365 3.15.474.339-1.093.74-3.1 1.076-4.959z" class="prefix__cls-3" data-name="Path 10515" transform="translate(-2343.747 -2478.854)"/>
            <path id="prefix__Path_10516" d="M2383.3 2489.294c-.021-.294-.036-.589-.042-.884a21.229 21.229 0 0 1-.986 3.483l.477-3.032a4.937 4.937 0 0 1-.769 1.942q.126-.977.25-1.955l-.2.76.2-2.674c-.069.2-.146.4-.224.6-.134 2.413-.386 5.172-.552 6.428q.719.056 1.4.082a44.766 44.766 0 0 0 .446-4.75z" class="prefix__cls-3" data-name="Path 10516" transform="translate(-2377.166 -2486.016)"/>
        </g>
        <path id="prefix__Path_10517" d="M2274.58 2439.7l.1-.739-.556.888.455-1.815a28.221 28.221 0 0 1-2.161 4.24 9.379 9.379 0 0 1 .62-3.1 8.4 8.4 0 0 1-1.7 2.339l.21-1.42a.821.821 0 0 1-.481.429l.412-.849-.7.957.295-.817-1.4 2.165a9.854 9.854 0 0 1 .677-3.868 11.335 11.335 0 0 1-1.409 2.241l.8-3.526-.617 1.241a14.523 14.523 0 0 0 .341-2c-.339.589-.638 1.2-.953 1.8a24.751 24.751 0 0 0-1.119 2.342 21.031 21.031 0 0 0 .183 3.216c2.293 1.273 4.478 1.324 6.4 1.8.876-2.646 2.045-6.38 3.026-10.233q.156-.938.3-1.875a47.5 47.5 0 0 1-2.723 6.584z" class="prefix__cls-3" data-name="Path 10517" transform="translate(-72.862 -212.348)"/>
        <g id="prefix__Group_3926" data-name="Group 3926" transform="translate(2187.72 2219.136)">
            <path id="prefix__Path_10518" d="M2216.278 2418.739c-.96 2.181-2.592 5.145-3.282 7.754l.527-2.022q-1.26 2.933-2.522 5.865a11.993 11.993 0 0 1 .671-3.864 33.167 33.167 0 0 0-1.9 4.687l.106-.458a8.211 8.211 0 0 1-.665 1.6l.021-.168a1.216 1.216 0 0 1-.2.253 5.95 5.95 0 0 1 .026-3.091l-1.077 3.2.961-4.625q-.617 1.228-1.131 2.487c-.1 3.076-.487 6.594-.268 10.439.345 6.025 2.412 10.812 2.987 16.355a21.167 21.167 0 0 0 3.392 9.412c-.742-1.464-1.785-6.9-1.785-6.9a23.327 23.327 0 0 0 6.317 11.4s-5.807-7.539-5.169-24.158c.417-10.871 1.493-18.969 3.812-25.983a13.884 13.884 0 0 0-1.549 2.33 32.585 32.585 0 0 1 .728-4.513z" class="prefix__cls-2" data-name="Path 10518" transform="translate(-2207.475 -2418.739)"/>
        </g>
        <g id="prefix__Group_3927" data-name="Group 3927" transform="translate(2189.427 2228.512)">
            <path id="prefix__Path_10519" d="M2222.495 2613.291l.045-.96a4.735 4.735 0 0 0-.045.96z" class="prefix__cls-5" data-name="Path 10519" transform="translate(-2222.487 -2599.691)"/>
            <path id="prefix__Path_10520" d="M2224.667 2634.286a3.21 3.21 0 0 0-.07.571c.029-.19.049-.38.07-.571z" class="prefix__cls-5" data-name="Path 10520" transform="translate(-2224.358 -2619.15)"/>
            <path id="prefix__Path_10521" d="M2225.1 2511.571a72.1 72.1 0 0 1 2.023-10.383 26.036 26.036 0 0 0-2.253 5.089l.361-1.2a23.384 23.384 0 0 0-1.146 5.166v-3.9a6.767 6.767 0 0 1-.395 2.141c.027-1.3.027-2.244.013-3.477-.2.759-.662 6.723-.758 8.82a4.811 4.811 0 0 1 .514-1.562l-.211 1.3a14.442 14.442 0 0 1-.045 2.764 3.271 3.271 0 0 1 .374-1 57.7 57.7 0 0 0 .171 8.327 28.622 28.622 0 0 1 .145-5.214l.622 8.15.223-6.12.613 1.121a57.442 57.442 0 0 1 1.538-15.488 25.525 25.525 0 0 0-1.789 5.466z" class="prefix__cls-5" data-name="Path 10521" transform="translate(-2222.891 -2501.188)"/>
        </g>
        <g id="prefix__Group_3928" data-name="Group 3928" transform="translate(2216.001 2217.347)">
            <path id="prefix__Path_10522" d="M2500.422 2475.335c-.383-1.727-.889-3.541-1.425-5.273l-.642-1.552.241 3.505a16.621 16.621 0 0 1-1.127-3.155 4.551 4.551 0 0 1-.186 2.216l-.241-.726v.954a1.434 1.434 0 0 1-.427-1.041 6.743 6.743 0 0 0-1.3-3.1c.006.09.009.181.015.271a40 40 0 0 1 2.665 8.3c.767-.092 1.587-.219 2.427-.399z" class="prefix__cls-3" data-name="Path 10522" transform="translate(-2490.854 -2459.865)"/>
            <path id="prefix__Path_10523" d="M2533.965 2485.024v-.326a.908.908 0 0 0 0 .326z" class="prefix__cls-3" data-name="Path 10523" transform="translate(-2525.101 -2475.408)"/>
            <path id="prefix__Path_10524" d="M2460.627 2469.8a50.144 50.144 0 0 1 .06 5.25q-.494-1.751-.99-3.5a11.644 11.644 0 0 1-.142 4.082 1.978 1.978 0 0 1-.344-1.051l-.125.745-.337-1.369a10.62 10.62 0 0 0-.072 2.88 14.727 14.727 0 0 1-.768-3.358l-.15 3.353a14.117 14.117 0 0 1-.7-2.259.131.131 0 0 1-.142.062c-.117-.037-.154-.168-.175-.279l-.125-.688c-.017-.09-.046-.2-.139-.228a.112.112 0 0 0-.121.046l-.091-.6a2.214 2.214 0 0 0-.108.318c.711 2.862 1.521 5.274 1.521 5.274a13.114 13.114 0 0 0 4.748-.325c-.344-2.553-.98-6.528-1.8-8.353z" class="prefix__cls-3" data-name="Path 10524" transform="translate(-2456.158 -2462.202)"/>
            <path id="prefix__Path_10525" d="M2463.835 2510.7c.008.041.019.081.029.121.031-.045.036-.103-.029-.121z" class="prefix__cls-3" data-name="Path 10525" transform="translate(-2462.962 -2498.456)"/>
            <path id="prefix__Path_10526" d="M2513.118 2477.035a4.509 4.509 0 0 0-.155-.651c.045.216.101.434.155.651z" class="prefix__cls-3" data-name="Path 10526" transform="translate(-2506.503 -2468.04)"/>
            <path id="prefix__Path_10527" d="M2588.942 2449.838c-.012-.136-.026-.271-.043-.407a1.2 1.2 0 0 0 .043.407z" class="prefix__cls-3" data-name="Path 10527" transform="translate(-2573.801 -2444.152)"/>
            <path id="prefix__Path_10528" d="M2556.347 2405.93l-.971-2.922a30.189 30.189 0 0 1 .809 6.413 1.351 1.351 0 0 1-.5-.727 10.75 10.75 0 0 1 .029 1.566 3.33 3.33 0 0 1-1.253-1.422 9.828 9.828 0 0 1 .3 2.748 1.513 1.513 0 0 1-.927-1.47 1.568 1.568 0 0 1-.532 1.01.619.619 0 0 1-.239-.587l-.015.51a1.959 1.959 0 0 1-1.058-1.147 8.016 8.016 0 0 1 .063.908l-.679-.906a63.92 63.92 0 0 1 3.351 7 14.741 14.741 0 0 0 2.746-1.749 36.218 36.218 0 0 0-1.124-9.225z" class="prefix__cls-3" data-name="Path 10528" transform="translate(-2540.546 -2403.008)"/>
            <path id="prefix__Path_10529" d="M2528.3 2459.2l-.28-.373a39.852 39.852 0 0 0 .3 5.131 7.353 7.353 0 0 1-1.022-2.689 9.377 9.377 0 0 1-.055 1.668.606.606 0 0 1-.176-.386l-.02.292a1.072 1.072 0 0 1-.578-.748v.1l-.981-1.595a12.534 12.534 0 0 1 .569 1.8c.753 2.106 1.368 3.987 1.805 5.382a20.068 20.068 0 0 0 2.911-.951c-.394-1.395-1.444-5.04-2.473-7.631z" class="prefix__cls-3" data-name="Path 10529" transform="translate(-2517.602 -2452.477)"/>
            <path id="prefix__Path_10530" d="M2540.674 2472.885a9.491 9.491 0 0 0-.093-.951 6.959 6.959 0 0 0 .093.951z" class="prefix__cls-3" data-name="Path 10530" transform="translate(-2530.98 -2464.095)"/>
            <path id="prefix__Path_10531" d="M2556.055 2458.845c-.025-.205-.052-.41-.093-.614a1.635 1.635 0 0 0 .093.614z" class="prefix__cls-3" data-name="Path 10531" transform="translate(-2544.611 -2451.952)"/>
        </g>
        <g id="prefix__Group_3929" data-name="Group 3929" transform="translate(2220.064 2210.855)">
            <path id="prefix__Path_10532" d="M2554.45 2374.854c.033.05.063.1.1.151l.424.37z" class="prefix__cls-2" data-name="Path 10532" transform="translate(-2547.335 -2371.564)"/>
            <path id="prefix__Path_10533" d="M2501.183 2356.578a21.27 21.27 0 0 0-1.647-4.1 3.542 3.542 0 0 0 .952.876 4.849 4.849 0 0 0-.334-1.358 2.485 2.485 0 0 0 .794.791 22.491 22.491 0 0 0-1.853-3.418l-3.008-2.621a6.971 6.971 0 0 1 1.3 1.726l-.387-.4.216.77a18.519 18.519 0 0 1-3.171-2.265 5.551 5.551 0 0 1 1.254 2 7.205 7.205 0 0 0-1.667-1.6l.651 1.389a5.239 5.239 0 0 0-2.4-2.441 7.988 7.988 0 0 0 1.51 2.788 2.475 2.475 0 0 0-1.045-.767c-.005.672.623 1.378.83 1.916-.01-.062.019-.1.087-.1a5.5 5.5 0 0 1 1.418 3.013 6.6 6.6 0 0 0 .072-1.592 4.719 4.719 0 0 0 1.134 1.907l-.148-.442a12.629 12.629 0 0 0 .891 1.757 3.736 3.736 0 0 1-.3-1.491q1.021 1.636 1.949 3.318a10.135 10.135 0 0 1-.354-2.98l1.2 1.743-.188-.952a4.76 4.76 0 0 0 1.23 1.695l-.177-.583a4.232 4.232 0 0 0 1.191 1.421z" class="prefix__cls-2" data-name="Path 10533" transform="translate(-2491.884 -2345.924)"/>
        </g>
        <path id="prefix__Path_10534" d="M2330.944 2300.773a2.188 2.188 0 0 1 1.4.6 3.377 3.377 0 0 1-.389-.35 1.714 1.714 0 0 0-.238-.8 23.592 23.592 0 0 1 6.88 3.939 15.576 15.576 0 0 0-2.685-3.121c-2.244-1.845-5.428-2.54-8.484-2.987a14.612 14.612 0 0 0-5.1-.082c-.66.023-1.4.156-1.723.2a15.526 15.526 0 0 0-6.115 2.15 13.572 13.572 0 0 0-2.77 2.242l1.2-.782c-.051.042-.105.079-.152.125a.758.758 0 0 0 .507-.287l-1.672 2.469a13.889 13.889 0 0 1 4.476-3.393 5.853 5.853 0 0 0-1.632 1.617l1.092-1.008-.441.561q1.49-1.054 3.092-1.968a6.956 6.956 0 0 0-1.574 2.167l1.676-1.664a6.171 6.171 0 0 0-1.257 2.307 19.122 19.122 0 0 1 1.653-2.043l-.548 1.825.594-.969-.627 3.019 1.86-3.789a4.245 4.245 0 0 1-.267 1.51l.466-.91.021.482.655-.9-.058.7.529-.923a7.707 7.707 0 0 0 .44 2.86q.313-1.42.513-2.857l.108.63.257-.63a.424.424 0 0 0 .178.324l.336-.64.254 1.445.047-1.432a.351.351 0 0 0 .288-.329c.094.171.358.309.469.47a.364.364 0 0 0 .291-.3 5.491 5.491 0 0 1 .549 2.18l.683-1.9a1.564 1.564 0 0 1 .252.822l.037-.448.226.541a1.327 1.327 0 0 1 .349-.949 6.022 6.022 0 0 1 1.159 1.792l-.147-1.539.876.726-.185-.477a.259.259 0 0 0 .31-.024c.1-.128.041-.3-.025-.449l1.5 1.248-.576-1.18 3.341 1.995a11.5 11.5 0 0 0-1.899-1.816z" class="prefix__cls-3" data-name="Path 10534" transform="translate(-112.05 -92.402)"/>
        <g id="prefix__Group_3930" data-name="Group 3930" transform="translate(2200.906 2213.398)">
            <path id="prefix__Path_10535" d="M2325.152 2371.163a2.778 2.778 0 0 0 .593-1.274 2.137 2.137 0 0 1-.451.263 1.817 1.817 0 0 0 .269-.778c-.282.244-.547.506-.827.749a8.519 8.519 0 0 0 .532-1.837c-.829.537-1.386 2.037-1.842 2.857.234-.237.451-.49.689-.723a1.045 1.045 0 0 1-.272.462.731.731 0 0 0 .208-.057l-.616 1.27a8.6 8.6 0 0 1 1.06-.762 3.986 3.986 0 0 1-.641 2.305 6.888 6.888 0 0 1 .873-1.08 4.122 4.122 0 0 1-.441 1.757 21.61 21.61 0 0 0 1.86-4.021 6.879 6.879 0 0 1-.994.869z" class="prefix__cls-5" data-name="Path 10535" transform="translate(-2323.426 -2368.286)"/>
            <path id="prefix__Path_10536" d="M2372.735 2380.175a4.174 4.174 0 0 0 .228-1.169 3.018 3.018 0 0 1-.707 1.063 4.248 4.248 0 0 1 .115-1.347.638.638 0 0 0-.221.425q.093-.96.265-1.912a15.47 15.47 0 0 0-.646 1.879l.238-.856a23.071 23.071 0 0 0-1 2.848 5.582 5.582 0 0 1 .549-1l-.161.518.2-.235-.364 1.487.71-1.449-.6 3.736 1.338-3.46q0 .584.006 1.17a6.985 6.985 0 0 0 .765-2.7 1.687 1.687 0 0 1-.715 1.002z" class="prefix__cls-5" data-name="Path 10536" transform="translate(-2365.593 -2376.216)"/>
            <path id="prefix__Path_10537" d="M2416.2 2382.613l-.427 1.08-.036-1.348-.452 1.62.037-.725-.405.723q0-.176.006-.353a.765.765 0 0 1-.173.459l-.017-1.287-.393.916a2.477 2.477 0 0 0-.235-1.316 4.9 4.9 0 0 1-.326 1.3c.117.073.09.663.021.984a3.875 3.875 0 0 0 .106-.4c0 .115 0 .23-.005.345l.122-.183a4.62 4.62 0 0 1-.051 1.059 5.358 5.358 0 0 1 .409-.891v3.175q.2-1.324.47-2.639l.058 1.837a.16.16 0 0 1 .064-.046.671.671 0 0 0 .073.361q.279-.857.507-1.727l.125.541.2-.929.222.431a11.661 11.661 0 0 0 .1-2.987z" class="prefix__cls-5" data-name="Path 10537" transform="translate(-2403.503 -2380.746)"/>
            <path id="prefix__Path_10538" d="M2413.717 2402.746c-.012.039-.018.081-.032.119a.992.992 0 0 0 .032-.119z" class="prefix__cls-5" data-name="Path 10538" transform="translate(-2403.421 -2398.827)"/>
            <path id="prefix__Path_10539" d="M2423.38 2423.244c0-.073 0-.146-.007-.22a.159.159 0 0 0 .007.22z" class="prefix__cls-5" data-name="Path 10539" transform="translate(-2411.971 -2416.799)"/>
        </g>
        <g id="prefix__Group_3931" data-name="Group 3931" transform="translate(2216.039 2214.754)">
            <path id="prefix__Path_10540" d="M2456.693 2401.827c.009.019.017.038.027.056l-.229-.888z" class="prefix__cls-5" data-name="Path 10540" transform="translate(-2456.491 -2398.633)"/>
            <path id="prefix__Path_10541" d="M2458.554 2408.993c-.007-.041-.011-.082-.018-.124l-.032-.067z" class="prefix__cls-5" data-name="Path 10541" transform="translate(-2458.276 -2405.551)"/>
            <path id="prefix__Path_10542" d="M2460.392 2383.569l.219.513-.4-2.084-.023.722-1.018-2.509.042 1.312a1.442 1.442 0 0 1-.431-.9l-.174 1.015a3.273 3.273 0 0 1-.473-1.1q0 .546-.007 1.091l-.237-.537a16.463 16.463 0 0 0-.139 1.807l-.68-1.04c.041.556.107 1.111.195 1.663a6.812 6.812 0 0 1 .527 1.494 1.965 1.965 0 0 0 .039-.634l.335 1.278.187-1.521a20.005 20.005 0 0 1 .849 2.618 16.815 16.815 0 0 0 .07-2.281l.107.555q.009-.513.02-1.025a3.587 3.587 0 0 1 .434.926c-.1-.564-.211-1.128-.32-1.691.223.465.7.883.9 1.375.106.253.166.562.427.693q-.236-.862-.449-1.74z" class="prefix__cls-5" data-name="Path 10542" transform="translate(-2457.007 -2380.212)"/>
        </g>
        <path id="prefix__Path_10543" d="M2515.635 2365.5a1.157 1.157 0 0 0-.234-.459l-1.366-1.917a5.312 5.312 0 0 0-1.366-1.472l.393.957a.864.864 0 0 1-.654-.494l.126.441-.4-.33.191 1.014-.167-.251-.015.585a5.452 5.452 0 0 1-1.236-.82 3.122 3.122 0 0 1 .412 1.163l-.828-.82a.741.741 0 0 1 .12.659l-.545-.776a8.562 8.562 0 0 0 .451 1.414l-.384-.828a11.72 11.72 0 0 0 .826 1.627 1.159 1.159 0 0 1 .008-.795l.362.7a.264.264 0 0 0 .1-.3 12.269 12.269 0 0 0 1.121 1.486l-.321-1.6a19.105 19.105 0 0 0 1.821 2.285 4.274 4.274 0 0 0-.453-1.423 1.891 1.891 0 0 0 .835.716l-.132-.9a.578.578 0 0 1 .415.151.979.979 0 0 0-.022-.8 2.734 2.734 0 0 0 .942.787z" class="prefix__cls-5" data-name="Path 10543" transform="translate(-287.937 -149.006)"/>
        <path id="prefix__Path_10544" d="M2251.284 2346.2a22.937 22.937 0 0 1 2.821-3.531 7.858 7.858 0 0 0-2.464 1.972l1.065-1.626a12.756 12.756 0 0 0-1.873 1.479l.573-.473a15.26 15.26 0 0 0-1.952 2.067l1.033-.744a21.538 21.538 0 0 0-4.641 7.229 25.148 25.148 0 0 1 2.19-2.68l-2.41 4.465 3.908-5.083a5.659 5.659 0 0 0-.558 1.016 8.184 8.184 0 0 0 .965-1.1l-.355.89a18.844 18.844 0 0 1 4.265-5.9 8.735 8.735 0 0 0-2.567 2.019z" class="prefix__cls-2" data-name="Path 10544" transform="translate(-53.566 -132.186)"/>
        <path id="prefix__Path_10545" d="M2274.675 2356.73a1.369 1.369 0 0 0-1.023.479l.822-1.355a2.048 2.048 0 0 0-1.021.7c.276-.426.566-.849.82-1.286a7.452 7.452 0 0 0-2.22 2.774 2.257 2.257 0 0 0 1.064-.7 11.026 11.026 0 0 1-1.1 1.466l.48-.2a15.6 15.6 0 0 0-1.469 2.886 49.715 49.715 0 0 1 3.647-4.764z" class="prefix__cls-5" data-name="Path 10545" transform="translate(-76.082 -143.348)"/>
        <path id="prefix__Path_10546" d="M2496.142 2371.318q0 .514-.006 1.028a.837.837 0 0 1-.338-.543q0 .347-.009.695c-.367-.609-.715-1.235-1.113-1.826a17.018 17.018 0 0 0 .639 4.431 1.769 1.769 0 0 1 .05-1.136 5.508 5.508 0 0 1 .853 1.633l.11-.776 1.718 5.918a20.956 20.956 0 0 1 .061-2.649l.42.867.244-.759q-1.316-3.441-2.629-6.883z" class="prefix__cls-2" data-name="Path 10546" transform="translate(-274.294 -157.003)"/>
        <path id="prefix__Path_10547" d="M2315.33 2281.267a6.561 6.561 0 0 0 2.121-.384c-.048-.126-.1-.251-.143-.377a3.69 3.69 0 0 0 1.078.214l-.228-1.456a2.02 2.02 0 0 0 .952 1.053 1.123 1.123 0 0 1 .613-.92 1.3 1.3 0 0 0 .565.548l1.268-1.983a3.35 3.35 0 0 0-.13 1.439 1.2 1.2 0 0 1 .613-.792.211.211 0 0 0 .089.333.243.243 0 0 0 .316-.185c-.113.049-.041.226.082.246a.475.475 0 0 0 .335-.125l3.066-2.2a3.946 3.946 0 0 0-1.021 1.664.749.749 0 0 1 .448-.542.768.768 0 0 1 .115.734 18.144 18.144 0 0 1 2.66-1.927 2.558 2.558 0 0 0-1.335 1.427l.531-.231-.257.492.909-.5-.315.437a9.115 9.115 0 0 1 5.2-1.489 11.371 11.371 0 0 0-2.452 1.286 2.124 2.124 0 0 1 1.207-.4.954.954 0 0 0-.612.235l.483.024 3.622.306-2.106.569h1.034l-.521.241a1.552 1.552 0 0 1 .992.186l-.457.131a18.439 18.439 0 0 1 2.837.451c-.069-.15-.355-.012-.329.148s.206.257.365.329l1.486.673-.751-.015a8.208 8.208 0 0 1 2.1 1.928 17.586 17.586 0 0 0-8.715-3.021 32.653 32.653 0 0 0-9.383.7c-1.126.229-2.124.716-3.219.987-1.143.288-2.043-.25-3.113-.234z" class="prefix__cls-3" data-name="Path 10547" transform="translate(-115.344 -73.633)"/>
        <g id="prefix__Group_3932" data-name="Group 3932" transform="translate(2211.032 2198.03)">
            <path id="prefix__Path_10548" d="M2558.491 2311.8a2.4 2.4 0 0 0-.27-.078.768.768 0 0 0 .27.078z" class="prefix__cls-3" data-name="Path 10548" transform="translate(-2541.645 -2302.787)"/>
            <path id="prefix__Path_10549" d="M2431.9 2242.147a2.511 2.511 0 0 0-.492-1.251 13.861 13.861 0 0 0-3.429-4.052 17.237 17.237 0 0 0-3.321-1.736l-3.478-1.509a2.528 2.528 0 0 0-.754-.237 4.073 4.073 0 0 0-1.089.151 14.354 14.354 0 0 1-3.79-.349c-1.271-.117-2.836.334-3.089 1.474a3.467 3.467 0 0 1 1.321-.542.644.644 0 0 0-.522.7 6.113 6.113 0 0 1 1.94-.761c-.161.265-.34.519-.515.778a1.118 1.118 0 0 1 .67-.25l-.433.628a10.932 10.932 0 0 1 3.4-.881l-1 .785a5.121 5.121 0 0 1 2.918-.415l-1.4.724a9.139 9.139 0 0 1 2.741-.174c-.1.022-.183.116-.156.209a.211.211 0 0 0 .34.056l-.5.388 1.851-.233-.876.357a3.136 3.136 0 0 1 2.268.279l-.733.248 4 1.27-1.85.012a4.583 4.583 0 0 1 3.043 1.011l-1.648-.449 2.335 1.641-1.7-.007a5.687 5.687 0 0 1 1.4.94 1.23 1.23 0 0 1-.994-.224l1.536 1.3a.829.829 0 0 1-.591.139 2.194 2.194 0 0 1 1.136.875.888.888 0 0 0-1.009.307c.559-.079.923.556.9 1.071a3.678 3.678 0 0 0-.04 1.531 1.4 1.4 0 0 0-.72.192l1 .827a1.8 1.8 0 0 1-.706.726 2.081 2.081 0 0 0 1.884-1.882 5.4 5.4 0 0 0-.667-2.688.958.958 0 0 0 .819-.979z" class="prefix__cls-3" data-name="Path 10549" transform="translate(-2412.463 -2233.147)"/>
        </g>
        <path id="prefix__Path_10550" d="M2305.16 2238.04a5.93 5.93 0 0 0-3.837.2c-1.221.444-2.344 1.094-3.575 1.513-.693.235-1.416.4-2.1.656a4.316 4.316 0 0 0-2.844 2.287 1.807 1.807 0 0 0-.284 1.264c.094.385-.247 1.105.089 1.355a3.02 3.02 0 0 0 2.307.767 1.6 1.6 0 0 1-1.524-1.532c0-.81 1.014-1.187 1.141-1.573.057-.173.226-.417.368-.292q-.048-.384-.1-.769a5.236 5.236 0 0 1 1.749.58l-.107-1.177.365.47.023-.819c.172-.122.24.242.408.369.253.189.489-.234.615-.51a1.2 1.2 0 0 1 1.875-.188 1.83 1.83 0 0 0-.159-.954l.391.244c-.1-.272.4-.391.677-.256s.587.367.866.233a.945.945 0 0 1 .117-.711c.16-.2.572-.217.656.016a.673.673 0 0 1 .262-.563c.483.271.766-.062 1.172.3a1.983 1.983 0 0 0-.136-.394c.035.015.9.338.943.342.1-.52 1.2-.527 1.583-.133s-.27-.503-.941-.725z" class="prefix__cls-3" data-name="Path 10550" transform="translate(-95.075 -39.247)"/>
        <path id="prefix__Path_10551" d="M2413.32 2253.739a2.268 2.268 0 0 1 .583-.455l-.345.427.4-.262a1.057 1.057 0 0 0-.3.4 7.59 7.59 0 0 1 2.428-.922 9.821 9.821 0 0 0-1.9 1.661 5.414 5.414 0 0 1 2.97-1.106 2.689 2.689 0 0 0-.846.445 14.786 14.786 0 0 1 2-.61l-.853.48a5.947 5.947 0 0 1 3.145-.46 12.093 12.093 0 0 0-2.159.976 18.878 18.878 0 0 1 4.058-.154l-1.593.346 1.842.025-.819.334a5.479 5.479 0 0 1 2.839.619l-1.482-.082a19.47 19.47 0 0 1 3.744 1.082l-2.589-.494a6.845 6.845 0 0 1 2.485 1.224l-1.36-.569a9.243 9.243 0 0 1 1.814 1.282l-3.238-1.019a4.282 4.282 0 0 1 1.451.73l2.463 1.667a13.934 13.934 0 0 0-6.42-2.058 5.21 5.21 0 0 1 1.869-.165l-1.192-.26 1.029-.017-1-.275a5.279 5.279 0 0 1 1.12-.22 25.012 25.012 0 0 1-2.686.035 3.577 3.577 0 0 1 1.49-.415 19.835 19.835 0 0 0-2.254.06l1-.444a4.082 4.082 0 0 0-.9.163l.655-.487a13.644 13.644 0 0 0-1.949.422 6.256 6.256 0 0 1 1.349-.7l-1.014.005.366-.179c-.406.055-.815.093-1.225.111-.065 0-.144 0-.175-.053s.074-.12.094-.063l-1.039.153a2.074 2.074 0 0 1 .719-.529 13.359 13.359 0 0 0-3.972 1.305 7.771 7.771 0 0 1 1.53-1.02 5.79 5.79 0 0 0-1.36.548l.459-.23a3.671 3.671 0 0 0-.917.227.5.5 0 0 0 .29-.2 6.52 6.52 0 0 0-.911.218l.651-.821a20.82 20.82 0 0 0-2.2 1.056 5.831 5.831 0 0 1 2.666-2.751 9.924 9.924 0 0 0-.811 1.019z" class="prefix__cls-2" data-name="Path 10551" transform="translate(-200.535 -52.466)"/>
        <g id="prefix__Group_3933" data-name="Group 3933" transform="translate(2222.793 2205.793)">
            <path id="prefix__Path_10552" d="M2520.792 2305.582v.388a.741.741 0 0 1-.009-.639 1.993 1.993 0 0 0 .349.27 9.277 9.277 0 0 0-1.413-1.737c.449.261.9.515 1.365.753l-1.229-1.455c-.026-.031-.05-.074-.031-.105a2.685 2.685 0 0 0-.452-.291l.905.305c-.672-.227-1.28-.728-1.967-1.006a18.965 18.965 0 0 0-2.424-.651 12.407 12.407 0 0 1 2.283 1.034 1.4 1.4 0 0 0-.792-.093 4.794 4.794 0 0 1 1.059.491 1.293 1.293 0 0 0-.755-.014 2.907 2.907 0 0 0 .99.555 3.524 3.524 0 0 0-1.535-.214c.678.232 1.125.849 1.8 1.1.068.026.14.049.211.072a3.47 3.47 0 0 1 .386.76 1.523 1.523 0 0 1-.7-.266 27.529 27.529 0 0 1 2.372 2.217zm-1.562-1.2a.773.773 0 0 1 .424.28z" class="prefix__cls-2" data-name="Path 10552" transform="translate(-2515.881 -2301.415)"/>
            <path id="prefix__Path_10553" d="M2550.523 2315.7v.01l.044.032c.042.007-.014-.073-.044-.042z" class="prefix__cls-2" data-name="Path 10553" transform="translate(-2546.579 -2314.07)"/>
        </g>
        <path id="prefix__Path_10554" d="M2396.39 2291.939l.7.087a8.8 8.8 0 0 0-3.062-.427l.966-.348a4.944 4.944 0 0 0-1.928-.049l.342-.187-1.151.129a.758.758 0 0 1 .38-.241 1.8 1.8 0 0 0-.783.248 4.086 4.086 0 0 1 .934-.686 10.183 10.183 0 0 1-1.354.315c-.564.178-1.02.617-1.61.691l.063-.351a1.127 1.127 0 0 0-.575.271.541.541 0 0 0 .106-.347l-.743.492a.14.14 0 0 1-.015-.165l-.987.689.352-.89a2.747 2.747 0 0 1-1.057.679c-.084.031-.235-.011-.182-.079a.291.291 0 0 1-.18.1v-.186l-.195.3a.146.146 0 0 1-.023-.138c-.221.562-.05.556.573.543a14.6 14.6 0 0 0 1.565-.133 28.285 28.285 0 0 1 3.1-.341 19.079 19.079 0 0 1 3.773.433 11.4 11.4 0 0 1 4.053 1.278 33.572 33.572 0 0 0-3.062-1.687z" class="prefix__cls-4" data-name="Path 10554" transform="translate(-178.242 -85.917)"/>
        <path id="prefix__Path_10555" d="M2364.706 2300.379a.341.341 0 0 0-.206-.238 1.4 1.4 0 0 1 1.223.335.412.412 0 0 0 .09-.376 3.137 3.137 0 0 0 2.613-.593l-.183.607.977-.479c-.112-.019-.167.153-.076.215a.244.244 0 0 0 .3-.061.452.452 0 0 0-.294.3 18.849 18.849 0 0 1 3.388-.44l-.588.336a11.044 11.044 0 0 1 4.491.931l-3.333-.614a.686.686 0 0 1 .781.38l-.605-.293a.429.429 0 0 1 .316.344 6.127 6.127 0 0 0-2.329-.354 1.011 1.011 0 0 1 .833.213.467.467 0 0 0-.356-.123.428.428 0 0 0 .062.39 2.771 2.771 0 0 0-1.3-.484.549.549 0 0 1 .159.348 7.951 7.951 0 0 0-3.563-.14c-.046-.1.193-.084.181.02s-.142.154-.25.188-.236.1-.22.208c.065-.135-.093-.289-.254-.3a.812.812 0 0 0-.447.155c.123-.033.086-.222-.033-.263a.51.51 0 0 0-.365.062l-1.341.605a2.256 2.256 0 0 1 .491-.434 5.183 5.183 0 0 0-2.279.129c.168-.046 2.123-.545 2.117-.574z" class="prefix__cls-1" data-name="Path 10555" transform="translate(-157.228 -93.931)"/>
        <g id="prefix__Group_3934" data-name="Group 3934" transform="translate(2211.794 2201.177)">
            <path id="prefix__Path_10556" d="M2422.219 2261.1a1.093 1.093 0 0 0 .341-.222c-.291.063-.578.139-.86.229a.114.114 0 0 0 .079-.084 4.379 4.379 0 0 1-.691.342 1.14 1.14 0 0 1 .423-.527l-.74.293a1.229 1.229 0 0 1 .159-.313 2.545 2.545 0 0 1-.777.242c.039-.065.056-.179.095-.24a6.6 6.6 0 0 0-1.084.953c.245-.118.6-.248.879-.4l-.21.146a1.662 1.662 0 0 0 .431-.115l-.165.145a.84.84 0 0 0 .475-.109l-.181.32a1.943 1.943 0 0 0 .531-.118 1.032 1.032 0 0 0-.3.358.827.827 0 0 0 .324-.069l1.152-.416.742-.554a2.678 2.678 0 0 0-.623.139z" class="prefix__cls-5" data-name="Path 10556" transform="translate(-2419.166 -2260.821)"/>
            <path id="prefix__Path_10557" d="M2446.061 2262.755l-1.305.472-.03.022a3.291 3.291 0 0 0 1.335-.494z" class="prefix__cls-5" data-name="Path 10557" transform="translate(-2441.819 -2262.535)"/>
        </g>
        <path id="prefix__Path_10558" d="M2469.43 2262.689a1.085 1.085 0 0 1-.432-.092l.167-.086-.353-.106.357-.189-1.112-.188a.846.846 0 0 1 .32-.276 4.338 4.338 0 0 1-1.521-.205 1.164 1.164 0 0 0 .548-.237 4.188 4.188 0 0 0-.864.026l.285-.157a9.079 9.079 0 0 0-1.487 0l.393-.19-.932.16.45-.3a6.746 6.746 0 0 1-.959.2 3.026 3.026 0 0 0-.783.418l.754-.1a.13.13 0 0 0-.058.046c.046-.04.121.035.1.088s-.094.075-.154.095-.127.054-.133.112a1.219 1.219 0 0 0 .52-.077l-.185.179a8.41 8.41 0 0 1 1.768-.235l-.856.321a5.934 5.934 0 0 1 1.268-.105l-.38.245.352-.052a.51.51 0 0 0-.194.126l1.043-.045-.633.205a6.133 6.133 0 0 1 1.606.1 6.854 6.854 0 0 0-1.166.423l1.505-.006a1.009 1.009 0 0 0-.536.134q.653-.098 1.302-.232z" class="prefix__cls-5" data-name="Path 10558" transform="translate(-246.67 -59.666)"/>
        <path id="prefix__Path_10559" d="M2512.825 2281.811a7.339 7.339 0 0 0-1.235-.809 13.521 13.521 0 0 0 1.971.641 2.193 2.193 0 0 0-1.02-.7l-.716-.315h.826a4.262 4.262 0 0 0-.836-.22l.77-.1a6.06 6.06 0 0 1-1.207-.16 3.13 3.13 0 0 0 .9 0 2.977 2.977 0 0 0-1.034-.166l.475-.037a5.127 5.127 0 0 0-1.791.089l1.027.121a3.963 3.963 0 0 0-1.028.129 3.281 3.281 0 0 1 .956.048l-.916.146a10.864 10.864 0 0 1 1.607.075l-1.345.228.912.035a1.441 1.441 0 0 0-.543.1l.8.234-1.226.047a18.508 18.508 0 0 1 2.769.843c.031-.091-.041-.172-.116-.229z" class="prefix__cls-5" data-name="Path 10559" transform="translate(-287.813 -76.55)"/>
        <g id="prefix__Group_3935" data-name="Group 3935" transform="translate(2224.769 2206.567)">
            <path id="prefix__Path_10560" d="M2535.3 2308.267a.811.811 0 0 0-.234-.047c.083.011.16.031.234.047z" class="prefix__cls-5" data-name="Path 10560" transform="translate(-2534.864 -2308.22)"/>
            <path id="prefix__Path_10561" d="M2535.6 2315.55a2.195 2.195 0 0 0-.335-.041 2.23 2.23 0 0 0 .335.041z" class="prefix__cls-5" data-name="Path 10561" transform="translate(-2535.037 -2314.68)"/>
            <path id="prefix__Path_10562" d="M2539.519 2308.629l.174.1.027.008z" class="prefix__cls-5" data-name="Path 10562" transform="translate(-2538.808 -2308.583)"/>
            <path id="prefix__Path_10563" d="M2535.506 2310.932a.851.851 0 0 1-.447-.505l.559.061-.711-.646c-.019-.018-.04-.048-.019-.065a.054.054 0 0 1 .034-.01l.461-.026a5.374 5.374 0 0 1-.744-.343l.378.033c.057.005.135 0 .142-.055s-.035-.068-.07-.089l-.942-.555c-.147-.041-.3-.074-.446-.1a.781.781 0 0 1 .377.258.143.143 0 0 0 .014.013l-.3-.077a1.63 1.63 0 0 1 .605.339 1.006 1.006 0 0 1-.461-.056l.493.3a2.269 2.269 0 0 1-.609.046 2.159 2.159 0 0 1 .763.3c-.422.143-.936-.167-1.325.039a1.778 1.778 0 0 1 .894.455.52.52 0 0 0-.472-.143 1.669 1.669 0 0 1 .734.51.374.374 0 0 0-.283-.1 4.431 4.431 0 0 1 .464.209 2.763 2.763 0 0 1-.7.031c.668.108 1.158.625 1.778.875a2.228 2.228 0 0 1-.687-.825z" class="prefix__cls-5" data-name="Path 10563" transform="translate(-2533.261 -2308.583)"/>
            <path id="prefix__Path_10564" d="M2541.675 2309.728c-.128-.048-.26-.085-.392-.123l.444.245c.065-.01.008-.099-.052-.122z" class="prefix__cls-5" data-name="Path 10564" transform="translate(-2540.371 -2309.448)"/>
        </g>
        <path id="prefix__Path_10565" d="M2315.123 2256.854a.288.288 0 0 0 .2-.041 5.644 5.644 0 0 1-.128-1.731l1.153.745a.965.965 0 0 0-.515-.467l.386.222-.083-.315a1.724 1.724 0 0 0 .985.007 11.028 11.028 0 0 0-.566-1.319l1.051 1.291-.041-.753.265.26.047-.422c.027.087.19.048.218-.038a.506.506 0 0 0-.04-.266c-.021-.089.005-.207.1-.226a2.463 2.463 0 0 0 .2.717 7.086 7.086 0 0 1 .549-1.665 3.486 3.486 0 0 0 .182 1.123 1.492 1.492 0 0 1 .167-.684l.25.566a2.354 2.354 0 0 1 .311-.727.479.479 0 0 0 .217.333l.228-.412a.472.472 0 0 0 .134.423 4.985 4.985 0 0 0 1.2-1.483 5.921 5.921 0 0 0-.142 1.426 3.381 3.381 0 0 1 .765-1.284 2.145 2.145 0 0 0-.156.823 2.413 2.413 0 0 1 .523-.605 1.037 1.037 0 0 1-.113.384 2.711 2.711 0 0 1 .577-.74l-.061.251 1.708-1.19a6.745 6.745 0 0 0-1.2 1.547l.911-.664-.319.294.3-.041-.5.688.4-.168a1.588 1.588 0 0 0-.427.416l.354-.137a6.457 6.457 0 0 0-1.02 2.015 1.181 1.181 0 0 1-.128-.972l-.246.431.126-.528c-.193.3-.387.27-.58.568l.137-.613a1.666 1.666 0 0 0-.506.711.364.364 0 0 0-.225-.159 1.567 1.567 0 0 0-.178.441 1.753 1.753 0 0 1-.292-.572v.48a1.054 1.054 0 0 0-.579-.417.452.452 0 0 0 .079.342l-.7-.16a1.241 1.241 0 0 1 .162.9l-.3-.361-.02.486-.2-.31a2.462 2.462 0 0 0-.167.8 1.232 1.232 0 0 0-.413-.5l-.1.425a1.8 1.8 0 0 0-.724-.438 1.419 1.419 0 0 0 .359.786 1.769 1.769 0 0 0-.969-.235.214.214 0 0 1 .228.079l-.369-.12.17.24a1.512 1.512 0 0 0-.666 0l.034.292-.4-.064a6.938 6.938 0 0 0 .332.912 1.2 1.2 0 0 0-.614-.466l.187.2a.539.539 0 0 0-.661-.048c.091-.067.342.423.354.481-.437-.247-.968-.214-1.406-.445a3.349 3.349 0 0 0 .391-.126 1.181 1.181 0 0 0-.186-.193z" class="prefix__cls-2" data-name="Path 10565" transform="translate(-114.977 -50.99)"/>
        <path id="prefix__Path_10566" d="M2365.537 2265.244a.14.14 0 0 0 .024.146l.277-.394a1.788 1.788 0 0 0 .044.517c.115.017.19-.1.238-.2a2.515 2.515 0 0 1 .825-.949l-.22.808.7-.74a.445.445 0 0 0-.05.254l.3-.27a.709.709 0 0 0-.16.35 1.22 1.22 0 0 0 .493-.337l-.635 1.317-.07-.469-.244.39-.019-.3a1.948 1.948 0 0 0-.224.357.665.665 0 0 1-.049-.28 2.668 2.668 0 0 1-.451.492.625.625 0 0 1 .01-.4l-.23.578a.093.093 0 0 1-.036.051c-.048.028-.1-.029-.126-.076a1.548 1.548 0 0 0-.147-.26c-.046.08-.158.154-.2.241-.007-.095-.073-.175-.089-.246-.236.536-.394-.315-.342-.51 0 .028.011.042.042.043a.532.532 0 0 1 .13-.148 1.742 1.742 0 0 0 .063.246 1.316 1.316 0 0 0 .146-.211z" class="prefix__cls-5" data-name="Path 10566" transform="translate(-159.502 -62.784)"/>
        <g id="prefix__Group_3936" data-name="Group 3936" transform="translate(2203.36 2202.782)">
            <path id="prefix__Path_10567" d="M2345.024 2285.579c-.008-.019-.018-.037-.025-.057a.134.134 0 0 0 .025.057z" class="prefix__cls-5" data-name="Path 10567" transform="translate(-2344.999 -2284.318)"/>
            <path id="prefix__Path_10568" d="M2346.372 2275.32c-.071-.026-.288-.136-.3-.226l.033.392a1.737 1.737 0 0 1-.437-.552 1.79 1.79 0 0 1 .065.772.961.961 0 0 1-.332-.412 1.94 1.94 0 0 1 .014.656.558.558 0 0 0-.2-.083.508.508 0 0 1 .125.4.169.169 0 0 1-.129-.072 1.271 1.271 0 0 0 .486.591 1.705 1.705 0 0 0 .177.1.942.942 0 0 0-.18-.673 1.342 1.342 0 0 1 .423.327l-.053-.123.084.1a.735.735 0 0 0-.091-.4.58.58 0 0 0 .223.157 1.259 1.259 0 0 1-.089-.354l.22.262a2.267 2.267 0 0 1 .032-.441.707.707 0 0 0 .236.294l-.125-.439.4.387a1.039 1.039 0 0 0-.225-.7c-.129-.174-.329-.491-.357.037z" class="prefix__cls-5" data-name="Path 10568" transform="translate(-2345.19 -2274.934)"/>
        </g>
        <path id="prefix__Path_10569" d="M2357.238 2274.861l-.023-.047.141.193q-.091-.275-.169-.552a.726.726 0 0 0-.06.153.135.135 0 0 1-.028-.09l-.032.1-.023-.086c0 .045-.008.091-.011.137-.042-.123-.213-.19-.224-.318a1.087 1.087 0 0 0 .029.373.6.6 0 0 1-.259-.172.072.072 0 0 1 0 .066l-.1-.066a.811.811 0 0 0 .364.477l-.018-.14a.253.253 0 0 1 .1.12v-.1a.4.4 0 0 0 .1.129.777.777 0 0 1-.039-.192l.129.134a.377.377 0 0 1-.025-.193l.086.1a.193.193 0 0 1-.009-.124.284.284 0 0 1 .071.098z" class="prefix__cls-5" data-name="Path 10569" transform="translate(-151.812 -71.632)"/>
        <path id="prefix__Path_10570" d="M2402.542 2255.251a16.791 16.791 0 0 0-1.534 1.335l.247-.466a7.255 7.255 0 0 1-.745.727 1.859 1.859 0 0 0 .381-.853l-.381.838a2.211 2.211 0 0 0-.064 1.16l.53-.773c.011.078.025.156.041.233l.176-.337-.167.494a15.668 15.668 0 0 1 1.516-2.358z" class="prefix__cls-2" data-name="Path 10570" transform="translate(-190.738 -54.708)"/>
        <g id="prefix__Group_3937" data-name="Group 3937" transform="translate(2200.735 2203.434)">
            <path id="prefix__Path_10571" d="M2339.253 2287.156l-.214-.265a2.153 2.153 0 0 0 .214.265z" class="prefix__cls-5" data-name="Path 10571" transform="translate(-2337.093 -2286.184)"/>
            <path id="prefix__Path_10572" d="M2322.027 2296.785a.25.25 0 0 1-.015-.082c-.03-.012-.058-.027-.089-.038a1.045 1.045 0 0 0 .104.12z" class="prefix__cls-5" data-name="Path 10572" transform="translate(-2321.923 -2294.846)"/>
            <path id="prefix__Path_10573" d="M2324.469 2281.635a3.872 3.872 0 0 0 .724.387 2.294 2.294 0 0 1-.45-.376l.027.033a6.724 6.724 0 0 1-.865-1.006 1.846 1.846 0 0 0 .188.923l-.483-.369.3.667-.761-.7c-.1.312.3.611.234.932l-.169-.07c.063.026.034.255.025.293a2.288 2.288 0 0 1-.572-.013 1.578 1.578 0 0 1 0 .2c.3.121.577.333.881.436-.109-.147-.228-.29-.336-.437a3.818 3.818 0 0 0 .742.4 1.682 1.682 0 0 0-.229-.424l.335.212a2.21 2.21 0 0 1-.1-.656 2.27 2.27 0 0 0 .56.356l-.176-.453a.658.658 0 0 0 .379.076z" class="prefix__cls-5" data-name="Path 10573" transform="translate(-2322.582 -2280.672)"/>
        </g>
        <path id="prefix__Path_10574" d="M2210.256 2317.91c-1.808 1.207-2.26 5.255-.462 6.663.021-.023.042-.044.061-.068a2.983 2.983 0 0 0 .477-1.126l.387-1.448a1.8 1.8 0 0 1 .522-1 1.626 1.626 0 0 0-.866.59 3.075 3.075 0 0 1 1.3-1.461 5.606 5.606 0 0 0-1.365.917 1.567 1.567 0 0 1 .609-.954l-.521.275a4.2 4.2 0 0 1 .881-.676 4.659 4.659 0 0 0-1.62.921 4.235 4.235 0 0 1 1.6-1.77q1.044-.766 2.156-1.451-1.557.735-3.053 1.573l1.243-1.309a1.786 1.786 0 0 1-.677.211 2.684 2.684 0 0 1 1-.6l-1.143.4a5.161 5.161 0 0 0 1.14-.7c-.645.339-1.194.696-1.669 1.013z" class="prefix__cls-3" data-name="Path 10574" transform="translate(-20.797 -109.335)"/>
        <path id="prefix__Path_10575" d="M2247.18 2312.833q.8-.653 1.632-1.281l-.243.045a8.483 8.483 0 0 0 1.5-.987l.422-.283c.62-.416 1.24-.831 1.89-1.206l-.838.057 1.567-.624a15.233 15.233 0 0 0-2.377-.506c.428.056 5.132-.343 4.368.738-.26.368-1.365.56-1.782.706a14.341 14.341 0 0 0-2.446 1.122q-1.873 1.073-3.693 2.219z" class="prefix__cls-3" data-name="Path 10575" transform="translate(-54.945 -101.475)"/>
        <path id="prefix__Path_10576" d="M2242.474 2311.038a4.309 4.309 0 0 0-.808.459l2.263-.405a16.458 16.458 0 0 0-2.966 1.628 14.213 14.213 0 0 1 1.419-.58l-3.552 2.262c-.08-.08.006-.2.09-.281l1.469-1.35-.584.249a1.492 1.492 0 0 0 .42-.347 1.685 1.685 0 0 0-.635.228l1.367-.923a1.647 1.647 0 0 1-.515.064 1.054 1.054 0 0 0 .411-.388 7.749 7.749 0 0 1-1.6.191 5.9 5.9 0 0 1 3.044-1.174 3.554 3.554 0 0 0-.941.588c.374-.059.744-.144 1.118-.221z" class="prefix__cls-2" data-name="Path 10576" transform="translate(-47.517 -103.826)"/>
        <g id="prefix__Group_3938" data-name="Group 3938" transform="translate(2187.856 2209.402)">
            <path id="prefix__Path_10577" d="M2210.945 2333.15a4.806 4.806 0 0 0-.627 1.442 3.273 3.273 0 0 0 .627-1.442z" class="prefix__cls-4" data-name="Path 10577" transform="translate(-2210.13 -2333.15)"/>
            <path id="prefix__Path_10578" d="M2210.467 2343.9a2.734 2.734 0 0 0-.182.22v.02z" class="prefix__cls-4" data-name="Path 10578" transform="translate(-2210.096 -2342.677)"/>
            <path id="prefix__Path_10579" d="M2208.921 2350.266l-.108.11a6 6 0 0 0-.057.6l.165-.71z" class="prefix__cls-4" data-name="Path 10579" transform="translate(-2208.746 -2348.32)"/>
            <path id="prefix__Path_10580" d="M2210.085 2355.97a2.206 2.206 0 0 0-.943.977 3.818 3.818 0 0 1 .665-1.61l-.865.932a1.689 1.689 0 0 1 .158-1.085 1.36 1.36 0 0 1-.435.382 3.925 3.925 0 0 0 .876 2.7c.216-.76.403-1.524.544-2.296z" class="prefix__cls-4" data-name="Path 10580" transform="translate(-2208.666 -2352.678)"/>
        </g>
        <path id="prefix__Path_10581" d="M2246.683 2326.672a18.513 18.513 0 0 0-2.566 1.136 8.116 8.116 0 0 0 2.263-1.677l-1.4.679a3.925 3.925 0 0 0 1.322-.984 4.076 4.076 0 0 0-1.2.313l.444-.223-.512.25-.049.024c-2.326 1.138-4.67 2.4-6.088 4.414l1.871-1.281-.766.574.452-.272-1.809 2.919a20.116 20.116 0 0 1 3.391-3.083 16.937 16.937 0 0 0-2.453 2.8q2.033-1.881 4.255-3.582l-1.62 1.3z" class="prefix__cls-2" data-name="Path 10581" transform="translate(-47.374 -117.257)"/>
        <g id="prefix__Group_3939" data-name="Group 3939" transform="translate(2193.68 2209.44)">
            <path id="prefix__Path_10582" d="M2280.248 2348.251c0 .014.027 0 .016-.012z" class="prefix__cls-5" data-name="Path 10582" transform="translate(-2277.932 -2346.56)"/>
            <path id="prefix__Path_10583" d="M2262.5 2334.463a4.869 4.869 0 0 0 1.162-.75l-1.025.368a4.666 4.666 0 0 0 .915-.6 4.49 4.49 0 0 0-.746.294 14.035 14.035 0 0 0-2.148 1.183 5.349 5.349 0 0 1 .861-.419 5.667 5.667 0 0 0-.724.51l.372-.151q-.609.672-1.284 1.292l2.156-1.411-1.083.962 1.035-.595a1.507 1.507 0 0 0-.37.38l.552-.36c.012-.008.029-.015.041-.007.5-.478 1.189-.755 1.72-1.2a9.41 9.41 0 0 0-1.434.504z" class="prefix__cls-5" data-name="Path 10583" transform="translate(-2259.884 -2333.48)"/>
        </g>
        <g id="prefix__Group_3940" data-name="Group 3940" transform="translate(2187.17 2220.605)">
            <path id="prefix__Path_10584" d="M2203.1 2436.861l.329-1.928a1.989 1.989 0 0 1-.562.583 28.022 28.022 0 0 0 .591 3.905c.052.256.093.52.13.786l.15-.7a10.625 10.625 0 0 1 2.12-5.139q-1.429 1.204-2.758 2.493z" class="prefix__cls-4" data-name="Path 10584" transform="translate(-2202.838 -2434.062)"/>
            <path id="prefix__Path_10585" d="M2203.13 2431.66a3.912 3.912 0 0 0-.492.564q0 .331.011.659a2.752 2.752 0 0 1 .481-1.223z" class="prefix__cls-4" data-name="Path 10585" transform="translate(-2202.637 -2431.66)"/>
        </g>
        <path id="prefix__Path_10586" d="M2589.62 2428.322l-1.216-3.187a48.658 48.658 0 0 1 2.429 17.92l-1.265-6.753a26.114 26.114 0 0 1-.535 5.72 10.4 10.4 0 0 0-.3-3.681l-.115 3.373a21.283 21.283 0 0 0-1.389-6.734 60.291 60.291 0 0 1 .6 10.416 88.3 88.3 0 0 1-2.375-9.212c-.021.159-.047.318-.068.478a67.663 67.663 0 0 1 1.337 16.815c-.584 11.559-2.595 18.025-2.595 18.025a81.135 81.135 0 0 0 5.08-22.979s.192 17.656-2.485 26.293c0 0 5.144-10.67 5.558-30.23a48.1 48.1 0 0 0-1.724-14.056c-.884-2.199-1.409-3.444-.937-2.208z" class="prefix__cls-2" data-name="Path 10586" transform="translate(-353.57 -205.272)"/>
        <g id="prefix__Group_3941" data-name="Group 3941" transform="translate(2233.489 2240.336)">
            <path id="prefix__Path_10587" d="M2609.935 2617.971c.08-.441.145-.883.2-1.326l-.015-.648z" class="prefix__cls-5" data-name="Path 10587" transform="translate(-2609.935 -2614.764)"/>
            <path id="prefix__Path_10588" d="M2612.891 2605.662l-.339 3.222a8.354 8.354 0 0 0-.671-3.725c-.034.629-.094 1.256-.174 1.881l.133 5.738a13.42 13.42 0 0 0 .542-2.05q-.13 2.738-.457 5.463a2.65 2.65 0 0 0 .415-1.093 31.9 31.9 0 0 0 .551-9.436z" class="prefix__cls-5" data-name="Path 10588" transform="translate(-2611.506 -2605.159)"/>
        </g>
        <path id="prefix__Path_10589" d="M2592.287 2374.477a22.762 22.762 0 0 1 1.251 7q-.449-2.283-1.1-4.527l.14 1.063a40.207 40.207 0 0 1-2.756-5.911 3.336 3.336 0 0 1 1.556 1.531c-.507-1.059-.875-2.535-1.282-3.664a20.922 20.922 0 0 1 2.194 4.507z" class="prefix__cls-2" data-name="Path 10589" transform="translate(-358.618 -156.38)"/>
        <g id="prefix__Group_3942" data-name="Group 3942" transform="translate(2229.673 2208.035)">
            <path id="prefix__Path_10590" d="M2582.821 2327.045a2.258 2.258 0 0 0-.225-.62 17.846 17.846 0 0 0-2.031-2.533 13.117 13.117 0 0 0-4.18-2.766 5.322 5.322 0 0 1 .653 2.655 2.2 2.2 0 0 1-.23.75 1.761 1.761 0 0 1 1.077.688l-.473-.793.233.246a.749.749 0 0 1 .086-.625 2.353 2.353 0 0 1 .511.626 2.06 2.06 0 0 0-.249-.912 11.865 11.865 0 0 1 4.828 3.284z" class="prefix__cls-3" data-name="Path 10590" transform="translate(-2576.385 -2321.126)"/>
        </g>
        <path id="prefix__Path_10591" d="M2576.385 2321.126a5.322 5.322 0 0 1 .653 2.655 2.2 2.2 0 0 1-.23.75 1.761 1.761 0 0 1 1.077.688l-.473-.793.233.246a.749.749 0 0 1 .086-.625 2.353 2.353 0 0 1 .511.626 2.06 2.06 0 0 0-.249-.912c.254.094.5.2.75.307a4 4 0 0 0-.641-.993 7.849 7.849 0 0 1 3.345 2.081 1.243 1.243 0 0 0 .01-.259c-.281-.34-.575-.676-.892-1a13.117 13.117 0 0 0-4.18-2.771z" class="prefix__cls-4" data-name="Path 10591" transform="translate(-346.712 -113.091)"/>
        <path id="prefix__Path_10592" d="M2599.706 2360.236l.066-.386a19.509 19.509 0 0 1 1.882 3.425 12.455 12.455 0 0 0-.552-2.251 5.457 5.457 0 0 0-.462-1.158 5.836 5.836 0 0 0-.839-1.024l-1.4-1.475a3.119 3.119 0 0 1 .679 1.048l-.6-.5.309.505a3.853 3.853 0 0 0-1.346-1.082 10.06 10.06 0 0 0 2.227 3.347 1.028 1.028 0 0 1-.219-.77c.089.101.171.211.255.321z" class="prefix__cls-2" data-name="Path 10592" transform="translate(-365.372 -145.183)"/>
        <path id="prefix__Path_10593" d="M2585.126 2314.122s.077.015.235.057a3.355 3.355 0 0 1 .657.261 6.063 6.063 0 0 1 1.785 1.538 13.19 13.19 0 0 1 .926 1.215 13.926 13.926 0 0 1 .864 1.449 16.35 16.35 0 0 1 1.3 3.368 23.225 23.225 0 0 1 .672 6.625c-.028.908-.085 1.664-.13 2.192l-.079.829.063-.83c.04-.53.079-1.284.09-2.192a27.612 27.612 0 0 0-.131-3.094 20.01 20.01 0 0 0-.659-3.49 16.282 16.282 0 0 0-1.343-3.311 13.747 13.747 0 0 0-.876-1.413 13.055 13.055 0 0 0-.93-1.178 5.778 5.778 0 0 0-1.715-1.436 3.029 3.029 0 0 0-.582-.222c-.141-.036-.227-.052-.227-.052z" class="prefix__cls-1" data-name="Path 10593" transform="translate(-354.383 -106.884)"/>
        <path id="prefix__Path_10594" d="M2443.288 2427.824s.03.854.12 2.129.253 2.977.486 4.67.535 3.379.8 4.637.462 2.093.462 2.093-.224-.829-.517-2.083-.641-2.934-.92-4.625-.489-3.393-.61-4.671-.177-2.133-.177-2.133z" class="prefix__cls-1" data-name="Path 10594" transform="translate(-228.433 -207.655)"/>
        <path id="prefix__Path_10595" d="M2340.376 2448.324s-.26 2.1-.6 4.188-.751 4.166-.751 4.166.328-2.089.573-4.187.424-4.2.424-4.2z" class="prefix__cls-1" data-name="Path 10595" transform="translate(-136.342 -225.796)"/>
        <path id="prefix__Path_10596" d="M2547.333 2448.084l.1.421c.064.265.164.645.3 1.1.267.905.7 2.1 1.129 3.29l1.718 4.773-1.887-4.719c-.473-1.179-.948-2.36-1.25-3.266-.153-.453-.267-.833-.342-1.1l-.114-.421z" class="prefix__cls-1" data-name="Path 10596" transform="translate(-320.653 -225.611)"/>
        <path id="prefix__Path_10597" d="M2606.291 2412.188l.179-.164.18.164z" class="prefix__cls-1" data-name="Path 10597" transform="translate(-373.217 -193.652)"/>
        <path id="prefix__Path_10598" d="M2261.645 2415.982l-.511 1.7-.545 1.957c-.2.759-.428 1.614-.646 2.553s-.45 1.958-.679 3.037l-.329 1.667-.306 1.746c-.191 1.188-.372 2.417-.52 3.67s-.266 2.529-.346 3.807-.118 2.558-.114 3.818.062 2.5.162 3.7a38.2 38.2 0 0 0 1.1 6.478 19.562 19.562 0 0 0 1.717 4.361c.135.251.264.472.384.661s.216.352.305.478l.266.392-.269-.39c-.091-.126-.193-.286-.311-.476s-.252-.407-.391-.658a19.647 19.647 0 0 1-1.76-4.354 38.152 38.152 0 0 1-1.164-6.482c-.11-1.2-.175-2.441-.193-3.7s.014-2.547.082-3.828.178-2.562.313-3.819.309-2.49.49-3.682l.292-1.752.316-1.672c.22-1.084.43-2.11.654-3.05s.436-1.8.625-2.564l.531-1.969.5-1.7z" class="prefix__cls-1" data-name="Path 10598" transform="translate(-64.086 -197.085)"/>
        <path id="prefix__Path_10599" d="M2226.382 2440.082l-.316 1.588c-.201 1.01-.486 2.454-.806 4.19a95.206 95.206 0 0 0-1.609 12.808c-.047 1.173-.063 2.344-.045 3.5s.085 2.289.184 3.385.229 2.153.4 3.148.364 1.933.563 2.794l.322 1.228.327 1.1c.224.686.427 1.281.616 1.765s.344.861.448 1.12l.164.395-.168-.393c-.106-.258-.279-.63-.458-1.117s-.4-1.077-.633-1.761l-.338-1.1-.334-1.227c-.208-.86-.423-1.8-.591-2.793s-.316-2.055-.433-3.151-.177-2.234-.217-3.391-.025-2.333.012-3.508a95.386 95.386 0 0 1 1.49-12.846c.3-1.74.576-3.187.767-4.2l.3-1.591z" class="prefix__cls-1" data-name="Path 10599" transform="translate(-33.905 -218.469)"/>
        <path id="prefix__Path_10600" d="M2204.307 2436.875l-.666 1.81c-.207.577-.459 1.277-.732 2.084s-.579 1.72-.885 2.721c-.156.5-.316 1.022-.467 1.565s-.315 1.1-.463 1.684c-.311 1.157-.59 2.388-.853 3.666-.245 1.279-.476 2.606-.623 3.964a39.44 39.44 0 0 0-.268 4.127c.01.693 0 1.386.051 2.075.032.689.085 1.376.162 2.054a35.156 35.156 0 0 0 .658 3.961 23.786 23.786 0 0 0 2.543 6.693 16.587 16.587 0 0 0 3.249 4.042c.476.426.875.736 1.152.942l.43.309-.433-.306c-.279-.2-.681-.511-1.16-.934a16.642 16.642 0 0 1-3.288-4.028 23.89 23.89 0 0 1-2.606-6.7 35.24 35.24 0 0 1-.692-3.969q-.124-1.021-.179-2.061c-.058-.692-.052-1.388-.067-2.083a39.672 39.672 0 0 1 .236-4.146c.137-1.365.358-2.7.594-3.984.253-1.283.523-2.521.826-3.684q.217-.875.451-1.692c.148-.546.3-1.071.456-1.573.3-1.006.6-1.924.866-2.734s.514-1.516.717-2.1l.652-1.815z" class="prefix__cls-1" data-name="Path 10600" transform="translate(-12.393 -215.586)"/>
        <g id="prefix__Group_3943" data-name="Group 3943" transform="translate(2235.581 2235.29)">
            <path id="prefix__Path_10601" d="M2630.451 2568.987a26.3 26.3 0 0 0 .078-4.846c-.276.969-.262 1.287-.538 2.255a7.142 7.142 0 0 0-.247-2.169c-.033.221-.112.452-.132.677-.01-.441-.309-3.694-.386-4.119-.5.864-.2 5.557-.185 6.5q.026 2.09-.047 4.179t-.243 4.173c-.1 1.189.055 2.916-.423 4.026a15.346 15.346 0 0 0 1.174-4.513l.341 1.849a80.571 80.571 0 0 0 .751-8.37 1.958 1.958 0 0 1-.143.358z" class="prefix__cls-5" data-name="Path 10601" transform="translate(-2628.329 -2560.785)"/>
            <path id="prefix__Path_10602" d="M2648.3 2621.031c-.009.331-.028.662-.04.993a1.953 1.953 0 0 0 .04-.993z" class="prefix__cls-5" data-name="Path 10602" transform="translate(-2645.994 -2614.18)"/>
        </g>
        <g id="prefix__Group_3944" data-name="Group 3944" transform="translate(2190.361 2246.682)">
            <path id="prefix__Path_10603" d="M2252.438 2698.193q.059-.521.13-1.041a5.484 5.484 0 0 0-.13 1.041z" class="prefix__cls-1" data-name="Path 10603" transform="translate(-2249.966 -2693.037)"/>
            <path id="prefix__Path_10604" d="M2238.79 2685.388c-1.082-1.637-5.357-9.048-4.939-23.213l-.1-1.208-.484 6.426a5.5 5.5 0 0 1-.1-1.271 46.321 46.321 0 0 0-.229 7.818l-.728-5.468a12.635 12.635 0 0 1-.2 3.606l-.3-.887a2.931 2.931 0 0 0-.044.773c-.312-1.5-.608-3.015-.972-4.509-.026.5.055 1.072 0 1.6.169.911.312 1.833.411 2.778a21.165 21.165 0 0 0 3.392 9.412c-.742-1.464-1.784-6.9-1.784-6.9a23.231 23.231 0 0 0 6.094 11.18c-.002-.048-.007-.092-.017-.137z" class="prefix__cls-1" data-name="Path 10604" transform="translate(-2230.698 -2660.967)"/>
        </g>
        <path id="prefix__Path_10605" fill="#6e4539" d="M2226.312 2587.216a.849.849 0 0 0 .093-.742l-.292.95-.014-2.752a24.831 24.831 0 0 0-.751 3.95 11.428 11.428 0 0 0-.2 3.617 3.821 3.821 0 0 0 .708-2.392c.2 1.667-.429 3.513.541 4.939l.615-8.728z" data-name="Path 10605" transform="translate(-35.365 -346.666)"/>
        <g id="prefix__Group_3945" data-name="Group 3945" transform="translate(2187.955 2233.591)">
            <path id="prefix__Path_10606" d="M2212.151 2552.458c.089-.244.188-.485.3-.722.009-.03.015-.061.024-.091z" class="prefix__cls-5" data-name="Path 10606" transform="translate(-2211.854 -2550.985)"/>
            <path id="prefix__Path_10607" d="M2210.554 2548.1l.555-2.157a7.466 7.466 0 0 0-.922 1.867 7.207 7.207 0 0 1 .322-1.961q-.2.368-.378.751a15.025 15.025 0 0 0-.594 4.106 11.442 11.442 0 0 1 .69-1.71 26.827 26.827 0 0 0-.051 7.907q.12-2.547.456-5.081l.047 1.062q.273-3.186.693-6.36z" class="prefix__cls-5" data-name="Path 10607" transform="translate(-2209.537 -2545.846)"/>
        </g>
    </g>
</svg>
