<svg xmlns="http://www.w3.org/2000/svg" width="72.328" height="79.324" viewBox="0 0 72.328 79.324">
    <defs>
        <style>
            .prefix__cls-1,.prefix__cls-3{fill:#775132}.prefix__cls-2,.prefix__cls-3{opacity:.3;mix-blend-mode:multiply;isolation:isolate}.prefix__cls-4{fill:#855d3c}.prefix__cls-5{fill:#8d6543}.prefix__cls-6{fill:#9d744f}.prefix__cls-7{fill:#b28a66}
        </style>
    </defs>
    <g id="prefix__Group_3965" data-name="Group 3965" transform="translate(-1904.036 -1947.25)">
        <path id="prefix__Path_10608" d="M1954.046 2198.787c.938 4.214.706 8.861-1.572 12.527-1.183 1.905-3.108 3.574-5.35 3.589-2.686.019-4.8-2.258-6.242-4.521a32.868 32.868 0 0 1-5.1-18.938c.09-2.151.465-4.447 1.948-6.007 3.237-3.4 7.986-1.126 10.839 1.5 2.997 2.763 4.617 7.989 5.477 11.85z" class="prefix__cls-1" data-name="Path 10608" transform="translate(-25.632 -191.13)"/>
        <path id="prefix__Path_10609" d="M2128.4 2188.928a13.658 13.658 0 0 1 3.37-3.92 16.351 16.351 0 0 1 5.161-2.162c2.988-.865 6.319-1.7 9.1-.3l-1.253-2.687a24.714 24.714 0 0 1 3.333 21.708c-1.687 5.155-5.729 10.041-11.119 10.637a15.425 15.425 0 0 1-3.759-.127 12.1 12.1 0 0 1-3.2-.792 9.694 9.694 0 0 1-5.139-6.428c-1.507-5.398.52-11.19 3.506-15.929z" class="prefix__cls-1" data-name="Path 10609" transform="translate(-178.096 -188.005)"/>
        <g id="prefix__Group_3947" class="prefix__cls-2" data-name="Group 3947" transform="translate(1962.42 1998.96)">
            <path id="prefix__Path_10610" d="M2211.057 2222.024l-.268-.539a.649.649 0 0 1 .268.539z" class="prefix__cls-1" data-name="Path 10610" transform="translate(-2210.356 -2220.613)"/>
            <path id="prefix__Path_10611" d="M2208.965 2217.807a.747.747 0 0 0-.11-.071c-.1-.27-.206-.538-.323-.8z" class="prefix__cls-1" data-name="Path 10611" transform="translate(-2208.532 -2216.935)"/>
        </g>
        <path id="prefix__Path_10612" d="M2162.925 2226.113a1.579 1.579 0 0 1-.143.5 6.417 6.417 0 0 1 .667-1.05 8.276 8.276 0 0 1-1.86.944c.213-.478 1.8-2.034 1.527-2.482a5.82 5.82 0 0 1-3.886 1.907c1.311-.428 1.838-1.943 2.442-3.183.921-1.892 2.4-3.535 2.915-5.574a21.366 21.366 0 0 0 .2-4.965.471.471 0 0 1 .452-.582 4.087 4.087 0 0 1 2.083-.037 1.55 1.55 0 0 1 1.136 1.57.633.633 0 0 1 .548.048 13.891 13.891 0 0 1 .843 4.909 15.383 15.383 0 0 1-.15 4.733 32.126 32.126 0 0 1-1.2 4.284 12.257 12.257 0 0 1-.959 2.344c-1.252 2.153-3.671 3.334-6.04 4.1a8.6 8.6 0 0 0 4.926-5.959 10.974 10.974 0 0 1-4.125 3.584 6.474 6.474 0 0 0 2.468-2.747 11.733 11.733 0 0 1-3.224 2.029 10.172 10.172 0 0 0 3.375-3.515 6.314 6.314 0 0 1-4.542 1.6 4.288 4.288 0 0 0 2.547-2.458z" class="prefix__cls-3" data-name="Path 10612" transform="translate(-206.263 -213.556)"/>
        <g id="prefix__Group_3948" class="prefix__cls-2" data-name="Group 3948" transform="translate(1955.059 2001.473)">
            <path id="prefix__Path_10613" d="M2179.079 2230.125l.041.286a7.98 7.98 0 0 0 .183.823c.092.345.224.75.368 1.207a9.659 9.659 0 0 1 .375 1.53 8.9 8.9 0 0 1 .04 1.85c-.046.667-.145 1.374-.243 2.11a26.384 26.384 0 0 1-.9 4.522 11.287 11.287 0 0 1-.919 2.14 13.093 13.093 0 0 1-1.295 1.855c-.469.569-.953 1.1-1.431 1.578a10.529 10.529 0 0 1-1.45 1.232 5.856 5.856 0 0 1-2.622 1.054 4.138 4.138 0 0 1-.8.022c-.185-.012-.283-.027-.283-.027s.1.017.282.034a4.065 4.065 0 0 0 .8 0 5.257 5.257 0 0 0 1.223-.269 6.648 6.648 0 0 0 1.456-.725 10.788 10.788 0 0 0 1.5-1.207c.5-.471 1-.989 1.486-1.552a13.357 13.357 0 0 0 1.372-1.857 11.638 11.638 0 0 0 1-2.168 26.873 26.873 0 0 0 1.039-4.563c.117-.732.238-1.444.3-2.134a9.455 9.455 0 0 0 .009-1.977 10.294 10.294 0 0 0-.351-1.625c-.133-.468-.251-.866-.328-1.192a7.455 7.455 0 0 1-.146-.75l-.032-.278z" class="prefix__cls-1" data-name="Path 10613" transform="translate(-2170.142 -2230.041)"/>
        </g>
        <g id="prefix__Group_3949" class="prefix__cls-2" data-name="Group 3949" transform="translate(1959.159 1999.523)">
            <path id="prefix__Path_10614" d="M2196.271 2220.259l.155.221a6.864 6.864 0 0 1 .381.618 9.427 9.427 0 0 1 .916 2.46 13.63 13.63 0 0 1 .283 1.758c.034.322.053.632.062.974s.034.688.016 1.029a19.323 19.323 0 0 1-.545 4.314 20.3 20.3 0 0 1-1.482 4.11c-.162.31-.309.622-.475.915s-.336.576-.5.854l-.515.781c-.166.252-.351.48-.514.708l-.247.33-.252.3-.467.558c-.315.331-.582.626-.814.858l-.75.709.77-.688c.239-.226.516-.514.84-.836l.485-.546.262-.3.257-.325c.171-.225.364-.448.538-.7l.542-.772.526-.846c.177-.291.334-.6.507-.91a20.56 20.56 0 0 0 1.622-4.123 19.7 19.7 0 0 0 .683-4.4c.027-.361.012-.7.013-1.042s-.01-.687-.036-1.008a14.078 14.078 0 0 0-.242-1.836 10.039 10.039 0 0 0-.9-2.648 7.533 7.533 0 0 0-.4-.691l-.149-.225z" class="prefix__cls-1" data-name="Path 10614" transform="translate(-2191.524 -2219.87)"/>
        </g>
        <path id="prefix__Path_10615" d="M1950.909 2213.223l-1.836-1.936.576.653-.687-.416 1.2 2.02-1.062-.872a38.207 38.207 0 0 0 5.353 8.233 35.135 35.135 0 0 1-5.4-5.175q.925 1.323 1.947 2.568a12.513 12.513 0 0 0-1.3-.852l2.79 4.706a27.548 27.548 0 0 1-5-5.089l1.13 2.147a11.693 11.693 0 0 1-3.851-6.275c-.191-.935-.24-1.9-.369-2.842-.353-2.573-1.309-5.122-.943-7.7a1.353 1.353 0 0 1 .191-.6 1.381 1.381 0 0 1 .527-.391l1.03-.533a1.538 1.538 0 0 1 .26-.792.48.48 0 0 1 .711-.077.758.758 0 0 1 .123.279c.363 1.261.788 2.522 1.065 3.807.2.95.207 1.925.377 2.877.413 2.326 1.889 4.388 3.168 6.26z" class="prefix__cls-3" data-name="Path 10615" transform="translate(-31.796 -204.192)"/>
        <path id="prefix__Path_10616" d="M2172.661 2218.787l.108.315c.071.205.182.51.3.887s.258.843.407 1.381.294 1.15.438 1.822l.205 1.052c.056.366.126.743.176 1.134.107.779.192 1.606.235 2.464a23.228 23.228 0 0 1-.01 2.645 17.957 17.957 0 0 1-.354 2.7 14.049 14.049 0 0 1-.792 2.6 11.78 11.78 0 0 1-1.279 2.3 10.519 10.519 0 0 1-1.693 1.793 9.951 9.951 0 0 1-1.869 1.2l-.455.224-.451.177-.43.167-.418.125a13.15 13.15 0 0 1-1.417.35c-.4.08-.716.1-.931.141l-.331.046.332-.034c.215-.027.536-.042.937-.108a13.31 13.31 0 0 0 1.436-.3l.425-.112.44-.154.463-.163.47-.21a10.188 10.188 0 0 0 1.948-1.154 10.8 10.8 0 0 0 1.805-1.784 12.181 12.181 0 0 0 1.4-2.331 14.463 14.463 0 0 0 .912-2.657 18.53 18.53 0 0 0 .461-2.77 24.083 24.083 0 0 0 .105-2.716c-.014-.881-.07-1.732-.153-2.536-.037-.4-.1-.791-.14-1.169s-.117-.738-.172-1.086c-.124-.695-.257-1.328-.384-1.886s-.257-1.042-.372-1.443-.207-.7-.269-.912-.1-.319-.1-.319z" class="prefix__cls-4" data-name="Path 10616" transform="translate(-210.196 -219.213)"/>
        <path id="prefix__Path_10617" d="M1944.044 2212.043v1.086c.012.353.012.784.041 1.271l.044.776c.016.276.051.56.078.859.063.6.146 1.243.261 1.922.056.34.131.686.2 1.041.083.353.16.713.256 1.077a22.509 22.509 0 0 0 .7 2.208 18.143 18.143 0 0 0 .981 2.181 14.782 14.782 0 0 0 1.281 2.018 12.832 12.832 0 0 0 1.561 1.709 10.435 10.435 0 0 0 1.756 1.259 8.852 8.852 0 0 0 1.775.758 8.12 8.12 0 0 0 .833.2c.134.024.263.052.39.071l.372.042a6.469 6.469 0 0 0 .675.044 5.036 5.036 0 0 0 .573 0 7.251 7.251 0 0 0 .8-.063l.282-.032-.283.021a7.284 7.284 0 0 1-.8.031 5.029 5.029 0 0 1-.57-.02 6.2 6.2 0 0 1-.667-.071l-.366-.055c-.124-.024-.25-.057-.381-.087a8.022 8.022 0 0 1-.809-.232 8.7 8.7 0 0 1-1.7-.811 10.163 10.163 0 0 1-1.654-1.292 12.435 12.435 0 0 1-1.444-1.717 14.342 14.342 0 0 1-1.159-2 17.7 17.7 0 0 1-.864-2.152 21.888 21.888 0 0 1-.588-2.168c-.078-.356-.14-.709-.206-1.054-.051-.347-.11-.685-.15-1.017-.084-.663-.14-1.293-.177-1.875l-.041-.836c-.013-.266-.008-.518-.012-.755-.009-.474.01-.882.011-1.219l.049-1.084z" class="prefix__cls-4" data-name="Path 10617" transform="translate(-32.333 -214.021)"/>
        <path id="prefix__Path_10618" d="M2161.2 2214.639l.122.329c.08.215.2.531.338.927.283.8.672 1.947 1.061 3.346a35.992 35.992 0 0 1 1.022 4.848 21.665 21.665 0 0 1 .2 2.774 11.393 11.393 0 0 1-.309 2.824 5.823 5.823 0 0 1-.488 1.319 3.866 3.866 0 0 1-.81 1.107 3.824 3.824 0 0 1-2.44 1.013 6.316 6.316 0 0 1-.663.022 5.642 5.642 0 0 1-.647-.063 4.664 4.664 0 0 1-1.207-.346 4.8 4.8 0 0 1-1.035-.6 5.739 5.739 0 0 1-.836-.753 8.251 8.251 0 0 1-1.15-1.614 11.338 11.338 0 0 1-.642-1.4 9.338 9.338 0 0 1-.4-1.283 9.3 9.3 0 0 0 .354 1.3 11.292 11.292 0 0 0 .6 1.426 8.367 8.367 0 0 0 1.113 1.677 5.966 5.966 0 0 0 .835.8 5.061 5.061 0 0 0 1.058.66 4.906 4.906 0 0 0 1.259.405 5.822 5.822 0 0 0 .681.089 6.815 6.815 0 0 0 .7 0 4.2 4.2 0 0 0 2.7-1.03 4.324 4.324 0 0 0 .939-1.195 6.335 6.335 0 0 0 .573-1.4 11.97 11.97 0 0 0 .424-2.951 22.236 22.236 0 0 0-.111-2.866 36.806 36.806 0 0 0-.879-4.986c-.349-1.44-.7-2.62-.968-3.446-.13-.416-.238-.733-.312-.95l-.112-.333z" class="prefix__cls-4" data-name="Path 10618" transform="translate(-201.482 -215.84)"/>
        <path id="prefix__Path_10619" d="M1962.533 2020.4s-.318.555-.842 1.531c-.26.489-.568 1.085-.876 1.785a14.224 14.224 0 0 0-.838 2.413 27.146 27.146 0 0 0-.438 3.028l-.067.418-.043.222-.052.2a8.361 8.361 0 0 1-.228.831 11.723 11.723 0 0 1-.689 1.668c-1.09 2.184-2.775 4.137-4.122 6.28a13.561 13.561 0 0 0-1.6 3.395 18.774 18.774 0 0 0-.583 3.61c-.1 1.191-.2 2.346-.384 3.432s-.4 2.1-.642 3.028a31 31 0 0 1-1.513 4.371c-.22.513-.407.91-.538 1.179l-.2.413.194-.416c.126-.271.307-.67.518-1.187a30.883 30.883 0 0 0 1.436-4.386c.229-.927.433-1.942.588-3.025s.244-2.232.324-3.426a19.033 19.033 0 0 1 .53-3.668 13.9 13.9 0 0 1 1.577-3.5c1.332-2.2 2.977-4.176 3.992-6.307a11.344 11.344 0 0 0 .629-1.594 8.157 8.157 0 0 0 .21-.818l.048-.2.033-.189.057-.4a27.391 27.391 0 0 1 .4-3.089 14.837 14.837 0 0 1 .83-2.529c.306-.728.611-1.342.866-1.843.516-1 .823-1.557.823-1.557z" class="prefix__cls-5" data-name="Path 10619" transform="translate(-36.242 -58.853)"/>
        <path id="prefix__Path_10620" d="M1963.386 2020.108l-.017.147c-.011.097-.018.231-.062.439a7.1 7.1 0 0 1-.5 1.643 14.537 14.537 0 0 1-1.272 2.264c-.275.413-.575.844-.887 1.3-.154.224-.319.462-.468.692l-.475.749-.245.386-.228.4-.469.823c-.289.577-.617 1.161-.895 1.79a40.009 40.009 0 0 0-1.622 4.011 79.348 79.348 0 0 0-2.47 9.105l-1 4.7a29.16 29.16 0 0 1-1.231 4.506c-.547 1.418-1.242 2.708-1.809 3.967a15.143 15.143 0 0 0-1.217 3.678 17.89 17.89 0 0 0-.265 3.274c0 .981.063 1.835.118 2.537.117 1.4.208 2.2.208 2.2s-.1-.8-.238-2.2c-.064-.7-.135-1.556-.152-2.539a17.986 17.986 0 0 1 .222-3.293 15.3 15.3 0 0 1 1.177-3.726c.553-1.272 1.229-2.569 1.751-3.979a28.959 28.959 0 0 0 1.16-4.485l.938-4.717a79.945 79.945 0 0 1 2.36-9.186 40.453 40.453 0 0 1 1.588-4.081c.273-.642.6-1.239.884-1.83l.471-.852.229-.415.24-.39.464-.755c.162-.258.317-.485.472-.717.308-.459.6-.889.863-1.3a13.89 13.89 0 0 0 1.188-2.177 6.486 6.486 0 0 0 .434-1.485c.036-.163.04-.323.053-.415s.015-.147.015-.147z" class="prefix__cls-5" data-name="Path 10620" transform="translate(-35.684 -58.827)"/>
        <path id="prefix__Path_10621" d="M1979.812 2019.623a16.449 16.449 0 0 1-1.575 6.444 26.763 26.763 0 0 1-4.256 5.17 10.886 10.886 0 0 0-3.188 5.786 40.209 40.209 0 0 1 .11-5.188 12.543 12.543 0 0 1 .663-3.4 12.327 12.327 0 0 1 1.882-3.108 36.628 36.628 0 0 1 6.719-6.665 8.222 8.222 0 0 1-.98 4.151z" class="prefix__cls-4" data-name="Path 10621" transform="translate(-53.926 -57.722)"/>
        <path id="prefix__Path_10622" d="M1926.28 1961.795c-4.456 6.7-.867 17.08 11.319 23.442s20.89 16.741 28.089 17.244c0 0 4.018 11.886-1.507 17.914s-13.718 3.853-15.068 1.172c0 0 2.679 6.863 11.719 4.52s7.032-8.036 11.887-12.556 2.177-8.731 3.349-12.151-1.507-7.6-1.674-11.791 0-9.71-5.19-17.746-8.2-15.738-14.566-20.426-16.909-6.027-24.276-.837a8.686 8.686 0 0 0-10.883 2.512c-4.855 5.859-6.194 10.547-9.208 14.063s-7.869 19.421-5.692 32.814 6.027 26.62 22.6 23.606c0 0-13.729-3.181-14.063-16.24s4.482-23.846 4.5-27.285 1.992-9.257 4.54-11.891 1.715-3.859 4.124-6.364z" class="prefix__cls-5" data-name="Path 10622"/>
        <path id="prefix__Path_10623" d="M2014.291 1971.85l-.061 2.037-.6-1.126.221 2.129a9.042 9.042 0 0 1-1.259-5.588 10.848 10.848 0 0 1 .589-1.58 6.03 6.03 0 0 0 .8-1.438c1.252-3.831 1.46-10.232 5.563-12.147a16.244 16.244 0 0 1 6.561-1.329c3-.08 6.125 1.6 8.349 2-2.109-.376-2.257.073-5.6-.458a8.45 8.45 0 0 1 4.905 2.338 19.709 19.709 0 0 0-7.729-1.788 14.967 14.967 0 0 1 8.913 5.638 18.477 18.477 0 0 0-13.78-3.837 10.4 10.4 0 0 1 6.941 2.677 9.839 9.839 0 0 0-5.911-1.207 22.229 22.229 0 0 1 8.932 6.978 37.625 37.625 0 0 0-10.161-4.816 5.1 5.1 0 0 1 2.281 1.553l-1.872-.54 1.531 1.327a9.826 9.826 0 0 0-2.88-.929 48.969 48.969 0 0 1 8.67 9.925 30.4 30.4 0 0 0-10.176-7.242 27.064 27.064 0 0 1 3.526 4.8 29.14 29.14 0 0 0-3.673-3.637c-.062.344.558 1.3.5 1.639l-1.767-1.544a13.944 13.944 0 0 0 1.713 5.89l-2.676-3.747 1.478 4.614a14.936 14.936 0 0 0 1.906 4.319c1.115 1.535 2.31 3.492 3.916 4.5-6.234-3.882-6.388-6.2-8.232-10.055l.451 3.114a7.739 7.739 0 0 0-1.369-2.47z" class="prefix__cls-4" data-name="Path 10623" transform="translate(-87.702 -4.489)"/>
        <g id="prefix__Group_3951" data-name="Group 3951" transform="translate(1918.454 1949.631)">
            <g id="prefix__Group_3950" data-name="Group 3950">
                <path id="prefix__Path_10624" d="M1990 1965.2c-.506 2.368-1.649 1.805-2.29 4.131-.212.771-.524 1.738-.9 2.766-2.1 2.332-1.417 3.558-3.873 6.1a14.907 14.907 0 0 0-2.662 4.271 5.149 5.149 0 0 0-.606 1.516c0 .013-.009.026-.014.039a3.488 3.488 0 0 1 .405-2.949q1.231-2.585 2.715-5.039a9.69 9.69 0 0 0-3.123 2.251 7.573 7.573 0 0 1 1.494-2.8l-.751.492a10.189 10.189 0 0 1 3.2-4.072c-1.814.274-3.169 1.755-4.365 3.146a8.6 8.6 0 0 1 5.094-5.06 5.625 5.625 0 0 0-3.315-.088 32.155 32.155 0 0 0 3.234-1.777l-1.7-.052a1.641 1.641 0 0 0 .582-.632l-.833.4.857-1.311a35.118 35.118 0 0 0-3.9 1.549 18.917 18.917 0 0 1 6.656-3.63 4.9 4.9 0 0 0-3.732-.771 11.306 11.306 0 0 1 2.893-1.044l-.809-.1a8.988 8.988 0 0 0 2.791-.161 5.131 5.131 0 0 0-3-1.264 9.917 9.917 0 0 1 3.773.223l-2.288-1.512a9.091 9.091 0 0 1 5.615.8 17 17 0 0 1 1.448-.914 12.681 12.681 0 0 0-1.311 1.278c-.99 1.247-.941 2.614-1.285 4.214z" class="prefix__cls-4" data-name="Path 10624" transform="translate(-1979.233 -1959.664)"/>
                <path id="prefix__Path_10625" d="M2013.616 2026.284c-.319.846-.677 1.721-1.061 2.56a10.823 10.823 0 0 1 1.061-2.56z" class="prefix__cls-4" data-name="Path 10625" transform="translate(-2006.166 -2013.51)"/>
            </g>
        </g>
        <g id="prefix__Group_3952" data-name="Group 3952" transform="translate(1963.208 1986.425)">
            <path id="prefix__Path_10626" d="M2212.942 2152.781a4.116 4.116 0 0 1-.3-1.221c.092.4.192.81.3 1.221z" class="prefix__cls-4" data-name="Path 10626" transform="translate(-2212.643 -2151.559)"/>
            <path id="prefix__Path_10627" d="M2222.372 2177.509l.754 1.421a23.575 23.575 0 0 0-1.426-4.741l1.249 1.621a23.617 23.617 0 0 0-3.381-6.384l2.166 2.181a22.864 22.864 0 0 0-4.449-5.78c-1.306-1.226-2.8-2.357-3.535-3.99l3.1 3.071a11.652 11.652 0 0 1-2.726-4.464l1.945 2.118a10.834 10.834 0 0 1-2.229-4.636 16.069 16.069 0 0 0 3.432 4.454 33.7 33.7 0 0 1 4.045 4.7 11.389 11.389 0 0 1 1.656 2.077 12.512 12.512 0 0 0-1.784-4.239 22.4 22.4 0 0 1 3.543 5.73l-.634-1.069a24.733 24.733 0 0 1 2.1 5.837c.087 2.6.206 5.48-3.038 8.5-.209.195-.4.392-.587.592a25.338 25.338 0 0 0-.201-6.999z" class="prefix__cls-4" data-name="Path 10627" transform="translate(-2213.538 -2156.706)"/>
        </g>
        <path id="prefix__Path_10628" d="M2107.219 2135.883a8.533 8.533 0 0 1-3.579-.538l2.506 1.131a1.3 1.3 0 0 1-.85-.147 37.549 37.549 0 0 0 8.566 3.827 28.91 28.91 0 0 1-5.823-1.016l3.532 1.948-1.615-.491a29.464 29.464 0 0 1 8.029 5.678l-4.8-2.205a18.347 18.347 0 0 1 4.181 3.964l-13.29-7.205a38.315 38.315 0 0 1-6.381-4.023 13.624 13.624 0 0 1-3.3-3.808c-1.157-2.128.863-1.1 2.013-.547a53.874 53.874 0 0 0 10.811 3.432z" class="prefix__cls-4" data-name="Path 10628" transform="translate(-153.58 -149.09)"/>
        <path id="prefix__Path_10629" d="M2110.28 1989.832a35.831 35.831 0 0 1 6.524 4.592 39.386 39.386 0 0 1 3.669 4.368c2.294 3.106 4.335 6.412 6.9 9.3a19.251 19.251 0 0 1-3.484-2.875l.463.51a4.616 4.616 0 0 1-1.123-.727 39.23 39.23 0 0 0 7.778 8.7 19.183 19.183 0 0 1-6.151-4.5l7.918 10.547-6.629-7.7.41.812a22.033 22.033 0 0 1-1.943-1.9l.215.552a60.645 60.645 0 0 1-8.915-9.645 12.475 12.475 0 0 1 3.944 2.7q-2.638-2.87-5.448-5.573a7.06 7.06 0 0 1 1.6.6 2.208 2.208 0 0 1-.229-.253l2.147 1.126-5.1-5.819a17.841 17.841 0 0 1 4.151 2.3q-2.05-1.891-3.929-3.958a2.841 2.841 0 0 1 1.171.5l-.765-.767a22.207 22.207 0 0 0-3.174-2.89z" class="prefix__cls-6" data-name="Path 10629" transform="translate(-166.699 -34.417)"/>
        <path id="prefix__Path_10630" d="M2136.875 1960.653l-5.22-3.005a6.3 6.3 0 0 1 1.892.258 12.074 12.074 0 0 1-1.782-1.032 13 13 0 0 1 4.932 2.138 19.321 19.321 0 0 1 5.606 5.189l-3.193-2.14.75.6a1.986 1.986 0 0 0-.951-.392 5.921 5.921 0 0 1 1.94 1.684 3.708 3.708 0 0 1-1.761-1.1c3.133 2.868 5.435 6.51 7.7 10.1l-5.243-5.034a59.318 59.318 0 0 1 8.709 10.992q-7.664-8.729-15.668-17.151l3.219 1.643a23.449 23.449 0 0 1-2.226-1.765l1.217.322-3.4-2.191a12.06 12.06 0 0 1 3.479.884z" class="prefix__cls-6" data-name="Path 10630" transform="translate(-183.976 -7.778)"/>
        <path id="prefix__Path_10631" d="M2085.553 1965q2.354 2.038 4.549 4.248a157.124 157.124 0 0 1 12.579 14.9 21.32 21.32 0 0 1 1.674 2.384 21.573 21.573 0 0 1 1.732 4.406q1.1 3.555 2.208 7.11a28.857 28.857 0 0 1-1.407-6.486c-.2-2.071-.277-4.386-1.762-5.844l1.2 1.085a32.679 32.679 0 0 0-3.152-4.2c-.235-.249-3.541-4.077-5.985-7.328a8.338 8.338 0 0 1 2.585 1.722l-2.9-2.545c-.136-.12-.286-.281-.236-.455s.4-.107.314.05l-4.258-3.877a1.835 1.835 0 0 1 1.026.706l-6.82-6.423a5.223 5.223 0 0 1 2.57.817 5.762 5.762 0 0 1-2.86-2.338c-.1-.133-.211-.317-.116-.456s.361.1.2.151a4.493 4.493 0 0 1-1.973-.8l.713.146a19.889 19.889 0 0 0-5.174-3.558 9.5 9.5 0 0 0-6.151-.673 1.033 1.033 0 0 0 .235 1.207c1.258 1.279 3.9 1.528 5.539 2.268a22.526 22.526 0 0 1 5.67 3.783z" class="prefix__cls-4" data-name="Path 10631" transform="translate(-137.377 -8.275)"/>
        <path id="prefix__Path_10632" d="M2083.664 2043.141q1.1.781 2.155 1.614a11.943 11.943 0 0 1-3.046-3.944 39.487 39.487 0 0 0 5.921 3.745 9.177 9.177 0 0 1-2.465-2.23l.7.353a10.966 10.966 0 0 1-1.56-1.4l1.435.673a4.1 4.1 0 0 1-2.029-1.609 4.468 4.468 0 0 1 1.432.793 15.81 15.81 0 0 1-3.707-4.165c1.51.972 2.958 2.027 4.372 3.132a17.343 17.343 0 0 1-1.414-1.4c3.165 1.831 5.58 5.333 7.733 8.181a6.888 6.888 0 0 0-2.49-2.015l1.051.993-1.245-.436 8.084 9.128a69.4 69.4 0 0 1-7.958-6.583q3.828 4.153 7.862 8.112c.123.121.257.3.171.448s-.367-.093-.2-.138l2.08 1.732a26.086 26.086 0 0 1-7.748-5.064 10.926 10.926 0 0 1 1.987 2.25l-2.913-2.272.915 1.478-2.223-1.405a4.459 4.459 0 0 1 1.319 2.249q-6.014-4.59-11.573-9.739a27.824 27.824 0 0 0 4.35 2.466 4.651 4.651 0 0 1-1.371-.738 1.489 1.489 0 0 1 1.171.559 27.562 27.562 0 0 1-5.372-6.145l6 4.017a14.2 14.2 0 0 1-4.362-4.583q1.5.925 2.934 1.945z" class="prefix__cls-6" data-name="Path 10632" transform="translate(-141.491 -72.518)"/>
        <path id="prefix__Path_10633" d="M2155.039 2224.117l.259.328c.176.214.408.527.694.923s.619.91.973 1.5a19.131 19.131 0 0 1 1.043 2.073 15.75 15.75 0 0 1 .849 2.6 12.024 12.024 0 0 1 .312 3.025c-.009.264-.034.529-.05.8s-.074.534-.11.8c-.043.248-.116.543-.176.812-.081.259-.145.522-.241.782a11.553 11.553 0 0 1-1.577 2.98 12.261 12.261 0 0 1-2.375 2.423 12.042 12.042 0 0 1-2.851 1.653 13.124 13.124 0 0 1-3 .81 14.4 14.4 0 0 1-2.788.135 14.73 14.73 0 0 1-2.347-.306 15.283 15.283 0 0 1-1.765-.481c-.479-.168-.852-.311-1.1-.424l-.384-.165.379.176c.245.12.615.273 1.09.456a15.212 15.212 0 0 0 1.759.532 14.684 14.684 0 0 0 5.187.316 13.453 13.453 0 0 0 3.077-.741 12.361 12.361 0 0 0 2.993-1.623 12.743 12.743 0 0 0 2.533-2.448 12.09 12.09 0 0 0 1.743-3.083c.109-.273.189-.564.285-.843.07-.283.142-.534.2-.836.047-.285.105-.567.141-.85s.06-.565.077-.845a12.808 12.808 0 0 0-.24-3.219 16.746 16.746 0 0 0-.819-2.769 20.324 20.324 0 0 0-1.034-2.205c-.354-.633-.686-1.169-.976-1.6s-.533-.772-.7-.983l-.25-.335z" class="prefix__cls-6" data-name="Path 10633" transform="translate(-191.05 -223.27)"/>
        <path id="prefix__Path_10634" d="M2155.935 2223.386l.356.274a9.264 9.264 0 0 1 .892.82 11.181 11.181 0 0 1 2.3 3.732 16.346 16.346 0 0 1 .807 2.878 22.056 22.056 0 0 1 .346 3.346 10.649 10.649 0 0 1-.4 3.515 6.873 6.873 0 0 1-.327.844 7.841 7.841 0 0 1-.431.792 9.765 9.765 0 0 1-1.131 1.456 19.4 19.4 0 0 1-2.852 2.407 24.3 24.3 0 0 1-3.1 1.9 15.552 15.552 0 0 1-3.167 1.208 11.477 11.477 0 0 1-3.012.37 10.493 10.493 0 0 1-2.548-.354 8.438 8.438 0 0 1-1.847-.738 7.912 7.912 0 0 1-1.076-.7l-.352-.289.345.3a7.854 7.854 0 0 0 1.061.731 8.444 8.444 0 0 0 1.842.792 10.624 10.624 0 0 0 2.57.426 11.659 11.659 0 0 0 3.075-.3 15.821 15.821 0 0 0 3.257-1.145 24.528 24.528 0 0 0 3.2-1.848 19.748 19.748 0 0 0 2.985-2.393 10.191 10.191 0 0 0 1.236-1.509 8.184 8.184 0 0 0 .5-.855 7.733 7.733 0 0 0 .374-.9 11.315 11.315 0 0 0 .525-3.723 22.388 22.388 0 0 0-.273-3.474 17.23 17.23 0 0 0-.776-3.048 12.118 12.118 0 0 0-2.4-4.1 10.11 10.11 0 0 0-.981-.945l-.359-.29z" class="prefix__cls-6" data-name="Path 10634" transform="translate(-191.043 -222.528)"/>
        <path id="prefix__Path_10635" d="M2165.773 2218.891l.131.381c.085.249.207.61.348 1.065s.3 1.026.461 1.678.32 1.4.456 2.214a31.29 31.29 0 0 1 .434 5.647 22.444 22.444 0 0 1-.909 6.408c-.087.259-.175.525-.278.773s-.209.521-.326.761a13.506 13.506 0 0 1-.777 1.438 14.242 14.242 0 0 1-1.992 2.491 13.77 13.77 0 0 1-2.344 1.859 12 12 0 0 1-2.411 1.183 8.374 8.374 0 0 1-2.222.464 5.808 5.808 0 0 1-1.745-.147 4.755 4.755 0 0 1-1.058-.4l-.346-.206.34.216a4.733 4.733 0 0 0 1.052.435 5.857 5.857 0 0 0 1.761.2 8.5 8.5 0 0 0 2.268-.406 12.163 12.163 0 0 0 2.486-1.13 14.134 14.134 0 0 0 2.447-1.829 14.646 14.646 0 0 0 2.119-2.5 14.034 14.034 0 0 0 .848-1.467c.134-.257.247-.514.357-.77s.215-.529.314-.8a18.4 18.4 0 0 0 .81-3.293 30.107 30.107 0 0 0 .316-3.26 32.09 32.09 0 0 0-.277-5.8c-.116-.845-.263-1.613-.4-2.292s-.3-1.263-.427-1.745-.246-.862-.327-1.108l-.12-.384z" class="prefix__cls-6" data-name="Path 10635" transform="translate(-201.384 -219.294)"/>
        <path id="prefix__Path_10636" d="M2184.99 2228.482l.285.272a10.778 10.778 0 0 1 .739.8 10.509 10.509 0 0 1 1.878 3.408 16.7 16.7 0 0 1 .75 5.492c0 .511-.021 1.031-.048 1.558a8.516 8.516 0 0 1-.178 1.573 16.005 16.005 0 0 1-1.062 3.063 8.968 8.968 0 0 1-.765 1.432 8.7 8.7 0 0 1-1.029 1.241 16.359 16.359 0 0 1-2.456 1.969 24.668 24.668 0 0 1-4.917 2.664 14.306 14.306 0 0 1-2.143.636 10.972 10.972 0 0 1-1.711.214 8.755 8.755 0 0 1-1.111-.015l-.393-.031.392.034a8.583 8.583 0 0 0 1.112.027 10.992 10.992 0 0 0 1.718-.2 14.509 14.509 0 0 0 2.157-.615 24.829 24.829 0 0 0 4.961-2.622 16.416 16.416 0 0 0 2.5-1.96 8.776 8.776 0 0 0 1.06-1.252 9 9 0 0 0 .8-1.45 16.131 16.131 0 0 0 1.1-3.093 8.668 8.668 0 0 0 .2-1.605c.031-.529.055-1.052.063-1.567a16.966 16.966 0 0 0-.714-5.588 10.82 10.82 0 0 0-1.9-3.524 11.123 11.123 0 0 0-.758-.841l-.282-.274z" class="prefix__cls-6" data-name="Path 10636" transform="translate(-217.254 -227.107)"/>
        <path id="prefix__Path_10637" d="M2166.581 2221.244l.783 1.246.348.681a8.385 8.385 0 0 1 .391.811l.389.954c.132.338.229.708.354 1.086a11.01 11.01 0 0 1 .309 1.2l.145.639c.032.219.064.443.1.668s.066.455.1.687.034.471.052.71.032.481.048.726 0 .492 0 .741 0 .5-.007.755q-.033.379-.064.762c-.025.256-.039.514-.073.771s-.085.514-.127.772a14.258 14.258 0 0 1-.332 1.547c-.107.521-.309 1.017-.467 1.526a6.968 6.968 0 0 1-.289.744l-.311.734c-.225.48-.486.941-.726 1.408-.286.44-.556.887-.849 1.309-.319.4-.616.819-.941 1.2a12.747 12.747 0 0 1-4.336 3.266 8.994 8.994 0 0 1-2.086.636l-.467.072-.439.029a6.8 6.8 0 0 1-.774 0 6.4 6.4 0 0 1-1.073-.155l-.375-.087.374.091a6.39 6.39 0 0 0 1.073.167 6.784 6.784 0 0 0 .776.009l.44-.025.47-.066a9.049 9.049 0 0 0 2.1-.618 12.832 12.832 0 0 0 4.4-3.241c.333-.38.635-.794.961-1.2.3-.422.576-.87.869-1.311.245-.468.514-.93.746-1.413l.321-.738a7.233 7.233 0 0 0 .3-.749c.164-.512.373-1.011.487-1.536a14.739 14.739 0 0 0 .351-1.56l.136-.78c.037-.26.054-.521.081-.78s.049-.516.074-.771l.015-.763c0-.253.016-.5.01-.751s-.028-.493-.041-.736-.023-.484-.046-.72-.063-.468-.094-.7l-.092-.679-.14-.651a11.191 11.191 0 0 0-.3-1.224c-.123-.386-.218-.764-.349-1.108l-.386-.976a8.794 8.794 0 0 0-.393-.837l-.353-.7-.771-1.255z" class="prefix__cls-6" data-name="Path 10637" transform="translate(-203.54 -221.31)"/>
        <path id="prefix__Path_10638" d="M2113.651 2150.568l.987.864c.34.241.74.56 1.227.88l.787.494c.276.175.588.323.9.5s.651.335 1 .5.712.337 1.091.493c.754.328 1.561.646 2.4.951l2.594.931c.882.317 1.778.639 2.657 1s1.757.721 2.593 1.134a21.222 21.222 0 0 1 2.372 1.357 17.474 17.474 0 0 1 3.633 3.191 18.51 18.51 0 0 1 2 2.8c.2.362.364.648.462.849l.156.305-.138-.313c-.089-.205-.228-.5-.421-.873a17.072 17.072 0 0 0-1.906-2.893 17.554 17.554 0 0 0-1.586-1.7 15.384 15.384 0 0 0-2.028-1.617 21.544 21.544 0 0 0-2.4-1.4c-.844-.425-1.72-.814-2.61-1.165s-1.791-.67-2.677-.981l-2.6-.908c-.839-.3-1.651-.593-2.407-.9-.382-.146-.746-.3-1.1-.463s-.692-.3-1.006-.471-.627-.306-.908-.468l-.8-.458c-.495-.3-.9-.6-1.252-.823z" class="prefix__cls-6" data-name="Path 10638" transform="translate(-169.424 -164.334)"/>
        <path id="prefix__Path_10639" d="M2083.408 2135.637l.265.225c.169.15.426.362.766.615s.763.547 1.262.862 1.077.65 1.728.976c1.292.668 2.85 1.34 4.523 2.033s3.434 1.474 5.149 2.356c1.724.863 3.416 1.792 4.993 2.683s3.066 1.7 4.292 2.457a16.647 16.647 0 0 1 1.613 1.127 9.278 9.278 0 0 1 1.107 1.036 8.466 8.466 0 0 1 .609.765l.191.289-.176-.3a7.091 7.091 0 0 0-.574-.8 9.218 9.218 0 0 0-1.074-1.09 14.009 14.009 0 0 0-1.59-1.192c-.607-.4-1.284-.8-2-1.229s-1.465-.875-2.252-1.325c-1.572-.9-3.26-1.852-4.986-2.731s-3.509-1.653-5.191-2.325-3.254-1.291-4.551-1.929a22.785 22.785 0 0 1-3.037-1.719l-.461-.323-.332-.252z" class="prefix__cls-6" data-name="Path 10639" transform="translate(-144.979 -152.265)"/>
        <path id="prefix__Path_10640" d="M2070.248 2122.2l5.286 2.409c1.585.722 3.422 1.591 5.377 2.547s4.013 2.03 6.023 3.185 3.981 2.378 5.758 3.631c.884.632 1.737 1.245 2.52 1.861s1.511 1.215 2.171 1.78 1.243 1.111 1.759 1.595.949.923 1.3 1.29.625.657.813.854l.285.305-.271-.317c-.179-.205-.429-.517-.777-.888s-.766-.826-1.26-1.336l-.8-.794-.916-.854a53.159 53.159 0 0 0-4.646-3.741c-1.776-1.269-3.744-2.523-5.76-3.685s-4.1-2.209-6.064-3.155-3.832-1.758-5.43-2.454-2.946-1.239-3.884-1.63z" class="prefix__cls-6" data-name="Path 10640" transform="translate(-134.343 -141.406)"/>
        <path id="prefix__Path_10641" d="M2028.5 2091.482c11.278 5.888 19.574 15.213 26.455 16.968a12.944 12.944 0 0 1 1.577.271l.058.006v.006c1.55.338 4.186.8 9.253-.232a24.207 24.207 0 0 1-7.087-1 19.986 19.986 0 0 0 2.371.167l-3.531-1.569a14.219 14.219 0 0 0 5.428.934 18.7 18.7 0 0 1-8.161-3.055 9.047 9.047 0 0 0 5.043 1.295c-7.384-1.489-13.681-7.165-19.71-11.681a5.09 5.09 0 0 0 1.021.991c-4.355-2.714-8.35-4.968-11.835-8.734a17.251 17.251 0 0 0 2.86 3.67l-4.513-3.293c.061.079.128.152.2.224l-2.259-1.648 1.271 1.6-3.1-2.88a23.6 23.6 0 0 0 4.73 6.663c-4.415-2.847-7.585-7.217-10.65-11.485a11.463 11.463 0 0 0 2.621 4.556 8.766 8.766 0 0 1-.86-.695 14.475 14.475 0 0 0-2.868-2.927c.3.228.453.941.785 1.255a12.952 12.952 0 0 1-1.1-1.239c1.827 4.308 5.801 8.591 12.001 11.832zm-8.828-8.932a8.789 8.789 0 0 1-.937-.994z" class="prefix__cls-6" data-name="Path 10641" transform="translate(-90.906 -106.245)"/>
        <path id="prefix__Path_10642" d="M2102.808 2074.72a6.388 6.388 0 0 1 1.927.837 35.826 35.826 0 0 1-3.314-3.563 1.141 1.141 0 0 1 .82.32l2.531 1.882-1.622-1.767a2.521 2.521 0 0 1 1.483.674l-.874-1.266a9.855 9.855 0 0 1 2.246 1.776l-1.586-1.175 4.783 4.891a13.354 13.354 0 0 1-2.831-1.756l1.644 1.685-1.35-.41a33.438 33.438 0 0 0 3.163 3.635 45.691 45.691 0 0 1-7.516-5.557 5.414 5.414 0 0 0 1.564 1.055 4.891 4.891 0 0 0-1.068-1.261z" class="prefix__cls-7" data-name="Path 10642" transform="translate(-159.539 -100.699)"/>
        <path id="prefix__Path_10643" d="M2145.936 2032.48l-2.424-2.155a15.1 15.1 0 0 1 1.919 1.976l-.917-.136 3.967 5.5a43.492 43.492 0 0 1-4.012-3.406l3.843 5.1a38.625 38.625 0 0 1-6.348-7.874l1.15.683a1.356 1.356 0 0 1-.543-.753l.811.175a20.552 20.552 0 0 1-2.977-4.266 28.8 28.8 0 0 0 2.37 1.986c-.071-.141-.688-1.47-.74-1.594 1.065.553 3.126 4.076 3.901 4.764z" class="prefix__cls-7" data-name="Path 10643" transform="translate(-191.049 -64.718)"/>
        <g id="prefix__Group_3953" data-name="Group 3953" transform="translate(1931.999 1968.496)">
            <path id="prefix__Path_10644" d="M2066.041 2063.382c-.217-.157-.426-.324-.632-.5-.366-.457-.726-.92-1.075-1.391z" class="prefix__cls-6" data-name="Path 10644" transform="translate(-2061.562 -2060.835)"/>
            <path id="prefix__Path_10645" d="M2049.874 2060.315q2.692 1.883 5.28 3.91a15.6 15.6 0 0 1-3.2-3.728l1.542 1.04-.983-.914a11.437 11.437 0 0 1 2.021 1.382 9.6 9.6 0 0 1-2.736-3.951 11.556 11.556 0 0 0 1.925 2.05 46.561 46.561 0 0 0 7.956 7.8l-4.292-2.456a9.718 9.718 0 0 1 2.1 1.615l-.692-.22a99.222 99.222 0 0 0 7.722 7.11c-4.086-2.228-8.227-4.5-11.58-7.721a21.209 21.209 0 0 1-5.063-5.917z" class="prefix__cls-6" data-name="Path 10645" transform="translate(-2049.874 -2058.055)"/>
        </g>
        <g id="prefix__Group_3954" data-name="Group 3954" transform="translate(1937.896 1982.859)">
            <path id="prefix__Path_10646" d="M2116.274 2145.467l-1.731-.973c-.152-.132-.3-.266-.456-.4z" class="prefix__cls-7" data-name="Path 10646" transform="translate(-2107.673 -2141.962)"/>
            <path id="prefix__Path_10647" d="M2081.894 2133.316l2.546 1.3a2.605 2.605 0 0 1-.485-.44 6.794 6.794 0 0 0 2.8 1.319 2.718 2.718 0 0 1-1.156-1.07l1.9 1.072q1.43 1.24 2.835 2.509l-3.07-1.435a17.4 17.4 0 0 1 2.982 2.314l-1.707-.651 2.08 1.451a.905.905 0 0 1-.7-.142 26.523 26.523 0 0 1-6.515-4.206c-.49-.475-.944-.989-1.468-1.427a13.583 13.583 0 0 0-1.3-.929 2.1 2.1 0 0 1 1.258.335z" class="prefix__cls-7" data-name="Path 10647" transform="translate(-2080.632 -2132.966)"/>
        </g>
        <path id="prefix__Path_10648" d="M2241.884 2152.105a157.013 157.013 0 0 0-7.559-14.644l3.046 2.808a10.44 10.44 0 0 1-2.6-3.739l.433.649a5.42 5.42 0 0 1-.9-2.06 18.768 18.768 0 0 1 2.55 2.76c-1.026-1.362-3.376-6.7-3.4-8.421a54.861 54.861 0 0 0 3.312 6.544c1.006 1.543 2.085 3.037 3.061 4.6a20.952 20.952 0 0 1 2.79 6.343 5.714 5.714 0 0 1-.292 1.707 9.387 9.387 0 0 0-.32 3.357z" class="prefix__cls-4" data-name="Path 10648" transform="translate(-266.253 -147.272)"/>
        <g id="prefix__Group_3955" data-name="Group 3955" transform="translate(1966.197 1966.967)">
            <path id="prefix__Path_10649" d="M2252.509 2129.574c.131.168.254.343.373.52a1.178 1.178 0 0 1-.373-.52z" class="prefix__cls-4" data-name="Path 10649" transform="translate(-2247.854 -2114.331)"/>
            <path id="prefix__Path_10650" d="M2245.171 2089.722l-.816-.733a1.672 1.672 0 0 1 .816.733z" class="prefix__cls-4" data-name="Path 10650" transform="translate(-2241.263 -2081.528)"/>
            <path id="prefix__Path_10651" d="M2234.057 2071.909l-.52-.815a1.129 1.129 0 0 1 .634.563l-.772-1.568 1.354 1.182a14.6 14.6 0 0 1-2.847-5.093 26.259 26.259 0 0 0 2.744 2.913 9.4 9.4 0 0 0-1.39-3.25 1.163 1.163 0 0 0 .33.2l-.194-.669 1.166 1.071-.793-1.331 1.538 1.689a29.65 29.65 0 0 0-4.562-8.316l2.16 2.1-.909-1.456a.762.762 0 0 1-.166-.5c.029-.177.262-.319.394-.2a1.58 1.58 0 0 0-.084-.155l.9.807a34.679 34.679 0 0 1-3.527-5.825c-.32-.669-1.383-2.283-1.27-3.013.01-.062.022-.112.034-.162.928 1.6 1.9 3.229 2.965 4.876 5.19 8.036 5.022 13.561 5.19 17.746.154 3.842 2.421 7.683 1.887 10.932a2.209 2.209 0 0 1-.64-.812 88.528 88.528 0 0 1-4.692-11.674z" class="prefix__cls-4" data-name="Path 10651" transform="translate(-2228.23 -2050.079)"/>
        </g>
        <g id="prefix__Group_3956" data-name="Group 3956" transform="translate(1971.463 1985.526)">
            <path id="prefix__Path_10652" d="M2259.169 2189.063a23.923 23.923 0 0 0-2.153-5.239l2.069 2.3-.514-1.35.517.8-.65-2.052c-.032-.1-.056-.226.024-.294a.07.07 0 0 1 .053-.015l-.551-1.125 1.187 1.44a40.769 40.769 0 0 0-3.454-6.235 18.556 18.556 0 0 0 3.506 3.787l-1.141-2.593.419.365q-.448-.964-.9-1.929l.707.744-1.52-3.339a10.219 10.219 0 0 0 2.723 3.316 19.987 19.987 0 0 1 1.093 5.538c0 .009 0 .019.007.028 0 .06-.007.119-.011.179 0 .033 0 .065-.006.1a5.552 5.552 0 0 1-.276 1.43 9.123 9.123 0 0 0-.323 3.25c.04.167.081.335.115.5.079 2.357.184 4.944-2.213 7.656a8.771 8.771 0 0 0-.02-5.926l.552.37-.741-1.8.728 1.3a19.522 19.522 0 0 0-1.935-5.575z" class="prefix__cls-1" data-name="Path 10652" transform="translate(-2255.697 -2169.065)"/>
            <path id="prefix__Path_10653" d="M2268.868 2157.844q-.253-.723-.5-1.445a.571.571 0 0 1 .448.011l-.4-1.036.388.707c.023.6.04 1.175.062 1.726l.002.037z" class="prefix__cls-1" data-name="Path 10653" transform="translate(-2265.935 -2153.745)"/>
            <path id="prefix__Path_10654" d="M2268.824 2146.872c.046.058.088.123.134.184.064.753.1 1.468.127 2.15a3.564 3.564 0 0 1-.261-2.334z" class="prefix__cls-1" data-name="Path 10654" transform="translate(-2266.216 -2146.872)"/>
            <path id="prefix__Path_10655" d="M2266.09 2164.277a5.852 5.852 0 0 0 .979 1.321 20.985 20.985 0 0 0 .734 3.6 44.982 44.982 0 0 1-1.713-4.921z" class="prefix__cls-1" data-name="Path 10655" transform="translate(-2264.097 -2160.94)"/>
        </g>
        <g id="prefix__Group_3957" data-name="Group 3957" transform="translate(1945.965 1989.93)">
            <path id="prefix__Path_10656" d="M2124.291 2170.883c-.526-.346-1.053-.691-1.578-1.04a9.677 9.677 0 0 1 1.578 1.04z" class="prefix__cls-7" data-name="Path 10656" transform="translate(-2122.713 -2169.843)"/>
            <path id="prefix__Path_10657" d="M2170.524 2200.013c-.229-.116-.457-.234-.68-.361a.894.894 0 0 1 .68.361z" class="prefix__cls-7" data-name="Path 10657" transform="translate(-2160.807 -2193.937)"/>
            <path id="prefix__Path_10658" d="M2131.813 2176.324a9.625 9.625 0 0 0-1.124-1.055q4.094 2.692 8.261 5.27a.823.823 0 0 0-.122-.233 15.455 15.455 0 0 0 2.668 1.055l-6.378-4.966a55.818 55.818 0 0 0 9.675 5.874l-2.956-2.509a2.075 2.075 0 0 0 1.489.542l-.8-.528a7.394 7.394 0 0 0 2.8.979 24.89 24.89 0 0 0 6.829 2.567 9.046 9.046 0 0 1-5.043-1.294 18.7 18.7 0 0 0 8.161 3.054 14.232 14.232 0 0 1-5.428-.934l3.531 1.569a20.05 20.05 0 0 1-2.371-.167 24.219 24.219 0 0 0 7.088 1c-5.068 1.036-7.7.57-9.253.232v-.007l-.058-.006a13.135 13.135 0 0 0-1.577-.27c-4.7-1.2-10.055-5.924-16.57-10.676.386.179.78.346 1.178.503z" class="prefix__cls-7" data-name="Path 10658" transform="translate(-2129.112 -2174.229)"/>
            <path id="prefix__Path_10659" d="M2190.353 2193.56a16.886 16.886 0 0 1-3.389-2.105c1.109.751 2.236 1.463 3.389 2.105z" class="prefix__cls-7" data-name="Path 10659" transform="translate(-2174.644 -2187.311)"/>
        </g>
        <path id="prefix__Path_10660" d="M2026.7 2097.347s.323.4.924 1.1 1.483 1.648 2.594 2.746 2.444 2.34 3.887 3.65a46.313 46.313 0 0 0 4.686 3.927 47.692 47.692 0 0 0 5.305 3.035 46.569 46.569 0 0 0 4.859 2.186c.732.269 1.411.5 2.021.669s1.147.3 1.591.4.8.156 1.039.189l.369.059-.368-.062c-.241-.036-.591-.107-1.036-.2s-.979-.233-1.586-.416-1.282-.412-2.01-.688a46.29 46.29 0 0 1-4.828-2.232 47.452 47.452 0 0 1-5.256-3.079 46.065 46.065 0 0 1-4.626-3.959c-1.429-1.324-2.749-2.573-3.841-3.682s-1.962-2.068-2.55-2.756-.907-1.1-.907-1.1z" class="prefix__cls-6" data-name="Path 10660" transform="translate(-99.143 -121.14)"/>
        <path id="prefix__Path_10661" d="M2164.973 2194.832l-1.07.186a12.19 12.19 0 0 1-2.833.183 11.457 11.457 0 0 1-1.867-.306c-.326-.079-.664-.172-1-.27l-1.042-.321-1.058-.366-1.07-.416-1.071-.465-1.059-.51-1.044-.542-1.015-.577-.976-.606-.931-.626-.879-.636-.824-.634c-.524-.426-1.018-.833-1.451-1.234s-.824-.775-1.176-1.1l-.866-.893-.731-.8.68.847.824.938c.335.345.7.754 1.136 1.155.424.416.909.841 1.424 1.287l.812.664.878.655.934.642.981.622 1.019.594 1.051.558 1.077.505 1.086.459 1.086.41 1.077.361 1.047.3c.352.092.689.173 1.025.245a11.657 11.657 0 0 0 1.912.255 8.646 8.646 0 0 0 1.625-.088c.479-.066.892-.15 1.23-.223.678-.151 1.059-.253 1.059-.253z" class="prefix__cls-7" data-name="Path 10661" transform="translate(-193.155 -192.078)"/>
        <path id="prefix__Path_10662" d="M2071.768 2139.764l.229.284c.155.182.357.462.661.795l.492.557.6.63c.436.443.941.93 1.513 1.438s1.21 1.036 1.9 1.576 1.436 1.082 2.224 1.619c1.567 1.087 3.3 2.156 5.031 3.21s3.474 2.107 5.165 2.989c.843.445 1.679.833 2.479 1.182a23.693 23.693 0 0 0 2.312.844 18.358 18.358 0 0 0 2.018.5 15.206 15.206 0 0 0 1.588.21c.442.048.792.042 1.03.048l.365.006-.365-.01c-.238-.008-.587-.007-1.029-.059a15.007 15.007 0 0 1-1.583-.227 18.364 18.364 0 0 1-2.008-.522 23.723 23.723 0 0 1-2.3-.867c-.795-.356-1.624-.753-2.46-1.205-1.677-.9-3.4-1.969-5.125-3.039s-3.438-2.158-4.987-3.257c-.78-.543-1.509-1.1-2.2-1.634s-1.308-1.072-1.867-1.583-1.056-1-1.483-1.439l-.589-.629-.476-.551c-.292-.326-.5-.615-.648-.8l-.227-.286z" class="prefix__cls-6" data-name="Path 10662" transform="translate(-135.571 -155.427)"/>
        <path id="prefix__Path_10663" d="M2079.256 2144.339l.253.158c.165.1.412.251.709.453.6.393 1.454.988 2.44 1.746s2.116 1.674 3.335 2.648 2.537 2 3.934 2.909c.693.459 1.413.887 2.128 1.285s1.44.758 2.146 1.091 1.4.621 2.072.877 1.308.478 1.9.667 1.146.344 1.636.473.921.23 1.277.307.636.131.827.17l.293.058-.292-.062c-.19-.042-.472-.094-.825-.182s-.782-.19-1.271-.323-1.036-.3-1.628-.494-1.227-.424-1.889-.69-1.353-.567-2.056-.9-1.417-.7-2.123-1.114-1.416-.838-2.1-1.307c-1.376-.925-2.675-1.962-3.88-2.949s-2.322-1.922-3.305-2.694-1.827-1.384-2.437-1.793c-.3-.21-.545-.358-.708-.464l-.252-.161z" class="prefix__cls-6" data-name="Path 10663" transform="translate(-141.624 -159.063)"/>
        <g id="prefix__Group_3958" data-name="Group 3958" transform="translate(1906.276 1962.401)">
            <path id="prefix__Path_10664" d="M1971.225 2027.853a5.7 5.7 0 0 1 .771-1.586z" class="prefix__cls-6" data-name="Path 10664" transform="translate(-1960.582 -2026.267)"/>
            <path id="prefix__Path_10665" d="M1937.93 2085.563l-.148.086c-.146-.049.039-.12.148-.086z" class="prefix__cls-6" data-name="Path 10665" transform="translate(-1933.508 -2074.187)"/>
            <path id="prefix__Path_10666" d="M1916.651 2053.25a2.585 2.585 0 0 1-.933 1.772 73.237 73.237 0 0 1 4.049-10.066c.1-.206.384-.284.44-.509a.089.089 0 0 0-.067-.118l.8-.465a39.675 39.675 0 0 1 3.466-6.339 7.2 7.2 0 0 0-1.258 3.617l3.211-6.6a5.817 5.817 0 0 0-.237 1.186l1.045-.75a8.2 8.2 0 0 0-1.082 3.108.1.1 0 0 1 .1.009c.179.123.13.405.06.616l-1.055 3.181a8 8 0 0 0 2.212-3.09 18.752 18.752 0 0 0-1.252 4.223c.344-.579.643-1.189.98-1.772.224 4.046-1.537 8.16-2.211 12.116a8.182 8.182 0 0 1-.323-2.285 13.046 13.046 0 0 0-.322 3.093 6.491 6.491 0 0 1-.657-3.155l-1.117 11.491a7.239 7.239 0 0 0-.462-3.188l-.356 3.024-.447-1.506a24.084 24.084 0 0 1-.379 5.737l-.406-1.606-.49 7.961a39.8 39.8 0 0 1-1.648-9.281l-.417 2.182a5.761 5.761 0 0 0-.309-2.709l-.674 2.338c.072-.607.572-4.426.326-4.982a16 16 0 0 0-.893 2.661 16.3 16.3 0 0 1 .676-6.5l-.963 1.644c-.032-1.088.627-3.951.593-5.038z" class="prefix__cls-6" data-name="Path 10666" transform="translate(-1915.718 -2032.952)"/>
        </g>
        <g id="prefix__Group_3959" data-name="Group 3959" transform="translate(1905.975 2001.268)">
            <path id="prefix__Path_10667" d="M1916.77 2232.956a35.526 35.526 0 0 1-.747-3.983 23.744 23.744 0 0 1 .747 3.983z" class="prefix__cls-4" data-name="Path 10667" transform="translate(-1915.664 -2228.973)"/>
            <path id="prefix__Path_10668" d="M1914.154 2251.563a2.062 2.062 0 0 0 .178-1.331 1.731 1.731 0 0 0 .478.7l.035-1.135a1.821 1.821 0 0 1 .49.923q-.029-.488-.077-.973a35.786 35.786 0 0 0 2.939 7.884 27.871 27.871 0 0 1-.9-6.093 13.62 13.62 0 0 0 2.172 5.214l-.16-2 .577 1.069v-1.622l1.236 4.445c-.578-2.081-.079-5.062.164-7.291 0 .159 0 .316.007.476.335 13.059 14.063 16.24 14.063 16.24-13.6 2.474-18.635-5.994-21.206-16.514z" class="prefix__cls-4" data-name="Path 10668" transform="translate(-1914.152 -2245.763)"/>
        </g>
        <path id="prefix__Path_10669" d="M1953.549 2293.312a1.825 1.825 0 0 0 .02.5 5.732 5.732 0 0 0 .122.561c.061.21.142.443.243.694a6.265 6.265 0 0 0 .4.773c.154.267.349.53.544.8a16.48 16.48 0 0 0 1.409 1.586c.508.518 1.037 1.025 1.525 1.5s.957.906 1.381 1.249.787.616 1.056.79l.422.272-.12-.053c-.078-.036-.195-.085-.336-.161a9.6 9.6 0 0 1-1.14-.694 17.165 17.165 0 0 1-1.469-1.18c-.513-.459-1.042-.962-1.563-1.482-.258-.263-.509-.533-.748-.808s-.456-.562-.661-.842a7.034 7.034 0 0 1-.876-1.687c-.043-.133-.081-.261-.115-.383l-.072-.356c-.03-.22-.058-.415-.063-.578a1.583 1.583 0 0 1 .041-.501z" class="prefix__cls-1" data-name="Path 10669" transform="translate(-39.98 -279.708)"/>
        <path id="prefix__Path_10670" d="M1937.679 2291.555l.235.356.6.944c.241.4.542.844.853 1.33s.66.991 1.023 1.484c.184.244.362.494.555.725s.377.461.565.678.375.421.561.607.359.365.533.516.327.3.472.414.268.228.378.306l.336.26-.374-.2c-.12-.065-.259-.154-.417-.258a4.825 4.825 0 0 1-.52-.37c-.188-.139-.38-.3-.582-.481s-.406-.374-.61-.584-.409-.434-.6-.674-.385-.485-.575-.731-.36-.508-.526-.766-.322-.514-.476-.761c-.3-.5-.548-.982-.763-1.394s-.375-.765-.494-1.008z" class="prefix__cls-1" data-name="Path 10670" transform="translate(-27.192 -278.287)"/>
        <path id="prefix__Path_10671" d="M1937.1 2296.249l.145.265c.09.165.222.406.385.688l.265.452c.093.161.2.323.307.5.22.339.46.7.715 1.044s.522.685.778 1c.133.15.254.305.38.442l.35.39c.22.239.4.442.54.575s.208.219.208.219-.093-.058-.251-.167-.383-.269-.633-.484a9.257 9.257 0 0 1-.821-.775c-.138-.153-.288-.307-.422-.478s-.272-.343-.407-.517a11.782 11.782 0 0 1-.7-1.093 9.438 9.438 0 0 1-.49-1.017c-.128-.3-.209-.569-.268-.75s-.081-.294-.081-.294z" class="prefix__cls-1" data-name="Path 10671" transform="translate(-26.725 -282.081)"/>
        <path id="prefix__Path_10672" d="M1939.395 2095.234l-.116-4.649a6.839 6.839 0 0 1-.521 1.391l-.138-1.038-.838 3.087a44.981 44.981 0 0 1 1.09-8.036c-.352.448-.607 1.014-1 1.63a15.991 15.991 0 0 1 .631-3.806c-.146.342-.47.925-.771 1.532 1.2-3.063 2.289-6.779 3.486-9.842a8.8 8.8 0 0 0-.76 3.049 2.864 2.864 0 0 0 1-2.023l-.21.743a4.7 4.7 0 0 1 1.3-2.355l-1.2 5.406a16.393 16.393 0 0 1 1.147-3.08c-.007.391-.013.791-.018 1.183.045-.2.188-.419.254-.619.316.072.529-.22.654-.64-.316 1.661-.911 3.313-1.33 4.945-.022-.345-.134-.708-.167-1.05a42.236 42.236 0 0 0-2.493 14.172z" class="prefix__cls-7" data-name="Path 10672" transform="translate(-27.238 -103.186)"/>
        <path id="prefix__Path_10673" d="M1905.271 2051.2c.857-9.537 3.882-18.128 6-20.6a29.422 29.422 0 0 0 3.185-4.853c-.139 1.815-2.107 4.515-2.578 5.844l.384-1.083a17.328 17.328 0 0 0-1.518 2.933l.252-.367a13.069 13.069 0 0 0-2 5.908l.018-1.435-.85 2.043c-.036.087-.1.186-.191.18q-1.602 5.655-2.702 11.43z" class="prefix__cls-4" data-name="Path 10673" transform="translate(-.998 -63.448)"/>
        <g id="prefix__Group_3960" data-name="Group 3960" transform="translate(1907.983 1974.023)">
            <path id="prefix__Path_10674" d="M1935.861 2098.367a1.214 1.214 0 0 1 .219-.4l-.219.4z" class="prefix__cls-7" data-name="Path 10674" transform="translate(-1933.706 -2095.84)"/>
            <path id="prefix__Path_10675" d="M1938.4 2099.4l.074-.3q.177-.537.374-1.067z" class="prefix__cls-7" data-name="Path 10675" transform="translate(-1935.759 -2095.89)"/>
            <path id="prefix__Path_10676" d="M1924.621 2094a10.054 10.054 0 0 1 1.171-2.786l.984-1.807a1.253 1.253 0 0 0-.038.732 8.085 8.085 0 0 1 1.38-3.259l-.781 3.2a29.355 29.355 0 0 0-.9 3.381l.028-1.142a15.3 15.3 0 0 0-1.175 5.709 15.784 15.784 0 0 1-.023-3.075l-.5 1.119c-.032-.818-.021-1.637.028-2.456a.725.725 0 0 1-.174.384z" class="prefix__cls-7" data-name="Path 10676" transform="translate(-1924.621 -2086.879)"/>
        </g>
        <path id="prefix__Path_10677" d="M1946.424 2009.88a1.343 1.343 0 0 1-.353.676l-.026-.267a5.766 5.766 0 0 0-.585.7l.073-.368-3.05 5.169a7.734 7.734 0 0 0-.989 2.156q1.262-3.193 2.365-6.447a3.544 3.544 0 0 1-.454.8 18.841 18.841 0 0 1 2.784-4.487c-.22.223-.43.535-.316.827l2.5-2.523c-.279.465-.575.926-.833 1.4.785-.472.49.314.268.731a26.594 26.594 0 0 1-1.56 2.327 1.727 1.727 0 0 0 .176-.694z" class="prefix__cls-6" data-name="Path 10677" transform="translate(-30.276 -47.578)"/>
        <path id="prefix__Path_10678" d="M1916.075 2195.939l-1.089-2.993-.041.928a2.033 2.033 0 0 0-.174-.646 9.36 9.36 0 0 0 .639 3.441 18.321 18.321 0 0 1-2.079-6.937l-.075 1.775a36.988 36.988 0 0 1-.449-8.712q.4 2.58 1.009 5.123l-.036-1.38.151.8.145-.745a3.646 3.646 0 0 0 .514 2.153c0-.111.036-.229.031-.342.316 1.105.3 2.412.506 3.563a37.7 37.7 0 0 0 .948 3.972z" class="prefix__cls-6" data-name="Path 10678" transform="translate(-7.023 -190.382)"/>
        <path id="prefix__Path_10679" fill="#9d744f" d="M2156.369 2137.188a19.178 19.178 0 0 1 3.131 1.392 9.094 9.094 0 0 1-2.307-1.967l2.96 1.47-1.914-.794q2.594 1.8 5.342 3.369l-1.783-.761 1.172.9-.813-.307 4.783 4.293q-4.486-2.42-8.8-5.146l1.251.493-.918-.771a7.688 7.688 0 0 1 .974.3 11.3 11.3 0 0 1-3.078-2.471z" data-name="Path 10679" opacity="0.5" transform="translate(-203.951 -153.054)"/>
        <g id="prefix__Group_3961" data-name="Group 3961" opacity="0.5" transform="translate(1954.813 1976.82)">
            <path id="prefix__Path_10680" d="M2186.052 2114.8c-.146-.186-.29-.374-.439-.558l-.088-.133z" class="prefix__cls-6" data-name="Path 10680" transform="translate(-2182.33 -2111.688)"/>
            <path id="prefix__Path_10681" d="M2168.861 2101.466a20.778 20.778 0 0 1 2.976 3.4l-1.659-3.172q1.01 1.143 1.966 2.331 2.343 3.628 4.822 7.165l-1.747-1.931.671.953-.8-.717a49.952 49.952 0 0 0 2.347 4.7 31.1 31.1 0 0 1-3.995-4.737l.717.666-1.279-3.038.853.785a30.554 30.554 0 0 1-4.872-6.405z" class="prefix__cls-6" data-name="Path 10681" transform="translate(-2168.861 -2101.466)"/>
        </g>
        <g id="prefix__Group_3962" data-name="Group 3962" transform="translate(1929.386 1954.627)">
            <path id="prefix__Path_10682" d="M2074.479 1989.842l-1.157-.847q.583.416 1.157.847z" class="prefix__cls-4" data-name="Path 10682" transform="translate(-2066.213 -1988.367)"/>
            <path id="prefix__Path_10683" d="M2080.329 1994.124l-.216-.132c-.251-.194-.5-.389-.756-.579z" class="prefix__cls-4" data-name="Path 10683" transform="translate(-2071.093 -1991.938)"/>
            <path id="prefix__Path_10684" d="M2036.28 1987.475a1.48 1.48 0 0 1 .465-.676 5 5 0 0 1 4.47-.917 14.014 14.014 0 0 1 4.054 1.893 59.817 59.817 0 0 1 6.42 5.76 15.929 15.929 0 0 0-2.751-1.955l1.1.768-.825-.351 2.962 3.441a29.714 29.714 0 0 0-7.421-5.154 8.963 8.963 0 0 1 2.379 1.831l-1.99-1.137 1.091 1.024-.906-.41 2.107 1.792-5.216-3.2a26.736 26.736 0 0 1 3.025 2.91 17.624 17.624 0 0 0-3.012-2.132l1.64 1.846a19.993 19.993 0 0 0-5.847-3.463 4.274 4.274 0 0 1-1.258-.627 1.269 1.269 0 0 1-.487-1.243z" class="prefix__cls-4" data-name="Path 10684" transform="translate(-2036.249 -1985.721)"/>
        </g>
        <g id="prefix__Group_3963" data-name="Group 3963" transform="translate(1927.769 1949.278)">
            <path id="prefix__Path_10685" d="M2027.816 2010.765a1.09 1.09 0 0 1 .068.273l-.068-.273z" class="prefix__cls-1" data-name="Path 10685" transform="translate(-2027.816 -2000.614)"/>
            <path id="prefix__Path_10686" d="M2049.752 1957.826h.01a9.915 9.915 0 0 1-.937.42c.037-.028.075-.054.113-.08q.405-.187.814-.34z" class="prefix__cls-1" data-name="Path 10686" transform="translate(-2044.796 -1957.824)"/>
        </g>
        <g id="prefix__Group_3964" data-name="Group 3964" transform="translate(1923.924 1949.698)">
            <path id="prefix__Path_10687" d="M2013.977 1997.988c-.227.179-.453.359-.671.548a1.6 1.6 0 0 1 .671-.548z" class="prefix__cls-1" data-name="Path 10687" transform="translate(-2012.243 -1990.707)"/>
            <path id="prefix__Path_10688" d="M2014.894 2005.3c-.027.116-.058.231-.09.346l-.277.363a1.023 1.023 0 0 1 .367-.709z" class="prefix__cls-1" data-name="Path 10688" transform="translate(-2013.229 -1996.619)"/>
            <path id="prefix__Path_10689" d="M2010.713 1966.179a2.894 2.894 0 0 1-.437.535c-.265.188-.526.381-.78.582a1.514 1.514 0 0 1 .25-.088 7.643 7.643 0 0 1-1.307 1.675 4.6 4.6 0 0 0 1.8-1.019l-.9 1.181a7.924 7.924 0 0 1-.475 1.275c-.047.1-.123.21-.229.207a3.106 3.106 0 0 1-.3 1.326l1.281-1.175a10.907 10.907 0 0 1-.88 1.938l1.349-.833c.282-.8.519-1.552.689-2.171-.2.9-.409 1.75-.655 2.5-.008.025-.02.046-.029.071a1.328 1.328 0 0 1 .455.9 2.625 2.625 0 0 0 .434-1.9l.571.673a1.9 1.9 0 0 0-.145-1.064 5.636 5.636 0 0 0-.175-1.561 1.137 1.137 0 0 1 .378.511l-.379-1.495c.538.745 1.206.749 1.743 1.495a4.813 4.813 0 0 0-.616-2.622 12.69 12.69 0 0 1 1.858.957l-.166-.473c.514.369 1.544.4 2.057.765-.2-.634-2.112-1.583-2.619-2.01.315.246.975-.057 1.291.188-.086-.712 2.352.723 1.829.233l1.3.5a8.41 8.41 0 0 0-1.437-1.189 5.144 5.144 0 0 1 2.136 1.249 5.152 5.152 0 0 0-1.887-1.852l2.749 1.155c-.685-.56-1.868-1.456-2.552-2.015 2.318.938-.666-.663.025-.449-.484-.281-1.55-.7-2.033-.982a5.6 5.6 0 0 0 2.009.185 15.813 15.813 0 0 0-3.3-1.358c0-.016 0-.033.008-.049a13.8 13.8 0 0 1 2.939-.142 18.834 18.834 0 0 1-1.945-.9 2.011 2.011 0 0 1 1.357-.657.934.934 0 0 0-.826.1c.182-.122.338-.248.495-.364l-.243.1a5.7 5.7 0 0 0-1.668 1.4 1.482 1.482 0 0 1 .3-.542l.1-.108a8.3 8.3 0 0 0-1.343-.52c.189.167.4.325.548.458a6.065 6.065 0 0 1-.618-.058.957.957 0 0 1 .373.766c-.11-.045-.258-.063-.329.031-.046.061.007.147.065.175l-1.322.384a2.283 2.283 0 0 1 1.07.359l-1.923-.11 1.873.691-1.016-.047a1.686 1.686 0 0 0 .556.392l-.818.04a.649.649 0 0 1 .412.322 1.887 1.887 0 0 0-1.356.61l1.151-.046a2.183 2.183 0 0 0-1.495.808l1.462-.111-3.66 1.921a6.053 6.053 0 0 0 2.95-.748zm.426 4.182a.864.864 0 0 1 .194.291 1.825 1.825 0 0 0-.194-.291zm-.928-3.59a2.9 2.9 0 0 1-.469.352z" class="prefix__cls-1" data-name="Path 10689" transform="translate(-2007.761 -1960.015)"/>
            <path id="prefix__Path_10690" d="M2011.945 2013.847v.182h-.011c-.115-.01-.085-.242.011-.182z" class="prefix__cls-1" data-name="Path 10690" transform="translate(-2011.073 -2003.517)"/>
        </g>
    </g>
</svg>
