<svg xmlns="http://www.w3.org/2000/svg" width="86" height="65.577" viewBox="0 0 86 65.577">
    <defs>
        <style>
            .prefix__cls-1{fill:#251f12}.prefix__cls-3{fill:#55463f}
        </style>
    </defs>
    <g id="prefix__Group_3187" data-name="Group 3187" transform="translate(-2713.59 -2249.523)">
        <path id="prefix__Path_4367" d="M2860.913 2282.489l-.128-.147a4.625 4.625 0 0 0-.361-.392 12.113 12.113 0 0 0-1.452-1.215 17.821 17.821 0 0 0-5.415-2.668 13.259 13.259 0 0 0-1.64-.359 11.213 11.213 0 0 0-1.628-.159c-.532-.034-1.045.04-1.536.052l-1.357.239-1.106.354a6.143 6.143 0 0 0-.815.357l-.7.336.676-.376a6.058 6.058 0 0 1 .794-.407l1.1-.424 1.37-.324c.5-.042 1.027-.149 1.577-.146a11.8 11.8 0 0 1 1.7.066 13.951 13.951 0 0 1 1.733.275 18.945 18.945 0 0 1 5.863 2.462 13.085 13.085 0 0 1 1.7 1.257 5.4 5.4 0 0 1 .416.4l.138.14z" class="prefix__cls-1" data-name="Path 4367" transform="translate(-107.922 -22.775)"/>
        <path id="prefix__Path_4368" d="M2956.671 2257.05l-.128-.147a4.563 4.563 0 0 0-.362-.392 12.07 12.07 0 0 0-1.452-1.215 17.822 17.822 0 0 0-5.415-2.668 13.212 13.212 0 0 0-1.64-.359 11.241 11.241 0 0 0-1.628-.159c-.533-.034-1.045.04-1.536.052l-1.358.239-1.106.354a6.156 6.156 0 0 0-.815.357l-.7.336.676-.376a6.136 6.136 0 0 1 .794-.407l1.1-.424 1.37-.324c.5-.042 1.027-.149 1.578-.146a11.761 11.761 0 0 1 1.7.066 13.947 13.947 0 0 1 1.733.275 18.946 18.946 0 0 1 5.863 2.462 12.971 12.971 0 0 1 1.7 1.257 5.355 5.355 0 0 1 .416.4l.138.139z" class="prefix__cls-1" data-name="Path 4368" transform="translate(-186.701 -1.847)"/>
        <path id="prefix__Path_4369" d="M2957.211 2256.2l-.1-.162a4.321 4.321 0 0 0-.294-.435 11.519 11.519 0 0 0-1.239-1.392 17.115 17.115 0 0 0-4.924-3.348 12.948 12.948 0 0 0-1.564-.57 11.058 11.058 0 0 0-1.585-.371c-.521-.1-1.04-.1-1.528-.15l-1.382.059-1.152.205a6.346 6.346 0 0 0-.864.247l-.749.241.73-.284a6.364 6.364 0 0 1 .852-.3l1.153-.276 1.408-.142c.5.023 1.04-.012 1.585.062a11.671 11.671 0 0 1 1.67.289 13.7 13.7 0 0 1 1.67.5 18.255 18.255 0 0 1 5.4 3.2 12.516 12.516 0 0 1 1.479 1.466 5.137 5.137 0 0 1 .347.447l.114.156z" class="prefix__cls-1" data-name="Path 4369" transform="translate(-187.767)"/>
        <path id="prefix__Path_4370" d="M2749.555 2353.21l-.3-.069a2.794 2.794 0 0 1-.374-.1 3.545 3.545 0 0 1-.515-.2 3.256 3.256 0 0 1-1.05-.762 2.4 2.4 0 0 1-.37-.606 1.669 1.669 0 0 1-.142-.691 1.845 1.845 0 0 1 .111-.675 2.169 2.169 0 0 1 .311-.575 3.343 3.343 0 0 1 .836-.782 4.707 4.707 0 0 1 .714-.385l.279-.126-.252.165a4.346 4.346 0 0 0-.618.472 2.914 2.914 0 0 0-.628.819 1.723 1.723 0 0 0-.17.513 1.384 1.384 0 0 0 .012.527 1.8 1.8 0 0 0 1.367 1.272 2.554 2.554 0 0 0 .358.078 2.082 2.082 0 0 0 .322.038l.311.023z" class="prefix__cls-1" data-name="Path 4370" transform="translate(-27.32 -81.214)"/>
        <path id="prefix__Path_4371" d="M2751.419 2345.4l-.675.155a17.982 17.982 0 0 1-1.861.332 9.745 9.745 0 0 1-2.728.021 4.136 4.136 0 0 1-1.507-.5 2.519 2.519 0 0 1-1.063-1.176 2.658 2.658 0 0 1-.151-1.462 3.081 3.081 0 0 1 .574-1.289 4.8 4.8 0 0 1 2.058-1.491 8.043 8.043 0 0 1 1.775-.462l.694-.073-.684.118a7.793 7.793 0 0 0-1.7.568 4.425 4.425 0 0 0-1.819 1.52 2.662 2.662 0 0 0-.412 1.164 2.246 2.246 0 0 0 .22 1.2 2.5 2.5 0 0 0 2.132 1.16 8.746 8.746 0 0 0 2.438-.187 16.389 16.389 0 0 0 1.712-.425l.661-.2z" class="prefix__cls-1" data-name="Path 4371" transform="translate(-24.518 -73.977)"/>
        <path id="prefix__Path_4372" d="M2740.813 2378.083l-.676.155a17.916 17.916 0 0 1-1.861.332 9.744 9.744 0 0 1-2.728.021 4.133 4.133 0 0 1-1.507-.5 2.519 2.519 0 0 1-1.064-1.176 2.658 2.658 0 0 1-.151-1.462 3.087 3.087 0 0 1 .573-1.29 4.8 4.8 0 0 1 2.058-1.491 8.032 8.032 0 0 1 1.776-.463l.693-.073-.684.118a7.84 7.84 0 0 0-1.7.568 4.425 4.425 0 0 0-1.819 1.52 2.671 2.671 0 0 0-.412 1.163 2.251 2.251 0 0 0 .22 1.2 2.5 2.5 0 0 0 2.133 1.16 8.793 8.793 0 0 0 2.438-.186 16.44 16.44 0 0 0 1.712-.426l.661-.2z" class="prefix__cls-1" data-name="Path 4372" transform="translate(-15.792 -100.867)"/>
        <path id="prefix__Path_4373" d="M2718.146 2280.9c-1.119-3-.454-5.752 7.25-13.733s15.5-7 15.5-7c6.4-7.668 24.087-4.559 24.087-4.559 6.528-1.751 13.636-.759 20.137 5.44 7.112 6.782 7.14 17.457.227 23.275-1.2.431-2.888-.59-4.3-1.543s-3.235-.9-5.774.442-5.447.75-9.337 2.756-7.124 1.6-10.485.206a10.476 10.476 0 0 0-8.373.448c-3.663 2.07-7.008 2.14-8.774 1.609s-5.289-1.739-14 3.987c-1.428.94-2.675 1.687-3.765 2.259-3.987 2.107-3.15 4.075-3.15 4.075a6.747 6.747 0 0 1-3.752-6.766c-.021-.4-.029-.83-.024-1.288a12.99 12.99 0 0 1 4.533-9.608z" class="prefix__cls-1" data-name="Path 4373" transform="translate(0 -4.374)"/>
        <path id="prefix__Path_4374" d="M2756.926 2444.979c5.924-3.9 9.448-4.581 11.651-4.454-2.367 1.458-5.769 4.865-5.837 8.833s.883 4.752-1.768 7.8-.433 8.647-.583 11.01a13.568 13.568 0 0 0 .128 3.551s-2.448-4.656-3.714-7.662a48.434 48.434 0 0 1-3.388-11.206 18.744 18.744 0 0 1 .143-5.833c.995-.539 2.107-1.21 3.368-2.039z" class="prefix__cls-1" data-name="Path 4374" transform="translate(-32.624 -157.122)"/>
        <path id="prefix__Path_4375" fill="#1a1a1a" d="M2737.846 2477.438c.128-.067.266-.145.4-.217a19.069 19.069 0 0 0-.17 5.625 34.522 34.522 0 0 1-3.377-1.332l-.067-.584c.041-.738.547-2.082 3.214-3.492z" data-name="Path 4375" transform="translate(-17.308 -187.322)"/>
        <path id="prefix__Path_4376" d="M3123 2371.152c5.6 1.177 10.581 10.55 9.287 18.276-1.156 6.9-3.22 15.029-4.082 16.331a11.973 11.973 0 0 0-3.059 6.272c-.8 4.131-1.087 2.985-1.087 2.985s-.529.983-.413-5.657 1.021-6.574-2.32-11.678-1.485-8.67-1.224-11.6-.116-4.956-1.854-6.064a13.544 13.544 0 0 0 4.719-8.8z" class="prefix__cls-1" data-name="Path 4376" transform="translate(-332.908 -100.062)"/>
        <path id="prefix__Path_4377" d="M2843.4 2326.582l.06-.487a7.648 7.648 0 0 0 .087-1.373 4.919 4.919 0 0 0-.052-.973 6.652 6.652 0 0 0-.186-1.134 7.313 7.313 0 0 0-.369-1.256 9.068 9.068 0 0 0-.572-1.341 10.356 10.356 0 0 0-1.917-2.71 13.593 13.593 0 0 0-2.973-2.364 15.688 15.688 0 0 0-3.85-1.6 20.308 20.308 0 0 0-4.356-.566c-2.987-.085-6.024.079-8.862.156s-5.508.076-7.791-.074a12.227 12.227 0 0 1-5.333-1.245 1.757 1.757 0 0 1-.859-1.145 1.977 1.977 0 0 1-.021-.49 1.988 1.988 0 0 0 .068.48 1.768 1.768 0 0 0 .911 1.025 12.734 12.734 0 0 0 5.263.921c2.256.083 4.9-.054 7.73-.172s5.854-.316 8.928-.262a21.288 21.288 0 0 1 4.56.651 16.481 16.481 0 0 1 4.045 1.736 12.566 12.566 0 0 1 3.046 2.575 13.785 13.785 0 0 1 1.094 1.437 13.517 13.517 0 0 1 .78 1.464 8.187 8.187 0 0 1 .522 1.413 7.54 7.54 0 0 1 .284 1.314 6.818 6.818 0 0 1 .1 1.17 4.989 4.989 0 0 1-.021.995 6.551 6.551 0 0 1-.213 1.372l-.103.483z" class="prefix__cls-3" data-name="Path 4377" transform="translate(-76.351 -49.74)"/>
        <path id="prefix__Path_4378" d="M2850.316 2339.536l-.018-.41a5.547 5.547 0 0 0-.258-1.121 12.8 12.8 0 0 0-1.994-3.65 13.584 13.584 0 0 0-4.513-3.94 10.993 10.993 0 0 0-3.268-1.07 29.289 29.289 0 0 0-3.723-.2c-2.51-.025-5.039.142-7.411.274s-4.6.2-6.513.2c-.955.009-1.833-.039-2.608-.094s-1.448-.129-2-.216a12.255 12.255 0 0 1-1.265-.239l-.443-.1.453.054c.3.03.724.1 1.277.126.551.047 1.221.072 1.991.072s1.637-.019 2.584-.059c1.894-.065 4.1-.276 6.467-.446s4.906-.373 7.472-.381a30.369 30.369 0 0 1 3.824.26 11.738 11.738 0 0 1 3.564 1.216 12.865 12.865 0 0 1 2.688 2.037 15.208 15.208 0 0 1 1.85 2.26 12.523 12.523 0 0 1 1.16 2.116 10.31 10.31 0 0 1 .577 1.739 4.7 4.7 0 0 1 .138 1.159l-.031.413z" class="prefix__cls-3" data-name="Path 4378" transform="translate(-84.5 -64.841)"/>
        <path id="prefix__Path_4379" d="M2789.628 2358.831a2.29 2.29 0 0 0 .057-.452 7.349 7.349 0 0 0-.068-1.276 8.8 8.8 0 0 0-.486-1.927 10.109 10.109 0 0 0-1.218-2.29 9.654 9.654 0 0 0-2.243-2.187 13.769 13.769 0 0 0-3.2-1.652c-.6-.212-1.236-.368-1.864-.561l-1.981-.372a21.8 21.8 0 0 0-4.111-.187 34.015 34.015 0 0 0-8.017 1.366c-2.51.7-4.831 1.469-6.872 2.028a10.132 10.132 0 0 1-5.113.425 3.1 3.1 0 0 1-1.231-.685l-.323-.354.357.322a3.291 3.291 0 0 0 1.246.566 5.821 5.821 0 0 0 2.163-.008 21.382 21.382 0 0 0 2.746-.7c1.991-.613 4.253-1.521 6.791-2.262a34.747 34.747 0 0 1 8.214-1.5 22.772 22.772 0 0 1 4.288.251l2.057.414c.658.208 1.321.382 1.948.614a12.6 12.6 0 0 1 3.323 1.848 10.039 10.039 0 0 1 2.254 2.4 9.177 9.177 0 0 1 1.448 4.441 6.163 6.163 0 0 1-.057 1.3 2.327 2.327 0 0 1-.108.438z" class="prefix__cls-3" data-name="Path 4379" transform="translate(-32.384 -80.283)"/>
        <path id="prefix__Path_4380" d="M2775.085 2382.857a12.424 12.424 0 0 0-.747-1.094 15.716 15.716 0 0 0-2.41-2.55 11.355 11.355 0 0 0-1.96-1.326 11.215 11.215 0 0 0-2.479-.954 10.4 10.4 0 0 0-2.86-.23 18.943 18.943 0 0 0-2.993.4c-2 .375-3.977.967-5.845 1.48a35.865 35.865 0 0 1-5.233 1.108 12.249 12.249 0 0 1-2.163.082l-.9-.089c-.274-.048-.521-.117-.744-.166a4.487 4.487 0 0 1-.989-.355l-.337-.146.356.105a5.339 5.339 0 0 0 1.01.243c.223.028.466.075.734.1l.875.01a16.6 16.6 0 0 0 2.077-.23 44.844 44.844 0 0 0 5.075-1.326c1.851-.543 3.823-1.178 5.89-1.6a20.068 20.068 0 0 1 3.153-.361 11.3 11.3 0 0 1 3.1.307 9.869 9.869 0 0 1 2.622 1.133 11.749 11.749 0 0 1 1.965 1.5 13.287 13.287 0 0 1 2.2 2.791 8.455 8.455 0 0 1 .603 1.168z" class="prefix__cls-3" data-name="Path 4380" transform="translate(-26.19 -103.999)"/>
        <path id="prefix__Path_4381" d="M2744.378 2405.388a8.185 8.185 0 0 0 1.14.113 24.449 24.449 0 0 0 3-.131c2.485-.213 5.778-.724 9.152-.906.846-.03 1.694-.055 2.542-.006.219.017.406.009.649.047l.6.086a8.9 8.9 0 0 1 1.224.321 11.649 11.649 0 0 1 3.637 2.194 15.955 15.955 0 0 0 2.3 1.727 4.41 4.41 0 0 0 .754.327l.284.091-.3-.048a3.7 3.7 0 0 1-.822-.23 13.257 13.257 0 0 1-2.548-1.518 12.287 12.287 0 0 0-3.579-1.874 8.127 8.127 0 0 0-1.075-.247l-.6-.065c-.159-.026-.385-.021-.576-.034-.8-.039-1.623 0-2.447.033-1.653.076-3.313.23-4.877.34s-3.033.182-4.295.212c-.632.015-1.212 0-1.726-.032a13.344 13.344 0 0 1-1.328-.134 6.594 6.594 0 0 1-1.109-.266z" class="prefix__cls-3" data-name="Path 4381" transform="translate(-25.328 -127.44)"/>
        <path id="prefix__Path_4382" d="M2747.732 2426.108l-.257-.019a5.048 5.048 0 0 1-.726-.088 22.237 22.237 0 0 1-2.474-.7 8.156 8.156 0 0 0-3.474-.11c-.642.09-1.3.238-1.969.391l-2.042.525a21.339 21.339 0 0 1-2.13.408 18.4 18.4 0 0 1-2.107.148 16.426 16.426 0 0 1-3.7-.4 12.433 12.433 0 0 1-2.456-.825 5.965 5.965 0 0 1-.847-.46s.326.138.915.315a16.633 16.633 0 0 0 2.489.525 18.612 18.612 0 0 0 3.575.132l.992-.076 1.009-.131a20.573 20.573 0 0 0 2.03-.416l2.064-.5a18.518 18.518 0 0 1 2.076-.339 8.275 8.275 0 0 1 3.749.386c1.013.4 1.752.815 2.349.978.288.094.526.16.689.2z" class="prefix__cls-3" data-name="Path 4382" transform="translate(-9.837 -143.888)"/>
        <path id="prefix__Path_4383" d="M2722.1 2449.512s.1-.217.282-.587c.129-.167.268-.4.474-.624a4.75 4.75 0 0 1 .767-.7 20.335 20.335 0 0 1 5.1-2.337c1.912-.669 3.807-1.343 5.229-1.875.711-.265 1.313-.474 1.723-.641s.662-.236.662-.236-.205.142-.578.374-.9.569-1.577.917a37.783 37.783 0 0 1-5.13 2.21 37.708 37.708 0 0 0-5.124 1.96 5.965 5.965 0 0 0-1.393 1.027z" class="prefix__cls-3" data-name="Path 4383" transform="translate(-7.002 -158.771)"/>
        <path id="prefix__Path_4384" d="M2895.357 2295.087l.175-.431a10.027 10.027 0 0 0 .36-1.248 10.577 10.577 0 0 0-.079-4.531 11.636 11.636 0 0 0-3.159-5.615 10.715 10.715 0 0 0-3.154-2.109c-1.251-.521-2.554-1.115-3.794-1.736-2.5-1.239-4.928-2.581-7.226-3.783a49.873 49.873 0 0 0-6.4-3.029 12 12 0 0 0-4.939-.913 6.769 6.769 0 0 0-1.4.236l-.48.157.465-.194a6.274 6.274 0 0 1 1.4-.343 12.075 12.075 0 0 1 5.125.659 50.868 50.868 0 0 1 6.611 2.837c2.326 1.181 4.765 2.491 7.262 3.69 1.254.605 2.5 1.15 3.772 1.716a11.49 11.49 0 0 1 3.36 2.323 10.977 10.977 0 0 1 2.13 2.983 11.527 11.527 0 0 1 .972 3.033 9.814 9.814 0 0 1-.272 4.658 7.687 7.687 0 0 1-.5 1.227z" class="prefix__cls-3" data-name="Path 4384" transform="translate(-124.771 -18.066)"/>
        <path id="prefix__Path_4385" d="M3019.168 2277.826l1.09.5a9.615 9.615 0 0 1 1.211.638 11.462 11.462 0 0 1 1.5.96 14.457 14.457 0 0 1 1.612 1.314 14.764 14.764 0 0 1 1.594 1.66c.263.3.472.64.716.966a6.809 6.809 0 0 1 .66 1.033 15.576 15.576 0 0 1 1.068 2.234 14.29 14.29 0 0 1 .628 2.365 13.715 13.715 0 0 1 .22 2.344 12.494 12.494 0 0 1-.21 2.186l-.2 1c-.086.318-.192.62-.281.912a8.2 8.2 0 0 1-.623 1.55 7.327 7.327 0 0 1-.607 1.141l-.6.954.446-1.02a7.049 7.049 0 0 0 .453-1.179 12.461 12.461 0 0 0 .447-1.558c.064-.288.145-.586.2-.9l.114-.973a5.5 5.5 0 0 0 .06-1.029c-.007-.352.025-.71.009-1.073a15.991 15.991 0 0 0-.284-2.228 13.789 13.789 0 0 0-.625-2.241 14.728 14.728 0 0 0-.989-2.135 16.84 16.84 0 0 0-1.248-1.944 19.775 19.775 0 0 0-1.43-1.671 13.548 13.548 0 0 0-1.461-1.369c-.462-.423-.943-.741-1.351-1.054a9.182 9.182 0 0 0-1.115-.751z" class="prefix__cls-3" data-name="Path 4385" transform="translate(-251.393 -23.284)"/>
        <path id="prefix__Path_4386" d="M3028.509 2300.571a17.654 17.654 0 0 1 2.272 2.047 21.581 21.581 0 0 1 1.954 2.4 13.282 13.282 0 0 1 .917 1.474 17.066 17.066 0 0 1 .781 1.6c.225.551.387 1.126.563 1.682a13.5 13.5 0 0 1 .278 1.689 7.619 7.619 0 0 1-.014 1.6 8.939 8.939 0 0 1-.246 1.408c-.131.426-.27.81-.393 1.146-.153.328-.333.6-.457.824l-.423.7.262-.757c.081-.239.209-.519.3-.853.058-.344.123-.727.215-1.138a8.421 8.421 0 0 0 .088-1.35 11.11 11.11 0 0 0-.118-1.5c-.047-.519-.238-1.04-.333-1.579-.179-.526-.342-1.065-.563-1.588a16.427 16.427 0 0 0-.72-1.544c-.259-.5-.522-.995-.817-1.454a28.7 28.7 0 0 0-1.674-2.489c-.547-.7-.986-1.3-1.336-1.69z" class="prefix__cls-3" data-name="Path 4386" transform="translate(-259.077 -41.996)"/>
        <path id="prefix__Path_4387" d="M3062.152 2280.019a9.7 9.7 0 0 1 .934.565 20.206 20.206 0 0 1 2.27 1.733 22.457 22.457 0 0 1 2.748 2.888 22.13 22.13 0 0 1 1.264 1.831 17.41 17.41 0 0 1 1.034 2.027l.427 1.054c.114.359.2.723.3 1.08a10.508 10.508 0 0 1 .388 2.134 9.157 9.157 0 0 1 .045 2.016c-.018.32-.01.632-.048.93l-.156.859a10.28 10.28 0 0 1-.328 1.486l-.4 1.109-.367.954.2-.995.245-1.128c.094-.434.081-.941.153-1.478l.082-.841c.012-.291-.022-.593-.031-.9a16.1 16.1 0 0 0-.621-3.958l-.3-1.027-.423-1a16.659 16.659 0 0 0-.963-1.955c-.376-.619-.75-1.232-1.154-1.8-.427-.555-.8-1.117-1.237-1.6-.4-.507-.829-.955-1.223-1.369-.8-.816-1.49-1.49-2.014-1.923s-.825-.692-.825-.692z" class="prefix__cls-3" data-name="Path 4387" transform="translate(-286.755 -25.088)"/>
        <path id="prefix__Path_4388" d="M3112.053 2320.276a5.477 5.477 0 0 1 .418.6 11.38 11.38 0 0 1 .875 1.71 14.538 14.538 0 0 1 .794 2.578 13.081 13.081 0 0 1 .195 1.506 11.271 11.271 0 0 1 .019 1.569 10.94 10.94 0 0 1-.183 1.561 9.936 9.936 0 0 1-.371 1.483 8.33 8.33 0 0 1-.529 1.335 7.951 7.951 0 0 1-.6 1.143 7.265 7.265 0 0 1-.592.922l-.535.664c-.3.365-.478.565-.478.565l.328-.646.39-.726c.155-.277.257-.62.427-.967a7.319 7.319 0 0 0 .446-1.153c.115-.421.3-.847.38-1.312a13.389 13.389 0 0 0 .279-1.423 16.923 16.923 0 0 0 .157-2.975c0-.493-.078-.975-.11-1.445-.086-.464-.121-.922-.215-1.347s-.171-.832-.28-1.2a16.9 16.9 0 0 0-.815-2.442z" class="prefix__cls-3" data-name="Path 4388" transform="translate(-326.993 -58.207)"/>
        <path id="prefix__Path_4389" d="M2779.865 2457.338s-.228.131-.587.392a6.968 6.968 0 0 0-1.226 1.265 17.641 17.641 0 0 0-2.413 4.612c-.345.88-.6 1.788-.842 2.639-.223.856-.4 1.663-.55 2.36-.128.7-.264 1.282-.312 1.7-.068.412-.12.649-.12.649s-.028-.238-.054-.656a15.912 15.912 0 0 1-.026-1.739 17.245 17.245 0 0 1 1.053-5.2 12.742 12.742 0 0 1 2.865-4.647 6.354 6.354 0 0 1 1.537-1.109 3.03 3.03 0 0 1 .5-.195z" class="prefix__cls-3" data-name="Path 4389" transform="translate(-49.468 -170.965)"/>
        <path id="prefix__Path_4390" d="M3143.593 2419.13s.21.033.57.108a3.872 3.872 0 0 1 .64.167c.242.09.521.2.823.326.275.154.571.327.88.518.289.21.586.444.885.693.265.274.57.539.825.844s.522.613.739.945a13.521 13.521 0 0 1 1.84 3.86 10.687 10.687 0 0 1 .374 1.873s-.331-.7-.86-1.717c-.266-.507-.573-1.1-.928-1.711a22.161 22.161 0 0 0-1.187-1.877 16.508 16.508 0 0 0-1.384-1.738l-.741-.719-.729-.589c-.245-.148-.466-.3-.667-.435a3.544 3.544 0 0 0-.572-.3c-.326-.149-.508-.248-.508-.248z" class="prefix__cls-3" data-name="Path 4390" transform="translate(-353.755 -139.532)"/>
        <path id="prefix__Path_4391" d="M3153 2414.079a4.947 4.947 0 0 1 1.263.383 6.962 6.962 0 0 1 2.277 1.662 7.058 7.058 0 0 1 .853 1.191 5.55 5.55 0 0 1 .485 1.15 4.632 4.632 0 0 1 .175.851c.028.207.031.326.031.326s-.08-.1-.2-.277-.278-.429-.484-.718a17.1 17.1 0 0 0-1.562-2.016c-.3-.348-.634-.678-.955-.98s-.635-.576-.914-.808c-.544-.471-.969-.764-.969-.764z" class="prefix__cls-3" data-name="Path 4391" transform="translate(-361.497 -135.377)"/>
        <path id="prefix__Path_4392" d="M3122.2 2321.384l.172-.169c.105-.11.293-.273.467-.476a15.687 15.687 0 0 0 1.434-1.813 18.588 18.588 0 0 0 1.543-2.871c.2-.556.447-1.124.6-1.725a17.16 17.16 0 0 0 .441-1.83c.1-.621.191-1.248.233-1.866a16.808 16.808 0 0 0 .036-1.825 13.778 13.778 0 0 0-.119-1.707 13.637 13.637 0 0 0-.227-1.523c-.1-.469-.185-.9-.264-1.28l-.28-.972-.245-.849.294.836.338.961.34 1.272a13.832 13.832 0 0 1 .318 1.523 14.136 14.136 0 0 1 .223 1.722 17.213 17.213 0 0 1 .072 1.858c-.005.634-.062 1.279-.126 1.922a17.6 17.6 0 0 1-.343 1.906 18.689 18.689 0 0 1-.519 1.817 19.1 19.1 0 0 1-1.438 3.079 16.3 16.3 0 0 1-1.43 2.021c-.194.247-.351.4-.456.518l-.162.177z" class="prefix__cls-1" data-name="Path 4392" transform="translate(-336.156 -43.563)"/>
        <path id="prefix__Path_4393" d="M3131.392 2338.208a9.293 9.293 0 0 1-.092 2.025 15.194 15.194 0 0 1-.457 2.047 18.039 18.039 0 0 1-.846 2.279 23.635 23.635 0 0 1-1.143 2.181c-.414.675-.821 1.3-1.205 1.809-.36.528-.719.93-.948 1.226l-.371.459-.92-.688.4-.414c.246-.267.629-.629 1.021-1.11.417-.466.863-1.034 1.323-1.656a23.47 23.47 0 0 0 1.3-2.028 18.015 18.015 0 0 0 1.03-2.158 15.148 15.148 0 0 0 .635-1.976 9.3 9.3 0 0 0 .273-1.996z" class="prefix__cls-1" data-name="Path 4393" transform="translate(-338.796 -72.96)"/>
        <path id="prefix__Path_4394" d="M2902.158 2271.87l.315-.019a8.252 8.252 0 0 1 .9-.01 11.453 11.453 0 0 1 3.16.566 20.061 20.061 0 0 1 4.064 1.853c.7.408 1.395.858 2.088 1.329a13.866 13.866 0 0 0 2.113 1.269c1.513.726 3.138 1.385 4.557 2.178a17.25 17.25 0 0 1 1.944 1.288 11.218 11.218 0 0 1 1.519 1.385 10.386 10.386 0 0 1 1.03 1.351c.252.43.456.812.613 1.127l.4 1.027-.539-.967c-.19-.3-.432-.652-.722-1.046a12.4 12.4 0 0 0-1.13-1.217 10.924 10.924 0 0 0-1.544-1.245 16.8 16.8 0 0 0-1.948-1.131c-.712-.346-1.451-.7-2.232-1.02s-1.574-.658-2.364-1.038a13.134 13.134 0 0 1-2.237-1.327c-.673-.475-1.357-.913-2.019-1.335a25.652 25.652 0 0 0-3.8-2.018 14.316 14.316 0 0 0-2.975-.854c-.751-.116-1.193-.146-1.193-.146z" class="prefix__cls-3" data-name="Path 4394" transform="translate(-155.131 -18.355)"/>
        <path id="prefix__Path_4395" d="M2960.415 2272.035l.3.06c.19.047.479.078.828.189a20.506 20.506 0 0 1 2.86 1c.584.229 1.173.55 1.821.854.614.352 1.3.679 1.928 1.122a20.781 20.781 0 0 1 1.928 1.378 22.923 22.923 0 0 1 1.8 1.625 16.232 16.232 0 0 1 1.54 1.835 13.583 13.583 0 0 1 1.207 1.946 18.039 18.039 0 0 1 .8 1.954c.145.65.3 1.259.407 1.824.05.574.076 1.1.1 1.563a8.614 8.614 0 0 1-.083 1.2l-.123 1.033-.052-1.038a8.349 8.349 0 0 0-.076-1.176c-.086-.45-.18-.954-.262-1.5-.149-.54-.347-1.116-.534-1.725-.286-.581-.541-1.209-.886-1.823a15.943 15.943 0 0 0-1.215-1.821 15.689 15.689 0 0 0-1.494-1.736 21.9 21.9 0 0 0-1.706-1.581c-.6-.485-1.193-.971-1.817-1.385a31.383 31.383 0 0 0-6.192-3.39c-.683-.275-1.079-.408-1.079-.408z" class="prefix__cls-3" data-name="Path 4395" transform="translate(-203.058 -18.52)"/>
        <path id="prefix__Path_4396" d="M3115.886 2345.393a20.261 20.261 0 0 0 1.24-2.165c.343-.657.7-1.439 1.044-2.284a22.2 22.2 0 0 0 .893-2.7c.148-.46.231-.934.333-1.4s.155-.923.232-1.368.087-.88.136-1.292.053-.8.061-1.166.038-.7.026-.993l-.03-.768-.009-.677s.074.236.182.656a10.675 10.675 0 0 1 .346 1.763 7.531 7.531 0 0 1 .094 1.2 10.325 10.325 0 0 1-.02 1.343 12.314 12.314 0 0 1-.164 1.431c-.1.483-.171.978-.316 1.459a13.825 13.825 0 0 1-.461 1.427 14.3 14.3 0 0 1-.572 1.342 15.286 15.286 0 0 1-1.327 2.244 11.824 11.824 0 0 1-1.688 1.948z" class="prefix__cls-3" data-name="Path 4396" transform="translate(-330.961 -66.691)"/>
        <path id="prefix__Path_4397" d="M3060.019 2266.149a8.332 8.332 0 0 1 .837.446 16.449 16.449 0 0 1 2.031 1.417 19.784 19.784 0 0 1 2.49 2.4 18.328 18.328 0 0 1 2.218 3.2 17.98 17.98 0 0 1 .838 1.766 18.447 18.447 0 0 1 .608 1.775 14.68 14.68 0 0 1 .368 1.7 11.393 11.393 0 0 1 .18 1.539 8.078 8.078 0 0 1 .053 1.3l-.055 1-.066.868-.109-.866c-.029-.274-.064-.607-.1-.988-.021-.382-.156-.8-.221-1.267a11.037 11.037 0 0 0-.322-1.481c-.164-.516-.281-1.07-.486-1.621s-.394-1.128-.657-1.69a17.685 17.685 0 0 0-.833-1.687 15.374 15.374 0 0 0-.974-1.626c-.333-.532-.71-1.028-1.073-1.51a23.585 23.585 0 0 0-2.209-2.5 21.578 21.578 0 0 0-2.518-2.175z" class="prefix__cls-3" data-name="Path 4397" transform="translate(-285 -13.678)"/>
        <path id="prefix__Path_4398" d="M3083.6 2343.712a2.581 2.581 0 0 0 .3-.513 10.956 10.956 0 0 0 .583-1.427 19.808 19.808 0 0 0 .951-4.479c.085-.827.1-1.658.118-2.441-.02-.782-.029-1.515-.08-2.146-.023-.633-.079-1.16-.113-1.531s-.036-.588-.036-.588.083.2.208.557a12.405 12.405 0 0 1 .452 1.5 14.583 14.583 0 0 1 .36 2.181c.018.4.044.822.048 1.248l-.063 1.29a13.711 13.711 0 0 1-.5 2.5 10.453 10.453 0 0 1-.865 2.077 8.145 8.145 0 0 1-.911 1.336 2.035 2.035 0 0 1-.452.436z" class="prefix__cls-3" data-name="Path 4398" transform="translate(-304.396 -66.691)"/>
        <path id="prefix__Path_4399" d="M3016.513 2263.346a2.065 2.065 0 0 1 .641.04 11.477 11.477 0 0 1 1.627.42 15.369 15.369 0 0 1 2.156.934 16.322 16.322 0 0 1 2.251 1.419 14.3 14.3 0 0 1 1.936 1.76 7.788 7.788 0 0 1 .76.911 7.051 7.051 0 0 1 .6.865 8.5 8.5 0 0 1 .709 1.376c.147.34.218.537.218.537s-.144-.167-.373-.464l-.406-.535c-.176-.2-.375-.413-.578-.657s-.45-.49-.7-.755-.526-.534-.819-.806-.6-.542-.922-.818-.662-.533-1-.8a24.928 24.928 0 0 0-2.1-1.437c-.69-.44-1.371-.8-1.953-1.116-.594-.293-1.09-.554-1.459-.688a2.772 2.772 0 0 0-.588-.186z" class="prefix__cls-3" data-name="Path 4399" transform="translate(-249.208 -11.365)"/>
        <path id="prefix__Path_4400" d="M3151.306 2428.584s.15.051.4.155a5.032 5.032 0 0 1 1 .514 3.317 3.317 0 0 1 .606.449 4.082 4.082 0 0 1 .6.575 6 6 0 0 1 .988 1.463 6.611 6.611 0 0 1 .534 1.632 6.306 6.306 0 0 1 .1 1.467 4.876 4.876 0 0 1-.259 1.4 13.553 13.553 0 0 0-.256-1.37c-.087-.4-.211-.863-.358-1.347a10.51 10.51 0 0 0-.586-1.466 8.023 8.023 0 0 0-.8-1.367 8.454 8.454 0 0 0-.9-1.093 7.031 7.031 0 0 0-.759-.733c-.205-.171-.31-.279-.31-.279z" class="prefix__cls-3" data-name="Path 4400" transform="translate(-360.101 -147.31)"/>
        <path id="prefix__Path_4401" d="M3133.313 2421.682a4.507 4.507 0 0 1 .67.326 9.2 9.2 0 0 1 1.557 1.156 9.331 9.331 0 0 1 .884.924 12.36 12.36 0 0 1 .857 1.123c.243.417.538.832.75 1.288a14.723 14.723 0 0 1 .623 1.391 15.555 15.555 0 0 1 .8 2.847 16.193 16.193 0 0 1 .288 2.535 16.719 16.719 0 0 1-.025 1.8c-.02.432-.045.678-.045.678l-.13-.671c-.08-.425-.154-1.036-.314-1.755l-.233-1.162c-.084-.411-.219-.836-.317-1.281s-.26-.892-.392-1.352a12.918 12.918 0 0 0-.483-1.37 19.267 19.267 0 0 0-1.214-2.6c-.257-.384-.456-.786-.717-1.125-.24-.353-.488-.674-.725-.967a9.644 9.644 0 0 0-1.834-1.785z" class="prefix__cls-3" data-name="Path 4401" transform="translate(-345.298 -141.632)"/>
        <path id="prefix__Path_4402" d="M3138.029 2442.961a6.015 6.015 0 0 1 1.1 1.047 8.461 8.461 0 0 1 1.535 2.858 8.794 8.794 0 0 1 .332 1.677 7.2 7.2 0 0 1-.012 1.481 6.21 6.21 0 0 1-.191 1.029c-.062.245-.109.382-.109.382s-.032-.144-.065-.391-.077-.6-.149-1.01a19.739 19.739 0 0 0-.669-2.953c-.154-.527-.344-1.045-.537-1.528s-.394-.93-.576-1.313c-.358-.771-.659-1.279-.659-1.279z" class="prefix__cls-3" data-name="Path 4402" transform="translate(-349.177 -159.138)"/>
        <path id="prefix__Path_4403" d="M3155.864 2389.412a3.3 3.3 0 0 1 1.144.1 4.27 4.27 0 0 1 1.084.445 5.118 5.118 0 0 1 1.047.8 5.436 5.436 0 0 1 .757 1.017 4.226 4.226 0 0 1 .4.99 3.78 3.78 0 0 1 .127.732 2.522 2.522 0 0 1 .015.281s-.074-.083-.181-.231-.249-.36-.435-.6-.385-.519-.607-.807-.479-.575-.752-.849a9.617 9.617 0 0 0-1.677-1.357 7.309 7.309 0 0 0-.922-.521z" class="prefix__cls-3" data-name="Path 4403" transform="translate(-363.85 -115.074)"/>
        <path id="prefix__Path_4404" d="M2787.44 2465.051s-.111.131-.32.344-.45.54-.745.934a22.048 22.048 0 0 0-1.838 3.024 28.293 28.293 0 0 0-1.4 3.22c-.156.454-.315.834-.386 1.107s-.147.427-.147.427a7.583 7.583 0 0 1 .029-1.632 10.682 10.682 0 0 1 1.092-3.46 10.459 10.459 0 0 1 2.258-2.98 7.509 7.509 0 0 1 1.029-.76c.266-.148.428-.224.428-.224z" class="prefix__cls-3" data-name="Path 4404" transform="translate(-56.749 -177.311)"/>
        <path id="prefix__Path_4405" d="M2772.023 2470.918s-.114.523-.311 1.28-.492 1.738-.773 2.731c-.151.491-.268.985-.4 1.447-.112.464-.208.9-.29 1.274-.054.376-.146.7-.152.923-.027.226-.055.361-.055.361a4.7 4.7 0 0 1-.308-1.3 8.232 8.232 0 0 1 .331-2.9 11.8 11.8 0 0 1 1.163-2.7 8.972 8.972 0 0 1 .795-1.116z" class="prefix__cls-3" data-name="Path 4405" transform="translate(-46.172 -182.137)"/>
        <path id="prefix__Path_4406" d="M2763.6 2477.22l-.2.62c-.115.355-.284.8-.457 1.237s-.369.879-.542 1.221l-.234.417a1.518 1.518 0 0 1-.108.161 2.382 2.382 0 0 1-.167-.652 3.022 3.022 0 0 1 .207-1.42 3.2 3.2 0 0 1 .87-1.212 2.252 2.252 0 0 1 .631-.372z" class="prefix__cls-3" data-name="Path 4406" transform="translate(-39.722 -187.322)"/>
        <path id="prefix__Path_4407" d="M2796.477 2374.5l.876-.314c.558-.188 1.372-.456 2.369-.7a32.64 32.64 0 0 1 3.454-.67 26.706 26.706 0 0 1 4.062-.257 19.276 19.276 0 0 1 2.079.155 13.366 13.366 0 0 1 1.986.392 8.581 8.581 0 0 1 1.754.7 3.361 3.361 0 0 1 .741.444c.222.166.452.309.641.477a4.555 4.555 0 0 1 .859 1.049 3.679 3.679 0 0 1 .433.909l.211.83-.374-.773a3.653 3.653 0 0 0-.551-.8 6.353 6.353 0 0 0-.918-.876c-.189-.139-.416-.253-.632-.388a3.014 3.014 0 0 0-.717-.349 10.875 10.875 0 0 0-1.667-.534 16.089 16.089 0 0 0-1.881-.3 18.581 18.581 0 0 0-1.985-.12c-.668-.022-1.341 0-2 .021-.66.048-1.314.058-1.943.132-1.261.105-2.439.249-3.442.409s-1.844.277-2.429.4z" class="prefix__cls-3" data-name="Path 4407" transform="translate(-68.189 -101.223)"/>
        <path id="prefix__Path_4408" d="M2921.822 2358.929s.069-.3.153-.82a17.538 17.538 0 0 0 .194-2.163 13.488 13.488 0 0 0-.036-1.436 12.9 12.9 0 0 0-.228-1.578 13.513 13.513 0 0 0-.445-1.639 10.062 10.062 0 0 0-.773-1.584l-.461-.762-.574-.69a9.884 9.884 0 0 0-1.251-1.246 14.345 14.345 0 0 0-1.359-1.008 8.894 8.894 0 0 0-1.347-.765 11.828 11.828 0 0 0-1.193-.585l-.965-.385-.843-.353.9.2 1.034.255a7.22 7.22 0 0 1 1.3.458 9.656 9.656 0 0 1 1.478.679 10.169 10.169 0 0 1 1.526.969 9.065 9.065 0 0 1 1.4 1.293l.634.74.515.82a10.759 10.759 0 0 1 .8 1.724 11.088 11.088 0 0 1 .4 1.765 8.726 8.726 0 0 1 .1 1.67 13.875 13.875 0 0 1-.114 1.486 11.827 11.827 0 0 1-.526 2.163 6.7 6.7 0 0 1-.319.792z" class="prefix__cls-3" data-name="Path 4408" transform="translate(-163.799 -77.655)"/>
        <path id="prefix__Path_4409" d="M2981.354 2374.773a7.524 7.524 0 0 1 .614 1.536 9.506 9.506 0 0 1 .317 1.654 9.859 9.859 0 0 1 .013 1.934 8.544 8.544 0 0 1-.41 1.908 4.9 4.9 0 0 1-.342.842 4.544 4.544 0 0 1-.394.719 5.6 5.6 0 0 1-.76.978c-.2.221-.328.337-.328.337s.06-.158.179-.419l.216-.464c.062-.188.132-.4.221-.618s.149-.472.232-.729a8.394 8.394 0 0 0 .209-.82c.08-.281.11-.583.167-.884s.079-.612.116-.92a17.8 17.8 0 0 0 .093-1.832c0-.589-.016-1.141-.036-1.618-.037-.954-.107-1.604-.107-1.604z" class="prefix__cls-3" data-name="Path 4409" transform="translate(-219.223 -103.041)"/>
        <path id="prefix__Path_4410" d="M2820.067 2400.108l-.79-.306a9.068 9.068 0 0 1-.88-.409 9.438 9.438 0 0 1-1.1-.612c-.779-.48-1.656-1.08-2.564-1.727-.45-.332-.934-.639-1.412-.966a14.361 14.361 0 0 0-1.521-.858 8.72 8.72 0 0 0-1.622-.632 11.645 11.645 0 0 0-1.667-.355c-.558-.019-1.1-.105-1.621-.076a12.55 12.55 0 0 0-1.47.095c-.452.069-.874.113-1.249.157l-.955.191-.844.153.792-.3.922-.332c.366-.1.784-.21 1.246-.313a13.056 13.056 0 0 1 1.52-.235 11.726 11.726 0 0 1 1.74-.043 10.213 10.213 0 0 1 1.846.319 5.394 5.394 0 0 1 .911.294 7.83 7.83 0 0 1 .88.373c2.293 1.135 3.942 2.859 5.374 3.9a19.781 19.781 0 0 0 1.758 1.244z" class="prefix__cls-3" data-name="Path 4410" transform="translate(-73.04 -118.468)"/>
        <path id="prefix__Path_4411" d="M2829.06 2414.543a5.121 5.121 0 0 1 .516-.089 4.847 4.847 0 0 1 1.415.195 21.179 21.179 0 0 1 3.762 1.666 30.015 30.015 0 0 0 3.608 1.691c.255.1.5.167.71.238a3.29 3.29 0 0 0 .566.148c.32.068.508.118.508.118s-.188.021-.526.038a3.584 3.584 0 0 1-.612-.01 4.809 4.809 0 0 1-.791-.088 9.748 9.748 0 0 1-1.9-.529 18.762 18.762 0 0 1-2.015-.909c-1.317-.69-2.539-1.47-3.509-1.937a5.78 5.78 0 0 0-1.213-.464z" class="prefix__cls-3" data-name="Path 4411" transform="translate(-94.995 -135.686)"/>
        <path id="prefix__Path_4412" d="M2832.452 2307.1l.9.288a7.524 7.524 0 0 0 1.042.254c.394.1.861.153 1.365.231s1.055.128 1.638.181 1.205.059 1.841.113c1.281.051 2.65.094 4.024.1 1.373.029 2.752.031 4.047.073s2.508.117 3.547.215a11.349 11.349 0 0 1 2.477.471 2.319 2.319 0 0 1 .634.289l.209.119-.234-.081a2.851 2.851 0 0 0-.66-.176 14.843 14.843 0 0 0-2.46-.169c-1.025-.027-2.228.026-3.519.042s-2.672.036-4.057.022-2.772-.08-4.071-.2c-.65-.071-1.276-.125-1.866-.239s-1.148-.185-1.655-.318a8.775 8.775 0 0 1-1.369-.391 7.544 7.544 0 0 1-1.008-.4z" class="prefix__cls-3" data-name="Path 4412" transform="translate(-97.785 -47.37)"/>
        <path id="prefix__Path_4413" d="M3019.868 2369s.087-.689.3-1.7a16.219 16.219 0 0 0 .544-3.6 5.592 5.592 0 0 0-.063-.958 7.369 7.369 0 0 0-.183-.92 12 12 0 0 0-.564-1.614c-.218-.462-.377-.867-.532-1.132-.137-.273-.206-.437-.206-.437s.134.124.354.354a9.275 9.275 0 0 1 .844 1.006 7.1 7.1 0 0 1 .865 1.628 5.343 5.343 0 0 1 .281 1 6.124 6.124 0 0 1 .1 1.067 9.106 9.106 0 0 1-.95 3.74c-.438.953-.79 1.566-.79 1.566z" class="prefix__cls-3" data-name="Path 4413" transform="translate(-251.393 -89.768)"/>
        <path id="prefix__Path_4414" d="M2722.1 2441.03l.79-.054c.248-.029.544-.082.878-.132l1.125-.244c1.643-.392 3.784-1.092 6-1.648.554-.139 1.114-.265 1.667-.384s1.109-.2 1.64-.3a19.127 19.127 0 0 1 2.974-.206 6.584 6.584 0 0 1 1.19.081 6.329 6.329 0 0 1 .9.15c.491.122.762.2.762.2l-.788-.045a13.048 13.048 0 0 0-2.045.067c-.42.022-.872.1-1.349.172s-.973.2-1.491.277c-1.029.231-2.126.472-3.22.764-1.1.266-2.2.559-3.244.79-1.042.246-2.046.4-2.9.525a12.334 12.334 0 0 1-2.109.088z" class="prefix__cls-3" data-name="Path 4414" transform="translate(-7.002 -155.105)"/>
    </g>
</svg>
