<svg xmlns="http://www.w3.org/2000/svg" width="87.893" height="79.168" viewBox="0 0 87.893 79.168">
    <defs>
        <style>
            .prefix__cls-1{fill:#241f14}.prefix__cls-2{fill:#524640}
        </style>
    </defs>
    <g id="prefix__Group_3190" data-name="Group 3190" transform="translate(-3836.417 -2129.941)">
        <g id="prefix__Group_3189" data-name="Group 3189" transform="translate(3836.417 2129.941)">
            <path id="prefix__Path_4415" d="M3912.246 2130.071c6.187 5.253 4.3 14.448-2.752 16.184 0 0 15.234-1.983 7.056-16.313 0 0 7.844 3.027 7.671 11.735s-1.677 16.151-5.714 18.013c0 0 6.549-1.94 5.026-9.727 0 0 4.165 12.155-6.795 16.09a10 10 0 0 1-6.654.2s2.8 7.313 1.443 12.358-.941 4.6-.9 6.119-2.494 2.109-2.383 6.817c.026 1.124-1.955 1.112-5.4 9.389a22.041 22.041 0 0 0-.374 3.1c-.283 1.208-1.82 5.071-1.82 5.071s1.11-6.2 1.511-9.846a22.956 22.956 0 0 0-1.306-9.886c-2.043-4.57.668-6.547-.283-9.564s-2.9-9.843-2-12.3c0 0-8.813 1.594-13.1-3.916 0 0-8.362 4.564-12.5.514-2.843-2.782-16.473 8.822-22.939 1.4a3.9 3.9 0 0 0-.814 3.884c.8 2.844-1.744 6.58-2.078 9.853s2.6 7.754.3 10.217 1.362 9.367-.472 12.9c0 0-1.11-9.272-5.951-11.622a25.789 25.789 0 0 0-2.136-6.681c-1.6-3.215-3.675-7.722-1.587-9.96s-3.732-14.077 6.649-12.65c0 0-9.37-15.191.818-20.285 0 0-5.719 3.963-2.123 9.711 0 0-1.6-17.633 14.635-13.381 0 0-9.228.127-9.017 6.684 0 0 5.174-7.118 10.176-5.529s4.188-4.043 8.239-5.47 11.887 1.382 16.3-2.233 9.205 5.379 13.516 5.467 8.752-2.657 8.695-4.614c0 0 1.844 4.078-3.042 6.4 0 0 6.251.3 6.958-4.506 0 0 .961 3.772-1.053 5.426 0 0 4.073-1.839 3.361-5.373 0 0 2.274 3 .659 5.865.007.008 3.909-5.589.18-9.541z" class="prefix__cls-1" data-name="Path 4415" transform="translate(-3836.417 -2129.941)"/>
            <path id="prefix__Path_4416" d="M4374.165 2395a7.094 7.094 0 0 1 5.1 4.66c1.579 4.12 4.938 2.793 4.938 2.793s-4.029 3.309-7.771-4.179a11.976 11.976 0 0 1 .858 4.388 6.056 6.056 0 0 0 1.075 3.522 8.09 8.09 0 0 1-2.473-3.744c-.746-2.407-1.727-7.44-1.727-7.44z" class="prefix__cls-1" data-name="Path 4416" transform="translate(-4300.496 -2358.692)"/>
            <path id="prefix__Path_4417" d="M4026.346 2185.126s-.2.367-.561.991c-.186.311-.331.722-.537 1.165s-.353 1-.577 1.557c-.374 1.167-.78 2.53-1.217 4.016a43.094 43.094 0 0 1-1.608 4.613c-.311.779-.731 1.52-1.1 2.262a16.121 16.121 0 0 1-1.39 2.028c-.259.306-.483.63-.757.9l-.827.772a11.514 11.514 0 0 1-1.652 1.226 12.564 12.564 0 0 1-1.547.769 6.981 6.981 0 0 1-1.248.429c-.7.2-1.1.293-1.1.293s.37-.2 1.012-.518a6.716 6.716 0 0 0 1.126-.616c.4-.295.887-.561 1.35-.944l.7-.617a4.629 4.629 0 0 0 .713-.692l.7-.78c.225-.277.429-.584.651-.882a20.915 20.915 0 0 0 1.213-1.95c.341-.713.724-1.414 1.013-2.171.657-1.472 1.173-3.023 1.714-4.469.518-1.45 1.063-2.808 1.595-3.939a16.912 16.912 0 0 1 .828-1.5c.292-.427.514-.816.749-1.091.474-.549.757-.852.757-.852z" class="prefix__cls-2" data-name="Path 4417" transform="translate(-3988.137 -2177.566)"/>
            <path id="prefix__Path_4418" d="M4020.356 2206.446l-.416.658a5.69 5.69 0 0 0-.384.768 7.9 7.9 0 0 0-.336 1.036c-.084.393-.157.819-.211 1.284s-.1.975-.157 1.492a13.8 13.8 0 0 1-.26 1.643 13.287 13.287 0 0 1-.506 1.687 11.1 11.1 0 0 1-.839 1.557 8.97 8.97 0 0 1-1.037 1.342 10.6 10.6 0 0 1-1.128 1.087 9.174 9.174 0 0 1-1.106.841 12.3 12.3 0 0 1-1.771 1.055l-.7.345.555-.547c.352-.347.889-.792 1.455-1.4.28-.305.626-.592.917-.959s.651-.708.935-1.122a11.758 11.758 0 0 0 .858-1.273 10.212 10.212 0 0 0 .71-1.4 12.021 12.021 0 0 0 .491-1.5c.131-.509.25-1.018.346-1.532s.205-1.015.327-1.494a8.2 8.2 0 0 1 .447-1.342 5.6 5.6 0 0 1 .6-1.048 4.294 4.294 0 0 1 .606-.69z" class="prefix__cls-2" data-name="Path 4418" transform="translate(-3987.522 -2195.965)"/>
            <path id="prefix__Path_4419" d="M3943.575 2219.7l-.418.549-1.133 1.4c-.467.565-1 1.236-1.554 1.955s-1.12 1.5-1.626 2.307a20.69 20.69 0 0 0-2.253 4.738l-.572 1.7-.243.647a16.62 16.62 0 0 1 .119-2.505 12.364 12.364 0 0 1 .582-2.543 12.1 12.1 0 0 1 .575-1.367c.218-.457.482-.9.744-1.335a16.669 16.669 0 0 1 1.84-2.346 13.088 13.088 0 0 1 .967-.96 11.4 11.4 0 0 1 .923-.8 14.639 14.639 0 0 1 1.464-1.07z" class="prefix__cls-2" data-name="Path 4419" transform="translate(-3922.158 -2207.403)"/>
            <path id="prefix__Path_4420" d="M3889.365 2423.2a5.3 5.3 0 0 1-.478-1.515 7.5 7.5 0 0 1-.089-1.634 9.767 9.767 0 0 1 .275-1.86 11.281 11.281 0 0 1 .648-1.759 9.312 9.312 0 0 1 .833-1.4 8 8 0 0 1 .729-.884c.186-.2.3-.311.3-.311s-.048.154-.149.409-.254.61-.412 1.042c-.174.425-.348.925-.544 1.453-.171.537-.36 1.1-.505 1.68a19.586 19.586 0 0 0-.556 3.237 12.416 12.416 0 0 0-.052 1.542z" class="prefix__cls-2" data-name="Path 4420" transform="translate(-3881.613 -2374.947)"/>
            <path id="prefix__Path_4421" d="M3868.7 2406.792s-.325.291-.761.724a19.438 19.438 0 0 0-1.5 1.573 14.437 14.437 0 0 0-1.28 1.735c-.165.255-.313.474-.4.637s-.164.25-.164.25a2.635 2.635 0 0 1-.011-.3 3.55 3.55 0 0 1 .075-.787 3.981 3.981 0 0 1 .362-1.063 5.072 5.072 0 0 1 .708-1.081 5.248 5.248 0 0 1 1.919-1.414 3.645 3.645 0 0 1 1.052-.274z" class="prefix__cls-2" data-name="Path 4421" transform="translate(-3860.728 -2368.865)"/>
            <path id="prefix__Path_4422" d="M3860.07 2394.688s-.311.231-.713.579a13.778 13.778 0 0 0-1.364 1.268 12.165 12.165 0 0 0-1.166 1.442c-.157.214-.3.4-.38.538s-.16.211-.16.211a3 3 0 0 1 .047-.957 3.423 3.423 0 0 1 .324-.936 3.531 3.531 0 0 1 .29-.483 5 5 0 0 1 .367-.453 4.011 4.011 0 0 1 1.8-1.1 2.759 2.759 0 0 1 .955-.109z" class="prefix__cls-2" data-name="Path 4422" transform="translate(-3853.549 -2358.413)"/>
            <path id="prefix__Path_4423" d="M4328.215 2205.6l-.034.322a5.5 5.5 0 0 1-.137.907 9.671 9.671 0 0 1-.412 1.388 10.407 10.407 0 0 1-.827 1.693 13.486 13.486 0 0 1-1.309 1.812 16.819 16.819 0 0 1-1.757 1.766 24.214 24.214 0 0 1-4.452 3.021c-.808.43-1.637.814-2.463 1.163-.791.356-1.645.656-2.359 1.017a27.074 27.074 0 0 0-3.907 2.229 18 18 0 0 0-2.468 2.048 9.5 9.5 0 0 0-.817.921 6.227 6.227 0 0 1 .63-1.075 14.74 14.74 0 0 1 2.212-2.453 18.1 18.1 0 0 1 1.749-1.363 19.007 19.007 0 0 1 2.12-1.29c.774-.425 1.541-.765 2.36-1.135.795-.35 1.589-.736 2.36-1.159a29.432 29.432 0 0 0 4.339-2.765 23.077 23.077 0 0 0 1.774-1.554 17.676 17.676 0 0 0 1.4-1.583 15.642 15.642 0 0 0 1-1.489 9.329 9.329 0 0 0 .6-1.256 9.06 9.06 0 0 0 .3-.859l.098-.306z" class="prefix__cls-2" data-name="Path 4423" transform="translate(-4242.768 -2195.235)"/>
            <path id="prefix__Path_4424" d="M4395.48 2247.848a3.279 3.279 0 0 1 .061.659 5.922 5.922 0 0 1-.279 1.74 6.555 6.555 0 0 1-.452 1.1 8.483 8.483 0 0 1-.685 1.144 10.584 10.584 0 0 1-2.021 2.05 9.631 9.631 0 0 1-1.2.814 8.28 8.28 0 0 1-1.236.651 10.378 10.378 0 0 1-1.2.5c-.39.132-.764.242-1.107.342a12.825 12.825 0 0 1-1.693.339c-.412.06-.648.082-.648.082l.574-.318c.362-.2.9-.434 1.51-.768.3-.169.633-.349.987-.524s.691-.418 1.068-.617a12.918 12.918 0 0 0 1.1-.7 8.917 8.917 0 0 0 1.084-.781 9.512 9.512 0 0 0 1.02-.848c.334-.285.61-.61.91-.9.243-.331.542-.615.744-.938.229-.309.418-.616.592-.906a8.177 8.177 0 0 0 .871-2.121z" class="prefix__cls-2" data-name="Path 4424" transform="translate(-4309.862 -2231.695)"/>
            <path id="prefix__Path_4425" d="M4230.778 2254.746a5.366 5.366 0 0 1-.018.769 10.283 10.283 0 0 1-.412 1.993 13.326 13.326 0 0 1-1.175 2.637c-.258.464-.57.913-.884 1.373-.352.429-.685.887-1.063 1.306-.4.4-.766.829-1.185 1.19s-.819.732-1.241 1.045a17.14 17.14 0 0 1-2.4 1.56 14.175 14.175 0 0 1-1.818.866l-.709.281.584-.493c.367-.318.931-.7 1.543-1.244.312-.265.649-.546 1.012-.833.342-.314.7-.647 1.082-.973s.722-.723 1.114-1.073.724-.771 1.093-1.154.691-.807 1.034-1.2c.3-.428.647-.812.917-1.232s.56-.806.79-1.2c.249-.386.443-.773.65-1.122.366-.716.652-1.332.829-1.777s.257-.719.257-.719z" class="prefix__cls-2" data-name="Path 4425" transform="translate(-4167.344 -2237.648)"/>
            <path id="prefix__Path_4426" d="M4165.912 2275.586a5.839 5.839 0 0 1-.317.886 13.167 13.167 0 0 1-1.243 2.163 17.16 17.16 0 0 1-2.364 2.635c-.489.425-1 .866-1.546 1.268-.566.375-1.111.809-1.714 1.145s-1.188.7-1.808.981a19.462 19.462 0 0 1-1.815.806 23.808 23.808 0 0 1-3.341 1.071 23 23 0 0 1-2.426.475c-.588.095-.926.132-.926.132s.313-.144.863-.365 1.347-.5 2.266-.919c.461-.2.962-.417 1.494-.629l1.63-.766c.578-.237 1.12-.592 1.708-.871s1.143-.646 1.714-.977c.586-.309 1.11-.712 1.66-1.057.525-.379 1.05-.744 1.537-1.125.468-.4.954-.756 1.362-1.15.428-.375.8-.756 1.16-1.106.333-.366.663-.69.92-1s.484-.59.66-.826c.347-.478.526-.771.526-.771z" class="prefix__cls-2" data-name="Path 4426" transform="translate(-4105.67 -2255.634)"/>
            <path id="prefix__Path_4427" d="M4089.357 2259.393l.065.725a7 7 0 0 1 .027.835 9.8 9.8 0 0 1-.048 1.094 12.109 12.109 0 0 1-.535 2.7 10.526 10.526 0 0 1-.585 1.462 13.488 13.488 0 0 1-.811 1.419 13.034 13.034 0 0 1-1.032 1.268 10.5 10.5 0 0 1-1.151 1.076 12.074 12.074 0 0 1-2.335 1.467 9.375 9.375 0 0 1-1 .434 7.067 7.067 0 0 1-.792.275l-.7.2.594-.42c.383-.252.912-.637 1.53-1.095a22.882 22.882 0 0 0 1.983-1.678 15.786 15.786 0 0 0 1.884-2.226 17.249 17.249 0 0 0 2.256-5.013c.119-.369.187-.712.276-1.017s.147-.579.2-.8c.109-.449.174-.706.174-.706z" class="prefix__cls-2" data-name="Path 4427" transform="translate(-4047.024 -2241.659)"/>
            <path id="prefix__Path_4428" d="M4167.778 2200.344l-.663-.122c-.424-.09-1.006-.192-1.71-.3-.351-.059-.732-.1-1.132-.138s-.823-.044-1.253-.08c-.433 0-.878 0-1.327.034a9.654 9.654 0 0 0-1.349.16 13.93 13.93 0 0 0-4.708 1.775c-.312.168-.573.363-.826.51s-.458.3-.632.421l-.562.371s.135-.2.392-.55a5.329 5.329 0 0 1 .493-.6 8.007 8.007 0 0 1 .712-.723 9.563 9.563 0 0 1 2.1-1.472 8.936 8.936 0 0 1 1.348-.576 10.75 10.75 0 0 1 1.472-.377 10.893 10.893 0 0 1 1.51-.133 10.367 10.367 0 0 1 1.458.075 10.878 10.878 0 0 1 2.479.618 9.8 9.8 0 0 1 1.62.755z" class="prefix__cls-2" data-name="Path 4428" transform="translate(-4110.162 -2189.139)"/>
            <path id="prefix__Path_4429" d="M4356.19 2420.39a5.218 5.218 0 0 1 .754 1.094 7.322 7.322 0 0 1 .791 2.817 5.718 5.718 0 0 1-.521 2.909 3.853 3.853 0 0 1-.54.814c-.154.177-.251.267-.251.267s.027-.135.091-.352a6.489 6.489 0 0 0 .192-.9 11.132 11.132 0 0 0 .1-2.677 22.4 22.4 0 0 0-.363-2.7l-.253-1.272z" class="prefix__cls-2" data-name="Path 4429" transform="translate(-4284.985 -2380.6)"/>
            <path id="prefix__Path_4430" d="M3856.076 2392.3a6.48 6.48 0 0 0-.563.461 9.505 9.505 0 0 0-.991 1c-.167.189-.314.394-.469.585s-.286.387-.41.559l-.321.421a1.88 1.88 0 0 1-.142.164 2.529 2.529 0 0 1-.037-.773 2.675 2.675 0 0 1 .193-.769 3.354 3.354 0 0 1 .477-.791 3.013 3.013 0 0 1 .719-.6 2.29 2.29 0 0 1 .758-.288 1.737 1.737 0 0 1 .786.031z" class="prefix__cls-2" data-name="Path 4430" transform="translate(-3850.842 -2356.316)"/>
            <path id="prefix__Path_4431" d="M3874.351 2417.52a.956.956 0 0 1-.1.183c-.074.1-.161.266-.278.428-.227.336-.515.738-.787 1.152s-.563.828-.806 1.156l-.316.4a1.639 1.639 0 0 1-.14.154 2.524 2.524 0 0 1-.046-.739 3.187 3.187 0 0 1 .539-1.5 3.009 3.009 0 0 1 1.22-1.04 2.726 2.726 0 0 1 .714-.194z" class="prefix__cls-2" data-name="Path 4431" transform="translate(-3867.015 -2378.123)"/>
            <path id="prefix__Path_4432" d="M3897.065 2425.361s-.044.334-.109.8-.2 1.058-.34 1.642-.317 1.16-.473 1.606c-.072.223-.166.412-.206.546a2.063 2.063 0 0 1-.1.213 3.1 3.1 0 0 1-.231-.8 4.713 4.713 0 0 1 .1-1.789 4.813 4.813 0 0 1 .753-1.624 3.672 3.672 0 0 1 .408-.452.814.814 0 0 1 .198-.142z" class="prefix__cls-2" data-name="Path 4432" transform="translate(-3887.464 -2384.89)"/>
            <path id="prefix__Path_4433" d="M3883.969 2413.65s-.215.405-.482.994-.615 1.35-.911 2.128-.561 1.575-.758 2.195c-.1.309-.2.571-.252.758s-.111.294-.111.294a4.867 4.867 0 0 1-.167-1.124 5.7 5.7 0 0 1 .071-1.163 7.147 7.147 0 0 1 .348-1.293 6.165 6.165 0 0 1 1.347-2.1 3.866 3.866 0 0 1 .915-.689z" class="prefix__cls-2" data-name="Path 4433" transform="translate(-3875.135 -2374.783)"/>
            <path id="prefix__Path_4434" d="M3907.613 2423.76a6.82 6.82 0 0 1 .054 1.179 10.261 10.261 0 0 1-.441 2.519 9.334 9.334 0 0 1-1.076 2.33 5.669 5.669 0 0 1-.746.918s.016-.122.062-.321.105-.486.2-.815c.169-.665.415-1.526.675-2.385s.556-1.712.81-2.354.462-1.071.462-1.071z" class="prefix__cls-2" data-name="Path 4434" transform="translate(-3895.953 -2383.509)"/>
            <path id="prefix__Path_4435" d="M3863.894 2399.772s-.164.221-.38.505-.51.6-.792.924-.578.629-.826.882l-.321.312a1.59 1.59 0 0 1-.142.123 1.823 1.823 0 0 1-.021-.664 2.49 2.49 0 0 1 .619-1.277 2.575 2.575 0 0 1 1.2-.75 1.8 1.8 0 0 1 .663-.055z" class="prefix__cls-2" data-name="Path 4435" transform="translate(-3857.972 -2362.799)"/>
            <path id="prefix__Path_4436" d="M3871.254 2398.527s-.261.286-.65.667-.922.835-1.441 1.288-1.03.9-1.419 1.263c-.184.185-.373.329-.473.453a2.581 2.581 0 0 1-.194.179 2.826 2.826 0 0 1 .227-.934 4.777 4.777 0 0 1 1.25-1.665 5.833 5.833 0 0 1 1.775-1.039 4.077 4.077 0 0 1 .925-.212z" class="prefix__cls-2" data-name="Path 4436" transform="translate(-3862.876 -2361.733)"/>
            <path id="prefix__Path_4437" d="M3901.695 2444.712a.828.828 0 0 1 .057.226 4.987 4.987 0 0 1 .051.593 6.435 6.435 0 0 1-.236 1.714 5.827 5.827 0 0 1-.705 1.591 2.775 2.775 0 0 1-.552.621s.015-.336.049-.8a10.176 10.176 0 0 1 .312-1.66 8.872 8.872 0 0 1 .614-1.583c.226-.424.41-.702.41-.702z" class="prefix__cls-2" data-name="Path 4437" transform="translate(-3891.556 -2401.59)"/>
            <path id="prefix__Path_4438" d="M4304.662 2428.618s-.027.582 0 1.42c.01.419.026.9.063 1.416s.083 1.058.163 1.6a26.553 26.553 0 0 0 .561 2.971c.091.41.171.758.24 1s.083.391.083.391-.1-.109-.247-.313a6.7 6.7 0 0 1-.575-.884 7.815 7.815 0 0 1-.6-1.369 9.658 9.658 0 0 1-.386-1.675 8.673 8.673 0 0 1 .17-3.2 5.545 5.545 0 0 1 .528-1.357z" class="prefix__cls-2" data-name="Path 4438" transform="translate(-4239.85 -2387.701)"/>
            <path id="prefix__Path_4439" d="M4351.5 2438.861a3.686 3.686 0 0 1 .563 1 5.464 5.464 0 0 1 .313 2.5 6.9 6.9 0 0 1-.12.684 4.973 4.973 0 0 1-.2.642 4.15 4.15 0 0 1-.256.571 2.9 2.9 0 0 1-.288.479 4.137 4.137 0 0 1-.532.639 2.936 2.936 0 0 1-.229.216s.02-.118.073-.307.126-.455.2-.77a14.839 14.839 0 0 0 .42-2.254 16.534 16.534 0 0 0 .091-2.3c.002-.641-.035-1.1-.035-1.1z" class="prefix__cls-2" data-name="Path 4439" transform="translate(-4280.292 -2396.541)"/>
            <path id="prefix__Path_4440" d="M4337.571 2428.618a1.045 1.045 0 0 1 .249.187 3.294 3.294 0 0 1 .52.632 4.9 4.9 0 0 1 .7 2.361 6.571 6.571 0 0 1-.1 1.31 5.612 5.612 0 0 1-.326 1.088 4.967 4.967 0 0 1-.53.971s-.01-.115-.008-.306.009-.456.015-.778.016-.679.033-1.061c0-.384.01-.785-.015-1.186a13.184 13.184 0 0 0-.257-2.194 5.982 5.982 0 0 0-.281-1.024z" class="prefix__cls-2" data-name="Path 4440" transform="translate(-4268.916 -2387.701)"/>
            <path id="prefix__Path_4441" d="M4339.377 2449.788a5.1 5.1 0 0 1 .3 1.215 7.786 7.786 0 0 1-.166 2.732 7.938 7.938 0 0 1-.478 1.392 6.1 6.1 0 0 1-.634 1.115 5.29 5.29 0 0 1-.582.7c-.15.158-.246.24-.246.24s.027-.127.091-.333.153-.5.257-.841c.212-.686.476-1.579.686-2.487s.406-1.823.539-2.53.233-1.203.233-1.203z" class="prefix__cls-2" data-name="Path 4441" transform="translate(-4268.916 -2405.971)"/>
            <path id="prefix__Path_4442" d="M4324.519 2432.032a1.649 1.649 0 0 1 .273.285 4.067 4.067 0 0 1 .53.9 7.081 7.081 0 0 1 .483 3.109 9.409 9.409 0 0 1-1.1 3.968c-.113.22-.19.34-.19.34s0-.145.015-.391.051-.589.087-1 .086-.882.136-1.391.1-1.038.118-1.57a15.611 15.611 0 0 0-.066-2.917 5.733 5.733 0 0 0-.286-1.333z" class="prefix__cls-2" data-name="Path 4442" transform="translate(-4257.652 -2390.647)"/>
            <path id="prefix__Path_4443" d="M4311.446 2425.886s.031.436.04 1.059-.037 1.433-.08 2.233-.095 1.6-.13 2.207c-.006.3-.047.57-.038.752-.008.185-.022.3-.022.3a3.917 3.917 0 0 1-.47-.976 6.593 6.593 0 0 1-.27-2.334 7.967 7.967 0 0 1 .486-2.278 5.432 5.432 0 0 1 .484-.963z" class="prefix__cls-2" data-name="Path 4443" transform="translate(-4245.523 -2385.343)"/>
            <path id="prefix__Path_4444" d="M4321.8 2448.43a3.33 3.33 0 0 1 .356.739 4.752 4.752 0 0 1 .218 1.74 4 4 0 0 1-.5 1.706 2.406 2.406 0 0 1-.536.633 1.954 1.954 0 0 1 0-.229c.022-.135 0-.341.023-.562.018-.453.048-1.028.083-1.61s.1-1.174.18-1.632.176-.785.176-.785z" class="prefix__cls-2" data-name="Path 4444" transform="translate(-4254.902 -2404.799)"/>
            <path id="prefix__Path_4445" d="M4335.846 2458.837a3.363 3.363 0 0 1 .356.739 4.742 4.742 0 0 1 .218 1.739 4 4 0 0 1-.5 1.706 2.419 2.419 0 0 1-.537.633 2.26 2.26 0 0 1 0-.229c.022-.135 0-.341.024-.562.017-.453.047-1.027.083-1.61s.1-1.174.18-1.632.176-.784.176-.784z" class="prefix__cls-2" data-name="Path 4445" transform="translate(-4267.026 -2413.78)"/>
            <path id="prefix__Path_4446" d="M4360.949 2413.529a10.183 10.183 0 0 1 .945 1.772 12.962 12.962 0 0 1 .649 1.961 13.627 13.627 0 0 1 .372 2.352c0 .408.041.814.009 1.217a8.2 8.2 0 0 1-.112 1.175 6.409 6.409 0 0 1-.225 1.081 5.858 5.858 0 0 1-.306.938 6.713 6.713 0 0 1-.668 1.306c-.187.3-.3.46-.3.46s.044-.2.138-.534c.048-.165.1-.365.171-.6.041-.238.085-.5.149-.785s.086-.6.138-.923.065-.675.091-1.032c.042-.356.016-.729.029-1.106s-.027-.76-.04-1.142a30.013 30.013 0 0 0-.6-4.213c-.233-1.151-.44-1.927-.44-1.927z" class="prefix__cls-2" data-name="Path 4446" transform="translate(-4289.091 -2374.679)"/>
            <path id="prefix__Path_4447" d="M4371.994 2428.439a5.577 5.577 0 0 1 .726 1 8.019 8.019 0 0 1 .916 2.545 6.7 6.7 0 0 1-.072 2.725 4.32 4.32 0 0 1-.313.849c-.093.2-.158.3-.158.3s-.015-.128-.019-.341c.013-.209-.025-.512-.042-.862a24.009 24.009 0 0 0-.313-2.513c-.147-.907-.357-1.814-.5-2.514s-.225-1.189-.225-1.189z" class="prefix__cls-2" data-name="Path 4447" transform="translate(-4298.622 -2387.547)"/>
            <path id="prefix__Path_4448" d="M4300.682 2417.013a6.971 6.971 0 0 0-.011 1.11c0 .661-.021 1.524-.051 2.381s-.065 1.718-.09 2.362c0 .324-.034.607-.019.8 0 .2-.015.316-.015.316a4.432 4.432 0 0 1-.494-1.038 7.347 7.347 0 0 1-.313-2.476 8.622 8.622 0 0 1 .458-2.438 5.868 5.868 0 0 1 .343-.759.7.7 0 0 1 .192-.258z" class="prefix__cls-2" data-name="Path 4448" transform="translate(-4236.218 -2377.686)"/>
            <path id="prefix__Path_4449" d="M4341.983 2268.214a2.49 2.49 0 0 1-.583.511c-.4.282-.986.664-1.7 1.084-1.424.854-3.355 1.9-5.25 2.969-.956.523-1.884 1.083-2.75 1.61-.412.289-.85.523-1.217.8s-.752.5-1.045.771a8.258 8.258 0 0 0-.824.721 5.784 5.784 0 0 0-.577.624l-.437.621s.067-.261.222-.743a4.124 4.124 0 0 1 .419-.8 5.665 5.665 0 0 1 .7-.937 9.147 9.147 0 0 1 .963-.984 15.258 15.258 0 0 1 1.176-.975 26.678 26.678 0 0 1 2.76-1.79 39.555 39.555 0 0 1 5.555-2.528c.779-.289 1.435-.506 1.893-.661.206-.083.4-.127.517-.193z" class="prefix__cls-2" data-name="Path 4449" transform="translate(-4260.31 -2249.272)"/>
            <path id="prefix__Path_4450" d="M4317.007 2193.086a2.469 2.469 0 0 1 .09.734 3.921 3.921 0 0 1-.107.864 4.3 4.3 0 0 1-.445 1.056 4.476 4.476 0 0 1-.846 1.07c-.18.161-.357.342-.557.5l-.645.425a11.033 11.033 0 0 1-1.437.709c-.515.154-1.034.339-1.562.469l-1.589.277c-.525.053-1.045.069-1.545.1a11.079 11.079 0 0 1-1.44-.014c-.456-.015-.886-.044-1.283-.074-1.581-.207-2.611-.454-2.611-.454s1.061-.17 2.615-.259c.389-.049.808-.1 1.249-.14s.91-.069 1.383-.15c.476-.064.963-.15 1.462-.2l1.478-.3c.49-.107.962-.263 1.439-.389.438-.2.916-.314 1.313-.536a7.048 7.048 0 0 0 1.126-.667 2.866 2.866 0 0 0 .466-.382 2.665 2.665 0 0 0 .4-.4 5.361 5.361 0 0 0 .584-.815 5.45 5.45 0 0 0 .306-.731 3.228 3.228 0 0 0 .156-.693z" class="prefix__cls-2" data-name="Path 4450" transform="translate(-4239.107 -2184.436)"/>
            <path id="prefix__Path_4451" d="M4273.995 2212.749s-.943.1-2.335.141-3.24.03-5.073 0-3.659-.088-5 .006a3.983 3.983 0 0 0-1.542.333.742.742 0 0 0-.376.448v-.173a.773.773 0 0 1 .215-.462 3.363 3.363 0 0 1 1.567-.846 17.911 17.911 0 0 1 5.161-.547 31.4 31.4 0 0 1 5.107.533 17.882 17.882 0 0 1 2.276.567z" class="prefix__cls-2" data-name="Path 4451" transform="translate(-4201.683 -2200.453)"/>
            <path id="prefix__Path_4452" d="M4210.125 2158.788s-.212.047-.583.108a3.226 3.226 0 0 1-.676.07 8.476 8.476 0 0 1-.915-.031 7.684 7.684 0 0 1-2.188-.6 12.1 12.1 0 0 1-2.227-1.284c-.694-.516-1.351-1.045-1.946-1.55s-1.155-.93-1.657-1.269a6.058 6.058 0 0 0-1.318-.634l-.567-.145s.2-.045.593-.1a4.193 4.193 0 0 1 1.6.236 9.472 9.472 0 0 1 2 1.031c.678.435 1.347.952 2.022 1.423.333.242.663.486 1 .7s.656.441.989.616a12.9 12.9 0 0 0 1.861.886l.788.252a5.372 5.372 0 0 0 .651.156c.364.077.573.135.573.135z" class="prefix__cls-2" data-name="Path 4452" transform="translate(-4148.507 -2150.137)"/>
            <path id="prefix__Path_4453" d="M4165.793 2165.392s-.594-.072-1.417-.237l-1.388-.278c-.5-.088-1.028-.219-1.555-.283a14.859 14.859 0 0 0-1.532-.193l-.7-.026c-.22.013-.43.027-.633.03a6.342 6.342 0 0 0-.964.18l-.392.1s.085-.115.265-.31a1.642 1.642 0 0 1 .355-.321 4.617 4.617 0 0 1 .535-.332 4.67 4.67 0 0 1 1.51-.414 5.6 5.6 0 0 1 .873-.026 7.926 7.926 0 0 1 3.891 1.213 5.742 5.742 0 0 1 1.152.897z" class="prefix__cls-2" data-name="Path 4453" transform="translate(-4113.261 -2158.702)"/>
            <path id="prefix__Path_4454" d="M3900.348 2185.018a2.624 2.624 0 0 0-.725.279 5.589 5.589 0 0 0-.718.468 10.6 10.6 0 0 0-.84.743 11.142 11.142 0 0 0-.883.981c-.3.353-.567.774-.854 1.187a12.409 12.409 0 0 0-.743 1.365 11.732 11.732 0 0 0-.6 1.48 12.22 12.22 0 0 0-.38 1.548 10.17 10.17 0 0 0-.175 1.541l-.038.746.042.718a8.291 8.291 0 0 0 .13 1.323c.075.407.108.793.179 1.127s.155.623.214.862l.169.771-.4-.68-.436-.8c-.151-.319-.275-.7-.422-1.112a6.2 6.2 0 0 1-.357-1.374l-.143-.77-.034-.818a8.241 8.241 0 0 1 .085-1.719 13.138 13.138 0 0 1 .383-1.742 12.893 12.893 0 0 1 .709-1.635 9.693 9.693 0 0 1 .92-1.453 9.522 9.522 0 0 1 1.072-1.191 7.44 7.44 0 0 1 1.111-.9 6.8 6.8 0 0 1 1.048-.6 4.1 4.1 0 0 1 .893-.3 1.508 1.508 0 0 1 .585-.051z" class="prefix__cls-2" data-name="Path 4454" transform="translate(-3885.526 -2177.458)"/>
            <path id="prefix__Path_4455" d="M3905.867 2247.848a12.14 12.14 0 0 0 .058 2.278c.061.671.2 1.444.36 2.263.191.815.38 1.687.661 2.539.118.432.245.862.4 1.278s.261.841.422 1.233c.277.8.567 1.542.8 2.189l.58 1.569.2.614s-.157-.174-.415-.492a14.157 14.157 0 0 1-1-1.368 16.58 16.58 0 0 1-1.175-2.092 17 17 0 0 1-1-2.578 13.064 13.064 0 0 1-.541-5.163 7.137 7.137 0 0 1 .381-1.678 3.545 3.545 0 0 1 .269-.592z" class="prefix__cls-2" data-name="Path 4455" transform="translate(-3895.729 -2231.695)"/>
            <path id="prefix__Path_4456" d="M4360.884 2342.551l-.019.2a1.474 1.474 0 0 1-.143.57 4.323 4.323 0 0 1-.441.825 6.968 6.968 0 0 1-.769.922 9.069 9.069 0 0 1-1.062.945 10.307 10.307 0 0 1-1.342.847 11.791 11.791 0 0 1-3.244 1.174 12.84 12.84 0 0 1-1.745.206 8.523 8.523 0 0 1-1.695-.034 8.091 8.091 0 0 1-1.558-.241l-.709-.154-.642-.224a9.637 9.637 0 0 1-1.9-.842l-.683-.385.769.154.862.2c.333.072.719.1 1.125.181a9.732 9.732 0 0 0 1.322.155 11.508 11.508 0 0 0 1.468.065h.772c.26-.03.521-.053.787-.071a11.985 11.985 0 0 0 1.586-.227 14.38 14.38 0 0 0 3.008-.937 12.51 12.51 0 0 0 2.418-1.348 10.989 10.989 0 0 0 .875-.693 6.1 6.1 0 0 0 .58-.625 1.655 1.655 0 0 0 .3-.478z" class="prefix__cls-2" data-name="Path 4456" transform="translate(-4275.266 -2313.425)"/>
            <path id="prefix__Path_4457" d="M4212.285 2316.747l.738-.1a4.676 4.676 0 0 0 .827-.137 8.206 8.206 0 0 0 1.021-.258 12.01 12.01 0 0 0 2.4-1.024c.413-.238.828-.5 1.234-.792a10.632 10.632 0 0 0 1.182-.948 13.13 13.13 0 0 0 1.094-1.053c.327-.382.677-.734.958-1.125a15.632 15.632 0 0 0 1.453-2.2c.167-.349.361-.66.472-.958s.259-.548.318-.771l.247-.7s.006.267-.005.748a5.645 5.645 0 0 1-.1.859 7.357 7.357 0 0 1-.268 1.1 10.2 10.2 0 0 1-1.218 2.557 10.813 10.813 0 0 1-.956 1.292 13.661 13.661 0 0 1-1.167 1.186 11.711 11.711 0 0 1-1.329 1.007 10.583 10.583 0 0 1-1.418.777 8.387 8.387 0 0 1-1.428.5 6.341 6.341 0 0 1-1.326.245 5.641 5.641 0 0 1-1.141.034 3.541 3.541 0 0 1-.853-.09z" class="prefix__cls-2" data-name="Path 4457" transform="translate(-4160.793 -2282.474)"/>
            <path id="prefix__Path_4458" d="M4267.078 2359.984a1.144 1.144 0 0 1-.022.428 4.128 4.128 0 0 1-.352 1.066 5.885 5.885 0 0 1-.872 1.332 6.479 6.479 0 0 1-.642.639 7.344 7.344 0 0 1-.752.561 6.528 6.528 0 0 1-.829.441 5.139 5.139 0 0 1-.853.308 4.55 4.55 0 0 1-.825.169 3.533 3.533 0 0 1-.748.052 4.4 4.4 0 0 1-1.106-.1c-.263-.053-.409-.095-.409-.095s.146-.063.394-.152.6-.192 1-.351c.2-.075.417-.146.636-.246s.456-.179.684-.3a10.887 10.887 0 0 0 1.393-.77 11.591 11.591 0 0 0 1.293-.928c.393-.332.751-.66 1.056-.959a6.721 6.721 0 0 0 .954-1.095z" class="prefix__cls-2" data-name="Path 4458" transform="translate(-4201.685 -2328.47)"/>
            <path id="prefix__Path_4459" d="M4005.218 2316.793s.285-.121.79-.3c.513-.161 1.223-.463 2.074-.767.849-.327 1.833-.711 2.871-1.144 1.022-.468 2.127-.929 3.156-1.523a18.555 18.555 0 0 0 5.153-3.891c.3-.332.538-.66.769-.945.2-.3.387-.567.518-.8.249-.466.411-.735.411-.735s-.056.3-.189.832a9.148 9.148 0 0 1-1.842 3.3 10.8 10.8 0 0 1-1.2 1.221 13.22 13.22 0 0 1-1.435 1.124c-.514.344-1.047.681-1.6.979a23.431 23.431 0 0 1-9.483 2.648z" class="prefix__cls-2" data-name="Path 4459" transform="translate(-3982.093 -2282.474)"/>
            <path id="prefix__Path_4460" d="M4096.681 2306.687a5.858 5.858 0 0 1-.394 2.166 8.538 8.538 0 0 1-1.043 2.03 10.8 10.8 0 0 1-1.745 1.965 12.721 12.721 0 0 1-2.174 1.456 11.007 11.007 0 0 1-2.1.823 8.722 8.722 0 0 1-1.554.323c-.379.052-.6.07-.6.07l.519-.3c.326-.2.814-.409 1.354-.746l.881-.5c.3-.2.612-.409.945-.6s.629-.471.968-.689c.326-.236.629-.511.948-.763.3-.275.612-.537.889-.826s.568-.559.8-.863a15.769 15.769 0 0 0 1.273-1.68 14.093 14.093 0 0 0 1.033-1.866z" class="prefix__cls-2" data-name="Path 4460" transform="translate(-4052.734 -2282.474)"/>
        </g>
    </g>
</svg>
