<svg xmlns="http://www.w3.org/2000/svg" width="88.776" height="72.321" viewBox="0 0 88.776 72.321">
    <defs>
        <style>
            .prefix__cls-1{fill:#2f2a22}.prefix__cls-2{fill:#1a1a1a}.prefix__cls-3{fill:#524640}
        </style>
    </defs>
    <g id="prefix__Group_3454" data-name="Group 3454" transform="translate(-4064.071 -2716.321)">
        <g id="prefix__Group_3453" data-name="Group 3453" transform="translate(4064.071 2716.321)">
            <path id="prefix__Path_8769" d="M4175.947 2798.254c-17 0-27.266 6.017-33.566 13.7 10.545-1.218 19.129 12.048 33.566 11.268s22.518-12.937 33.5-11.347c-6.307-7.646-16.555-13.621-33.5-13.621z" class="prefix__cls-1" data-name="Path 8769" transform="translate(-4125.98 -2781.094)"/>
            <path id="prefix__Path_8770" d="M4089.9 2787.948a7.3 7.3 0 0 1 .073-2.615c.368-2.1.666-4.213 1.088-6.3a26.457 26.457 0 0 1 1.875-5.583 19.532 19.532 0 0 1 2.412-4.156 18.919 18.919 0 0 0-6.926 3.276c-4.776 3.686-7.476 1.432-8.569-1.021a7.38 7.38 0 0 1-.533-3.4c-1.561 5.888 3.646 9.114 3.646 9.114-8.658-1.366-10.252-11.5-10.252-11.5.228 12.194 10.708 17.383 10.708 17.383-8.862.984-13.67-7.022-13.67-7.022 2.279 7.29 11.164 8.931 11.164 8.931-10.879-.273-16.845-11.209-16.845-11.209 2.656 10.787 16.531 16.867 25.892 14.315-.018-.069-.047-.136-.063-.213z" class="prefix__cls-2" data-name="Path 8770" transform="translate(-4064.071 -2755.412)"/>
            <path id="prefix__Path_8771" d="M4242.226 2726.153c-4.687-9.061-17.185-15-30-3.437s.313 42.18-18.747 53.428c0 0 11.584-3.955 13.134-21.193s17.173-27.861 17.173-27.861z" class="prefix__cls-1" data-name="Path 8771" transform="translate(-4166.381 -2716.321)"/>
            <path id="prefix__Path_8772" d="M4157.7 2739.9c-7.187-2.187-22.809.312-22.809 19.372s-6.874 44.055-17.5 47.492c0 0 15.935-2.82 20.153-42.41l8.141-6.291z" class="prefix__cls-1" data-name="Path 8772" transform="translate(-4106.229 -2734.44)"/>
            <path id="prefix__Path_8773" d="M4158.077 2773.734c-2.806.933-6.455 7.841-6.615 20.844-.24 19.559-4.928 21.276-9.081 23.506 0 0 9.557-.091 12.265-16.13l5.416-23.084z" class="prefix__cls-1" data-name="Path 8773" transform="translate(-4125.98 -2761.71)"/>
            <path id="prefix__Path_8774" d="M4205.042 2871.918l-.417.171c.022.043.092-.021.034.015a2.608 2.608 0 0 0-.3.371 8.6 8.6 0 0 0-.8 1.537c-.273.681-.57 1.471-.859 2.374a136.5 136.5 0 0 1-4.613 13.392 41.2 41.2 0 0 1-3.674 6.686 29.9 29.9 0 0 1-2.168 2.76 27.8 27.8 0 0 1-2.233 2.2 22.681 22.681 0 0 1-2.1 1.6c-.637.459-1.256.762-1.731 1.06l-1.583.777 1.519-.886c.452-.331 1.04-.672 1.636-1.171a22.507 22.507 0 0 0 1.951-1.716 27.183 27.183 0 0 0 2.021-2.3 29.034 29.034 0 0 0 1.91-2.827 39.945 39.945 0 0 0 3.091-6.727 135.28 135.28 0 0 0 3.6-13.538c.23-.947.488-1.828.742-2.617a11.225 11.225 0 0 1 .923-2.111 5.486 5.486 0 0 1 .587-.827 4.414 4.414 0 0 1 .869-.707l.42-.208z" class="prefix__cls-1" data-name="Path 8774" transform="translate(-4159.351 -2837.203)"/>
            <path id="prefix__Path_8775" d="M4217.508 2913.125l1.069-.551a17.249 17.249 0 0 0 2.6-1.773 13.631 13.631 0 0 0 1.519-1.445 18.959 18.959 0 0 0 1.457-1.823 23.06 23.06 0 0 0 1.268-2.149c.409-.744.738-1.548 1.076-2.341a40.309 40.309 0 0 0 1.565-4.834c.225-.779.378-1.553.547-2.278s.3-1.418.42-2.059c.255-1.276.414-2.351.53-3.1l.184-1.179 1.45.245-.25 1.186c-.158.754-.375 1.833-.7 3.116-.155.643-.32 1.339-.536 2.067s-.407 1.5-.678 2.287a41.167 41.167 0 0 1-1.855 4.846c-.389.795-.768 1.6-1.228 2.338a23.528 23.528 0 0 1-1.414 2.132 19.253 19.253 0 0 1-1.588 1.787 13.931 13.931 0 0 1-1.622 1.388 17.447 17.447 0 0 1-2.719 1.649z" class="prefix__cls-1" data-name="Path 8775" transform="translate(-4185.373 -2853.302)"/>
            <path id="prefix__Path_8776" d="M4223.923 2850.391c1.521.857 3.089 1.684 4.727 2.407.586-5.508.647-14.122.647-14.122-3.025 1.839-5.373 11.712-5.374 11.715z" class="prefix__cls-2" data-name="Path 8776" transform="translate(-4190.445 -2813.052)"/>
            <path id="prefix__Path_8777" d="M4255.743 2750.017c7.082-.873 10.495-30.014-12.307-30.014-30.053 0-15.935 35.931-42.493 43.118 0 0 13.748 0 21.268-20.309z" class="prefix__cls-1" data-name="Path 8777" transform="translate(-4172.277 -2719.232)"/>
        </g>
        <path id="prefix__Path_8778" d="M4300.973 2744.6l-.035-.96c-.029-.624-.1-1.541-.258-2.693a18.212 18.212 0 0 0-1.05-4.031 11.435 11.435 0 0 0-8.444-7.245 22.242 22.242 0 0 0-7.012-.509 30.281 30.281 0 0 0-23.912 17.281 28 28 0 0 0-2.115 6.771l-.974 6.389c-.639 3.962-1.3 7.243-1.861 9.518-.277 1.138-.546 2.02-.753 2.612a5.673 5.673 0 0 1-.373.885 5.684 5.684 0 0 0 .32-.9c.175-.6.377-1.5.608-2.639.471-2.287.95-5.591 1.47-9.559l.808-6.429a27.72 27.72 0 0 1 2.012-7.027 29.243 29.243 0 0 1 4.081-6.681 31.614 31.614 0 0 1 5.865-5.565 29.505 29.505 0 0 1 14.743-5.645 22.078 22.078 0 0 1 7.322.629 12.935 12.935 0 0 1 5.76 3.217 12.04 12.04 0 0 1 2.9 4.736 18.539 18.539 0 0 1 .849 4.166 22.817 22.817 0 0 1 .085 2.721l-.036.958z" class="prefix__cls-3" data-name="Path 8778" transform="translate(-150.299 -9.316)"/>
        <path id="prefix__Path_8779" d="M4439.688 2771.327a.992.992 0 0 0 .2-.2 3.825 3.825 0 0 0 .379-.683 16.562 16.562 0 0 0 .876-2.668 28.845 28.845 0 0 0 .715-3.9 24.65 24.65 0 0 0 .163-4.494 16.146 16.146 0 0 0-.266-2.247 13.291 13.291 0 0 0-.583-2.093 10.9 10.9 0 0 0-.879-1.823 8.924 8.924 0 0 0-1.118-1.437 12.127 12.127 0 0 0-1.183-1.015 11.216 11.216 0 0 0-1.025-.663l-.963-.486s.382.089 1.051.29a11.6 11.6 0 0 1 1.154.51 7.455 7.455 0 0 1 1.386.907 9.645 9.645 0 0 1 1.36 1.436 8.765 8.765 0 0 1 1.116 1.913 13.487 13.487 0 0 1 1.051 4.642 20.564 20.564 0 0 1-.306 4.7 23.132 23.132 0 0 1-1.083 3.939 12.46 12.46 0 0 1-1.28 2.588 2.924 2.924 0 0 1-.527.623 1.019 1.019 0 0 1-.238.161z" class="prefix__cls-3" data-name="Path 8779" transform="translate(-294.037 -26.327)"/>
        <path id="prefix__Path_8780" d="M4283.846 2773.931a3.62 3.62 0 0 0 .568-.543 7 7 0 0 0 1.1-1.908 13.258 13.258 0 0 0 .463-7.706 10.508 10.508 0 0 0-2.3-4.545 8.908 8.908 0 0 0-4.762-2.855 13.045 13.045 0 0 0-6.052.312 20.825 20.825 0 0 0-5.809 2.61 22.922 22.922 0 0 0-8.427 9.18c-.433.9-.825 1.853-1.238 2.748s-.884 1.782-1.336 2.617a50.358 50.358 0 0 1-2.854 4.537 44.376 44.376 0 0 1-5.218 6.056 24.251 24.251 0 0 1-2.277 1.993s.827-.728 2.122-2.145a51.069 51.069 0 0 0 4.857-6.258 49.805 49.805 0 0 0 2.653-4.563c.858-1.656 1.563-3.485 2.428-5.4a23.894 23.894 0 0 1 8.7-9.692 21.9 21.9 0 0 1 6.136-2.673 14.019 14.019 0 0 1 6.52-.251 9.335 9.335 0 0 1 5.168 3.267 11.225 11.225 0 0 1 2.3 4.934 13.159 13.159 0 0 1-.874 7.925 6.607 6.607 0 0 1-1.25 1.863 3.6 3.6 0 0 1-.618.497z" class="prefix__cls-3" data-name="Path 8780" transform="translate(-143.591 -30.708)"/>
        <path id="prefix__Path_8781" d="M4397.763 2749.622a23.526 23.526 0 0 1 3.116.523 12.807 12.807 0 0 1 1.483.455 9.707 9.707 0 0 1 1.6.731 9 9 0 0 1 1.554 1.113 8.67 8.67 0 0 1 1.28 1.525 4.446 4.446 0 0 1 .485.872 6.549 6.549 0 0 1 .389.905 9.141 9.141 0 0 1 .446 1.839 8.716 8.716 0 0 1 .142 1.74 8.529 8.529 0 0 1-.061 1.547 15.035 15.035 0 0 1-.364 2.269c-.116.541-.2.844-.2.844s-.015-.319-.016-.868c0-.273 0-.6.006-.986s-.053-.807-.062-1.269a12.089 12.089 0 0 0-.127-1.481 11.268 11.268 0 0 0-.275-1.614 10.664 10.664 0 0 0-.49-1.65 5.491 5.491 0 0 0-.362-.794 3.757 3.757 0 0 0-.438-.755 7.582 7.582 0 0 0-1.086-1.352l-.643-.569-.688-.493a12.86 12.86 0 0 0-1.414-.8c-.466-.236-.93-.424-1.355-.609z" class="prefix__cls-3" data-name="Path 8781" transform="translate(-263.806 -26.327)"/>
        <path id="prefix__Path_8782" d="M4290.165 2721.7s-.5.186-1.369.476c-.437.144-.948.363-1.539.589s-1.233.556-1.951.849c-.692.362-1.465.692-2.24 1.13-.79.409-1.593.888-2.418 1.391s-1.642 1.077-2.472 1.652c-.82.593-1.638 1.214-2.407 1.895-.809.633-1.525 1.371-2.258 2.063-.675.749-1.406 1.428-1.989 2.2-.631.728-1.18 1.478-1.692 2.2-.546.7-.923 1.45-1.359 2.1-.416.656-.7 1.308-1.024 1.86a12.636 12.636 0 0 0-.7 1.488c-.366.84-.6 1.32-.6 1.32s.1-.514.326-1.414a12.943 12.943 0 0 1 .468-1.606 19.031 19.031 0 0 1 .778-2.035 21.028 21.028 0 0 1 1.184-2.3 20.313 20.313 0 0 1 1.6-2.411 25.973 25.973 0 0 1 1.985-2.381c.753-.736 1.492-1.523 2.327-2.2.815-.7 1.679-1.332 2.543-1.935a30.255 30.255 0 0 1 2.638-1.607 25.458 25.458 0 0 1 2.593-1.26c.827-.393 1.662-.643 2.4-.926a30.873 30.873 0 0 1 3.732-.933c.919-.141 1.444-.205 1.444-.205z" class="prefix__cls-3" data-name="Path 8782" transform="translate(-159.756 -4.256)"/>
        <path id="prefix__Path_8783" d="M4383.784 2787.427l-.325-.083a3.7 3.7 0 0 1-.894-.353 6.55 6.55 0 0 1-2.49-2.387 7.85 7.85 0 0 1-1.207-4.8 11.569 11.569 0 0 1 .611-2.715 10.062 10.062 0 0 0 .331-2.58 7.8 7.8 0 0 0-1.54-4.779 5.821 5.821 0 0 0-3.781-2.185 9.843 9.843 0 0 0-3.285.038c-.8.125-1.254.244-1.254.244l.313-.121a8.789 8.789 0 0 1 .9-.316 10.079 10.079 0 0 1 1.449-.332 7.738 7.738 0 0 1 1.951-.092 6.569 6.569 0 0 1 4.426 2.167 8.377 8.377 0 0 1 1.907 5.362 9.758 9.758 0 0 1-.37 2.9 12.056 12.056 0 0 0-.627 2.5 7.846 7.846 0 0 0 .771 4.37 7.257 7.257 0 0 0 2.027 2.517 5.127 5.127 0 0 0 .789.491z" class="prefix__cls-3" data-name="Path 8783" transform="translate(-241.819 -40.021)"/>
        <path id="prefix__Path_8784" d="M4273.3 2831.688l.151-.947c.044-.3.18-.653.293-1.07a11.812 11.812 0 0 1 .537-1.34 25.866 25.866 0 0 1 1.835-3.091c.749-1.072 1.555-2.2 2.314-3.353a32.625 32.625 0 0 0 2.085-3.456l.806-1.672c.219-.548.444-1.061.621-1.547.323-.981.622-1.8.75-2.392l.261-.922-.121.951a18.663 18.663 0 0 1-.5 2.489 22.328 22.328 0 0 1-1.249 3.376 32.809 32.809 0 0 1-2.047 3.583c-.8 1.151-1.636 2.265-2.405 3.312s-1.472 2.022-1.989 2.914c-.229.457-.483.864-.647 1.245s-.329.71-.409 1.006c-.186.582-.286.914-.286.914z" class="prefix__cls-3" data-name="Path 8784" transform="translate(-165.406 -75.561)"/>
        <path id="prefix__Path_8785" d="M4307.526 2819.982c-7.107-.817-4.064-10.884-8.616-12.587-.313-.1-.646-.182-.967-.274-4.117-.857-7.4.944-9.726 6.823-2.508 6.334-9.034 8.593-11.009 15.791a24.653 24.653 0 0 0 5.329.341c10.509-.568 17.651-7.147 24.995-10.08z" class="prefix__cls-2" data-name="Path 8785" transform="translate(-168.5 -71.624)"/>
        <path id="prefix__Path_8786" d="M4387.507 2783.213a4.007 4.007 0 0 1 .7-.164 2.971 2.971 0 0 1 1.906.4 4.316 4.316 0 0 1 1.759 2.166 5.428 5.428 0 0 1 .374 1.546 11.47 11.47 0 0 1 0 1.6 16.853 16.853 0 0 0 .461 5.572 6.2 6.2 0 0 0 .8 1.66 6.868 6.868 0 0 0 .428.574 4.21 4.21 0 0 1-.538-.483 5.377 5.377 0 0 1-1.076-1.6 9.658 9.658 0 0 1-.7-2.645 20.956 20.956 0 0 1-.106-3.107 7.011 7.011 0 0 0-.253-2.894 4.062 4.062 0 0 0-1.38-2.043 2.993 2.993 0 0 0-1.667-.605 3.645 3.645 0 0 0-.708.023z" class="prefix__cls-3" data-name="Path 8786" transform="translate(-255.698 -52.735)"/>
        <path id="prefix__Path_8787" d="M4194.817 2827.321c-.77 4.8-3.331 22.693-10.225 28.821l2.248-16.132s2.738-17.054 2.864-17.068 5.113 4.379 5.113 4.379z" class="prefix__cls-1" data-name="Path 8787" transform="translate(-95.28 -84.291)"/>
        <path id="prefix__Path_8788" d="M4256.578 2739.241l-1.021 1.073c-.659.668-1.562 1.665-2.585 2.885a19.914 19.914 0 0 0-2.872 4.544 18.06 18.06 0 0 0-1 2.84 21.256 21.256 0 0 0-.593 3.066c-.131 1.042-.209 2.092-.259 3.153-.036 1.039-.092 2.07-.076 3.065.006 1.989.14 3.858.174 5.489a22.726 22.726 0 0 1-.281 3.915c-.146.933-.267 1.458-.267 1.458l.053-1.478a30.843 30.843 0 0 0-.125-3.864c-.127-1.588-.453-3.456-.526-5.5a41.494 41.494 0 0 1 .213-6.38 22.263 22.263 0 0 1 .662-3.214 16.677 16.677 0 0 1 1.155-2.971 18.756 18.756 0 0 1 3.283-4.538 32.235 32.235 0 0 1 2.9-2.632c.732-.59 1.165-.911 1.165-.911z" class="prefix__cls-3" data-name="Path 8788" transform="translate(-144.743 -18.12)"/>
        <path id="prefix__Path_8789" d="M4200.747 2754.41l-.441.274a6.53 6.53 0 0 0-1.093.947 15.587 15.587 0 0 0-1.428 1.74c-.5.715-1.01 1.551-1.553 2.474-.515.939-1.037 1.974-1.529 3.1s-.933 2.338-1.373 3.6c-.421 1.267-.813 2.591-1.121 3.959a37.012 37.012 0 0 0-.737 4.18 38.891 38.891 0 0 0-.382 4.227c-.032 1.393-.042 2.8-.032 4.148-.008 1.356-.07 2.682-.183 3.923s-.241 2.417-.421 3.494a18.265 18.265 0 0 1-1.474 5.054 5.4 5.4 0 0 1-.793 1.246 1.935 1.935 0 0 1-.378.356 1.917 1.917 0 0 0 .332-.393 6.148 6.148 0 0 0 .644-1.3 20.381 20.381 0 0 0 1.055-5.052 62.713 62.713 0 0 0 .263-7.321c-.034-1.353-.049-2.741-.041-4.186a38.75 38.75 0 0 1 .319-4.343 38.019 38.019 0 0 1 .83-4.274c.339-1.4.764-2.745 1.218-4.035a34.257 34.257 0 0 1 1.548-3.623c.563-1.12 1.15-2.148 1.725-3.077l.881-1.3.879-1.109a15.928 15.928 0 0 1 1.6-1.645 5.729 5.729 0 0 1 1.211-.844z" class="prefix__cls-3" data-name="Path 8789" transform="translate(-97.823 -30.112)"/>
        <path id="prefix__Path_8790" d="M4215.928 2773.734l-.2.2c-.105.162-.244.368-.413.665-.358.579-.766 1.469-1.285 2.512s-1.044 2.3-1.595 3.648-1.1 2.794-1.605 4.258-.943 2.946-1.315 4.347c-.149.708-.356 1.382-.487 2.033s-.258 1.269-.35 1.843c-.064.576-.147 1.1-.222 1.575s-.077.883-.112 1.224l-.1 1.077-.115-1.075c-.019-.343-.09-.764-.083-1.244s-.008-1.026.015-1.62a32.157 32.157 0 0 1 .507-4.027 37.028 37.028 0 0 1 1.219-4.487 41.491 41.491 0 0 1 1.763-4.294 40.05 40.05 0 0 1 1.938-3.551 21.083 21.083 0 0 1 1.653-2.338 5.758 5.758 0 0 1 .556-.592z" class="prefix__cls-3" data-name="Path 8790" transform="translate(-113.818 -45.389)"/>
        <path id="prefix__Path_8791" d="M4180.652 2792.447s-.583 2.223-1.118 5.6c-.288 1.684-.514 3.665-.7 5.786s-.265 4.375-.295 6.672c-.027 1.136-.089 2.311-.183 3.437-.077 1.133-.231 2.244-.391 3.315a32.889 32.889 0 0 1-1.4 5.755 19.739 19.739 0 0 1-1.756 3.8 12.672 12.672 0 0 1-.9 1.3s.286-.5.707-1.4a24.489 24.489 0 0 0 1.353-3.88 38.326 38.326 0 0 0 1.034-5.7c.24-2.115.392-4.369.434-6.647a63.41 63.41 0 0 1 .433-6.748 55.329 55.329 0 0 1 1.057-5.806c.387-1.683.846-3.049 1.161-4s.564-1.484.564-1.484z" class="prefix__cls-3" data-name="Path 8791" transform="translate(-86.836 -60.183)"/>
    </g>
</svg>
