<svg xmlns="http://www.w3.org/2000/svg" xmlns:xlink="http://www.w3.org/1999/xlink" id="prefix__Group_4017" width="89" height="27.371" data-name="Group 4017" viewBox="0 0 89 27.371">
    <defs>
        <linearGradient id="prefix__linear-gradient" x2="1" y1=".5" y2=".5" gradientUnits="objectBoundingBox">
            <stop offset="0" stop-color="#e6e6e6"/>
            <stop offset=".426" stop-color="#eee"/>
            <stop offset="1" stop-color="#f2f2f2"/>
        </linearGradient>
        <linearGradient id="prefix__linear-gradient-2" x1=".099" x2=".349" y1=".084" y2=".349" gradientUnits="objectBoundingBox">
            <stop offset="0" stop-color="#8e7869"/>
            <stop offset=".012" stop-color="#927c6e" stop-opacity=".961"/>
            <stop offset=".099" stop-color="#ab9c91" stop-opacity=".706"/>
            <stop offset=".193" stop-color="#c1b6af" stop-opacity=".486"/>
            <stop offset=".296" stop-color="#d3ccc7" stop-opacity=".306"/>
            <stop offset=".409" stop-color="#e1ddda" stop-opacity=".169"/>
            <stop offset=".54" stop-color="#eae9e7" stop-opacity=".075"/>
            <stop offset=".703" stop-color="#f0efef" stop-opacity=".016"/>
            <stop offset="1" stop-color="#f2f2f2" stop-opacity="0"/>
        </linearGradient>
        <linearGradient id="prefix__linear-gradient-3" x1="1.017" x2=".569" y1=".879" y2=".551" gradientUnits="objectBoundingBox">
            <stop offset=".052" stop-color="#8e7869"/>
            <stop offset=".063" stop-color="#927c6e" stop-opacity=".961"/>
            <stop offset=".146" stop-color="#ab9c91" stop-opacity=".706"/>
            <stop offset=".235" stop-color="#c1b6af" stop-opacity=".486"/>
            <stop offset=".332" stop-color="#d3ccc7" stop-opacity=".306"/>
            <stop offset=".44" stop-color="#e1ddda" stop-opacity=".169"/>
            <stop offset=".564" stop-color="#eae9e7" stop-opacity=".075"/>
            <stop offset=".719" stop-color="#f0efef" stop-opacity=".016"/>
            <stop offset="1" stop-color="#f2f2f2" stop-opacity="0"/>
        </linearGradient>
        <linearGradient id="prefix__linear-gradient-4" x2="1" y1=".5" y2=".5" gradientUnits="objectBoundingBox">
            <stop offset="0" stop-color="#845035"/>
            <stop offset="1" stop-color="#42210b"/>
        </linearGradient>
        <linearGradient id="prefix__linear-gradient-5" x2="1" y1=".5" y2=".5" gradientUnits="objectBoundingBox">
            <stop offset="0"/>
            <stop offset=".138"/>
            <stop offset="1"/>
        </linearGradient>
        <linearGradient id="prefix__linear-gradient-6" x1="75.34" x2="77.185" y1="-103.648" y2="-103.341" gradientUnits="objectBoundingBox">
            <stop offset="0" stop-color="#f2f2f2" stop-opacity="0"/>
            <stop offset=".495" stop-color="#b9b7b8"/>
            <stop offset="1" stop-color="#f2f2f2" stop-opacity="0"/>
        </linearGradient>
        <linearGradient id="prefix__linear-gradient-7" x1=".089" x2=".911" y1=".5" y2=".5" gradientUnits="objectBoundingBox">
            <stop offset="0" stop-color="#f2f2f2"/>
            <stop offset=".574" stop-color="#eee"/>
            <stop offset="1" stop-color="#e6e6e6"/>
        </linearGradient>
        <linearGradient id="prefix__linear-gradient-8" x1="1" x2="0" y1=".5" y2=".5" xlink:href="#prefix__linear-gradient"/>
        <linearGradient id="prefix__linear-gradient-9" x1=".901" x2=".651" y1=".084" y2=".349" xlink:href="#prefix__linear-gradient-2"/>
        <linearGradient id="prefix__linear-gradient-10" x1="-.017" x2=".431" y1=".879" y2=".551" xlink:href="#prefix__linear-gradient-3"/>
        <linearGradient id="prefix__linear-gradient-11" x1="1" x2="0" y1=".5" y2=".5" xlink:href="#prefix__linear-gradient-4"/>
        <linearGradient id="prefix__linear-gradient-12" x1="1" x2="0" y1=".5" y2=".5" xlink:href="#prefix__linear-gradient-5"/>
        <linearGradient id="prefix__linear-gradient-13" x1="75.34" x2="77.185" y1="104.648" y2="104.341" xlink:href="#prefix__linear-gradient-6"/>
        <radialGradient id="prefix__radial-gradient" cx=".5" cy=".5" r=".606" gradientTransform="matrix(.719 0 0 1 .141 0)" gradientUnits="objectBoundingBox">
            <stop offset="0" stop-color="#e6e6e6" stop-opacity="0"/>
            <stop offset=".377" stop-color="#e6e6e6" stop-opacity=".008"/>
            <stop offset=".512" stop-color="#e6e6e6" stop-opacity=".035"/>
            <stop offset=".609" stop-color="#e7e7e7" stop-opacity=".086"/>
            <stop offset=".687" stop-color="#e7e7e7" stop-opacity=".153"/>
            <stop offset=".754" stop-color="#e8e8e8" stop-opacity=".247"/>
            <stop offset=".813" stop-color="#eaeaea" stop-opacity=".357"/>
            <stop offset=".867" stop-color="#ebebeb" stop-opacity=".49"/>
            <stop offset=".917" stop-color="#ededed" stop-opacity=".647"/>
            <stop offset=".96" stop-color="#efefef" stop-opacity=".82"/>
            <stop offset="1" stop-color="#f2f2f2"/>
        </radialGradient>
        <radialGradient id="prefix__radial-gradient-2" cx=".5" cy=".5" r=".606" gradientTransform="matrix(-.719 0 0 1 .859 0)" xlink:href="#prefix__radial-gradient"/>
        <style>
            .prefix__cls-6{opacity:.1}.prefix__cls-7{fill:#fff}.prefix__cls-9{fill:none;stroke:#ed1c24;stroke-miterlimit:10}.prefix__cls-10{fill:url(#prefix__linear-gradient-7)}
        </style>
    </defs>
    <g id="prefix__Group_4022" data-name="Group 4022">
        <path id="prefix__Path_10916" fill="url(#prefix__linear-gradient)" d="M3375.254 201a1.788 1.788 0 0 1-.4 1.387c-.4.359-3.068 2.213-8.128 2.756q-.5.053-1.038.089a29.121 29.121 0 0 1-3.948-.015q-.324-.022-.647-.055l-.25-.027q-.4-.044-.807-.106c-.716-.107-1.426-.249-2.126-.424a23.574 23.574 0 0 1-5.444-2.1q-.228-.121-.451-.249c-.079-.044-.157-.089-.235-.135l-.207-.122-.01-.005-.2-.12-.22-.138-.049-.031q-.192-.122-.379-.246l-.208-.14-.017-.011-.187-.13-.2-.143-.193-.141h-.006l-.2-.147-.218-.168-.165-.131-.188-.152-.144-.12-.078-.067-.144-.123-.178-.157-.3-.278-.09-.085q-.151-.144-.3-.291l-.151-.154c-.115-.118-.226-.237-.334-.358-.043-.047-.086-.1-.128-.143-.1-.109-.19-.218-.281-.329l-.017-.02-.132-.163a9.187 9.187 0 0 1-2.106-4.749c-.527-5.322 2.455-12.9 12.5-12.968a23.077 23.077 0 0 1 3.1.2l.1.013a16.255 16.255 0 0 1 13.739 11.242 21.189 21.189 0 0 1 1.072 9.255z" data-name="Path 10916" transform="translate(-3340.155 -178.357)"/>
        <path id="prefix__Path_10917" fill="url(#prefix__linear-gradient-2)" d="M3375.254 201a1.788 1.788 0 0 1-.4 1.387c-.4.359-3.068 2.213-8.128 2.756q-.5.053-1.038.089a29.121 29.121 0 0 1-3.948-.015q-.324-.022-.647-.055l-.25-.027q-.4-.044-.807-.106c-.716-.107-1.426-.249-2.126-.424a23.574 23.574 0 0 1-5.444-2.1q-.228-.121-.451-.249c-.079-.044-.157-.089-.235-.135l-.207-.122-.01-.005-.2-.12-.22-.138-.049-.031q-.192-.122-.379-.246l-.208-.14-.017-.011-.187-.13-.2-.143-.193-.141h-.006l-.2-.147-.218-.168-.165-.131-.188-.152-.144-.12-.078-.067-.144-.123-.178-.157-.3-.278-.09-.085q-.151-.144-.3-.291l-.151-.154c-.115-.118-.226-.237-.334-.358-.043-.047-.086-.1-.128-.143-.1-.109-.19-.218-.281-.329l-.017-.02-.132-.163a9.187 9.187 0 0 1-2.106-4.749c-.527-5.322 2.455-12.9 12.5-12.968a23.077 23.077 0 0 1 3.1.2l.1.013a16.255 16.255 0 0 1 13.739 11.242 21.189 21.189 0 0 1 1.072 9.255z" data-name="Path 10917" transform="translate(-3340.155 -178.357)"/>
        <path id="prefix__Path_10918" fill="url(#prefix__linear-gradient-3)" d="M3375.254 201a1.788 1.788 0 0 1-.4 1.387c-.4.359-3.068 2.213-8.128 2.756q-.5.053-1.038.089a29.121 29.121 0 0 1-3.948-.015q-.324-.022-.647-.055l-.25-.027q-.4-.044-.807-.106c-.716-.107-1.426-.249-2.126-.424a23.574 23.574 0 0 1-5.444-2.1q-.228-.121-.451-.249c-.079-.044-.157-.089-.235-.135l-.207-.122-.01-.005-.2-.12-.22-.138-.049-.031q-.192-.122-.379-.246l-.208-.14-.017-.011-.187-.13-.2-.143-.193-.141h-.006l-.2-.147-.218-.168-.165-.131-.188-.152-.144-.12-.078-.067-.144-.123-.178-.157-.3-.278-.09-.085q-.151-.144-.3-.291l-.151-.154c-.115-.118-.226-.237-.334-.358-.043-.047-.086-.1-.128-.143-.1-.109-.19-.218-.281-.329l-.017-.02-.132-.163a9.187 9.187 0 0 1-2.106-4.749c-.527-5.322 2.455-12.9 12.5-12.968a23.077 23.077 0 0 1 3.1.2l.1.013a16.255 16.255 0 0 1 13.739 11.242 21.189 21.189 0 0 1 1.072 9.255z" data-name="Path 10918" transform="translate(-3340.155 -178.357)"/>
        <path id="prefix__Path_10919" fill="url(#prefix__linear-gradient-4)" d="M3389.01 193.815a12.654 12.654 0 1 1-17.546-13.528 23.08 23.08 0 0 1 3.1.2l.1.013a16.254 16.254 0 0 1 13.739 11.242 20.784 20.784 0 0 1 .607 2.073z" data-name="Path 10919" transform="translate(-3354.374 -178.357)"/>
        <g id="prefix__Group_4020" data-name="Group 4020" transform="translate(11.497 2.141)">
            <g id="prefix__Group_4017-2" data-name="Group 4017">
                <path id="prefix__Path_10920" fill="url(#prefix__linear-gradient-5)" d="M3394.22 192.352a11.266 11.266 0 1 1-13.739-11.242 16.255 16.255 0 0 1 13.739 11.242z" data-name="Path 10920" transform="translate(-3371.691 -181.11)"/>
            </g>
            <g id="prefix__Group_4019" data-name="Group 4019">
                <g id="prefix__Group_4018" class="prefix__cls-6" data-name="Group 4018">
                    <path id="prefix__Path_10921" d="M3394.22 192.352a11.266 11.266 0 1 1-13.739-11.242 16.255 16.255 0 0 1 13.739 11.242z" class="prefix__cls-7" data-name="Path 10921" transform="translate(-3371.691 -181.11)"/>
                </g>
            </g>
        </g>
        <ellipse id="prefix__Ellipse_154" cx="1.034" cy="2.398" fill="url(#prefix__linear-gradient-6)" data-name="Ellipse 154" rx="1.034" ry="2.398" transform="rotate(-72.553 14.377 -11.586)"/>
        <g id="prefix__Group_4021" data-name="Group 4021" transform="translate(5.306 19.646)">
            <path id="prefix__Path_10922" d="M3363.326 256.153h-.02a30.526 30.526 0 0 1-8.657-1.711 15.579 15.579 0 0 1-6.786-4.5c-.606-.644.427-.866 1.21-.942l.131.163.017.02q.137.166.281.329l.128.143c.109.12.22.24.335.358.05.051.1.1.151.154q.145.147.3.291l.09.085.3.279c.058.053.118.105.178.157l.144.123.078.067.144.12.188.152.165.131.218.168.2.147h.006l.194.141.2.143.187.13.017.011.208.14c.125.083.251.165.379.246l.049.031.219.136.2.121.009.005.207.122c.078.046.156.091.235.135q.224.126.451.249a23.617 23.617 0 0 0 5.444 2.1c.7.174 1.41.316 2.126.424q.4.06.807.106z" data-name="Path 10922" transform="translate(-3347.681 -248.996)"/>
        </g>
        <ellipse id="prefix__Ellipse_155" cx="1.444" cy="1.069" class="prefix__cls-10" data-name="Ellipse 155" rx="1.444" ry="1.069" transform="rotate(-57.7 11.249 -.74)"/>
        <path id="prefix__Path_10924" fill="url(#prefix__radial-gradient)" d="M3387.645 229.756a7.462 7.462 0 0 1-3.8 6.223q-.5.053-1.038.089a29.122 29.122 0 0 1-3.948-.015q-.324-.022-.647-.055a30.528 30.528 0 0 1-8.657-1.711 7.591 7.591 0 0 1-1.071-1.574 6.513 6.513 0 0 1-.716-2.956c0-4.371 4.449-7.915 9.938-7.915s9.939 3.543 9.939 7.914z" data-name="Path 10924" opacity="0.07" transform="translate(-3357.284 -209.197)"/>
        <path id="prefix__Path_10925" d="M3344.192 174.734a23.078 23.078 0 0 1 3.1.2l.1.013a16.254 16.254 0 0 1 13.739 11.242 20.85 20.85 0 0 1 .61 2.074q.056.237.107.473a14.123 14.123 0 0 0-4.816-10.595c-6.066-5.489-16.062-5.662-18.893-5.142s-5.258 1.733-6.529 1.964a15.136 15.136 0 0 1-3.987 0c-.635-.116-.52.347-.4.52a7.174 7.174 0 0 0 4.275 3.351 5.165 5.165 0 0 1-4.391-1.618s.809 2.427 4.333 2.427c0 0-1.1 5.075.2 7.593l.024.04c-.333-5.292 2.752-12.476 12.528-12.542z" data-name="Path 10925" transform="translate(-3327.102 -172.805)"/>
    </g>
    <g id="prefix__Group_4068" data-name="Group 4068" transform="translate(54.404)">
        <path id="prefix__Path_10916-2" fill="url(#prefix__linear-gradient-8)" d="M3344.82 201a1.813 1.813 0 0 0 .4 1.387c.4.359 3.013 2.213 7.982 2.756q.495.053 1.02.089a28.084 28.084 0 0 0 3.877-.015q.318-.022.636-.055l.245-.027q.4-.044.792-.106 1.054-.161 2.088-.424a22.9 22.9 0 0 0 5.346-2.1q.224-.121.443-.249c.078-.044.155-.089.231-.135l.2-.122.009-.005.195-.12.216-.138.048-.031q.188-.122.372-.246l.2-.14.017-.011.184-.13.2-.143.19-.141h.006l.193-.147q.108-.083.214-.168l.162-.131.185-.152.141-.12.076-.067.141-.123.175-.157q.152-.138.3-.278l.088-.085q.148-.144.291-.291c.05-.051.1-.1.148-.154.113-.118.222-.237.329-.358.042-.047.084-.1.125-.143.095-.109.187-.218.276-.329l.016-.02.13-.163a9.269 9.269 0 0 0 2.068-4.749c.518-5.322-2.411-12.9-12.272-12.968a22.258 22.258 0 0 0-3.046.2l-.094.013c-7.577 1.031-11.673 5.973-13.492 11.242a21.541 21.541 0 0 0-1.051 9.254z" data-name="Path 10916" transform="translate(-3344.69 -178.357)"/>
        <path id="prefix__Path_10917-2" fill="url(#prefix__linear-gradient-9)" d="M3344.82 201a1.813 1.813 0 0 0 .4 1.387c.4.359 3.013 2.213 7.982 2.756q.495.053 1.02.089a28.084 28.084 0 0 0 3.877-.015q.318-.022.636-.055l.245-.027q.4-.044.792-.106 1.054-.161 2.088-.424a22.9 22.9 0 0 0 5.346-2.1q.224-.121.443-.249c.078-.044.155-.089.231-.135l.2-.122.009-.005.195-.12.216-.138.048-.031q.188-.122.372-.246l.2-.14.017-.011.184-.13.2-.143.19-.141h.006l.193-.147q.108-.083.214-.168l.162-.131.185-.152.141-.12.076-.067.141-.123.175-.157q.152-.138.3-.278l.088-.085q.148-.144.291-.291c.05-.051.1-.1.148-.154.113-.118.222-.237.329-.358.042-.047.084-.1.125-.143.095-.109.187-.218.276-.329l.016-.02.13-.163a9.269 9.269 0 0 0 2.068-4.749c.518-5.322-2.411-12.9-12.272-12.968a22.258 22.258 0 0 0-3.046.2l-.094.013c-7.577 1.031-11.673 5.973-13.492 11.242a21.541 21.541 0 0 0-1.051 9.254z" data-name="Path 10917" transform="translate(-3344.69 -178.357)"/>
        <path id="prefix__Path_10918-2" fill="url(#prefix__linear-gradient-10)" d="M3344.82 201a1.813 1.813 0 0 0 .4 1.387c.4.359 3.013 2.213 7.982 2.756q.495.053 1.02.089a28.084 28.084 0 0 0 3.877-.015q.318-.022.636-.055l.245-.027q.4-.044.792-.106 1.054-.161 2.088-.424a22.9 22.9 0 0 0 5.346-2.1q.224-.121.443-.249c.078-.044.155-.089.231-.135l.2-.122.009-.005.195-.12.216-.138.048-.031q.188-.122.372-.246l.2-.14.017-.011.184-.13.2-.143.19-.141h.006l.193-.147q.108-.083.214-.168l.162-.131.185-.152.141-.12.076-.067.141-.123.175-.157q.152-.138.3-.278l.088-.085q.148-.144.291-.291c.05-.051.1-.1.148-.154.113-.118.222-.237.329-.358.042-.047.084-.1.125-.143.095-.109.187-.218.276-.329l.016-.02.13-.163a9.269 9.269 0 0 0 2.068-4.749c.518-5.322-2.411-12.9-12.272-12.968a22.258 22.258 0 0 0-3.046.2l-.094.013c-7.577 1.031-11.673 5.973-13.492 11.242a21.541 21.541 0 0 0-1.051 9.254z" data-name="Path 10918" transform="translate(-3344.69 -178.357)"/>
        <path id="prefix__Path_10919-2" fill="url(#prefix__linear-gradient-11)" d="M3363.849 193.815a12.412 12.412 0 0 0 24.708-1.918 12.663 12.663 0 0 0-7.478-11.61 22.259 22.259 0 0 0-3.047.2l-.094.013c-7.577 1.031-11.673 5.973-13.492 11.242a21.1 21.1 0 0 0-.597 2.073z" data-name="Path 10919" transform="translate(-3363.266 -178.357)"/>
        <g id="prefix__Group_4020-2" data-name="Group 4020" transform="translate(1.182 2.141)">
            <g id="prefix__Group_4017-3" data-name="Group 4017">
                <path id="prefix__Path_10920-2" fill="url(#prefix__linear-gradient-12)" d="M3371.691 192.352a11.067 11.067 0 1 0 13.492-11.242c-7.578 1.031-11.674 5.973-13.492 11.242z" data-name="Path 10920" transform="translate(-3371.691 -181.11)"/>
            </g>
            <g id="prefix__Group_4019-2" data-name="Group 4019">
                <g id="prefix__Group_4018-2" class="prefix__cls-6" data-name="Group 4018">
                    <path id="prefix__Path_10921-2" d="M3371.691 192.352a11.067 11.067 0 1 0 13.492-11.242c-7.578 1.031-11.674 5.973-13.492 11.242z" class="prefix__cls-7" data-name="Path 10921" transform="translate(-3371.691 -181.11)"/>
                </g>
            </g>
        </g>
        <path id="prefix__Path_10996" fill="url(#prefix__linear-gradient-13)" d="M1.032 4.733c.57 0 1.027-1.051 1.02-2.353S1.578.019 1.007.016-.019 1.067-.012 2.369.462 4.73 1.032 4.733z" data-name="Path 10996" transform="rotate(-107.447 7.25 .08)"/>
        <g id="prefix__Group_4021-2" data-name="Group 4021" transform="translate(9.526 19.646)">
            <path id="prefix__Path_10922-2" d="M3347.681 256.153h.02a29.508 29.508 0 0 0 8.5-1.711 15.308 15.308 0 0 0 6.664-4.5c.595-.644-.419-.866-1.189-.942l-.129.163-.017.02q-.134.166-.276.329l-.126.143c-.107.12-.216.24-.329.358-.049.051-.1.1-.148.154q-.143.147-.291.291l-.088.085-.3.279c-.057.053-.116.105-.175.157l-.141.123-.076.067-.141.12-.185.152-.162.131-.214.168-.193.147h-.006l-.19.141-.2.143-.184.13-.017.011-.2.14q-.183.125-.372.246l-.048.031-.215.136-.2.121-.009.005-.2.122c-.076.046-.153.091-.231.135q-.22.126-.443.249a22.943 22.943 0 0 1-5.346 2.1c-.687.174-1.385.316-2.088.424q-.394.06-.792.106z" data-name="Path 10922" transform="translate(-3343.186 -248.996)"/>
        </g>
        <path id="prefix__Path_10997" d="M1.437 2.145c.794.006 1.433-.461 1.428-1.043S2.213.042 1.42.035-.013.5-.009 1.079s.652 1.06 1.446 1.066z" class="prefix__cls-10" data-name="Path 10997" transform="scale(-1) rotate(57.7 -4.17 -29.696)"/>
        <path id="prefix__Path_10924-2" fill="url(#prefix__radial-gradient-2)" d="M3367.77 229.756a7.482 7.482 0 0 0 3.727 6.223c.33.035.669.066 1.019.089a28.084 28.084 0 0 0 3.877-.015q.318-.022.636-.055a29.508 29.508 0 0 0 8.5-1.711 7.6 7.6 0 0 0 1.052-1.574 6.613 6.613 0 0 0 .7-2.956c0-4.371-4.369-7.915-9.759-7.915s-9.752 3.543-9.752 7.914z" data-name="Path 10924" opacity="0.07" transform="translate(-3362.989 -209.197)"/>
        <path id="prefix__Path_10925-2" d="M3344.438 174.734a22.261 22.261 0 0 0-3.047.2l-.094.013c-7.577 1.031-11.673 5.973-13.492 11.242a21.164 21.164 0 0 0-.6 2.074q-.055.237-.105.473a14.248 14.248 0 0 1 4.729-10.595c5.957-5.489 15.773-5.662 18.553-5.142s5.163 1.733 6.411 1.964a14.6 14.6 0 0 0 3.915 0c.624-.116.51.347.4.52a7.083 7.083 0 0 1-4.2 3.351 5.012 5.012 0 0 0 4.312-1.618s-.794 2.427-4.255 2.427c0 0 1.078 5.075-.2 7.593-.007.013-.015.027-.024.04.326-5.292-2.702-12.476-12.303-12.542z" data-name="Path 10925" transform="translate(-3326.624 -172.805)"/>
    </g>
</svg>
