<svg xmlns="http://www.w3.org/2000/svg" xmlns:xlink="http://www.w3.org/1999/xlink" id="prefix__Group_4019" width="89" height="27.371" data-name="Group 4019" viewBox="0 0 89 27.371">
    <defs>
        <linearGradient id="prefix__linear-gradient" x2="1" y1=".5" y2=".5" gradientUnits="objectBoundingBox">
            <stop offset="0" stop-color="#e6e6e6"/>
            <stop offset=".426" stop-color="#eee"/>
            <stop offset="1" stop-color="#f2f2f2"/>
        </linearGradient>
        <linearGradient id="prefix__linear-gradient-2" x1=".099" x2=".349" y1=".084" y2=".349" gradientUnits="objectBoundingBox">
            <stop offset="0" stop-color="#8e7869"/>
            <stop offset=".012" stop-color="#927c6e" stop-opacity=".961"/>
            <stop offset=".099" stop-color="#ab9c91" stop-opacity=".706"/>
            <stop offset=".193" stop-color="#c1b6af" stop-opacity=".486"/>
            <stop offset=".296" stop-color="#d3ccc7" stop-opacity=".306"/>
            <stop offset=".409" stop-color="#e1ddda" stop-opacity=".169"/>
            <stop offset=".54" stop-color="#eae9e7" stop-opacity=".075"/>
            <stop offset=".703" stop-color="#f0efef" stop-opacity=".016"/>
            <stop offset="1" stop-color="#f2f2f2" stop-opacity="0"/>
        </linearGradient>
        <linearGradient id="prefix__linear-gradient-3" x1="1.017" x2=".569" y1=".879" y2=".551" gradientUnits="objectBoundingBox">
            <stop offset=".052" stop-color="#8e7869"/>
            <stop offset=".063" stop-color="#927c6e" stop-opacity=".961"/>
            <stop offset=".146" stop-color="#ab9c91" stop-opacity=".706"/>
            <stop offset=".235" stop-color="#c1b6af" stop-opacity=".486"/>
            <stop offset=".332" stop-color="#d3ccc7" stop-opacity=".306"/>
            <stop offset=".44" stop-color="#e1ddda" stop-opacity=".169"/>
            <stop offset=".564" stop-color="#eae9e7" stop-opacity=".075"/>
            <stop offset=".719" stop-color="#f0efef" stop-opacity=".016"/>
            <stop offset="1" stop-color="#f2f2f2" stop-opacity="0"/>
        </linearGradient>
        <linearGradient id="prefix__linear-gradient-4" x2="1" y1=".5" y2=".5" gradientUnits="objectBoundingBox">
            <stop offset="0" stop-color="#00b0e9"/>
            <stop offset="1" stop-color="#42210b"/>
        </linearGradient>
        <linearGradient id="prefix__linear-gradient-5" x2="1" y1=".5" y2=".5" gradientUnits="objectBoundingBox">
            <stop offset="0"/>
            <stop offset=".138"/>
            <stop offset="1"/>
        </linearGradient>
        <linearGradient id="prefix__linear-gradient-6" x1="77.33" x2="79.175" y1="-106.378" y2="-106.071" gradientUnits="objectBoundingBox">
            <stop offset="0" stop-color="#f2f2f2" stop-opacity="0"/>
            <stop offset=".495" stop-color="#b9b7b8"/>
            <stop offset="1" stop-color="#f2f2f2" stop-opacity="0"/>
        </linearGradient>
        <linearGradient id="prefix__linear-gradient-7" x1=".089" x2=".911" y1=".5" y2=".5" gradientUnits="objectBoundingBox">
            <stop offset="0" stop-color="#f2f2f2"/>
            <stop offset=".574" stop-color="#eee"/>
            <stop offset="1" stop-color="#e6e6e6"/>
        </linearGradient>
        <linearGradient id="prefix__linear-gradient-8" x1="1" x2="0" y1=".5" y2=".5" xlink:href="#prefix__linear-gradient"/>
        <linearGradient id="prefix__linear-gradient-9" x1=".901" x2=".651" y1=".084" y2=".349" xlink:href="#prefix__linear-gradient-2"/>
        <linearGradient id="prefix__linear-gradient-10" x1="-.017" x2=".431" y1=".879" y2=".551" xlink:href="#prefix__linear-gradient-3"/>
        <linearGradient id="prefix__linear-gradient-11" x1="1" x2="0" y1=".5" y2=".5" xlink:href="#prefix__linear-gradient-4"/>
        <linearGradient id="prefix__linear-gradient-12" x1="1" x2="0" y1=".5" y2=".5" xlink:href="#prefix__linear-gradient-5"/>
        <linearGradient id="prefix__linear-gradient-13" x1="77.33" x2="79.175" y1="107.378" y2="107.071" xlink:href="#prefix__linear-gradient-6"/>
        <radialGradient id="prefix__radial-gradient" cx=".5" cy=".5" r=".606" gradientTransform="matrix(.719 0 0 1 .141 0)" gradientUnits="objectBoundingBox">
            <stop offset="0" stop-color="#e6e6e6" stop-opacity="0"/>
            <stop offset=".377" stop-color="#e6e6e6" stop-opacity=".008"/>
            <stop offset=".512" stop-color="#e6e6e6" stop-opacity=".035"/>
            <stop offset=".609" stop-color="#e7e7e7" stop-opacity=".086"/>
            <stop offset=".687" stop-color="#e7e7e7" stop-opacity=".153"/>
            <stop offset=".754" stop-color="#e8e8e8" stop-opacity=".247"/>
            <stop offset=".813" stop-color="#eaeaea" stop-opacity=".357"/>
            <stop offset=".867" stop-color="#ebebeb" stop-opacity=".49"/>
            <stop offset=".917" stop-color="#ededed" stop-opacity=".647"/>
            <stop offset=".96" stop-color="#efefef" stop-opacity=".82"/>
            <stop offset="1" stop-color="#f2f2f2"/>
        </radialGradient>
        <radialGradient id="prefix__radial-gradient-2" cx=".5" cy=".5" r=".606" gradientTransform="matrix(-.719 0 0 1 .859 0)" xlink:href="#prefix__radial-gradient"/>
        <style>
            .prefix__cls-6{opacity:.1}.prefix__cls-7{fill:#fff}.prefix__cls-9{fill:none;stroke:#ed1c24;stroke-miterlimit:10}.prefix__cls-10{fill:url(#prefix__linear-gradient-7)}
        </style>
    </defs>
    <g id="prefix__Group_4048" data-name="Group 4048">
        <path id="prefix__Path_10956" fill="url(#prefix__linear-gradient)" d="M3822.254 201a1.788 1.788 0 0 1-.4 1.387c-.4.359-3.068 2.213-8.128 2.756q-.5.053-1.038.089a29.121 29.121 0 0 1-3.948-.015q-.324-.022-.648-.055l-.25-.027q-.4-.044-.807-.106c-.716-.107-1.426-.249-2.126-.424a23.58 23.58 0 0 1-5.444-2.1c-.152-.081-.3-.164-.451-.249-.079-.044-.157-.089-.235-.135l-.207-.122-.01-.005-.2-.12-.22-.138-.049-.031q-.192-.122-.379-.246l-.208-.14-.017-.011-.187-.13-.2-.143-.193-.141h-.006l-.2-.147-.218-.168-.165-.131-.188-.152-.144-.12-.078-.067-.144-.123c-.06-.052-.12-.1-.178-.157l-.3-.278-.09-.085q-.151-.144-.3-.291l-.151-.154c-.115-.118-.226-.237-.334-.358-.043-.047-.086-.1-.128-.143q-.145-.163-.281-.329l-.017-.02-.133-.163a9.187 9.187 0 0 1-2.106-4.749c-.527-5.322 2.455-12.9 12.5-12.968a23.077 23.077 0 0 1 3.1.2l.1.013a16.254 16.254 0 0 1 13.739 11.242 21.189 21.189 0 0 1 1.072 9.255z" data-name="Path 10956" transform="translate(-3787.155 -178.357)"/>
        <path id="prefix__Path_10957" fill="url(#prefix__linear-gradient-2)" d="M3822.254 201a1.788 1.788 0 0 1-.4 1.387c-.4.359-3.068 2.213-8.128 2.756q-.5.053-1.038.089a29.121 29.121 0 0 1-3.948-.015q-.324-.022-.648-.055l-.25-.027q-.4-.044-.807-.106c-.716-.107-1.426-.249-2.126-.424a23.58 23.58 0 0 1-5.444-2.1c-.152-.081-.3-.164-.451-.249-.079-.044-.157-.089-.235-.135l-.207-.122-.01-.005-.2-.12-.22-.138-.049-.031q-.192-.122-.379-.246l-.208-.14-.017-.011-.187-.13-.2-.143-.193-.141h-.006l-.2-.147-.218-.168-.165-.131-.188-.152-.144-.12-.078-.067-.144-.123c-.06-.052-.12-.1-.178-.157l-.3-.278-.09-.085q-.151-.144-.3-.291l-.151-.154c-.115-.118-.226-.237-.334-.358-.043-.047-.086-.1-.128-.143q-.145-.163-.281-.329l-.017-.02-.133-.163a9.187 9.187 0 0 1-2.106-4.749c-.527-5.322 2.455-12.9 12.5-12.968a23.077 23.077 0 0 1 3.1.2l.1.013a16.254 16.254 0 0 1 13.739 11.242 21.189 21.189 0 0 1 1.072 9.255z" data-name="Path 10957" transform="translate(-3787.155 -178.357)"/>
        <path id="prefix__Path_10958" fill="url(#prefix__linear-gradient-3)" d="M3822.254 201a1.788 1.788 0 0 1-.4 1.387c-.4.359-3.068 2.213-8.128 2.756q-.5.053-1.038.089a29.121 29.121 0 0 1-3.948-.015q-.324-.022-.648-.055l-.25-.027q-.4-.044-.807-.106c-.716-.107-1.426-.249-2.126-.424a23.58 23.58 0 0 1-5.444-2.1c-.152-.081-.3-.164-.451-.249-.079-.044-.157-.089-.235-.135l-.207-.122-.01-.005-.2-.12-.22-.138-.049-.031q-.192-.122-.379-.246l-.208-.14-.017-.011-.187-.13-.2-.143-.193-.141h-.006l-.2-.147-.218-.168-.165-.131-.188-.152-.144-.12-.078-.067-.144-.123c-.06-.052-.12-.1-.178-.157l-.3-.278-.09-.085q-.151-.144-.3-.291l-.151-.154c-.115-.118-.226-.237-.334-.358-.043-.047-.086-.1-.128-.143q-.145-.163-.281-.329l-.017-.02-.133-.163a9.187 9.187 0 0 1-2.106-4.749c-.527-5.322 2.455-12.9 12.5-12.968a23.077 23.077 0 0 1 3.1.2l.1.013a16.254 16.254 0 0 1 13.739 11.242 21.189 21.189 0 0 1 1.072 9.255z" data-name="Path 10958" transform="translate(-3787.155 -178.357)"/>
        <path id="prefix__Path_10959" fill="url(#prefix__linear-gradient-4)" d="M3836.01 193.815a12.654 12.654 0 1 1-17.546-13.528 23.08 23.08 0 0 1 3.1.2l.1.013a16.254 16.254 0 0 1 13.739 11.242 20.784 20.784 0 0 1 .607 2.073z" data-name="Path 10959" transform="translate(-3801.374 -178.357)"/>
        <g id="prefix__Group_4046" data-name="Group 4046" transform="translate(11.497 2.141)">
            <g id="prefix__Group_4043" data-name="Group 4043">
                <path id="prefix__Path_10960" fill="url(#prefix__linear-gradient-5)" d="M3841.22 192.352a11.266 11.266 0 1 1-13.739-11.242 16.255 16.255 0 0 1 13.739 11.242z" data-name="Path 10960" transform="translate(-3818.691 -181.11)"/>
            </g>
            <g id="prefix__Group_4045" data-name="Group 4045">
                <g id="prefix__Group_4044" class="prefix__cls-6" data-name="Group 4044">
                    <path id="prefix__Path_10961" d="M3841.22 192.352a11.266 11.266 0 1 1-13.739-11.242 16.255 16.255 0 0 1 13.739 11.242z" class="prefix__cls-7" data-name="Path 10961" transform="translate(-3818.691 -181.11)"/>
                </g>
            </g>
        </g>
        <ellipse id="prefix__Ellipse_162" cx="1.034" cy="2.398" fill="url(#prefix__linear-gradient-6)" data-name="Ellipse 162" rx="1.034" ry="2.398" transform="rotate(-72.553 14.377 -11.586)"/>
        <g id="prefix__Group_4047" data-name="Group 4047" transform="translate(5.306 19.646)">
            <path id="prefix__Path_10962" d="M3810.326 256.153h-.02a30.526 30.526 0 0 1-8.657-1.711 15.574 15.574 0 0 1-6.786-4.5c-.606-.644.427-.866 1.21-.942l.131.163.017.02q.137.166.281.329l.128.143c.109.12.22.24.334.358l.151.154q.145.147.3.291l.09.085q.149.14.3.279c.058.053.118.105.178.157l.143.123.078.067.144.12.188.152.165.131.219.168.2.147h.006l.194.141.2.143.187.13.018.011.208.14q.187.125.379.246l.048.031.219.136.2.121.009.005.207.122c.078.046.156.091.235.135q.224.126.451.249a23.615 23.615 0 0 0 5.444 2.1c.7.174 1.41.316 2.126.424q.4.06.807.106z" data-name="Path 10962" transform="translate(-3794.68 -248.996)"/>
        </g>
        <ellipse id="prefix__Ellipse_163" cx="1.444" cy="1.069" class="prefix__cls-10" data-name="Ellipse 163" rx="1.444" ry="1.069" transform="rotate(-57.7 11.249 -.74)"/>
        <path id="prefix__Path_10964" fill="url(#prefix__radial-gradient)" d="M3834.645 229.756a7.461 7.461 0 0 1-3.8 6.223q-.5.053-1.038.089a29.118 29.118 0 0 1-3.948-.015q-.324-.022-.647-.055a30.525 30.525 0 0 1-8.657-1.711 7.582 7.582 0 0 1-1.071-1.574 6.51 6.51 0 0 1-.716-2.956c0-4.371 4.449-7.915 9.938-7.915s9.939 3.543 9.939 7.914z" data-name="Path 10964" opacity="0.07" transform="translate(-3804.284 -209.197)"/>
        <path id="prefix__Path_10965" d="M3791.192 174.734a23.078 23.078 0 0 1 3.1.2l.1.013a16.254 16.254 0 0 1 13.739 11.242 20.783 20.783 0 0 1 .61 2.074q.057.237.107.473a14.123 14.123 0 0 0-4.816-10.595c-6.066-5.489-16.062-5.662-18.893-5.142s-5.258 1.733-6.528 1.964a15.136 15.136 0 0 1-3.987 0c-.635-.116-.52.347-.4.52a7.173 7.173 0 0 0 4.275 3.351 5.165 5.165 0 0 1-4.391-1.618s.809 2.427 4.333 2.427c0 0-1.1 5.075.2 7.593l.024.04c-.334-5.292 2.75-12.476 12.527-12.542z" data-name="Path 10965" transform="translate(-3774.102 -172.805)"/>
    </g>
    <g id="prefix__Group_4069" data-name="Group 4069" transform="translate(53.961)">
        <path id="prefix__Path_10956-2" fill="url(#prefix__linear-gradient-8)" d="M3791.821 201a1.8 1.8 0 0 0 .4 1.387c.4.359 3.051 2.213 8.084 2.756q.5.053 1.032.089a28.806 28.806 0 0 0 3.927-.015q.322-.022.644-.055l.248-.027q.4-.044.8-.106c.712-.107 1.418-.249 2.115-.424a23.376 23.376 0 0 0 5.415-2.1c.151-.081.3-.164.448-.249.079-.044.156-.089.234-.135l.205-.122.01-.005.2-.12.219-.138.048-.031q.191-.122.377-.246l.207-.14.017-.011.186-.13.2-.143.192-.141h.006l.2-.147.217-.168.164-.131.187-.152.143-.12.077-.067.143-.123.177-.157.3-.278.089-.085q.15-.144.295-.291c.051-.051.1-.1.15-.154.114-.118.225-.237.333-.358.043-.047.085-.1.127-.143q.144-.163.279-.329l.017-.02.132-.163a9.21 9.21 0 0 0 2.094-4.749c.524-5.322-2.442-12.9-12.429-12.968a22.831 22.831 0 0 0-3.085.2l-.095.013a16.19 16.19 0 0 0-13.665 11.242 21.3 21.3 0 0 0-1.066 9.255z" data-name="Path 10956" transform="translate(-3791.69 -178.357)"/>
        <path id="prefix__Path_10957-2" fill="url(#prefix__linear-gradient-9)" d="M3791.821 201a1.8 1.8 0 0 0 .4 1.387c.4.359 3.051 2.213 8.084 2.756q.5.053 1.032.089a28.806 28.806 0 0 0 3.927-.015q.322-.022.644-.055l.248-.027q.4-.044.8-.106c.712-.107 1.418-.249 2.115-.424a23.376 23.376 0 0 0 5.415-2.1c.151-.081.3-.164.448-.249.079-.044.156-.089.234-.135l.205-.122.01-.005.2-.12.219-.138.048-.031q.191-.122.377-.246l.207-.14.017-.011.186-.13.2-.143.192-.141h.006l.2-.147.217-.168.164-.131.187-.152.143-.12.077-.067.143-.123.177-.157.3-.278.089-.085q.15-.144.295-.291c.051-.051.1-.1.15-.154.114-.118.225-.237.333-.358.043-.047.085-.1.127-.143q.144-.163.279-.329l.017-.02.132-.163a9.21 9.21 0 0 0 2.094-4.749c.524-5.322-2.442-12.9-12.429-12.968a22.831 22.831 0 0 0-3.085.2l-.095.013a16.19 16.19 0 0 0-13.665 11.242 21.3 21.3 0 0 0-1.066 9.255z" data-name="Path 10957" transform="translate(-3791.69 -178.357)"/>
        <path id="prefix__Path_10958-2" fill="url(#prefix__linear-gradient-10)" d="M3791.821 201a1.8 1.8 0 0 0 .4 1.387c.4.359 3.051 2.213 8.084 2.756q.5.053 1.032.089a28.806 28.806 0 0 0 3.927-.015q.322-.022.644-.055l.248-.027q.4-.044.8-.106c.712-.107 1.418-.249 2.115-.424a23.376 23.376 0 0 0 5.415-2.1c.151-.081.3-.164.448-.249.079-.044.156-.089.234-.135l.205-.122.01-.005.2-.12.219-.138.048-.031q.191-.122.377-.246l.207-.14.017-.011.186-.13.2-.143.192-.141h.006l.2-.147.217-.168.164-.131.187-.152.143-.12.077-.067.143-.123.177-.157.3-.278.089-.085q.15-.144.295-.291c.051-.051.1-.1.15-.154.114-.118.225-.237.333-.358.043-.047.085-.1.127-.143q.144-.163.279-.329l.017-.02.132-.163a9.21 9.21 0 0 0 2.094-4.749c.524-5.322-2.442-12.9-12.429-12.968a22.831 22.831 0 0 0-3.085.2l-.095.013a16.19 16.19 0 0 0-13.665 11.242 21.3 21.3 0 0 0-1.066 9.255z" data-name="Path 10958" transform="translate(-3791.69 -178.357)"/>
        <path id="prefix__Path_10959-2" fill="url(#prefix__linear-gradient-11)" d="M3810.849 193.815a12.591 12.591 0 1 0 17.451-13.528 22.829 22.829 0 0 0-3.086.2l-.095.013a16.19 16.19 0 0 0-13.664 11.242 20.89 20.89 0 0 0-.606 2.073z" data-name="Path 10959" transform="translate(-3810.258 -178.357)"/>
        <g id="prefix__Group_4046-2" data-name="Group 4046" transform="translate(1.197 2.141)">
            <g id="prefix__Group_4043-2" data-name="Group 4043">
                <path id="prefix__Path_10960-2" fill="url(#prefix__linear-gradient-12)" d="M3818.691 192.352a11.206 11.206 0 1 0 13.664-11.242 16.19 16.19 0 0 0-13.664 11.242z" data-name="Path 10960" transform="translate(-3818.691 -181.11)"/>
            </g>
            <g id="prefix__Group_4045-2" data-name="Group 4045">
                <g id="prefix__Group_4044-2" class="prefix__cls-6" data-name="Group 4044">
                    <path id="prefix__Path_10961-2" d="M3818.691 192.352a11.206 11.206 0 1 0 13.664-11.242 16.19 16.19 0 0 0-13.664 11.242z" class="prefix__cls-7" data-name="Path 10961" transform="translate(-3818.691 -181.11)"/>
                </g>
            </g>
        </g>
        <path id="prefix__Path_10998" fill="url(#prefix__linear-gradient-13)" d="M1.033 4.776c.571 0 1.032-1.067 1.03-2.384S1.6.006 1.026 0-.006 1.071 0 2.389s.463 2.387 1.033 2.387z" data-name="Path 10998" transform="rotate(-107.447 7.32 .038)"/>
        <g id="prefix__Group_4047-2" data-name="Group 4047" transform="translate(9.648 19.646)">
            <path id="prefix__Path_10962-2" d="M3794.68 256.153h.02a30.219 30.219 0 0 0 8.61-1.711 15.492 15.492 0 0 0 6.749-4.5c.6-.644-.425-.866-1.2-.942l-.131.163-.017.02q-.136.166-.279.329l-.127.143c-.108.12-.219.24-.333.358l-.15.154q-.145.147-.295.291l-.089.085-.3.279q-.087.079-.177.157l-.143.123-.078.067-.143.12-.187.152-.164.131-.217.168-.2.147h-.006l-.192.141-.2.143-.186.13-.017.011c-.068.047-.137.094-.207.14q-.186.125-.377.246l-.048.031-.218.136-.2.121-.009.005-.206.122c-.078.046-.155.091-.234.135q-.222.126-.449.249a23.408 23.408 0 0 1-5.415 2.1c-.7.174-1.4.316-2.115.424q-.4.06-.8.106z" data-name="Path 10962" transform="translate(-3790.128 -248.996)"/>
        </g>
        <path id="prefix__Path_10999" d="M1.442 2.14c.8 0 1.441-.473 1.44-1.061S2.233.013 1.437.011 0 .484 0 1.072.646 2.138 1.442 2.14z" class="prefix__cls-10" data-name="Path 10999" transform="scale(-1) rotate(57.7 -4.351 -30.028)"/>
        <path id="prefix__Path_10964-2" fill="url(#prefix__radial-gradient-2)" d="M3814.77 229.756a7.467 7.467 0 0 0 3.775 6.223c.334.035.678.066 1.032.089a28.8 28.8 0 0 0 3.927-.015q.323-.022.644-.055a30.214 30.214 0 0 0 8.61-1.711 7.583 7.583 0 0 0 1.066-1.574 6.541 6.541 0 0 0 .712-2.956c0-4.371-4.425-7.915-9.884-7.915s-9.882 3.543-9.882 7.914z" data-name="Path 10964" opacity="0.07" transform="translate(-3809.927 -209.197)"/>
        <path id="prefix__Path_10965-2" d="M3791.66 174.734a22.827 22.827 0 0 0-3.086.2l-.095.013a16.19 16.19 0 0 0-13.664 11.242 20.889 20.889 0 0 0-.606 2.074q-.056.237-.107.473a14.159 14.159 0 0 1 4.79-10.595c6.033-5.489 15.974-5.662 18.79-5.142s5.229 1.733 6.493 1.964a14.973 14.973 0 0 0 3.965 0c.632-.116.517.347.4.52a7.144 7.144 0 0 1-4.252 3.351 5.119 5.119 0 0 0 4.367-1.618s-.8 2.427-4.31 2.427c0 0 1.092 5.075-.2 7.593l-.024.04c.33-5.292-2.738-12.476-12.461-12.542z" data-name="Path 10965" transform="translate(-3773.618 -172.805)"/>
    </g>
</svg>
