<svg xmlns="http://www.w3.org/2000/svg" xmlns:xlink="http://www.w3.org/1999/xlink" id="prefix__Group_4018" width="89.192" height="27.371" data-name="Group 4018" viewBox="0 0 89.192 27.371">
    <defs>
        <linearGradient id="prefix__linear-gradient" x2="1" y1=".5" y2=".5" gradientUnits="objectBoundingBox">
            <stop offset="0" stop-color="#e6e6e6"/>
            <stop offset=".426" stop-color="#eee"/>
            <stop offset="1" stop-color="#f2f2f2"/>
        </linearGradient>
        <linearGradient id="prefix__linear-gradient-2" x1=".099" x2=".349" y1=".084" y2=".349" gradientUnits="objectBoundingBox">
            <stop offset="0" stop-color="#8e7869"/>
            <stop offset=".012" stop-color="#927c6e" stop-opacity=".961"/>
            <stop offset=".099" stop-color="#ab9c91" stop-opacity=".706"/>
            <stop offset=".193" stop-color="#c1b6af" stop-opacity=".486"/>
            <stop offset=".296" stop-color="#d3ccc7" stop-opacity=".306"/>
            <stop offset=".409" stop-color="#e1ddda" stop-opacity=".169"/>
            <stop offset=".54" stop-color="#eae9e7" stop-opacity=".075"/>
            <stop offset=".703" stop-color="#f0efef" stop-opacity=".016"/>
            <stop offset="1" stop-color="#f2f2f2" stop-opacity="0"/>
        </linearGradient>
        <linearGradient id="prefix__linear-gradient-3" x1="1.017" x2=".569" y1=".879" y2=".551" gradientUnits="objectBoundingBox">
            <stop offset=".052" stop-color="#8e7869"/>
            <stop offset=".063" stop-color="#927c6e" stop-opacity=".961"/>
            <stop offset=".146" stop-color="#ab9c91" stop-opacity=".706"/>
            <stop offset=".235" stop-color="#c1b6af" stop-opacity=".486"/>
            <stop offset=".332" stop-color="#d3ccc7" stop-opacity=".306"/>
            <stop offset=".44" stop-color="#e1ddda" stop-opacity=".169"/>
            <stop offset=".564" stop-color="#eae9e7" stop-opacity=".075"/>
            <stop offset=".719" stop-color="#f0efef" stop-opacity=".016"/>
            <stop offset="1" stop-color="#f2f2f2" stop-opacity="0"/>
        </linearGradient>
        <linearGradient id="prefix__linear-gradient-4" x2="1" y1=".5" y2=".5" gradientUnits="objectBoundingBox">
            <stop offset="0" stop-color="#108c4c"/>
            <stop offset="1" stop-color="#42210b"/>
        </linearGradient>
        <linearGradient id="prefix__linear-gradient-5" x2="1" y1=".5" y2=".5" gradientUnits="objectBoundingBox">
            <stop offset="0"/>
            <stop offset=".138"/>
            <stop offset="1"/>
        </linearGradient>
        <linearGradient id="prefix__linear-gradient-6" x1="72.932" x2="74.777" y1="-100.344" y2="-100.037" gradientUnits="objectBoundingBox">
            <stop offset="0" stop-color="#f2f2f2" stop-opacity="0"/>
            <stop offset=".495" stop-color="#b9b7b8"/>
            <stop offset="1" stop-color="#f2f2f2" stop-opacity="0"/>
        </linearGradient>
        <linearGradient id="prefix__linear-gradient-7" x1=".089" x2=".911" y1=".5" y2=".5" gradientUnits="objectBoundingBox">
            <stop offset="0" stop-color="#f2f2f2"/>
            <stop offset=".574" stop-color="#eee"/>
            <stop offset="1" stop-color="#e6e6e6"/>
        </linearGradient>
        <linearGradient id="prefix__linear-gradient-8" x1="1" x2="0" y1=".5" y2=".5" xlink:href="#prefix__linear-gradient"/>
        <linearGradient id="prefix__linear-gradient-9" x1=".901" x2=".651" y1=".084" y2=".349" xlink:href="#prefix__linear-gradient-2"/>
        <linearGradient id="prefix__linear-gradient-10" x1="-.017" x2=".431" y1=".879" y2=".551" xlink:href="#prefix__linear-gradient-3"/>
        <linearGradient id="prefix__linear-gradient-11" x1="1" x2="0" y1=".5" y2=".5" xlink:href="#prefix__linear-gradient-4"/>
        <linearGradient id="prefix__linear-gradient-12" x1="1" x2="0" y1=".5" y2=".5" xlink:href="#prefix__linear-gradient-5"/>
        <linearGradient id="prefix__linear-gradient-13" x1="72.932" x2="74.777" y1="101.344" y2="101.037" xlink:href="#prefix__linear-gradient-6"/>
        <radialGradient id="prefix__radial-gradient" cx=".5" cy=".5" r=".606" gradientTransform="matrix(.719 0 0 1 .141 0)" gradientUnits="objectBoundingBox">
            <stop offset="0" stop-color="#e6e6e6" stop-opacity="0"/>
            <stop offset=".377" stop-color="#e6e6e6" stop-opacity=".008"/>
            <stop offset=".512" stop-color="#e6e6e6" stop-opacity=".035"/>
            <stop offset=".609" stop-color="#e7e7e7" stop-opacity=".086"/>
            <stop offset=".687" stop-color="#e7e7e7" stop-opacity=".153"/>
            <stop offset=".754" stop-color="#e8e8e8" stop-opacity=".247"/>
            <stop offset=".813" stop-color="#eaeaea" stop-opacity=".357"/>
            <stop offset=".867" stop-color="#ebebeb" stop-opacity=".49"/>
            <stop offset=".917" stop-color="#ededed" stop-opacity=".647"/>
            <stop offset=".96" stop-color="#efefef" stop-opacity=".82"/>
            <stop offset="1" stop-color="#f2f2f2"/>
        </radialGradient>
        <radialGradient id="prefix__radial-gradient-2" cx=".5" cy=".5" r=".606" gradientTransform="matrix(-.719 0 0 1 .859 0)" xlink:href="#prefix__radial-gradient"/>
        <style>
            .prefix__cls-6{opacity:.1}.prefix__cls-7{fill:#fff}.prefix__cls-9{fill:none;stroke:#ed1c24;stroke-miterlimit:10}.prefix__cls-10{fill:url(#prefix__linear-gradient-7)}
        </style>
    </defs>
    <g id="prefix__Group_4035" data-name="Group 4035">
        <path id="prefix__Path_10936" fill="url(#prefix__linear-gradient)" d="M3375.254 371a1.788 1.788 0 0 1-.4 1.387c-.4.359-3.068 2.213-8.128 2.756q-.5.053-1.038.089a29.121 29.121 0 0 1-3.948-.015q-.324-.022-.647-.055l-.25-.027q-.4-.044-.807-.106c-.716-.107-1.426-.249-2.126-.424a23.574 23.574 0 0 1-5.444-2.1q-.228-.121-.451-.249c-.079-.044-.157-.089-.235-.135l-.207-.122-.01-.005-.2-.12-.22-.138-.049-.031q-.192-.122-.379-.246l-.208-.14-.017-.011-.187-.13-.2-.143-.193-.141h-.006l-.2-.147-.218-.168-.165-.131-.188-.152-.144-.12-.078-.067-.144-.123-.178-.157-.3-.279-.09-.085q-.151-.144-.3-.291c-.051-.051-.1-.1-.151-.154-.115-.118-.226-.237-.334-.358-.043-.047-.086-.1-.128-.143-.1-.109-.19-.218-.281-.329l-.017-.02-.132-.163a9.187 9.187 0 0 1-2.106-4.749c-.527-5.322 2.455-12.9 12.5-12.968a23.079 23.079 0 0 1 3.1.2l.1.013a16.255 16.255 0 0 1 13.739 11.242 21.189 21.189 0 0 1 1.072 9.255z" data-name="Path 10936" transform="translate(-3340.155 -348.357)"/>
        <path id="prefix__Path_10937" fill="url(#prefix__linear-gradient-2)" d="M3375.254 371a1.788 1.788 0 0 1-.4 1.387c-.4.359-3.068 2.213-8.128 2.756q-.5.053-1.038.089a29.121 29.121 0 0 1-3.948-.015q-.324-.022-.647-.055l-.25-.027q-.4-.044-.807-.106c-.716-.107-1.426-.249-2.126-.424a23.574 23.574 0 0 1-5.444-2.1q-.228-.121-.451-.249c-.079-.044-.157-.089-.235-.135l-.207-.122-.01-.005-.2-.12-.22-.138-.049-.031q-.192-.122-.379-.246l-.208-.14-.017-.011-.187-.13-.2-.143-.193-.141h-.006l-.2-.147-.218-.168-.165-.131-.188-.152-.144-.12-.078-.067-.144-.123-.178-.157-.3-.279-.09-.085q-.151-.144-.3-.291c-.051-.051-.1-.1-.151-.154-.115-.118-.226-.237-.334-.358-.043-.047-.086-.1-.128-.143-.1-.109-.19-.218-.281-.329l-.017-.02-.132-.163a9.187 9.187 0 0 1-2.106-4.749c-.527-5.322 2.455-12.9 12.5-12.968a23.079 23.079 0 0 1 3.1.2l.1.013a16.255 16.255 0 0 1 13.739 11.242 21.189 21.189 0 0 1 1.072 9.255z" data-name="Path 10937" transform="translate(-3340.155 -348.357)"/>
        <path id="prefix__Path_10938" fill="url(#prefix__linear-gradient-3)" d="M3375.254 371a1.788 1.788 0 0 1-.4 1.387c-.4.359-3.068 2.213-8.128 2.756q-.5.053-1.038.089a29.121 29.121 0 0 1-3.948-.015q-.324-.022-.647-.055l-.25-.027q-.4-.044-.807-.106c-.716-.107-1.426-.249-2.126-.424a23.574 23.574 0 0 1-5.444-2.1q-.228-.121-.451-.249c-.079-.044-.157-.089-.235-.135l-.207-.122-.01-.005-.2-.12-.22-.138-.049-.031q-.192-.122-.379-.246l-.208-.14-.017-.011-.187-.13-.2-.143-.193-.141h-.006l-.2-.147-.218-.168-.165-.131-.188-.152-.144-.12-.078-.067-.144-.123-.178-.157-.3-.279-.09-.085q-.151-.144-.3-.291c-.051-.051-.1-.1-.151-.154-.115-.118-.226-.237-.334-.358-.043-.047-.086-.1-.128-.143-.1-.109-.19-.218-.281-.329l-.017-.02-.132-.163a9.187 9.187 0 0 1-2.106-4.749c-.527-5.322 2.455-12.9 12.5-12.968a23.079 23.079 0 0 1 3.1.2l.1.013a16.255 16.255 0 0 1 13.739 11.242 21.189 21.189 0 0 1 1.072 9.255z" data-name="Path 10938" transform="translate(-3340.155 -348.357)"/>
        <path id="prefix__Path_10939" fill="url(#prefix__linear-gradient-4)" d="M3389.01 363.815a12.654 12.654 0 1 1-17.546-13.528 23.083 23.083 0 0 1 3.1.2l.1.013a16.254 16.254 0 0 1 13.739 11.242 20.789 20.789 0 0 1 .607 2.073z" data-name="Path 10939" transform="translate(-3354.374 -348.357)"/>
        <g id="prefix__Group_4033" data-name="Group 4033" transform="translate(11.497 2.141)">
            <g id="prefix__Group_4030" data-name="Group 4030">
                <path id="prefix__Path_10940" fill="url(#prefix__linear-gradient-5)" d="M3394.22 362.352a11.266 11.266 0 1 1-13.739-11.242 16.255 16.255 0 0 1 13.739 11.242z" data-name="Path 10940" transform="translate(-3371.691 -351.11)"/>
            </g>
            <g id="prefix__Group_4032" data-name="Group 4032">
                <g id="prefix__Group_4031" class="prefix__cls-6" data-name="Group 4031">
                    <path id="prefix__Path_10941" d="M3394.22 362.352a11.266 11.266 0 1 1-13.739-11.242 16.255 16.255 0 0 1 13.739 11.242z" class="prefix__cls-7" data-name="Path 10941" transform="translate(-3371.691 -351.11)"/>
                </g>
            </g>
        </g>
        <ellipse id="prefix__Ellipse_158" cx="1.034" cy="2.398" fill="url(#prefix__linear-gradient-6)" data-name="Ellipse 158" rx="1.034" ry="2.398" transform="rotate(-72.553 14.377 -11.586)"/>
        <g id="prefix__Group_4034" data-name="Group 4034" transform="translate(5.306 19.646)">
            <path id="prefix__Path_10942" d="M3363.326 426.153h-.02a30.525 30.525 0 0 1-8.657-1.711 15.579 15.579 0 0 1-6.786-4.5c-.606-.644.427-.866 1.21-.942l.131.163.017.02q.137.166.281.329l.128.143c.109.12.22.24.335.358.05.051.1.1.151.154q.145.147.3.291l.09.085c.1.094.2.187.3.278.058.053.118.105.178.157l.144.123.078.067.144.12.188.152.165.131.218.168.2.147h.006l.194.141.2.143.187.13.017.011.208.14c.125.083.251.165.379.246l.049.031.219.136.2.121.009.005.207.122c.078.046.156.091.235.135q.224.127.451.249a23.619 23.619 0 0 0 5.444 2.1c.7.174 1.41.316 2.126.424q.4.06.807.106z" data-name="Path 10942" transform="translate(-3347.681 -418.996)"/>
        </g>
        <ellipse id="prefix__Ellipse_159" cx="1.444" cy="1.069" class="prefix__cls-10" data-name="Ellipse 159" rx="1.444" ry="1.069" transform="rotate(-57.7 11.249 -.74)"/>
        <path id="prefix__Path_10944" fill="url(#prefix__radial-gradient)" d="M3387.645 399.756a7.462 7.462 0 0 1-3.8 6.223q-.5.053-1.038.089a29.117 29.117 0 0 1-3.948-.015q-.324-.022-.647-.055a30.527 30.527 0 0 1-8.657-1.711 7.59 7.59 0 0 1-1.071-1.574 6.513 6.513 0 0 1-.716-2.956c0-4.371 4.449-7.915 9.938-7.915s9.939 3.543 9.939 7.914z" data-name="Path 10944" opacity="0.07" transform="translate(-3357.284 -379.197)"/>
        <path id="prefix__Path_10945" d="M3344.192 344.734a23.083 23.083 0 0 1 3.1.2l.1.013a16.254 16.254 0 0 1 13.739 11.242 20.856 20.856 0 0 1 .61 2.074q.056.237.107.473a14.123 14.123 0 0 0-4.816-10.595c-6.066-5.489-16.062-5.662-18.893-5.142s-5.258 1.733-6.529 1.964a15.138 15.138 0 0 1-3.987 0c-.635-.116-.52.347-.4.52a7.174 7.174 0 0 0 4.275 3.351 5.165 5.165 0 0 1-4.391-1.618s.809 2.427 4.333 2.427c0 0-1.1 5.075.2 7.593l.024.04c-.333-5.292 2.752-12.476 12.528-12.542z" data-name="Path 10945" transform="translate(-3327.102 -342.805)"/>
    </g>
    <g id="prefix__Group_4070" data-name="Group 4070" transform="translate(54.727)">
        <path id="prefix__Path_10936-2" fill="url(#prefix__linear-gradient-8)" d="M3344.819 371a1.819 1.819 0 0 0 .4 1.387c.394.359 3 2.213 7.952 2.756q.493.053 1.016.089a27.872 27.872 0 0 0 3.863-.015q.317-.022.633-.055l.244-.027q.4-.044.79-.106c.7-.107 1.395-.249 2.08-.424a22.759 22.759 0 0 0 5.326-2.1q.223-.121.441-.249c.078-.044.154-.089.23-.135l.2-.122.01-.005.194-.12.215-.138.048-.031q.188-.122.371-.246l.2-.14.017-.011.183-.13.2-.143.189-.141h.006c.065-.048.128-.1.192-.147l.213-.168.162-.131.184-.152.141-.12.076-.067.141-.123.174-.157.3-.279.088-.085c.1-.1.194-.193.29-.291.05-.051.1-.1.147-.154.112-.118.221-.237.327-.358.042-.047.084-.1.125-.143.095-.109.186-.218.275-.329l.016-.02.129-.163a9.288 9.288 0 0 0 2.06-4.749c.515-5.322-2.4-12.9-12.225-12.968a22.092 22.092 0 0 0-3.035.2l-.093.013c-7.549 1.031-11.629 5.973-13.441 11.242a21.612 21.612 0 0 0-1.049 9.255z" data-name="Path 10936" transform="translate(-3344.69 -348.357)"/>
        <path id="prefix__Path_10937-2" fill="url(#prefix__linear-gradient-9)" d="M3344.819 371a1.819 1.819 0 0 0 .4 1.387c.394.359 3 2.213 7.952 2.756q.493.053 1.016.089a27.872 27.872 0 0 0 3.863-.015q.317-.022.633-.055l.244-.027q.4-.044.79-.106c.7-.107 1.395-.249 2.08-.424a22.759 22.759 0 0 0 5.326-2.1q.223-.121.441-.249c.078-.044.154-.089.23-.135l.2-.122.01-.005.194-.12.215-.138.048-.031q.188-.122.371-.246l.2-.14.017-.011.183-.13.2-.143.189-.141h.006c.065-.048.128-.1.192-.147l.213-.168.162-.131.184-.152.141-.12.076-.067.141-.123.174-.157.3-.279.088-.085c.1-.1.194-.193.29-.291.05-.051.1-.1.147-.154.112-.118.221-.237.327-.358.042-.047.084-.1.125-.143.095-.109.186-.218.275-.329l.016-.02.129-.163a9.288 9.288 0 0 0 2.06-4.749c.515-5.322-2.4-12.9-12.225-12.968a22.092 22.092 0 0 0-3.035.2l-.093.013c-7.549 1.031-11.629 5.973-13.441 11.242a21.612 21.612 0 0 0-1.049 9.255z" data-name="Path 10937" transform="translate(-3344.69 -348.357)"/>
        <path id="prefix__Path_10938-2" fill="url(#prefix__linear-gradient-10)" d="M3344.819 371a1.819 1.819 0 0 0 .4 1.387c.394.359 3 2.213 7.952 2.756q.493.053 1.016.089a27.872 27.872 0 0 0 3.863-.015q.317-.022.633-.055l.244-.027q.4-.044.79-.106c.7-.107 1.395-.249 2.08-.424a22.759 22.759 0 0 0 5.326-2.1q.223-.121.441-.249c.078-.044.154-.089.23-.135l.2-.122.01-.005.194-.12.215-.138.048-.031q.188-.122.371-.246l.2-.14.017-.011.183-.13.2-.143.189-.141h.006c.065-.048.128-.1.192-.147l.213-.168.162-.131.184-.152.141-.12.076-.067.141-.123.174-.157.3-.279.088-.085c.1-.1.194-.193.29-.291.05-.051.1-.1.147-.154.112-.118.221-.237.327-.358.042-.047.084-.1.125-.143.095-.109.186-.218.275-.329l.016-.02.129-.163a9.288 9.288 0 0 0 2.06-4.749c.515-5.322-2.4-12.9-12.225-12.968a22.092 22.092 0 0 0-3.035.2l-.093.013c-7.549 1.031-11.629 5.973-13.441 11.242a21.612 21.612 0 0 0-1.049 9.255z" data-name="Path 10938" transform="translate(-3344.69 -348.357)"/>
        <path id="prefix__Path_10939-2" fill="url(#prefix__linear-gradient-11)" d="M3363.849 363.815a12.363 12.363 0 0 0 24.615-1.918 12.666 12.666 0 0 0-7.449-11.61 22.1 22.1 0 0 0-3.035.2l-.094.013c-7.548 1.031-11.629 5.973-13.44 11.242a21.218 21.218 0 0 0-.597 2.073z" data-name="Path 10939" transform="translate(-3363.268 -348.357)"/>
        <g id="prefix__Group_4033-2" data-name="Group 4033" transform="translate(1.177 2.141)">
            <g id="prefix__Group_4030-2" data-name="Group 4030">
                <path id="prefix__Path_10940-2" fill="url(#prefix__linear-gradient-12)" d="M3371.691 362.352a11.027 11.027 0 1 0 13.44-11.242c-7.548 1.031-11.631 5.973-13.44 11.242z" data-name="Path 10940" transform="translate(-3371.691 -351.11)"/>
            </g>
            <g id="prefix__Group_4032-2" data-name="Group 4032">
                <g id="prefix__Group_4031-2" class="prefix__cls-6" data-name="Group 4031">
                    <path id="prefix__Path_10941-2" d="M3371.691 362.352a11.027 11.027 0 1 0 13.44-11.242c-7.548 1.031-11.631 5.973-13.44 11.242z" class="prefix__cls-7" data-name="Path 10941" transform="translate(-3371.691 -351.11)"/>
                </g>
            </g>
        </g>
        <path id="prefix__Path_11000" fill="url(#prefix__linear-gradient-13)" d="M1.144 4.74c.57 0 1.025-1.046 1.017-2.344S1.684.043 1.114.04.089 1.085.1 2.383.574 4.737 1.144 4.74z" data-name="Path 11000" transform="rotate(-107.447 7.277 .144)"/>
        <g id="prefix__Group_4034-2" data-name="Group 4034" transform="translate(9.49 19.646)">
            <path id="prefix__Path_10942-2" d="M3347.681 426.153h.02a29.3 29.3 0 0 0 8.469-1.711 15.25 15.25 0 0 0 6.638-4.5c.593-.644-.418-.866-1.184-.942l-.129.163-.016.02q-.134.166-.275.329l-.125.143c-.106.12-.215.24-.327.358-.049.051-.1.1-.147.154q-.142.147-.29.291l-.088.085q-.146.14-.3.278c-.057.053-.115.105-.174.157l-.141.123-.076.067-.141.12-.184.152-.162.131-.213.168-.192.147h-.006l-.189.141-.2.143-.183.13-.017.011-.2.14c-.122.083-.246.165-.371.246l-.047.031-.215.136-.2.121-.009.005-.2.122c-.076.046-.153.091-.23.135-.146.084-.293.168-.441.249a22.8 22.8 0 0 1-5.326 2.1c-.685.174-1.38.316-2.08.424q-.393.06-.789.106z" data-name="Path 10942" transform="translate(-3343.203 -418.996)"/>
        </g>
        <path id="prefix__Path_11001" d="M1.515 2.192c.793.008 1.431-.457 1.425-1.038S2.287.1 1.494.088.063.545.069 1.126s.653 1.059 1.446 1.066z" class="prefix__cls-10" data-name="Path 11001" transform="scale(-1) rotate(57.7 -4.034 -29.646)"/>
        <path id="prefix__Path_10944-2" fill="url(#prefix__radial-gradient-2)" d="M3367.77 399.756a7.486 7.486 0 0 0 3.713 6.223q.493.053 1.016.089a27.864 27.864 0 0 0 3.863-.015q.318-.022.634-.055a29.3 29.3 0 0 0 8.469-1.711 7.612 7.612 0 0 0 1.048-1.574 6.633 6.633 0 0 0 .7-2.956c0-4.371-4.353-7.915-9.722-7.915s-9.721 3.543-9.721 7.914z" data-name="Path 10944" opacity="0.07" transform="translate(-3363.007 -379.197)"/>
        <path id="prefix__Path_10945-2" d="M3344.373 344.734a22.1 22.1 0 0 0-3.035.2l-.094.013c-7.548 1.031-11.629 5.973-13.44 11.242a21.22 21.22 0 0 0-.6 2.074q-.055.237-.1.473a14.275 14.275 0 0 1 4.711-10.595c5.935-5.489 15.713-5.662 18.482-5.142s5.144 1.733 6.387 1.964a14.489 14.489 0 0 0 3.9 0c.622-.116.509.347.4.52a7.062 7.062 0 0 1-4.182 3.351 4.981 4.981 0 0 0 4.3-1.618s-.791 2.427-4.239 2.427c0 0 1.074 5.075-.2 7.593-.007.013-.015.027-.024.04.315-5.292-2.702-12.476-12.266-12.542z" data-name="Path 10945" transform="translate(-3326.626 -342.805)"/>
    </g>
</svg>
