<svg xmlns="http://www.w3.org/2000/svg" xmlns:xlink="http://www.w3.org/1999/xlink" width="88.997" height="27.371" viewBox="0 0 88.997 27.371">
    <defs>
        <linearGradient id="prefix__linear-gradient" x2="1" y1=".5" y2=".5" gradientUnits="objectBoundingBox">
            <stop offset="0" stop-color="#e6e6e6"/>
            <stop offset=".426" stop-color="#eee"/>
            <stop offset="1" stop-color="#f2f2f2"/>
        </linearGradient>
        <linearGradient id="prefix__linear-gradient-2" x1=".099" x2=".349" y1=".084" y2=".349" gradientUnits="objectBoundingBox">
            <stop offset="0" stop-color="#8e7869"/>
            <stop offset=".012" stop-color="#927c6e" stop-opacity=".961"/>
            <stop offset=".099" stop-color="#ab9c91" stop-opacity=".706"/>
            <stop offset=".193" stop-color="#c1b6af" stop-opacity=".486"/>
            <stop offset=".296" stop-color="#d3ccc7" stop-opacity=".306"/>
            <stop offset=".409" stop-color="#e1ddda" stop-opacity=".169"/>
            <stop offset=".54" stop-color="#eae9e7" stop-opacity=".075"/>
            <stop offset=".703" stop-color="#f0efef" stop-opacity=".016"/>
            <stop offset="1" stop-color="#f2f2f2" stop-opacity="0"/>
        </linearGradient>
        <linearGradient id="prefix__linear-gradient-3" x1="1.017" x2=".569" y1=".879" y2=".551" gradientUnits="objectBoundingBox">
            <stop offset=".052" stop-color="#8e7869"/>
            <stop offset=".063" stop-color="#927c6e" stop-opacity=".961"/>
            <stop offset=".146" stop-color="#ab9c91" stop-opacity=".706"/>
            <stop offset=".235" stop-color="#c1b6af" stop-opacity=".486"/>
            <stop offset=".332" stop-color="#d3ccc7" stop-opacity=".306"/>
            <stop offset=".44" stop-color="#e1ddda" stop-opacity=".169"/>
            <stop offset=".564" stop-color="#eae9e7" stop-opacity=".075"/>
            <stop offset=".719" stop-color="#f0efef" stop-opacity=".016"/>
            <stop offset="1" stop-color="#f2f2f2" stop-opacity="0"/>
        </linearGradient>
        <linearGradient id="prefix__linear-gradient-4" x2="1" y1=".5" y2=".5" gradientUnits="objectBoundingBox">
            <stop offset="0" stop-color="#d31b32"/>
            <stop offset="1" stop-color="#42210b"/>
        </linearGradient>
        <linearGradient id="prefix__linear-gradient-5" x2="1" y1=".5" y2=".5" gradientUnits="objectBoundingBox">
            <stop offset="0"/>
            <stop offset=".138"/>
            <stop offset="1"/>
        </linearGradient>
        <linearGradient id="prefix__linear-gradient-6" x1="74.922" x2="76.767" y1="-103.074" y2="-102.767" gradientUnits="objectBoundingBox">
            <stop offset="0" stop-color="#f2f2f2" stop-opacity="0"/>
            <stop offset=".495" stop-color="#b9b7b8"/>
            <stop offset="1" stop-color="#f2f2f2" stop-opacity="0"/>
        </linearGradient>
        <linearGradient id="prefix__linear-gradient-7" x1=".089" x2=".911" y1=".5" y2=".5" gradientUnits="objectBoundingBox">
            <stop offset="0" stop-color="#f2f2f2"/>
            <stop offset=".574" stop-color="#eee"/>
            <stop offset="1" stop-color="#e6e6e6"/>
        </linearGradient>
        <linearGradient id="prefix__linear-gradient-8" x1="1" x2="0" y1=".5" y2=".5" xlink:href="#prefix__linear-gradient"/>
        <linearGradient id="prefix__linear-gradient-9" x1=".901" x2=".651" y1=".084" y2=".349" xlink:href="#prefix__linear-gradient-2"/>
        <linearGradient id="prefix__linear-gradient-10" x1="-.017" x2=".431" y1=".879" y2=".551" xlink:href="#prefix__linear-gradient-3"/>
        <linearGradient id="prefix__linear-gradient-11" x1="1" x2="0" y1=".5" y2=".5" xlink:href="#prefix__linear-gradient-4"/>
        <linearGradient id="prefix__linear-gradient-12" x1="1" x2="0" y1=".5" y2=".5" xlink:href="#prefix__linear-gradient-5"/>
        <linearGradient id="prefix__linear-gradient-13" x1="74.922" x2="76.767" y1="104.074" y2="103.767" xlink:href="#prefix__linear-gradient-6"/>
        <radialGradient id="prefix__radial-gradient" cx=".5" cy=".5" r=".606" gradientTransform="matrix(.719 0 0 1 .141 0)" gradientUnits="objectBoundingBox">
            <stop offset="0" stop-color="#e6e6e6" stop-opacity="0"/>
            <stop offset=".377" stop-color="#e6e6e6" stop-opacity=".008"/>
            <stop offset=".512" stop-color="#e6e6e6" stop-opacity=".035"/>
            <stop offset=".609" stop-color="#e7e7e7" stop-opacity=".086"/>
            <stop offset=".687" stop-color="#e7e7e7" stop-opacity=".153"/>
            <stop offset=".754" stop-color="#e8e8e8" stop-opacity=".247"/>
            <stop offset=".813" stop-color="#eaeaea" stop-opacity=".357"/>
            <stop offset=".867" stop-color="#ebebeb" stop-opacity=".49"/>
            <stop offset=".917" stop-color="#ededed" stop-opacity=".647"/>
            <stop offset=".96" stop-color="#efefef" stop-opacity=".82"/>
            <stop offset="1" stop-color="#f2f2f2"/>
        </radialGradient>
        <radialGradient id="prefix__radial-gradient-2" cx=".5" cy=".5" r=".606" gradientTransform="matrix(-.719 0 0 1 .859 0)" xlink:href="#prefix__radial-gradient"/>
        <style>
            .prefix__cls-6{opacity:.1}.prefix__cls-7{fill:#fff}.prefix__cls-9{fill:none;stroke:#ed1c24;stroke-miterlimit:10}.prefix__cls-10{fill:url(#prefix__linear-gradient-7)}
        </style>
    </defs>
    <g id="prefix__Group_4072" data-name="Group 4072" transform="translate(-1125.258 -545.069)">
        <g id="prefix__Group_4020" data-name="Group 4020" transform="translate(1125.258 545.069)">
            <g id="prefix__Group_4061" data-name="Group 4061">
                <path id="prefix__Path_10976" fill="url(#prefix__linear-gradient)" d="M3822.254 371a1.788 1.788 0 0 1-.4 1.387c-.4.359-3.068 2.213-8.128 2.756q-.5.053-1.038.089a29.121 29.121 0 0 1-3.948-.015q-.324-.022-.648-.055l-.25-.027q-.4-.044-.807-.106c-.716-.107-1.426-.249-2.126-.424a23.58 23.58 0 0 1-5.444-2.1c-.152-.081-.3-.164-.451-.249-.079-.044-.157-.089-.235-.135l-.207-.122-.01-.005-.2-.12-.22-.138-.049-.031q-.192-.122-.379-.246l-.208-.14-.017-.011-.187-.13-.2-.143-.193-.141h-.006l-.2-.147-.218-.168-.165-.131-.188-.152-.144-.12-.078-.067-.144-.123c-.06-.052-.12-.1-.178-.157l-.3-.279-.09-.085q-.151-.144-.3-.291c-.051-.051-.1-.1-.151-.154-.115-.118-.226-.237-.334-.358-.043-.047-.086-.1-.128-.143q-.145-.163-.281-.329l-.017-.02-.133-.163a9.187 9.187 0 0 1-2.106-4.749c-.527-5.322 2.455-12.9 12.5-12.968a23.079 23.079 0 0 1 3.1.2l.1.013a16.254 16.254 0 0 1 13.739 11.242 21.189 21.189 0 0 1 1.072 9.255z" data-name="Path 10976" transform="translate(-3787.155 -348.357)"/>
                <path id="prefix__Path_10977" fill="url(#prefix__linear-gradient-2)" d="M3822.254 371a1.788 1.788 0 0 1-.4 1.387c-.4.359-3.068 2.213-8.128 2.756q-.5.053-1.038.089a29.121 29.121 0 0 1-3.948-.015q-.324-.022-.648-.055l-.25-.027q-.4-.044-.807-.106c-.716-.107-1.426-.249-2.126-.424a23.58 23.58 0 0 1-5.444-2.1c-.152-.081-.3-.164-.451-.249-.079-.044-.157-.089-.235-.135l-.207-.122-.01-.005-.2-.12-.22-.138-.049-.031q-.192-.122-.379-.246l-.208-.14-.017-.011-.187-.13-.2-.143-.193-.141h-.006l-.2-.147-.218-.168-.165-.131-.188-.152-.144-.12-.078-.067-.144-.123c-.06-.052-.12-.1-.178-.157l-.3-.279-.09-.085q-.151-.144-.3-.291c-.051-.051-.1-.1-.151-.154-.115-.118-.226-.237-.334-.358-.043-.047-.086-.1-.128-.143q-.145-.163-.281-.329l-.017-.02-.133-.163a9.187 9.187 0 0 1-2.106-4.749c-.527-5.322 2.455-12.9 12.5-12.968a23.079 23.079 0 0 1 3.1.2l.1.013a16.254 16.254 0 0 1 13.739 11.242 21.189 21.189 0 0 1 1.072 9.255z" data-name="Path 10977" transform="translate(-3787.155 -348.357)"/>
                <path id="prefix__Path_10978" fill="url(#prefix__linear-gradient-3)" d="M3822.254 371a1.788 1.788 0 0 1-.4 1.387c-.4.359-3.068 2.213-8.128 2.756q-.5.053-1.038.089a29.121 29.121 0 0 1-3.948-.015q-.324-.022-.648-.055l-.25-.027q-.4-.044-.807-.106c-.716-.107-1.426-.249-2.126-.424a23.58 23.58 0 0 1-5.444-2.1c-.152-.081-.3-.164-.451-.249-.079-.044-.157-.089-.235-.135l-.207-.122-.01-.005-.2-.12-.22-.138-.049-.031q-.192-.122-.379-.246l-.208-.14-.017-.011-.187-.13-.2-.143-.193-.141h-.006l-.2-.147-.218-.168-.165-.131-.188-.152-.144-.12-.078-.067-.144-.123c-.06-.052-.12-.1-.178-.157l-.3-.279-.09-.085q-.151-.144-.3-.291c-.051-.051-.1-.1-.151-.154-.115-.118-.226-.237-.334-.358-.043-.047-.086-.1-.128-.143q-.145-.163-.281-.329l-.017-.02-.133-.163a9.187 9.187 0 0 1-2.106-4.749c-.527-5.322 2.455-12.9 12.5-12.968a23.079 23.079 0 0 1 3.1.2l.1.013a16.254 16.254 0 0 1 13.739 11.242 21.189 21.189 0 0 1 1.072 9.255z" data-name="Path 10978" transform="translate(-3787.155 -348.357)"/>
                <path id="prefix__Path_10979" fill="url(#prefix__linear-gradient-4)" d="M3836.01 363.815a12.654 12.654 0 1 1-17.546-13.528 23.083 23.083 0 0 1 3.1.2l.1.013a16.254 16.254 0 0 1 13.739 11.242 20.789 20.789 0 0 1 .607 2.073z" data-name="Path 10979" transform="translate(-3801.374 -348.357)"/>
                <g id="prefix__Group_4059" data-name="Group 4059" transform="translate(11.497 2.141)">
                    <g id="prefix__Group_4056" data-name="Group 4056">
                        <path id="prefix__Path_10980" fill="url(#prefix__linear-gradient-5)" d="M3841.22 362.352a11.266 11.266 0 1 1-13.739-11.242 16.255 16.255 0 0 1 13.739 11.242z" data-name="Path 10980" transform="translate(-3818.691 -351.11)"/>
                    </g>
                    <g id="prefix__Group_4058" data-name="Group 4058">
                        <g id="prefix__Group_4057" class="prefix__cls-6" data-name="Group 4057">
                            <path id="prefix__Path_10981" d="M3841.22 362.352a11.266 11.266 0 1 1-13.739-11.242 16.255 16.255 0 0 1 13.739 11.242z" class="prefix__cls-7" data-name="Path 10981" transform="translate(-3818.691 -351.11)"/>
                        </g>
                    </g>
                </g>
                <ellipse id="prefix__Ellipse_166" cx="1.034" cy="2.398" fill="url(#prefix__linear-gradient-6)" data-name="Ellipse 166" rx="1.034" ry="2.398" transform="rotate(-72.553 14.377 -11.586)"/>
                <g id="prefix__Group_4060" data-name="Group 4060" transform="translate(5.306 19.646)">
                    <path id="prefix__Path_10982" d="M3810.326 426.153h-.02a30.525 30.525 0 0 1-8.657-1.711 15.574 15.574 0 0 1-6.786-4.5c-.606-.644.427-.866 1.21-.942l.131.163.017.02q.137.166.281.329l.128.143c.109.12.22.24.334.358l.151.154q.145.147.3.291l.09.085q.149.14.3.278c.058.053.118.105.178.157l.143.123.078.067.144.12.188.152.165.131.219.168.2.147h.006l.194.141.2.143.187.13.018.011.208.14q.187.125.379.246l.048.031.219.136.2.121.009.005.207.122c.078.046.156.091.235.135q.224.127.451.249a23.617 23.617 0 0 0 5.444 2.1c.7.174 1.41.316 2.126.424q.4.06.807.106z" data-name="Path 10982" transform="translate(-3794.68 -418.996)"/>
                </g>
                <ellipse id="prefix__Ellipse_167" cx="1.444" cy="1.069" class="prefix__cls-10" data-name="Ellipse 167" rx="1.444" ry="1.069" transform="rotate(-57.7 11.249 -.74)"/>
                <path id="prefix__Path_10984" fill="url(#prefix__radial-gradient)" d="M3834.645 399.756a7.461 7.461 0 0 1-3.8 6.223q-.5.053-1.038.089a29.113 29.113 0 0 1-3.948-.015q-.324-.022-.647-.055a30.523 30.523 0 0 1-8.657-1.711 7.582 7.582 0 0 1-1.071-1.574 6.51 6.51 0 0 1-.716-2.956c0-4.371 4.449-7.915 9.938-7.915s9.939 3.543 9.939 7.914z" data-name="Path 10984" opacity="0.07" transform="translate(-3804.284 -379.197)"/>
                <path id="prefix__Path_10985" d="M3791.192 344.734a23.083 23.083 0 0 1 3.1.2l.1.013a16.254 16.254 0 0 1 13.739 11.242 20.789 20.789 0 0 1 .61 2.074q.057.237.107.473a14.123 14.123 0 0 0-4.816-10.595c-6.066-5.489-16.062-5.662-18.893-5.142s-5.258 1.733-6.528 1.964a15.138 15.138 0 0 1-3.987 0c-.635-.116-.52.347-.4.52a7.173 7.173 0 0 0 4.275 3.351 5.165 5.165 0 0 1-4.391-1.618s.809 2.427 4.333 2.427c0 0-1.1 5.075.2 7.593l.024.04c-.334-5.292 2.75-12.476 12.527-12.542z" data-name="Path 10985" transform="translate(-3774.102 -342.805)"/>
            </g>
        </g>
        <g id="prefix__Group_4071" data-name="Group 4071" transform="translate(1179.402 545.069)">
            <g id="prefix__Group_4061-2" data-name="Group 4061">
                <path id="prefix__Path_10976-2" fill="url(#prefix__linear-gradient-8)" d="M3791.821 371a1.8 1.8 0 0 0 .4 1.387c.4.359 3.035 2.213 8.042 2.756q.5.053 1.027.089a28.5 28.5 0 0 0 3.906-.015q.321-.022.641-.055l.247-.027q.4-.044.8-.106c.708-.107 1.411-.249 2.1-.424a23.182 23.182 0 0 0 5.386-2.1c.15-.081.3-.164.446-.249.078-.044.155-.089.233-.135l.2-.122.01-.005.2-.12.218-.138.048-.031q.189-.122.375-.246l.206-.14.017-.011.185-.13.2-.143.191-.141h.006l.194-.147q.109-.083.216-.168l.164-.131.186-.152.142-.12.077-.067.142-.123.176-.157q.153-.138.3-.279l.089-.085c.1-.1.2-.193.293-.291l.149-.154c.113-.118.223-.237.331-.358.043-.047.085-.1.127-.143q.143-.163.278-.329l.016-.02.131-.163a9.238 9.238 0 0 0 2.083-4.749c.521-5.322-2.429-12.9-12.363-12.968a22.594 22.594 0 0 0-3.069.2l-.094.013a16.128 16.128 0 0 0-13.592 11.242 21.39 21.39 0 0 0-1.061 9.255z" data-name="Path 10976" transform="translate(-3791.69 -348.357)"/>
                <path id="prefix__Path_10977-2" fill="url(#prefix__linear-gradient-9)" d="M3791.821 371a1.8 1.8 0 0 0 .4 1.387c.4.359 3.035 2.213 8.042 2.756q.5.053 1.027.089a28.5 28.5 0 0 0 3.906-.015q.321-.022.641-.055l.247-.027q.4-.044.8-.106c.708-.107 1.411-.249 2.1-.424a23.182 23.182 0 0 0 5.386-2.1c.15-.081.3-.164.446-.249.078-.044.155-.089.233-.135l.2-.122.01-.005.2-.12.218-.138.048-.031q.189-.122.375-.246l.206-.14.017-.011.185-.13.2-.143.191-.141h.006l.194-.147q.109-.083.216-.168l.164-.131.186-.152.142-.12.077-.067.142-.123.176-.157q.153-.138.3-.279l.089-.085c.1-.1.2-.193.293-.291l.149-.154c.113-.118.223-.237.331-.358.043-.047.085-.1.127-.143q.143-.163.278-.329l.016-.02.131-.163a9.238 9.238 0 0 0 2.083-4.749c.521-5.322-2.429-12.9-12.363-12.968a22.594 22.594 0 0 0-3.069.2l-.094.013a16.128 16.128 0 0 0-13.592 11.242 21.39 21.39 0 0 0-1.061 9.255z" data-name="Path 10977" transform="translate(-3791.69 -348.357)"/>
                <path id="prefix__Path_10978-2" fill="url(#prefix__linear-gradient-10)" d="M3791.821 371a1.8 1.8 0 0 0 .4 1.387c.4.359 3.035 2.213 8.042 2.756q.5.053 1.027.089a28.5 28.5 0 0 0 3.906-.015q.321-.022.641-.055l.247-.027q.4-.044.8-.106c.708-.107 1.411-.249 2.1-.424a23.182 23.182 0 0 0 5.386-2.1c.15-.081.3-.164.446-.249.078-.044.155-.089.233-.135l.2-.122.01-.005.2-.12.218-.138.048-.031q.189-.122.375-.246l.206-.14.017-.011.185-.13.2-.143.191-.141h.006l.194-.147q.109-.083.216-.168l.164-.131.186-.152.142-.12.077-.067.142-.123.176-.157q.153-.138.3-.279l.089-.085c.1-.1.2-.193.293-.291l.149-.154c.113-.118.223-.237.331-.358.043-.047.085-.1.127-.143q.143-.163.278-.329l.016-.02.131-.163a9.238 9.238 0 0 0 2.083-4.749c.521-5.322-2.429-12.9-12.363-12.968a22.594 22.594 0 0 0-3.069.2l-.094.013a16.128 16.128 0 0 0-13.592 11.242 21.39 21.39 0 0 0-1.061 9.255z" data-name="Path 10978" transform="translate(-3791.69 -348.357)"/>
                <path id="prefix__Path_10979-2" fill="url(#prefix__linear-gradient-11)" d="M3810.849 363.815a12.529 12.529 0 1 0 17.359-13.528 22.6 22.6 0 0 0-3.069.2l-.094.013a16.129 16.129 0 0 0-13.592 11.242 21.067 21.067 0 0 0-.604 2.073z" data-name="Path 10979" transform="translate(-3810.262 -348.357)"/>
                <g id="prefix__Group_4059-2" data-name="Group 4059" transform="translate(1.19 2.141)">
                    <g id="prefix__Group_4056-2" data-name="Group 4056">
                        <path id="prefix__Path_10980-2" fill="url(#prefix__linear-gradient-12)" d="M3818.69 362.352a11.148 11.148 0 1 0 13.592-11.242 16.129 16.129 0 0 0-13.592 11.242z" data-name="Path 10980" transform="translate(-3818.69 -351.11)"/>
                    </g>
                    <g id="prefix__Group_4058-2" data-name="Group 4058">
                        <g id="prefix__Group_4057-2" class="prefix__cls-6" data-name="Group 4057">
                            <path id="prefix__Path_10981-2" d="M3818.69 362.352a11.148 11.148 0 1 0 13.592-11.242 16.129 16.129 0 0 0-13.592 11.242z" class="prefix__cls-7" data-name="Path 10981" transform="translate(-3818.69 -351.11)"/>
                        </g>
                    </g>
                </g>
                <path id="prefix__Path_11002" fill="url(#prefix__linear-gradient-13)" d="M1.08 4.765c.57 0 1.03-1.06 1.026-2.371S1.635.018 1.065.017.035 1.077.04 2.388s.469 2.376 1.04 2.377z" data-name="Path 11002" transform="rotate(-107.447 7.312 .077)"/>
                <g id="prefix__Group_4060-2" data-name="Group 4060" transform="translate(9.597 19.646)">
                    <path id="prefix__Path_10982-2" d="M3794.681 426.153h.02a29.92 29.92 0 0 0 8.564-1.711 15.41 15.41 0 0 0 6.713-4.5c.6-.644-.422-.866-1.2-.942l-.13.163-.017.02q-.135.166-.278.329c-.042.048-.084.1-.126.143-.108.12-.218.24-.331.358l-.15.154q-.144.147-.293.291l-.089.085q-.147.14-.3.278c-.058.053-.116.105-.176.157l-.142.123-.077.067-.142.12c-.062.051-.124.1-.186.152l-.163.131-.216.168-.194.147h-.006l-.191.141-.2.143-.185.13-.017.011-.205.14c-.124.083-.249.165-.375.246l-.048.031-.217.136-.2.121-.009.005-.2.122c-.077.046-.154.091-.232.135q-.222.127-.447.249a23.212 23.212 0 0 1-5.386 2.1c-.693.174-1.4.316-2.1.424q-.4.06-.8.106z" data-name="Path 10982" transform="translate(-3790.152 -418.996)"/>
                </g>
                <path id="prefix__Path_11003" d="M1.473 2.158c.8 0 1.438-.468 1.435-1.054S2.258.041 1.463.037.025.5.028 1.091s.65 1.063 1.445 1.067z" class="prefix__cls-10" data-name="Path 11003" transform="scale(-1) rotate(57.7 -4.244 -29.911)"/>
                <path id="prefix__Path_10984-2" fill="url(#prefix__radial-gradient-2)" d="M3814.77 399.756a7.473 7.473 0 0 0 3.755 6.223q.5.053 1.027.089a28.5 28.5 0 0 0 3.906-.015q.321-.022.64-.055a29.908 29.908 0 0 0 8.564-1.711 7.565 7.565 0 0 0 1.06-1.574 6.566 6.566 0 0 0 .709-2.956c0-4.371-4.4-7.915-9.832-7.915s-9.829 3.543-9.829 7.914z" data-name="Path 10984" opacity="0.07" transform="translate(-3809.953 -379.197)"/>
                <path id="prefix__Path_10985-2" d="M3791.567 344.734a22.6 22.6 0 0 0-3.069.2l-.094.013a16.128 16.128 0 0 0-13.592 11.242 20.87 20.87 0 0 0-.6 2.074q-.056.237-.106.473a14.2 14.2 0 0 1 4.764-10.595c6-5.489 15.89-5.662 18.69-5.142s5.2 1.733 6.459 1.964a14.816 14.816 0 0 0 3.944 0c.628-.116.514.347.4.52a7.118 7.118 0 0 1-4.229 3.351 5.073 5.073 0 0 0 4.344-1.618s-.8 2.427-4.287 2.427c0 0 1.086 5.075-.2 7.593l-.023.04c.322-5.292-2.729-12.476-12.401-12.542z" data-name="Path 10985" transform="translate(-3773.621 -342.805)"/>
            </g>
        </g>
    </g>
</svg>
