<svg xmlns="http://www.w3.org/2000/svg" width="25" height="25" viewBox="0 0 25 25">
    <g id="prefix__Group_149" data-name="Group 149" transform="translate(.032 -.096)">
        <rect id="prefix__Rectangle_24" width="25" height="25" fill="#1308ad" data-name="Rectangle 24" rx="4" transform="translate(-.032 .096)"/>
        <g id="prefix__Group_148" data-name="Group 148" transform="translate(4.797 1.6)">
            <path id="prefix__Path_160" fill="#fff" d="M-1248.883 41.255l-3.719-4.86-3.719 4.86c-2.805 3.67-3.915 5.317-3.915 7.78 0 2.088.538 3.1 2.5 4.518l5.138 3.719 5.138-3.719c1.957-1.419 2.5-2.43 2.5-4.518-.008-2.462-1.117-4.11-3.923-7.78zm-4.861 12.07l-.032 1.011c0 .13-.082.147-.163.082-1.337-.962-2.9-2.1-2.9-2.1a3.683 3.683 0 0 1-1.732-3.318 4.716 4.716 0 0 1 .359-1.876c.016-.049.049-.13.1-.13.033 0 .049.016.065.049.571.832 1.484 2.186 2.4 3.295 1.757 2.123 1.936 1.943 1.903 2.987zm1.142-1.908c-.016 0-.032-.016-.049-.016l-3.6-4.273a2.472 2.472 0 0 1-.636-1.566 1.787 1.787 0 0 1 .391-1.076l3.849-5.285c.016-.016.033-.033.049-.033s.033.016.049.033l3.849 5.285a1.9 1.9 0 0 1 .391 1.076 2.386 2.386 0 0 1-.636 1.566l-3.6 4.273a.06.06 0 0 1-.055.016zm4.241.9s-1.582 1.142-2.9 2.1c-.081.065-.147.049-.163-.082l-.033-1.011c-.033-1.044.147-.864 1.908-2.985.913-1.109 1.827-2.447 2.4-3.295a.087.087 0 0 1 .065-.049c.033 0 .082.082.1.13a5.017 5.017 0 0 1 .359 1.876 3.683 3.683 0 0 1-1.736 3.313z" data-name="Path 160" transform="translate(1260.235 -36.395)"/>
        </g>
    </g>
</svg>