<?xml version="1.0" encoding="utf-8"?>
<!-- Generator: Adobe Illustrator 22.1.0, SVG Export Plug-In . SVG Version: 6.00 Build 0)  -->
<svg version="1.1" id="Layer_1" xmlns="http://www.w3.org/2000/svg" xmlns:xlink="http://www.w3.org/1999/xlink" x="0px" y="0px"
	 viewBox="0 0 50 30" style="enable-background:new 0 0 50 30;" xml:space="preserve">
<style type="text/css">
	.st0{fill:#FF5F00;}
	.st1{fill:#EB001B;}
	.st2{fill:#F79E1B;}
</style>
<g id="prefix__Group_2868" transform="translate(.352 -.109)">
	<g id="prefix__Mastecard_large" transform="translate(0 4.585)">
		<g id="prefix__Group_2745" transform="translate(1.416)">
			<path id="prefix__Path_3365" class="st0" d="M30.1,22H17.3V-0.9h12.8V22z"/>
			<g id="prefix__Group_2510">
				<path id="prefix__Path_3366" class="st1" d="M18.1,10.5c0-4.5,2.1-8.7,5.6-11.5c-2.6-2-5.7-3.1-9-3.1C6.6-4.1,0.1,2.5,0.1,10.5
					c0,0,0,0,0,0c0,8.1,6.5,14.6,14.6,14.6c0,0,0,0,0,0c3.3,0,6.4-1.1,9-3.1C20.2,19.2,18.1,15,18.1,10.5"/>
			</g>
			<g id="prefix__Group_2511" transform="translate(15.399)">
				<path id="prefix__Path_3367" class="st2" d="M31.9,10.5c0,8.1-6.5,14.6-14.6,14.6c-3.3,0-6.5-1.1-9-3.1c3.5-2.8,5.6-7,5.6-11.5
					c0-4.5-2.1-8.7-5.6-11.5c2.6-2,5.7-3.1,9-3.1C25.4-4.1,31.9,2.5,31.9,10.5"/>
			</g>
		</g>
	</g>
</g>
</svg>
