<svg xmlns="http://www.w3.org/2000/svg" id="prefix__Group_156" width="25.522" height="25.522" data-name="Group 156" viewBox="0 0 25.522 25.522">
    <defs>
        <style>
            .prefix__cls-2{fill:#fff}
        </style>
    </defs>
    <rect id="prefix__Rectangle_26" width="25.522" height="25.522" fill="#44a953" data-name="Rectangle 26" rx="4"/>
    <g id="prefix__Group_155" data-name="Group 155" transform="translate(4.666 3.444)">
        <g id="prefix__Group_153" data-name="Group 153" transform="translate(0 13.966)">
            <g id="prefix__Group_152" data-name="Group 152">
                <path id="prefix__Path_162" d="M-353.92 273.417a3.921 3.921 0 0 0-1.942-.549 4.318 4.318 0 0 0-1.922.549 4.784 4.784 0 0 1-2.079.569 4.212 4.212 0 0 1-1.883-.53 4.8 4.8 0 0 0-2.1-.569 4.75 4.75 0 0 0-1.942.53 4.862 4.862 0 0 1-2.079.569H-368c.078.1.177.216.255.314a5.073 5.073 0 0 0 2.079-.588 4.358 4.358 0 0 1 1.8-.51 4.486 4.486 0 0 1 1.961.549 4.6 4.6 0 0 0 2.02.569 5.066 5.066 0 0 0 2.216-.608 4.277 4.277 0 0 1 1.8-.51 3.625 3.625 0 0 1 1.8.53 4.277 4.277 0 0 0 2.158.588c.1-.1.177-.216.275-.333-.078 0-.176.02-.255.02a4.576 4.576 0 0 1-2.04-.588" class="prefix__cls-2" data-name="Path 162" transform="translate(368.003 -272.868)"/>
                <path id="prefix__Path_163" d="M-348.378 282.09a4.316 4.316 0 0 0-1.922.549 4.784 4.784 0 0 1-2.079.569 4.21 4.21 0 0 1-1.883-.53 4.8 4.8 0 0 0-2.1-.569 4.751 4.751 0 0 0-1.942.53 5.626 5.626 0 0 1-1.706.549 3.629 3.629 0 0 0 .275.275 5.9 5.9 0 0 0 1.569-.53 4.358 4.358 0 0 1 1.8-.51 4.486 4.486 0 0 1 1.961.549 4.6 4.6 0 0 0 2.02.569 5.065 5.065 0 0 0 2.216-.608 4.012 4.012 0 0 1 1.8-.51 3.625 3.625 0 0 1 1.8.53 4.952 4.952 0 0 0 1.628.569 3.734 3.734 0 0 0 .275-.294 4.259 4.259 0 0 1-1.765-.549 3.741 3.741 0 0 0-1.961-.588" class="prefix__cls-2" data-name="Path 163" transform="translate(360.52 -281.502)"/>
                <path id="prefix__Path_164" d="M-341.184 291.313a4.316 4.316 0 0 0-1.922.549 4.785 4.785 0 0 1-2.079.569 4.21 4.21 0 0 1-1.883-.53 4.8 4.8 0 0 0-2.1-.569 4.749 4.749 0 0 0-1.942.53 5.572 5.572 0 0 1-1.216.451c.1.078.177.177.275.255.373-.118.726-.275 1.059-.412a4.36 4.36 0 0 1 1.8-.51 4.485 4.485 0 0 1 1.961.549 4.6 4.6 0 0 0 2.02.569 5.065 5.065 0 0 0 2.216-.608 4.277 4.277 0 0 1 1.8-.51 3.832 3.832 0 0 1 1.8.51 5.133 5.133 0 0 0 1.1.451c.1-.078.2-.177.294-.255a4.4 4.4 0 0 1-1.236-.49 4.365 4.365 0 0 0-1.961-.549" class="prefix__cls-2" data-name="Path 164" transform="translate(353.325 -290.136)"/>
                <path id="prefix__Path_165" d="M-333.7 300.843a4.316 4.316 0 0 0-1.922.549 4.785 4.785 0 0 1-2.079.569 4.21 4.21 0 0 1-1.883-.53 4.8 4.8 0 0 0-2.1-.569 4.749 4.749 0 0 0-1.942.53 7.59 7.59 0 0 1-.706.294l.294.235c.2-.078.373-.157.549-.235a4.361 4.361 0 0 1 1.8-.51 4.486 4.486 0 0 1 1.962.549 4.6 4.6 0 0 0 2.02.569 5.064 5.064 0 0 0 2.216-.608 4.011 4.011 0 0 1 1.8-.51 3.625 3.625 0 0 1 1.8.53 5.076 5.076 0 0 0 .569.275l.294-.235c-.255-.1-.49-.216-.726-.333a3.924 3.924 0 0 0-1.962-.569" class="prefix__cls-2" data-name="Path 165" transform="translate(345.842 -299.058)"/>
                <path id="prefix__Path_166" d="M-326.218 310.066a4.317 4.317 0 0 0-1.922.549 4.785 4.785 0 0 1-2.079.569 4.211 4.211 0 0 1-1.883-.53 4.545 4.545 0 0 0-2.1-.569 4.751 4.751 0 0 0-1.942.53c-.059.039-.137.059-.2.1.1.078.2.137.294.216.02 0 .02 0 .039-.02a4.359 4.359 0 0 1 1.8-.51 4.486 4.486 0 0 1 1.962.549 4.6 4.6 0 0 0 2.02.569 5.065 5.065 0 0 0 2.216-.608 4.011 4.011 0 0 1 1.8-.51 3.625 3.625 0 0 1 1.8.53c.02.02.039.02.078.039.1-.059.2-.137.294-.2a2.139 2.139 0 0 1-.216-.118 4.067 4.067 0 0 0-1.981-.588" class="prefix__cls-2" data-name="Path 166" transform="translate(338.359 -307.693)"/>
                <path id="prefix__Path_167" d="M-320.984 320.126a4.785 4.785 0 0 1-2.079.569 4.211 4.211 0 0 1-1.883-.53 4.8 4.8 0 0 0-2.1-.569 3.887 3.887 0 0 0-1.608.392 2.951 2.951 0 0 0 .333.2 3.367 3.367 0 0 1 1.275-.275 4.485 4.485 0 0 1 1.962.549 4.6 4.6 0 0 0 2.02.569 5.064 5.064 0 0 0 2.217-.608 4.277 4.277 0 0 1 1.8-.51 2.979 2.979 0 0 1 1.334.294c.118-.059.216-.137.314-.2a3.638 3.638 0 0 0-1.648-.412 4.837 4.837 0 0 0-1.942.53" class="prefix__cls-2" data-name="Path 167" transform="translate(331.164 -316.615)"/>
            </g>
        </g>
        <g id="prefix__Group_154" data-name="Group 154" transform="translate(2.118)">
            <path id="prefix__Path_168" d="M-225.042 136.164a2.059 2.059 0 0 1-.687.981c-.49.392-3.746 2.373-4.119 2.825a2.645 2.645 0 0 0-.431 1.648v3.825h.51v-.981a2.063 2.063 0 0 1 .588-1.275 28.841 28.841 0 0 1 3.256-2.315 2.443 2.443 0 0 0 .9-2.2v-2.609z" class="prefix__cls-2" data-name="Path 168" transform="translate(236.948 -130.829)"/>
            <path id="prefix__Path_169" d="M-242.923 62.89c.353-.451 3.727-2.491 4.2-2.883a2.422 2.422 0 0 0 1.04-1.746v-4.276a2.715 2.715 0 0 1-.765 1.628c-.49.647-2.746 1.863-3.864 2.648a2.873 2.873 0 0 0-1.491 2.511v7.807h.49V64.5a2.386 2.386 0 0 1 .39-1.61z" class="prefix__cls-2" data-name="Path 169" transform="translate(249.612 -53.985)"/>
            <path id="prefix__Path_170" d="M-330.663 59.033c-1.02-.785-3.1-2.452-3.354-2.785a2.831 2.831 0 0 1-.783-1.648v3.982a3 3 0 0 0 1.255 2.315c.981.726 2.373 1.765 2.8 2.2a3.17 3.17 0 0 1 .8 2.256v3.844h.49v-7.63a2.485 2.485 0 0 0-1.208-2.534z" class="prefix__cls-2" data-name="Path 170" transform="translate(334.802 -54.561)"/>
        </g>
    </g>
</svg>