<svg xmlns="http://www.w3.org/2000/svg" id="prefix__Group_157" width="25.522" height="25.522" data-name="Group 157" viewBox="0 0 25.522 25.522">
    <rect id="prefix__Rectangle_27" width="25.522" height="25.522" fill="#418de5" data-name="Rectangle 27" rx="4"/>
    <g id="prefix__g6429" transform="translate(2.705 2.557)">
        <path id="prefix__path6431" fill="#fff" d="M-831.645 56.043s.119-.2.179.08a3.841 3.841 0 0 1-.816 2.607 4.093 4.093 0 0 1-3.761 1.174 3.817 3.817 0 0 0 3.323-2.804l.08-.3a2.152 2.152 0 0 0 1-.756m6.03-8.12a.179.179 0 0 0-.02-.1s-.04-.159-.139-.438a.282.282 0 0 1-.04-.119.069.069 0 0 0-.02-.04 5.176 5.176 0 0 0-1.095-1.592s.617-.04-.06-.8a10.335 10.335 0 0 0-3.284-2.328c-1.154-.537-2.468-.318-2.348.975a1.15 1.15 0 0 1-1.413 1.174c-.776-.1-1.254-.736-1.115-1.254a2.335 2.335 0 0 1 .856-1.333 1.943 1.943 0 0 1 1.035-.5c.318-.06.756-.179.876.2.219-.119.617-.876-.677-.876a.612.612 0 0 0-.637-.338 1.828 1.828 0 0 0-2.746.3s-.557.219-.6 0c.119.1.338-.2.06-.318-.139-.06-.3.1-.318.219a.327.327 0 0 0 .3.378.747.747 0 0 0 .219 0l-.1.119c-.438.179-.836.04-.915-.259a.167.167 0 0 0 .239-.119.237.237 0 0 0-.219-.3c-.239-.04-.338.239-.3.478a.75.75 0 0 0 .916.557l-.08.119a10.61 10.61 0 0 0-.856 1.274c-.4.677-2.01 1.433-1.731-.2.08-.517-.776-1.134-2.309-.1a8.207 8.207 0 0 0-2.547 2.746s-.318.517.219.537c0 0-1.095.517-1.154 3.005v.5c0 .279.02.6.04.776a5.346 5.346 0 0 0 .378 1.751h.04c.08.06.179.08.319-.06a14.861 14.861 0 0 0 1.015 3.1c.557 1.114 1.572 2.746 1.174 3.144s-.955-.4-.876-.08a.8.8 0 0 0 1.234.478c.955-.756-.438-2.567-.876-4.856.915-.4.876-1.831.876-1.831a1.922 1.922 0 0 0 1.692-1.572 2.05 2.05 0 0 0 2.328-.915v-.02l.02-.02a3 3 0 0 0 .876 1.274 1.155 1.155 0 0 1-.816.9 2.756 2.756 0 0 0-1.891 0c-.9.358-.537 1.313.119 1.075a.259.259 0 0 1 .06-.5.616.616 0 0 0 .259.119 3.015 3.015 0 0 0 1.353-.08c.04-.02.08-.02.119-.06h.02a.867.867 0 0 0 .139-.119.237.237 0 0 1 .06.458.486.486 0 0 0 .517-.756s.119-.08.279-.2a1.762 1.762 0 0 0 .3-.358 4.314 4.314 0 0 0 1.513.657 2.371 2.371 0 0 1-1.274 1.015 2.466 2.466 0 0 0-1.811.1.668.668 0 0 0-.338.637.578.578 0 0 0 .7.5c-.159-.08-.517-.478-.06-.657a.452.452 0 0 0 .319.219 2.634 2.634 0 0 0 1.512-.2c.04-.02.06-.02.1-.04a.062.062 0 0 0 .04-.02.339.339 0 0 0 .119-.119c.219-.04.518.06.4.478.259-.04.677-.5.06-.876a3.614 3.614 0 0 0 .657-.438l.438-.438a1.861 1.861 0 0 1 1.48 1.937 2.243 2.243 0 0 1-1.433 1.97c.02 0 .06-.02.08-.02l-.1.02h.02a2.237 2.237 0 0 1-.4.04c-.756-.02-.3-.9-.3-.9a.351.351 0 0 0-.338.139.892.892 0 0 0-.119.677c-.04-.02-.08-.02-.1-.04-.657-.279-.617-.776-.617-.776-.179.08-.3.3-.239.677.1.5.736.716 1.254.776a1.919 1.919 0 0 0 1.871.418s-.478 2.547-3.7 2.428c0 0-.975-.358-.935-1.174a1.684 1.684 0 0 1 .8-1.473 1.18 1.18 0 0 0-1.254.935 1.758 1.758 0 0 0 .259 1.532c-1.214-.318-2.129-1.234-1.751-2.508a1.571 1.571 0 0 1 .338-.577 2.35 2.35 0 0 1 2.269-.338 1.136 1.136 0 0 0-1.114-.736 2.018 2.018 0 0 0-2.129 1.99c-.1 1.473.836 2.547 3.164 2.886l.04.02a4.287 4.287 0 0 0 3.4.458s4.02-.816 3.164-5.413c0 0 .935-3.065-1.035-4.8a2.9 2.9 0 0 0 2.707.418c-.1 2.786 1.075 3.144 1.075 3.144l.04-.02s-2.209 4.756-.916 5.373a.871.871 0 0 0 1.214-.458c.219-.458-.478.438-.876.06-.478-.478.119-1.612.7-2.826a13.709 13.709 0 0 0 1.453-3.662.289.289 0 0 0 .259.02l.02.02c.318-.08.517-1.393.557-1.612a6.293 6.293 0 0 0 .06-2.647" transform="translate(845.616 -40.073)"/>
    </g>
</svg>