<svg xmlns="http://www.w3.org/2000/svg" id="prefix__Group_2845" width="104.524" height="61.997" data-name="Group 2845" viewBox="0 0 104.524 61.997">
    <defs>
        <style>
            .prefix__cls-1{fill:#292729}
        </style>
    </defs>
    <g id="prefix__Group_2834" data-name="Group 2834" transform="translate(25.04)">
        <path id="prefix__Rectangle_1865" d="M0 0H2.254V18.248H0z" class="prefix__cls-1" data-name="Rectangle 1865"/>
    </g>
    <g id="prefix__Group_2835" data-name="Group 2835" transform="translate(30.408 5.698)">
        <path id="prefix__Path_3613" d="M719.426 281.811a4.636 4.636 0 0 1-3.439-1.451 8.678 8.678 0 0 1-2.029-7.243 5.2 5.2 0 0 1 3.479-3.824 5.431 5.431 0 0 1 4.391.088 6.761 6.761 0 0 1 3.082 3.7l.324 1.016-8.544 3.254a5.313 5.313 0 0 0 .919 1.44c1.116 1.159 2.745.767 3.915.234a3.457 3.457 0 0 0 1.936-2.6h2.254c0 2.308-2 4.076-3.258 4.647a7.361 7.361 0 0 1-3.03.739zm.207-10.679a4.2 4.2 0 0 0-1.424.28 2.967 2.967 0 0 0-2.054 2.214 4.71 4.71 0 0 0-.075 1.551l6.211-2.366a3.728 3.728 0 0 0-1.468-1.411 2.686 2.686 0 0 0-1.191-.268z" class="prefix__cls-1" data-name="Path 3613" transform="translate(-713.796 -268.876)"/>
    </g>
    <g id="prefix__Group_2836" data-name="Group 2836" transform="translate(56.513 5.698)">
        <path id="prefix__Path_3614" d="M1031.73 281.811a4.635 4.635 0 0 1-3.439-1.451 8.68 8.68 0 0 1-2.029-7.243 5.2 5.2 0 0 1 3.481-3.824 5.43 5.43 0 0 1 4.391.088 6.756 6.756 0 0 1 3.081 3.7l.324 1.016-8.544 3.254a5.314 5.314 0 0 0 .919 1.44c1.117 1.159 2.745.767 3.915.234a3.457 3.457 0 0 0 1.936-2.6h2.254c0 2.308-2 4.076-3.258 4.647a7.361 7.361 0 0 1-3.031.739zm.208-10.679a4.2 4.2 0 0 0-1.424.28 2.972 2.972 0 0 0-2.055 2.215 4.7 4.7 0 0 0-.074 1.55l6.21-2.366a3.726 3.726 0 0 0-1.467-1.411 2.688 2.688 0 0 0-1.19-.268z" class="prefix__cls-1" data-name="Path 3614" transform="translate(-1026.101 -268.876)"/>
    </g>
    <g id="prefix__Group_2838" data-name="Group 2838" transform="translate(53.591 .053)">
        <g id="prefix__Group_2837" data-name="Group 2837">
            <path id="prefix__Path_3615" d="M993.833 246.16a10.705 10.705 0 0 1-2.7-7.733V221.7h3.767v16.88a6.711 6.711 0 0 0 1.847 5.135 8.183 8.183 0 0 0 10.085 0 6.719 6.719 0 0 0 1.847-5.135v-37.234h3.767v37.081a10.706 10.706 0 0 1-2.7 7.713q-2.7 2.827-7.941 2.826-5.275 0-7.972-2.806z" class="prefix__cls-1" data-name="Path 3615" transform="translate(-991.136 -201.346)"/>
        </g>
    </g>
    <g id="prefix__Group_2839" data-name="Group 2839" transform="translate(43.255 6.268)">
        <path id="prefix__Path_3616" d="M867.484 275.69h2.671l3.519 8.612 3.52-8.612h2.67l-5.092 11.982h-2.2z" class="prefix__cls-1" data-name="Path 3616" transform="translate(-867.484 -275.69)"/>
    </g>
    <path id="prefix__Path_3617" d="M1283.093 447.972a13.859 13.859 0 0 0-13.843 13.843V489.3h3.381v-18.447a13.835 13.835 0 1 0 10.462-22.881zm0 24.3a10.461 10.461 0 1 1 10.461-10.461 10.473 10.473 0 0 1-10.461 10.465z" data-name="Path 3617" transform="translate(-1192.412 -427.303)" style="fill:#ce0005"/>
    <g id="prefix__Group_2840" data-name="Group 2840" transform="translate(0 20.457)">
        <path id="prefix__Path_3618" d="M387.9 472.076a13.314 13.314 0 0 1-6.773-1.848 12.14 12.14 0 0 1-2.468-1.861h-6.072a11.21 11.21 0 0 1-2.378 1.8 13.317 13.317 0 1 1-6.87-24.726H387.9a13.317 13.317 0 1 1 0 26.633zm-16.825-7.091h9.068l.5.566a8.427 8.427 0 0 0 2.2 1.767 9.936 9.936 0 1 0 5.05-18.494h-24.56a9.935 9.935 0 1 0 5.123 18.449 7.539 7.539 0 0 0 2.107-1.705z" class="prefix__cls-1" data-name="Path 3618" transform="translate(-350.021 -445.443)"/>
    </g>
    <g id="prefix__Group_2841" data-name="Group 2841" transform="translate(36.358 28.183)">
        <circle id="prefix__Ellipse_105" cx="1.738" cy="1.738" r="1.738" class="prefix__cls-1" data-name="Ellipse 105"/>
    </g>
    <g id="prefix__Group_2842" data-name="Group 2842" transform="translate(40.303 32.269)">
        <circle id="prefix__Ellipse_106" cx="1.738" cy="1.738" r="1.738" class="prefix__cls-1" data-name="Ellipse 106"/>
    </g>
    <g id="prefix__Group_2843" data-name="Group 2843" transform="translate(32.308 32.269)">
        <circle id="prefix__Ellipse_107" cx="1.738" cy="1.738" r="1.738" class="prefix__cls-1" data-name="Ellipse 107"/>
    </g>
    <g id="prefix__Group_2844" data-name="Group 2844" transform="translate(36.358 36.249)">
        <circle id="prefix__Ellipse_108" cx="1.738" cy="1.738" r="1.738" class="prefix__cls-1" data-name="Ellipse 108"/>
    </g>
    <path id="prefix__Path_3619" d="M450.177 540.753H446.8v-3.375a.564.564 0 0 0-.564-.564h-2.783a.564.564 0 0 0-.564.564v3.375h-3.376a.564.564 0 0 0-.564.564v2.783a.563.563 0 0 0 .564.564h3.376v3.376a.564.564 0 0 0 .564.564h2.783a.564.564 0 0 0 .564-.564v-3.376h3.376a.564.564 0 0 0 .564-.564v-2.783a.564.564 0 0 0-.563-.564z" class="prefix__cls-1" data-name="Path 3619" transform="translate(-431.518 -508.719)"/>
</svg>