<svg xmlns="http://www.w3.org/2000/svg" id="prefix__Group_2851" width="100" height="59.313" data-name="Group 2851" viewBox="0 0 100 59.313">
    <defs>
        <style>
            .prefix__cls-1{fill:#fff}
        </style>
    </defs>
    <g id="prefix__Group_2834" data-name="Group 2834" transform="translate(23.956)">
        <path id="prefix__Rectangle_1865" d="M0 0H2.157V17.458H0z" class="prefix__cls-1" data-name="Rectangle 1865"/>
    </g>
    <g id="prefix__Group_2835" data-name="Group 2835" transform="translate(29.092 5.451)">
        <path id="prefix__Path_3613" d="M719.182 281.251a4.435 4.435 0 0 1-3.29-1.388 8.3 8.3 0 0 1-1.941-6.929 4.972 4.972 0 0 1 3.329-3.658 5.2 5.2 0 0 1 4.2.084 6.468 6.468 0 0 1 2.949 3.544l.31.972-8.174 3.113a5.085 5.085 0 0 0 .879 1.377c1.068 1.109 2.627.734 3.746.224a3.307 3.307 0 0 0 1.852-2.483h2.158a5.39 5.39 0 0 1-3.117 4.446 7.043 7.043 0 0 1-2.901.698zm.2-10.217a4.021 4.021 0 0 0-1.363.268 2.839 2.839 0 0 0-1.965 2.118 4.506 4.506 0 0 0-.072 1.484l5.943-2.263a3.567 3.567 0 0 0-1.4-1.35 2.57 2.57 0 0 0-1.145-.257z" class="prefix__cls-1" data-name="Path 3613" transform="translate(-713.796 -268.876)"/>
    </g>
    <g id="prefix__Group_2836" data-name="Group 2836" transform="translate(54.068 5.451)">
        <path id="prefix__Path_3614" d="M1031.487 281.251a4.435 4.435 0 0 1-3.29-1.388 8.3 8.3 0 0 1-1.941-6.929 4.976 4.976 0 0 1 3.33-3.658 5.2 5.2 0 0 1 4.2.084 6.464 6.464 0 0 1 2.948 3.544l.31.972-8.174 3.113a5.084 5.084 0 0 0 .879 1.377c1.069 1.109 2.627.734 3.746.224a3.307 3.307 0 0 0 1.852-2.483h2.157a5.39 5.39 0 0 1-3.117 4.446 7.042 7.042 0 0 1-2.9.698zm.2-10.217a4.02 4.02 0 0 0-1.363.268 2.844 2.844 0 0 0-1.966 2.119 4.5 4.5 0 0 0-.07 1.483l5.941-2.263a3.563 3.563 0 0 0-1.4-1.35 2.57 2.57 0 0 0-1.143-.257z" class="prefix__cls-1" data-name="Path 3614" transform="translate(-1026.101 -268.876)"/>
    </g>
    <g id="prefix__Group_2838" data-name="Group 2838" transform="translate(51.271 .051)">
        <g id="prefix__Group_2837" data-name="Group 2837">
            <path id="prefix__Path_3615" d="M993.716 244.22a10.242 10.242 0 0 1-2.58-7.4v-16h3.606v16.148a6.421 6.421 0 0 0 1.767 4.913 7.829 7.829 0 0 0 9.649 0 6.429 6.429 0 0 0 1.767-4.913v-35.622h3.6v35.476a10.243 10.243 0 0 1-2.58 7.379q-2.581 2.7-7.6 2.7-5.045-.001-7.629-2.681z" class="prefix__cls-1" data-name="Path 3615" transform="translate(-991.136 -201.346)"/>
        </g>
    </g>
    <g id="prefix__Group_2839" data-name="Group 2839" transform="translate(41.383 5.996)">
        <path id="prefix__Path_3616" d="M867.484 275.69h2.556l3.367 8.239 3.368-8.239h2.555l-4.872 11.463h-2.1z" class="prefix__cls-1" data-name="Path 3616" transform="translate(-867.484 -275.69)"/>
    </g>
    <path id="prefix__Path_3617" d="M1282.493 447.972a13.259 13.259 0 0 0-13.244 13.244v26.3h3.235v-17.653a13.237 13.237 0 1 0 10.009-21.891zm0 23.252a10.009 10.009 0 1 1 10.009-10.009 10.019 10.019 0 0 1-10.009 10.009z" class="prefix__cls-1" data-name="Path 3617" transform="translate(-1195.737 -428.198)"/>
    <g id="prefix__Group_2840" data-name="Group 2840" transform="translate(0 19.572)">
        <path id="prefix__Path_3618" d="M386.258 470.924a12.738 12.738 0 0 1-6.48-1.768 11.613 11.613 0 0 1-2.361-1.781h-5.809a10.725 10.725 0 0 1-2.275 1.724 12.741 12.741 0 1 1-6.572-23.656h23.5a12.74 12.74 0 1 1 0 25.481zm-16.1-6.784h8.675l.482.541a8.062 8.062 0 0 0 2.107 1.69 9.506 9.506 0 1 0 4.832-17.693h-23.5a9.505 9.505 0 1 0 4.9 17.651 7.215 7.215 0 0 0 2.016-1.631z" class="prefix__cls-1" data-name="Path 3618" transform="translate(-350.021 -445.443)"/>
    </g>
    <g id="prefix__Group_2841" data-name="Group 2841" transform="translate(34.785 26.963)">
        <circle id="prefix__Ellipse_105" cx="1.662" cy="1.662" r="1.662" class="prefix__cls-1" data-name="Ellipse 105"/>
    </g>
    <g id="prefix__Group_2842" data-name="Group 2842" transform="translate(38.559 30.872)">
        <circle id="prefix__Ellipse_106" cx="1.662" cy="1.662" r="1.662" class="prefix__cls-1" data-name="Ellipse 106"/>
    </g>
    <g id="prefix__Group_2843" data-name="Group 2843" transform="translate(30.909 30.872)">
        <circle id="prefix__Ellipse_107" cx="1.662" cy="1.662" r="1.662" class="prefix__cls-1" data-name="Ellipse 107"/>
    </g>
    <g id="prefix__Group_2844" data-name="Group 2844" transform="translate(34.785 34.68)">
        <circle id="prefix__Ellipse_108" cx="1.662" cy="1.662" r="1.662" class="prefix__cls-1" data-name="Ellipse 108"/>
    </g>
    <path id="prefix__Path_3619" d="M449.691 540.583h-3.23v-3.229a.539.539 0 0 0-.539-.539h-2.662a.539.539 0 0 0-.539.539v3.229h-3.229a.539.539 0 0 0-.539.539v2.662a.539.539 0 0 0 .539.539h3.229v3.229a.539.539 0 0 0 .539.539h2.662a.539.539 0 0 0 .539-.539v-3.229h3.23a.539.539 0 0 0 .539-.539v-2.662a.539.539 0 0 0-.539-.539z" class="prefix__cls-1" data-name="Path 3619" transform="translate(-431.84 -509.935)"/>
</svg>