<svg xmlns="http://www.w3.org/2000/svg" width="194.649" height="134.512" viewBox="0 0 194.649 134.512">
  <g id="Group_3225" data-name="Group 3225" transform="translate(-1260.479 -599.795)">
    <g id="_7GL5Fn.tif" data-name="7GL5Fn.tif" transform="translate(1260.479 599.795)">
      <g id="Group_3207" data-name="Group 3207" transform="translate(0 0)">
        <g id="Group_3184" data-name="Group 3184">
          <path id="Path_3840" data-name="Path 3840" d="M1268.433,631.946V620.324s-.519-2.594,2.906-4.151,31.843-13.78,31.843-13.78a13.878,13.878,0,0,1,5.161-.557c2.948.224,141.12,7.942,141.12,7.942s6.9.272,6.9,6.705V722.124a5.481,5.481,0,0,1-5.5,6.226c-6.226.415-146.859,6.9-146.859,6.9s-5.117.757-7.528-.166-30.454-13.989-30.454-13.989-3.5-1.566-3.5-6.754V668.783a5.51,5.51,0,0,1,4.514-5.757c4.877-1.038,11.448-3.923,14.269-13.957s3.528-12.608,3.528-12.608l-12.816-.726S1268.433,636.046,1268.433,631.946Z" transform="translate(-1262.123 -601.414)" fill="#fff"/>
          <path id="Path_3841" data-name="Path 3841" d="M1298.327,734.307a10.9,10.9,0,0,1-3.632-.485c-2.4-.917-29.333-13.466-30.479-14-.147-.066-3.725-1.726-3.725-7.1V667.178a5.838,5.838,0,0,1,4.817-6.145c7.252-1.543,11.825-6.02,13.98-13.686,2.17-7.719,3.094-11.043,3.4-12.15l-12.318-.7a3.96,3.96,0,0,1-2.767-.942,4.181,4.181,0,0,1-1.2-3.229V618.732c-.052-.383-.27-2.981,3.13-4.526s31.566-13.661,31.85-13.783l.024-.009a14.142,14.142,0,0,1,5.317-.578c2.911.221,139.731,7.865,141.112,7.942.067,0,7.262.363,7.262,7.087V720.483a6.558,6.558,0,0,1-1.292,4.574,6.166,6.166,0,0,1-4.564,2.056c-6.138.409-144.527,6.793-146.849,6.9A31.289,31.289,0,0,1,1298.327,734.307Zm-27.958-100.574h.022l12.816.726a.382.382,0,0,1,.347.483c-.007.026-.74,2.689-3.529,12.61a20.155,20.155,0,0,1-6.491,10.546,18.677,18.677,0,0,1-8.066,3.682,5.1,5.1,0,0,0-4.213,5.354c0,.009,0,.019,0,.029v45.558c0,4.884,3.245,6.391,3.278,6.405.286.133,28.063,13.073,30.435,13.981,2.292.877,7.285.152,7.335.145l.038,0c1.406-.065,140.7-6.49,146.851-6.9a5.439,5.439,0,0,0,4.026-1.78,5.861,5.861,0,0,0,1.12-4.017.364.364,0,0,1,0-.048V614.865a5.647,5.647,0,0,0-3.241-5.424,9,9,0,0,0-3.293-.9c-1.388-.078-138.215-7.722-141.134-7.943a13.707,13.707,0,0,0-4.995.533c-.757.326-28.469,12.247-31.822,13.77-3.086,1.4-2.706,3.636-2.689,3.73a.428.428,0,0,1,.007.073v11.622a3.46,3.46,0,0,0,.95,2.665,3.2,3.2,0,0,0,2.215.742Z" transform="translate(-1260.479 -599.794)"/>
        </g>
        <g id="Group_3185" data-name="Group 3185" transform="translate(41.88 63.104)">
          <path id="Path_3842" data-name="Path 3842" d="M1486.1,958.686c-.751,9.621-1.466,18.78-2.181,27.939l.763.051c3.906-12.506,7.812-25.012,11.83-37.874l-6.036,1.243,3.985-20.209c-3.723,1.3-6.883,2.252-9.9,3.544a3.973,3.973,0,0,0-1.949,2.629c-.789,4.825-1.345,9.689-1.955,14.543-.392,3.118-.737,6.242-1.146,9.727Z" transform="translate(-1479.517 -929.836)"/>
        </g>
        <g id="Group_3186" data-name="Group 3186" transform="translate(41.88 63.104)">
          <path id="Path_3843" data-name="Path 3843" d="M1486.1,958.686l-6.588,1.593c.409-3.485.754-6.609,1.146-9.727.611-4.854,1.166-9.718,1.955-14.543a3.973,3.973,0,0,1,1.949-2.629c3.014-1.292,6.174-2.245,9.9-3.544l-3.985,20.209,6.036-1.243c-4.017,12.862-7.923,25.368-11.83,37.874l-.763-.051C1484.639,977.465,1485.354,968.306,1486.1,958.686Z" transform="translate(-1479.517 -929.836)" fill="#e70500"/>
        </g>
        <g id="Group_3192" data-name="Group 3192" transform="translate(8.833 4.795)">
          <g id="Group_3187" data-name="Group 3187">
            <path id="Path_3844" data-name="Path 3844" d="M1340.746,640l-30.786,11.611c-.712.269-1.284-.324-1.284-1.321v-6.842a2.76,2.76,0,0,1,1.284-2.39l30.786-14.009c1.086-.494,1.976.114,1.976,1.364v8.578A3.411,3.411,0,0,1,1340.746,640Z" transform="translate(-1308.293 -626.495)" fill="#fff"/>
            <path id="Path_3845" data-name="Path 3845" d="M1308.006,650.436a1.145,1.145,0,0,1-.659-.206,1.839,1.839,0,0,1-.672-1.562v-6.842a3.131,3.131,0,0,1,1.508-2.738l30.786-14.009a1.769,1.769,0,0,1,1.732.036,1.921,1.921,0,0,1,.785,1.676v8.578a3.764,3.764,0,0,1-2.224,3.366l-30.786,11.611A1.333,1.333,0,0,1,1308.006,650.436Zm31.848-24.8a1.388,1.388,0,0,0-.568.137L1308.5,639.784a2.4,2.4,0,0,0-1.06,2.042v6.842a1.147,1.147,0,0,0,.342.933.433.433,0,0,0,.425.03l30.786-11.611h0a3.042,3.042,0,0,0,1.729-2.651v-8.578a1.185,1.185,0,0,0-.434-1.033A.791.791,0,0,0,1339.855,625.638Z" transform="translate(-1306.676 -624.871)"/>
          </g>
          <g id="Group_3191" data-name="Group 3191" transform="translate(3.252 5.158)">
            <g id="Group_3188" data-name="Group 3188" transform="translate(0 8.583)">
              <path id="Path_3846" data-name="Path 3846" d="M1330.592,702.152l-6.909,2.738v-5.157l6.909-3Z" transform="translate(-1323.682 -696.735)"/>
            </g>
            <g id="Group_3189" data-name="Group 3189" transform="translate(8.361 4.567)">
              <path id="Path_3847" data-name="Path 3847" d="M1375.213,681.5l-7.8,3.092V679.12l7.8-3.385Z" transform="translate(-1367.411 -675.734)"/>
            </g>
            <g id="Group_3190" data-name="Group 3190" transform="translate(17.808)">
              <path id="Path_3848" data-name="Path 3848" d="M1425.7,658.009l-8.88,3.519V655.7l8.88-3.853Z" transform="translate(-1416.822 -651.848)"/>
            </g>
          </g>
        </g>
        <g id="Group_3195" data-name="Group 3195" transform="translate(23.488 26.79)">
          <g id="Group_3193" data-name="Group 3193">
            <path id="Path_3849" data-name="Path 3849" d="M1408.716,770.877l-24.255.935c-.853.2-1.33-.336-1.066-1.2l7.05-23.2a3.024,3.024,0,0,1,2-1.9l24.933-5.565c.816-.182,1.272.355,1.02,1.2l-7.73,27.834A3.016,3.016,0,0,1,1408.716,770.877Z" transform="translate(-1383.322 -739.909)"/>
          </g>
          <g id="Group_3194" data-name="Group 3194" transform="translate(2.711 2.547)">
            <path id="Path_3850" data-name="Path 3850" d="M1398.511,780.669c-.758.181-1.183-.3-.948-1.074l5.541-18.258c.517-1.706,1.383-3.488,3.963-3.771l19.176-4.3c.731-.164,1.139.315.913,1.07a2.63,2.63,0,0,1-1.732,1.667l-19.2,4.342a.609.609,0,0,0-.4.381l-5.521,18.223A2.763,2.763,0,0,1,1398.511,780.669Z" transform="translate(-1397.499 -753.23)" fill="#fff"/>
          </g>
        </g>
        <g id="Group_3197" data-name="Group 3197" transform="translate(55.341 29.339)">
          <g id="Group_3196" data-name="Group 3196">
            <path id="Path_3851" data-name="Path 3851" d="M1551.114,779.184a1.195,1.195,0,0,1-1.16-1.479l5.811-23.556a1.193,1.193,0,1,1,2.317.572l-5.811,23.556A1.194,1.194,0,0,1,1551.114,779.184Z" transform="translate(-1549.92 -753.24)" fill="#1d1e1c"/>
          </g>
        </g>
        <g id="Group_3199" data-name="Group 3199" transform="translate(13.677 61.454)">
          <g id="Group_3198" data-name="Group 3198">
            <path id="Path_3852" data-name="Path 3852" d="M1333.206,924.114a1.193,1.193,0,0,1-.025-2.386l23.867-.521a1.193,1.193,0,0,1,.052,2.386l-23.867.521Z" transform="translate(-1332.013 -921.206)" fill="#1d1e1c"/>
          </g>
        </g>
        <g id="Group_3205" data-name="Group 3205" transform="translate(5.142 68.178)">
          <g id="Group_3200" data-name="Group 3200">
            <path id="Path_3853" data-name="Path 3853" d="M1316.047,956.394l-26.693-.024a2.022,2.022,0,0,0-1.981,2.073v25.665a2.658,2.658,0,0,0,1.966,2.494l26.447,6.027c1.6.365,2.928-.467,2.939-1.865l.253-31.793A2.767,2.767,0,0,0,1316.047,956.394Zm-3.69,25.834a2.119,2.119,0,0,1-2.716,1.948l-15.658-2.849a2.64,2.64,0,0,1-2.1-2.506l.016-14a2.01,2.01,0,0,1,2.12-2.039l15.743.746a2.741,2.741,0,0,1,2.7,2.592Z" transform="translate(-1287.374 -956.37)"/>
          </g>
          <g id="Group_3204" data-name="Group 3204" transform="translate(6.069 19.351)">
            <g id="Group_3201" data-name="Group 3201">
              <path id="Path_3854" data-name="Path 3854" d="M1323.591,1060.184a1.87,1.87,0,0,1-2.279,1.872,2.705,2.705,0,0,1-2.2-2.569,1.868,1.868,0,0,1,2.207-1.886A2.7,2.7,0,0,1,1323.591,1060.184Z" transform="translate(-1319.114 -1057.578)"/>
            </g>
            <g id="Group_3202" data-name="Group 3202" transform="translate(5.408 0.779)">
              <path id="Path_3855" data-name="Path 3855" d="M1352.244,1064.377a1.992,1.992,0,0,1-2.47,1.931,2.866,2.866,0,0,1-2.374-2.686,1.986,1.986,0,0,1,2.39-1.947A2.862,2.862,0,0,1,1352.244,1064.377Z" transform="translate(-1347.4 -1061.651)"/>
            </g>
            <g id="Group_3203" data-name="Group 3203" transform="translate(11.26 1.622)">
              <path id="Path_3856" data-name="Path 3856" d="M1383.263,1068.92a2.131,2.131,0,0,1-2.686,1.994,3.049,3.049,0,0,1-2.571-2.813,2.12,2.12,0,0,1,2.595-2.012A3.049,3.049,0,0,1,1383.263,1068.92Z" transform="translate(-1378.007 -1066.061)"/>
            </g>
          </g>
        </g>
        <g id="Group_3206" data-name="Group 3206" transform="translate(5.142 100.397)">
          <path id="Path_3857" data-name="Path 3857" d="M1287.374,1124.879v13.854a3.381,3.381,0,0,0,1.821,2.9l26.587,11.639c1.672.732,3.061.1,3.061-1.438v-18.4Zm25.666,20.869c0,1.319-1.141,1.925-2.52,1.366l-17.944-7.276a2.844,2.844,0,0,1-1.622-2.467v-8.3l22.086,6.717Z" transform="translate(-1287.374 -1124.879)"/>
        </g>
      </g>
    </g>
    <g id="Group_3214" data-name="Group 3214" transform="translate(1387.617 705.381)">
      <g id="Group_3208" data-name="Group 3208" transform="translate(0 4.91)">
        <ellipse id="Ellipse_176" data-name="Ellipse 176" cx="16.575" cy="5.759" rx="16.575" ry="5.759"/>
      </g>
      <g id="Group_3209" data-name="Group 3209" transform="translate(2.279 8.218)">
        <path id="Path_3858" data-name="Path 3858" d="M1966.549,1197.876c0,3.392-6.315,6.142-14.1,6.142s-14.1-2.75-14.1-6.142V1196h28.208Z" transform="translate(-1938.15 -1195.808)" fill="#a71116"/>
        <path id="Path_3859" data-name="Path 3859" d="M1951.636,1203.4c-7.883,0-14.3-2.841-14.3-6.333v-1.877a.191.191,0,0,1,.191-.191h28.208a.191.191,0,0,1,.191.191v1.877C1965.932,1200.559,1959.519,1203.4,1951.636,1203.4Zm-13.913-8.019v1.686c0,3.281,6.242,5.951,13.913,5.951s13.913-2.67,13.913-5.951v-1.686Z" transform="translate(-1937.341 -1194.999)" fill="#1d1e1c"/>
      </g>
      <g id="Group_3210" data-name="Group 3210" transform="translate(2.279 1.507)">
        <ellipse id="Ellipse_177" data-name="Ellipse 177" cx="14.104" cy="6.142" rx="14.104" ry="6.142" transform="translate(0.191 0.191)" fill="#e70500"/>
        <path id="Path_3860" data-name="Path 3860" d="M1951.636,1172.567c-7.883,0-14.3-2.841-14.3-6.333s6.413-6.333,14.3-6.333,14.3,2.841,14.3,6.333S1959.519,1172.567,1951.636,1172.567Zm0-12.284c-7.672,0-13.913,2.669-13.913,5.951s6.242,5.951,13.913,5.951,13.913-2.67,13.913-5.951S1959.308,1160.282,1951.636,1160.282Z" transform="translate(-1937.341 -1159.9)" fill="#1d1e1c"/>
      </g>
      <g id="Group_3211" data-name="Group 3211" transform="translate(5.547 5.156)">
        <path id="Path_3861" data-name="Path 3861" d="M1977.1,1181.43c0,2.607-4.852,4.719-10.837,4.719s-10.837-2.113-10.837-4.719v-1.442H1977.1Z" transform="translate(-1955.239 -1179.797)" fill="#a71116"/>
        <path id="Path_3862" data-name="Path 3862" d="M1965.458,1185.531c-6.184,0-11.028-2.157-11.028-4.91v-1.442a.191.191,0,0,1,.191-.191h21.673a.191.191,0,0,1,.191.191v1.442C1976.486,1183.375,1971.642,1185.531,1965.458,1185.531Zm-10.646-6.161v1.251c0,2.5,4.776,4.528,10.646,4.528s10.646-2.031,10.646-4.528v-1.251Z" transform="translate(-1954.43 -1178.988)" fill="#1d1e1c"/>
      </g>
      <g id="Group_3212" data-name="Group 3212" transform="translate(5.547)">
        <ellipse id="Ellipse_178" data-name="Ellipse 178" cx="10.837" cy="4.719" rx="10.837" ry="4.719" transform="translate(0.191 0.191)" fill="#e70500"/>
        <path id="Path_3863" data-name="Path 3863" d="M1965.458,1161.841c-6.184,0-11.028-2.157-11.028-4.91s4.844-4.91,11.028-4.91,11.028,2.157,11.028,4.91S1971.642,1161.841,1965.458,1161.841Zm0-9.438c-5.87,0-10.646,2.031-10.646,4.528s4.776,4.528,10.646,4.528,10.646-2.031,10.646-4.528S1971.328,1152.4,1965.458,1152.4Z" transform="translate(-1954.43 -1152.02)" fill="#1d1e1c"/>
      </g>
      <g id="Group_3213" data-name="Group 3213" transform="translate(7.283 0.191)">
        <ellipse id="Ellipse_179" data-name="Ellipse 179" cx="9.292" cy="3.824" rx="9.292" ry="3.824" fill="#e70500"/>
      </g>
    </g>
    <g id="Group_3224" data-name="Group 3224" transform="translate(1330.595 625.139)">
      <g id="Group_3220" data-name="Group 3220" transform="translate(0 0)">
        <g id="Group_3215" data-name="Group 3215">
          <path id="Path_3864" data-name="Path 3864" d="M1650.2,759.878l-23.009-.312v-27.22l6.662.236v23.206l16.347.272Z" transform="translate(-1627.193 -732.347)" fill="#1d1e1c"/>
        </g>
        <g id="Group_3216" data-name="Group 3216" transform="translate(25.777 0.913)">
          <path id="Path_3865" data-name="Path 3865" d="M1784.082,764.076l-22.074-.3V737.121l22.074.782v3.739l-15.685-.507v7.576l12.58.328v3.749l-12.58-.288v7.576l15.685.261Z" transform="translate(-1762.008 -737.121)" fill="#1d1e1c"/>
        </g>
        <g id="Group_3217" data-name="Group 3217" transform="translate(50.508 1.788)">
          <path id="Path_3866" data-name="Path 3866" d="M1912.549,757.11l-2.982-.068v3.674l-3-.059v3.683l-3.013-.05v3.693l-3.028-.041v-3.7l-3.043-.051v-3.712l-3.059-.061v-3.721l-3.075-.07V741.7l6.134.217v11.135l3.043.079v3.7l3.028.069v-3.692l3.013.078V742.24l5.979.212Z" transform="translate(-1891.353 -741.701)" fill="#1d1e1c"/>
        </g>
        <g id="Group_3218" data-name="Group 3218" transform="translate(74.255 2.629)">
          <path id="Path_3867" data-name="Path 3867" d="M2035.923,771.971l-20.368-.276V746.1l20.368.721v3.593l-14.476-.467v7.276l11.609.3v3.6l-11.609-.266v7.276l14.476.241Z" transform="translate(-2015.555 -746.099)" fill="#1d1e1c"/>
        </g>
        <g id="Group_3219" data-name="Group 3219" transform="translate(97.077 3.437)">
          <path id="Path_3868" data-name="Path 3868" d="M2154.5,775.687l-19.588-.265v-25.1l5.666.2v21.405l13.923.232Z" transform="translate(-2134.913 -750.325)" fill="#1d1e1c"/>
        </g>
      </g>
      <g id="Group_3223" data-name="Group 3223" transform="translate(0 33.592)">
        <g id="Group_3221" data-name="Group 3221">
          <path id="Path_3869" data-name="Path 3869" d="M1685.522,958.394l-8,.257v8.358l-41.654,1.623v-8.645l-8.676.278V908.037l17.234.16v51.515l24.988-.8V908.428l16.109.149Z" transform="translate(-1627.191 -908.037)" fill="#e70500"/>
        </g>
        <g id="Group_3222" data-name="Group 3222" transform="translate(65.715 0.554)">
          <path id="Path_3870" data-name="Path 3870" d="M2022.575,939.608l-7.1.118v7.1l-29.339.672V962.08l-15.246.54V910.932l44.586.376v7.1l7.1.016Zm-14.3.238V918.4l-22.144-.048v21.865Z" transform="translate(-1970.885 -910.932)" fill="#e70500"/>
        </g>
      </g>
    </g>
  </g>
</svg>
