<svg xmlns="http://www.w3.org/2000/svg" id="prefix__Group_2845" width="32.846" height="32.031" data-name="Group 2845" viewBox="0 0 32.846 32.031">
    <defs>
        <style>
            .prefix__cls-3{fill:#cfced0}.prefix__cls-4{fill:#9b9a9c}.prefix__cls-5{fill:#ffadb2}.prefix__cls-6{fill:#f6c100}.prefix__cls-7{fill:#ce0005}
        </style>
    </defs>
    <path id="prefix__Path_3613" fill="#fafaff" d="M18.1 881.487H4.313a1.671 1.671 0 0 1-1.666-1.666v-26.933a1.671 1.671 0 0 1 1.666-1.666H18.1a1.671 1.671 0 0 1 1.666 1.666v26.933a1.671 1.671 0 0 1-1.666 1.666z" data-name="Path 3613" transform="translate(2.374 -849.939)"/>
    <path id="prefix__Path_3614" fill="#ebecee" d="M62.92 851.222h-1.609a1.671 1.671 0 0 1 1.666 1.666v26.933a1.671 1.671 0 0 1-1.666 1.666h1.609a1.671 1.671 0 0 0 1.666-1.666v-26.933a1.671 1.671 0 0 0-1.666-1.666z" data-name="Path 3614" transform="translate(-42.447 -849.939)"/>
    <path id="prefix__Path_3615" d="M2.646 961.5v2.576a1.671 1.671 0 0 0 1.666 1.666H18.1a1.671 1.671 0 0 0 1.666-1.666V961.5z" class="prefix__cls-3" data-name="Path 3615" transform="translate(2.374 -934.198)"/>
    <path id="prefix__Path_3616" d="M64.586 964.08v-2.58h-1.61v2.576a1.671 1.671 0 0 1-1.666 1.666h1.61a1.671 1.671 0 0 0 1.666-1.662z" class="prefix__cls-4" data-name="Path 3616" transform="translate(-42.447 -934.198)"/>
    <path id="prefix__Path_3617" d="M19.765 855.464v-2.576a1.671 1.671 0 0 0-1.666-1.666H4.313a1.671 1.671 0 0 0-1.666 1.666v2.576z" class="prefix__cls-3" data-name="Path 3617" transform="translate(2.374 -849.939)"/>
    <path id="prefix__Path_3618" d="M61.311 851.222a1.671 1.671 0 0 1 1.666 1.666v2.576h1.61v-2.576a1.671 1.671 0 0 0-1.666-1.666z" class="prefix__cls-4" data-name="Path 3618" transform="translate(-42.447 -849.939)"/>
    <path id="prefix__Path_3619" d="M56.875 901.776h-17.7a.581.581 0 0 1-.579-.579v-10.88a.581.581 0 0 1 .579-.579h17.7a.581.581 0 0 1 .579.579V901.2a.581.581 0 0 1-.579.576z" class="prefix__cls-5" data-name="Path 3619" transform="translate(-25.092 -879.366)"/>
    <path id="prefix__Path_3620" d="M111.06 889.737h-1.545a.581.581 0 0 1 .579.579V901.2a.581.581 0 0 1-.579.579h1.545a.581.581 0 0 0 .579-.579v-10.88a.581.581 0 0 0-.579-.583z" class="prefix__cls-5" data-name="Path 3620" transform="translate(-79.277 -879.366)"/>
    <path id="prefix__Path_3621" d="M88.23 900.731a1.8 1.8 0 1 1-1.8-1.8 1.8 1.8 0 0 1 1.8 1.8z" class="prefix__cls-6" data-name="Path 3621" transform="translate(-60.262 -886.389)"/>
    <path id="prefix__Path_3622" d="M98.3 900.731a1.8 1.8 0 1 1-1.8-1.8 1.8 1.8 0 0 1 1.8 1.8z" class="prefix__cls-6" data-name="Path 3622" transform="translate(-67.957 -886.389)"/>
    <path id="prefix__Path_3623" d="M52.953 902.824h-4.222a.581.581 0 0 1-.579-.579v-2.185a.581.581 0 0 1 .579-.579h4.222a.581.581 0 0 1 .58.579v2.184a.581.581 0 0 1-.58.58z" class="prefix__cls-7" data-name="Path 3623" transform="translate(-32.394 -886.81)"/>
    <path id="prefix__Path_3624" fill="#fff" d="M61.383 923.727H47.372a.581.581 0 0 1-.58-.58v-.721a.581.581 0 0 1 .58-.579h14.011a.581.581 0 0 1 .579.579v.721a.581.581 0 0 1-.579.58z" data-name="Path 3624" transform="translate(-31.354 -903.899)"/>
    <path id="prefix__Path_3625" d="M-8.1 852.072a4.241 4.241 0 0 1-4.241 4.241 4.241 4.241 0 0 1-4.241-4.241 4.241 4.241 0 0 1 4.241-4.241 4.241 4.241 0 0 1 4.241 4.241z" class="prefix__cls-7" data-name="Path 3625" transform="translate(17.067 -847.348)"/>
    <path id="prefix__Path_3626" fill="#a54e86" d="M-1.216 847.831a4.247 4.247 0 0 0-.8.077 4.242 4.242 0 0 1 3.436 4.164 4.242 4.242 0 0 1-3.436 4.164 4.247 4.247 0 0 0 .8.077 4.241 4.241 0 0 0 4.241-4.241 4.241 4.241 0 0 0-4.241-4.241z" data-name="Path 3626" transform="translate(5.94 -847.348)"/>
    <path id="prefix__Path_3627" d="M13.153 855.674H3.992v-6.94a2.107 2.107 0 0 0-.011-.219 2.152 2.152 0 0 0-2.137-1.929h-13.123a4.7 4.7 0 0 0-2.627-.8 4.729 4.729 0 0 0-4.724 4.724 4.729 4.729 0 0 0 4.538 4.719v4.5a.483.483 0 0 0 .483.483.483.483 0 0 0 .483-.483v-4.565a4.737 4.737 0 0 0 3.766-3.375H3.026v3.881h-7.673v-1.664h-.966v16.36h.966v-1.7h7.673v3.93h-16.153V861.8a.483.483 0 0 0-.483-.483.483.483 0 0 0-.483.483v13.868a2.151 2.151 0 0 0 2.149 2.149H1.843a2.152 2.152 0 0 0 2.137-1.929 2.11 2.11 0 0 0 .011-.219v-6.988h2.92a.483.483 0 0 0 0-.966H-4.547a.1.1 0 0 1-.1-.1v-10.88a.1.1 0 0 1 .1-.1h17.7a.1.1 0 0 1 .1.1v10.88a.1.1 0 0 1-.1.1H9.024a.483.483 0 1 0 0 .966h4.129a1.064 1.064 0 0 0 1.062-1.062v-10.88a1.063 1.063 0 0 0-1.062-1.065zm-27.059-1.406a3.763 3.763 0 0 1-3.759-3.758 3.763 3.763 0 0 1 3.759-3.758 3.763 3.763 0 0 1 3.758 3.758 3.763 3.763 0 0 1-3.758 3.757zm4.712-3.44c.007-.105.012-.211.012-.318a4.7 4.7 0 0 0-1.045-2.958h12.07a1.182 1.182 0 0 1 1.183 1.183v2.093zm-2.749 26.023a1.185 1.185 0 0 1-1.183-1.183v-2.093H3.026v2.093a1.182 1.182 0 0 1-1.183 1.183z" data-name="Path 3627" transform="translate(18.63 -845.785)"/>
    <path id="prefix__Path_3628" d="M86.054 901.118a2.284 2.284 0 1 0 0-3.9 2.284 2.284 0 1 0 0 3.9zm2.508-1.95a1.319 1.319 0 1 1-1.319-1.319 1.32 1.32 0 0 1 1.319 1.319zm-5.014 0a1.32 1.32 0 0 1 1.319-1.319 1.306 1.306 0 0 1 .457.082 2.276 2.276 0 0 0 0 2.473 1.318 1.318 0 0 1-1.776-1.236z" data-name="Path 3628" transform="translate(-58.699 -884.826)"/>
    <path id="prefix__Path_3629" d="M51.389 901.743a1.064 1.064 0 0 0 1.063-1.062V898.5a1.064 1.064 0 0 0-1.063-1.062h-4.222a1.064 1.064 0 0 0-1.062 1.062v2.184a1.063 1.063 0 0 0 1.062 1.062zm-4.318-1.062V898.5a.1.1 0 0 1 .1-.1h4.222a.1.1 0 0 1 .1.1v2.184a.1.1 0 0 1-.1.1h-4.226a.1.1 0 0 1-.096-.103z" data-name="Path 3629" transform="translate(-30.83 -885.246)"/>
    <path id="prefix__Path_3630" d="M44.747 920.862v.721a1.063 1.063 0 0 0 1.062 1.062H59.82a1.063 1.063 0 0 0 1.062-1.062v-.721a1.063 1.063 0 0 0-1.062-1.062H45.809a1.063 1.063 0 0 0-1.062 1.062zm.966 0a.1.1 0 0 1 .1-.1H59.82a.1.1 0 0 1 .1.1v.721a.1.1 0 0 1-.1.1H45.809a.1.1 0 0 1-.1-.1z" data-name="Path 3630" transform="translate(-29.792 -902.335)"/>
    <path id="prefix__Path_3631" d="M-3.661 859.765l-1.428 1.547-.64-.8a.483.483 0 0 0-.679-.074.483.483 0 0 0-.074.679l.991 1.234a.483.483 0 0 0 .36.18h.017a.482.482 0 0 0 .354-.156l1.809-1.958a.483.483 0 0 0-.027-.682.483.483 0 0 0-.683.03z" data-name="Path 3631" transform="translate(9.43 -856.347)"/>
</svg>
