<svg xmlns="http://www.w3.org/2000/svg" width="75.328" height="24.799" viewBox="0 0 75.328 24.799">
    <g id="prefix__Group_2977" data-name="Group 2977">
        <g id="prefix__Icon_security" data-name="Icon/security" transform="translate(0 1.217)">
            <path id="prefix__Path_159" fill="#23c197" d="M53.675 7.255l-9.119-3.748a.939.939 0 0 0-.714 0l-9.119 3.748a.921.921 0 0 0-.574.851v4.556a15.427 15.427 0 0 0 9.7 14.288.939.939 0 0 0 .7 0 15.427 15.427 0 0 0 9.7-14.288V8.106a.921.921 0 0 0-.574-.851zm-1.287 5.407A13.582 13.582 0 0 1 44.2 25.1a13.583 13.583 0 0 1-8.19-12.438V8.72l8.19-3.365 8.188 3.365zm-9.217 3.1l4-3.959a.937.937 0 0 1 1.316 0 .914.914 0 0 1 0 1.3l-4.658 4.611a.937.937 0 0 1-1.316 0l-2.6-2.574a.914.914 0 0 1 0-1.3.937.937 0 0 1 1.316 0z" data-name="Path 159" transform="translate(-34.149 -3.437)"/>
        </g>
        <g id="prefix__Group_146" fill="#23c197" data-name="Group 146" font-family="DBHeavent-Med, DB Heavent" transform="translate(23.328)">
            <text id="prefix__ธนาคารไทยพาณิชย์" font-size="12px" transform="translate(0 10)">
                <tspan x="0" y="0">SECURITY</tspan>
            </text>
            <text id="prefix__ธนาคารไทยพาณิชย์-2" data-name="ธนาคารไทยพาณิชย์" font-size="11px" transform="translate(0 19.509)">
                <tspan x="0" y="0">GUARANTEED</tspan>
            </text>
        </g>
    </g>
</svg>