<svg xmlns="http://www.w3.org/2000/svg" width="97.259" height="32.461" viewBox="0 0 97.259 32.461">
    <defs>
        <style>
            .prefix__cls-2{fill:#003a82}
        </style>
    </defs>
    <g id="prefix__Group_2852" data-name="Group 2852" transform="translate(577.323 -938.253)">
        <path id="prefix__Path_3623" d="M-574.205 957.553a12.012 12.012 0 0 1-1.972-2.821 11.108 11.108 0 0 1 5.573-15.056 11.68 11.68 0 0 1 4.786-.95c4.56.015 9.12.011 13.68.016.477 0 .475 0 .476.475a18.285 18.285 0 0 0-.015 2.194.624.624 0 0 0 .062.326.291.291 0 0 0 .083-.042 9.365 9.365 0 0 1 7.058-2.954c3.161-.026 6.322 0 9.484-.012 1.619-.006 3.239.045 4.858-.033.777-.038.775-.015.772.747a15.159 15.159 0 0 0 .062 2 9.743 9.743 0 0 1 1.055-.9 9.467 9.467 0 0 1 5.535-1.808c4.882-.009 9.764 0 14.645-.009.349 0 .408.108.413.425.061 3.794-.026 7.589 0 11.383 0 .405.048.8.087 1.283.7-2.046 1.364-4.01 2.033-5.972.275-.807.533-1.62.834-2.417a7.753 7.753 0 0 1 4.156-4.363 8.507 8.507 0 0 1 10.688 2.918 12.372 12.372 0 0 1 1.283 3.086q4.05 12.123 8.089 24.249c.126.378.244.759.387 1.13.069.18.037.235-.152.235-.433 0-.865.017-1.3.017q-8.387 0-16.775-.011c-7.844 0-15.688-.008-23.531.02a10.873 10.873 0 0 1-5.646-1.357 7.24 7.24 0 0 1-1.775-1.416 3.748 3.748 0 0 0-.1 1.124c-.006.477-.01.954 0 1.431 0 .178-.06.217-.233.217-4.7-.01-9.408-.034-14.112-.008a11.351 11.351 0 0 1-4.247-.6 9.689 9.689 0 0 1-5.318-4.675c-.025-.048-.054-.092-.1-.177a8.6 8.6 0 0 1-1.023 1.574 10.951 10.951 0 0 1-5.138 3.349 10.289 10.289 0 0 1-3.269.52q-6.423.006-12.846 0c-.444 0-.888-.01-1.331.008-.262.011-.329-.075-.328-.338.013-2.7.011-5.392.012-8.088 0-1.453.008-2.907-.005-4.36 0-.253.065-.313.313-.308.821.016 1.642.005 2.463 0a.47.47 0 0 0 .329-.052z" data-name="Path 3623" style="fill:#fefefe"/>
        <path id="prefix__Path_3624" d="M150.341 998.4c.324-.937.653-1.872.973-2.81q2.9-8.507 5.79-17.015a8.7 8.7 0 0 1 1.066-2.5 5.981 5.981 0 0 1 5.882-2.487 5.73 5.73 0 0 1 5.035 4.137q3.582 10.695 7.193 21.38c.257.764.511 1.529.778 2.329h-15.133c-.267 0-.357-.05-.352-.338.02-1.02 0-2.041.01-3.062 0-.465-.106-.429.448-.43l9.186-.013c.494 0 .493 0 .33-.489q-3.117-9.239-6.229-18.48a2.35 2.35 0 0 0-.924-1.335 2.114 2.114 0 0 0-3.224 1.229c-.505 1.477-.994 2.96-1.5 4.439q-3.088 9.108-6.174 18.217a.324.324 0 0 1-.37.267c-5.181-.007-10.362-.021-15.543 0a7.7 7.7 0 0 1-7.5-6.313 6.954 6.954 0 0 1-.1-1.158V981.52a7.584 7.584 0 0 1 7.516-7.536c4.138-.015 8.276 0 12.415-.013.252 0 .338.052.334.323q-.026 1.58 0 3.162c0 .3-.069.388-.38.387-4.038-.011-8.077.036-12.115-.025a3.934 3.934 0 0 0-3.91 3.894c.033 3.983.006 7.966.006 11.949a3.8 3.8 0 0 0 3.791 3.931c2.84.041 5.68.007 8.52.017.3 0 .243-.18.243-.349v-9.186-.133c0-.649 0-.65-.633-.65-2 0-3.994 0-5.991.006-.255 0-.341-.056-.34-.328q.007-1.6-.038-3.195c-.007-.271.08-.325.332-.33 1.941-.033 3.882-.018 5.823-.024 1.476 0 2.95.051 4.425.018.278-.006.266.131.265.323q-.007 3.345 0 6.69.007 3.794.029 7.588c0 .115.01.23.015.345z" class="prefix__cls-2" data-name="Path 3624" transform="translate(-660.22 -32.931)"/>
        <path id="prefix__Path_3625" d="M-540.5 1070.209h5.824a5.151 5.151 0 0 0 5.038-4.726 5.21 5.21 0 0 0-4.068-5.445 10.818 10.818 0 0 0-2.09-.111 21.948 21.948 0 0 1-2.824-.1 4.313 4.313 0 0 1-3.573-4.873 4.405 4.405 0 0 1 4.326-3.618c3.915.055 7.831.021 11.747.013.276 0 .35.068.345.346q-.029 1.564 0 3.128c0 .293-.071.37-.366.369q-5.574-.016-11.148-.005c-.266 0-.532.028-.8.024s-.234.2-.239.346c-.006.166-.119.388.174.458a4.031 4.031 0 0 0 1.059.043 18.857 18.857 0 0 1 3.883.132 8.965 8.965 0 0 1 7.332 7.46 9.032 9.032 0 0 1-6.609 10.163 11.7 11.7 0 0 1-2.9.312q-4.376-.014-8.751-.039c-.81 0-1.617.067-2.428.036-.325-.012-.445-.1-.434-.463.033-1.031.022-2.063.006-3.094 0-.27.063-.357.344-.355 2.052.011 4.1.006 6.156.006z" class="prefix__cls-2" data-name="Path 3625" transform="translate(-28.3 -105.558)"/>
        <path id="prefix__Path_3626" d="M-532.336 980.41c2.108 0 4.215 0 6.323-.006.252 0 .314.066.31.314q-.023 1.6 0 3.195c0 .281-.081.347-.354.347-3.927 0-7.854.041-11.781-.008a5.259 5.259 0 0 0-5.13 4.342 5.142 5.142 0 0 0 4.9 5.943 38.723 38.723 0 0 1 3.99.116 4.26 4.26 0 0 1 3.651 3.869 4.308 4.308 0 0 1-3.234 4.5 3.47 3.47 0 0 1-.856.1h-12.047c-.3 0-.365-.075-.354-.369.039-1.052-.06-2.106.045-3.159.025-.252.1-.331.36-.327q5.874.078 11.747-.01c.148 0 .3.035.39-.16a.492.492 0 0 0-.024-.494c-.076-.145-.194-.13-.311-.131-.9-.008-1.8-.029-2.7-.016a8.965 8.965 0 0 1-6.222-2.1 8.64 8.64 0 0 1-2.927-9.345 8.71 8.71 0 0 1 7.17-6.51 6.153 6.153 0 0 1 1.258-.1q2.9.006 5.791 0z" class="prefix__cls-2" data-name="Path 3626" transform="translate(-28.375 -39.345)"/>
        <path id="prefix__Path_3627" d="M-201.828 994.011c.019-2.163-.055-4.328.058-6.487a7.355 7.355 0 0 1 4.4-6.513 6.982 6.982 0 0 1 3.186-.7q6.358.019 12.715.008c.277 0 .35.07.346.345q-.025 1.581 0 3.162c0 .281-.079.346-.352.345-4.15-.008-8.3.009-12.449-.011a3.93 3.93 0 0 0-3.134 1.328 3.613 3.613 0 0 0-.907 2.37c-.047 1.642-.03 3.284-.029 4.926q0 3.611.024 7.222a3.787 3.787 0 0 0 2.986 3.846 3.909 3.909 0 0 0 .825.084q6.274.005 12.549-.009c.325 0 .407.088.4.4-.016 1.054-.005 2.108.006 3.162 0 .2-.035.284-.266.284-4.383-.01-8.767.058-13.147-.037a7.21 7.21 0 0 1-6.117-3.685 7.938 7.938 0 0 1-1.1-4.357q.004-2.838.006-5.683z" data-name="Path 3627" transform="translate(-350.492 -39.259)" style="fill:#013a83"/>
        <path id="prefix__Path_3628" d="M502.868 1053.6c-.383 1.154-.762 2.308-1.149 3.461-.458 1.365-.922 2.727-1.381 4.091-.044.131-.072.237-.256.236-1.441-.008-2.882 0-4.368 0l.345-1.023 7.326-21.645a1.276 1.276 0 0 1 1.174-.964 1.208 1.208 0 0 1 1.263.88c1.966 5.87 3.988 11.72 5.909 17.6.157.481.149.483-.347.483-2.7 0-5.391-.006-8.087.007-.3 0-.371-.084-.366-.369a22.691 22.691 0 0 0-.063-2.757z" class="prefix__cls-2" data-name="Path 3628" transform="translate(-1001.603 -92.875)"/>
        <path id="prefix__Path_3629" d="M210.37 1051.02c2.085 0 4.171 0 6.256-.006.246 0 .321.052.317.308q-.024 1.613 0 3.228c0 .266-.076.325-.333.325q-5.125-.012-10.249 0c-.819 0-1.092.278-1.091 1.1q0 4.093.008 8.186c0 .717.284 1.015 1 1.026.61.01 1.22-.008 1.83.008.226.006.276-.071.277-.282 0-.588.011-.589-.583-.594-.488 0-.976 0-1.464-.008-.126 0-.248 0-.234-.187.079-1.119-.042-2.239.028-3.359.016-.251.092-.312.333-.311q2.729.015 5.457 0c.238 0 .292.072.291.3q-.011 4.026 0 8.053c0 .215-.05.281-.274.28-2.54-.018-5.08-.018-7.62-.037a2.865 2.865 0 0 1-2.874-2.911v-12.146a2.862 2.862 0 0 1 2.942-2.939h5.99z" class="prefix__cls-2" data-name="Path 3629" transform="translate(-726.914 -105.254)"/>
        <path id="prefix__Path_3630" d="M-126.9 1056.169a5.841 5.841 0 0 0 1.376.064c2.539-.045 5.08.068 7.619-.035.266-.011.372.114.361.353-.052 1.086.043 2.172-.03 3.258-.016.236-.092.29-.315.29q-6.257-.009-12.513 0c-.2 0-.3-.024-.3-.263-.021-1.841-.1-3.682-.006-5.522a2.843 2.843 0 0 1 2.983-2.792q6.29.007 12.58 0c.308 0 .38.084.375.381-.018 1.065-.013 2.13 0 3.195 0 .2-.039.261-.252.261q-5.208-.01-10.416 0c-.155 0-.311-.006-.466 0-.653.041-.79.154-.996.81z" data-name="Path 3630" transform="translate(-416.837 -105.727)" style="fill:#003a83"/>
        <path id="prefix__Path_3631" d="M-121.055 1201.309h-6.156a2.816 2.816 0 0 1-2.912-2.822c-.03-1.83 0-3.66-.007-5.49 0-.313.177-.264.361-.264h11.68c.277 0 .555.007.832-.006.179-.008.264.044.263.238q-.015 1.729-.016 3.458c0 .187-.089.216-.248.211-.576-.018-1.153-.037-1.73-.038q-3.511-.006-7.021 0c-.344 0-.377.049-.237.354a.863.863 0 0 0 .881.516q5.324-.01 10.648 0c.5 0 .434-.067.435.448 0 1.031-.01 2.063 0 3.095 0 .252-.074.309-.319.308-2.15-.017-4.299-.008-6.454-.008z" class="prefix__cls-2" data-name="Path 3631" transform="translate(-417.417 -237.535)"/>
        <path id="prefix__Path_3632" d="M612.124 1199.847c.432 1.345.909 2.581 1.273 3.91h-1.968c-.65 0-.652 0-.46-.614a34.7 34.7 0 0 1 1.155-3.296z" data-name="Path 3632" transform="translate(-1109.081 -244.179)" style="fill:#fdfefd"/>
    </g>
</svg>