<?xml version="1.0" encoding="utf-8"?>
<!-- Generator: Adobe Illustrator 22.1.0, SVG Export Plug-In . SVG Version: 6.00 Build 0)  -->
<svg version="1.1" id="Layer_1" xmlns="http://www.w3.org/2000/svg" xmlns:xlink="http://www.w3.org/1999/xlink" x="0px" y="0px"
	 viewBox="0 0 100 80" style="enable-background:new 0 0 100 80;" xml:space="preserve">
<style type="text/css">
	.st0{fill:#15195A;}
</style>
<path id="prefix__Path_3636" class="st0" d="M51.5,31.9c0,5.3,4,8.1,6.8,9.9c3.2,1.8,4.2,2.8,4.2,4.7c0,2.5-2.4,3.4-4.8,3.4
	c-2.9,0-5.5-0.6-8.1-2.2l-1.3,7.7c2.9,1.2,5.8,1.8,8.9,1.8c8.4,0,13.7-5,14-12.4c0-9.6-11.3-10.2-11-14.3c0-1.2,1.1-2.8,3.4-3.1
	c2.6-0.3,5.5,0.3,7.9,1.5l1.1-7.7c-2.4-0.9-5-1.5-7.3-1.5C57.3,19.8,51.7,24.8,51.5,31.9 M85.9,20.4c-1.6,0-2.9,0.9-3.4,2.8
	L70.7,56.7h8.4l1.6-5.3h10.3l1.1,5.3h7.3l-6.6-36.2H85.9 M87,30.4L89.4,44h-6.6L87,30.4 M41.5,20.4l-6.6,36.2h7.9l6.6-36.2H41.5
	 M29.6,20.4l-8.1,24.5l-3.4-20.7c-0.3-2.2-1.8-3.7-3.7-3.7H1l-0.3,1.2c2.6,0.6,5.3,1.5,7.9,3.1c1.1,0.6,1.8,1.8,1.8,3.1l6.3,28.8
	h8.4L38,20.4H29.6"/>
</svg>
