<?xml version="1.0" encoding="utf-8"?>
<!-- Generator: Adobe Illustrator 22.1.0, SVG Export Plug-In . SVG Version: 6.00 Build 0)  -->
<svg version="1.1" id="Layer_1" xmlns="http://www.w3.org/2000/svg" xmlns:xlink="http://www.w3.org/1999/xlink" x="0px" y="0px"
	 viewBox="0 0 174 155" style="enable-background:new 0 0 174 155;" xml:space="preserve">
<style type="text/css">
	.st0{fill:#365D96;}
</style>
<g>
	<path class="st0" d="M99.5,72.8c6-4,10-10.8,10-18.5c0-12.2-10-22.2-22.2-22.2C75,32,65,42,65,54.3c0,7.7,4,14.5,10,18.5
		c-13.6,5-23.3,18-23.3,33.3v3h71v-3C122.7,90.8,113,77.8,99.5,72.8z M70.9,54.3c0-9,7.3-16.3,16.3-16.3c9,0,16.3,7.3,16.3,16.3
		s-7.3,16.3-16.3,16.3C78.2,70.5,70.9,63.2,70.9,54.3z M57.8,103.1c1.5-14.9,14.1-26.6,29.5-26.6c15.3,0,28,11.7,29.5,26.6H57.8z"/>
</g>
</svg>
