<svg xmlns="http://www.w3.org/2000/svg" width="68.079" height="71.397" viewBox="0 0 68.079 71.397">
    <defs>
        <style>
            .prefix__cls-1{fill:#d4d4d4}.prefix__cls-2{fill:#c1c1c2}.prefix__cls-3{fill:#a6a7a7}.prefix__cls-4{fill:#f0bc41}.prefix__cls-5{fill:#e69f3d}.prefix__cls-6{fill:#cb6f33}.prefix__cls-7{fill:#f8dd4a}.prefix__cls-8{fill:#e0e0e0}
        </style>
    </defs>
    <g id="prefix__Group_3753" data-name="Group 3753" transform="translate(-4358.154 -3350.874)">
        <g id="prefix__Group_3750" data-name="Group 3750" transform="translate(4358.154 3350.874)">
            <path id="prefix__Path_9639" d="M4457.426 3471.04l.675 8.231-7.786-2.92-35.357-49.123 5.4-4.033z" class="prefix__cls-1" data-name="Path 9639" transform="translate(-4402.925 -3407.874)"/>
            <path id="prefix__Path_9640" d="M4435.721 3443.023c-1.167 1.046-2.929 1.683-5.307.043-2.455-1.693-8.437-9.993-9.174-12.86a2.828 2.828 0 0 1 1.731-3.64l-2.612-3.372-5.4 4.034 24.278 33.732 4.8-7.2z" class="prefix__cls-2" data-name="Path 9640" transform="translate(-4402.925 -3407.873)"/>
            <path id="prefix__Path_9641" d="M4426.8 3434.06l37.195 48.09-36-48.981z" class="prefix__cls-3" data-name="Path 9641" transform="translate(-4412.257 -3415.735)"/>
            <g id="prefix__Group_3749" data-name="Group 3749">
                <path id="prefix__Path_9642" d="M4365.083 3351.459c-.744-1-2.84-.691-4.681.684s-2.729 3.3-1.984 4.295c.514.688 2.631-.146 4.561 2.439s6.481 11.164 6.481 11.164l5.532-4.132s-8.083-8.338-8.721-9.192c-1.895-2.537-.671-4.569-1.188-5.258z" class="prefix__cls-4" data-name="Path 9642" transform="translate(-4358.154 -3350.874)"/>
                <path id="prefix__Path_9643" d="M4360.4 3352.156a5.177 5.177 0 0 1 3.768-1.217c-2.332.227-5.214 2.485-3.767 4.393 1.622 2.14 4.043.357 4.945-.439a5.5 5.5 0 0 0 .923 1.837c.11.147.446.521.919 1.034-.926.55-2.759 1.827-1.932 2.929.851 1.134 2.929-.275 3.8-.946.7.734 1.453 1.524 2.186 2.288-5.544 4.27-2.271 5.87 2.08 2.16.984 1.02 1.669 1.726 1.669 1.726l-5.532 4.132s-4.551-8.578-6.481-11.163-4.047-1.751-4.561-2.439c-.745-.998.144-2.92 1.983-4.295z" class="prefix__cls-5" data-name="Path 9643" transform="translate(-4358.154 -3350.886)"/>
                <path id="prefix__Path_9644" d="M4370.2 3399.519l16.831-12.57c2.484-1.855 5.139-3.033 6.873-1.128 1.41 1.549 1.333 3.89-1.577 5.98 1.025-1.842.363-5.014-3.347-2.243l-16.831 12.57c-2.437 1.82-1.773 4.5 1.253 3.682-2.567 1.438-4.756.687-5.815-.73-1.333-1.787.022-3.624 2.613-5.561z" class="prefix__cls-4" data-name="Path 9644" transform="translate(-4365.179 -3377.653)"/>
                <path id="prefix__Path_9645" d="M4380.23 3373.486l-3.873 2.877a.54.54 0 0 0 .646.866l3.873-2.878a.54.54 0 1 0-.646-.866z" class="prefix__cls-6" data-name="Path 9645" transform="translate(-4372.33 -3368.611)"/>
                <path id="prefix__Path_9646" d="M4396.113 3394.544l-5.194 3.879a.54.54 0 0 0 .646.865l5.194-3.879a.54.54 0 0 0-.646-.866z" class="prefix__cls-6" data-name="Path 9646" transform="translate(-4383.807 -3385.208)"/>
                <path id="prefix__Path_9647" d="M4371.271 3408.286c2.606-2.256 17.144-13.284 20.552-15.74 1.731-1.248 3.446-1.444 4.646-.84.8 1.5.378 3.459-2.1 5.239 1.025-1.842.363-5.014-3.347-2.243l-16.83 12.57c-2.437 1.82-1.773 4.5 1.252 3.682-2.545 1.426-4.718.7-5.787-.7a5.236 5.236 0 0 1 1.614-1.968z" class="prefix__cls-5" data-name="Path 9647" transform="translate(-4367.222 -3382.796)"/>
                <path id="prefix__Path_9648" d="M4396.857 3386.736c-.842-1.082.613-1.88.613-1.88l1.506 1.573c-.705.618-1.746.787-2.119.307z" class="prefix__cls-7" data-name="Path 9648" transform="translate(-4388.451 -3377.657)"/>
                <path id="prefix__Path_9649" d="M4413.39 3408.625c-.687-.609 1.3-2.6 1.3-2.6l1.507 1.573c-.936.551-2.12 1.637-2.807 1.027z" class="prefix__cls-7" data-name="Path 9649" transform="translate(-4401.574 -3394.345)"/>
                <path id="prefix__Path_9650" d="M4371.027 3354.936c.1.151.874-.188 1.727-.758s1.461-1.154 1.36-1.306-.875.188-1.727.758-1.461 1.155-1.36 1.306z" class="prefix__cls-7" data-name="Path 9650" transform="translate(-4368.291 -3352.42)"/>
                <path id="prefix__Path_9651" d="M4385.229 3413.358c.109.146 3.594-2.275 7.785-5.407s7.5-5.79 7.391-5.936-3.595 2.275-7.785 5.408-7.501 5.789-7.391 5.935z" class="prefix__cls-7" data-name="Path 9651" transform="translate(-4379.491 -3391.177)"/>
            </g>
            <path id="prefix__Path_9652" d="M4457.063 3447.625l10.29 13.79s-8.592-8.274-10.29-13.79z" class="prefix__cls-8" data-name="Path 9652" transform="translate(-4436.11 -3427.129)"/>
            <path id="prefix__Path_9653" d="M4556.209 3577.317l11.774 15.275.743 5.516-1.485-4.668z" class="prefix__cls-8" data-name="Path 9653" transform="translate(-4514.253 -3529.347)"/>
        </g>
        <g id="prefix__Group_3752" data-name="Group 3752" transform="translate(4371.048 3350.874)">
            <g id="prefix__Group_3751" data-name="Group 3751">
                <path id="prefix__Path_9654" d="M4419.7 3471.04l-.676 8.231 7.786-2.92 35.356-49.123-5.4-4.033z" class="prefix__cls-1" data-name="Path 9654" transform="translate(-4419.02 -3407.874)"/>
                <path id="prefix__Path_9655" d="M4574.22 3423.194l-6.172 7.967c2.487-1.392 1.728 1.3.651 5.019 5.985-5.22 5.583-2.775 3.236 1.724l7.685-10.677z" class="prefix__cls-2" data-name="Path 9655" transform="translate(-4536.478 -3407.873)"/>
                <path id="prefix__Path_9656" d="M4472.45 3434.06l-37.2 48.09 36-48.981z" class="prefix__cls-3" data-name="Path 9656" transform="translate(-4431.815 -3415.735)"/>
                <path id="prefix__Path_9657" d="M4609.947 3351.459c.745-1 2.841-.691 4.682.684s2.729 3.3 1.984 4.295c-.514.688-2.63-.146-4.561 2.439s-6.482 11.164-6.482 11.164l-5.532-4.132s8.083-8.338 8.722-9.192c1.894-2.537.673-4.569 1.187-5.258z" class="prefix__cls-4" data-name="Path 9657" transform="translate(-4561.691 -3350.874)"/>
                <path id="prefix__Path_9658" d="M4614.628 3352.156a5.176 5.176 0 0 0-3.768-1.217c2.332.227 5.213 2.485 3.768 4.393-1.622 2.14-4.044.357-4.946-.439a5.5 5.5 0 0 1-.922 1.837c-.11.147-.446.521-.92 1.034.926.55 2.759 1.827 1.932 2.929-.851 1.134-2.929-.275-3.8-.946-.7.734-1.453 1.524-2.186 2.288 5.544 4.27 2.271 5.87-2.079 2.16-.984 1.02-1.669 1.726-1.669 1.726l5.532 4.132s4.552-8.578 6.482-11.163 4.046-1.751 4.561-2.439c.744-.998-.144-2.92-1.985-4.295z" class="prefix__cls-5" data-name="Path 9658" transform="translate(-4561.691 -3350.886)"/>
                <path id="prefix__Path_9659" d="M4564.3 3399.519l-16.831-12.57c-2.484-1.855-5.14-3.033-6.873-1.128-1.41 1.549-1.333 3.89 1.577 5.98-1.025-1.842-.363-5.014 3.347-2.243l16.83 12.57c2.438 1.82 1.774 4.5-1.252 3.682 2.567 1.438 4.756.687 5.815-.73 1.338-1.787-.013-3.624-2.613-5.561z" class="prefix__cls-4" data-name="Path 9659" transform="translate(-4514.141 -3377.653)"/>
                <path id="prefix__Path_9660" d="M4639.017 3373.486l3.872 2.877a.54.54 0 0 1-.646.866l-3.873-2.878a.54.54 0 0 1 .647-.866z" class="prefix__cls-6" data-name="Path 9660" transform="translate(-4591.731 -3368.611)"/>
                <path id="prefix__Path_9661" d="M4618.219 3394.544l5.194 3.879a.54.54 0 0 1-.646.865l-5.194-3.879a.54.54 0 0 1 .646-.866z" class="prefix__cls-6" data-name="Path 9661" transform="translate(-4575.34 -3385.208)"/>
                <path id="prefix__Path_9662" d="M4565.29 3408.286c-2.606-2.256-17.143-13.284-20.552-15.74-1.731-1.248-3.446-1.444-4.646-.84-.8 1.5-.379 3.459 2.1 5.239-1.025-1.842-.363-5.014 3.347-2.243l16.831 12.57c2.438 1.82 1.774 4.5-1.253 3.682 2.546 1.426 4.719.7 5.788-.7a5.233 5.233 0 0 0-1.615-1.968z" class="prefix__cls-5" data-name="Path 9662" transform="translate(-4514.154 -3382.796)"/>
                <path id="prefix__Path_9663" d="M4631.956 3386.736c.842-1.082-.613-1.88-.613-1.88l-1.506 1.573c.705.618 1.746.787 2.119.307z" class="prefix__cls-7" data-name="Path 9663" transform="translate(-4585.177 -3377.657)"/>
                <path id="prefix__Path_9664" d="M4613.312 3408.625c.688-.609-1.3-2.6-1.3-2.6l-1.507 1.573c.935.551 2.119 1.637 2.807 1.027z" class="prefix__cls-7" data-name="Path 9664" transform="translate(-4569.942 -3394.345)"/>
                <path id="prefix__Path_9665" d="M4655.081 3354.936c-.1.151-.874-.188-1.727-.758s-1.461-1.154-1.36-1.306.874.188 1.727.758 1.461 1.155 1.36 1.306z" class="prefix__cls-7" data-name="Path 9665" transform="translate(-4602.631 -3352.42)"/>
                <path id="prefix__Path_9666" d="M4595.965 3413.358c-.109.146-3.595-2.275-7.785-5.407s-7.5-5.79-7.391-5.936 3.595 2.275 7.785 5.408 7.5 5.789 7.391 5.935z" class="prefix__cls-7" data-name="Path 9666" transform="translate(-4546.518 -3391.177)"/>
            </g>
            <path id="prefix__Path_9667" d="M4428.065 3579.154l-5.286 3.94 6.343-2.5 17.778-24.7z" class="prefix__cls-8" data-name="Path 9667" transform="translate(-4421.983 -3512.465)"/>
        </g>
    </g>
</svg>
