<svg xmlns="http://www.w3.org/2000/svg" width="70.136" height="66.967" viewBox="0 0 70.136 66.967">
    <defs>
        <style>
            .prefix__cls-2{fill:#c7d6dd}.prefix__cls-3,.prefix__cls-8{fill:#fff}.prefix__cls-4,.prefix__cls-6{fill:#aabbc1}.prefix__cls-4,.prefix__cls-6,.prefix__cls-7{mix-blend-mode:multiply;isolation:isolate}.prefix__cls-8{opacity:.5}.prefix__cls-6{opacity:.3}.prefix__cls-7{fill:#4d5560;opacity:.6}
        </style>
    </defs>
    <g id="prefix__Group_5049" data-name="Group 5049">
        <path id="prefix__Path_9735" fill="#2d2619" d="M2994.925 3404.249s-1.631 4.544-1.084 7.654c0 0 33.164 1.364 38.7.516 0 0 1.252-2.566.576-8.354 0 0-2.57-11.352-18.75-10.035s-17.724 5.77-19.442 10.219z" data-name="Path 9735" transform="translate(-2977.717 -3388.808)"/>
        <g id="prefix__Group_3769" data-name="Group 3769" transform="translate(8.214 6.896)">
            <path id="prefix__Path_9736" d="M3000.746 3444.629c-.858-2.046-1.605-4.133-2.48-6.171-.981-2.285-2.711-4.259-1.813-6.873.2-.593.456-1.165.654-1.758a30.209 30.209 0 0 0 .967-4.246c.239-1.344.409-2.7.565-4.055.126-1.108.266-2.233.324-3.357a.211.211 0 0 1-.047-.017.177.177 0 0 0-.117-.118c-2.841-.942-4.57-3.256-5.932-5.8a12.636 12.636 0 0 1-1.873-8.251.214.214 0 0 0-.184-.372 31.365 31.365 0 0 1-6.805.438c-2.557.009-5.111-.033-7.665.037a32.555 32.555 0 0 0-6.083.559c-1.3.292-2.58 1.042-2.718 2.487a.082.082 0 0 0 .054.089 12.15 12.15 0 0 1-2.75 6.47 12.711 12.711 0 0 1-5.517 4.242.08.08 0 0 0-.031.02c-.056-.081-.2-.093-.225.029a21.9 21.9 0 0 0-.18 5.115 30.017 30.017 0 0 0 1.171 5.322 21.044 21.044 0 0 1 .815 5.318 14.955 14.955 0 0 1-.977 4.879 62.022 62.022 0 0 1-4.448 8.793 45.843 45.843 0 0 0-4.109 9.456.221.221 0 0 0 .184.28c.431 1.786 2.517 3.069 3.979 3.893a24.509 24.509 0 0 0 2.941 1.376 29.111 29.111 0 0 0 3.66 1.055.221.221 0 0 0 .251-.3 27.525 27.525 0 0 0 1.99-3.889 38.432 38.432 0 0 0 2.145-4.884c.623-1.742 1.078-3.561 1.591-5.339.058-.2.119-.4.176-.6a19.223 19.223 0 0 0 2.2 1.2c.922.463 1.866.893 2.82 1.295q1.314.56 2.668 1c1 .329 2.045.5 3.059.775a.156.156 0 0 0 .191-.077 2.368 2.368 0 0 0 1.053-.231 19.693 19.693 0 0 0 2-1.019c2.228-1.149 4.634-2 6.784-3.3.424 1.636.846 3.272 1.293 4.9.9 3.3 1.854 6.617 3.041 9.828a.206.206 0 0 0 .116.122c.7 1.693 3.1-.02 4.207-.5a19.96 19.96 0 0 0 7.154-4.969c.135.081.344.029.323-.167-.504-4.5-2.693-8.564-4.422-12.685z" class="prefix__cls-2" data-name="Path 9736" transform="translate(-2951.336 -3403.605)"/>
            <path id="prefix__Path_9737" d="M3000.746 3444.629c-.858-2.046-1.605-4.133-2.48-6.171-.981-2.285-2.711-4.259-1.813-6.873.2-.593.456-1.165.654-1.758a30.209 30.209 0 0 0 .967-4.246c.239-1.344.409-2.7.565-4.055.126-1.108.266-2.233.324-3.357a.211.211 0 0 1-.047-.017.177.177 0 0 0-.117-.118c-2.841-.942-4.57-3.256-5.932-5.8a12.636 12.636 0 0 1-1.873-8.251.214.214 0 0 0-.184-.372 31.365 31.365 0 0 1-6.805.438c-2.557.009-5.111-.033-7.665.037a32.555 32.555 0 0 0-6.083.559c-1.3.292-2.58 1.042-2.718 2.487a.082.082 0 0 0 .054.089 12.15 12.15 0 0 1-2.75 6.47 12.711 12.711 0 0 1-5.517 4.242.08.08 0 0 0-.031.02c-.056-.081-.2-.093-.225.029a21.9 21.9 0 0 0-.18 5.115 30.017 30.017 0 0 0 1.171 5.322 21.044 21.044 0 0 1 .815 5.318 14.955 14.955 0 0 1-.977 4.879 62.022 62.022 0 0 1-4.448 8.793 45.843 45.843 0 0 0-4.109 9.456.221.221 0 0 0 .184.28c.431 1.786 2.517 3.069 3.979 3.893a24.509 24.509 0 0 0 2.941 1.376 29.111 29.111 0 0 0 3.66 1.055.221.221 0 0 0 .251-.3 27.525 27.525 0 0 0 1.99-3.889 38.432 38.432 0 0 0 2.145-4.884c.623-1.742 1.078-3.561 1.591-5.339.058-.2.119-.4.176-.6a19.223 19.223 0 0 0 2.2 1.2c.922.463 1.866.893 2.82 1.295q1.314.56 2.668 1c1 .329 2.045.5 3.059.775a.156.156 0 0 0 .191-.077 2.368 2.368 0 0 0 1.053-.231 19.693 19.693 0 0 0 2-1.019c2.228-1.149 4.634-2 6.784-3.3.424 1.636.846 3.272 1.293 4.9.9 3.3 1.854 6.617 3.041 9.828a.206.206 0 0 0 .116.122c.7 1.693 3.1-.02 4.207-.5a19.96 19.96 0 0 0 7.154-4.969c.135.081.344.029.323-.167-.504-4.5-2.693-8.564-4.422-12.685z" class="prefix__cls-2" data-name="Path 9737" transform="translate(-2951.336 -3403.605)"/>
            <path id="prefix__Path_9738" d="M3214.125 3640.072c.475 1.355.972 2.708 1.513 4.048.686 1.7 1.381 3.43 1.919 5.2.255.061.51.114.762.175a61.057 61.057 0 0 0-4.194-9.423z" class="prefix__cls-3" data-name="Path 9738" transform="translate(-3165.792 -3596.58)"/>
            <path id="prefix__Path_9739" d="M2976.6 3606.031c-.128-.09-.255-.171-.381-.26-1.235 3.378-3.87 6.2-5.517 9.358a41.324 41.324 0 0 0-2.391 5.6c.662-.28 1.319-.576 1.973-.873 1.524-4.78 4.416-9.14 6.316-13.825z" class="prefix__cls-3" data-name="Path 9739" transform="translate(-2965.189 -3568.588)"/>
            <path id="prefix__Path_9740" d="M2996.309 3631.468c.787-2.29 1.512-4.722 2.523-6.979a69.747 69.747 0 0 0-4.51 9.3c.492-.248.982-.552 1.489-.792.16-.515.327-1.03.498-1.529z" class="prefix__cls-3" data-name="Path 9740" transform="translate(-2986.416 -3583.863)"/>
            <path id="prefix__Path_9741" d="M2965.159 3682.657c-.148.065-.3.13-.443.2-.737 1.226-1.655 2.371-2.464 3.548.228.215.467.418.718.613.22-.365.442-.727.665-1.1.705-1.153 1.734-2.342 2.364-3.621-.283.117-.565.239-.84.36z" class="prefix__cls-3" data-name="Path 9741" transform="translate(-2960.244 -3631.038)"/>
            <path id="prefix__Path_9742" d="M2973.021 3693.834c-.238.39-.475.788-.714 1.174.073.049.144.094.218.138a44.041 44.041 0 0 0 2.311-4c-.589.923-1.279 1.8-1.815 2.688z" class="prefix__cls-3" data-name="Path 9742" transform="translate(-2968.449 -3638.261)"/>
            <path id="prefix__Path_9743" d="M2995.187 3618.983c-.04-.016-.085-.037-.129-.057a80.6 80.6 0 0 1-5.96 12.633c-1.052 1.917-2.138 3.812-3.042 5.805l.381.158c3.321-5.991 6.648-11.995 8.75-18.539z" class="prefix__cls-3" data-name="Path 9743" transform="translate(-2979.671 -3579.323)"/>
            <path id="prefix__Path_9744" d="M3165.794 3668.171a45.579 45.579 0 0 0 2.344 6.581.857.857 0 0 0 .513.114c-.136-.28-.268-.564-.39-.853a64.35 64.35 0 0 1-2.438-7.218c-.385-1.307-.834-2.61-1.279-3.921.366 1.777.767 3.547 1.25 5.297z" class="prefix__cls-3" data-name="Path 9744" transform="translate(-3125.33 -3615.188)"/>
            <path id="prefix__Path_9745" d="M3211 3687.616q-.613-.165-1.215-.353a17.187 17.187 0 0 0 2.438 4.128q.341-.225.676-.463c.038-.024.074-.057.112-.085a11.1 11.1 0 0 1-2.011-3.227z" class="prefix__cls-3" data-name="Path 9745" transform="translate(-3162.248 -3635.092)"/>
            <path id="prefix__Path_9746" d="M3169.177 3628.111c-.737-2.18-1.616-4.32-2.328-6.5-.735-2.25-1.191-4.6-2.055-6.808-.162.057-.324.118-.49.17 1.093 4.153 2.167 8.327 3.655 12.358.876 2.375 1.476 5.058 2.713 7.328.329-.155.66-.3.99-.451a40.729 40.729 0 0 1-2.485-6.097z" class="prefix__cls-3" data-name="Path 9746" transform="translate(-3125.133 -3575.955)"/>
            <path id="prefix__Path_9747" d="M2992.6 3639.38c1.138-2.469 2.068-5.034 3.148-7.535 1.613-3.723 2.517-7.689 3.97-11.465-.242-.085-.481-.183-.717-.284a68.713 68.713 0 0 1-4.719 11.416c-1.2 2.249-2.506 4.437-3.734 6.674-.082.155-.167.3-.252.455.165.064.327.13.488.195a15.8 15.8 0 0 0 1.816.544z" class="prefix__cls-4" data-name="Path 9747" transform="translate(-2983.129 -3580.278)"/>
            <path id="prefix__Path_9748" d="M3167 3644.189a54.892 54.892 0 0 1-3-6.4 90.279 90.279 0 0 1-3.568-10.08c.79 3.654 1.6 7.311 2.624 10.912a53.271 53.271 0 0 0 2.388 6.662c.107.256.217.5.323.751a6.756 6.756 0 0 0 .938-.442c.282-.15.571-.288.861-.426-.195-.319-.384-.648-.566-.977z" class="prefix__cls-4" data-name="Path 9748" transform="translate(-3121.971 -3586.492)"/>
            <path id="prefix__Path_9749" d="M3201.083 3685.675c-.343-.515-.725-1.072-1.084-1.656-.032-.008-.066-.025-.1-.037-.171-.061-.415-.126-.689-.207q.146.311.294.621c.794 1.7 1.615 3.4 2.516 5.05l.032.056c.381-.223.758-.446 1.128-.682-.705-1.042-1.398-2.094-2.097-3.145z" class="prefix__cls-4" data-name="Path 9749" transform="translate(-3153.619 -3632.245)"/>
            <path id="prefix__Path_9750" d="M3176.654 3620.425c-1.151-2.886-1.727-5.947-2.732-8.87-.092.041-.18.081-.272.118a16.548 16.548 0 0 0 .49 3.077c.236 1.027.446 2.05.757 3.057.342 1.1.715 2.188 1.059 3.28a24.147 24.147 0 0 1 .742 2.6 4.04 4.04 0 0 0 1.509.682c.146.049.289.1.431.15a34.991 34.991 0 0 1-1.984-4.094z" class="prefix__cls-4" data-name="Path 9750" transform="translate(-3132.761 -3573.308)"/>
            <path id="prefix__Path_9751" d="M3207.125 3617.9c-.672-1.872-1.306-3.763-2.013-5.619a69.342 69.342 0 0 0-5.3-10.92 115.06 115.06 0 0 1 7.181 16.624c.058.012.115.025.171.041-.01-.048-.024-.089-.039-.126z" class="prefix__cls-4" data-name="Path 9751" transform="translate(-3154.114 -3564.986)"/>
            <path id="prefix__Path_9752" fill="#aabbc1" d="M3189.7 3603.608c-.219.105-.439.215-.658.312a57.978 57.978 0 0 0 3.68 11.42c.584 1.258 1.264 2.485 1.935 3.71.373.077.741.146 1.114.219.289.052.574.118.863.183a114.289 114.289 0 0 0-6.934-15.844z" data-name="Path 9752" transform="translate(-3145.324 -3566.823)" style="mix-blend-mode:multiply;isolation:isolate" opacity="0.5"/>
            <path id="prefix__Path_9753" d="M2961.047 3613.089c.9-1.932 1.794-3.889 2.755-5.789a30.423 30.423 0 0 0 2.125-4.584 9.018 9.018 0 0 0 .2-1.121c-.106-.093-.218-.187-.322-.284-1.057 3.585-3.812 6.511-5.717 9.743a45.951 45.951 0 0 0-3.331 6.849c.94-.313 1.856-.695 2.764-1.088a36.174 36.174 0 0 1 1.526-3.726z" class="prefix__cls-4" data-name="Path 9753" transform="translate(-2955.76 -3564.948)"/>
            <path id="prefix__Path_9754" d="M3056.123 3571.813c-.149-.061-.3-.126-.447-.187a24.236 24.236 0 0 1-.232 3.256 12.84 12.84 0 0 1-.019 1.494c.312.1.634.17.942.239.021 0 .041.012.06.016-.093-1.611-.211-3.218-.304-4.818z" class="prefix__cls-3" data-name="Path 9754" transform="translate(-3036.281 -3540.723)"/>
            <path id="prefix__Path_9755" d="M3090.985 3585.535a1.348 1.348 0 0 1-.22-.032h-.008a14.456 14.456 0 0 1-1.466-.527c.149 1.368.294 2.752.413 4.137a9.6 9.6 0 0 0 1.453.37.031.031 0 0 1 .016.008c-.018-1.321-.062-2.644-.188-3.956z" class="prefix__cls-3" data-name="Path 9755" transform="translate(-3063.917 -3551.62)"/>
            <path id="prefix__Path_9756" d="M3106.415 3584.737c-.014 0-.03.012-.045.016-.144.065-.293.138-.443.2a.774.774 0 0 1-.1.236c.1 1.1.153 2.2.183 3.309a31.736 31.736 0 0 1 .405-3.761z" class="prefix__cls-3" data-name="Path 9756" transform="translate(-3077.408 -3551.422)"/>
            <path id="prefix__Path_9757" d="M3128.891 3574.274c-.121.069-.245.134-.369.2a31.238 31.238 0 0 0 .152 4.181c.189-.093.375-.182.563-.276-.185-1.365-.296-2.741-.346-4.105z" class="prefix__cls-3" data-name="Path 9757" transform="translate(-3095.921 -3542.884)"/>
            <path id="prefix__Path_9758" d="M3142.4 3563.9a22.839 22.839 0 0 0-.013 4.507c.5-.228 1-.447 1.5-.65a13.566 13.566 0 0 1-.238-2.266 12.5 12.5 0 0 1-.074-2.334q-.584.376-1.175.743z" class="prefix__cls-3" data-name="Path 9758" transform="translate(-3107.158 -3533.806)"/>
            <path id="prefix__Path_9759" d="M3061.723 3532.066c.151.065.3.122.457.191a64.639 64.639 0 0 0-1.562-9.544c-.08.008-.159.024-.238.036 1.156 3.033 1.209 6.138 1.343 9.317z" class="prefix__cls-3" data-name="Path 9759" transform="translate(-3040.324 -3500.806)"/>
            <path id="prefix__Path_9760" d="M3037.718 3533.919q-.248-1.358-.544-2.712c-.273-1.254-.742-2.452-1.065-3.682-.276.077-.55.15-.825.235a18.307 18.307 0 0 1 1.348 3.219q.331.89.648 1.787c.136.39.305.763.438 1.153z" class="prefix__cls-3" data-name="Path 9760" transform="translate(-3019.844 -3504.733)"/>
            <path id="prefix__Path_9761" d="M3085.238 3523.062c-.083-1.864.031-3.747-.14-5.6-.312.016-.626.032-.942.061a.056.056 0 0 1-.06-.049c-.95.118-1.895.256-2.841.4a61.483 61.483 0 0 1 2.21 11.814c.27.1.537.2.813.28a2.094 2.094 0 0 0 1.109-.207c-.007-2.233-.046-4.47-.149-6.699z" class="prefix__cls-3" data-name="Path 9761" transform="translate(-3057.36 -3496.52)"/>
            <path id="prefix__Path_9762" d="M3118.935 3518.408a.707.707 0 0 1 .131-.264.022.022 0 0 0 0-.008c-.228-.029-.455-.053-.683-.082a.605.605 0 0 1-.028.37 25.578 25.578 0 0 0-.92 6.207c-.142 1.494-.252 3.008-.28 4.515.3-.138.594-.284.891-.431a34.414 34.414 0 0 1 .889-10.307z" class="prefix__cls-3" data-name="Path 9762" transform="translate(-3086.657 -3497.004)"/>
            <path id="prefix__Path_9763" d="M3142.092 3521.637l-.048-.012c-.22-.044-.438-.085-.659-.126a16.847 16.847 0 0 0-1.076 6.447 25.9 25.9 0 0 1 1.783-6.309z" class="prefix__cls-3" data-name="Path 9763" transform="translate(-3105.552 -3499.816)"/>
            <path id="prefix__Path_9764" d="M3070.607 3603.985l-.455-.134a33.021 33.021 0 0 1 .232 4.478 1.786 1.786 0 0 0 .2.04 24.676 24.676 0 0 0 .023-4.384z" class="prefix__cls-3" data-name="Path 9764" transform="translate(-3048.299 -3567.021)"/>
            <path id="prefix__Path_9765" d="M3119.574 3603.851c-.088.04-.181.085-.274.126-.179.081-.361.162-.543.235.188 1.429.442 2.85.711 4.263l.466-.17a1.283 1.283 0 0 0 .12-.049 29.827 29.827 0 0 1-.48-4.405z" class="prefix__cls-3" data-name="Path 9765" transform="translate(-3087.963 -3567.021)"/>
            <path id="prefix__Path_9766" d="M3147.411 3596.7c.072-.028.144-.069.216-.105-.294-1.547-.686-3.085-.9-4.644-.107.049-.214.093-.323.146a26.812 26.812 0 0 0 .821 4.733l.114-.036a.129.129 0 0 1 .072-.094z" class="prefix__cls-3" data-name="Path 9766" transform="translate(-3110.525 -3557.312)"/>
            <path id="prefix__Path_9767" d="M3094.615 3612.511c.053-.572.092-1.14.12-1.709a1.8 1.8 0 0 1-.641-.029.213.213 0 0 1-.168.045 7.052 7.052 0 0 1-.856-.191c-.021 1.36-.1 2.72-.249 4.068.512.122 1.1.361 1.649.45a25.56 25.56 0 0 1 .145-2.634z" class="prefix__cls-3" data-name="Path 9767" transform="translate(-3066.799 -3572.55)"/>
            <path id="prefix__Path_9768" d="M3090.6 3639.663c-.056.435-.115.885-.184 1.348.623.158 1.249.288 1.874.447-.038-1.9-.085-3.8-.131-5.692-.337-.1-.669-.235-.978-.308-.107-.021-.216-.045-.323-.065a34.431 34.431 0 0 1-.258 4.27z" class="prefix__cls-3" data-name="Path 9768" transform="translate(-3064.835 -3592.761)"/>
            <path id="prefix__Path_9769" d="M3044.818 3624.033a2.96 2.96 0 0 0-.312-.117 21.565 21.565 0 0 1-.868 4.137c.259.1.513.211.764.329a18.162 18.162 0 0 0 .416-4.349z" class="prefix__cls-3" data-name="Path 9769" transform="translate(-3026.661 -3583.395)"/>
            <path id="prefix__Path_9770" d="M3055.77 3627.652l-.647-.183a21.064 21.064 0 0 1-.52 4.429c.1.052.2.1.3.154.156.069.313.15.472.223.182-.7.33-1.413.446-2.135.058-.812.09-1.632.1-2.452z" class="prefix__cls-3" data-name="Path 9770" transform="translate(-3035.609 -3586.295)"/>
            <path id="prefix__Path_9771" d="M3080.547 3633.211l-.534-.114a33.356 33.356 0 0 1-.5 5.4c.226.081.453.166.68.244.127-.776.223-1.559.273-2.351.068-1.06.091-2.119.081-3.179z" class="prefix__cls-3" data-name="Path 9771" transform="translate(-3055.941 -3590.888)"/>
            <path id="prefix__Path_9772" d="M3135.669 3625.526c-.232.09-.463.183-.7.272a30.29 30.29 0 0 0 1.528 4.173c.25-.13.5-.264.758-.4a26.708 26.708 0 0 1-1.586-4.045z" class="prefix__cls-3" data-name="Path 9772" transform="translate(-3101.198 -3584.709)"/>
            <g id="prefix__Group_3766" data-name="Group 3766" transform="translate(9.938 22.776)">
                <path id="prefix__Path_9773" d="M3162.314 3539.908c-.74-3.95-1.376-8.667.826-12.24l-.844-.231a27.8 27.8 0 0 0-1.694 12.951c.1.889.175 1.887.313 2.9.647-.244 1.293-.483 1.934-.739q-.287-1.32-.535-2.641z" class="prefix__cls-3" data-name="Path 9773" transform="translate(-3131.916 -3527.436)"/>
                <path id="prefix__Path_9774" d="M3006.207 3546.617c-.148.662-.322 1.328-.52 1.993.16.142.327.276.494.41a15.474 15.474 0 0 0 1.175-5.874c-.049-1.79.259-4.5-.8-6.13a9.6 9.6 0 0 0-1.183.5 12.319 12.319 0 0 1 .8 3.187 17.185 17.185 0 0 1 .034 5.914z" class="prefix__cls-3" data-name="Path 9774" transform="translate(-3005.37 -3535.254)"/>
            </g>
            <g id="prefix__Group_3767" data-name="Group 3767" transform="translate(10.459 22.593)">
                <path id="prefix__Path_9775" d="M3182 3532.711c-.382-.081-.764-.17-1.144-.264a15.263 15.263 0 0 0-1.556 10.831 10.352 10.352 0 0 0 .807 2.408c.5-.232 1-.467 1.487-.715-1.887-4.035-2.358-8.566.406-12.26z" class="prefix__cls-4" data-name="Path 9775" transform="translate(-3147.538 -3531.343)"/>
                <path id="prefix__Path_9776" d="M3157.747 3538.777c-.6-4.251-.5-8.249 1.636-11.98-.427-.118-.854-.24-1.282-.353a25.314 25.314 0 0 0-1.973 10.665 23.465 23.465 0 0 0 .8 5.541c.484-.187.969-.361 1.452-.544a32.477 32.477 0 0 1-.633-3.329z" class="prefix__cls-4" data-name="Path 9776" transform="translate(-3128.912 -3526.443)"/>
                <path id="prefix__Path_9777" d="M3008.864 3547.391a24.129 24.129 0 0 0 1.432-4.531 14.219 14.219 0 0 0-.279-8.184c-.338.13-.68.26-1.021.386-.219.077-.437.158-.654.239 1.606 3.487 1.194 7.815-.141 11.574.212.179.435.35.663.516z" class="prefix__cls-4" data-name="Path 9777" transform="translate(-3008.201 -3533.162)"/>
                <path id="prefix__Path_9778" d="M3027.911 3544.972q.537.255 1.083.5c.193.081.392.158.592.236a29.786 29.786 0 0 0 .69-5.7c.065-3.317.035-7.34-1.487-10.389-.154.044-.308.093-.462.146a27.545 27.545 0 0 1 1.059 5.858 21.813 21.813 0 0 1-.959 7.36c-.19.662-.353 1.323-.516 1.989z" class="prefix__cls-4" data-name="Path 9778" transform="translate(-3024.286 -3529.038)"/>
            </g>
            <path id="prefix__Path_9779" d="M3001.193 3487.307c.136-.077.272-.146.414-.216a20.825 20.825 0 0 1-.523-4.067 19.586 19.586 0 0 1 .551-5.371 12.317 12.317 0 0 1 .6-1.644 11.56 11.56 0 0 1-1.258.8 24.281 24.281 0 0 0 .216 10.498z" class="prefix__cls-3" data-name="Path 9779" transform="translate(-2991.456 -3462.692)"/>
            <path id="prefix__Path_9780" d="M3104.357 3428a40.6 40.6 0 0 0-.025-6.845 63.716 63.716 0 0 0-.992-7.57c-.4-1.809-.883-3.6-1.364-5.389h-1.016c.269 4.843.539 9.679.661 14.534.043 1.75.01 3.511-.037 5.265a.4.4 0 0 0 .073 0 .062.062 0 0 1 .062.069 25.86 25.86 0 0 1 2.638-.064z" class="prefix__cls-3" data-name="Path 9780" transform="translate(-3073.441 -3407.352)"/>
            <path id="prefix__Path_9781" d="M3117.956 3428.237c-.087-2.123-.28-4.238-.419-6.353a48.669 48.669 0 0 0-2.735-13.088.579.579 0 0 1 .08-.575h-.678c.537 1.971 1.073 3.946 1.454 5.949.438 2.318.626 4.655.848 7.006a41.6 41.6 0 0 1 .014 6.914c.48.034.959.087 1.436.147z" class="prefix__cls-3" data-name="Path 9781" transform="translate(-3084.249 -3407.37)"/>
            <path id="prefix__Path_9782" d="M3128.875 3428.76a57.073 57.073 0 0 0-.381-7.437 36.462 36.462 0 0 0-1.339-7.055c-.648-2.039-1.439-4.02-2.214-6.01H3124a.676.676 0 0 1 .115.206 52 52 0 0 1 2.782 13.453c.171 2.176.361 4.364.433 6.556.513.081 1.022.175 1.531.284a.024.024 0 0 0 .014.003z" class="prefix__cls-3" data-name="Path 9782" transform="translate(-3092.241 -3407.402)"/>
            <path id="prefix__Path_9783" d="M3017.854 3446.369c.013-2.521.917-4.88 1.56-7.287a22.631 22.631 0 0 0 .66-4.079 14.9 14.9 0 0 1-.979 3.233c-.6 1.454-1.521 2.75-2.071 4.235a24.425 24.425 0 0 0-1.119 4.125 26.639 26.639 0 0 0-.371 6.374c.315-.109.627-.215.923-.321.682-.243 1.369-.479 2.061-.694a29.526 29.526 0 0 1-.664-5.586z" class="prefix__cls-3" data-name="Path 9783" transform="translate(-3003.685 -3429.229)"/>
            <path id="prefix__Path_9784" d="M2995.826 3491.245a20.025 20.025 0 0 1-.339-2.736 26.6 26.6 0 0 1 .3-7.381 9.882 9.882 0 0 1-1.133.487.146.146 0 0 1-.116 0c.057 1.745-.179 3.479.034 5.224a38.28 38.28 0 0 0 1.183 4.969l.15-.1c-.029-.15-.053-.308-.079-.463z" class="prefix__cls-4" data-name="Path 9784" transform="translate(-2986.545 -3466.87)"/>
            <path id="prefix__Path_9785" d="M3012.307 3431.429c.3-2.5 1.447-4.562 2.262-6.9a28.4 28.4 0 0 0 1.449-6.4 20.473 20.473 0 0 1-1.724 5.894c-.963 1.824-2.176 3.5-3.158 5.319-1.674 3.094-1.622 6.674-.962 10.093.54-.2 1.09-.37 1.6-.556l.844-.3a22.981 22.981 0 0 1-.311-7.15z" class="prefix__cls-4" data-name="Path 9785" transform="translate(-2999.002 -3415.462)"/>
            <path id="prefix__Path_9786" d="M3076.079 3428.093a.115.115 0 0 1 .038 0c-.011-.65-.016-1.3-.031-1.94-.051-2.119-.124-4.239-.2-6.362-.135-3.925-.414-7.872-1.874-11.557-1.391.016-2.793.039-4.184.142.549 4.985-.046 9.868-.259 14.886a37.625 37.625 0 0 0 .175 5.346c.425-.061.854-.118 1.279-.175a32.765 32.765 0 0 1 4.992-.406.063.063 0 0 1 .064.066z" class="prefix__cls-4" data-name="Path 9786" transform="translate(-3047.8 -3407.38)"/>
            <path id="prefix__Path_9787" d="M3126.021 3428.544c-.111-2.367-.226-4.742-.438-7.1a38.09 38.09 0 0 0-1.573-7.233 59.649 59.649 0 0 0-1.824-5.972h-.473a65.231 65.231 0 0 1 2.446 12.722c.182 2.411.326 4.88.284 7.336.528.064 1.057.153 1.578.247z" class="prefix__cls-4" data-name="Path 9787" transform="translate(-3090.376 -3407.38)"/>
            <path id="prefix__Path_9788" d="M3177.026 3462.479c.229.053.454.105.678.175a14.011 14.011 0 0 0 .425-2.627 12.241 12.241 0 0 0-.965-5.927c-.415-.9-.882-1.77-1.336-2.647a15.781 15.781 0 0 1-2.431-3.539q-.216-.408-.43-.826l.024.061c.972 2.4 2.791 4.418 3.557 6.9a19.375 19.375 0 0 1 .478 8.43z" class="prefix__cls-6" data-name="Path 9788" transform="translate(-3132.203 -3439.09)"/>
            <path id="prefix__Path_9789" d="M3144.55 3429.437c.094-2.578.319-5.407-.392-7.916-.788-2.769-2.488-5.118-3.9-7.6a30.1 30.1 0 0 1-2.6-5.728h-.533a48.193 48.193 0 0 1 2 5.4 44.268 44.268 0 0 1 1.894 7.5c.331 2.432.194 4.88.339 7.324.013.24.034.479.057.719 1.042.256 2.079.536 3.111.832.012-.182.017-.36.024-.531z" class="prefix__cls-6" data-name="Path 9789" transform="translate(-3102.958 -3407.352)"/>
            <path id="prefix__Path_9790" d="M3041.822 3441.934c-.057.248-.118.49-.179.733a41.28 41.28 0 0 0-1.8 14.5q.786-.219 1.579-.389h.006a25.5 25.5 0 0 1-.542-8.164c.19-2.248.573-4.456.936-6.68z" class="prefix__cls-4" data-name="Path 9790" transform="translate(-3023.507 -3434.885)"/>
            <path id="prefix__Path_9791" d="M3000.746 3444.629c-.858-2.046-1.605-4.133-2.48-6.171-.981-2.285-2.711-4.259-1.813-6.873.2-.593.456-1.165.654-1.758a30.209 30.209 0 0 0 .967-4.246c.239-1.344.409-2.7.565-4.055.126-1.108.266-2.233.324-3.357a.211.211 0 0 1-.047-.017.177.177 0 0 0-.117-.118c-2.841-.942-4.57-3.256-5.932-5.8a12.636 12.636 0 0 1-1.873-8.251.214.214 0 0 0-.184-.372 31.365 31.365 0 0 1-6.805.438c-2.557.009-5.111-.033-7.665.037a32.555 32.555 0 0 0-6.083.559c-1.3.292-2.58 1.042-2.718 2.487a.082.082 0 0 0 .054.089 12.15 12.15 0 0 1-2.75 6.47 12.711 12.711 0 0 1-5.517 4.242.08.08 0 0 0-.031.02c-.056-.081-.2-.093-.225.029a21.9 21.9 0 0 0-.18 5.115 30.017 30.017 0 0 0 1.171 5.322 21.044 21.044 0 0 1 .815 5.318 14.955 14.955 0 0 1-.977 4.879 62.022 62.022 0 0 1-4.448 8.793 45.843 45.843 0 0 0-4.109 9.456.221.221 0 0 0 .184.28c.431 1.786 2.517 3.069 3.979 3.893a24.509 24.509 0 0 0 2.941 1.376 29.111 29.111 0 0 0 3.66 1.055.221.221 0 0 0 .251-.3 27.525 27.525 0 0 0 1.99-3.889 38.432 38.432 0 0 0 2.145-4.884c.623-1.742 1.078-3.561 1.591-5.339.058-.2.119-.4.176-.6a19.223 19.223 0 0 0 2.2 1.2c.922.463 1.866.893 2.82 1.295q1.314.56 2.668 1c1 .329 2.045.5 3.059.775a.156.156 0 0 0 .191-.077 2.368 2.368 0 0 0 1.053-.231 19.693 19.693 0 0 0 2-1.019c2.228-1.149 4.634-2 6.784-3.3.424 1.636.846 3.272 1.293 4.9.9 3.3 1.854 6.617 3.041 9.828a.206.206 0 0 0 .116.122c.7 1.693 3.1-.02 4.207-.5a19.96 19.96 0 0 0 7.154-4.969c.135.081.344.029.323-.167-.504-4.5-2.693-8.564-4.422-12.685zm-.6-.341c1.653 4.06 3.855 8.039 4.506 12.415-.958-.211-1.9-.463-2.867-.65a23.99 23.99 0 0 1-3.244-.767c-.59-.195-1.168-.426-1.759-.621a4.029 4.029 0 0 1-1.509-.682 24.156 24.156 0 0 0-.742-2.6c-.345-1.093-.718-2.18-1.06-3.281-.311-1.007-.52-2.03-.756-3.057a16.552 16.552 0 0 1-.49-3.077c.459-.195.911-.4 1.352-.6a24.059 24.059 0 0 0 4.47-2.351c.712 1.76 1.386 3.522 2.099 5.271zm-3.609-14.2a7.932 7.932 0 0 0-.892 3.041c.1 1.669 1.324 3.3 1.961 4.819.1.231.19.467.287.7a31.108 31.108 0 0 1-4.31 2.261c-1.553.726-3.17 1.238-4.751 1.879-.147-.759-.336-1.51-.487-2.269a10.911 10.911 0 0 0-.6-2.363l.427-.183a.22.22 0 0 0 .129-.134.181.181 0 0 0 .156-.174 13.532 13.532 0 0 0-.243-2.379c-.086-.816-.105-1.661-.26-2.473.006 0 .012-.012.018-.016a1.962 1.962 0 0 0 .933-.588 4.124 4.124 0 0 0 .547-1.636 36.483 36.483 0 0 0 1.019-4.51c2.234.593 4.448 1.27 6.72 1.7a21.053 21.053 0 0 1-.654 2.32zm-26.616 4.1c.13.057.259.1.371.146.854.349 1.714.682 2.564 1.051.981.418 1.961.84 2.957 1.226.783.3 1.556.654 2.363.885h.009a3.56 3.56 0 0 0 2.113-.552c.965-.41 1.911-.857 2.847-1.327a42.154 42.154 0 0 0 4.606-2.659 12.573 12.573 0 0 0 .074 2.334 13.537 13.537 0 0 0 .239 2.265c-1.626.657-3.179 1.429-4.747 2.212-.754.374-1.533.682-2.3 1.027a8.749 8.749 0 0 1-2.323.747.175.175 0 0 0-.114-.069 23.949 23.949 0 0 1-2.568-.711c-.849-.232-1.706-.438-2.554-.674-.681-.195-1.342-.43-2.031-.589a6.372 6.372 0 0 1-1.755-.573 15.564 15.564 0 0 0 .249-4.743zm-1.15-2.545c-.211-.6-.427-1.194-.647-1.786a18.33 18.33 0 0 0-1.348-3.219q1.288-.39 2.6-.694c1.583-.365 3.2-.564 4.8-.816 1.3-.211 2.6-.406 3.9-.564a.056.056 0 0 0 .06.049 33.017 33.017 0 0 1 9.7.808c.8.17 1.584.365 2.37.568-.451 1.3-.681 2.712-1.053 4.027-.136.483-.2.987-.311 1.478a1.611 1.611 0 0 1-.576.906c-1.491.8-2.966 1.627-4.471 2.395-.862.443-1.732.869-2.614 1.271-.493.228-.992.443-1.492.654a2.667 2.667 0 0 1-1.426.341c-.638-.191-1.254-.447-1.875-.7-1.031-.418-2.061-.82-3.082-1.254-1.3-.56-2.633-1.047-3.917-1.636a.487.487 0 0 0 0-.057 13.171 13.171 0 0 0-.618-1.776zm2.031 8.127c.7.195 1.389.365 2.08.581.918.284 1.854.512 2.783.751a28.575 28.575 0 0 0 2.8.775.211.211 0 0 0 .167-.045 3.093 3.093 0 0 0 1.807-.321c.749-.3 1.5-.613 2.235-.946 1.643-.739 3.219-1.588 4.864-2.314.215 1.559.608 3.1.9 4.645-.071.036-.143.077-.215.105a.129.129 0 0 0-.074.094c-1.6.621-3.225 1.214-4.842 1.8-.807.292-1.606.629-2.423.889a4.131 4.131 0 0 0-1.2.479.154.154 0 0 0-.107-.021 8 8 0 0 1-2.248-.5c-1.036-.227-2.081-.443-3.121-.658-1.007-.219-2.022-.418-3.012-.7a16.066 16.066 0 0 0-2.065-.735c.287-1.38.72-2.752.9-4.145a6.8 6.8 0 0 0 .769.262zm-11.44-16.189c-.213-1.746.024-3.479-.034-5.225a.146.146 0 0 0 .115 0 12.888 12.888 0 0 0 5.712-4.421 10.87 10.87 0 0 0 2.56-6.736.124.124 0 0 0 .019-.037c.5-1.667 1.978-2.1 3.548-2.338a48.251 48.251 0 0 1 6.593-.367c2.3-.021 4.6.02 6.9.008a29.37 29.37 0 0 0 6.1-.432 10.823 10.823 0 0 0-.056 4.206 15.309 15.309 0 0 0 1.713 4.2c1.374 2.622 3.2 4.972 6.1 5.922-.159.974-.255 1.965-.374 2.939-.191 1.555-.4 3.105-.686 4.648-.085.463-.177.934-.276 1.4a9.948 9.948 0 0 0-1.971-.5c-.8-.162-1.576-.374-2.358-.6-1.658-.471-3.323-.914-5.008-1.275a28.971 28.971 0 0 0-8.338-.642.062.062 0 0 0-.062-.069 32.67 32.67 0 0 0-4.992.406c-1.773.239-3.556.467-5.308.844a40.653 40.653 0 0 0-5.145 1.526 14.912 14.912 0 0 0-3.562 1.519 38.355 38.355 0 0 1-1.19-4.981zm1.937 10.786a17.2 17.2 0 0 0-.576-5.1l-.058-.236a6.729 6.729 0 0 1 1.925-.93c.7-.26 1.4-.536 2.1-.783q.954-.341 1.923-.633c.363 1.1.826 2.159 1.184 3.26.2.6.38 1.206.576 1.806a16.209 16.209 0 0 1 .607 1.77.164.164 0 0 0 .173.146 1.423 1.423 0 0 0 .574.435c-.29 1.563-.167 3.2-.444 4.774a.206.206 0 0 0 .162.24 1.815 1.815 0 0 0 .42.313 23.678 23.678 0 0 0-1.136 4.084c-.709-.341-1.5-.56-2.225-.877q-1.213-.53-2.377-1.157a12.3 12.3 0 0 1-3.716-2.947 16.107 16.107 0 0 0 .889-4.169zm-5.251 12.918a63.258 63.258 0 0 0 4.291-8.541.02.02 0 0 0 0-.008 10.159 10.159 0 0 0 3.423 2.98c.588.353 1.2.678 1.824.974-.733 1.933-1.651 3.812-2.529 5.68-.333.706-.627 1.408-.891 2.139a19.9 19.9 0 0 1-.962 2.034.012.012 0 0 0-.01.008 19.215 19.215 0 0 0-2.019 1.015c-.863.434-1.731.856-2.61 1.254a40.892 40.892 0 0 1-4.7 1.9 47.922 47.922 0 0 1 4.182-9.44zm10.154 6.784a38.168 38.168 0 0 1-2.2 5.005 27.74 27.74 0 0 1-2.013 3.926 25.928 25.928 0 0 1-3-.833 27.026 27.026 0 0 1-2.961-1.328 9.868 9.868 0 0 1-4.248-3.845c.014-.044.029-.1.043-.154a16.584 16.584 0 0 0 4.423-1.607 29.377 29.377 0 0 0 5.039-2.456.129.129 0 0 0 .052-.13 4.082 4.082 0 0 0 .91-1.5c.365-.873.69-1.745 1.109-2.6.91-1.859 1.828-3.755 2.575-5.692l.183.085a13.084 13.084 0 0 0 2.548.987.212.212 0 0 0 .2.142c.049.009.1.012.144.021a101.594 101.594 0 0 1-2.806 9.974zm20.086-5.018c-1.125.54-2.259 1.064-3.391 1.6-.662.313-1.3.645-1.948.995a3.53 3.53 0 0 1-2.085.662.106.106 0 0 0-.053.008c-.848-.219-1.712-.374-2.552-.63-.966-.3-1.913-.661-2.844-1.043s-1.867-.828-2.784-1.271c-.761-.374-1.523-.8-2.32-1.1a21.511 21.511 0 0 0 .867-4.137 7.272 7.272 0 0 1 .845.369 12.236 12.236 0 0 0 1.471.467c1.009.268 2.042.463 3.065.674 1.041.219 2.083.438 3.12.666.614.138 1.316.54 1.953.365a.187.187 0 0 0 .132-.114c.524-.195 1.075-.3 1.605-.487.845-.3 1.68-.621 2.522-.926.87-.313 1.737-.634 2.6-.975.536-.215 1.131-.361 1.661-.6a25.384 25.384 0 0 0 .8 4.2 23.54 23.54 0 0 0-2.664 1.272zm15.7 10.4a27.163 27.163 0 0 1-3.094 1.908c-.926.491-1.9.861-2.825 1.356a6.379 6.379 0 0 1-1.187.532.928.928 0 0 1-1.091-.4.186.186 0 0 0 0-.126c-1.161-3.134-2.1-6.365-3-9.581-.464-1.664-.861-3.337-1.36-4.985a33.009 33.009 0 0 1-1.125-4.652c.085-.045.171-.089.252-.142a.169.169 0 0 0 .073-.089c.038-.021.083-.041.147-.077a.184.184 0 0 0 .1-.17 13.556 13.556 0 0 0 3.2-.979 7.406 7.406 0 0 0 .216 2.249c.222 1.064.424 2.135.693 3.187.311 1.2.726 2.367 1.085 3.552.264.865.477 1.754.727 2.623a.915.915 0 0 1 .078.142.834.834 0 0 0 .156.228c.311.8 1.966 1.1 2.587 1.327a24.5 24.5 0 0 0 3.347 1c1.2.252 2.4.613 3.613.8a.257.257 0 0 0 .137-.024c0 .024.008.044.011.064-.938.723-1.773 1.555-2.744 2.249z" class="prefix__cls-7" data-name="Path 9791" transform="translate(-2951.336 -3403.605)"/>
            <g id="prefix__Group_3768" data-name="Group 3768" transform="translate(17.312 20.913)">
                <path id="prefix__Path_9792" d="M3058.479 3577.011c.155.037.308.077.46.118a19.483 19.483 0 0 0-.687-4.92q-.12-.043-.238-.1.268 2.424.31 4.864z" class="prefix__cls-4" data-name="Path 9792" transform="translate(-3055.704 -3562.031)"/>
                <path id="prefix__Path_9793" d="M3068.594 3580.933c.277.077.556.146.833.219a23.239 23.239 0 0 0 .066-4.291c-.5-.207-1-.422-1.5-.634a.618.618 0 0 0-.077-.032 23.924 23.924 0 0 1 .5 4.681c.058.024.117.036.178.057z" class="prefix__cls-4" data-name="Path 9793" transform="translate(-3063.787 -3565.364)"/>
                <path id="prefix__Path_9794" d="M3099.193 3586.524a2.387 2.387 0 0 1-1.312.252c.053 1.307.048 2.615.032 3.926.085.016.168.032.254.045a.174.174 0 0 1 .114.069 6.5 6.5 0 0 0 1.067-.256c-.084-1.344-.13-2.688-.155-4.036z" class="prefix__cls-4" data-name="Path 9794" transform="translate(-3088.24 -3573.794)"/>
                <path id="prefix__Path_9795" d="M3117.88 3579.306c-.214.106-.43.215-.647.317.124 1.328.247 2.671.385 4.023.288-.125.576-.255.862-.394q-.339-1.967-.6-3.946z" class="prefix__cls-4" data-name="Path 9795" transform="translate(-3104.032 -3567.903)"/>
                <path id="prefix__Path_9796" d="M3047.212 3532.978c.176.073.353.15.531.228a43.945 43.945 0 0 0-1.552-8.2h-.005c-.244.057-.484.118-.726.179a71.494 71.494 0 0 1 1.752 7.793z" class="prefix__cls-4" data-name="Path 9796" transform="translate(-3045.459 -3523.593)"/>
                <path id="prefix__Path_9797" d="M3059.615 3521.036c-.968.146-1.941.284-2.9.459a49.148 49.148 0 0 1 1.656 9.049c.309.13.616.256.925.39.585.248 1.174.483 1.763.723-.252-3.565-.95-7.077-1.444-10.621z" class="prefix__cls-4" data-name="Path 9797" transform="translate(-3054.642 -3520.35)"/>
                <path id="prefix__Path_9798" d="M3080.771 3519.093c-.337.053-.674.1-1.012.154.51 3.8 1.255 7.551 1.482 11.379l.639.256a100.48 100.48 0 0 0-1.109-11.789z" class="prefix__cls-4" data-name="Path 9798" transform="translate(-3073.45 -3518.765)"/>
                <path id="prefix__Path_9799" d="M3105.613 3517.393a26.893 26.893 0 0 0-3.232-.061c.009 1-.1 2.03-.093 2.988.024 2.492.083 4.981.24 7.465.038.609.066 1.218.09 1.823.082-.032.166-.069.251-.105.5-.211 1-.426 1.491-.654l.216-.1a36 36 0 0 1 1.037-11.356z" class="prefix__cls-4" data-name="Path 9799" transform="translate(-3091.835 -3517.308)"/>
                <path id="prefix__Path_9800" d="M3123.446 3518.584c-.158-.02-.312-.044-.47-.065a33.372 33.372 0 0 0-1.083 10.575c.056-.025.11-.053.165-.077-.088-3.532-.018-7.194 1.388-10.433z" class="prefix__cls-4" data-name="Path 9800" transform="translate(-3107.811 -3518.296)"/>
                <path id="prefix__Path_9801" d="M3131.983 3520.063c-.124-.024-.251-.045-.375-.065-1.392 2.923-1.515 6.284-1.444 9.54.332-.17.661-.353.989-.528a27.112 27.112 0 0 1 .83-8.947z" class="prefix__cls-4" data-name="Path 9801" transform="translate(-3114.572 -3519.504)"/>
                <path id="prefix__Path_9802" d="M3057.558 3600.584c-.183-.053-.369-.1-.551-.154a29.973 29.973 0 0 1-.229 4.413 4.1 4.1 0 0 0 .466.167c.05.016.1.024.151.037a22.022 22.022 0 0 0 .163-4.463z" class="prefix__cls-4" data-name="Path 9802" transform="translate(-3054.696 -3585.142)"/>
                <path id="prefix__Path_9803" d="M3088.118 3613.125c.091-1.373.19-2.745.261-4.113-.158-.052-.317-.1-.475-.15.011 1.392 0 2.8-.1 4.2.105.018.211.038.314.063z" class="prefix__cls-4" data-name="Path 9803" transform="translate(-3080.017 -3592.023)"/>
                <path id="prefix__Path_9804" d="M3106.741 3606.743c-.434.183-.869.369-1.307.54a6.26 6.26 0 0 1-.93.309c.008 1.474.02 2.943.069 4.421a.153.153 0 0 1 .106.021 4.137 4.137 0 0 1 1.2-.479c.5-.158.994-.349 1.487-.536-.266-1.419-.466-2.843-.625-4.276z" class="prefix__cls-4" data-name="Path 9804" transform="translate(-3093.644 -3590.294)"/>
                <path id="prefix__Path_9805" d="M3132.437 3596.567c-.437.215-.879.426-1.32.645a27.8 27.8 0 0 0 .535 4.551c.617-.223 1.233-.455 1.848-.682-.424-1.493-.79-2.992-1.063-4.514z" class="prefix__cls-4" data-name="Path 9805" transform="translate(-3115.362 -3581.989)"/>
                <path id="prefix__Path_9806" d="M3056.91 3632.825a44.532 44.532 0 0 0 .269-4.526c.005-.077.005-.15.006-.228-.105-.028-.212-.053-.316-.077-.131-.037-.26-.073-.389-.106-.116 1.5-.3 2.992-.531 4.478a.451.451 0 0 1 .056.029c.295.146.603.287.905.43z" class="prefix__cls-4" data-name="Path 9806" transform="translate(-3054.019 -3607.55)"/>
                <path id="prefix__Path_9807" d="M3100.14 3636.572c-.021-.126-.037-.256-.054-.386-.179.057-.355.105-.526.171a.188.188 0 0 1-.132.113 2.269 2.269 0 0 1-1.3-.162c.061 1.912.129 3.82.184 5.732.1.02.2.044.293.069a.108.108 0 0 1 .053-.008 3.533 3.533 0 0 0 2.085-.662l.485-.256a29.945 29.945 0 0 1-1.088-4.611z" class="prefix__cls-4" data-name="Path 9807" transform="translate(-3088.442 -3614.322)"/>
                <path id="prefix__Path_9808" d="M3115.874 3633.959a33.209 33.209 0 0 0 1.06 4.709c.05-.024.1-.053.157-.077a37.817 37.817 0 0 1-1.16-4.722.365.365 0 0 1-.067.028c.005.021.007.038.01.062z" class="prefix__cls-4" data-name="Path 9808" transform="translate(-3102.915 -3612.431)"/>
                <path id="prefix__Path_9809" d="M3125.048 3631.771c-.255-.946-.491-1.892-.712-2.846-.083.037-.165.065-.249.093-.321.118-.641.24-.961.353a36.1 36.1 0 0 0 1.1 4.612c.412-.187.821-.386 1.231-.581-.135-.551-.265-1.102-.409-1.631z" class="prefix__cls-4" data-name="Path 9809" transform="translate(-3108.842 -3608.396)"/>
            </g>
            <path id="prefix__Path_9810" d="M3004.766 3455.01a35.561 35.561 0 0 1-5.93-.54 4.673 4.673 0 0 1-2.284-.983 5.587 5.587 0 0 1-1.263-2.638c-.364-1.275-.621-2.566-.99-3.837a6.069 6.069 0 0 1-.4-2.687 3.9 3.9 0 0 1 1.683-2.342c1.035-.848 2.077-1.693 3.066-2.6-.125-.312-.251-.621-.382-.926-.981-2.285-2.711-4.259-1.813-6.873.2-.593.456-1.165.654-1.758a30.209 30.209 0 0 0 .967-4.246c.239-1.344.409-2.7.565-4.055.126-1.108.266-2.233.324-3.357a.211.211 0 0 1-.047-.017.177.177 0 0 0-.117-.118c-2.841-.942-4.57-3.256-5.932-5.8a12.636 12.636 0 0 1-1.873-8.251.214.214 0 0 0-.184-.372 31.365 31.365 0 0 1-6.805.438c-2.557.009-5.111-.033-7.665.037a32.555 32.555 0 0 0-6.083.559c-1.3.292-2.58 1.042-2.718 2.487a.082.082 0 0 0 .054.089 12.15 12.15 0 0 1-2.75 6.47 12.711 12.711 0 0 1-5.517 4.242.08.08 0 0 0-.031.02c-.056-.081-.2-.093-.225.029a21.9 21.9 0 0 0-.18 5.115 30.017 30.017 0 0 0 1.171 5.322 21.044 21.044 0 0 1 .815 5.318 14.955 14.955 0 0 1-.977 4.879c-.08.224-.163.447-.249.666 1.17.321 2.126 2.111 2.67 2.943a3.439 3.439 0 0 1 .706 2.87c-.289 1.169-.772 2.253-.991 3.443a8.984 8.984 0 0 1-.865 3.187 3.238 3.238 0 0 1-2.163 1.2c-2.528.7-4.8 2.087-7.312 2.785-.126.378-.244.767-.351 1.157a.221.221 0 0 0 .184.28c.431 1.786 2.517 3.069 3.979 3.893a24.509 24.509 0 0 0 2.941 1.376 29.111 29.111 0 0 0 3.66 1.055.221.221 0 0 0 .251-.3 27.525 27.525 0 0 0 1.99-3.889 38.432 38.432 0 0 0 2.145-4.884c.623-1.742 1.078-3.561 1.591-5.339.058-.2.119-.4.176-.6a19.223 19.223 0 0 0 2.2 1.2c.922.463 1.866.893 2.82 1.295q1.314.56 2.668 1c1 .329 2.045.5 3.059.775a.156.156 0 0 0 .191-.077 2.368 2.368 0 0 0 1.053-.231 19.693 19.693 0 0 0 2-1.019c2.228-1.149 4.634-2 6.784-3.3.424 1.636.846 3.272 1.293 4.9.9 3.3 1.854 6.617 3.041 9.828a.206.206 0 0 0 .116.122c.7 1.693 3.1-.02 4.207-.5a19.96 19.96 0 0 0 7.154-4.969c.135.081.344.029.323-.167a19.744 19.744 0 0 0-.404-2.305zm-36.642-8.976a11.865 11.865 0 0 1-.847 2.919c-.4 1.084-.655 2.22-1 3.316a20.956 20.956 0 0 1-3.2 6.8 7.077 7.077 0 0 1-2.689 2.419c-.786.3-1.824-.69-2.369-1.088-1-.718-3.927-2.594-2.293-4.052s3.981-1.867 5.765-3.073c2-1.356 2.314-3.93 3.259-6.024a5.215 5.215 0 0 1 1.391-2.659c1.017-.856 2.084.415 1.983 1.442zm-1.866-4.9a17.387 17.387 0 0 1-3.853-2.273 2.905 2.905 0 0 1-1.187-2.448c.051-1.766.6-3.488.4-5.258a2.927 2.927 0 0 1 .087-1.6.208.208 0 0 1 .142-.244c1.167-.406 3-1.323 4.185-.479a6.717 6.717 0 0 1 2.048 3.569c.784 2.449 1.487 10.178-1.822 8.733zm21.913 6.841c-.335.223-.835.507-.967.589a21.694 21.694 0 0 1-3.216 1.311c-1.009.394-1.98.848-2.968 1.283a8.241 8.241 0 0 1-2.025.808 3.32 3.32 0 0 1-1.7-.329c-1.011-.353-2.016-.739-3.008-1.141-1.762-.723-3.5-1.486-5.251-2.241a.162.162 0 0 1-.108-.171.188.188 0 0 1-.055-.2c.23-.833.61-1.774 1.594-1.835h.034a.12.12 0 0 1 .042 0h.018a.023.023 0 0 1 .015 0c.007 0 .015 0 .021.008 1.453.374 2.841.95 4.265 1.421 1.344.451 2.915 1.015 4.34.657a27.283 27.283 0 0 0 3.392-1.275c2.261-.893 5.05-2.517 5.891.816.015.059-.123.168-.314.299zm-18.37-5.119c.628-1.336 1.135-2.2 2.814-1.887a35.486 35.486 0 0 1 6.358 1.977c2.321.11 4.215-1.782 6.276-2.578a.163.163 0 0 1 .124 0c1.293-.276 1.889 1.433 2.51 2.363a.193.193 0 0 1-.077.288.2.2 0 0 1-.116.094c-1.241.435-2.446.962-3.7 1.388a32.833 32.833 0 0 1-3.777 1.25 8.977 8.977 0 0 1-4.272-.487c-1.395-.381-2.8-.747-4.182-1.153-.42-.122-1.8-.3-2.021-.775a.216.216 0 0 1 .073-.272.219.219 0 0 1-.011-.209zm.5-4.214c.213-.872.546-2.634 1.756-2.549a.212.212 0 0 1 .168.1c1.245.345 2.522.576 3.738 1.015 1.2.43 2.457 1.01 3.745.617a24.85 24.85 0 0 0 3.664-1.466c.9-.443 1.751-1.461 2.823-1.441 1.26.012 1.177 1.49 1.389 2.367a.21.21 0 0 1-.1.239c-1.57.91-3.291 1.519-4.862 2.408a8.122 8.122 0 0 1-3.585 1.5.152.152 0 0 1-.085 0h-.108a.189.189 0 0 1-.169-.1c-2.68-1.015-5.518-1.506-8.227-2.432a.235.235 0 0 1-.15-.264zm17.132-5.862a14.841 14.841 0 0 1-3.33 1.855c-1.628.9-3.771 2.875-5.787 2.53a.166.166 0 0 1-.109 0 32.848 32.848 0 0 1-7.473-3.613 4.371 4.371 0 0 1-1.673-2.448c-.26-.833-.715-1.977-.09-2.74.7-.853 2.218-1.194 3.234-1.434a26.284 26.284 0 0 1 5.182-.719 30.022 30.022 0 0 1 6.066.171 14.813 14.813 0 0 1 2.956.771 3.481 3.481 0 0 1 2.148 1.6 2.672 2.672 0 0 1 .1.3 4.516 4.516 0 0 1-1.227 3.726zm.057-8.728a41.057 41.057 0 0 0-11.6-.654c-2.6.3-5.564 1.514-8.18 1.194-1.425-.179-2.325-1.6-2.74-2.777-1.143-3.264.324-6.016 2.6-8.326a4.457 4.457 0 0 1 1.4-1.292c1.394-.751 3.075-.251 4.485.228.846.288 1.706.569 2.539.894.939.362 2.116 1.332 3.191.954 1.647-.576 3.145-1.543 4.812-2.11a5.939 5.939 0 0 1 6.19 1.063 8.812 8.812 0 0 1 3.269 5.557 8.082 8.082 0 0 1-.309 3.723 3.814 3.814 0 0 1-1.085 1.782c-1.141.712-3.348-.034-4.575-.237zm3.509 4.478a2.366 2.366 0 0 1 1.938-.727c1.016.057 2.567.694 2.686 1.867.1 1.052-.179 2.123-.085 3.187a11.635 11.635 0 0 0 .685 3.078 2.436 2.436 0 0 1-1.087 3.13c-4.656 2.07-5.831-1.539-6.024-4.786-.112-1.755.182-4.679 1.888-5.75zm8.451 31.255c-1.3.779-3.546 2.2-4.847.649a9.416 9.416 0 0 1-1.309-2.586c-.552-1.356-1.115-2.712-1.609-4.1a40.036 40.036 0 0 1-1.747-6.6c-.107-.621-.483-2.736.737-2.647.977.073 1.345 1.307 1.586 2.269.466 1.34.8 2.712 1.175 4.08.349 1.291.629 2.886 1.579 3.9 1.521 1.624 3.659 1.64 5.6 2.412 1.811.714-.379 2.151-1.168 2.622z" class="prefix__cls-4" data-name="Path 9810" transform="translate(-2951.336 -3403.605)"/>
            <path id="prefix__Path_9811" d="M2993.285 3428.419c.131.5.251 1 .358 1.506a1.464 1.464 0 0 1 .164-.24 5.21 5.21 0 0 1 2.66-1.348c1.2-.337 2.377-.865 3.516-.081a3.714 3.714 0 0 1 .8.788c-.2-.9-.029-1.68 1.011-1.993a39.947 39.947 0 0 1 9.74-1.782 28.859 28.859 0 0 1 9.765 1.133c.645.2 1.424.455 1.514 1.238a6.882 6.882 0 0 1-.174 2.147 5.784 5.784 0 0 1 1.146-1.92 2.759 2.759 0 0 1 2.781-.45c1.139.244 2.7.532 3.551 1.413a3.015 3.015 0 0 1 .374.487 34.915 34.915 0 0 0 .8-3.735c.238-1.344.408-2.7.565-4.055.126-1.108.266-2.233.324-3.357a.206.206 0 0 1-.047-.017.177.177 0 0 0-.117-.118c-2.841-.942-4.571-3.256-5.932-5.8a12.63 12.63 0 0 1-1.872-8.251.214.214 0 0 0-.184-.372 31.369 31.369 0 0 1-6.805.438c-2.556.009-5.111-.033-7.664.037a32.564 32.564 0 0 0-6.084.559c-1.3.292-2.58 1.042-2.718 2.487a.082.082 0 0 0 .054.089 12.148 12.148 0 0 1-2.75 6.47 12.711 12.711 0 0 1-5.516 4.242.077.077 0 0 0-.031.02c-.057-.081-.2-.093-.225.029a21.886 21.886 0 0 0-.179 5.115 29.994 29.994 0 0 0 1.175 5.321zm2.265-9.8c.707-1.1 1.635-2.046 2.31-3.171.505-.84.99-1.692 1.53-2.517.535-.807 1.731-2.922 2.991-2.615a.209.209 0 0 1 .16.013c1.622.827 3.338 1.444 4.992 2.2 1.343.616 2.669 1.262 4.041 1.805a1.673 1.673 0 0 0 .8-.056c2.562-1.023 4.716-2.848 7.177-4.073a.2.2 0 0 1 .1-.131c1.607-.99 3.042-1.416 4.331.24a25.547 25.547 0 0 1 1.375 2.417c.539.876 1.142 1.7 1.744 2.532 1.243 1.7 2.655 3.536 3.059 5.659.259 1.368.323 3.357-.9 4.34-1.517 1.218-3.8.861-5.562.5a54.584 54.584 0 0 0-8.086-1.449 47.55 47.55 0 0 0-16.74 2.184.2.2 0 0 1-.2-.053c-1.454.284-3.1.223-3.779-1.063-1.005-1.881-.455-5.033.657-6.762z" class="prefix__cls-4" data-name="Path 9811" transform="translate(-2984.557 -3403.605)"/>
            <path id="prefix__Path_9812" d="M3062.158 3593.328a8.569 8.569 0 0 1-1.995.881 3.378 3.378 0 0 1-1.8-.276c-.89-.312-1.823-.5-2.732-.759-1.646-.467-3.275-.991-4.9-1.519a22.915 22.915 0 0 1-.521 2.339c1.267-1.088 3.045-.869 4.66-.427 1.71.467 3.472.914 5.154 1.539a26.089 26.089 0 0 0 3.73-1.742 12.7 12.7 0 0 1 3.01-1.453 2.76 2.76 0 0 1 2.191.426c-.133-.609-.408-1.177-.586-1.774-1.068.5-2.172.942-3.234 1.425-.993.451-1.995.881-2.977 1.34z" class="prefix__cls-4" data-name="Path 9812" transform="translate(-3032.021 -3556.177)"/>
            <path id="prefix__Path_9813" d="M3015.376 3599.469c1.986.561 3.951 1.125 5.888 1.835a44.173 44.173 0 0 0 4.385 1.458c3.546-1.331 7.08-2.769 10.563-4.267 2.762-1.181 5.792-2.61 7.9-4.864a24.907 24.907 0 0 1-7.349 3.833c-3.744 1.348-7.365 3.02-11.165 4.21a.189.189 0 0 1-.227-.082c-2.043-.633-4.049-1.189-6.13-1.689a43.473 43.473 0 0 1-6.567-2.014 19.756 19.756 0 0 1-4.91-2.521 17.047 17.047 0 0 0 2.263 1.709 18.069 18.069 0 0 0 5.349 2.392z" class="prefix__cls-4" data-name="Path 9813" transform="translate(-2997.386 -3558.681)"/>
            <path id="prefix__Path_9814" d="M3068.308 3560.763a14.828 14.828 0 0 1-3.33 1.855c-1.628.9-3.771 2.875-5.787 2.529a.168.168 0 0 1-.108 0 33.643 33.643 0 0 1-5.378-2.354c-1.086-.39-2.182-.743-3.262-1.141a6.306 6.306 0 0 1 .365 2.505c.667-.735 1.554-.788 2.756-.4 1.988.629 3.924 1.365 5.838 2.176a3.186 3.186 0 0 0 .591 0c1.419-.609 2.867-1.2 4.21-1.944 1-.556 2.107-1.6 3.265-1.774a1.559 1.559 0 0 1 1.451.491c-.146-.739-.157-1.531-.236-2.261-.046.02-.092.049-.136.073-.08.082-.157.168-.239.245z" class="prefix__cls-4" data-name="Path 9814" transform="translate(-3032.214 -3531.59)"/>
        </g>
        <g id="prefix__Group_3772" data-name="Group 3772" transform="translate(47.97 4.774)">
            <path id="prefix__Path_9815" d="M3168.291 3410.18a.167.167 0 0 0 0 .085 12.9 12.9 0 0 0 3.666 6.318 13.124 13.124 0 0 0 5.436 3.467 18.613 18.613 0 0 0 6.85.76 11.013 11.013 0 0 0 6.007-1.84.118.118 0 0 0-.033-.2c-1.523-4.1-4.089-7.894-8.308-9.534a16.483 16.483 0 0 0-6.9-1.07 13.9 13.9 0 0 0-6.633 1.716.22.22 0 0 0-.085.298z" class="prefix__cls-2" data-name="Path 9815" transform="translate(-3168.121 -3405.184)"/>
            <g id="prefix__Group_3770" data-name="Group 3770" transform="translate(9.074 3.016)">
                <path id="prefix__Path_9816" d="M3216.938 3408.467c.4.032.792.085 1.187.151-.3 3.207.9 6.347 2.2 9.23.48 1.06 1.02 2.176 1.627 3.256a17.542 17.542 0 0 1-2.449-.207 21.588 21.588 0 0 1-2.565-12.43z" class="prefix__cls-8" data-name="Path 9816" transform="translate(-3216.819 -3408.467)"/>
                <path id="prefix__Path_9817" d="M3249.2 3423.4c-.884-2.055-1.885-4.7-1.8-7.04.084.039.17.081.25.125a20.334 20.334 0 0 0 1 2.944 17.589 17.589 0 0 0 1.672 3.613 28.391 28.391 0 0 0 2.828 3.59 11.509 11.509 0 0 1-1.968.581 30.213 30.213 0 0 1-1.982-3.813z" class="prefix__cls-3" data-name="Path 9817" transform="translate(-3241.773 -3414.911)"/>
            </g>
            <path id="prefix__Path_9818" d="M3225.431 3421.46a26.43 26.43 0 0 1-1.774-3.256 22.394 22.394 0 0 1-1.949-9.291c.322.041.642.091.961.15-.132 3.346 1.433 7.057 2.882 9.9.438.865.922 1.7 1.433 2.521-.517.009-1.035.005-1.553-.024z" class="prefix__cls-4" data-name="Path 9818" transform="translate(-3211.735 -3405.815)"/>
            <path id="prefix__Path_9819" d="M3188.282 3409.041c.354-.059.713-.109 1.073-.149-1.248 2.678-.579 6.268.122 8.943.1.389.21.767.323 1.153a14.527 14.527 0 0 1-1.987-1.685 19.409 19.409 0 0 1 .469-8.262z" class="prefix__cls-4" data-name="Path 9819" transform="translate(-3183.873 -3405.798)"/>
            <path id="prefix__Path_9820" d="M3259.942 3424.4a.809.809 0 0 0 .043.192 27.921 27.921 0 0 0 3.312 5.945c.233.325.472.666.717 1.019.137.219.274.438.416.653-.164.114-.331.219-.5.317-.066-.11-.131-.215-.2-.313-.642-.974-1.286-1.952-1.861-2.967a30.714 30.714 0 0 1-2.3-5.167c.131.109.251.221.373.321z" class="prefix__cls-4" data-name="Path 9820" transform="translate(-3242.634 -3418.195)"/>
            <path id="prefix__Path_9821" d="M3168.374 3409.884a13.9 13.9 0 0 1 6.633-1.716 16.483 16.483 0 0 1 6.9 1.07 12.5 12.5 0 0 1 5.2 3.88c-1.732 1.319-4.129 1.631-6.223 1.929a16.758 16.758 0 0 1-4.351.177 21.1 21.1 0 0 1-3.907-1.109c-.082-.023-.2.033-.188.129.085 1.157 1.171 2.046 2.026 2.7a19.119 19.119 0 0 0 3.865 2.359 19.6 19.6 0 0 0 6.006 1.5c-.03 0-.059 0-.087.009a18.613 18.613 0 0 1-6.85-.76 13.124 13.124 0 0 1-5.436-3.467 12.9 12.9 0 0 1-3.666-6.318.167.167 0 0 1 0-.085.22.22 0 0 1 .078-.298z" class="prefix__cls-4" data-name="Path 9821" transform="translate(-3168.121 -3405.184)"/>
            <path id="prefix__Path_9822" d="M3168.374 3409.884a13.9 13.9 0 0 1 6.633-1.716 16.483 16.483 0 0 1 6.9 1.07 12.343 12.343 0 0 1 4.889 3.524 16.742 16.742 0 0 1-9.14 1.844 17.746 17.746 0 0 1-5.054-1.161c-.545-.223-1.042-.617-1.6-.785a.338.338 0 0 0-.425.2c-.154.739.81 1.776 1.234 2.3a16.744 16.744 0 0 0 3.4 2.9 18.463 18.463 0 0 0 3.943 2.221c.353.142.717.28 1.086.41a16.852 16.852 0 0 1-2.846-.629 13.124 13.124 0 0 1-5.436-3.467 12.9 12.9 0 0 1-3.666-6.318.167.167 0 0 1 0-.085.22.22 0 0 1 .082-.308z" class="prefix__cls-4" data-name="Path 9822" transform="translate(-3168.121 -3405.184)"/>
            <path id="prefix__Path_9823" d="M3168.291 3410.18a.167.167 0 0 0 0 .085 12.9 12.9 0 0 0 3.666 6.318 13.124 13.124 0 0 0 5.436 3.467 18.613 18.613 0 0 0 6.85.76 11.013 11.013 0 0 0 6.007-1.84.118.118 0 0 0-.033-.2c-1.523-4.1-4.089-7.894-8.308-9.534a16.483 16.483 0 0 0-6.9-1.07 13.9 13.9 0 0 0-6.633 1.716.22.22 0 0 0-.085.298zm.372.047a13.793 13.793 0 0 1 6.568-1.62 16.514 16.514 0 0 1 6.56.982 12.029 12.029 0 0 1 5.25 3.982 29.506 29.506 0 0 1 3 5.236 13.467 13.467 0 0 1-6.224 1.652 18.277 18.277 0 0 1-6.3-.787 12.832 12.832 0 0 1-5.265-3.358 13.05 13.05 0 0 1-3.589-6.086z" class="prefix__cls-7" data-name="Path 9823" transform="translate(-3168.121 -3405.184)"/>
            <path id="prefix__Path_9824" d="M3167.562 3396.406c.643 1.367 2.307 2.244 3.6 2.865a17.057 17.057 0 0 0 5.083 1.6 15.761 15.761 0 0 0 10.737-2.129.12.12 0 0 0 .079-.159 12.979 12.979 0 0 0-16.228-5.525c-1.288.578-3.3 1.579-3.341 3.222a.154.154 0 0 0 .07.126z" class="prefix__cls-2" data-name="Path 9824" transform="translate(-3167.486 -3392.069)"/>
            <path id="prefix__Path_9825" d="M3243.217 3398.9c.159.074.318.151.477.235a13.234 13.234 0 0 0 .986 5.157 16.738 16.738 0 0 0 .662 1.625c-.181.055-.365.1-.548.147a21.1 21.1 0 0 1-1.577-7.164z" class="prefix__cls-3" data-name="Path 9825" transform="translate(-3229.289 -3397.647)"/>
            <path id="prefix__Path_9826" d="M3220.019 3401.545a19.359 19.359 0 0 1-.4-3.9 29.871 29.871 0 0 1 .607-4.9 12.2 12.2 0 0 1 1.788.393 11.532 11.532 0 0 0 .337 4.917c.3 1.157.735 2.258 1.1 3.389a18.048 18.048 0 0 1-3.432.101z" class="prefix__cls-3" data-name="Path 9826" transform="translate(-3210.029 -3392.626)"/>
            <path id="prefix__Path_9827" d="M3170.827 3393.053a13.07 13.07 0 0 1 9.6-.147 12.2 12.2 0 0 0-2.549.828c-.892.372-1.8.739-2.677 1.137-.735.335-1.853.8-2.219 1.6-.757 1.646 2.156 3.13 3.282 3.635a11.919 11.919 0 0 0 3.613.886 18.486 18.486 0 0 1-3.639-.127 17.05 17.05 0 0 1-5.083-1.6c-1.288-.621-2.952-1.5-3.6-2.865a.155.155 0 0 1-.076-.131c.051-1.636 2.06-2.638 3.348-3.216z" class="prefix__cls-4" data-name="Path 9827" transform="translate(-3167.486 -3392.069)"/>
            <path id="prefix__Path_9828" d="M3170.827 3393.053a12.7 12.7 0 0 1 6.269-.926 11.907 11.907 0 0 1 2.253.429 25.589 25.589 0 0 0-5.333 2.324c-.829.528-1.6 1.153-2.43 1.668-.339.208-1 .48-1.1.918-.191.808.57 1.536 1.155 2.03-.161-.072-.326-.146-.487-.226-1.288-.621-2.952-1.5-3.6-2.865a.155.155 0 0 1-.076-.131c.052-1.641 2.061-2.643 3.349-3.221z" class="prefix__cls-4" data-name="Path 9828" transform="translate(-3167.486 -3392.069)"/>
            <path id="prefix__Path_9829" d="M3197.1 3400.1c.04-.672.109-1.344.2-2.006a23.39 23.39 0 0 1 .678-3.62c.238-.786.606-1.512.877-2.279.173-.011.346-.023.519-.03a20.907 20.907 0 0 0-.851 8.391c-.48-.13-.954-.286-1.423-.456z" class="prefix__cls-8" data-name="Path 9829" transform="translate(-3191.655 -3392.148)"/>
            <g id="prefix__Group_3771" data-name="Group 3771" transform="translate(8.019 .008)">
                <path id="prefix__Path_9830" d="M3248.727 3401.8a8.454 8.454 0 0 0 1.48 5.114c.155.231.312.468.473.706-.3.122-.6.236-.913.339a12.848 12.848 0 0 1-1.511-6.441c.159.092.315.182.471.282z" class="prefix__cls-4" data-name="Path 9830" transform="translate(-3241.412 -3399.789)"/>
                <path id="prefix__Path_9831" d="M3211.256 3400.81a24.5 24.5 0 0 1-.158-3.738c.045-1.57-.075-3.518.689-4.96h.076a26.426 26.426 0 0 0 .172 8.814c-.072-.006-.145-.015-.216-.024-.189-.027-.376-.057-.563-.092z" class="prefix__cls-4" data-name="Path 9831" transform="translate(-3211.086 -3392.112)"/>
            </g>
            <path id="prefix__Path_9832" d="M3167.562 3396.406c.643 1.367 2.307 2.244 3.6 2.865a17.057 17.057 0 0 0 5.083 1.6 15.761 15.761 0 0 0 10.737-2.129.12.12 0 0 0 .079-.159 12.979 12.979 0 0 0-16.228-5.525c-1.288.578-3.3 1.579-3.341 3.222a.154.154 0 0 0 .07.126zm.215-.1c.44-1.72 2.479-2.718 4.038-3.22a12.864 12.864 0 0 1 5.726-.492 13.844 13.844 0 0 1 9.3 6.068 17.717 17.717 0 0 1-15.334.4 10.85 10.85 0 0 1-2.146-1.2 11.585 11.585 0 0 1-1.584-1.562z" class="prefix__cls-7" data-name="Path 9832" transform="translate(-3167.486 -3392.069)"/>
            <path id="prefix__Path_9833" d="M3220.184 3398.923a5.66 5.66 0 0 1 2.647-.765 6.065 6.065 0 0 1 2.546 1.127 12.926 12.926 0 0 1 4.233 4.177 54.13 54.13 0 0 0-4.133-3.518 9.47 9.47 0 0 0-2.371-1.25 7.187 7.187 0 0 0-2.922.229z" class="prefix__cls-3" data-name="Path 9833" transform="translate(-3210.49 -3397.029)"/>
            <path id="prefix__Path_9834" d="M3220.193 3437.673a18.736 18.736 0 0 1 2.177 4.927s-5.578 3.264-13.481.365c0 0 7.427 3.89 14.143-.093a16.281 16.281 0 0 0-2.839-5.199z" class="prefix__cls-3" data-name="Path 9834" transform="translate(-3201.275 -3429.285)"/>
        </g>
        <g id="prefix__Group_3775" data-name="Group 3775" transform="translate(0 4.774)">
            <path id="prefix__Path_9835" d="M2928.671 3410.18a.185.185 0 0 1 0 .085 12.9 12.9 0 0 1-3.667 6.318 13.109 13.109 0 0 1-5.436 3.467 18.612 18.612 0 0 1-6.849.76 11.015 11.015 0 0 1-6.007-1.84.118.118 0 0 1 .032-.2c1.523-4.1 4.089-7.894 8.308-9.534a16.486 16.486 0 0 1 6.9-1.07 13.9 13.9 0 0 1 6.633 1.716.22.22 0 0 1 .086.298z" class="prefix__cls-2" data-name="Path 9835" transform="translate(-2906.675 -3405.184)"/>
            <g id="prefix__Group_3773" data-name="Group 3773" transform="translate(1.709 3.016)">
                <path id="prefix__Path_9836" d="M2954.951 3408.467c-.4.032-.792.085-1.187.151.3 3.207-.9 6.347-2.2 9.23-.481 1.06-1.021 2.176-1.628 3.256a17.527 17.527 0 0 0 2.449-.207 21.574 21.574 0 0 0 2.566-12.43z" class="prefix__cls-8" data-name="Path 9836" transform="translate(-2943.687 -3408.467)"/>
                <path id="prefix__Path_9837" d="M2919.923 3423.4c.884-2.055 1.885-4.7 1.8-7.04-.084.039-.169.081-.25.125a20.423 20.423 0 0 1-1 2.944 17.63 17.63 0 0 1-1.673 3.613 28.367 28.367 0 0 1-2.827 3.59 11.52 11.52 0 0 0 1.968.581 30.214 30.214 0 0 0 1.982-3.813z" class="prefix__cls-3" data-name="Path 9837" transform="translate(-2915.967 -3414.911)"/>
            </g>
            <path id="prefix__Path_9838" d="M2945.831 3421.46a26.412 26.412 0 0 0 1.776-3.256 22.4 22.4 0 0 0 1.948-9.291c-.322.041-.642.091-.961.15.132 3.346-1.433 7.057-2.882 9.9-.438.865-.923 1.7-1.433 2.521.521.009 1.036.005 1.552-.024z" class="prefix__cls-4" data-name="Path 9838" transform="translate(-2937.363 -3405.815)"/>
            <path id="prefix__Path_9839" d="M2996.481 3409.041q-.532-.088-1.073-.149c1.247 2.678.578 6.268-.122 8.943-.1.389-.21.767-.324 1.153a14.512 14.512 0 0 0 1.987-1.685 19.4 19.4 0 0 0-.468-8.262z" class="prefix__cls-4" data-name="Path 9839" transform="translate(-2978.725 -3405.798)"/>
            <path id="prefix__Path_9840" d="M2913.176 3424.4a.763.763 0 0 1-.043.192 27.907 27.907 0 0 1-3.311 5.945c-.234.325-.473.666-.718 1.019-.136.219-.273.438-.416.653.164.114.331.219.5.317.067-.11.132-.215.2-.313.642-.974 1.286-1.952 1.862-2.967a30.767 30.767 0 0 0 2.294-5.167c-.124.109-.244.221-.368.321z" class="prefix__cls-4" data-name="Path 9840" transform="translate(-2908.318 -3418.195)"/>
            <path id="prefix__Path_9841" d="M2942.736 3409.884a13.9 13.9 0 0 0-6.633-1.716 16.485 16.485 0 0 0-6.9 1.07 12.489 12.489 0 0 0-5.194 3.88c1.732 1.319 4.129 1.631 6.223 1.929a16.747 16.747 0 0 0 4.35.177 21.1 21.1 0 0 0 3.908-1.109c.083-.023.2.033.189.129-.085 1.157-1.171 2.046-2.026 2.7a19.1 19.1 0 0 1-3.865 2.359 19.6 19.6 0 0 1-6.007 1.5c.031 0 .059 0 .088.009a18.613 18.613 0 0 0 6.849-.76 13.111 13.111 0 0 0 5.436-3.467 12.9 12.9 0 0 0 3.667-6.318.188.188 0 0 0 0-.085.22.22 0 0 0-.085-.298z" class="prefix__cls-4" data-name="Path 9841" transform="translate(-2920.823 -3405.184)"/>
            <path id="prefix__Path_9842" d="M2944.091 3409.884a13.9 13.9 0 0 0-6.633-1.716 16.484 16.484 0 0 0-6.9 1.07 12.344 12.344 0 0 0-4.889 3.524 16.744 16.744 0 0 0 9.141 1.844 17.743 17.743 0 0 0 5.054-1.161c.544-.223 1.042-.617 1.6-.785a.338.338 0 0 1 .425.2c.154.739-.809 1.776-1.234 2.3a16.718 16.718 0 0 1-3.4 2.9 18.437 18.437 0 0 1-3.943 2.221c-.353.142-.717.28-1.086.41a16.855 16.855 0 0 0 2.846-.629 13.113 13.113 0 0 0 5.436-3.467 12.9 12.9 0 0 0 3.667-6.318.182.182 0 0 0-.005-.085.219.219 0 0 0-.079-.308z" class="prefix__cls-4" data-name="Path 9842" transform="translate(-2922.178 -3405.184)"/>
            <path id="prefix__Path_9843" d="M2928.588 3409.884a13.9 13.9 0 0 0-6.633-1.716 16.486 16.486 0 0 0-6.9 1.07c-4.219 1.64-6.785 5.431-8.308 9.534a.118.118 0 0 0-.032.2 11.015 11.015 0 0 0 6.007 1.84 18.612 18.612 0 0 0 6.849-.76 13.109 13.109 0 0 0 5.436-3.467 12.9 12.9 0 0 0 3.667-6.318.185.185 0 0 0 0-.085.22.22 0 0 0-.086-.298zm-3.87 6.431a12.858 12.858 0 0 1-5.265 3.358 18.28 18.28 0 0 1-6.3.787 13.458 13.458 0 0 1-6.224-1.652 29.535 29.535 0 0 1 3-5.236 12.025 12.025 0 0 1 5.249-3.982 16.511 16.511 0 0 1 6.56-.982 13.8 13.8 0 0 1 6.569 1.62 13.063 13.063 0 0 1-3.589 6.087z" class="prefix__cls-7" data-name="Path 9843" transform="translate(-2906.675 -3405.184)"/>
            <path id="prefix__Path_9844" d="M2940.237 3396.406c-.643 1.367-2.307 2.244-3.594 2.865a17.065 17.065 0 0 1-5.083 1.6 15.764 15.764 0 0 1-10.738-2.129.12.12 0 0 1-.079-.159 12.98 12.98 0 0 1 16.229-5.525c1.289.578 3.3 1.579 3.341 3.222a.153.153 0 0 1-.076.126z" class="prefix__cls-2" data-name="Path 9844" transform="translate(-2918.147 -3392.069)"/>
            <path id="prefix__Path_9845" d="M2942.033 3398.9c-.159.074-.319.151-.477.235a13.252 13.252 0 0 1-.985 5.157 16.741 16.741 0 0 1-.662 1.625c.181.055.365.1.547.147a21.08 21.08 0 0 0 1.577-7.164z" class="prefix__cls-3" data-name="Path 9845" transform="translate(-2933.797 -3397.647)"/>
            <path id="prefix__Path_9846" d="M2957.633 3401.545a19.41 19.41 0 0 0 .4-3.9 29.636 29.636 0 0 0-.608-4.9 12.2 12.2 0 0 0-1.787.393 11.529 11.529 0 0 1-.338 4.917c-.3 1.157-.734 2.258-1.1 3.389a18.05 18.05 0 0 0 3.433.101z" class="prefix__cls-3" data-name="Path 9846" transform="translate(-2945.456 -3392.626)"/>
            <path id="prefix__Path_9847" d="M2966.423 3393.053a13.069 13.069 0 0 0-9.6-.147 12.2 12.2 0 0 1 2.548.828c.892.372 1.8.739 2.677 1.137.736.335 1.853.8 2.219 1.6.758 1.646-2.155 3.13-3.281 3.635a11.911 11.911 0 0 1-3.614.886 18.5 18.5 0 0 0 3.64-.127 17.054 17.054 0 0 0 5.083-1.6c1.287-.621 2.95-1.5 3.594-2.865a.154.154 0 0 0 .076-.131c-.044-1.636-2.053-2.638-3.342-3.216z" class="prefix__cls-4" data-name="Path 9847" transform="translate(-2947.599 -3392.069)"/>
            <path id="prefix__Path_9848" d="M2971.209 3393.053a12.7 12.7 0 0 0-6.269-.926 11.929 11.929 0 0 0-2.253.429 25.608 25.608 0 0 1 5.333 2.324c.828.528 1.6 1.153 2.43 1.668.339.208 1 .48 1.1.918.19.808-.569 1.536-1.155 2.03.161-.072.325-.146.488-.226 1.287-.621 2.95-1.5 3.594-2.865a.154.154 0 0 0 .076-.131c-.046-1.641-2.053-2.643-3.344-3.221z" class="prefix__cls-4" data-name="Path 9848" transform="translate(-2952.385 -3392.069)"/>
            <path id="prefix__Path_9849" d="M2987.492 3400.1c-.04-.672-.109-1.344-.2-2.006a23.536 23.536 0 0 0-.678-3.62c-.239-.786-.606-1.512-.877-2.279-.173-.011-.346-.023-.52-.03a20.934 20.934 0 0 1 .853 8.391c.481-.13.954-.286 1.422-.456z" class="prefix__cls-8" data-name="Path 9849" transform="translate(-2970.772 -3392.148)"/>
            <g id="prefix__Group_3774" data-name="Group 3774" transform="translate(4.879 .008)">
                <path id="prefix__Path_9850" d="M2935.156 3401.8a8.444 8.444 0 0 1-1.48 5.114l-.472.706c.3.122.6.236.911.339a12.865 12.865 0 0 0 1.512-6.441c-.157.092-.314.182-.471.282z" class="prefix__cls-4" data-name="Path 9850" transform="translate(-2933.204 -3399.789)"/>
                <path id="prefix__Path_9851" d="M2979.206 3400.81a24.466 24.466 0 0 0 .157-3.738c-.045-1.57.074-3.518-.689-4.96h-.077a26.388 26.388 0 0 1-.172 8.814c.072-.006.146-.015.217-.024.189-.027.375-.057.564-.092z" class="prefix__cls-4" data-name="Path 9851" transform="translate(-2970.108 -3392.112)"/>
            </g>
            <path id="prefix__Path_9852" d="M2940.313 3396.275c-.043-1.642-2.052-2.645-3.341-3.222a12.979 12.979 0 0 0-16.229 5.525.119.119 0 0 0 .079.159 15.764 15.764 0 0 0 10.738 2.129 17.058 17.058 0 0 0 5.083-1.6c1.287-.621 2.95-1.5 3.594-2.865a.154.154 0 0 0 .076-.126zm-1.877 1.585a10.851 10.851 0 0 1-2.146 1.2 17.719 17.719 0 0 1-15.335-.4 13.842 13.842 0 0 1 9.3-6.068 12.86 12.86 0 0 1 5.726.492c1.56.5 3.6 1.5 4.038 3.22a11.63 11.63 0 0 1-1.584 1.557z" class="prefix__cls-7" data-name="Path 9852" transform="translate(-2918.147 -3392.069)"/>
            <path id="prefix__Path_9853" d="M2932.661 3398.923a5.667 5.667 0 0 0-2.647-.765 6.077 6.077 0 0 0-2.547 1.127 12.932 12.932 0 0 0-4.233 4.177 54.16 54.16 0 0 1 4.132-3.518 9.5 9.5 0 0 1 2.371-1.25 7.2 7.2 0 0 1 2.924.229z" class="prefix__cls-3" data-name="Path 9853" transform="translate(-2920.188 -3397.029)"/>
            <path id="prefix__Path_9854" d="M2911.732 3437.673a18.724 18.724 0 0 0-2.178 4.927s5.578 3.264 13.482.365c0 0-7.428 3.89-14.144-.093a16.3 16.3 0 0 1 2.84-5.199z" class="prefix__cls-3" data-name="Path 9854" transform="translate(-2908.485 -3429.285)"/>
        </g>
        <g id="prefix__Group_3778" data-name="Group 3778" transform="translate(12.869)">
            <path id="prefix__Path_9855" d="M2983.7 3366.115a30.088 30.088 0 0 0-3.4 2.075 37.6 37.6 0 0 0-3.506 2.663.025.025 0 0 0-.011-.006.046.046 0 0 0-.065.058s.006 0 .006.009c-.021.021-.046.037-.07.062-.046.039.015.1.063.069l.069-.052c.3.39.944.426 1.383.532a12.457 12.457 0 0 1 3.007 1.448c1.955 1.1 3.88 2.265 5.775 3.466 1.856 1.174 3.678 2.4 5.511 3.609 1.919 1.272 3.922 2.407 5.9 3.584a.165.165 0 0 0 .256-.109 36.032 36.032 0 0 0 5.423-2.958c1.944-1.159 3.94-2.227 5.884-3.382 1.984-1.179 3.931-2.418 5.9-3.629.861-.527 1.712-1.06 2.571-1.591a5.927 5.927 0 0 1 2.9-1.062l.016-.006c.1.077.2.153.311.224.073.051.184-.032.135-.116a7.667 7.667 0 0 0-1.543-1.529c-.57-.533-1.137-1.067-1.734-1.569a5.678 5.678 0 0 0-3.526-1.689.1.1 0 0 1 .019-.017s-8.065 5.232-16.535 5.106a26.355 26.355 0 0 1-14.739-5.19z" class="prefix__cls-2" data-name="Path 9855" transform="translate(-2976.641 -3366.115)"/>
            <path id="prefix__Path_9856" d="M3014.04 3385.59c-.152-.069-.306-.138-.459-.205-2.509.573-4.5 2.132-6.666 3.488.479.277.956.554 1.434.834a33.281 33.281 0 0 1 5.691-4.117z" class="prefix__cls-3" data-name="Path 9856" transform="translate(-3001.347 -3381.841)"/>
            <path id="prefix__Path_9857" d="M3043.079 3392.657c-.287-.078-.576-.163-.863-.259-1.175 1.437-2.22 2.991-3.275 4.508-.264.378-.539.768-.81 1.164.305.195.607.394.912.589 1.257-2.059 2.629-4.041 4.036-6.002z" class="prefix__cls-3" data-name="Path 9857" transform="translate(-3026.821 -3387.564)"/>
            <path id="prefix__Path_9858" d="M3101.281 3396.288c-.6.074-1.2.14-1.8.187-.315.024-.625.038-.936.044.247 3.65.442 7.291.329 10.92.681-.366 1.372-.724 2.042-1.118.877-.511 1.75-1.038 2.622-1.561a34.346 34.346 0 0 0-2.257-8.472z" class="prefix__cls-3" data-name="Path 9858" transform="translate(-3076.127 -3390.739)"/>
            <path id="prefix__Path_9859" d="M3149.005 3367.434a16.96 16.96 0 0 1-6 3.6c-.629.242-1.268.456-1.915.647a14.915 14.915 0 0 1 2.484 5.13c.111.381.216.759.313 1.144.239-.142.474-.276.709-.416 2.049-1.249 4.066-2.541 6.12-3.779 1.333-.8 2.75-1.984 4.358-2.122-1.942-1.57-3.493-3.68-6.069-4.204z" class="prefix__cls-3" data-name="Path 9859" transform="translate(-3110.842 -3367.191)"/>
            <g id="prefix__Group_3776" data-name="Group 3776" transform="translate(.26 .243)">
                <path id="prefix__Path_9860" d="M2985.273 3368.168c-.1-.2-.2-.4-.3-.607-1.08.736-2.247 1.361-3.349 2.065q-1.828 1.172-3.569 2.465a2.769 2.769 0 0 0 .842.248 25.806 25.806 0 0 1 6.376-4.171z" class="prefix__cls-4" data-name="Path 9860" transform="translate(-2978.056 -3367.538)"/>
                <path id="prefix__Path_9861" d="M3001.672 3378.782l-.093-.04c-.4-.175-.8-.353-1.181-.553a21.543 21.543 0 0 0-6.086 3.565c.319.156.636.315.949.48a31.3 31.3 0 0 1 6.411-3.452z" class="prefix__cls-4" data-name="Path 9861" transform="translate(-2991.322 -3376.211)"/>
                <path id="prefix__Path_9862" d="M3023.351 3393.95a21.758 21.758 0 0 1 3.791-5.7q-.223-.079-.444-.165c-.434-.173-.868-.358-1.3-.547a39.177 39.177 0 0 0-5.09 4.538q1.362.812 2.706 1.658c.114.074.225.146.337.216z" class="prefix__cls-4" data-name="Path 9862" transform="translate(-3012.541 -3383.844)"/>
                <path id="prefix__Path_9863" d="M3105.168 3397.038c-.1.007-.193.019-.29.028a37.042 37.042 0 0 1 .672 6.978c.044 1.02.129 2.045.212 3.07.107-.057.217-.117.323-.18.355-.205.71-.419 1.063-.629-.548-3.105-1.331-6.176-1.98-9.267z" class="prefix__cls-4" data-name="Path 9863" transform="translate(-3081.552 -3391.593)"/>
                <path id="prefix__Path_9864" d="M3132.83 3397.247a28.02 28.02 0 0 0-2.682-4.59c-.222.053-.448.107-.675.156a49.765 49.765 0 0 1 2.243 5.836c.143.4.285.8.423 1.2.441-.254.884-.5 1.323-.756-.193-.624-.399-1.237-.632-1.846z" class="prefix__cls-4" data-name="Path 9864" transform="translate(-3101.623 -3388.018)"/>
                <path id="prefix__Path_9865" d="M3182.882 3372.872a6.853 6.853 0 0 1 2.978-1.235c-1.94-1.569-3.491-3.678-6.067-4.2a11.847 11.847 0 0 1-.978.857 45.179 45.179 0 0 1 4.067 4.578z" class="prefix__cls-4" data-name="Path 9865" transform="translate(-3141.89 -3367.434)"/>
                <path id="prefix__Path_9866" d="M3156.028 3384.313c-.147.064-.294.13-.443.19a27.4 27.4 0 0 1 1.994 3.2c.424.708.832 1.422 1.22 2.142.379-.236.756-.469 1.133-.7a14.123 14.123 0 0 0-3.904-4.832z" class="prefix__cls-4" data-name="Path 9866" transform="translate(-3122.932 -3381.209)"/>
                <path id="prefix__Path_9867" d="M3047.492 3401.44a55.088 55.088 0 0 1 3.178-6.418c-.162-.034-.323-.065-.482-.1a19.767 19.767 0 0 0-4.293 6.129c.458.3.914.6 1.373.906z" class="prefix__cls-4" data-name="Path 9867" transform="translate(-3033.418 -3389.864)"/>
            </g>
            <g id="prefix__Group_3777" data-name="Group 3777" transform="translate(11.466 2.824)">
                <path id="prefix__Path_9868" d="M3038.981 3381.467c.7.308 1.4.632 2.1.939" class="prefix__cls-4" data-name="Path 9868" transform="translate(-3038.981 -3381.467)"/>
                <path id="prefix__Path_9869" fill="#aabbc1" d="M3062.9 3391.217q.478.147.964.264" data-name="Path 9869" transform="translate(-3058.502 -3389.424)" style="mix-blend-mode:multiply;isolation:isolate" opacity="0.4"/>
            </g>
            <path id="prefix__Path_9870" d="M2983.7 3366.115a30.088 30.088 0 0 0-3.4 2.075 37.6 37.6 0 0 0-3.506 2.663.025.025 0 0 0-.011-.006.046.046 0 0 0-.065.058s.006 0 .006.009c-.021.021-.046.037-.07.062-.046.039.015.1.063.069l.069-.052c.3.39.944.426 1.383.532a12.457 12.457 0 0 1 3.007 1.448c1.955 1.1 3.88 2.265 5.775 3.466l.074.046c-.149-.165-.3-.33-.443-.5-1.113-1.273-3.044-2.891-3.28-4.674a2.062 2.062 0 0 1 .991-2.321c1.306-.51 2.5.8 3.559 1.342 6.055 3.077 13.614 2.673 19.978.926 1.378-.38 7.921-3.58 8.633-1.206.412 1.383-1.129 2.664-2.042 3.438a33.587 33.587 0 0 1-3.681 3.195c1.7-1.027 3.384-2.088 5.079-3.133.861-.527 1.712-1.06 2.571-1.591a5.927 5.927 0 0 1 2.9-1.062l.016-.006c.1.077.2.153.311.224.073.051.184-.032.135-.116a7.667 7.667 0 0 0-1.543-1.529c-.57-.533-1.137-1.067-1.734-1.569a5.678 5.678 0 0 0-3.526-1.689.1.1 0 0 1 .019-.017 26.225 26.225 0 0 1-16.3 5.106c-9.59-.379-14.968-5.188-14.968-5.188z" class="prefix__cls-4" data-name="Path 9870" transform="translate(-2976.641 -3366.115)"/>
            <path id="prefix__Path_9871" d="M2983.7 3366.115a30.088 30.088 0 0 0-3.4 2.075 37.6 37.6 0 0 0-3.506 2.663.025.025 0 0 0-.011-.006.046.046 0 0 0-.065.058s.006 0 .006.009c-.021.021-.046.037-.07.062-.046.039.015.1.063.069l.069-.052c.3.39.944.426 1.383.532a12.457 12.457 0 0 1 3.007 1.448c1.955 1.1 3.88 2.265 5.775 3.466 1.856 1.174 3.678 2.4 5.511 3.609 1.919 1.272 3.922 2.407 5.9 3.584a.165.165 0 0 0 .256-.109 36.032 36.032 0 0 0 5.423-2.958c1.944-1.159 3.94-2.227 5.884-3.382 1.984-1.179 3.931-2.418 5.9-3.629.861-.527 1.712-1.06 2.571-1.591a5.927 5.927 0 0 1 2.9-1.062l.016-.006c.1.077.2.153.311.224.073.051.184-.032.135-.116a7.667 7.667 0 0 0-1.543-1.529c-.57-.533-1.137-1.067-1.734-1.569a5.678 5.678 0 0 0-3.526-1.689.1.1 0 0 1 .019-.017s-7.943 4.854-16.1 5.106-15.174-5.19-15.174-5.19zm32.81 6.568c-2.053 1.238-4.071 2.531-6.12 3.779-2.009 1.217-4.084 2.324-6.1 3.531-.953.573-1.9 1.147-2.859 1.707s-1.979 1.056-2.947 1.616c-1.788-1.266-3.767-2.248-5.6-3.456s-3.659-2.43-5.512-3.607c-1.831-1.16-3.7-2.264-5.578-3.344a28.618 28.618 0 0 0-2.578-1.318 5.145 5.145 0 0 0-1.163-.373 4.074 4.074 0 0 1-1.159-.306q1.746-1.287 3.569-2.465c1.1-.7 2.269-1.329 3.349-2.065.115.248.232.486.356.726a.154.154 0 0 0 .14.085 9.223 9.223 0 0 0 2.842 1.7c1.3.563 2.577 1.192 3.9 1.714a19.9 19.9 0 0 0 8.94 1.249 31.262 31.262 0 0 0 8.8-1.9 16.966 16.966 0 0 0 6-3.6c2.576.525 4.126 2.634 6.067 4.2-1.593.144-3.01 1.323-4.344 2.127z" class="prefix__cls-7" data-name="Path 9871" transform="translate(-2976.641 -3366.115)"/>
            <path id="prefix__Path_9872" d="M3077.028 3394.4c.087.015.174.026.259.038" class="prefix__cls-3" data-name="Path 9872" transform="translate(-3058.564 -3389.194)"/>
            <path id="prefix__Path_9873" d="M3029.694 3415s9.82 5.714 11.988 7.04l14.38-7.655-14.281 8.321z" class="prefix__cls-3" data-name="Path 9873" transform="translate(-3019.936 -3405.51)"/>
        </g>
    </g>
</svg>
