<svg xmlns="http://www.w3.org/2000/svg" width="78.725" height="65.427" viewBox="0 0 78.725 65.427">
    <defs>
        <style>
            .prefix__cls-1{fill:#f1bf41}.prefix__cls-5{fill:#975b29}.prefix__cls-6{fill:#77491e}.prefix__cls-11{fill:#c16d31}
        </style>
    </defs>
    <g id="prefix__Group_3740" data-name="Group 3740" transform="translate(-3981.79 -3332.421)">
        <g id="prefix__Group_3739" data-name="Group 3739" transform="translate(3981.79 3332.421)">
            <g id="prefix__Group_3737" data-name="Group 3737" transform="translate(0 5.45)">
                <path id="prefix__Path_9552" d="M4196.654 3369.892s-.625 10.613-10.3 21.537c1.4 4.838 5.618 3.9 7.8 3.121-3.121-1.561-4.332-2.207-4.983-4.877 3.972 3.711 8.138 3.972 12.175.846a8.388 8.388 0 0 1-9.376-4.948c6.25 4.037 10.808 3.255 14.91-1.628-5.729 2.669-9.9.13-12.305-1.953 7.878 1.823 13.022 1.367 18.36-5.4-7.227 2.083-12.7 2.474-17.058 1.237 7.162-.26 15.3-1.562 20.769-11.589-10.613 5.664-14.714 7.162-19.271 6.641 8.2-.912 16.667-4.753 20.7-16.732a42.7 42.7 0 0 1-21.421 13.745z" class="prefix__cls-1" data-name="Path 9552" transform="translate(-4139.357 -3356.144)"/>
                <path id="prefix__Path_9553" d="M4003.217 3369.892s.625 10.613 10.3 21.537c-1.4 4.838-5.619 3.9-7.8 3.121 3.122-1.561 4.332-2.207 4.983-4.877-3.972 3.711-8.139 3.972-12.175.846a8.387 8.387 0 0 0 9.375-4.948c-6.25 4.037-10.808 3.255-14.91-1.628 5.729 2.669 9.9.13 12.306-1.953-7.878 1.823-13.021 1.367-18.36-5.4 7.227 2.083 12.7 2.474 17.058 1.237-7.162-.26-15.3-1.562-20.769-11.589 10.612 5.664 14.714 7.162 19.271 6.641-8.2-.912-16.667-4.753-20.7-16.732a42.7 42.7 0 0 0 21.421 13.745z" class="prefix__cls-1" data-name="Path 9553" transform="translate(-3981.79 -3356.144)"/>
            </g>
            <g id="prefix__Group_3738" data-name="Group 3738" transform="translate(28.084)">
                <path id="prefix__Path_9554" fill="#d4d4d4" d="M4129.919 3337.452l5.266-5.031 5.4 5.031-1.283 43.5h-8.1z" data-name="Path 9554" transform="translate(-4123.972 -3332.421)"/>
                <path id="prefix__Path_9555" fill="#c1c1c2" d="M4131.387 3339.377c-.855 6.558-.325 26.529 1.12 32.945.684 3.036 3.08.653 3.08-3.08.171 5.005 1.911 6.773 3.889 5.666l-.178 6.046h-8.1l-1.281-43.5 5.266-5.031.125.116a10.3 10.3 0 0 0-3.921 6.838z" data-name="Path 9555" transform="translate(-4123.971 -3332.421)"/>
                <path id="prefix__Path_9556" fill="#a1a2a2" d="M4151.678 3395.049l-.623-43.7-.6 43.7z" data-name="Path 9556" transform="translate(-4139.785 -3347.001)"/>
                <path id="prefix__Rectangle_2110" d="M0 0H4.722V11.762H0z" class="prefix__cls-5" data-name="Rectangle 2110" transform="rotate(180 6.82 30.556)"/>
                <path id="prefix__Path_9557" d="M4142.844 3586.073l4.723 1.727v1.111h-4.723z" class="prefix__cls-6" data-name="Path 9557" transform="translate(-4133.927 -3527.798)"/>
                <path id="prefix__Path_9558" d="M4142.844 3570.7l4.723-2.245v3.336l-4.723-.125z" class="prefix__cls-6" data-name="Path 9558" transform="translate(-4133.927 -3514.227)"/>
                <path id="prefix__Path_9559" d="M4142.844 3553.044l4.723-2.245v3.336s-.346.519-2.271.519-2.452-.644-2.452-.644z" class="prefix__cls-6" data-name="Path 9559" transform="translate(-4133.927 -3500.627)"/>
                <path id="prefix__Path_9560" d="M4137.064 3597.749c0-1.394 1.652-2.524 3.689-2.524s3.689 1.13 3.689 2.524-1.652 2.525-3.689 2.525-3.689-1.13-3.689-2.525z" class="prefix__cls-5" data-name="Path 9560" transform="translate(-4129.475 -3534.847)"/>
                <path id="prefix__Path_9561" d="M4141.318 3544.932c0-1.847-2.246-1.178-5.017-1.178s-5.017-.669-5.017 1.178 2.246 3.344 5.017 3.344 5.017-1.497 5.017-3.344z" class="prefix__cls-1" data-name="Path 9561" transform="translate(-4125.023 -3495.11)"/>
                <path id="prefix__Path_9562" fill="#e3973c" d="M4136.355 3543.753c2.771 0 5.017-.669 5.017 1.178a2.34 2.34 0 0 1-.22.98 24.025 24.025 0 0 1-9.6-.016 2.341 2.341 0 0 1-.213-.964c-.001-1.847 2.245-1.178 5.016-1.178z" data-name="Path 9562" transform="translate(-4125.064 -3495.11)"/>
                <path id="prefix__Path_9563" fill="#fff" d="M4158.66 3369.252l1.122-26.521-4.487-4.567 3.445 4.968z" data-name="Path 9563" transform="translate(-4143.517 -3336.844)"/>
                <path id="prefix__Path_9564" d="M4105.367 3532.317a24.01 24.01 0 0 0 19.963 0c1.276-.583 1.494-1.479 1.039-2.214a1.7 1.7 0 0 0-2.345-.64 20.867 20.867 0 0 1-17.352 0c-1.082-.491-1.968-.386-2.463.488-.424.749-.118 1.783 1.158 2.366z" class="prefix__cls-1" data-name="Path 9564" transform="translate(-4104.03 -3483.968)"/>
                <path id="prefix__Path_9565" fill="#e9a73e" d="M4125.33 3532.555a24.01 24.01 0 0 1-19.963 0c-1.276-.582-1.582-1.613-1.156-2.365a1.436 1.436 0 0 1 .852-.71c.277 2.638 4.271 4.227 10.27 4.333 4.674.083 10.072-1.716 10.8-3.78a2.065 2.065 0 0 1 .236.309c.455.734.237 1.631-1.039 2.213z" data-name="Path 9565" transform="translate(-4104.031 -3484.207)"/>
                <path id="prefix__Path_9566" d="M4138.051 3599.464a2.169 2.169 0 0 1-.987-1.714c0-1.394 1.652-2.524 3.689-2.524 1.836 0 3.355.919 3.637 2.122-3.09-.979-6.077.398-6.339 2.116z" class="prefix__cls-6" data-name="Path 9566" transform="translate(-4129.475 -3534.847)"/>
                <path id="prefix__Path_9567" fill="none" stroke="#492c0c" stroke-miterlimit="10" stroke-width="0.757px" d="M4138.051 3599.464a2.169 2.169 0 0 1-.987-1.714c0-1.394 1.652-2.524 3.689-2.524 1.836 0 3.355.919 3.637 2.122" data-name="Path 9567" transform="translate(-4129.475 -3534.847)"/>
                <path id="prefix__Path_9568" d="M4154.945 3610.162c-.062-.225-.862-.2-1.789.053s-1.626.643-1.564.868.862.2 1.789-.053 1.626-.643 1.564-.868z" class="prefix__cls-11" data-name="Path 9568" transform="translate(-4140.662 -3546.233)"/>
                <path id="prefix__Path_9569" d="M4144.76 3585.619h3.916l.112 1.211z" class="prefix__cls-11" data-name="Path 9569" transform="translate(-4135.402 -3527.448)"/>
                <path id="prefix__Path_9570" d="M4144.269 3569.38v-1.69a4.575 4.575 0 0 0 3.2.248z" class="prefix__cls-11" data-name="Path 9570" transform="translate(-4135.024 -3513.638)"/>
            </g>
        </g>
    </g>
</svg>
