<svg xmlns="http://www.w3.org/2000/svg" width="80.065" height="60.579" viewBox="0 0 80.065 60.579">
    <defs>
        <style>
            .prefix__cls-1{fill:#d4d4d4}.prefix__cls-2{fill:#c1c1c2}.prefix__cls-3{fill:#a6a7a7}.prefix__cls-4{fill:#f0bc41}.prefix__cls-5{fill:#e69f3d}.prefix__cls-6{fill:#cb6f33}.prefix__cls-7{fill:#f8dd4a}.prefix__cls-8{fill:#e0e0e0}.prefix__cls-17{fill:none}.prefix__cls-12,.prefix__cls-13{stroke-miterlimit:10;fill:#f7d848}.prefix__cls-13{stroke:#78401b;stroke-width:.483px}.prefix__cls-15,.prefix__cls-16{stroke:none}.prefix__cls-16{fill:#78401b}
        </style>
    </defs>
    <g id="prefix__Group_4977" data-name="Group 4977" transform="translate(-4012.156 -3588.254)">
        <g id="prefix__Group_3742" data-name="Group 3742" transform="translate(4027.37 3588.254)">
            <g id="prefix__Group_3741" data-name="Group 3741">
                <path id="prefix__Path_9571" d="M4098.351 3699.026l-2.066 7.845 8.032-1.489 42.626-41.449-4.531-4.828z" class="prefix__cls-1" data-name="Path 9571" transform="translate(-4096.285 -3646.293)"/>
                <path id="prefix__Path_9572" d="M4317.079 3659.106l-7.336 6.647c2.645-.92 1.449 1.553-.231 4.967 6.685-4.022 5.877-1.726 2.835 2.223l9.265-9.009z" class="prefix__cls-2" data-name="Path 9572" transform="translate(-4270.952 -3646.293)"/>
                <path id="prefix__Path_9573" d="M4163.636 3673.086l-44.228 40.135 43.227-41.2z" class="prefix__cls-3" data-name="Path 9573" transform="translate(-4115.227 -3656.871)"/>
                <path id="prefix__Path_9574" d="M4366.933 3588.618c.891-.837 2.866-.181 4.411 1.465s2.074 3.658 1.183 4.495c-.615.578-2.519-.592-4.83 1.577s-8.185 9.686-8.185 9.686l-4.642-4.946s9.249-6.678 10.013-7.4c2.267-2.124 1.434-4.295 2.05-4.877z" class="prefix__cls-4" data-name="Path 9574" transform="translate(-4308.108 -3588.254)"/>
                <path id="prefix__Path_9575" d="M4371.344 3590.1a5.085 5.085 0 0 0-3.436-1.824c2.217.62 4.617 3.3 2.891 4.9-1.936 1.792-3.972-.349-4.708-1.273a5.387 5.387 0 0 1-1.208 1.618c-.132.124-.521.428-1.067.842.8.691 2.355 2.24 1.366 3.165-1.017.951-2.786-.768-3.512-1.566-.8.589-1.667 1.224-2.507 1.837 4.631 5.081 1.19 6.068-2.382 1.733l-1.91 1.383 4.642 4.945s5.875-7.517 8.185-9.686 4.214-1 4.83-1.577c.89-.838.361-2.851-1.184-4.497z" class="prefix__cls-5" data-name="Path 9575" transform="translate(-4308.108 -3588.272)"/>
                <path id="prefix__Path_9576" d="M4312.559 3624.677l-14.124-15.046c-2.084-2.221-4.451-3.816-6.454-2.271-1.629 1.256-1.956 3.534.5 6.055-.676-1.957.509-4.912 3.622-1.6l14.124 15.046c2.045 2.178.942 4.662-1.844 3.346 2.236 1.831 4.483 1.481 5.75.291 1.597-1.498.601-3.504-1.574-5.821z" class="prefix__cls-4" data-name="Path 9576" transform="translate(-4255.542 -3603.401)"/>
                <path id="prefix__Path_9577" d="M4408.158 3611.527l3.252 3.448a.531.531 0 0 1-.774.726l-3.252-3.448a.531.531 0 1 1 .773-.726z" class="prefix__cls-6" data-name="Path 9577" transform="translate(-4351.008 -3607.181)"/>
                <path id="prefix__Path_9578" d="M4380.361 3631.209l4.358 4.643a.531.531 0 1 1-.773.727l-4.359-4.644a.531.531 0 0 1 .774-.726z" class="prefix__cls-6" data-name="Path 9578" transform="translate(-4328.238 -3623.304)"/>
                <path id="prefix__Path_9579" d="M4312.892 3633.418c-2.134-2.629-14.3-15.79-17.179-18.75-1.46-1.5-3.086-1.988-4.351-1.609-1.03 1.313-.959 3.281 1.131 5.427-.676-1.958.509-4.912 3.622-1.6l14.124 15.047c2.044 2.178.942 4.662-1.844 3.346 2.218 1.816 4.444 1.485 5.717.319a5.148 5.148 0 0 0-1.22-2.18z" class="prefix__cls-5" data-name="Path 9579" transform="translate(-4255.554 -3608.473)"/>
                <path id="prefix__Path_9580" d="M4396.573 3625.579c1-.9-.271-1.924-.271-1.924l-1.727 1.263c.576.719 1.554 1.061 1.998.661z" class="prefix__cls-7" data-name="Path 9580" transform="translate(-4340.633 -3617.254)"/>
                <path id="prefix__Path_9581" d="M4370.956 3646.5c.77-.472-.81-2.734-.81-2.734l-1.728 1.263c.809.686 1.768 1.939 2.538 1.471z" class="prefix__cls-7" data-name="Path 9581" transform="translate(-4319.207 -3633.725)"/>
                <path id="prefix__Path_9582" d="M4430.167 3593.025c-.124.129-.813-.332-1.54-1.03s-1.216-1.367-1.092-1.5.813.332 1.54 1.029 1.216 1.376 1.092 1.501z" class="prefix__cls-7" data-name="Path 9582" transform="translate(-4367.618 -3590.075)"/>
                <path id="prefix__Path_9583" d="M4349.762 3645.4c-.13.122-3.086-2.817-6.6-6.566s-6.261-6.887-6.131-7.009 3.087 2.818 6.6 6.566 6.262 6.886 6.131 7.009z" class="prefix__cls-7" data-name="Path 9583" transform="translate(-4293.49 -3623.942)"/>
            </g>
            <path id="prefix__Path_9584" d="M4107.063 3816.571l-5.789 2.9 6.563-1.329 21.433-20.839z" class="prefix__cls-8" data-name="Path 9584" transform="translate(-4100.372 -3759.503)"/>
        </g>
        <g id="prefix__Group_3744" data-name="Group 3744" transform="translate(4012.156 3588.254)">
            <g id="prefix__Group_3743" data-name="Group 3743">
                <path id="prefix__Path_9585" d="M4139.229 3699.026l2.065 7.845-8.032-1.489-42.626-41.449 4.532-4.828z" class="prefix__cls-1" data-name="Path 9585" transform="translate(-4076.443 -3646.293)"/>
                <path id="prefix__Path_9586" d="M4095.167 3659.106l7.337 6.647c-2.645-.92-1.449 1.553.231 4.967-6.685-4.022-5.877-1.726-2.835 2.223l-9.265-9.009z" class="prefix__cls-2" data-name="Path 9586" transform="translate(-4076.443 -3646.293)"/>
                <path id="prefix__Path_9587" d="M4103.075 3673.086l44.228 40.135-43.227-41.2z" class="prefix__cls-3" data-name="Path 9587" transform="translate(-4086.633 -3656.871)"/>
                <path id="prefix__Path_9588" d="M4018.182 3588.618c-.892-.837-2.866-.181-4.411 1.465s-2.074 3.658-1.183 4.495c.615.578 2.52-.592 4.83 1.577s8.185 9.686 8.185 9.686l4.642-4.946s-9.249-6.678-10.013-7.4c-2.268-2.124-1.432-4.295-2.05-4.877z" class="prefix__cls-4" data-name="Path 9588" transform="translate(-4012.156 -3588.254)"/>
                <path id="prefix__Path_9589" d="M4013.771 3590.1a5.086 5.086 0 0 1 3.436-1.824c-2.217.62-4.617 3.3-2.891 4.9 1.936 1.792 3.973-.349 4.708-1.273a5.387 5.387 0 0 0 1.208 1.618c.132.124.521.428 1.067.842-.8.691-2.355 2.24-1.366 3.165 1.017.951 2.786-.768 3.512-1.566.8.589 1.667 1.224 2.507 1.837-4.631 5.081-1.189 6.068 2.382 1.733l1.91 1.383-4.642 4.945s-5.874-7.517-8.185-9.686-4.215-1-4.83-1.577c-.887-.838-.36-2.851 1.184-4.497z" class="prefix__cls-5" data-name="Path 9589" transform="translate(-4012.156 -3588.272)"/>
                <path id="prefix__Path_9590" d="M4044.785 3624.677l14.123-15.046c2.084-2.221 4.451-3.816 6.455-2.271 1.629 1.256 1.956 3.534-.5 6.055.676-1.957-.509-4.912-3.623-1.6l-14.123 15.046c-2.045 2.178-.942 4.662 1.844 3.346-2.236 1.831-4.483 1.481-5.75.291-1.597-1.498-.601-3.504 1.574-5.821z" class="prefix__cls-4" data-name="Path 9590" transform="translate(-4036.952 -3603.401)"/>
                <path id="prefix__Path_9591" d="M4039.358 3611.527l-3.252 3.448a.531.531 0 1 0 .774.726l3.252-3.448a.531.531 0 1 0-.774-.726z" class="prefix__cls-6" data-name="Path 9591" transform="translate(-4031.657 -3607.181)"/>
                <path id="prefix__Path_9592" d="M4062.146 3631.209l-4.358 4.643a.531.531 0 0 0 .774.727l4.358-4.644a.531.531 0 0 0-.774-.726z" class="prefix__cls-6" data-name="Path 9592" transform="translate(-4049.418 -3623.304)"/>
                <path id="prefix__Path_9593" d="M4048.171 3633.418c2.134-2.629 14.3-15.79 17.179-18.75 1.46-1.5 3.086-1.988 4.35-1.609 1.029 1.313.96 3.281-1.131 5.427.675-1.958-.509-4.912-3.623-1.6l-14.123 15.047c-2.045 2.178-.943 4.662 1.843 3.346-2.217 1.816-4.444 1.485-5.717.319a5.148 5.148 0 0 1 1.222-2.18z" class="prefix__cls-5" data-name="Path 9593" transform="translate(-4040.658 -3608.473)"/>
                <path id="prefix__Path_9594" d="M4059.7 3625.579c-1-.9.271-1.924.271-1.924l1.727 1.263c-.58.719-1.558 1.061-1.998.661z" class="prefix__cls-7" data-name="Path 9594" transform="translate(-4050.786 -3617.254)"/>
                <path id="prefix__Path_9595" d="M4083.65 3646.5c-.77-.472.81-2.734.81-2.734l1.728 1.263c-.81.686-1.769 1.939-2.538 1.471z" class="prefix__cls-7" data-name="Path 9595" transform="translate(-4070.548 -3633.725)"/>
                <path id="prefix__Path_9596" d="M4024.794 3593.025c.124.129.813-.332 1.54-1.03s1.216-1.367 1.092-1.5-.813.332-1.54 1.029-1.216 1.376-1.092 1.501z" class="prefix__cls-7" data-name="Path 9596" transform="translate(-4022.493 -3590.075)"/>
                <path id="prefix__Path_9597" d="M4059.574 3645.4c.13.122 3.086-2.817 6.6-6.566s6.261-6.887 6.13-7.009-3.086 2.818-6.6 6.566-6.261 6.886-6.13 7.009z" class="prefix__cls-7" data-name="Path 9597" transform="translate(-4050.995 -3623.942)"/>
            </g>
            <path id="prefix__Path_9598" d="M4233.172 3816.571l5.789 2.9-6.563-1.329-21.434-20.839z" class="prefix__cls-8" data-name="Path 9598" transform="translate(-4175.012 -3759.503)"/>
        </g>
        <g id="prefix__Group_3745" data-name="Group 3745" transform="translate(4028.001 3603.628)" style="mix-blend-mode:multiply;isolation:isolate" opacity="0.65">
            <path id="prefix__Path_9599" d="M4144.6 3794.269l-12.7 11.51a38.311 38.311 0 0 0 6.366 5.678l12.008-11.677z" class="prefix__cls-3" data-name="Path 9599" transform="translate(-4126.089 -3772.388)"/>
            <path id="prefix__Path_9600" d="M4239.17 3695.151l19.077-18.551v-2.18s-2.6-.329-6.265-1.151l-18.481 16.745z" class="prefix__cls-3" data-name="Path 9600" transform="translate(-4209.318 -3673.27)"/>
            <path id="prefix__Path_9601" d="M4250.98 3804.969l-11.811-10.7-5.669 5.512 11.313 11a60.568 60.568 0 0 0 6.167-5.812z" class="prefix__cls-3" data-name="Path 9601" transform="translate(-4209.318 -3772.388)"/>
            <path id="prefix__Path_9602" d="M4123.958 3690.244l-18.426-16.694a28.658 28.658 0 0 1-5.644.441s-.053 1.322-.113 3.388l18.513 18z" class="prefix__cls-3" data-name="Path 9602" transform="translate(-4099.776 -3673.499)"/>
            <path id="prefix__Path_9603" d="M4202.152 3771l5.669 5.512 5.668-5.512-5.668-5.136z" class="prefix__cls-3" data-name="Path 9603" transform="translate(-4183.639 -3749.122)"/>
        </g>
        <path id="prefix__Path_9604" fill="#db7b30" d="M4113.776 3656.175s-.393 9.807-.2 17.065 5.3 16.281 22.166 23.539c15.3-9.415 21.576-18.635 21.576-24.912v-15.1s-13.927-1.765-21.773-7.454c-8.038 5.88-19.219 7.058-21.769 6.862z" data-name="Path 9604" transform="translate(-83.038 -50.014)"/>
        <path id="prefix__Path_9605" d="M4130.934 3678.974s-.336 8.218-.168 14.3 4.544 13.642 19.018 19.723c13.128-7.889 18.513-15.614 18.513-20.874v-12.656s-11.949-1.479-18.681-6.246c-6.901 4.932-16.494 5.918-18.682 5.753z" class="prefix__cls-4" data-name="Path 9605" transform="translate(-97.122 -69.602)"/>
        <path id="prefix__Path_9606" fill="none" stroke="#9f4a20" stroke-miterlimit="10" stroke-width="0.966px" d="M4137.694 3685.769s-.314 7.683-.157 13.367 4.248 12.753 17.778 18.437c12.272-7.375 17.306-14.6 17.306-19.513v-11.83s-11.17-1.383-17.463-5.838c-6.45 4.608-15.418 5.531-17.464 5.377z" data-name="Path 9606" transform="translate(-102.672 -75.476)"/>
        <g id="prefix__Group_3746" data-name="Group 3746" transform="translate(4031.633 3601.259)">
            <g id="prefix__Path_9607" class="prefix__cls-12" data-name="Path 9607">
                <path d="M4232.865 3661.316c-.383 0-.695-.311-.695-.694 0-.383.312-.695.695-.695.383 0 .694.312.694.695 0 .383-.311.694-.694.694z" class="prefix__cls-15" transform="translate(-4212.059 -3660.169)"/>
                <path d="M4232.865 3661.075c.25 0 .452-.203.452-.453s-.202-.453-.452-.453-.453.203-.453.453.203.453.453.453m0 .483c-.516 0-.936-.42-.936-.936s.42-.936.936-.936.935.42.935.936-.42.936-.935.936z" class="prefix__cls-16" transform="translate(-4212.059 -3660.169)"/>
            </g>
            <g id="prefix__Path_9608" class="prefix__cls-12" data-name="Path 9608">
                <path d="M4265.202 3677.484c-.383 0-.695-.312-.695-.694 0-.383.312-.695.695-.695.382 0 .694.312.694.695 0 .382-.312.694-.694.694z" class="prefix__cls-15" transform="translate(-4238.548 -3673.413)"/>
                <path d="M4265.202 3676.337c-.25 0-.453.203-.453.453s.203.452.453.452.453-.202.453-.452-.203-.453-.453-.453m0-.483c.516 0 .936.42.936.936s-.42.935-.936.935-.936-.42-.936-.935c0-.517.42-.936.936-.936z" class="prefix__cls-16" transform="translate(-4238.548 -3673.413)"/>
            </g>
            <g id="prefix__Path_9609" class="prefix__cls-12" data-name="Path 9609">
                <path d="M4303.915 3689.554c-.383 0-.695-.311-.695-.694 0-.383.312-.694.695-.694.382 0 .694.311.694.694 0 .383-.312.694-.694.694z" class="prefix__cls-15" transform="translate(-4270.26 -3683.301)"/>
                <path d="M4303.915 3688.407c-.25 0-.454.203-.454.453s.204.453.454.453.453-.203.453-.453-.203-.453-.453-.453m0-.483c.516 0 .936.42.936.936s-.42.936-.936.936c-.517 0-.936-.42-.936-.936s.42-.936.936-.936z" class="prefix__cls-16" transform="translate(-4270.26 -3683.301)"/>
            </g>
            <g id="prefix__Ellipse_143" class="prefix__cls-13" data-name="Ellipse 143" transform="translate(40.573 6.712)">
                <circle cx=".453" cy=".453" r=".453" class="prefix__cls-15"/>
                <circle cx=".453" cy=".453" r=".694" class="prefix__cls-17"/>
            </g>
            <g id="prefix__Ellipse_144" class="prefix__cls-13" data-name="Ellipse 144" transform="translate(40.573 13.158)">
                <circle cx=".453" cy=".453" r=".453" class="prefix__cls-15"/>
                <circle cx=".453" cy=".453" r=".694" class="prefix__cls-17"/>
            </g>
            <g id="prefix__Ellipse_145" class="prefix__cls-13" data-name="Ellipse 145" transform="translate(40.573 19.604)">
                <circle cx=".453" cy=".453" r=".453" class="prefix__cls-15"/>
                <circle cx=".453" cy=".453" r=".694" class="prefix__cls-17"/>
            </g>
            <g id="prefix__Path_9610" class="prefix__cls-12" data-name="Path 9610">
                <path d="M4337.294 3807.423c-.383 0-.695-.311-.695-.694 0-.383.312-.695.695-.695.382 0 .694.312.694.695 0 .383-.312.694-.694.694z" class="prefix__cls-15" transform="translate(-4297.603 -3779.854)"/>
                <path d="M4337.294 3807.182c.25 0 .452-.203.452-.453s-.202-.453-.452-.453c-.251 0-.453.203-.453.453s.202.453.453.453m0 .483c-.516 0-.936-.42-.936-.936s.42-.936.936-.936.935.42.935.936-.42.936-.935.936z" class="prefix__cls-16" transform="translate(-4297.603 -3779.854)"/>
            </g>
            <g id="prefix__Path_9611" class="prefix__cls-12" data-name="Path 9611">
                <path d="M4313.936 3837.983c-.383 0-.695-.311-.695-.694 0-.383.312-.695.695-.695.382 0 .694.312.694.695 0 .383-.312.694-.694.694z" class="prefix__cls-15" transform="translate(-4278.469 -3804.888)"/>
                <path d="M4313.936 3837.742c.25 0 .452-.203.452-.453s-.202-.453-.452-.453-.454.203-.454.453.204.453.454.453m0 .483c-.517 0-.936-.42-.936-.936s.42-.936.936-.936.935.42.935.936-.42.936-.935.936z" class="prefix__cls-16" transform="translate(-4278.469 -3804.888)"/>
            </g>
            <g id="prefix__Path_9612" class="prefix__cls-12" data-name="Path 9612">
                <path d="M4234.828 3901.621c-.383 0-.695-.311-.695-.694 0-.383.312-.695.695-.695.383 0 .695.312.695.695 0 .383-.312.694-.695.694z" class="prefix__cls-15" transform="translate(-4213.667 -3857.018)"/>
                <path d="M4234.828 3901.38c.25 0 .453-.203.453-.453s-.203-.453-.453-.453-.453.203-.453.453.203.453.453.453m0 .483c-.516 0-.936-.42-.936-.936s.42-.936.936-.936.936.42.936.936-.42.936-.936.936z" class="prefix__cls-16" transform="translate(-4213.667 -3857.018)"/>
            </g>
            <g id="prefix__Path_9613" class="prefix__cls-12" data-name="Path 9613">
                <path d="M4263.95 3881.846c-.383 0-.695-.311-.695-.694 0-.383.312-.695.695-.695.383 0 .695.312.695.695 0 .383-.312.694-.695.694z" class="prefix__cls-15" transform="translate(-4237.523 -3840.819)"/>
                <path d="M4263.95 3881.604c.25 0 .453-.202.453-.452s-.203-.453-.453-.453-.453.202-.453.453c0 .25.202.452.453.452m0 .483c-.516 0-.936-.42-.936-.935 0-.516.42-.936.936-.936s.936.42.936.936-.42.935-.936.935z" class="prefix__cls-16" transform="translate(-4237.523 -3840.819)"/>
            </g>
            <g id="prefix__Path_9614" class="prefix__cls-12" data-name="Path 9614">
                <path d="M4293.072 3859.555c-.383 0-.695-.311-.695-.694 0-.383.312-.694.695-.694.383 0 .695.311.695.694 0 .383-.312.694-.695.694z" class="prefix__cls-15" transform="translate(-4261.379 -3822.56)"/>
                <path d="M4293.072 3858.408c-.25 0-.453.203-.453.453s.203.453.453.453.453-.203.453-.453-.203-.453-.453-.453m0-.483c.516 0 .936.42.936.936s-.42.936-.936.936-.936-.42-.936-.936.42-.936.936-.936z" class="prefix__cls-16" transform="translate(-4261.379 -3822.56)"/>
            </g>
            <g id="prefix__Path_9615" class="prefix__cls-12" data-name="Path 9615">
                <path d="M4120.317 3734.08c-.383 0-.695-.312-.695-.695 0-.383.312-.695.695-.695.383 0 .694.312.694.695 0 .383-.311.694-.694.694z" class="prefix__cls-15" transform="translate(-4119.864 -3719.774)"/>
                <path d="M4120.317 3733.838c.25 0 .453-.203.453-.453s-.204-.453-.453-.453c-.25 0-.453.203-.453.453s.202.453.453.453m0 .483c-.516 0-.936-.42-.936-.936s.42-.936.936-.936.935.42.935.936-.419.936-.935.936z" class="prefix__cls-16" transform="translate(-4119.864 -3719.774)"/>
            </g>
            <g id="prefix__Path_9616" class="prefix__cls-12" data-name="Path 9616">
                <path d="M4120.317 3769.723c-.383 0-.695-.311-.695-.694 0-.383.312-.695.695-.695.383 0 .694.312.694.695 0 .383-.311.694-.694.694z" class="prefix__cls-15" transform="translate(-4119.864 -3748.972)"/>
                <path d="M4120.317 3768.576c-.25 0-.453.203-.453.453s.202.453.453.453c.25 0 .453-.203.453-.453s-.204-.453-.453-.453m0-.483c.516 0 .935.42.935.936s-.419.936-.935.936-.936-.42-.936-.936.42-.936.936-.936z" class="prefix__cls-16" transform="translate(-4119.864 -3748.972)"/>
            </g>
            <g id="prefix__Path_9617" class="prefix__cls-12" data-name="Path 9617">
                <path d="M4127.7 3807.423c-.383 0-.694-.311-.694-.694 0-.383.311-.695.694-.695.383 0 .695.312.695.695 0 .383-.312.694-.695.694z" class="prefix__cls-15" transform="translate(-4125.912 -3779.854)"/>
                <path d="M4127.7 3807.182c.25 0 .453-.203.453-.453s-.202-.453-.453-.453c-.25 0-.452.203-.452.453s.203.453.452.453m0 .483c-.516 0-.935-.42-.935-.936s.42-.936.935-.936c.516 0 .936.42.936.936s-.42.936-.936.936z" class="prefix__cls-16" transform="translate(-4125.912 -3779.854)"/>
            </g>
            <g id="prefix__Path_9618" class="prefix__cls-12" data-name="Path 9618">
                <path d="M4144.99 3840.827c-.383 0-.695-.311-.695-.694 0-.383.312-.695.695-.695.383 0 .694.312.694.695 0 .383-.311.694-.694.694z" class="prefix__cls-15" transform="translate(-4140.075 -3807.218)"/>
                <path d="M4144.99 3839.68c-.25 0-.453.202-.453.453 0 .25.203.453.453.453s.452-.203.452-.453-.202-.454-.452-.454m0-.482c.516 0 .935.42.935.936s-.42.936-.935.936c-.516 0-.936-.42-.936-.936 0-.517.42-.936.936-.936z" class="prefix__cls-16" transform="translate(-4140.075 -3807.218)"/>
            </g>
            <g id="prefix__Ellipse_146" class="prefix__cls-13" data-name="Ellipse 146" transform="translate(14.567 40.458)">
                <circle cx=".453" cy=".453" r=".453" class="prefix__cls-15"/>
                <circle cx=".453" cy=".453" r=".694" class="prefix__cls-17"/>
            </g>
            <g id="prefix__Ellipse_147" class="prefix__cls-13" data-name="Ellipse 147" transform="translate(8.619 36.445)">
                <circle cx=".453" cy=".453" r=".453" class="prefix__cls-15"/>
                <circle cx=".453" cy=".453" r=".694" class="prefix__cls-17"/>
            </g>
            <g id="prefix__Path_9619" class="prefix__cls-12" data-name="Path 9619">
                <path d="M4202.436 3677.484c-.383 0-.695-.312-.695-.694 0-.383.312-.695.695-.695.382 0 .694.312.694.695 0 .382-.312.694-.694.694z" class="prefix__cls-15" transform="translate(-4187.132 -3673.413)"/>
                <path d="M4202.436 3676.337c-.25 0-.454.203-.454.453s.203.452.454.452c.25 0 .452-.202.452-.452s-.202-.453-.452-.453m0-.483c.516 0 .935.42.935.936s-.42.935-.935.935c-.517 0-.936-.42-.936-.935 0-.517.42-.936.936-.936z" class="prefix__cls-16" transform="translate(-4187.132 -3673.413)"/>
            </g>
            <g id="prefix__Path_9620" class="prefix__cls-12" data-name="Path 9620">
                <path d="M4163.723 3689.554c-.383 0-.695-.311-.695-.694 0-.383.312-.694.695-.694.383 0 .694.311.694.694 0 .383-.311.694-.694.694z" class="prefix__cls-15" transform="translate(-4155.421 -3683.301)"/>
                <path d="M4163.723 3688.407c-.25 0-.453.203-.453.453s.203.453.453.453.453-.203.453-.453-.203-.453-.453-.453m0-.483c.516 0 .936.42.936.936s-.42.936-.936.936-.936-.42-.936-.936.42-.936.936-.936z" class="prefix__cls-16" transform="translate(-4155.421 -3683.301)"/>
            </g>
            <g id="prefix__Ellipse_148" class="prefix__cls-13" data-name="Ellipse 148" transform="translate(.478 6.712)">
                <circle cx=".453" cy=".453" r=".453" class="prefix__cls-15"/>
                <circle cx=".453" cy=".453" r=".694" class="prefix__cls-17"/>
            </g>
        </g>
        <path id="prefix__Path_9621" fill="#9f4a20" d="M4113.776 3656.575s-.393 9.808-.2 17.065c.194 7.211 5.235 16.163 21.844 23.4v-47.24c-8.029 5.8-19.107 6.97-21.644 6.775z" data-name="Path 9621" transform="translate(-83.038 -50.414)" style="mix-blend-mode:multiply;isolation:isolate" opacity="0.2"/>
    </g>
</svg>
